<svg id="Layer_1" data-name="Layer 1" xmlns="http://www.w3.org/2000/svg" viewBox="0 0 152.23 151.22"><defs><style>.cls-1{fill:#7d8f9f;}</style></defs><title>AA_Reduced_Logo</title><path class="cls-1" d="M78.87,4.56Q93.93,34.22,108.76,64q-5.15,0-10.29,0C92.07,51,85.4,38.15,78.93,25.19,72.37,38.07,66.14,51.1,59.65,64q-5.15,0-10.27,0Q64,34.23,78.87,4.56" transform="translate(-3.13 -4.56)"/><path class="cls-1" d="M41.59,78.25q37.28-.06,74.54,0c1.51,3,3,6,4.48,9q-41.75.08-83.49,0c1.48-3,3-6,4.47-9" transform="translate(-3.13 -4.56)"/><path class="cls-1" d="M3.13,155.51Q17.8,125.75,32.61,96.07c10.21,19.7,20,39.63,30,59.42-3.45,0-6.9,0-10.35,0-6.59-12.9-12.75-26-19.62-38.8-6.45,12.92-12.7,25.93-19.24,38.8-3.42,0-6.83,0-10.25,0" transform="translate(-3.13 -4.56)"/><path class="cls-1" d="M95.76,155.51c9.75-19.87,19.69-39.65,29.47-59.5,10.2,19.84,20.08,39.85,30.13,59.77-3.49-.29-7-0.3-10.49-0.27-6.53-12.92-12.83-26-19.52-38.8-6.63,12.84-12.75,25.94-19.35,38.8-3.42,0-6.83,0-10.24,0" transform="translate(-3.13 -4.56)"/></svg>