<svg id="Layer_1" data-name="Layer 1" xmlns="http://www.w3.org/2000/svg" xmlns:xlink="http://www.w3.org/1999/xlink" viewBox="0 0 542.19 611.21"><defs><style>.cls-1{fill:#f8c5b3;}.cls-2{fill:#4d555c;}.cls-3{fill:#e6e7e8;}.cls-4{fill:#f6bba6;}.cls-5{fill:#c7e8ed;}.cls-6{fill:#a4dbe7;}.cls-7{fill:#4d555b;}.cls-8{fill:#3a2b54;}.cls-9{fill:url(#Skintone_5);}.cls-10{fill:#fff;}.cls-11,.cls-17{fill:#917890;}.cls-12{fill:#826b82;}.cls-13{fill:#b07db4;}.cls-14{fill:#6d586d;}.cls-15{fill:#ccc;}.cls-16{fill:#e6e7e7;}.cls-17{font-size:19px;font-family:Lintel;}</style><linearGradient id="Skintone_5" x1="62.41" y1="128.87" x2="84.54" y2="108.24" gradientUnits="userSpaceOnUse"><stop offset="0" stop-color="#efb9aa"/><stop offset="0.47" stop-color="#dda795"/><stop offset="0.51" stop-color="#dca593"/><stop offset="1" stop-color="#c98269"/></linearGradient></defs><title>art1</title><g id="people"><path class="cls-1" d="M716.41,433.92s-9,1.13-11.1,2.72-14.64,12.11-14.64,12.11-2.11,2.64,3.17,1.59,4.91-5.92,6.5-4.33-0.84,3.86-1.9,5.44-14.27,13.22-15.86,15.33-3.11,3.7-2.57,4.9,1.83-.83,3.63-2.25,13.75-9.52,13.75-9.52-10.48,12.16-11.54,14.27-3,4.17-2.2,4.76c1.68,1.27,2.54-.93,4-0.43,2.16,0.72.36,0.89,3-.17s14.11-9.45,14.11-9.45-7.32,9.93-4.76,10.58c0.81,0.21,1.9-2,3.48-3.63s7.09-10.65,9.74-13.29,5.82-10,6.34-12.16,5.29-10,5.29-10Z" transform="translate(-343.6 -101.16)"/><path class="cls-2" d="M786.9,679.86c0.53,1.72-15.33,16.63-20.09,20.06s-15.86,4.59-15.33,7.45,7.93,2.29,18.51,0,16.39-6.3,18-8,6.87-10.89,9.52-9.74-2.64,14.33-2.64,14.33l5.81-1.72A119,119,0,0,0,807,687.88c2.11-6.31,0-9.75-2.11-10.89a21.33,21.33,0,0,0-5.29-1.72Z" transform="translate(-343.6 -101.16)"/><path class="cls-2" d="M839.88,692.2s-7.93,8.46-13.22,12.69a52.74,52.74,0,0,1-12.16,6.87s15.86,2.11,24.32-1.59,11.1-5.82,12.16-8.46,5.29-9,5.29-9l-2.65,13.22,5.29-1.06a35.89,35.89,0,0,0,3.7-15.33c0-8.46-3.17-11.11-4.76-10.58a69.63,69.63,0,0,0-6.87,3.7Z" transform="translate(-343.6 -101.16)"/><path class="cls-3" d="M793.24,269.76s-19,23.79-19,36.48,2.12,51.81,2.65,53.4,8.46,31.19,7.93,33.84-3.7,25.91-3.7,25.91,35.42-1.06,38.07-1.58,10-2.12,10-2.12-18.5-54.46-14.28-83.53,5.82-37.54,5.82-37.54l-1.06-12.69s-3.7-4.23-5.29-5.29S793.24,269.76,793.24,269.76Z" transform="translate(-343.6 -101.16)"/><path class="cls-4" d="M581.46,333.24l8.25-8.25s-4.5-12-1.5-14.25,3.75-19.5,3.75-19.5,6,0.75,6,5.25-2.25,14.25,2.25,17.25,13.5,3,15.75,3.75,9-.75,9-0.75S634.72,304,637,304s2.25,3,.75,5.25-7.5,9-7.5,9,15.75-7.5,18.75-7.5,3.75,2.25,1.5,4.5-21,12-21,12-7.5,7.5-11.25,9.75-22.5,3.75-22.5,3.75l-7.5,3Z" transform="translate(-343.6 -101.16)"/><path class="cls-5" d="M403.76,281.59S364,314.59,361,327.34s-23.25,69-15.75,87.77,31.51,49.51,31.51,49.51l15.75-10.5-5.25-19.5-6-5.25s-9.75-34.5-.75-51.76,17.25-13.5,17.25-13.5,25.5,57,27,63,9.75,19.5,9.75,19.5l39.76-2.25L505,425.61s-3.75-28.51-6-42-7.5-37.51-7.5-37.51S517,397.16,541,389.66s53.37-42.59,53.37-42.59l-12-22.5s-42.9,30-51.16,22.5-29.22-55.73-42-62.48S451,274.83,451,274.83s-37.51,6-43.51,8.25" transform="translate(-343.6 -101.16)"/><path class="cls-6" d="M367.55,452.2c5.23,7.31,9.21,12.42,9.21,12.42l15.75-10.5-3.7-13.75C382,444.75,374.76,448.42,367.55,452.2Z" transform="translate(-343.6 -101.16)"/><path class="cls-6" d="M568.94,335.67l0.17,0.47,0.06,0.11q0.64,1.31,1.33,2.6a125.7,125.7,0,0,0,8,12.47c1.75,2.43,3.54,4.85,5.29,7.29,6.45-6.58,10.6-11.54,10.6-11.54l-12-22.5s-6.08,4.25-14.11,9.16C568.49,334.37,568.7,335,568.94,335.67Z" transform="translate(-343.6 -101.16)"/><path class="cls-4" d="M404.51,273.33s-24-47.26-21-51.76,13.5-9.75,16.5-9.75,21,4.5,22.5,6.75L442,247.83l3.75,14.25s-1.5,13.5-15,17.25S404.51,273.33,404.51,273.33Z" transform="translate(-343.6 -101.16)"/><path class="cls-1" d="M421,176.57s28.5,62.26,29.26,68.26-27.76,18-32.26,19.5-16.5-17.25-16.5-17.25-27.75-35.26-25.5-42,9.75-13.5,12-14.25,15.75-6.75,15.75-6.75Z" transform="translate(-343.6 -101.16)"/><path class="cls-7" d="M385.76,193.82c2.25,0,31.75-6.51,36.38-13.13,3.94-5.63,1.75-9.71-1.88-12.38s-7.31-2.06-15.94,2.81c-3.43,1.94-28.4,16.77-33.76,20.82-7.69,5.81-3.94,16.31-.19,23.07s20.82,28.69,20.82,28.69,1.83-4,0-10.69c-0.74-2.7-7.5-8.25-7.69-11.44-0.39-6.7,6.75,0,8.25,2.25a69.15,69.15,0,0,0,6,6.75L400.2,227s-7.28-13.72-9.94-15.94C385.76,207.32,385.76,193.82,385.76,193.82Z" transform="translate(-343.6 -101.16)"/><polygon class="cls-8" points="85.05 94.54 74.42 99.79 76.08 101.67 86.04 96.79 85.05 94.54"/><polygon class="cls-8" points="67.67 103.92 56.33 110.67 55.66 108.79 66.33 101.67 67.67 103.92"/><polygon class="cls-9" points="74.42 103.17 86.79 120.05 81.54 124.55 83.42 127.17 89.42 120.42 77.79 103.92 74.42 99.79 74.42 103.17"/><path class="cls-8" d="M421.39,206.76a16.79,16.79,0,0,1,6.75-4.87c4.13-1.5,6-2.25,6-2.25l-6.75,4.5Z" transform="translate(-343.6 -101.16)"/><ellipse class="cls-8" cx="86.8" cy="102.79" rx="2.44" ry="2.53"/><path class="cls-8" d="M402.64,216a16.8,16.8,0,0,1,6.75-4.88c4.13-1.5,6-2.25,6-2.25l-6.75,4.5Z" transform="translate(-343.6 -101.16)"/><ellipse class="cls-8" cx="68.04" cy="111.98" rx="2.44" ry="2.53"/><path class="cls-10" d="M435.49,230.57s-5.51,3.56-9.19,4.7a40.76,40.76,0,0,1-8.85,1.3s0.46,0.23,1.21.58c2.36,1.09,7.57,3.31,10,2.82,3.17-.65,8.69-4.05,8.69-4.05S435.49,229.76,435.49,230.57Z" transform="translate(-343.6 -101.16)"/><path class="cls-8" d="M418.77,238.08s9.75,3.56,13.31,2.63a16.37,16.37,0,0,0,5.81-2.81l-1.5-2.44s-8.06,2.63-10.88,2.63-8.06-1.52-8.06-1.52Z" transform="translate(-343.6 -101.16)"/><path class="cls-6" d="M400.76,268.08a64.16,64.16,0,0,0,16.5,6c8.25,1.5,12.75,0,12.75,0l-1.5,24.75a65.78,65.78,0,0,1-18-7.5c-8.25-5.25-9.75-9.75-9.75-9.75v-13.5Z" transform="translate(-343.6 -101.16)"/><path class="cls-6" d="M445,259.08s1.5,1.5-3.75,7.5a24.53,24.53,0,0,1-11.25,7.5l17.25,18.75s3.75-9.75,3.75-18S445,259.08,445,259.08Z" transform="translate(-343.6 -101.16)"/><path class="cls-11" d="M430,274.09l-1.5,18,8.25,6.75s14.25,78,15,93,0,22.5,0,22.5L469,430.11l5.25-19.5s-13.5-55.51-18.75-69-14.25-46.51-14.25-46.51l0.75-9.75Z" transform="translate(-343.6 -101.16)"/><path class="cls-11" d="M430.77,442.11s31.87-.17,42-3c8.73-2.44,32.26-16.5,32.26-16.5s7.5,108,8.25,147.78S505,668.65,505,668.65l-12.75-1.5s-0.75-96.77-4.5-114.77-7.5-51.76-7.5-51.76-9,66-14.25,86.27-29.25,102-29.25,102H424s14.25-120,12.75-134.27S431.52,466.87,430.77,442.11Z" transform="translate(-343.6 -101.16)"/><path class="cls-2" d="M424,688.91s-9,9-5.25,9.75,5.25-3.75,7.5-1.5,4.5,4.5,9,5.25,28.5,3.75,30.75.75,6.75-.75,2.25-3-18-5.25-22.5-7.5a78.2,78.2,0,0,0-9-3.75H424Z" transform="translate(-343.6 -101.16)"/><path class="cls-2" d="M492.28,667.15s-9,10.5-6,12.75,7.5-1.5,7.5-1.5,9.75,6.75,19.5,5.25,16.5-.75,16.5-3.75-0.75-5.25-3.75-4.5-12,2.25-16.5-2.25-5.25-7.5-5.25-7.5Z" transform="translate(-343.6 -101.16)"/><path class="cls-1" d="M389.51,454.12s10.5,10.5,12,15,7.5,17.25,8.25,20.25a52.49,52.49,0,0,1,1.57,9.85,25,25,0,0,1-1.36,9c-1.5,3.75-6,3.75-5.25,1.5a38.48,38.48,0,0,0,1.49-9.69c0-4.6-2-9.22-2.45-9.19a1.09,1.09,0,0,0-.89.36c-0.67,1.1-.88,6.74-1.23,11.81-0.24,3.51-2.08,6.4-2.61,7.73-2.71,6.87-5,1.85-5,1.85l2.79-10.24-0.47-10.71-0.83-.05a67.82,67.82,0,0,1-2.25,11.7,24.56,24.56,0,0,1-3.75,7.05c-2.25,3-4.91-.34-4.91-0.34l3.73-8.11,2-10.16-0.86-.15L383.85,500l-6.43,4.38a6.55,6.55,0,0,1-.56-3.17c0.3-1.47,2.34-2.86,4.1-4.94a29.12,29.12,0,0,0,4-6.87,36.5,36.5,0,0,1-3-11.25c-0.75-6.75-6.75-17.25-6.75-17.25Z" transform="translate(-343.6 -101.16)"/><path class="cls-1" d="M803.93,543.11s1.58,20.62,2.64,24.32,34.89,104.15,35.95,108.38a25.74,25.74,0,0,1,0,12.69c-1.06,4.23-7.4,12.69-7.4,12.69s2.65,0.53,10-3.7,9.52-8.46,11.1-10.57,2.64-2.64,2.64-5.82-3.17-9.52-3.17-9.52-11.1-43.35-11.63-49.17-4.76-46-9-57.1-7.4-13.75-7.4-13.75V538.88Z" transform="translate(-343.6 -101.16)"/><path class="cls-1" d="M780,534.11s-2.12,12.16-1.06,17.45A44.25,44.25,0,0,1,780,559s4.76,80.36,5.81,84.59,1.06,32.78,1.06,36-8.46,11.63-8.46,11.63,10.31-3.74,16.39-4.76c6.34-1.06,11.2-2.79,10-7.4-1.06-4.23-3.7-2.12-3.7-2.12s0.53-19.56,0-24.32,7.93-61.33,5.81-76.66a264.26,264.26,0,0,0-5.29-27.49l0.53-20.09Z" transform="translate(-343.6 -101.16)"/><path class="cls-11" d="M774.74,413.57c0,1.59-2.11,57.63-1.06,74.54s2.64,51.28,2.64,51.28l61.33-3.17s14.27-57.63,7.4-88.82-13.75-41.24-13.75-41.24-25.91,3.17-28.55,3.7-25.38-.53-25.38-0.53Z" transform="translate(-343.6 -101.16)"/><path class="cls-12" d="M822.42,429.41a176.2,176.2,0,0,1,21.51,13.09c-6.48-27.35-12.62-36.34-12.62-36.34s-25.91,3.17-28.55,3.7-25.38-.53-25.38-0.53l-2.64,4.23c0,0.08,0,.29,0,0.62A163.68,163.68,0,0,1,822.42,429.41Z" transform="translate(-343.6 -101.16)"/><path class="cls-11" d="M766.81,308.8s-7.93,60.56-10,64.84-31.72,44-34.37,48.94-9,11-9,11L724,445.82s36-41.6,41.77-47.1S779.5,374.86,781.08,370s0.53-72.18.53-72.18Z" transform="translate(-343.6 -101.16)"/><path class="cls-11" d="M787.43,269.24s-22.21,18.5-22.21,20.62-0.53,6.34,0,10-10.57,21.68-10.57,27.49,20.09,39.12,21.14,49.17-5.29,38.07-5.29,38.07l18,5.29s5.82-16.39,4.23-29.61-18.5-54.46-16.39-70.84S780,293,783.2,286.68s6.87-12.16,6.87-12.16Z" transform="translate(-343.6 -101.16)"/><path class="cls-1" d="M776.38,189.31a77.78,77.78,0,0,0-6.5,16.74c-2.28,9.13.29,8-3.13,13.73s-13,9.05-9.69,12.93a8.6,8.6,0,0,0,4.73,2.43,17.39,17.39,0,0,1-1.58,4.74c-1.12,2.29,1,6.29.92,9.35-0.11,5.89-.78,11.93,3.46,12.46a40.41,40.41,0,0,0,17.58-2.17l7.42,38.8,25.59-20s-5.71-1.14-12.55-24S788.93,193.88,776.38,189.31Z" transform="translate(-343.6 -101.16)"/><path class="cls-4" d="M785.53,277.1c0.66-.8,1.34-1.59,2-2.4,0.9-1.12,1.79-2.23,2.68-3.36l0.19-.25,1.25-1.66c1.36-1.82,2.7-3.65,4-5.52s2.39-3.51,3.44-5.35c0.23-.41.46-0.82,0.68-1.24a11.34,11.34,0,0,1,2.47-4.32c-0.3-1-.6-2.08-0.91-3.17a101.21,101.21,0,0,1-17.1,8.71c-0.92.44-1.86,0.85-2.8,1.24l0.75-.27Z" transform="translate(-343.6 -101.16)"/><path class="cls-13" d="M760.21,239.35s0.44,0.6,3.55,2.11,7.51,0.53,7.51.53-8.74,7.86-10.81,6a2.76,2.76,0,0,1-.25-3.94S758.49,241.46,760.21,239.35Z" transform="translate(-343.6 -101.16)"/><path class="cls-14" d="M771.26,217.66s4.56-2.62,7-1c2.67,1.75,2.21,2,4.23,4.62,0,0-3.27-4.07-6.4-3.59s-5.06.72-5.06,0.72Z" transform="translate(-343.6 -101.16)"/><path class="cls-14" d="M775.11,225c-0.42,1.33-1.33,2.23-2,2s-0.92-1.48-.5-2.81,1.13-1.29,1.83-1.07S775.53,223.69,775.11,225Z" transform="translate(-343.6 -101.16)"/><path class="cls-14" d="M769.73,221.84c-0.19-.13.45,1.17,2.86,1.5s5.27,2.4,9,1.88a10.53,10.53,0,0,1-3.45-1.3C776.16,222.82,771.62,223.14,769.73,221.84Z" transform="translate(-343.6 -101.16)"/><path class="cls-11" d="M808.57,276.11s-17.45,43.35-14.28,58.16,5.29,34.89,6.87,46.53,0,37,0,37,33.83-6.87,37.54-7.4,1.59-3.17,1.59-3.17-21.68-27.49-16.92-43.35,12.69-55,12.69-65.56-8.3-24-8.3-24Z" transform="translate(-343.6 -101.16)"/><path class="cls-11" d="M830.78,284a25.41,25.41,0,0,1,12.69,15.33c2.66,8.84,20.62,74,21.15,80.89s-9.52,39.12-9.52,46-5.29,25.38-5.29,25.38l-20.09-3.17s14.8-65,11.63-77.19-20.62-54.45-20.62-54.45-3.17-25.38,7.4-31.72" transform="translate(-343.6 -101.16)"/><rect class="cls-15" x="428.02" y="379.04" width="114.18" height="51.8"/><g id="Layer_8" data-name="Layer 8"><path class="cls-2" d="M802.15,506.41v3.51h50.51v-3.51h13.07v3.51h8.62a11.65,11.65,0,0,0,11.44-9.55V479.63H848.06v-9.12a2.15,2.15,0,0,0-2.15-2.15H812.72a2.15,2.15,0,0,0-2.15,2.15v9.12h-38v22.59a11.65,11.65,0,0,0,10.94,7.7h5.54v-3.51h13.07Zm12.72-33.76h28.9v7h-28.9v-7Zm50.86,49.16v-9h8.62a14.48,14.48,0,0,0,11.44-5.62v51.27H772.6V507.78a14.46,14.46,0,0,0,10.94,5h5.54v9h13.07v-9h50.51v9h13.07Z" transform="translate(-343.6 -101.16)"/></g><path class="cls-1" d="M835.86,444.23s-1.44,5.73-4.81,6.68-10.1,3.82-10.1,3.82-6.74,9.55-8.18,10.51,2.4,1,4.33-.48,4.33-3.35,4.33-3.35l-1,6.21s-4.81,7.64-1.92,8.6,21.17,4.3,22.13,1.43,3.85-19.1,3.85-19.1l-2.89-4.77,1-7.64Z" transform="translate(-343.6 -101.16)"/><path class="cls-7" d="M772.47,188.77s12.55,13.69,13.69,38.79,8,57.05,34.23,57.05,43.36-10.27,43.36-10.27S842.07,155.68,772.47,188.77Z" transform="translate(-343.6 -101.16)"/></g><path class="cls-16" d="M547.58,230.71c4.89-5.58,9.89-11.07,14.65-16.76,3.72-4.45,3.62-4.68-1.76-6.1-12.85-3.4-20.62-11.19-23-24.6a179.17,179.17,0,0,1-1.22-51.7c1.15-10.15,6.82-16.08,16.07-19.58,12.43-4.7,25.38-6.87,38.43-8.51a270.7,270.7,0,0,1,45.84-2.07c13.9,0.62,27.45,3,39.94,9.68,7.58,4.07,11.43,9.89,11.57,18.8a79.65,79.65,0,0,1-6.67,32.53,177.52,177.52,0,0,1-25.49,43.33c-10,12.3-23.22,16-38.06,16.42-12.71.38-25.24-1.39-37.72-3.46a12,12,0,0,0-8.11,1.33c-7.76,4.11-15.66,8-23.5,11.91Z" transform="translate(-343.6 -101.16)"/><text class="cls-17" transform="translate(213.33 61.12)">Why TYVIX?</text><text class="cls-17" transform="translate(213.33 61.12)">Why TYVIX?</text></svg>