<svg id="Layer_1" data-name="Layer 1" xmlns="http://www.w3.org/2000/svg" xmlns:xlink="http://www.w3.org/1999/xlink" viewBox="0 0 442.18 498.46"><defs><style>.cls-1{fill:#f8c5b3;}.cls-2{fill:#4d555c;}.cls-3{fill:#e6e7e8;}.cls-4{fill:#f6bba6;}.cls-5{fill:#c7e8ed;}.cls-6{fill:#a4dbe7;}.cls-7{fill:#4d555b;}.cls-8{fill:#3a2b54;}.cls-9{fill:url(#Skintone_5);}.cls-10{fill:#fff;}.cls-11,.cls-17{fill:#917890;}.cls-12{fill:#826b82;}.cls-13{fill:#b07db4;}.cls-14{fill:#6d586d;}.cls-15{fill:#ccc;}.cls-16{fill:#e6e7e7;}.cls-17{font-size:15.5px;font-family:Lintel;}</style><linearGradient id="Skintone_5" x1="50.9" y1="105.1" x2="68.94" y2="88.28" gradientUnits="userSpaceOnUse"><stop offset="0" stop-color="#efb9aa"/><stop offset="0.47" stop-color="#dda795"/><stop offset="0.51" stop-color="#dca593"/><stop offset="1" stop-color="#c98269"/></linearGradient></defs><title>art1</title><g id="people"><path class="cls-1" d="M647.64,372.53s-7.33.92-9.06,2.22-11.94,9.88-11.94,9.88-1.72,2.16,2.59,1.29,4-4.83,5.3-3.53-0.69,3.14-1.55,4.44S621.34,397.6,620,399.33s-2.53,3-2.1,4,1.5-.68,3-1.84,11.21-7.76,11.21-7.76-8.55,9.91-9.41,11.64-2.45,3.4-1.8,3.89c1.37,1,2.07-.76,3.29-0.35,1.76,0.59.29,0.73,2.45-.14s11.51-7.7,11.51-7.7-6,8.1-3.88,8.62c0.66,0.17,1.55-1.67,2.84-3s5.78-8.68,7.94-10.84,4.74-8.19,5.17-9.92,4.31-8.19,4.31-8.19Z" transform="translate(-343.6 -101.16)"/><path class="cls-2" d="M705.12,573.11c0.43,1.4-12.5,13.56-16.38,16.36s-12.93,3.74-12.5,6.08,6.47,1.87,15.09,0S704.69,590.4,706,589s5.61-8.88,7.76-7.95-2.16,11.69-2.16,11.69l4.74-1.4a97,97,0,0,0,5.17-11.69c1.72-5.14,0-7.95-1.72-8.88a17.4,17.4,0,0,0-4.31-1.4Z" transform="translate(-343.6 -101.16)"/><path class="cls-2" d="M748.34,583.18a138.45,138.45,0,0,1-10.78,10.35,43,43,0,0,1-9.92,5.61s12.94,1.72,19.83-1.29,9.05-4.74,9.92-6.9a66.2,66.2,0,0,1,4.31-7.33l-2.16,10.78,4.31-.86a29.27,29.27,0,0,0,3-12.5c0-6.9-2.59-9.06-3.88-8.62a56.79,56.79,0,0,0-5.6,3Z" transform="translate(-343.6 -101.16)"/><path class="cls-3" d="M710.3,238.66s-15.52,19.4-15.52,29.75,1.73,42.25,2.16,43.55,6.9,25.44,6.47,27.59-3,21.13-3,21.13,28.89-.86,31-1.29,8.19-1.73,8.19-1.73S724.53,313.25,728,289.54s4.74-30.61,4.74-30.61l-0.86-10.35a39.19,39.19,0,0,0-4.31-4.31C726.25,243.41,710.3,238.66,710.3,238.66Z" transform="translate(-343.6 -101.16)"/><path class="cls-4" d="M537.58,290.43l6.73-6.73s-3.67-9.79-1.22-11.62,3.06-15.91,3.06-15.91,4.89,0.61,4.89,4.28-1.84,11.62,1.84,14.07,11,2.45,12.85,3.06,7.34-.61,7.34-0.61,8-10.4,9.79-10.4,1.84,2.45.61,4.28-6.12,7.34-6.12,7.34,12.85-6.12,15.29-6.12,3.06,1.84,1.22,3.67-17.13,9.79-17.13,9.79-6.12,6.12-9.18,8-18.35,3.06-18.35,3.06L543.09,299Z" transform="translate(-343.6 -101.16)"/><path class="cls-5" d="M392.67,248.3s-32.42,26.92-34.87,37.32-19,56.28-12.85,71.58,25.69,40.38,25.69,40.38L383.49,389l-4.28-15.9-4.89-4.28s-8-28.14-.61-42.21,14.07-11,14.07-11,20.8,46.49,22,51.39,8,15.91,8,15.91l32.42-1.84,25.08-15.29s-3.06-23.25-4.89-34.26-6.12-30.59-6.12-30.59,20.8,41.64,40.38,35.53,43.52-34.74,43.52-34.74l-9.79-18.35s-35,24.47-41.72,18.35-23.83-45.45-34.23-51-31.2-8-31.2-8-30.59,4.89-35.48,6.73" transform="translate(-343.6 -101.16)"/><path class="cls-6" d="M363.13,387.45c4.26,6,7.51,10.13,7.51,10.13L383.49,389l-3-11.21C374.92,381.37,369,384.36,363.13,387.45Z" transform="translate(-343.6 -101.16)"/><path class="cls-6" d="M527.37,292.41l0.14,0.38,0,0.09q0.52,1.07,1.09,2.12a102.51,102.51,0,0,0,6.55,10.17c1.43,2,2.89,4,4.32,5.95,5.26-5.37,8.64-9.41,8.64-9.41l-9.79-18.35s-5,3.47-11.51,7.47C527,291.35,527.18,291.88,527.37,292.41Z" transform="translate(-343.6 -101.16)"/><path class="cls-4" d="M393.28,241.57S373.7,203,376.15,199.36s11-8,13.46-8,17.13,3.67,18.35,5.51l15.91,23.86,3.06,11.62s-1.22,11-12.23,14.07S393.28,241.57,393.28,241.57Z" transform="translate(-343.6 -101.16)"/><path class="cls-1" d="M406.74,162.66s23.25,50.78,23.86,55.67S408,233,404.29,234.23s-13.46-14.07-13.46-14.07S368.19,191.41,370,185.9s8-11,9.79-11.62,12.85-5.51,12.85-5.51Z" transform="translate(-343.6 -101.16)"/><path class="cls-7" d="M378,176.73c1.83,0,25.89-5.31,29.67-10.71,3.21-4.59,1.42-7.92-1.53-10.09s-6-1.68-13,2.29c-2.8,1.58-23.16,13.68-27.53,17-6.27,4.74-3.21,13.31-.15,18.81s17,23.4,17,23.4,1.49-3.28,0-8.72c-0.6-2.2-6.12-6.73-6.27-9.33-0.32-5.46,5.51,0,6.73,1.84a56.4,56.4,0,0,0,4.89,5.51l2-2.91s-5.93-11.19-8.11-13C378,187.74,378,176.73,378,176.73Z" transform="translate(-343.6 -101.16)"/><polygon class="cls-8" points="69.36 77.1 60.69 81.38 62.04 82.91 70.17 78.94 69.36 77.1"/><polygon class="cls-8" points="55.18 84.75 45.94 90.25 45.4 88.72 54.1 82.91 55.18 84.75"/><polygon class="cls-9" points="60.69 84.14 70.78 97.9 66.5 101.57 68.03 103.71 72.92 98.21 63.44 84.75 60.69 81.38 60.69 84.14"/><path class="cls-8" d="M407,187.28a13.69,13.69,0,0,1,5.51-4c3.36-1.22,4.89-1.84,4.89-1.84l-5.51,3.67Z" transform="translate(-343.6 -101.16)"/><ellipse class="cls-8" cx="70.78" cy="83.83" rx="1.99" ry="2.06"/><path class="cls-8" d="M391.75,194.78a13.7,13.7,0,0,1,5.51-4c3.37-1.22,4.89-1.84,4.89-1.84l-5.51,3.67Z" transform="translate(-343.6 -101.16)"/><ellipse class="cls-8" cx="55.49" cy="91.32" rx="1.99" ry="2.06"/><path class="cls-10" d="M418.54,206.69a40.43,40.43,0,0,1-7.49,3.83,33.24,33.24,0,0,1-7.22,1.06l1,0.47c1.93,0.89,6.17,2.7,8.14,2.3,2.59-.53,7.09-3.3,7.09-3.3S418.54,206,418.54,206.69Z" transform="translate(-343.6 -101.16)"/><path class="cls-8" d="M404.9,212.82s8,2.91,10.86,2.14a13.35,13.35,0,0,0,4.74-2.29l-1.22-2s-6.58,2.14-8.87,2.14a33,33,0,0,1-6.58-1.24Z" transform="translate(-343.6 -101.16)"/><path class="cls-6" d="M390.22,237.29a52.32,52.32,0,0,0,13.46,4.89c6.73,1.22,10.4,0,10.4,0l-1.22,20.19a53.65,53.65,0,0,1-14.68-6.12c-6.73-4.28-8-8-8-8v-11Z" transform="translate(-343.6 -101.16)"/><path class="cls-6" d="M426.31,230s1.22,1.22-3.06,6.12a20,20,0,0,1-9.18,6.12l14.07,15.29s3.06-8,3.06-14.68S426.31,230,426.31,230Z" transform="translate(-343.6 -101.16)"/><path class="cls-11" d="M414.08,242.19l-1.22,14.68,6.73,5.51S431.2,326,431.82,338.23a137.67,137.67,0,0,1,0,18.35l14.07,12.85,4.28-15.91s-11-45.27-15.29-56.28-11.62-37.93-11.62-37.93l0.61-8Z" transform="translate(-343.6 -101.16)"/><path class="cls-11" d="M414.69,379.22s26-.14,34.26-2.45c7.12-2,26.31-13.46,26.31-13.46s6.12,88.09,6.73,120.52S475.25,564,475.25,564l-10.4-1.22s-0.61-78.92-3.67-93.6-6.12-42.21-6.12-42.21-7.34,53.84-11.62,70.35-23.86,83.2-23.86,83.2h-10.4s11.62-97.88,10.4-109.5S415.3,399.41,414.69,379.22Z" transform="translate(-343.6 -101.16)"/><path class="cls-2" d="M409.18,580.49s-7.34,7.34-4.28,8,4.28-3.06,6.12-1.22,3.67,3.67,7.34,4.28,23.25,3.06,25.08.61,5.51-.61,1.84-2.45-14.68-4.28-18.35-6.12a63.77,63.77,0,0,0-7.34-3.06h-10.4Z" transform="translate(-343.6 -101.16)"/><path class="cls-2" d="M464.85,562.75s-7.34,8.57-4.89,10.4,6.12-1.22,6.12-1.22,8,5.51,15.91,4.28,13.46-.61,13.46-3.06-0.61-4.28-3.06-3.67-9.79,1.84-13.46-1.83-4.28-6.12-4.28-6.12Z" transform="translate(-343.6 -101.16)"/><path class="cls-1" d="M381,389s8.56,8.57,9.79,12.24,6.12,14.07,6.73,16.52a42.8,42.8,0,0,1,1.28,8,20.42,20.42,0,0,1-1.11,7.36c-1.22,3.06-4.89,3.06-4.28,1.22a31.38,31.38,0,0,0,1.22-7.9c0-3.75-1.67-7.52-2-7.49a0.89,0.89,0,0,0-.72.29c-0.54.9-.72,5.5-1,9.63-0.19,2.86-1.7,5.22-2.13,6.31-2.21,5.6-4.1,1.51-4.1,1.51l2.28-8.35-0.38-8.74-0.67,0a55.31,55.31,0,0,1-1.83,9.54,20,20,0,0,1-3.06,5.75c-1.84,2.45-4-.28-4-0.28l3-6.61,1.67-8.28-0.7-.12-4.62,6.81L371.18,430a5.34,5.34,0,0,1-.46-2.58c0.24-1.2,1.91-2.33,3.34-4a23.75,23.75,0,0,0,3.3-5.6,29.76,29.76,0,0,1-2.45-9.18c-0.61-5.51-5.51-14.07-5.51-14.07Z" transform="translate(-343.6 -101.16)"/><path class="cls-1" d="M719,461.59s1.29,16.81,2.16,19.83,28.46,84.94,29.32,88.39a21,21,0,0,1,0,10.35c-0.86,3.45-6,10.35-6,10.35s2.16,0.43,8.19-3a24.24,24.24,0,0,0,9.05-8.62c1.29-1.73,2.15-2.16,2.15-4.74s-2.59-7.76-2.59-7.76-9.05-35.36-9.49-40.1-3.88-37.51-7.33-46.57-6-11.21-6-11.21V458.14Z" transform="translate(-343.6 -101.16)"/><path class="cls-1" d="M699.52,454.25s-1.73,9.92-.86,14.23a36.09,36.09,0,0,1,.86,6s3.88,65.54,4.74,69,0.86,26.73.86,29.32-6.9,9.49-6.9,9.49,8.41-3.05,13.37-3.88c5.17-.86,9.13-2.27,8.19-6-0.86-3.45-3-1.73-3-1.73s0.43-16,0-19.83,6.47-50,4.74-62.52a215.51,215.51,0,0,0-4.31-22.42l0.43-16.38Z" transform="translate(-343.6 -101.16)"/><path class="cls-11" d="M695.21,355.94c0,1.29-1.72,47-.86,60.79s2.16,41.82,2.16,41.82l50-2.59s11.64-47,6-72.44-11.21-33.63-11.21-33.63-21.13,2.59-23.28,3-20.7-.43-20.7-0.43Z" transform="translate(-343.6 -101.16)"/><path class="cls-12" d="M734.1,368.86a143.7,143.7,0,0,1,17.54,10.68c-5.28-22.3-10.3-29.64-10.3-29.64s-21.13,2.59-23.28,3-20.7-.43-20.7-0.43l-2.16,3.45c0,0.06,0,.24,0,0.51A133.48,133.48,0,0,1,734.1,368.86Z" transform="translate(-343.6 -101.16)"/><path class="cls-11" d="M688.74,270.49s-6.47,49.39-8.19,52.88-25.87,35.92-28,39.91-7.33,9-7.33,9l8.62,10s29.32-33.92,34.06-38.41,11.21-19.46,12.5-23.45,0.43-58.87.43-58.87Z" transform="translate(-343.6 -101.16)"/><path class="cls-11" d="M705.56,238.23S687.45,253.32,687.45,255s-0.43,5.17,0,8.19-8.62,17.68-8.62,22.42,16.38,31.91,17.24,40.1-4.31,31-4.31,31l14.66,4.31s4.74-13.36,3.45-24.14-15.09-44.41-13.36-57.78,3-21.56,5.6-26.73,5.61-9.92,5.61-9.92Z" transform="translate(-343.6 -101.16)"/><path class="cls-1" d="M696.55,173.05a63.43,63.43,0,0,0-5.3,13.65c-1.86,7.44.24,6.54-2.55,11.19s-10.61,7.38-7.9,10.54a7,7,0,0,0,3.85,2,14.18,14.18,0,0,1-1.29,3.87c-0.92,1.86.8,5.13,0.75,7.63-0.09,4.81-.64,9.73,2.82,10.16a33,33,0,0,0,14.34-1.77l6,31.64,20.87-16.31s-4.65-.93-10.24-19.54S706.78,176.78,696.55,173.05Z" transform="translate(-343.6 -101.16)"/><path class="cls-4" d="M704,244.64c0.54-.65,1.09-1.3,1.63-2,0.73-.91,1.46-1.82,2.18-2.74l0.16-.2,1-1.35c1.11-1.48,2.21-3,3.25-4.5s2-2.86,2.8-4.36c0.19-.33.38-0.67,0.56-1a9.24,9.24,0,0,1,2-3.52c-0.25-.84-0.49-1.7-0.74-2.58a82.54,82.54,0,0,1-13.94,7.1c-0.75.36-1.51,0.7-2.29,1l0.61-.22Z" transform="translate(-343.6 -101.16)"/><path class="cls-13" d="M683.36,213.86s0.36,0.49,2.9,1.72,6.12,0.43,6.12.43-7.13,6.41-8.82,4.93a2.25,2.25,0,0,1-.2-3.21S682,215.58,683.36,213.86Z" transform="translate(-343.6 -101.16)"/><path class="cls-14" d="M692.37,196.17s3.72-2.13,5.7-.83c2.17,1.43,1.8,1.64,3.45,3.76,0,0-2.66-3.32-5.22-2.93s-4.13.59-4.13,0.59Z" transform="translate(-343.6 -101.16)"/><path class="cls-14" d="M695.51,202.17c-0.34,1.09-1.08,1.82-1.65,1.64s-0.75-1.21-.41-2.29a1,1,0,0,1,1.49-.87C695.51,200.82,695.85,201.08,695.51,202.17Z" transform="translate(-343.6 -101.16)"/><path class="cls-14" d="M691.12,199.58c-0.16-.11.37,1,2.33,1.22s4.3,2,7.32,1.54a8.59,8.59,0,0,1-2.81-1.06C696.37,200.37,692.66,200.64,691.12,199.58Z" transform="translate(-343.6 -101.16)"/><path class="cls-11" d="M722.8,243.84s-14.23,35.36-11.64,47.43,4.31,28.46,5.61,37.94,0,30.18,0,30.18,27.59-5.61,30.61-6,1.29-2.59,1.29-2.59-17.68-22.42-13.8-35.36,10.35-44.84,10.35-53.47-6.77-19.54-6.77-19.54Z" transform="translate(-343.6 -101.16)"/><path class="cls-11" d="M740.91,250.3a20.72,20.72,0,0,1,10.35,12.5c2.17,7.21,16.82,60.36,17.25,66s-7.76,31.91-7.76,37.51-4.31,20.7-4.31,20.7L740,384.4s12.07-53,9.49-63S732.72,277,732.72,277s-2.59-20.7,6-25.87" transform="translate(-343.6 -101.16)"/><rect class="cls-15" x="349.06" y="309.12" width="93.11" height="42.25"/><g id="Layer_8" data-name="Layer 8"><path class="cls-2" d="M717.56,431.66v2.86h41.19v-2.86h10.66v2.86h7a9.5,9.5,0,0,0,9.33-7.79V409.82H755v-7.44a1.75,1.75,0,0,0-1.75-1.75H726.18a1.75,1.75,0,0,0-1.75,1.75v7.44h-31v18.43a9.5,9.5,0,0,0,8.92,6.28h4.52v-2.86h10.66Zm10.37-27.53H751.5v5.69H727.93v-5.69Zm41.48,40.09v-7.36h7a11.81,11.81,0,0,0,9.33-4.58v41.81H693.46V432.77a11.79,11.79,0,0,0,8.92,4.09h4.52v7.36h10.66v-7.36h41.19v7.36h10.66Z" transform="translate(-343.6 -101.16)"/></g><path class="cls-1" d="M745.06,380.95s-1.18,4.67-3.92,5.45-8.24,3.12-8.24,3.12-5.5,7.79-6.67,8.57,2,0.78,3.53-.39,3.53-2.73,3.53-2.73L732.5,400s-3.92,6.23-1.57,7,17.26,3.51,18.05,1.17,3.14-15.58,3.14-15.58l-2.35-3.89,0.78-6.23Z" transform="translate(-343.6 -101.16)"/><path class="cls-7" d="M693.36,172.61s10.24,11.17,11.17,31.64,6.52,46.53,27.92,46.53,35.36-8.38,35.36-8.38S750.12,145.62,693.36,172.61Z" transform="translate(-343.6 -101.16)"/></g><path class="cls-16" d="M509.95,206.81c4-4.55,8.06-9,11.95-13.67,3-3.63,3-3.81-1.44-5C510,185.4,503.64,179,501.71,168.1a146.12,146.12,0,0,1-1-42.16c0.94-8.28,5.57-13.12,13.11-16,10.13-3.84,20.7-5.6,31.34-6.94a220.77,220.77,0,0,1,37.38-1.69c11.34,0.51,22.39,2.42,32.58,7.89,6.18,3.32,9.32,8.07,9.43,15.33a65,65,0,0,1-5.44,26.53,144.77,144.77,0,0,1-20.79,35.34c-8.12,10-18.94,13-31,13.39-10.36.31-20.58-1.14-30.76-2.82a9.82,9.82,0,0,0-6.61,1.08c-6.33,3.35-12.77,6.49-19.16,9.71Z" transform="translate(-343.6 -101.16)"/><text class="cls-17" transform="translate(173.98 49.85)">Why TYVIX?</text><text class="cls-17" transform="translate(173.98 49.85)">Why TYVIX?</text></svg>