<svg id="Layer_1" data-name="Layer 1" xmlns="http://www.w3.org/2000/svg" viewBox="0 0 877.21 296.4"><defs><style>.cls-1{fill:#f1f1f2;}.cls-2{fill:#8fa0ad;}.cls-3,.cls-8,.cls-9{fill:#e6e7e7;}.cls-4{fill:#d0d2d3;}.cls-5{fill:#bbbdbf;}.cls-6{fill:#ebecec;}.cls-7{fill:#989898;}.cls-8,.cls-9{stroke:#6d6e70;stroke-miterlimit:10;}.cls-8{stroke-width:0.62px;}.cls-9{stroke-width:0.58px;}.cls-10{fill:#fff;}.cls-11{fill:gray;}</style></defs><title>ART3background</title><g id="government_buildings" data-name="government buildings"><rect class="cls-1" x="11.88" y="145" width="319.38" height="103.84"/><rect class="cls-2" x="129.23" y="139.42" width="85.79" height="106.56"/><path class="cls-3" d="M172,0C128,0,92,26.78,87.65,61.06H256.3C252,26.77,215.9,0,172,0Z"/><rect class="cls-3" x="84.7" y="51.4" width="174.55" height="21.64"/><rect class="cls-3" x="71.33" y="71.96" width="201.29" height="33.24"/><rect class="cls-3" x="5.34" y="120.89" width="332.46" height="10.4"/><rect class="cls-3" x="12.22" y="104.13" width="319.38" height="19.61"/><rect class="cls-3" x="11.88" y="129.62" width="319.38" height="18.17"/><polygon class="cls-4" points="171.97 68.97 289.17 120.97 54.78 120.97 171.97 68.97"/><rect class="cls-4" x="66.97" y="126.53" width="12.9" height="117.42"/><rect class="cls-4" x="94.42" y="126.53" width="12.9" height="117.42"/><rect class="cls-4" x="122.78" y="126.53" width="12.9" height="117.42"/><rect class="cls-4" x="150.62" y="126.53" width="12.9" height="117.42"/><rect class="cls-4" x="180.06" y="126.53" width="12.9" height="117.42"/><rect class="cls-4" x="208.57" y="126.53" width="12.9" height="117.42"/><rect class="cls-4" x="236.93" y="126.53" width="12.9" height="117.42"/><rect class="cls-4" x="264.04" y="126.53" width="12.9" height="117.42"/><path class="cls-4" d="M83.52,146.77v-0.38H82.61a3.9,3.9,0,0,0-1.76,0H66a3.9,3.9,0,0,0-1.76,0H63.33v0.34a4.9,4.9,0,0,0-2.52,4.39A4.6,4.6,0,0,0,65.14,156a4.51,4.51,0,0,0,4.28-4.13h8A4.51,4.51,0,0,0,81.7,156,4.6,4.6,0,0,0,86,151.12,4.9,4.9,0,0,0,83.52,146.77Z"/><path class="cls-4" d="M111,146.77v-0.38H110a3.9,3.9,0,0,0-1.76,0H93.46a3.89,3.89,0,0,0-1.76,0H90.78v0.34a4.9,4.9,0,0,0-2.52,4.39A4.6,4.6,0,0,0,92.58,156h0a4.51,4.51,0,0,0,4.28-4.13h8a4.51,4.51,0,0,0,4.28,4.13,4.6,4.6,0,0,0,4.33-4.83A4.9,4.9,0,0,0,111,146.77Z"/><path class="cls-4" d="M139.33,146.77v-0.38h-0.92a3.9,3.9,0,0,0-1.76,0H121.82a3.9,3.9,0,0,0-1.76,0h-0.92v0.34a4.9,4.9,0,0,0-2.52,4.39,4.6,4.6,0,0,0,4.33,4.83,4.51,4.51,0,0,0,4.28-4.13h8a4.51,4.51,0,0,0,4.28,4.13,4.6,4.6,0,0,0,4.33-4.83A4.9,4.9,0,0,0,139.33,146.77Z"/><path class="cls-4" d="M167.17,146.77v-0.38h-0.92a3.9,3.9,0,0,0-1.76,0H149.66a3.9,3.9,0,0,0-1.76,0H147v0.34a4.9,4.9,0,0,0-2.52,4.39,4.6,4.6,0,0,0,4.33,4.83,4.51,4.51,0,0,0,4.28-4.13h8a4.51,4.51,0,0,0,4.28,4.13,4.6,4.6,0,0,0,4.33-4.83A4.9,4.9,0,0,0,167.17,146.77Z"/><path class="cls-4" d="M196.61,146.77v-0.38h-0.92a3.9,3.9,0,0,0-1.76,0H179.1a3.9,3.9,0,0,0-1.76,0h-0.93v0.34a4.9,4.9,0,0,0-2.52,4.39,4.6,4.6,0,0,0,4.33,4.83,4.51,4.51,0,0,0,4.28-4.13h8a4.51,4.51,0,0,0,4.28,4.13,4.6,4.6,0,0,0,4.33-4.83A4.9,4.9,0,0,0,196.61,146.77Z"/><path class="cls-4" d="M225.12,146.77v-0.38H224.2a3.9,3.9,0,0,0-1.76,0H207.61a3.9,3.9,0,0,0-1.76,0h-0.92v0.34a4.9,4.9,0,0,0-2.52,4.39,4.6,4.6,0,0,0,4.33,4.83,4.51,4.51,0,0,0,4.28-4.13h8A4.51,4.51,0,0,0,223.3,156a4.6,4.6,0,0,0,4.33-4.83A4.9,4.9,0,0,0,225.12,146.77Z"/><path class="cls-4" d="M253.48,146.77v-0.38h-0.92a3.9,3.9,0,0,0-1.76,0H236a3.9,3.9,0,0,0-1.76,0h-0.92v0.34a4.9,4.9,0,0,0-2.52,4.39A4.6,4.6,0,0,0,235.1,156a4.51,4.51,0,0,0,4.28-4.13h8a4.51,4.51,0,0,0,4.28,4.13,4.6,4.6,0,0,0,4.33-4.83A4.9,4.9,0,0,0,253.48,146.77Z"/><path class="cls-4" d="M280.61,146.77v-0.38h-0.92a3.89,3.89,0,0,0-1.76,0H263.08a3.89,3.89,0,0,0-1.76,0H260.4v0.34a4.9,4.9,0,0,0-2.52,4.39,4.6,4.6,0,0,0,4.33,4.83,4.51,4.51,0,0,0,4.28-4.13h8a4.51,4.51,0,0,0,4.28,4.13,4.6,4.6,0,0,0,4.33-4.83A4.9,4.9,0,0,0,280.61,146.77Z"/><rect class="cls-4" x="62.02" y="120.57" width="219.9" height="27.19"/><rect class="cls-3" x="41.88" y="126.52" width="12.9" height="117.42"/><rect class="cls-3" x="22.23" y="126.53" width="12.9" height="117.42"/><rect class="cls-3" x="11.88" y="126.53" width="6.45" height="117.42"/><rect class="cls-3" x="288.36" y="126.53" width="12.9" height="117.42"/><rect class="cls-3" x="308" y="126.53" width="12.9" height="117.42"/><rect class="cls-3" x="324.81" y="126.53" width="6.45" height="117.42"/><rect class="cls-4" x="11.88" y="242.87" width="319.38" height="23.97"/><rect class="cls-4" y="265.77" width="343.82" height="30.62"/><rect class="cls-5" x="62.02" y="134.51" width="219.9" height="2.88"/><rect class="cls-5" x="47.46" y="90.89" width="130.95" height="4.96" transform="translate(-27.95 53.07) rotate(-23.62)"/><rect class="cls-5" x="228.44" y="27.96" width="4.96" height="130.95" transform="translate(52.79 267.57) rotate(-66.38)"/><rect class="cls-5" x="51.93" y="117.36" width="239.96" height="4.55"/><rect class="cls-6" x="523.05" y="94.9" width="197.08" height="30.29"/><rect class="cls-6" x="755.81" y="96.08" width="14.62" height="25.02"/><rect class="cls-6" x="752.66" y="91.91" width="20.92" height="5.99"/><rect class="cls-6" x="472.53" y="95.46" width="14.62" height="25.02"/><rect class="cls-6" x="469.38" y="91.29" width="20.92" height="5.99"/><rect class="cls-6" x="369.98" y="111.14" width="503.13" height="185.26"/><rect class="cls-4" x="529" y="171.53" width="11.38" height="119.19"/><rect class="cls-4" x="584.69" y="171.53" width="11.38" height="119.19"/><rect class="cls-4" x="647.4" y="171.53" width="11.38" height="119.19"/><rect class="cls-4" x="702.79" y="171.53" width="11.38" height="119.19"/><path class="cls-4" d="M543.61,172.7v-0.31H542.8a3,3,0,0,0-1.56,0H528.16a3,3,0,0,0-1.56,0h-0.81v0.34a5,5,0,0,0-2.23,4.39c0,2.67,1.71,4.83,3.82,4.83,1.92,0,3.5-1.79,3.77-4.13h7.09c0.27,2.34,1.85,4.13,3.77,4.13,2.11,0,3.82-2.16,3.82-4.83A5,5,0,0,0,543.61,172.7Z"/><path class="cls-4" d="M599.28,172.7v-0.31h-0.81a3,3,0,0,0-1.55,0H583.84a3,3,0,0,0-1.55,0h-0.81v0.34a5,5,0,0,0-2.23,4.39c0,2.67,1.71,4.83,3.82,4.83,1.92,0,3.5-1.79,3.77-4.13h7.08c0.27,2.34,1.86,4.13,3.77,4.13,2.11,0,3.82-2.16,3.82-4.83A5,5,0,0,0,599.28,172.7Z"/><path class="cls-4" d="M662,172.7v-0.31h-0.82a3.09,3.09,0,0,0-1.56,0H646.56a3,3,0,0,0-1.56,0h-0.81v0.34a5,5,0,0,0-2.23,4.39c0,2.67,1.71,4.83,3.82,4.83,1.92,0,3.5-1.79,3.77-4.13h7.06c0.27,2.34,1.85,4.13,3.77,4.13,2.11,0,3.82-2.16,3.82-4.83A5,5,0,0,0,662,172.7Z"/><path class="cls-4" d="M717.39,172.7v-0.31h-0.78a3,3,0,0,0-1.55,0H701.94a3,3,0,0,0-1.55,0h-0.78v0.34a5,5,0,0,0-2.22,4.39c0,2.67,1.71,4.83,3.82,4.83,1.92,0,3.5-1.79,3.77-4.13h7.09c0.27,2.34,1.85,4.13,3.77,4.13,2.1,0,3.81-2.16,3.81-4.83A5,5,0,0,0,717.39,172.7Z"/><rect class="cls-4" x="526.99" y="274.87" width="15.35" height="21.52"/><rect class="cls-4" x="582.71" y="274.87" width="15.34" height="21.52"/><rect class="cls-4" x="645.42" y="274.87" width="15.35" height="21.52"/><rect class="cls-4" x="701.08" y="274.87" width="15.35" height="21.52"/><rect class="cls-7" x="375.06" y="115.85" width="2.75" height="12.61"/><rect class="cls-7" x="379.24" y="115.85" width="2.75" height="12.61"/><rect class="cls-7" x="383.81" y="115.85" width="2.75" height="12.61"/><rect class="cls-7" x="388.08" y="115.85" width="2.75" height="12.61"/><rect class="cls-7" x="392.48" y="115.85" width="2.75" height="12.61"/><rect class="cls-7" x="396.88" y="115.85" width="2.75" height="12.61"/><rect class="cls-7" x="401.37" y="115.85" width="2.75" height="12.61"/><rect class="cls-7" x="420.01" y="115.85" width="2.75" height="12.61"/><rect class="cls-7" x="424.19" y="115.85" width="2.75" height="12.61"/><rect class="cls-7" x="428.77" y="115.85" width="2.75" height="12.61"/><rect class="cls-7" x="433.03" y="115.85" width="2.75" height="12.61"/><rect class="cls-7" x="437.43" y="115.85" width="2.75" height="12.61"/><rect class="cls-7" x="441.83" y="115.85" width="2.75" height="12.61"/><rect class="cls-7" x="446.32" y="115.85" width="2.75" height="12.61"/><rect class="cls-7" x="465.44" y="115.85" width="2.75" height="12.61"/><rect class="cls-7" x="469.62" y="115.85" width="2.75" height="12.61"/><rect class="cls-7" x="474.2" y="115.85" width="2.75" height="12.61"/><rect class="cls-7" x="478.46" y="115.85" width="2.75" height="12.61"/><rect class="cls-7" x="482.86" y="115.85" width="2.75" height="12.61"/><rect class="cls-7" x="487.26" y="115.85" width="2.75" height="12.61"/><rect class="cls-7" x="491.75" y="115.85" width="2.75" height="12.61"/><rect class="cls-7" x="508.52" y="115.85" width="2.75" height="12.61"/><rect class="cls-7" x="512.7" y="115.85" width="2.75" height="12.61"/><rect class="cls-7" x="517.28" y="115.85" width="2.75" height="12.61"/><rect class="cls-7" x="521.54" y="115.85" width="2.75" height="12.61"/><rect class="cls-7" x="525.94" y="115.85" width="2.75" height="12.61"/><rect class="cls-7" x="530.34" y="115.85" width="2.75" height="12.61"/><rect class="cls-7" x="534.83" y="115.85" width="2.75" height="12.61"/><rect class="cls-7" x="706.04" y="116.58" width="2.75" height="12.61"/><rect class="cls-7" x="710.22" y="116.58" width="2.75" height="12.61"/><rect class="cls-7" x="714.79" y="116.58" width="2.75" height="12.61"/><rect class="cls-7" x="719.06" y="116.58" width="2.75" height="12.61"/><rect class="cls-7" x="723.46" y="116.58" width="2.75" height="12.61"/><rect class="cls-7" x="727.86" y="116.58" width="2.75" height="12.61"/><rect class="cls-7" x="732.35" y="116.58" width="2.75" height="12.61"/><rect class="cls-7" x="750.99" y="116.58" width="2.75" height="12.61"/><rect class="cls-7" x="755.17" y="116.58" width="2.75" height="12.61"/><rect class="cls-7" x="759.75" y="116.58" width="2.75" height="12.61"/><rect class="cls-7" x="764.01" y="116.58" width="2.75" height="12.61"/><rect class="cls-7" x="768.41" y="116.58" width="2.75" height="12.61"/><rect class="cls-7" x="772.81" y="116.58" width="2.75" height="12.61"/><rect class="cls-7" x="777.3" y="116.58" width="2.75" height="12.61"/><rect class="cls-7" x="796.42" y="116.58" width="2.75" height="12.61"/><rect class="cls-7" x="800.6" y="116.58" width="2.75" height="12.61"/><rect class="cls-7" x="805.18" y="116.58" width="2.75" height="12.61"/><rect class="cls-7" x="809.44" y="116.58" width="2.75" height="12.61"/><rect class="cls-7" x="813.84" y="116.58" width="2.75" height="12.61"/><rect class="cls-7" x="818.24" y="116.58" width="2.75" height="12.61"/><rect class="cls-7" x="822.74" y="116.58" width="2.75" height="12.61"/><rect class="cls-7" x="839.5" y="116.58" width="2.75" height="12.61"/><rect class="cls-7" x="843.68" y="116.58" width="2.75" height="12.61"/><rect class="cls-7" x="848.26" y="116.58" width="2.75" height="12.61"/><rect class="cls-7" x="852.52" y="116.58" width="2.75" height="12.61"/><rect class="cls-7" x="856.92" y="116.58" width="2.75" height="12.61"/><rect class="cls-7" x="861.32" y="116.58" width="2.75" height="12.61"/><rect class="cls-7" x="865.81" y="116.58" width="2.75" height="12.61"/><rect class="cls-2" x="609.55" y="248.66" width="26.4" height="47.73"/><path class="cls-4" d="M622.67,226.81c-8.86,0-16,8.67-16,14.76h32.08C638.79,235.47,631.53,226.81,622.67,226.81Z"/><rect class="cls-2" x="686.4" y="174.93" width="5.1" height="8.54"/><rect class="cls-2" x="680.19" y="174.93" width="5.1" height="8.54"/><rect class="cls-2" x="674.03" y="174.93" width="5.1" height="8.54"/><rect class="cls-2" x="686.48" y="184.36" width="5.1" height="8.54"/><rect class="cls-2" x="680.27" y="184.36" width="5.1" height="8.54"/><rect class="cls-2" x="674.03" y="184.36" width="5.1" height="8.54"/><rect class="cls-2" x="686.48" y="193.81" width="5.1" height="8.54"/><rect class="cls-2" x="680.27" y="193.81" width="5.1" height="8.54"/><rect class="cls-2" x="674.03" y="193.81" width="5.1" height="8.54"/><rect class="cls-2" x="686.4" y="203.24" width="5.1" height="8.54"/><rect class="cls-2" x="680.19" y="203.24" width="5.1" height="8.54"/><rect class="cls-2" x="674.03" y="203.24" width="5.1" height="8.54"/><rect class="cls-2" x="626.34" y="175.13" width="5.1" height="8.54"/><rect class="cls-2" x="620.13" y="175.13" width="5.1" height="8.54"/><rect class="cls-2" x="613.97" y="175.13" width="5.1" height="8.54"/><rect class="cls-2" x="626.42" y="184.56" width="5.1" height="8.54"/><rect class="cls-2" x="620.21" y="184.56" width="5.1" height="8.54"/><rect class="cls-2" x="613.97" y="184.56" width="5.1" height="8.54"/><rect class="cls-2" x="626.42" y="194.01" width="5.1" height="8.54"/><rect class="cls-2" x="620.21" y="194.01" width="5.1" height="8.54"/><rect class="cls-2" x="613.97" y="194.01" width="5.1" height="8.54"/><rect class="cls-2" x="626.34" y="203.44" width="5.1" height="8.54"/><rect class="cls-2" x="620.13" y="203.44" width="5.1" height="8.54"/><rect class="cls-2" x="613.97" y="203.44" width="5.1" height="8.54"/><rect class="cls-2" x="566.44" y="175.38" width="5.1" height="8.54"/><rect class="cls-2" x="560.23" y="175.38" width="5.1" height="8.54"/><rect class="cls-2" x="554.07" y="175.38" width="5.1" height="8.54"/><rect class="cls-2" x="566.52" y="184.81" width="5.1" height="8.54"/><rect class="cls-2" x="560.31" y="184.81" width="5.1" height="8.54"/><rect class="cls-2" x="554.07" y="184.81" width="5.1" height="8.54"/><rect class="cls-2" x="566.52" y="194.26" width="5.1" height="8.54"/><rect class="cls-2" x="560.31" y="194.26" width="5.1" height="8.54"/><rect class="cls-2" x="554.07" y="194.26" width="5.1" height="8.54"/><rect class="cls-2" x="566.44" y="203.69" width="5.1" height="8.54"/><rect class="cls-2" x="560.23" y="203.69" width="5.1" height="8.54"/><rect class="cls-2" x="554.07" y="203.69" width="5.1" height="8.54"/><rect class="cls-2" x="566.36" y="240.56" width="5.1" height="8.54"/><rect class="cls-2" x="560.15" y="240.56" width="5.1" height="8.54"/><rect class="cls-2" x="553.99" y="240.56" width="5.1" height="8.54"/><rect class="cls-2" x="566.44" y="249.99" width="5.1" height="8.54"/><rect class="cls-2" x="560.23" y="249.99" width="5.1" height="8.54"/><rect class="cls-2" x="553.99" y="249.99" width="5.1" height="8.54"/><rect class="cls-2" x="566.44" y="259.44" width="5.1" height="8.54"/><rect class="cls-2" x="560.23" y="259.44" width="5.1" height="8.54"/><rect class="cls-2" x="553.99" y="259.44" width="5.1" height="8.54"/><rect class="cls-2" x="566.36" y="268.86" width="5.1" height="8.54"/><rect class="cls-2" x="560.15" y="268.86" width="5.1" height="8.54"/><rect class="cls-2" x="553.99" y="268.86" width="5.1" height="8.54"/><rect class="cls-2" x="686.32" y="242.03" width="5.1" height="8.54"/><rect class="cls-2" x="680.11" y="242.03" width="5.1" height="8.54"/><rect class="cls-2" x="673.95" y="242.03" width="5.1" height="8.54"/><rect class="cls-2" x="686.4" y="251.46" width="5.1" height="8.54"/><rect class="cls-2" x="680.19" y="251.46" width="5.1" height="8.54"/><rect class="cls-2" x="673.95" y="251.46" width="5.1" height="8.54"/><rect class="cls-2" x="686.4" y="260.91" width="5.1" height="8.54"/><rect class="cls-2" x="680.19" y="260.91" width="5.1" height="8.54"/><rect class="cls-2" x="673.95" y="260.91" width="5.1" height="8.54"/><rect class="cls-2" x="686.32" y="270.34" width="5.1" height="8.54"/><rect class="cls-2" x="680.11" y="270.34" width="5.1" height="8.54"/><rect class="cls-2" x="673.95" y="270.34" width="5.1" height="8.54"/><rect class="cls-8" x="616.52" y="222.41" width="12.45" height="17.13"/><rect class="cls-9" x="618.85" y="222.42" width="7.88" height="17.12"/><polygon class="cls-9" points="628.72 222.41 616.78 222.41 622.75 213.53 628.72 222.41"/><ellipse class="cls-2" cx="622.71" cy="213.11" rx="2.09" ry="1.78"/><rect class="cls-2" x="622.39" y="171.53" width="0.59" height="39.8"/><path class="cls-10" d="M652.22,60.07c-10.1-4.28-20.2,4.28-30.3,0V43.6c10.1,4.28,20.2-4.29,30.3,0V60.08h0Z"/><path class="cls-11" d="M652.21,44.86c-10.1-4.28-20.19,4.28-30.29,0V43.6c10.1,4.28,20.19-4.28,30.29,0v1.26Z"/><path class="cls-11" d="M652.21,47.39c-10.09-4.27-20.19,4.29-30.29,0v-1.3c10.1,4.28,20.19-4.28,30.29,0v1.3Z"/><path class="cls-11" d="M652.22,49.91c-10.1-4.28-20.2,4.28-30.29,0V48.65c10.09,4.28,20.19-4.28,30.29,0v1.26Z"/><path class="cls-11" d="M652.21,52.46c-10.09-4.27-20.19,4.29-30.29,0V51.2c10.1,4.28,20.19-4.28,30.29,0v1.26Z"/><path class="cls-11" d="M652.21,55c-10.09-4.27-20.19,4.29-30.29,0V53.71c10.1,4.28,20.19-4.28,30.29,0V55Z"/><path class="cls-11" d="M652.21,57.53c-10.1-4.28-20.19,4.28-30.29,0V56.27c10.1,4.28,20.19-4.28,30.29,0v1.26Z"/><path class="cls-11" d="M652.21,60.06c-10.09-4.27-20.19,4.29-30.29,0V58.8c10.1,4.28,20.19-4.28,30.29,0v1.26Z"/><path class="cls-11" d="M621.92,43.6c4.1,1.74,8.21,1.36,12.31.58V53c-4.1.78-8.21,1.16-12.31-.58V43.6Z"/><path class="cls-10" d="M628.61,50l-0.3.23,0.11,0.35-0.31-.2-0.3.21,0.11-.36L627.64,50H628l0.11-.33L628.24,50h0.37Z"/><path class="cls-10" d="M627.53,50.84l-0.3.22,0.11,0.35L627,51.19l-0.3.19a1,1,0,0,1,.11-0.35l-0.28-.25h0.36l0.11-.33,0.13,0.35Z"/><path class="cls-10" d="M629.61,50.82l-0.3.25,0.11,0.34-0.31-.19-0.3.22a1.08,1.08,0,0,1,.11-0.36l-0.28-.22H629a1.34,1.34,0,0,1,.11-0.34l0.13,0.33Z"/><path class="cls-10" d="M629.61,49.07l-0.3.25,0.11,0.34-0.31-.19-0.3.22a1.08,1.08,0,0,1,.11-0.36l-0.28-.22H629l0.11-.34,0.13,0.33Z"/><path class="cls-10" d="M628.61,48.26l-0.3.23,0.11,0.35-0.31-.2-0.3.21,0.11-.36-0.28-.24H628l0.11-.33,0.13,0.34h0.37Z"/><path class="cls-10" d="M631.61,48.88l-0.3.27,0.11,0.33-0.31-.16-0.3.24a1.07,1.07,0,0,1,.11-0.37l-0.28-.2H631l0.11-.35L631.24,49Z"/><path class="cls-10" d="M630.61,48.14l-0.3.26,0.11,0.34-0.31-.18-0.3.23a1.08,1.08,0,0,1,.11-0.36l-0.28-.21H630l0.11-.34,0.13,0.32Z"/><path class="cls-10" d="M630.61,46.39l-0.3.26L630.42,47l-0.31-.18-0.3.23a1.21,1.21,0,0,1,.11-0.37l-0.28-.21H630l0.11-.34,0.13,0.33Z"/><path class="cls-10" d="M629.61,47.32l-0.3.25,0.11,0.34-0.31-.19-0.3.22a1.08,1.08,0,0,1,.11-0.36l-0.31-.19H629a1.34,1.34,0,0,1,.11-0.34l0.13,0.34Z"/><path class="cls-10" d="M629.61,45.56l-0.3.25,0.11,0.34L629.11,46l-0.3.22a1.37,1.37,0,0,1,.11-0.36l-0.28-.22H629l0.11-.34,0.13,0.33Z"/><path class="cls-10" d="M628.61,46.49l-0.3.23,0.11,0.35-0.31-.2-0.3.21,0.11-.36-0.28-.24H628l0.11-.33,0.13,0.34h0.37Z"/><path class="cls-10" d="M627.54,45.6l-0.3.22,0.11,0.35L627,46l-0.3.19a1,1,0,0,1,.11-0.35l-0.28-.25h0.36l0.11-.33,0.13,0.34Z"/><path class="cls-10" d="M623.44,44.91l-0.3.14,0.11,0.38-0.31-.3-0.3.11a0.87,0.87,0,0,1,.11-0.32l-0.28-.33,0.18,0.06,0.18,0.07,0.11-.3,0.13,0.38Z"/><path class="cls-10" d="M625.5,45.39l-0.3.18,0.11,0.36L625,45.67l-0.3.15a1,1,0,0,1,.11-0.34l-0.28-.29h0.36l0.11-.31,0.13,0.36Z"/><path class="cls-10" d="M626.51,46.39l-0.3.2L626.32,47,626,46.71l-0.3.17a0.91,0.91,0,0,1,.11-0.34l-0.28-.27h0.36l0.11-.32,0.13,0.35Z"/><path class="cls-10" d="M624.46,46.08l-0.3.16,0.11,0.37L624,46.33l-0.3.13a0.92,0.92,0,0,1,.11-0.33l-0.28-.31,0.18,0,0.18,0,0.11-.31L624.09,46Z"/><path class="cls-10" d="M623.43,46.69l-0.3.14,0.11,0.38-0.31-.3-0.3.1a0.87,0.87,0,0,1,.11-0.32l-0.28-.33,0.15,0,0.18,0.07,0.11-.3L623,46.54Z"/><path class="cls-10" d="M625.49,47.16l-0.3.18,0.11,0.36L625,47.44l-0.3.15,0.11-.34L624.52,47h0.36l0.11-.31L625.12,47Z"/><path class="cls-10" d="M624.46,47.83l-0.3.16,0.11,0.37L624,48.08l-0.3.13a0.92,0.92,0,0,1,.11-0.33l-0.28-.31h0.18l0.18,0,0.11-.3,0.13,0.37Z"/><path class="cls-10" d="M623.43,48.39l-0.3.14,0.11,0.38-0.31-.3-0.3.11a0.87,0.87,0,0,1,.11-0.32l-0.28-.33,0.18,0.07,0.18,0.07,0.11-.3,0.13,0.38Z"/><path class="cls-10" d="M625.49,48.91l-0.3.18,0.11,0.36L625,49.19l-0.3.15A1,1,0,0,1,624.8,49l-0.28-.29h0.36L625,48.4l0.13,0.36Z"/><path class="cls-10" d="M624.46,49.58l-0.3.16,0.11,0.37L624,49.83l-0.3.13a0.92,0.92,0,0,1,.11-0.33l-0.28-.31,0.18,0,0.18,0a1.3,1.3,0,0,1,.11-0.31l0.13,0.37Z"/><path class="cls-10" d="M623.43,50.18l-0.3.14,0.11,0.38-0.31-.3-0.3.1,0.11-.32-0.28-.34,0.18,0.07L622.82,50l0.11-.3,0.13,0.38Z"/><path class="cls-10" d="M625.49,50.66l-0.3.18,0.11,0.36L625,50.94l-0.3.15,0.11-.34-0.28-.29h0.36l0.11-.31,0.13,0.36Z"/><path class="cls-10" d="M624.46,51.31l-0.3.16,0.11,0.37L624,51.56l-0.3.13a0.92,0.92,0,0,1,.11-0.33L623.49,51l0.18,0,0.18,0,0.11-.3,0.13,0.37Z"/><path class="cls-10" d="M623.43,51.92l-0.3.14,0.11,0.38-0.31-.3-0.3.11,0.11-.32-0.28-.33,0.18,0.07,0.18,0.07,0.11-.3,0.13,0.38Z"/><path class="cls-10" d="M625.49,52.39l-0.3.18,0.11,0.36L625,52.67l-0.3.15a1,1,0,0,1,.11-0.34l-0.28-.29h0.36l0.11-.31,0.13,0.36Z"/><path class="cls-10" d="M628.55,51.74l-0.3.23,0.11,0.35-0.31-.2-0.3.2a1.36,1.36,0,0,1,.1-0.36l-0.28-.24h0.36l0.11-.33,0.13,0.34h0.38Z"/><path class="cls-10" d="M627.52,52.6l-0.3.22,0.11,0.35L627,53l-0.3.19,0.11-.35-0.28-.25h0.36l0.11-.33,0.13,0.34Z"/><path class="cls-10" d="M629.61,52.59l-0.3.25,0.11,0.34L629.11,53l-0.3.22a1.08,1.08,0,0,1,.11-0.36l-0.28-.22H629l0.11-.34,0.13,0.33Z"/><path class="cls-10" d="M632.68,51.39l-0.3.28L632.49,52l-0.31-.16-0.3.25,0.11-.37-0.28-.19h0.36l0.11-.35,0.13,0.21h0.37Z"/><path class="cls-10" d="M631.61,52.39l-0.3.27L631.42,53l-0.31-.16-0.3.24a1.34,1.34,0,0,1,.1-0.37l-0.28-.2H631l0.11-.35,0.13,0.32Z"/><path class="cls-10" d="M633.71,52l-0.3.28,0.11,0.33-0.31-.15-0.3.26a1.52,1.52,0,0,1,.11-0.38l-0.28-.18h0.36l0.12-.36,0.13,0.31Z"/><path class="cls-10" d="M632.68,49.61l-0.3.28,0.11,0.33-0.31-.16-0.3.25,0.11-.37-0.28-.19h0.36l0.11-.35,0.13,0.32Z"/><path class="cls-10" d="M631.61,50.64l-0.3.27,0.11,0.33-0.31-.16-0.3.24a1.34,1.34,0,0,1,.1-0.37l-0.28-.2H631l0.11-.35,0.13,0.32Z"/><path class="cls-10" d="M633.71,50.32l-0.3.29,0.11,0.32-0.31-.15-0.3.26a1.52,1.52,0,0,1,.11-0.38l-0.28-.18h0.36l0.12-.35,0.13,0.31Z"/><path class="cls-10" d="M632.68,46.11l-0.3.28,0.11,0.33-0.31-.16-0.3.25,0.11-.37-0.28-.19h0.36l0.11-.35,0.13,0.32Z"/><path class="cls-10" d="M631.61,47.14l-0.3.27,0.11,0.33-0.31-.16-0.3.24a1.34,1.34,0,0,1,.1-0.37l-0.28-.2H631l0.11-.35,0.13,0.32Z"/><path class="cls-10" d="M633.71,46.82l-0.3.29,0.11,0.32-0.31-.15-0.3.26a1.52,1.52,0,0,1,.11-0.38L632.74,47h0.36l0.12-.35,0.13,0.31Z"/><path class="cls-10" d="M627.53,49.09l-0.3.22,0.11,0.35L627,49.44l-0.3.19,0.11-.35L626.56,49h0.36L627,48.7,627.16,49Z"/><path class="cls-10" d="M626.51,48.17l-0.3.2,0.11,0.36L626,48.49l-0.3.17a0.91,0.91,0,0,1,.11-0.34L625.54,48h0.36l0.11-.32,0.13,0.35Z"/><path class="cls-10" d="M633.7,48.57l-0.3.29,0.11,0.32L633.2,49l-0.3.26a1.52,1.52,0,0,1,.11-0.38l-0.28-.18h0.36l0.11-.35,0.13,0.31Z"/><path class="cls-10" d="M632.68,47.89l-0.3.28,0.11,0.33-0.31-.15-0.3.25,0.11-.37L631.71,48h0.36l0.11-.35L632.31,48Z"/><path class="cls-10" d="M630.61,49.87l-0.3.26,0.11,0.33-0.31-.17-0.3.23a1.08,1.08,0,0,1,.11-0.36L629.64,50H630l0.11-.34,0.13,0.32Z"/><path class="cls-10" d="M630.61,51.64l-0.3.26,0.11,0.34-0.31-.18-0.3.23,0.11-.37-0.28-.21H630l0.11-.34,0.13,0.32Z"/><path class="cls-10" d="M626.51,49.89l-0.3.2,0.11,0.36L626,50.21l-0.3.17a1,1,0,0,1,.11-0.34l-0.28-.27h0.36l0.11-.32,0.13,0.35Z"/><path class="cls-10" d="M626.49,51.66l-0.3.2,0.11,0.36L626,52l-0.3.17a0.91,0.91,0,0,1,.11-0.34l-0.28-.27h0.36l0.11-.32,0.13,0.35Z"/><path class="cls-10" d="M627.54,47.39l-0.3.22L627.35,48,627,47.74l-0.3.19a1,1,0,0,1,.11-0.35l-0.28-.25h0.36L627,47l0.13,0.34Z"/><path class="cls-10" d="M631.66,45.39l-0.3.27L631.47,46l-0.31-.16-0.3.25a1.07,1.07,0,0,1,.11-0.37l-0.28-.2h0.37l0.11-.35,0.13,0.32Z"/><path class="cls-10" d="M633.72,45l-0.3.29,0.11,0.33-0.31-.15-0.3.26A1.19,1.19,0,0,1,633,45.4l-0.28-.18h0.36a1.6,1.6,0,0,1,.11-0.36l0.13,0.31Z"/><rect class="cls-4" x="620.63" y="41.38" width="1.56" height="51.27"/><circle class="cls-4" cx="621.41" cy="40.91" r="2.34"/><rect class="cls-4" x="366.33" y="133.59" width="510.88" height="5.13"/><polygon class="cls-4" points="621.6 94.9 724.95 146.9 518.25 146.9 621.6 94.9"/><rect class="cls-4" x="524.65" y="146.5" width="193.91" height="27.2"/><rect class="cls-5" x="524.65" y="160.45" width="193.91" height="2.88"/><polygon class="cls-5" points="623.3 95.38 517.5 147.84 515.74 143.29 621.55 90.83 623.3 95.38"/><polygon class="cls-5" points="619.79 95.38 725.6 147.84 727.35 143.29 621.55 90.83 619.79 95.38"/><rect class="cls-5" x="515.74" y="143.29" width="211.6" height="4.55"/><rect class="cls-2" x="379.23" y="174.24" width="5.1" height="8.54"/><rect class="cls-2" x="385.44" y="174.24" width="5.1" height="8.54"/><rect class="cls-2" x="391.59" y="174.24" width="5.1" height="8.54"/><rect class="cls-2" x="379.15" y="183.67" width="5.1" height="8.54"/><rect class="cls-2" x="385.36" y="183.67" width="5.1" height="8.54"/><rect class="cls-2" x="391.59" y="183.67" width="5.1" height="8.54"/><rect class="cls-2" x="379.15" y="193.12" width="5.1" height="8.54"/><rect class="cls-2" x="385.36" y="193.12" width="5.1" height="8.54"/><rect class="cls-2" x="391.59" y="193.12" width="5.1" height="8.54"/><rect class="cls-2" x="379.23" y="202.55" width="5.1" height="8.54"/><rect class="cls-2" x="385.44" y="202.55" width="5.1" height="8.54"/><rect class="cls-2" x="391.59" y="202.55" width="5.1" height="8.54"/><rect class="cls-2" x="421.54" y="173.79" width="5.1" height="8.54"/><rect class="cls-2" x="427.75" y="173.79" width="5.1" height="8.54"/><rect class="cls-2" x="433.91" y="173.79" width="5.1" height="8.54"/><rect class="cls-2" x="421.46" y="183.22" width="5.1" height="8.54"/><rect class="cls-2" x="427.67" y="183.22" width="5.1" height="8.54"/><rect class="cls-2" x="433.91" y="183.22" width="5.1" height="8.54"/><rect class="cls-2" x="421.46" y="192.67" width="5.1" height="8.54"/><rect class="cls-2" x="427.67" y="192.67" width="5.1" height="8.54"/><rect class="cls-2" x="433.91" y="192.67" width="5.1" height="8.54"/><rect class="cls-2" x="421.54" y="202.09" width="5.1" height="8.54"/><rect class="cls-2" x="427.75" y="202.09" width="5.1" height="8.54"/><rect class="cls-2" x="433.91" y="202.09" width="5.1" height="8.54"/><rect class="cls-2" x="462.52" y="174.24" width="5.1" height="8.54"/><rect class="cls-2" x="468.73" y="174.24" width="5.1" height="8.54"/><rect class="cls-2" x="474.89" y="174.24" width="5.1" height="8.54"/><rect class="cls-2" x="462.44" y="183.68" width="5.1" height="8.54"/><rect class="cls-2" x="468.65" y="183.68" width="5.1" height="8.54"/><rect class="cls-2" x="474.89" y="183.68" width="5.1" height="8.54"/><rect class="cls-2" x="462.44" y="193.12" width="5.1" height="8.54"/><rect class="cls-2" x="468.65" y="193.12" width="5.1" height="8.54"/><rect class="cls-2" x="474.89" y="193.12" width="5.1" height="8.54"/><rect class="cls-2" x="462.52" y="202.55" width="5.1" height="8.54"/><rect class="cls-2" x="468.73" y="202.55" width="5.1" height="8.54"/><rect class="cls-2" x="474.89" y="202.55" width="5.1" height="8.54"/><rect class="cls-2" x="502.57" y="174.8" width="5.1" height="8.54"/><rect class="cls-2" x="508.79" y="174.8" width="5.1" height="8.54"/><rect class="cls-2" x="514.94" y="174.8" width="5.1" height="8.54"/><rect class="cls-2" x="502.5" y="184.24" width="5.1" height="8.54"/><rect class="cls-2" x="508.71" y="184.24" width="5.1" height="8.54"/><rect class="cls-2" x="514.94" y="184.24" width="5.1" height="8.54"/><rect class="cls-2" x="502.49" y="193.68" width="5.1" height="8.54"/><rect class="cls-2" x="508.71" y="193.68" width="5.1" height="8.54"/><rect class="cls-2" x="514.94" y="193.68" width="5.1" height="8.54"/><rect class="cls-2" x="502.57" y="203.11" width="5.1" height="8.54"/><rect class="cls-2" x="508.79" y="203.11" width="5.1" height="8.54"/><rect class="cls-2" x="514.94" y="203.11" width="5.1" height="8.54"/><rect class="cls-2" x="380.47" y="240.12" width="5.1" height="8.54"/><rect class="cls-2" x="386.68" y="240.12" width="5.1" height="8.54"/><rect class="cls-2" x="392.84" y="240.12" width="5.1" height="8.54"/><rect class="cls-2" x="380.39" y="249.55" width="5.1" height="8.54"/><rect class="cls-2" x="386.6" y="249.55" width="5.1" height="8.54"/><rect class="cls-2" x="392.84" y="249.55" width="5.1" height="8.54"/><rect class="cls-2" x="380.39" y="259" width="5.1" height="8.54"/><rect class="cls-2" x="386.6" y="259" width="5.1" height="8.54"/><rect class="cls-2" x="392.84" y="259" width="5.1" height="8.54"/><rect class="cls-2" x="380.47" y="268.43" width="5.1" height="8.54"/><rect class="cls-2" x="386.68" y="268.43" width="5.1" height="8.54"/><rect class="cls-2" x="392.84" y="268.43" width="5.1" height="8.54"/><rect class="cls-2" x="422.78" y="239.67" width="5.1" height="8.54"/><rect class="cls-2" x="428.99" y="239.67" width="5.1" height="8.54"/><rect class="cls-2" x="435.15" y="239.67" width="5.1" height="8.54"/><rect class="cls-2" x="422.7" y="249.1" width="5.1" height="8.54"/><rect class="cls-2" x="428.91" y="249.1" width="5.1" height="8.54"/><rect class="cls-2" x="435.15" y="249.1" width="5.1" height="8.54"/><rect class="cls-2" x="422.7" y="258.55" width="5.1" height="8.54"/><rect class="cls-2" x="428.91" y="258.55" width="5.1" height="8.54"/><rect class="cls-2" x="435.15" y="258.55" width="5.1" height="8.54"/><rect class="cls-2" x="422.78" y="267.98" width="5.1" height="8.54"/><rect class="cls-2" x="428.99" y="267.98" width="5.1" height="8.54"/><rect class="cls-2" x="435.15" y="267.98" width="5.1" height="8.54"/><rect class="cls-2" x="463.76" y="240.13" width="5.1" height="8.54"/><rect class="cls-2" x="469.97" y="240.13" width="5.1" height="8.54"/><rect class="cls-2" x="476.13" y="240.13" width="5.1" height="8.54"/><rect class="cls-2" x="463.69" y="249.56" width="5.1" height="8.54"/><rect class="cls-2" x="469.9" y="249.56" width="5.1" height="8.54"/><rect class="cls-2" x="476.13" y="249.56" width="5.1" height="8.54"/><rect class="cls-2" x="463.68" y="259" width="5.1" height="8.54"/><rect class="cls-2" x="469.89" y="259" width="5.1" height="8.54"/><rect class="cls-2" x="476.13" y="259" width="5.1" height="8.54"/><rect class="cls-2" x="463.76" y="268.43" width="5.1" height="8.54"/><rect class="cls-2" x="469.97" y="268.43" width="5.1" height="8.54"/><rect class="cls-2" x="476.13" y="268.43" width="5.1" height="8.54"/><rect class="cls-2" x="503.82" y="239.22" width="5.1" height="8.54"/><rect class="cls-2" x="510.03" y="239.22" width="5.1" height="8.54"/><rect class="cls-2" x="516.19" y="239.22" width="5.1" height="8.54"/><rect class="cls-2" x="503.74" y="248.65" width="5.1" height="8.54"/><rect class="cls-2" x="509.95" y="248.65" width="5.1" height="8.54"/><rect class="cls-2" x="516.19" y="248.65" width="5.1" height="8.54"/><rect class="cls-2" x="503.74" y="258.1" width="5.1" height="8.54"/><rect class="cls-2" x="509.95" y="258.1" width="5.1" height="8.54"/><rect class="cls-2" x="516.19" y="258.1" width="5.1" height="8.54"/><rect class="cls-2" x="503.82" y="267.52" width="5.1" height="8.54"/><rect class="cls-2" x="510.03" y="267.52" width="5.1" height="8.54"/><rect class="cls-2" x="516.19" y="267.52" width="5.1" height="8.54"/><rect class="cls-2" x="860.03" y="175.57" width="5.1" height="8.54"/><rect class="cls-2" x="853.82" y="175.57" width="5.1" height="8.54"/><rect class="cls-2" x="847.66" y="175.57" width="5.1" height="8.54"/><rect class="cls-2" x="860.11" y="185.01" width="5.1" height="8.54"/><rect class="cls-2" x="853.9" y="185.01" width="5.1" height="8.54"/><rect class="cls-2" x="847.66" y="185.01" width="5.1" height="8.54"/><rect class="cls-2" x="860.11" y="194.45" width="5.1" height="8.54"/><rect class="cls-2" x="853.9" y="194.45" width="5.1" height="8.54"/><rect class="cls-2" x="847.66" y="194.45" width="5.1" height="8.54"/><rect class="cls-2" x="860.03" y="203.88" width="5.1" height="8.54"/><rect class="cls-2" x="853.82" y="203.88" width="5.1" height="8.54"/><rect class="cls-2" x="847.66" y="203.88" width="5.1" height="8.54"/><rect class="cls-2" x="817.72" y="175.12" width="5.1" height="8.54"/><rect class="cls-2" x="811.51" y="175.12" width="5.1" height="8.54"/><rect class="cls-2" x="805.35" y="175.12" width="5.1" height="8.54"/><rect class="cls-2" x="817.8" y="184.56" width="5.1" height="8.54"/><rect class="cls-2" x="811.59" y="184.56" width="5.1" height="8.54"/><rect class="cls-2" x="805.35" y="184.56" width="5.1" height="8.54"/><rect class="cls-2" x="817.8" y="194" width="5.1" height="8.54"/><rect class="cls-2" x="811.59" y="194" width="5.1" height="8.54"/><rect class="cls-2" x="805.35" y="194" width="5.1" height="8.54"/><rect class="cls-2" x="817.72" y="203.43" width="5.1" height="8.54"/><rect class="cls-2" x="811.51" y="203.43" width="5.1" height="8.54"/><rect class="cls-2" x="805.35" y="203.43" width="5.1" height="8.54"/><rect class="cls-2" x="776.73" y="175.58" width="5.1" height="8.54"/><rect class="cls-2" x="770.52" y="175.58" width="5.1" height="8.54"/><rect class="cls-2" x="764.36" y="175.58" width="5.1" height="8.54"/><rect class="cls-2" x="776.81" y="185.01" width="5.1" height="8.54"/><rect class="cls-2" x="770.6" y="185.01" width="5.1" height="8.54"/><rect class="cls-2" x="764.36" y="185.01" width="5.1" height="8.54"/><rect class="cls-2" x="776.81" y="194.46" width="5.1" height="8.54"/><rect class="cls-2" x="770.6" y="194.46" width="5.1" height="8.54"/><rect class="cls-2" x="764.36" y="194.46" width="5.1" height="8.54"/><rect class="cls-2" x="776.73" y="203.89" width="5.1" height="8.54"/><rect class="cls-2" x="770.52" y="203.89" width="5.1" height="8.54"/><rect class="cls-2" x="764.36" y="203.89" width="5.1" height="8.54"/><rect class="cls-2" x="736.68" y="174.67" width="5.1" height="8.54"/><rect class="cls-2" x="730.47" y="174.67" width="5.1" height="8.54"/><rect class="cls-2" x="724.31" y="174.67" width="5.1" height="8.54"/><rect class="cls-2" x="736.76" y="184.11" width="5.1" height="8.54"/><rect class="cls-2" x="730.55" y="184.11" width="5.1" height="8.54"/><rect class="cls-2" x="724.31" y="184.11" width="5.1" height="8.54"/><rect class="cls-2" x="736.76" y="193.55" width="5.1" height="8.54"/><rect class="cls-2" x="730.55" y="193.55" width="5.1" height="8.54"/><rect class="cls-2" x="724.31" y="193.55" width="5.1" height="8.54"/><rect class="cls-2" x="736.68" y="202.98" width="5.1" height="8.54"/><rect class="cls-2" x="730.47" y="202.98" width="5.1" height="8.54"/><rect class="cls-2" x="724.31" y="202.98" width="5.1" height="8.54"/><rect class="cls-2" x="858.78" y="239.99" width="5.1" height="8.54"/><rect class="cls-2" x="852.57" y="239.99" width="5.1" height="8.54"/><rect class="cls-2" x="846.41" y="239.99" width="5.1" height="8.54"/><rect class="cls-2" x="858.86" y="249.42" width="5.1" height="8.54"/><rect class="cls-2" x="852.65" y="249.42" width="5.1" height="8.54"/><rect class="cls-2" x="846.41" y="249.42" width="5.1" height="8.54"/><rect class="cls-2" x="858.86" y="258.87" width="5.1" height="8.54"/><rect class="cls-2" x="852.65" y="258.87" width="5.1" height="8.54"/><rect class="cls-2" x="846.41" y="258.87" width="5.1" height="8.54"/><rect class="cls-2" x="858.78" y="268.3" width="5.1" height="8.54"/><rect class="cls-2" x="852.57" y="268.3" width="5.1" height="8.54"/><rect class="cls-2" x="846.41" y="268.3" width="5.1" height="8.54"/><rect class="cls-2" x="816.47" y="239.54" width="5.1" height="8.54"/><rect class="cls-2" x="810.26" y="239.54" width="5.1" height="8.54"/><rect class="cls-2" x="804.1" y="239.54" width="5.1" height="8.54"/><rect class="cls-2" x="816.55" y="248.97" width="5.1" height="8.54"/><rect class="cls-2" x="810.34" y="248.97" width="5.1" height="8.54"/><rect class="cls-2" x="804.1" y="248.97" width="5.1" height="8.54"/><rect class="cls-2" x="816.55" y="258.42" width="5.1" height="8.54"/><rect class="cls-2" x="810.34" y="258.42" width="5.1" height="8.54"/><rect class="cls-2" x="804.1" y="258.42" width="5.1" height="8.54"/><rect class="cls-2" x="816.47" y="267.84" width="5.1" height="8.54"/><rect class="cls-2" x="810.26" y="267.84" width="5.1" height="8.54"/><rect class="cls-2" x="804.1" y="267.84" width="5.1" height="8.54"/><rect class="cls-2" x="775.49" y="240" width="5.1" height="8.54"/><rect class="cls-2" x="769.28" y="240" width="5.1" height="8.54"/><rect class="cls-2" x="763.12" y="240" width="5.1" height="8.54"/><rect class="cls-2" x="775.57" y="249.43" width="5.1" height="8.54"/><rect class="cls-2" x="769.36" y="249.43" width="5.1" height="8.54"/><rect class="cls-2" x="763.12" y="249.43" width="5.1" height="8.54"/><rect class="cls-2" x="775.57" y="258.87" width="5.1" height="8.54"/><rect class="cls-2" x="769.36" y="258.87" width="5.1" height="8.54"/><rect class="cls-2" x="763.12" y="258.87" width="5.1" height="8.54"/><rect class="cls-2" x="775.49" y="268.3" width="5.1" height="8.54"/><rect class="cls-2" x="769.28" y="268.3" width="5.1" height="8.54"/><rect class="cls-2" x="763.12" y="268.3" width="5.1" height="8.54"/><rect class="cls-2" x="735.43" y="239.09" width="5.1" height="8.54"/><rect class="cls-2" x="729.22" y="239.09" width="5.1" height="8.54"/><rect class="cls-2" x="723.06" y="239.09" width="5.1" height="8.54"/><rect class="cls-2" x="735.51" y="248.52" width="5.1" height="8.54"/><rect class="cls-2" x="729.3" y="248.52" width="5.1" height="8.54"/><rect class="cls-2" x="723.06" y="248.52" width="5.1" height="8.54"/><rect class="cls-2" x="735.51" y="257.97" width="5.1" height="8.54"/><rect class="cls-2" x="729.3" y="257.97" width="5.1" height="8.54"/><rect class="cls-2" x="723.06" y="257.97" width="5.1" height="8.54"/><rect class="cls-2" x="735.43" y="267.39" width="5.1" height="8.54"/><rect class="cls-2" x="729.22" y="267.39" width="5.1" height="8.54"/><rect class="cls-2" x="723.06" y="267.39" width="5.1" height="8.54"/><polygon class="cls-4" points="829.02 236.69 796.76 236.57 813.42 227.61 829.02 236.69"/><path class="cls-4" d="M855.21,227.61c-7.45,0-13.42,5.33-13.42,9.08h27C868.76,232.94,862.61,227.61,855.21,227.61Z"/><polygon class="cls-4" points="747.9 236.69 715.64 236.57 732.3 227.61 747.9 236.69"/><path class="cls-4" d="M771.84,227.61c-7.45,0-13.42,5.33-13.42,9.08h27C785.4,232.94,779.3,227.61,771.84,227.61Z"/><polygon class="cls-4" points="414.8 236.69 447.05 236.57 430.4 227.61 414.8 236.69"/><path class="cls-4" d="M388.61,227.61c7.45,0,13.42,5.33,13.42,9.08H375C375.06,232.94,381.17,227.61,388.61,227.61Z"/><polygon class="cls-4" points="495.92 236.69 528.17 236.57 511.52 227.61 495.92 236.69"/><path class="cls-4" d="M472,227.61c7.45,0,13.42,5.33,13.42,9.08h-27C458.42,232.94,464.53,227.61,472,227.61Z"/><path class="cls-4" d="M562.71,228.17c-7.45,0-13.42,5.33-13.42,9.08h27C576.27,233.51,570.17,228.17,562.71,228.17Z"/><path class="cls-4" d="M682.68,229.64c-7.45,0-13.42,5.33-13.42,9.08h27C696.23,235,690.13,229.64,682.68,229.64Z"/></g></svg>