<svg id="Layer_1" data-name="Layer 1" xmlns="http://www.w3.org/2000/svg" viewBox="0 0 877.22 296.39"><defs><style>.cls-1{fill:#f1f1f2;}.cls-2{fill:#8fa0ad;}.cls-10,.cls-3,.cls-8,.cls-9{fill:#e6e7e7;}.cls-4{fill:#d0d2d3;}.cls-5{fill:#bbbdbf;}.cls-6{fill:#ebecec;}.cls-7{fill:#989898;}.cls-10,.cls-8,.cls-9{stroke:#6d6e70;stroke-miterlimit:10;}.cls-8{stroke-width:0.62px;}.cls-9{stroke-width:0.58px;}.cls-10{stroke-width:0.58px;}.cls-11{fill:#fff;}.cls-11,.cls-12{fill-rule:evenodd;}.cls-12{fill:gray;}</style></defs><title>ART3background</title><g id="government_buildings" data-name="government buildings"><rect class="cls-1" x="11.88" y="145" width="319.38" height="103.84"/><rect class="cls-2" x="129.23" y="139.42" width="85.79" height="106.56"/><path class="cls-3" d="M373.36,503.61c-43.93,0-80,26.78-84.32,61.06H457.69C453.41,530.38,417.29,503.61,373.36,503.61Z" transform="translate(-201.39 -503.61)"/><rect class="cls-3" x="84.7" y="51.4" width="174.55" height="21.64"/><rect class="cls-3" x="71.33" y="71.96" width="201.29" height="33.24"/><rect class="cls-3" x="5.34" y="120.89" width="332.46" height="10.4"/><rect class="cls-3" x="12.22" y="104.13" width="319.38" height="19.61"/><rect class="cls-3" x="11.88" y="129.62" width="319.38" height="18.17"/><polygon class="cls-4" points="171.97 68.97 289.17 120.97 54.78 120.97 171.97 68.97"/><rect class="cls-4" x="66.97" y="126.53" width="12.9" height="117.42"/><rect class="cls-4" x="94.42" y="126.53" width="12.9" height="117.42"/><rect class="cls-4" x="122.78" y="126.53" width="12.9" height="117.42"/><rect class="cls-4" x="150.62" y="126.53" width="12.9" height="117.42"/><rect class="cls-4" x="180.06" y="126.53" width="12.9" height="117.42"/><rect class="cls-4" x="208.57" y="126.53" width="12.9" height="117.42"/><rect class="cls-4" x="236.93" y="126.53" width="12.9" height="117.42"/><rect class="cls-4" x="264.04" y="126.53" width="12.9" height="117.42"/><path class="cls-4" d="M284.91,650.38V650H284a3.9,3.9,0,0,0-1.76,0H267.4a3.9,3.9,0,0,0-1.76,0h-0.92v0.34a4.9,4.9,0,0,0-2.52,4.39,4.6,4.6,0,0,0,4.33,4.83,4.51,4.51,0,0,0,4.28-4.13h8a4.51,4.51,0,0,0,4.28,4.13,4.6,4.6,0,0,0,4.33-4.83A4.9,4.9,0,0,0,284.91,650.38Z" transform="translate(-201.39 -503.61)"/><path class="cls-4" d="M312.36,650.38V650h-0.92a3.9,3.9,0,0,0-1.76,0H294.85a3.89,3.89,0,0,0-1.76,0h-0.92v0.34a4.9,4.9,0,0,0-2.52,4.39A4.6,4.6,0,0,0,294,659.6a4.51,4.51,0,0,0,4.28-4.13h8a4.51,4.51,0,0,0,4.28,4.13,4.6,4.6,0,0,0,4.33-4.83A4.9,4.9,0,0,0,312.36,650.38Z" transform="translate(-201.39 -503.61)"/><path class="cls-4" d="M340.72,650.38V650H339.8a3.9,3.9,0,0,0-1.76,0H323.21a3.9,3.9,0,0,0-1.76,0h-0.92v0.34a4.9,4.9,0,0,0-2.52,4.39,4.6,4.6,0,0,0,4.33,4.83,4.51,4.51,0,0,0,4.28-4.13h8a4.51,4.51,0,0,0,4.28,4.13,4.6,4.6,0,0,0,4.33-4.83A4.9,4.9,0,0,0,340.72,650.38Z" transform="translate(-201.39 -503.61)"/><path class="cls-4" d="M368.56,650.38V650h-0.92a3.9,3.9,0,0,0-1.76,0H351.05a3.9,3.9,0,0,0-1.76,0h-0.92v0.34a4.9,4.9,0,0,0-2.52,4.39,4.6,4.6,0,0,0,4.33,4.83,4.51,4.51,0,0,0,4.28-4.13h8a4.51,4.51,0,0,0,4.28,4.13,4.6,4.6,0,0,0,4.33-4.83A4.9,4.9,0,0,0,368.56,650.38Z" transform="translate(-201.39 -503.61)"/><path class="cls-4" d="M398,650.38V650h-0.92a3.9,3.9,0,0,0-1.76,0H380.49a3.9,3.9,0,0,0-1.76,0H377.8v0.34a4.9,4.9,0,0,0-2.52,4.39,4.6,4.6,0,0,0,4.33,4.83,4.51,4.51,0,0,0,4.28-4.13h8a4.51,4.51,0,0,0,4.28,4.13,4.6,4.6,0,0,0,4.33-4.83A4.9,4.9,0,0,0,398,650.38Z" transform="translate(-201.39 -503.61)"/><path class="cls-4" d="M426.51,650.38V650h-0.92a3.9,3.9,0,0,0-1.76,0H409a3.9,3.9,0,0,0-1.76,0h-0.92v0.34a4.9,4.9,0,0,0-2.52,4.39,4.6,4.6,0,0,0,4.33,4.83,4.51,4.51,0,0,0,4.28-4.13h8a4.51,4.51,0,0,0,4.28,4.13,4.6,4.6,0,0,0,4.33-4.83A4.9,4.9,0,0,0,426.51,650.38Z" transform="translate(-201.39 -503.61)"/><path class="cls-4" d="M454.87,650.38V650h-0.92a3.9,3.9,0,0,0-1.76,0H437.36a3.9,3.9,0,0,0-1.76,0h-0.92v0.34a4.9,4.9,0,0,0-2.52,4.39,4.6,4.6,0,0,0,4.33,4.83,4.51,4.51,0,0,0,4.28-4.13h8a4.51,4.51,0,0,0,4.28,4.13,4.6,4.6,0,0,0,4.33-4.83A4.9,4.9,0,0,0,454.87,650.38Z" transform="translate(-201.39 -503.61)"/><path class="cls-4" d="M482,650.38V650h-0.92a3.89,3.89,0,0,0-1.76,0H464.47a3.89,3.89,0,0,0-1.76,0h-0.92v0.34a4.9,4.9,0,0,0-2.52,4.39,4.6,4.6,0,0,0,4.33,4.83,4.51,4.51,0,0,0,4.28-4.13h8a4.51,4.51,0,0,0,4.28,4.13,4.6,4.6,0,0,0,4.33-4.83A4.9,4.9,0,0,0,482,650.38Z" transform="translate(-201.39 -503.61)"/><rect class="cls-4" x="62.02" y="120.57" width="219.9" height="27.19"/><rect class="cls-3" x="41.88" y="126.52" width="12.9" height="117.42"/><rect class="cls-3" x="22.23" y="126.53" width="12.9" height="117.42"/><rect class="cls-3" x="11.88" y="126.53" width="6.45" height="117.42"/><rect class="cls-3" x="288.36" y="126.53" width="12.9" height="117.42"/><rect class="cls-3" x="308" y="126.53" width="12.9" height="117.42"/><rect class="cls-3" x="324.81" y="126.53" width="6.45" height="117.42"/><rect class="cls-4" x="11.88" y="242.87" width="319.38" height="23.97"/><rect class="cls-4" y="265.77" width="343.82" height="30.62"/><rect class="cls-5" x="62.02" y="134.51" width="219.9" height="2.88"/><rect class="cls-5" x="248.83" y="594.52" width="130.95" height="4.96" transform="translate(-414.24 -327.68) rotate(-23.62)"/><rect class="cls-5" x="429.82" y="531.53" width="4.96" height="130.95" transform="translate(-489.28 250.32) rotate(-66.38)"/><rect class="cls-5" x="51.93" y="117.36" width="239.96" height="4.55"/><rect class="cls-6" x="523.05" y="94.9" width="197.08" height="30.29"/><rect class="cls-6" x="755.81" y="96.08" width="14.62" height="25.02"/><rect class="cls-6" x="752.66" y="91.91" width="20.92" height="5.99"/><rect class="cls-6" x="472.53" y="95.46" width="14.62" height="25.02"/><rect class="cls-6" x="469.38" y="91.29" width="20.92" height="5.99"/><rect class="cls-6" x="369.98" y="111.14" width="503.13" height="185.26"/><rect class="cls-4" x="529" y="171.53" width="11.38" height="119.19"/><rect class="cls-4" x="584.69" y="171.53" width="11.38" height="119.19"/><rect class="cls-4" x="647.4" y="171.53" width="11.38" height="119.19"/><rect class="cls-4" x="702.79" y="171.53" width="11.38" height="119.19"/><path class="cls-4" d="M745,676.31V676h-0.81a3,3,0,0,0-1.56,0H729.55a3,3,0,0,0-1.56,0h-0.81v0.34a5,5,0,0,0-2.23,4.39c0,2.67,1.71,4.83,3.82,4.83,1.92,0,3.5-1.79,3.77-4.13h7.09c0.27,2.34,1.85,4.13,3.77,4.13,2.11,0,3.82-2.16,3.82-4.83A5,5,0,0,0,745,676.31Z" transform="translate(-201.39 -503.61)"/><path class="cls-4" d="M800.67,676.31V676h-0.81a3,3,0,0,0-1.55,0H785.23a3,3,0,0,0-1.55,0h-0.81v0.34a5,5,0,0,0-2.23,4.39c0,2.67,1.71,4.83,3.82,4.83,1.92,0,3.5-1.79,3.77-4.13h7.08c0.27,2.34,1.86,4.13,3.77,4.13,2.11,0,3.82-2.16,3.82-4.83A5,5,0,0,0,800.67,676.31Z" transform="translate(-201.39 -503.61)"/><path class="cls-4" d="M863.39,676.31V676h-0.82a3,3,0,0,0-.78-0.1,3,3,0,0,0-.78.1H847.95a3,3,0,0,0-1.56,0h-0.81v0.34a5,5,0,0,0-2.23,4.39c0,2.67,1.71,4.83,3.82,4.83,1.92,0,3.5-1.79,3.77-4.13H858c0.27,2.34,1.85,4.13,3.77,4.13,2.11,0,3.82-2.16,3.82-4.83A5,5,0,0,0,863.39,676.31Z" transform="translate(-201.39 -503.61)"/><path class="cls-4" d="M918.78,676.31V676H918a3,3,0,0,0-1.55,0H903.33a3,3,0,0,0-1.55,0H901v0.34a5,5,0,0,0-2.22,4.39c0,2.67,1.71,4.83,3.82,4.83,1.92,0,3.5-1.79,3.77-4.13h7.09c0.27,2.34,1.85,4.13,3.77,4.13,2.1,0,3.81-2.16,3.81-4.83A5,5,0,0,0,918.78,676.31Z" transform="translate(-201.39 -503.61)"/><rect class="cls-4" x="526.99" y="274.87" width="15.35" height="21.52"/><rect class="cls-4" x="582.71" y="274.87" width="15.34" height="21.52"/><rect class="cls-4" x="645.42" y="274.87" width="15.35" height="21.52"/><rect class="cls-4" x="701.08" y="274.87" width="15.35" height="21.52"/><rect class="cls-7" x="375.06" y="115.85" width="2.75" height="12.61"/><rect class="cls-7" x="379.24" y="115.85" width="2.75" height="12.61"/><rect class="cls-7" x="383.81" y="115.85" width="2.75" height="12.61"/><rect class="cls-7" x="388.08" y="115.85" width="2.75" height="12.61"/><rect class="cls-7" x="392.48" y="115.85" width="2.75" height="12.61"/><rect class="cls-7" x="396.88" y="115.85" width="2.75" height="12.61"/><rect class="cls-7" x="401.37" y="115.85" width="2.75" height="12.61"/><rect class="cls-7" x="420.01" y="115.85" width="2.75" height="12.61"/><rect class="cls-7" x="424.19" y="115.85" width="2.75" height="12.61"/><rect class="cls-7" x="428.77" y="115.85" width="2.75" height="12.61"/><rect class="cls-7" x="433.03" y="115.85" width="2.75" height="12.61"/><rect class="cls-7" x="437.43" y="115.85" width="2.75" height="12.61"/><rect class="cls-7" x="441.83" y="115.85" width="2.75" height="12.61"/><rect class="cls-7" x="446.32" y="115.85" width="2.75" height="12.61"/><rect class="cls-7" x="465.44" y="115.85" width="2.75" height="12.61"/><rect class="cls-7" x="469.62" y="115.85" width="2.75" height="12.61"/><rect class="cls-7" x="474.2" y="115.85" width="2.75" height="12.61"/><rect class="cls-7" x="478.46" y="115.85" width="2.75" height="12.61"/><rect class="cls-7" x="482.86" y="115.85" width="2.75" height="12.61"/><rect class="cls-7" x="487.26" y="115.85" width="2.75" height="12.61"/><rect class="cls-7" x="491.75" y="115.85" width="2.75" height="12.61"/><rect class="cls-7" x="508.52" y="115.85" width="2.75" height="12.61"/><rect class="cls-7" x="512.7" y="115.85" width="2.75" height="12.61"/><rect class="cls-7" x="517.28" y="115.85" width="2.75" height="12.61"/><rect class="cls-7" x="521.54" y="115.85" width="2.75" height="12.61"/><rect class="cls-7" x="525.94" y="115.85" width="2.75" height="12.61"/><rect class="cls-7" x="530.34" y="115.85" width="2.75" height="12.61"/><rect class="cls-7" x="534.83" y="115.85" width="2.75" height="12.61"/><rect class="cls-7" x="706.04" y="116.58" width="2.75" height="12.61"/><rect class="cls-7" x="710.22" y="116.58" width="2.75" height="12.61"/><rect class="cls-7" x="714.79" y="116.58" width="2.75" height="12.61"/><rect class="cls-7" x="719.06" y="116.58" width="2.75" height="12.61"/><rect class="cls-7" x="723.46" y="116.58" width="2.75" height="12.61"/><rect class="cls-7" x="727.86" y="116.58" width="2.75" height="12.61"/><rect class="cls-7" x="732.35" y="116.58" width="2.75" height="12.61"/><rect class="cls-7" x="750.99" y="116.58" width="2.75" height="12.61"/><rect class="cls-7" x="755.17" y="116.58" width="2.75" height="12.61"/><rect class="cls-7" x="759.75" y="116.58" width="2.75" height="12.61"/><rect class="cls-7" x="764.01" y="116.58" width="2.75" height="12.61"/><rect class="cls-7" x="768.41" y="116.58" width="2.75" height="12.61"/><rect class="cls-7" x="772.81" y="116.58" width="2.75" height="12.61"/><rect class="cls-7" x="777.3" y="116.58" width="2.75" height="12.61"/><rect class="cls-7" x="796.42" y="116.58" width="2.75" height="12.61"/><rect class="cls-7" x="800.6" y="116.58" width="2.75" height="12.61"/><rect class="cls-7" x="805.18" y="116.58" width="2.75" height="12.61"/><rect class="cls-7" x="809.44" y="116.58" width="2.75" height="12.61"/><rect class="cls-7" x="813.84" y="116.58" width="2.75" height="12.61"/><rect class="cls-7" x="818.24" y="116.58" width="2.75" height="12.61"/><rect class="cls-7" x="822.74" y="116.58" width="2.75" height="12.61"/><rect class="cls-7" x="839.5" y="116.58" width="2.75" height="12.61"/><rect class="cls-7" x="843.68" y="116.58" width="2.75" height="12.61"/><rect class="cls-7" x="848.26" y="116.58" width="2.75" height="12.61"/><rect class="cls-7" x="852.52" y="116.58" width="2.75" height="12.61"/><rect class="cls-7" x="856.92" y="116.58" width="2.75" height="12.61"/><rect class="cls-7" x="861.32" y="116.58" width="2.75" height="12.61"/><rect class="cls-7" x="865.81" y="116.58" width="2.75" height="12.61"/><rect class="cls-2" x="609.55" y="248.66" width="26.4" height="47.73"/><path class="cls-4" d="M824.06,730.42c-8.86,0-16,8.67-16,14.76h32.08C840.18,739.08,832.92,730.42,824.06,730.42Z" transform="translate(-201.39 -503.61)"/><rect class="cls-2" x="686.4" y="174.93" width="5.1" height="8.54"/><rect class="cls-2" x="680.19" y="174.93" width="5.1" height="8.54"/><rect class="cls-2" x="674.03" y="174.93" width="5.1" height="8.54"/><rect class="cls-2" x="686.48" y="184.36" width="5.1" height="8.54"/><rect class="cls-2" x="680.27" y="184.36" width="5.1" height="8.54"/><rect class="cls-2" x="674.03" y="184.36" width="5.1" height="8.54"/><rect class="cls-2" x="686.48" y="193.81" width="5.1" height="8.54"/><rect class="cls-2" x="680.27" y="193.81" width="5.1" height="8.54"/><rect class="cls-2" x="674.03" y="193.81" width="5.1" height="8.54"/><rect class="cls-2" x="686.4" y="203.24" width="5.1" height="8.54"/><rect class="cls-2" x="680.19" y="203.24" width="5.1" height="8.54"/><rect class="cls-2" x="674.03" y="203.24" width="5.1" height="8.54"/><rect class="cls-2" x="626.34" y="175.13" width="5.1" height="8.54"/><rect class="cls-2" x="620.13" y="175.13" width="5.1" height="8.54"/><rect class="cls-2" x="613.97" y="175.13" width="5.1" height="8.54"/><rect class="cls-2" x="626.42" y="184.56" width="5.1" height="8.54"/><rect class="cls-2" x="620.21" y="184.56" width="5.1" height="8.54"/><rect class="cls-2" x="613.97" y="184.56" width="5.1" height="8.54"/><rect class="cls-2" x="626.42" y="194.01" width="5.1" height="8.54"/><rect class="cls-2" x="620.21" y="194.01" width="5.1" height="8.54"/><rect class="cls-2" x="613.97" y="194.01" width="5.1" height="8.54"/><rect class="cls-2" x="626.34" y="203.44" width="5.1" height="8.54"/><rect class="cls-2" x="620.13" y="203.44" width="5.1" height="8.54"/><rect class="cls-2" x="613.97" y="203.44" width="5.1" height="8.54"/><rect class="cls-2" x="566.44" y="175.38" width="5.1" height="8.54"/><rect class="cls-2" x="560.23" y="175.38" width="5.1" height="8.54"/><rect class="cls-2" x="554.07" y="175.38" width="5.1" height="8.54"/><rect class="cls-2" x="566.52" y="184.81" width="5.1" height="8.54"/><rect class="cls-2" x="560.31" y="184.81" width="5.1" height="8.54"/><rect class="cls-2" x="554.07" y="184.81" width="5.1" height="8.54"/><rect class="cls-2" x="566.52" y="194.26" width="5.1" height="8.54"/><rect class="cls-2" x="560.31" y="194.26" width="5.1" height="8.54"/><rect class="cls-2" x="554.07" y="194.26" width="5.1" height="8.54"/><rect class="cls-2" x="566.44" y="203.69" width="5.1" height="8.54"/><rect class="cls-2" x="560.23" y="203.69" width="5.1" height="8.54"/><rect class="cls-2" x="554.07" y="203.69" width="5.1" height="8.54"/><rect class="cls-2" x="566.36" y="240.56" width="5.1" height="8.54"/><rect class="cls-2" x="560.15" y="240.56" width="5.1" height="8.54"/><rect class="cls-2" x="553.99" y="240.56" width="5.1" height="8.54"/><rect class="cls-2" x="566.44" y="249.99" width="5.1" height="8.54"/><rect class="cls-2" x="560.23" y="249.99" width="5.1" height="8.54"/><rect class="cls-2" x="553.99" y="249.99" width="5.1" height="8.54"/><rect class="cls-2" x="566.44" y="259.44" width="5.1" height="8.54"/><rect class="cls-2" x="560.23" y="259.44" width="5.1" height="8.54"/><rect class="cls-2" x="553.99" y="259.44" width="5.1" height="8.54"/><rect class="cls-2" x="566.36" y="268.86" width="5.1" height="8.54"/><rect class="cls-2" x="560.15" y="268.86" width="5.1" height="8.54"/><rect class="cls-2" x="553.99" y="268.86" width="5.1" height="8.54"/><rect class="cls-2" x="686.32" y="242.03" width="5.1" height="8.54"/><rect class="cls-2" x="680.11" y="242.03" width="5.1" height="8.54"/><rect class="cls-2" x="673.95" y="242.03" width="5.1" height="8.54"/><rect class="cls-2" x="686.4" y="251.46" width="5.1" height="8.54"/><rect class="cls-2" x="680.19" y="251.46" width="5.1" height="8.54"/><rect class="cls-2" x="673.95" y="251.46" width="5.1" height="8.54"/><rect class="cls-2" x="686.4" y="260.91" width="5.1" height="8.54"/><rect class="cls-2" x="680.19" y="260.91" width="5.1" height="8.54"/><rect class="cls-2" x="673.95" y="260.91" width="5.1" height="8.54"/><rect class="cls-2" x="686.32" y="270.34" width="5.1" height="8.54"/><rect class="cls-2" x="680.11" y="270.34" width="5.1" height="8.54"/><rect class="cls-2" x="673.95" y="270.34" width="5.1" height="8.54"/><rect class="cls-8" x="616.52" y="222.41" width="12.45" height="17.13"/><rect class="cls-9" x="618.85" y="222.42" width="7.88" height="17.12"/><polygon class="cls-10" points="628.72 222.41 616.78 222.41 622.75 213.53 628.72 222.41"/><ellipse class="cls-2" cx="622.71" cy="213.11" rx="2.09" ry="1.78"/><rect class="cls-2" x="622.39" y="171.53" width="0.59" height="39.8"/><path class="cls-11" d="M853.61,563.68c-10.1-4.28-20.2,4.28-30.3,0V547.21c10.1,4.28,20.2-4.29,30.3,0v16.48Z" transform="translate(-201.39 -503.61)"/><path class="cls-12" d="M853.6,548.47c-10.1-4.28-20.19,4.28-30.29,0v-1.26c10.1,4.28,20.19-4.28,30.29,0v1.26Z" transform="translate(-201.39 -503.61)"/><path class="cls-12" d="M853.6,551c-10.09-4.27-20.19,4.29-30.29,0V549.7c10.1,4.28,20.19-4.28,30.29,0V551Z" transform="translate(-201.39 -503.61)"/><path class="cls-12" d="M853.61,553.52c-10.1-4.28-20.2,4.28-30.29,0v-1.26c10.09,4.28,20.19-4.28,30.29,0v1.26Z" transform="translate(-201.39 -503.61)"/><path class="cls-12" d="M853.6,556.07c-10.09-4.27-20.19,4.29-30.29,0v-1.26c10.1,4.28,20.19-4.28,30.29,0v1.26Z" transform="translate(-201.39 -503.61)"/><path class="cls-12" d="M853.6,558.58c-10.09-4.27-20.19,4.29-30.29,0v-1.26c10.1,4.28,20.19-4.28,30.29,0v1.26Z" transform="translate(-201.39 -503.61)"/><path class="cls-12" d="M853.6,561.14c-10.1-4.28-20.19,4.28-30.29,0v-1.26c10.1,4.28,20.19-4.28,30.29,0v1.26Z" transform="translate(-201.39 -503.61)"/><path class="cls-12" d="M853.6,563.67c-10.09-4.27-20.19,4.29-30.29,0v-1.26c10.1,4.28,20.19-4.28,30.29,0v1.26Z" transform="translate(-201.39 -503.61)"/><path class="cls-12" d="M823.31,547.21c4.1,1.74,8.21,1.36,12.31.58v8.83c-4.1.78-8.21,1.16-12.31-.58v-8.83Z" transform="translate(-201.39 -503.61)"/><path class="cls-11" d="M830,553.59l-0.3.23,0.11,0.35-0.31-.2-0.3.21,0.11-.36-0.28-.24h0.36l0.11-.33,0.13,0.34H830Z" transform="translate(-201.39 -503.61)"/><path class="cls-11" d="M828.92,554.45l-0.3.22,0.11,0.35-0.31-.22-0.3.19c0-.14.07-0.23,0.11-0.35l-0.28-.25,0.18,0h0.18l0.11-.33,0.13,0.35Z" transform="translate(-201.39 -503.61)"/><path class="cls-11" d="M831,554.43l-0.3.25,0.11,0.34-0.31-.19-0.3.22c0-.14.07-0.24,0.11-0.36l-0.28-.22h0.36c0-.12.07-0.2,0.11-0.34l0.13,0.33Z" transform="translate(-201.39 -503.61)"/><path class="cls-11" d="M831,552.68l-0.3.25,0.11,0.34-0.31-.19-0.3.22c0-.14.07-0.24,0.11-0.36l-0.28-.22h0.36l0.11-.34,0.13,0.33Z" transform="translate(-201.39 -503.61)"/><path class="cls-11" d="M830,551.87l-0.3.23,0.11,0.35-0.31-.2-0.3.21,0.11-.36-0.28-.24h0.36l0.11-.33,0.13,0.34H830Z" transform="translate(-201.39 -503.61)"/><path class="cls-11" d="M833,552.49l-0.3.27,0.11,0.33-0.31-.16-0.3.24c0-.15.07-0.25,0.11-0.37l-0.28-.2,0.18,0,0.18,0,0.11-.35,0.13,0.32Z" transform="translate(-201.39 -503.61)"/><path class="cls-11" d="M832,551.75l-0.3.26,0.11,0.34-0.31-.18-0.3.23c0-.14.07-0.24,0.11-0.36l-0.28-.21h0.36l0.11-.34,0.13,0.32Z" transform="translate(-201.39 -503.61)"/><path class="cls-11" d="M832,550l-0.3.26,0.11,0.34-0.31-.18-0.3.23c0-.14.07-0.24,0.11-0.37l-0.28-.21h0.36l0.11-.34,0.13,0.33Z" transform="translate(-201.39 -503.61)"/><path class="cls-11" d="M831,550.93l-0.3.25,0.11,0.34-0.31-.19-0.3.22c0-.14.07-0.24,0.11-0.36L830,551h0.36c0-.12.07-0.2,0.11-0.34L830.6,551Z" transform="translate(-201.39 -503.61)"/><path class="cls-11" d="M831,549.17l-0.3.25,0.11,0.34-0.31-.19-0.3.22c0-.14.08-0.24,0.11-0.36l-0.28-.22h0.36l0.11-.34,0.13,0.33Z" transform="translate(-201.39 -503.61)"/><path class="cls-11" d="M830,550.1l-0.3.23,0.11,0.35-0.31-.2-0.3.21,0.11-.36-0.28-.24h0.36l0.11-.33,0.13,0.34H830Z" transform="translate(-201.39 -503.61)"/><path class="cls-11" d="M828.93,549.21l-0.3.22,0.11,0.35-0.31-.22-0.3.19c0-.14.07-0.23,0.11-0.35l-0.28-.25,0.17,0h0.19l0.11-.33,0.13,0.34Z" transform="translate(-201.39 -503.61)"/><path class="cls-11" d="M824.83,548.52l-0.3.14,0.11,0.38-0.31-.3-0.3.11c0-.13.07-0.21,0.11-0.32l-0.28-.33,0.18,0.06,0.18,0.07,0.11-.3,0.13,0.38Z" transform="translate(-201.39 -503.61)"/><path class="cls-11" d="M826.89,549l-0.3.18,0.11,0.36-0.31-.26-0.3.15c0-.13.07-0.22,0.11-0.34l-0.28-.29,0.18,0,0.18,0,0.11-.31,0.13,0.36Z" transform="translate(-201.39 -503.61)"/><path class="cls-11" d="M827.9,550l-0.3.2,0.11,0.36-0.31-.24-0.3.17c0-.14.07-0.23,0.11-0.34l-0.28-.27,0.18,0,0.18,0,0.11-.32,0.13,0.35Z" transform="translate(-201.39 -503.61)"/><path class="cls-11" d="M825.85,549.69l-0.3.16,0.11,0.37-0.31-.28-0.3.13c0-.13.07-0.22,0.11-0.33l-0.28-.31,0.18,0.05,0.18,0.05,0.11-.31,0.13,0.37Z" transform="translate(-201.39 -503.61)"/><path class="cls-11" d="M824.82,550.3l-0.3.14,0.11,0.38-0.31-.3-0.3.1c0-.13.07-0.21,0.11-0.32l-0.28-.33L824,550l0.18,0.07,0.11-.3,0.13,0.38Z" transform="translate(-201.39 -503.61)"/><path class="cls-11" d="M826.88,550.77l-0.3.18,0.11,0.36-0.31-.26-0.3.15,0.11-.34-0.28-.29,0.18,0,0.18,0,0.11-.31,0.13,0.36Z" transform="translate(-201.39 -503.61)"/><path class="cls-11" d="M825.85,551.44l-0.3.16,0.11,0.37-0.31-.28-0.3.13c0-.13.07-0.22,0.11-0.33l-0.28-.31,0.18,0,0.18,0.05,0.11-.3,0.13,0.37Z" transform="translate(-201.39 -503.61)"/><path class="cls-11" d="M824.82,552l-0.3.14,0.11,0.38-0.31-.3-0.3.11c0-.13.07-0.21,0.11-0.32l-0.28-.33,0.18,0.07,0.18,0.07,0.11-.3,0.13,0.38Z" transform="translate(-201.39 -503.61)"/><path class="cls-11" d="M826.88,552.52l-0.3.18,0.11,0.36-0.31-.26-0.3.15c0-.13.07-0.22,0.11-0.34l-0.28-.29,0.18,0,0.18,0,0.11-.31,0.13,0.36Z" transform="translate(-201.39 -503.61)"/><path class="cls-11" d="M825.85,553.19l-0.3.16,0.11,0.37-0.31-.28-0.3.13c0-.13.07-0.22,0.11-0.33l-0.28-.31,0.18,0.05,0.18,0.05c0-.1.07-0.18,0.11-0.31l0.13,0.37Z" transform="translate(-201.39 -503.61)"/><path class="cls-11" d="M824.82,553.79l-0.3.14,0.11,0.38-0.31-.3-0.3.1,0.11-.32-0.28-.34,0.18,0.07,0.18,0.07,0.11-.3,0.13,0.38Z" transform="translate(-201.39 -503.61)"/><path class="cls-11" d="M826.88,554.27l-0.3.18,0.11,0.36-0.31-.26-0.3.15,0.11-.34-0.28-.29,0.18,0,0.18,0,0.11-.31,0.13,0.36Z" transform="translate(-201.39 -503.61)"/><path class="cls-11" d="M825.85,554.92l-0.3.16,0.11,0.37-0.31-.28-0.3.13c0-.13.07-0.22,0.11-0.33l-0.28-.31,0.18,0.05,0.18,0.05,0.11-.3,0.13,0.37Z" transform="translate(-201.39 -503.61)"/><path class="cls-11" d="M824.82,555.53l-0.3.14,0.11,0.38-0.31-.3-0.3.11,0.11-.32-0.28-.33,0.18,0.07,0.18,0.07,0.11-.3,0.13,0.38Z" transform="translate(-201.39 -503.61)"/><path class="cls-11" d="M826.88,556l-0.3.18,0.11,0.36-0.31-.26-0.3.15c0-.13.07-0.22,0.11-0.34l-0.28-.29,0.18,0,0.18,0,0.11-.31,0.13,0.36Z" transform="translate(-201.39 -503.61)"/><path class="cls-11" d="M829.94,555.35l-0.3.23,0.11,0.35-0.31-.2-0.3.2c0-.14.07-0.24,0.1-0.36l-0.28-.24h0.36l0.11-.33,0.13,0.34h0.38Z" transform="translate(-201.39 -503.61)"/><path class="cls-11" d="M828.91,556.21l-0.3.22,0.11,0.35-0.31-.22-0.3.19,0.11-.35-0.28-.25h0.17l0.19,0,0.11-.33,0.13,0.34Z" transform="translate(-201.39 -503.61)"/><path class="cls-11" d="M831,556.2l-0.3.25,0.11,0.34-0.31-.19-0.3.22c0-.14.07-0.24,0.11-0.36l-0.28-.22h0.36l0.11-.34,0.13,0.33Z" transform="translate(-201.39 -503.61)"/><path class="cls-11" d="M834.07,555l-0.3.28,0.11,0.33-0.31-.16-0.3.25,0.11-.37-0.28-.19,0.18,0,0.18,0,0.11-.35L833.7,555Z" transform="translate(-201.39 -503.61)"/><path class="cls-11" d="M833,556l-0.3.27,0.11,0.33-0.31-.16-0.3.24c0-.15.07-0.25,0.1-0.37l-0.28-.2,0.18,0,0.18,0,0.11-.35,0.13,0.32Z" transform="translate(-201.39 -503.61)"/><path class="cls-11" d="M835.1,555.66l-0.3.28,0.11,0.33-0.31-.15-0.3.26c0-.15.08-0.25,0.11-0.38l-0.28-.18,0.18,0,0.18,0,0.12-.36,0.13,0.31Z" transform="translate(-201.39 -503.61)"/><path class="cls-11" d="M834.07,553.22l-0.3.28,0.11,0.33-0.31-.16-0.3.25,0.11-.37-0.28-.19,0.18,0,0.18,0,0.11-.35,0.13,0.32Z" transform="translate(-201.39 -503.61)"/><path class="cls-11" d="M833,554.25l-0.3.27,0.11,0.33-0.31-.16-0.3.24c0-.15.07-0.25,0.1-0.37l-0.28-.2,0.18,0,0.18,0,0.11-.35,0.13,0.32Z" transform="translate(-201.39 -503.61)"/><path class="cls-11" d="M835.1,553.93l-0.3.29,0.11,0.32-0.31-.15-0.3.26c0-.15.08-0.25,0.11-0.38l-0.28-.18,0.18,0,0.18,0,0.12-.35,0.13,0.31Z" transform="translate(-201.39 -503.61)"/><path class="cls-11" d="M834.07,549.72l-0.3.28,0.11,0.33-0.31-.16-0.3.25,0.11-.37-0.28-.19,0.18,0,0.18,0,0.11-.35,0.13,0.32Z" transform="translate(-201.39 -503.61)"/><path class="cls-11" d="M833,550.75l-0.3.27,0.11,0.33-0.31-.16-0.3.24c0-.15.07-0.25,0.1-0.37l-0.28-.2,0.18,0,0.18,0,0.11-.35,0.13,0.32Z" transform="translate(-201.39 -503.61)"/><path class="cls-11" d="M835.1,550.43l-0.3.29,0.11,0.32-0.31-.15-0.3.26c0-.15.08-0.25,0.11-0.38l-0.28-.18,0.18,0,0.18,0,0.12-.35,0.13,0.31Z" transform="translate(-201.39 -503.61)"/><path class="cls-11" d="M828.92,552.7l-0.3.22,0.11,0.35-0.31-.22-0.3.19,0.11-.35-0.28-.25,0.18,0h0.18l0.11-.33,0.13,0.34Z" transform="translate(-201.39 -503.61)"/><path class="cls-11" d="M827.9,551.78l-0.3.2,0.11,0.36-0.31-.24-0.3.17c0-.14.07-0.23,0.11-0.34l-0.28-.27,0.18,0,0.18,0,0.11-.32,0.13,0.35Z" transform="translate(-201.39 -503.61)"/><path class="cls-11" d="M835.09,552.18l-0.3.29,0.11,0.32-0.31-.15-0.3.26c0-.15.08-0.25,0.11-0.38l-0.28-.18,0.18,0,0.18,0,0.11-.35,0.13,0.31Z" transform="translate(-201.39 -503.61)"/><path class="cls-11" d="M834.07,551.5l-0.3.28,0.11,0.33-0.31-.15-0.3.25,0.11-.37-0.28-.19,0.18,0,0.18,0,0.11-.35,0.13,0.32Z" transform="translate(-201.39 -503.61)"/><path class="cls-11" d="M832,553.48l-0.3.26,0.11,0.33-0.31-.17-0.3.23c0-.14.07-0.24,0.11-0.36l-0.28-.21h0.36l0.11-.34,0.13,0.32Z" transform="translate(-201.39 -503.61)"/><path class="cls-11" d="M832,555.25l-0.3.26,0.11,0.34-0.31-.18-0.3.23,0.11-.37-0.28-.21h0.36l0.11-.34,0.13,0.32Z" transform="translate(-201.39 -503.61)"/><path class="cls-11" d="M827.9,553.5l-0.3.2,0.11,0.36-0.31-.24-0.3.17c0-.13.07-0.23,0.11-0.34l-0.28-.27,0.18,0,0.18,0,0.11-.32,0.13,0.35Z" transform="translate(-201.39 -503.61)"/><path class="cls-11" d="M827.88,555.27l-0.3.2,0.11,0.36-0.31-.24-0.3.17c0-.14.07-0.23,0.11-0.34l-0.28-.27,0.17,0,0.19,0,0.11-.32,0.13,0.35Z" transform="translate(-201.39 -503.61)"/><path class="cls-11" d="M828.93,551l-0.3.22,0.11,0.35-0.31-.22-0.3.19c0-.14.07-0.23,0.11-0.35l-0.28-.25h0.36l0.11-.33,0.13,0.34Z" transform="translate(-201.39 -503.61)"/><path class="cls-11" d="M833.05,549l-0.3.27,0.11,0.33-0.31-.16-0.3.25c0-.15.07-0.25,0.11-0.37l-0.28-.2,0.18,0,0.19,0,0.11-.35,0.13,0.32Z" transform="translate(-201.39 -503.61)"/><path class="cls-11" d="M835.11,548.66l-0.3.29,0.11,0.33-0.31-.15-0.3.26c0-.15.07-0.25,0.11-0.38l-0.28-.18,0.18,0,0.18,0c0-.12.07-0.21,0.11-0.36l0.13,0.31Z" transform="translate(-201.39 -503.61)"/><rect class="cls-4" x="620.63" y="41.38" width="1.56" height="51.27"/><circle class="cls-4" cx="621.41" cy="40.91" r="2.34"/><rect class="cls-4" x="366.33" y="133.59" width="510.88" height="5.13"/><polygon class="cls-4" points="621.6 94.9 724.95 146.9 518.25 146.9 621.6 94.9"/><rect class="cls-4" x="524.65" y="146.5" width="193.91" height="27.2"/><rect class="cls-5" x="524.65" y="160.45" width="193.91" height="2.88"/><polygon class="cls-5" points="623.3 95.38 517.5 147.84 515.74 143.29 621.55 90.83 623.3 95.38"/><polygon class="cls-5" points="619.79 95.38 725.6 147.84 727.35 143.29 621.55 90.83 619.79 95.38"/><rect class="cls-5" x="515.74" y="143.29" width="211.6" height="4.55"/><rect class="cls-2" x="379.23" y="174.24" width="5.1" height="8.54"/><rect class="cls-2" x="385.44" y="174.24" width="5.1" height="8.54"/><rect class="cls-2" x="391.59" y="174.24" width="5.1" height="8.54"/><rect class="cls-2" x="379.15" y="183.67" width="5.1" height="8.54"/><rect class="cls-2" x="385.36" y="183.67" width="5.1" height="8.54"/><rect class="cls-2" x="391.59" y="183.67" width="5.1" height="8.54"/><rect class="cls-2" x="379.15" y="193.12" width="5.1" height="8.54"/><rect class="cls-2" x="385.36" y="193.12" width="5.1" height="8.54"/><rect class="cls-2" x="391.59" y="193.12" width="5.1" height="8.54"/><rect class="cls-2" x="379.23" y="202.55" width="5.1" height="8.54"/><rect class="cls-2" x="385.44" y="202.55" width="5.1" height="8.54"/><rect class="cls-2" x="391.59" y="202.55" width="5.1" height="8.54"/><rect class="cls-2" x="421.54" y="173.79" width="5.1" height="8.54"/><rect class="cls-2" x="427.75" y="173.79" width="5.1" height="8.54"/><rect class="cls-2" x="433.91" y="173.79" width="5.1" height="8.54"/><rect class="cls-2" x="421.46" y="183.22" width="5.1" height="8.54"/><rect class="cls-2" x="427.67" y="183.22" width="5.1" height="8.54"/><rect class="cls-2" x="433.91" y="183.22" width="5.1" height="8.54"/><rect class="cls-2" x="421.46" y="192.67" width="5.1" height="8.54"/><rect class="cls-2" x="427.67" y="192.67" width="5.1" height="8.54"/><rect class="cls-2" x="433.91" y="192.67" width="5.1" height="8.54"/><rect class="cls-2" x="421.54" y="202.09" width="5.1" height="8.54"/><rect class="cls-2" x="427.75" y="202.09" width="5.1" height="8.54"/><rect class="cls-2" x="433.91" y="202.09" width="5.1" height="8.54"/><rect class="cls-2" x="462.52" y="174.24" width="5.1" height="8.54"/><rect class="cls-2" x="468.73" y="174.24" width="5.1" height="8.54"/><rect class="cls-2" x="474.89" y="174.24" width="5.1" height="8.54"/><rect class="cls-2" x="462.44" y="183.68" width="5.1" height="8.54"/><rect class="cls-2" x="468.65" y="183.68" width="5.1" height="8.54"/><rect class="cls-2" x="474.89" y="183.68" width="5.1" height="8.54"/><rect class="cls-2" x="462.44" y="193.12" width="5.1" height="8.54"/><rect class="cls-2" x="468.65" y="193.12" width="5.1" height="8.54"/><rect class="cls-2" x="474.89" y="193.12" width="5.1" height="8.54"/><rect class="cls-2" x="462.52" y="202.55" width="5.1" height="8.54"/><rect class="cls-2" x="468.73" y="202.55" width="5.1" height="8.54"/><rect class="cls-2" x="474.89" y="202.55" width="5.1" height="8.54"/><rect class="cls-2" x="502.57" y="174.8" width="5.1" height="8.54"/><rect class="cls-2" x="508.79" y="174.8" width="5.1" height="8.54"/><rect class="cls-2" x="514.94" y="174.8" width="5.1" height="8.54"/><rect class="cls-2" x="502.5" y="184.24" width="5.1" height="8.54"/><rect class="cls-2" x="508.71" y="184.24" width="5.1" height="8.54"/><rect class="cls-2" x="514.94" y="184.24" width="5.1" height="8.54"/><rect class="cls-2" x="502.49" y="193.68" width="5.1" height="8.54"/><rect class="cls-2" x="508.71" y="193.68" width="5.1" height="8.54"/><rect class="cls-2" x="514.94" y="193.68" width="5.1" height="8.54"/><rect class="cls-2" x="502.57" y="203.11" width="5.1" height="8.54"/><rect class="cls-2" x="508.79" y="203.11" width="5.1" height="8.54"/><rect class="cls-2" x="514.94" y="203.11" width="5.1" height="8.54"/><rect class="cls-2" x="380.47" y="240.12" width="5.1" height="8.54"/><rect class="cls-2" x="386.68" y="240.12" width="5.1" height="8.54"/><rect class="cls-2" x="392.84" y="240.12" width="5.1" height="8.54"/><rect class="cls-2" x="380.39" y="249.55" width="5.1" height="8.54"/><rect class="cls-2" x="386.6" y="249.55" width="5.1" height="8.54"/><rect class="cls-2" x="392.84" y="249.55" width="5.1" height="8.54"/><rect class="cls-2" x="380.39" y="259" width="5.1" height="8.54"/><rect class="cls-2" x="386.6" y="259" width="5.1" height="8.54"/><rect class="cls-2" x="392.84" y="259" width="5.1" height="8.54"/><rect class="cls-2" x="380.47" y="268.43" width="5.1" height="8.54"/><rect class="cls-2" x="386.68" y="268.43" width="5.1" height="8.54"/><rect class="cls-2" x="392.84" y="268.43" width="5.1" height="8.54"/><rect class="cls-2" x="422.78" y="239.67" width="5.1" height="8.54"/><rect class="cls-2" x="428.99" y="239.67" width="5.1" height="8.54"/><rect class="cls-2" x="435.15" y="239.67" width="5.1" height="8.54"/><rect class="cls-2" x="422.7" y="249.1" width="5.1" height="8.54"/><rect class="cls-2" x="428.91" y="249.1" width="5.1" height="8.54"/><rect class="cls-2" x="435.15" y="249.1" width="5.1" height="8.54"/><rect class="cls-2" x="422.7" y="258.55" width="5.1" height="8.54"/><rect class="cls-2" x="428.91" y="258.55" width="5.1" height="8.54"/><rect class="cls-2" x="435.15" y="258.55" width="5.1" height="8.54"/><rect class="cls-2" x="422.78" y="267.98" width="5.1" height="8.54"/><rect class="cls-2" x="428.99" y="267.98" width="5.1" height="8.54"/><rect class="cls-2" x="435.15" y="267.98" width="5.1" height="8.54"/><rect class="cls-2" x="463.76" y="240.13" width="5.1" height="8.54"/><rect class="cls-2" x="469.97" y="240.13" width="5.1" height="8.54"/><rect class="cls-2" x="476.13" y="240.13" width="5.1" height="8.54"/><rect class="cls-2" x="463.69" y="249.56" width="5.1" height="8.54"/><rect class="cls-2" x="469.9" y="249.56" width="5.1" height="8.54"/><rect class="cls-2" x="476.13" y="249.56" width="5.1" height="8.54"/><rect class="cls-2" x="463.68" y="259" width="5.1" height="8.54"/><rect class="cls-2" x="469.89" y="259" width="5.1" height="8.54"/><rect class="cls-2" x="476.13" y="259" width="5.1" height="8.54"/><rect class="cls-2" x="463.76" y="268.43" width="5.1" height="8.54"/><rect class="cls-2" x="469.97" y="268.43" width="5.1" height="8.54"/><rect class="cls-2" x="476.13" y="268.43" width="5.1" height="8.54"/><rect class="cls-2" x="503.82" y="239.22" width="5.1" height="8.54"/><rect class="cls-2" x="510.03" y="239.22" width="5.1" height="8.54"/><rect class="cls-2" x="516.19" y="239.22" width="5.1" height="8.54"/><rect class="cls-2" x="503.74" y="248.65" width="5.1" height="8.54"/><rect class="cls-2" x="509.95" y="248.65" width="5.1" height="8.54"/><rect class="cls-2" x="516.19" y="248.65" width="5.1" height="8.54"/><rect class="cls-2" x="503.74" y="258.1" width="5.1" height="8.54"/><rect class="cls-2" x="509.95" y="258.1" width="5.1" height="8.54"/><rect class="cls-2" x="516.19" y="258.1" width="5.1" height="8.54"/><rect class="cls-2" x="503.82" y="267.52" width="5.1" height="8.54"/><rect class="cls-2" x="510.03" y="267.52" width="5.1" height="8.54"/><rect class="cls-2" x="516.19" y="267.52" width="5.1" height="8.54"/><rect class="cls-2" x="860.03" y="175.57" width="5.1" height="8.54"/><rect class="cls-2" x="853.82" y="175.57" width="5.1" height="8.54"/><rect class="cls-2" x="847.66" y="175.57" width="5.1" height="8.54"/><rect class="cls-2" x="860.11" y="185.01" width="5.1" height="8.54"/><rect class="cls-2" x="853.9" y="185.01" width="5.1" height="8.54"/><rect class="cls-2" x="847.66" y="185.01" width="5.1" height="8.54"/><rect class="cls-2" x="860.11" y="194.45" width="5.1" height="8.54"/><rect class="cls-2" x="853.9" y="194.45" width="5.1" height="8.54"/><rect class="cls-2" x="847.66" y="194.45" width="5.1" height="8.54"/><rect class="cls-2" x="860.03" y="203.88" width="5.1" height="8.54"/><rect class="cls-2" x="853.82" y="203.88" width="5.1" height="8.54"/><rect class="cls-2" x="847.66" y="203.88" width="5.1" height="8.54"/><rect class="cls-2" x="817.72" y="175.12" width="5.1" height="8.54"/><rect class="cls-2" x="811.51" y="175.12" width="5.1" height="8.54"/><rect class="cls-2" x="805.35" y="175.12" width="5.1" height="8.54"/><rect class="cls-2" x="817.8" y="184.56" width="5.1" height="8.54"/><rect class="cls-2" x="811.59" y="184.56" width="5.1" height="8.54"/><rect class="cls-2" x="805.35" y="184.56" width="5.1" height="8.54"/><rect class="cls-2" x="817.8" y="194" width="5.1" height="8.54"/><rect class="cls-2" x="811.59" y="194" width="5.1" height="8.54"/><rect class="cls-2" x="805.35" y="194" width="5.1" height="8.54"/><rect class="cls-2" x="817.72" y="203.43" width="5.1" height="8.54"/><rect class="cls-2" x="811.51" y="203.43" width="5.1" height="8.54"/><rect class="cls-2" x="805.35" y="203.43" width="5.1" height="8.54"/><rect class="cls-2" x="776.73" y="175.58" width="5.1" height="8.54"/><rect class="cls-2" x="770.52" y="175.58" width="5.1" height="8.54"/><rect class="cls-2" x="764.36" y="175.58" width="5.1" height="8.54"/><rect class="cls-2" x="776.81" y="185.01" width="5.1" height="8.54"/><rect class="cls-2" x="770.6" y="185.01" width="5.1" height="8.54"/><rect class="cls-2" x="764.36" y="185.01" width="5.1" height="8.54"/><rect class="cls-2" x="776.81" y="194.46" width="5.1" height="8.54"/><rect class="cls-2" x="770.6" y="194.46" width="5.1" height="8.54"/><rect class="cls-2" x="764.36" y="194.46" width="5.1" height="8.54"/><rect class="cls-2" x="776.73" y="203.89" width="5.1" height="8.54"/><rect class="cls-2" x="770.52" y="203.89" width="5.1" height="8.54"/><rect class="cls-2" x="764.36" y="203.89" width="5.1" height="8.54"/><rect class="cls-2" x="736.68" y="174.67" width="5.1" height="8.54"/><rect class="cls-2" x="730.47" y="174.67" width="5.1" height="8.54"/><rect class="cls-2" x="724.31" y="174.67" width="5.1" height="8.54"/><rect class="cls-2" x="736.76" y="184.11" width="5.1" height="8.54"/><rect class="cls-2" x="730.55" y="184.11" width="5.1" height="8.54"/><rect class="cls-2" x="724.31" y="184.11" width="5.1" height="8.54"/><rect class="cls-2" x="736.76" y="193.55" width="5.1" height="8.54"/><rect class="cls-2" x="730.55" y="193.55" width="5.1" height="8.54"/><rect class="cls-2" x="724.31" y="193.55" width="5.1" height="8.54"/><rect class="cls-2" x="736.68" y="202.98" width="5.1" height="8.54"/><rect class="cls-2" x="730.47" y="202.98" width="5.1" height="8.54"/><rect class="cls-2" x="724.31" y="202.98" width="5.1" height="8.54"/><rect class="cls-2" x="858.78" y="239.99" width="5.1" height="8.54"/><rect class="cls-2" x="852.57" y="239.99" width="5.1" height="8.54"/><rect class="cls-2" x="846.41" y="239.99" width="5.1" height="8.54"/><rect class="cls-2" x="858.86" y="249.42" width="5.1" height="8.54"/><rect class="cls-2" x="852.65" y="249.42" width="5.1" height="8.54"/><rect class="cls-2" x="846.41" y="249.42" width="5.1" height="8.54"/><rect class="cls-2" x="858.86" y="258.87" width="5.1" height="8.54"/><rect class="cls-2" x="852.65" y="258.87" width="5.1" height="8.54"/><rect class="cls-2" x="846.41" y="258.87" width="5.1" height="8.54"/><rect class="cls-2" x="858.78" y="268.3" width="5.1" height="8.54"/><rect class="cls-2" x="852.57" y="268.3" width="5.1" height="8.54"/><rect class="cls-2" x="846.41" y="268.3" width="5.1" height="8.54"/><rect class="cls-2" x="816.47" y="239.54" width="5.1" height="8.54"/><rect class="cls-2" x="810.26" y="239.54" width="5.1" height="8.54"/><rect class="cls-2" x="804.1" y="239.54" width="5.1" height="8.54"/><rect class="cls-2" x="816.55" y="248.97" width="5.1" height="8.54"/><rect class="cls-2" x="810.34" y="248.97" width="5.1" height="8.54"/><rect class="cls-2" x="804.1" y="248.97" width="5.1" height="8.54"/><rect class="cls-2" x="816.55" y="258.42" width="5.1" height="8.54"/><rect class="cls-2" x="810.34" y="258.42" width="5.1" height="8.54"/><rect class="cls-2" x="804.1" y="258.42" width="5.1" height="8.54"/><rect class="cls-2" x="816.47" y="267.84" width="5.1" height="8.54"/><rect class="cls-2" x="810.26" y="267.84" width="5.1" height="8.54"/><rect class="cls-2" x="804.1" y="267.84" width="5.1" height="8.54"/><rect class="cls-2" x="775.49" y="240" width="5.1" height="8.54"/><rect class="cls-2" x="769.28" y="240" width="5.1" height="8.54"/><rect class="cls-2" x="763.12" y="240" width="5.1" height="8.54"/><rect class="cls-2" x="775.57" y="249.43" width="5.1" height="8.54"/><rect class="cls-2" x="769.36" y="249.43" width="5.1" height="8.54"/><rect class="cls-2" x="763.12" y="249.43" width="5.1" height="8.54"/><rect class="cls-2" x="775.57" y="258.87" width="5.1" height="8.54"/><rect class="cls-2" x="769.36" y="258.87" width="5.1" height="8.54"/><rect class="cls-2" x="763.12" y="258.87" width="5.1" height="8.54"/><rect class="cls-2" x="775.49" y="268.3" width="5.1" height="8.54"/><rect class="cls-2" x="769.28" y="268.3" width="5.1" height="8.54"/><rect class="cls-2" x="763.12" y="268.3" width="5.1" height="8.54"/><rect class="cls-2" x="735.43" y="239.09" width="5.1" height="8.54"/><rect class="cls-2" x="729.22" y="239.09" width="5.1" height="8.54"/><rect class="cls-2" x="723.06" y="239.09" width="5.1" height="8.54"/><rect class="cls-2" x="735.51" y="248.52" width="5.1" height="8.54"/><rect class="cls-2" x="729.3" y="248.52" width="5.1" height="8.54"/><rect class="cls-2" x="723.06" y="248.52" width="5.1" height="8.54"/><rect class="cls-2" x="735.51" y="257.97" width="5.1" height="8.54"/><rect class="cls-2" x="729.3" y="257.97" width="5.1" height="8.54"/><rect class="cls-2" x="723.06" y="257.97" width="5.1" height="8.54"/><rect class="cls-2" x="735.43" y="267.39" width="5.1" height="8.54"/><rect class="cls-2" x="729.22" y="267.39" width="5.1" height="8.54"/><rect class="cls-2" x="723.06" y="267.39" width="5.1" height="8.54"/><polygon class="cls-4" points="829.02 236.69 796.76 236.57 813.42 227.61 829.02 236.69"/><path class="cls-4" d="M1056.6,731.22c-7.45,0-13.42,5.33-13.42,9.08h27C1070.15,736.55,1064,731.22,1056.6,731.22Z" transform="translate(-201.39 -503.61)"/><polygon class="cls-4" points="747.9 236.69 715.64 236.57 732.3 227.61 747.9 236.69"/><path class="cls-4" d="M973.23,731.22c-7.45,0-13.42,5.33-13.42,9.08h27C986.79,736.55,980.69,731.22,973.23,731.22Z" transform="translate(-201.39 -503.61)"/><polygon class="cls-4" points="414.8 236.69 447.05 236.57 430.4 227.61 414.8 236.69"/><path class="cls-4" d="M590,731.22c7.45,0,13.42,5.33,13.42,9.08h-27C576.45,736.55,582.56,731.22,590,731.22Z" transform="translate(-201.39 -503.61)"/><polygon class="cls-4" points="495.92 236.69 528.17 236.57 511.52 227.61 495.92 236.69"/><path class="cls-4" d="M673.37,731.22c7.45,0,13.42,5.33,13.42,9.08h-27C659.81,736.55,665.92,731.22,673.37,731.22Z" transform="translate(-201.39 -503.61)"/><path class="cls-4" d="M764.1,731.78c-7.45,0-13.42,5.33-13.42,9.08h27C777.66,737.12,771.56,731.78,764.1,731.78Z" transform="translate(-201.39 -503.61)"/><path class="cls-4" d="M884.07,733.25c-7.45,0-13.42,5.33-13.42,9.08h27C897.62,738.59,891.52,733.25,884.07,733.25Z" transform="translate(-201.39 -503.61)"/></g></svg>