<svg id="Layer_1" data-name="Layer 1" xmlns="http://www.w3.org/2000/svg" viewBox="0 0 638.26 442.67"><defs><style>.cls-1{fill:#8fa0ad;}.cls-2{fill:#877087;}.cls-3{fill:#f8c5b3;}.cls-4{fill:#e8b3a3;}.cls-5{fill:#826b82;}.cls-6{fill:#acc7bb;}.cls-7{fill:#9eb7aa;}.cls-16,.cls-17,.cls-19,.cls-8{fill:#4d555c;}.cls-9{fill:#917890;}.cls-10{fill:#6a8d82;}.cls-11{fill:#c97bb1;}.cls-12{fill:#6d586d;}.cls-13{fill:#d89e8d;}.cls-14{fill:#67747f;}.cls-15{fill:#96a1a9;}.cls-16{font-size:16.37px;}.cls-16,.cls-17,.cls-19{font-family:Lintel;}.cls-17{font-size:14.87px;}.cls-18{letter-spacing:-1px;}.cls-19{font-size:12px;}.cls-20{white-space:pre;}</style></defs><title>ART3</title><path class="cls-1" d="M602.91,221.89c-1,8.1-6.95,13.8-6.95,17.63a7,7,0,1,0,13.9,0c0-3.83-5.94-9.53-7-17.63h0Zm3.43,21.92a9.06,9.06,0,0,0,.52-8.81c0.83,1.43,3.92,5.83-.52,8.81h0Zm0,0" transform="translate(-309.72 -171.31)"/><path class="cls-2" d="M388.91,267.61c3.41,1.14,4.17-.38,4.17-0.38a23.74,23.74,0,0,0,13.07,5.12c8,0.57,40.35-10.23,40.35-10.23l-2.27-19.32,19.32,0.57s-2.27,14.21-1.7,19.89a60.92,60.92,0,0,0,1.7,9.66l-48.31,14.78,2.27,6.82-22.17,7.39-2.84-22.73Z" transform="translate(-309.72 -171.31)"/><path class="cls-1" d="M382.47,538.14s-4.55,1.89-4.93,4.55,5.3,22.73,5.3,22.73l2.27,0.76s-5.31-14.4-2.27-12.88,9.09,9.85,13.26,12.12,18.19,6.07,18.57,4.17a2.38,2.38,0,0,0-1.14-2.65,144.29,144.29,0,0,1-12.12-11c-4.17-4.55-8.71-14-8.71-14Z" transform="translate(-309.72 -171.31)"/><path class="cls-1" d="M327.15,518.82s-6.06-.76-7.58,1.14-9.85,14-9.85,14l1.52,1.9s2.27-4.17,4.93-5.68,4.17-3.79,4.17-.76-3.41,14.4-3.41,17.43,3.79,13.26,8,16.29l1.52-1.14s-2.65-5.3-1.52-9.09a31,31,0,0,1,4.55-8.71c1.52-2.27,3.79-12.88,3.79-12.88Z" transform="translate(-309.72 -171.31)"/><path class="cls-3" d="M402.17,447.39s0,8,.57,10.8a98.58,98.58,0,0,1,.57,31.26c-2.27,14.78-6.25,28.42-6.25,34.67s-1.71,11.56-1.71,17.81,2.84,8.9,5.12,11.75,5.11,7.39,5.11,7.39-7.39-2.27-11.94-5.12-5.12-4.55-7.39-8a28.84,28.84,0,0,0-6.25-6.25s3.41-2.27,4.55-8-2.27-42.06-2.27-42.06-2.27-14.21-1.14-23.87S382.28,444,382.28,444,398.76,442.85,402.17,447.39Z" transform="translate(-309.72 -171.31)"/><path class="cls-4" d="M382.75,497c6.84-8.1,14.06-15.88,21.52-23.46a95.65,95.65,0,0,0-1.53-15.35c-0.57-2.84-.57-10.8-0.57-10.8-3.41-4.55-19.89-3.41-19.89-3.41s0,14.21-1.14,23.87,1.14,23.87,1.14,23.87S382.47,493.8,382.75,497Z" transform="translate(-309.72 -171.31)"/><path class="cls-3" d="M395.35,447.39s0.57,20.46-2.84,25.58-6.25,5.68-6.25,5.68-11.37,9.66-17.62,14.78l-34.1,27.85s0,8-1.71,13.07a50.37,50.37,0,0,1-5.11,10.23,11.75,11.75,0,0,1-2.84-6.25c-0.57-4-1.14-18.19-1.14-18.19a22.48,22.48,0,0,0,6.82-3.41c2.84-2.27,5.12-5.12,8-10.8s11.94-25.58,20.46-32.4S374.89,461,374.89,461l-1.14-11.94S386.83,441.71,395.35,447.39Z" transform="translate(-309.72 -171.31)"/><path class="cls-5" d="M410.7,374.64a172.56,172.56,0,0,1,0,31.83c-1.71,15.35-6.82,46.6-6.82,46.6s-6.25-7.39-15.35-5.68a42.51,42.51,0,0,0-15.91,6.82s-5.12-21-8-27.28-14.21-35.81-4.55-50L390.24,361l9.09-14.21,11.37,20.46v7.39Z" transform="translate(-309.72 -171.31)"/><path class="cls-6" d="M340.79,180l177.33,10.8S521,201,520.39,218.92s-2.56,27.28-2.56,27.28l-183.58,1.14s-8.52-3.41-8-34.67C326.84,182.51,340.79,180,340.79,180Z" transform="translate(-309.72 -171.31)"/><path class="cls-7" d="M456.47,220.38Q392,226.76,327.54,232.69c2.25,12.84,6.72,14.64,6.72,14.64l183.58-1.14s2-9.38,2.56-27.28c0.05-1.7.07-3.3,0.07-4.86Q488.46,217.2,456.47,220.38Z" transform="translate(-309.72 -171.31)"/><path class="cls-8" d="M366.93,208.69s25,12.52,25,37.51C392,285,347,289,347,289s12.54-46.78,10.27-54.74S348.75,204.14,366.93,208.69Z" transform="translate(-309.72 -171.31)"/><path class="cls-4" d="M361.82,259.84l4,11.94s9.66,18.19,15.91,19.89,12.5,5.12,14.21,1.14,2.27-9.66,1.7-11.37-4-5.68-4-5.68l-3.79-5.87-8.72-11.18s-4-1.71-5.68-1.71-13.07-2.27-13.07-2.27Z" transform="translate(-309.72 -171.31)"/><path class="cls-9" d="M366.36,290.53S359,301.9,363,309.85,376,332.59,375.46,344a38.94,38.94,0,0,1-5.68,18.76s-11.37,13.64-12.5,18.76c0,0,4.55-5.12,15.35-2.84s15.91,2.84,15.91,2.84a129.94,129.94,0,0,0,7.39-14.21c2.27-5.68,2.27-17.62,2.27-17.62s4.55,19.89,5.68,25l1.14,5.12,11.94-3.41s-10.8-32.4-8.52-38.65,8-27.28,8-29.55-18.19-17.62-18.19-17.62L401,264.38s-18.76-1.14-17.05.57,13.07,22.73,9.66,25.58S384,288.25,382.28,286s-16.48-15.91-16.48-14.21-4.55,17.62-4.55,17.62Z" transform="translate(-309.72 -171.31)"/><path class="cls-2" d="M370,313.12s-3-11.9,2.68-13.67,55.09-4,55.09-4l-10-24.89a46.83,46.83,0,0,1,11.36-.7c5.12,0.51,8,1,8,1s9.53,37.4,7.27,39.13-63,5.27-63,5.27S371.17,314.81,370,313.12Z" transform="translate(-309.72 -171.31)"/><path class="cls-9" d="M368.88,308.57s-3-11.9,2.68-13.67,55.09-4,55.09-4L416.7,266a46.86,46.86,0,0,1,11.36-.7c5.12,0.51,8,1,8,1s9.53,37.4,7.27,39.13-63,5.28-63,5.28S370,310.27,368.88,308.57Z" transform="translate(-309.72 -171.31)"/><path class="cls-3" d="M372,213.23s8,8.53,9.66,13.64,2.84,9.66,2.84,9.66,3.41,9.09,3.41,13.07S386.83,265,384,265s-19.32-4-21.6-10.23S349.31,213.8,372,213.23Z" transform="translate(-309.72 -171.31)"/><path class="cls-8" d="M374.32,211s-12.5,6.82-12.5,19.32S372,270.07,359,282.57s-31.83,1.7-31.83,1.7-1.7-54.56,11.94-70.48S366.93,206.41,374.32,211Z" transform="translate(-309.72 -171.31)"/><path class="cls-3" d="M416.7,266L413,251.88l-11.37-3.41-7.39-22.17a3.28,3.28,0,0,1,3,1.89c1.14,2.08,3.22,7.58,3.22,7.58l4.92,4-4-6.82-3.79-9.85a6.22,6.22,0,0,1,2.84,1.9c1.33,1.51,3.6,7,4,7.58s4.55,4.36,4.55,4.36l-3.6-6.63-1.7-6.63s0.95-.57,2.46,2.27,3.41,7,3.41,7l4.55,4s7.39,0.19,8.72,2.84,1.14,11,1.14,11l6.63,15S417.2,265.26,416.7,266Z" transform="translate(-309.72 -171.31)"/><path class="cls-3" d="M446.9,189.12a2.41,2.41,0,0,1-3,1.7h0a2.41,2.41,0,0,1-1.7-3l2.45-9.05a2.41,2.41,0,0,1,3-1.7h0a2.41,2.41,0,0,1,1.7,3Z" transform="translate(-309.72 -171.31)"/><path class="cls-3" d="M452.16,188.84a2.42,2.42,0,0,1-3,1.7h0a2.41,2.41,0,0,1-1.7-3l2.45-9.05a2.41,2.41,0,0,1,3-1.7h0a2.42,2.42,0,0,1,1.7,3Z" transform="translate(-309.72 -171.31)"/><path class="cls-3" d="M457,190.82a2.42,2.42,0,0,1-3,1.7h0a2.41,2.41,0,0,1-1.7-3l2.45-9.05a2.42,2.42,0,0,1,3-1.7h0a2.42,2.42,0,0,1,1.7,3Z" transform="translate(-309.72 -171.31)"/><path class="cls-3" d="M462,190.38a2,2,0,0,1-2.54,1.22h0a2,2,0,0,1-1.58-2.33l1.87-6.89a2,2,0,0,1,2.54-1.22h0a2,2,0,0,1,1.58,2.34Z" transform="translate(-309.72 -171.31)"/><path class="cls-10" d="M516.13,189.65s2.27,14.49,2.27,25.58-1.7,31.54-1.7,31.54,8.52,1.42,11.08-1.14S536.59,226,549.09,224c12.74-2,55.13-.57,55.13-0.57l-7-5.12s-48.7-1.42-54.1-4.55S532,197.6,529.77,193.62,527.78,189.65,516.13,189.65Z" transform="translate(-309.72 -171.31)"/><path class="cls-11" d="M373.34,251.31a47.67,47.67,0,0,0,6.51-1.63c2-.82,4.48-4.07,4.48-4.07s-0.81,8.54-4.07,8.54S373.34,251.31,373.34,251.31Z" transform="translate(-309.72 -171.31)"/><path class="cls-12" d="M360.84,237s2.55-6.37,9.47-5.76l0-1.09A10.25,10.25,0,0,0,360.84,237Z" transform="translate(-309.72 -171.31)"/><path class="cls-12" d="M376.72,228.8s3.62-2.2,4.6-2a5.35,5.35,0,0,1,2.12,1.32,5.48,5.48,0,0,0-2.3-.34,19.46,19.46,0,0,0-3.84,1.57Z" transform="translate(-309.72 -171.31)"/><path class="cls-12" d="M363.81,241.41a24.07,24.07,0,0,1,5.07-2.32l4.15-1.25a13.06,13.06,0,0,0-5.07.58,23.25,23.25,0,0,0-4.4,3.16" transform="translate(-309.72 -171.31)"/><ellipse class="cls-12" cx="59.03" cy="68.31" rx="1.45" ry="1.37"/><path class="cls-12" d="M376.39,236a24.09,24.09,0,0,1,5.07-2.32l4.15-1.25a13.07,13.07,0,0,0-5.07.58,23.27,23.27,0,0,0-4.4,3.16" transform="translate(-309.72 -171.31)"/><ellipse class="cls-12" cx="71.61" cy="62.87" rx="1.45" ry="1.37"/><path class="cls-13" d="M376.22,233.39c-0.17.25-.08,4.23,1.08,5.56s3.32,3.41,3.32,3.41l-0.5,1.66,0.5,0.58,0.75-2.66s-3.74-3.24-4.24-4.4A24.46,24.46,0,0,1,376.22,233.39Z" transform="translate(-309.72 -171.31)"/><path class="cls-14" d="M779.34,262.64a70.22,70.22,0,1,1-70.22-70.22A70.22,70.22,0,0,1,779.34,262.64Zm-70.22-50.92A50.92,50.92,0,1,0,760,262.64,50.93,50.93,0,0,0,709.12,211.73Z" transform="translate(-309.72 -171.31)"/><path class="cls-14" d="M716.27,191c-0.08-1.23-1-16.44-1-16.44a3.11,3.11,0,0,0-2.31-2.91,23.15,23.15,0,0,0-7.66,0,3.11,3.11,0,0,0-2.31,2.91S702,189.74,702,191s-2.9,2.09-2.9,2.09c-0.17,1.93-.26,2.89-0.43,4.83a2.4,2.4,0,0,0,2.58,2.48H717a2.39,2.39,0,0,0,2.58-2.48c-0.17-1.94-.26-2.9-0.43-4.83C719.17,193.06,716.35,192.21,716.27,191Z" transform="translate(-309.72 -171.31)"/><path class="cls-14" d="M691.33,192.85l-6.57-15.1a3.12,3.12,0,0,0-3.17-2,23.07,23.07,0,0,0-7.19,2.62,3.1,3.1,0,0,0-1.18,3.53s4.32,14.61,4.68,15.79-2,3-2,3c0.5,1.87.75,2.81,1.25,4.68a2.39,2.39,0,0,0,3.27,1.45l7.43-2.7,7.42-2.7a2.39,2.39,0,0,0,1.58-3.21l-2.06-4.39S691.82,194,691.33,192.85Z" transform="translate(-309.72 -171.31)"/><path class="cls-14" d="M668.53,203.14l-11.34-11.94a3.13,3.13,0,0,0-3.65-.75,23.57,23.57,0,0,0-5.87,4.92,3.11,3.11,0,0,0,.11,3.72l9.78,13.24c0.73,1-.88,3.47-0.88,3.47,1.11,1.59,1.66,2.38,2.77,4A2.39,2.39,0,0,0,663,220l6.05-5.08,6.05-5.08a2.4,2.4,0,0,0,.38-3.57l-3.43-3.42S669.38,204,668.53,203.14Z" transform="translate(-309.72 -171.31)"/><path class="cls-14" d="M650.63,220.61l-14.74-7.33a3.1,3.1,0,0,0-3.68.54,23.39,23.39,0,0,0-3.84,6.64,3.12,3.12,0,0,0,1.38,3.46l13.73,9.1c1,0.68.35,3.56,0.35,3.56l4,2.78a2.39,2.39,0,0,0,3.44-1l4-6.84,4-6.84a2.4,2.4,0,0,0-.86-3.48l-4.39-2S651.74,221.17,650.63,220.61Z" transform="translate(-309.72 -171.31)"/><path class="cls-14" d="M639.78,243.16l-16.37-1.85a3.12,3.12,0,0,0-3.27,1.76,23.32,23.32,0,0,0-1.33,7.55,3.1,3.1,0,0,0,2.47,2.77l16,3.86c1.2,0.29,1.55,3.21,1.55,3.21l4.68,1.26a2.4,2.4,0,0,0,2.89-2.12c0.55-3.11.82-4.67,1.37-7.78s0.82-4.66,1.37-7.78a2.39,2.39,0,0,0-2-3l-4.82-.42S641,243.29,639.78,243.16Z" transform="translate(-309.72 -171.31)"/><path class="cls-14" d="M637.29,268l-16,3.85a3.12,3.12,0,0,0-2.47,2.78,23.36,23.36,0,0,0,1.33,7.55,3.12,3.12,0,0,0,3.27,1.77l16.37-1.85c1.23-.14,2.56,2.49,2.56,2.49l4.82-.42a2.38,2.38,0,0,0,2-3c-0.54-3.11-.82-4.67-1.36-7.78s-0.83-4.67-1.37-7.78a2.39,2.39,0,0,0-2.89-2.12l-4.68,1.26S638.49,267.75,637.29,268Z" transform="translate(-309.72 -171.31)"/><path class="cls-14" d="M643.47,292.29l-13.73,9.09a3.13,3.13,0,0,0-1.38,3.46,23.31,23.31,0,0,0,3.84,6.63,3.11,3.11,0,0,0,3.68.54l14.74-7.33c1.1-.55,3.26,1.47,3.26,1.47l4.39-2a2.39,2.39,0,0,0,.86-3.48l-4-6.84-3.95-6.84a2.4,2.4,0,0,0-3.44-1l-4,2.78S644.5,291.6,643.47,292.29Z" transform="translate(-309.72 -171.31)"/><path class="cls-14" d="M657.56,312.95l-9.78,13.24a3.13,3.13,0,0,0-.11,3.72,23.43,23.43,0,0,0,5.87,4.92,3.13,3.13,0,0,0,3.65-.75l11.34-11.94c0.85-.9,3.56.27,3.56,0.27l3.43-3.42a2.4,2.4,0,0,0-.39-3.57l-6-5.08L663,305.27a2.38,2.38,0,0,0-3.57.24l-2.77,4S658.3,312,657.56,312.95Z" transform="translate(-309.72 -171.31)"/><path class="cls-14" d="M677.88,327.54c-0.35,1.19-4.67,15.79-4.67,15.79a3.13,3.13,0,0,0,1.18,3.53,23.13,23.13,0,0,0,7.2,2.62,3.1,3.1,0,0,0,3.17-1.95s6.09-14,6.58-15.1,3.44-1,3.44-1c0.82-1.75,1.24-2.64,2.06-4.39a2.39,2.39,0,0,0-1.58-3.21l-7.42-2.71-7.42-2.7a2.39,2.39,0,0,0-3.28,1.45c-0.5,1.88-.75,2.81-1.25,4.68C675.87,324.59,678.23,326.36,677.88,327.54Z" transform="translate(-309.72 -171.31)"/><path class="cls-14" d="M702,334.31c0.07,1.24,1,16.44,1,16.44a3.12,3.12,0,0,0,2.31,2.91,23.2,23.2,0,0,0,7.66,0,3.1,3.1,0,0,0,2.31-2.91s0.94-15.21,1-16.44,2.9-2.08,2.9-2.08c0.17-1.93.26-2.9,0.43-4.83a2.4,2.4,0,0,0-2.58-2.49h-15.8a2.39,2.39,0,0,0-2.58,2.49c0.17,1.93.26,2.89,0.43,4.83C699.06,332.23,701.88,333.08,702,334.31Z" transform="translate(-309.72 -171.31)"/><path class="cls-14" d="M726.91,332.44l6.58,15.1a3.1,3.1,0,0,0,3.17,1.95,23.17,23.17,0,0,0,7.2-2.62,3.14,3.14,0,0,0,1.18-3.53s-4.32-14.6-4.67-15.79,2-2.95,2-2.95c-0.5-1.87-.75-2.81-1.25-4.68a2.38,2.38,0,0,0-3.27-1.44l-7.42,2.69-7.42,2.7a2.39,2.39,0,0,0-1.58,3.21c0.82,1.75,1.23,2.63,2,4.39C723.46,331.47,726.41,331.3,726.91,332.44Z" transform="translate(-309.72 -171.31)"/><path class="cls-14" d="M749.71,322.15L761,334.09a3.12,3.12,0,0,0,3.65.75,23.47,23.47,0,0,0,5.86-4.92,3.13,3.13,0,0,0-.11-3.72l-9.79-13.24c-0.73-1,.88-3.47.88-3.47l-2.78-4a2.38,2.38,0,0,0-3.57-.24l-6.05,5.08-6.05,5.08a2.4,2.4,0,0,0-.38,3.57l3.43,3.42S748.85,321.25,749.71,322.15Z" transform="translate(-309.72 -171.31)"/><path class="cls-14" d="M767.61,304.68L782.35,312a3.11,3.11,0,0,0,3.68-.54,23.37,23.37,0,0,0,3.83-6.63,3.11,3.11,0,0,0-1.38-3.46l-13.72-9.09c-1-.69-0.35-3.56-0.35-3.56l-4-2.78a2.39,2.39,0,0,0-3.44,1l-3.95,6.84-4,6.84a2.4,2.4,0,0,0,.85,3.48l4.4,2S766.5,304.13,767.61,304.68Z" transform="translate(-309.72 -171.31)"/><path class="cls-14" d="M778.46,282.14L794.82,284a3.11,3.11,0,0,0,3.27-1.77,23.27,23.27,0,0,0,1.33-7.55,3.11,3.11,0,0,0-2.47-2.78l-16-3.86c-1.2-.28-1.55-3.22-1.55-3.22l-4.68-1.26a2.39,2.39,0,0,0-2.89,2.12c-0.55,3.11-.82,4.67-1.38,7.78s-0.82,4.66-1.37,7.77a2.39,2.39,0,0,0,2,3l4.83,0.42S777.22,282,778.46,282.14Z" transform="translate(-309.72 -171.31)"/><path class="cls-14" d="M780.94,257.25l16-3.85a3.13,3.13,0,0,0,2.47-2.78,23.39,23.39,0,0,0-1.34-7.55,3.13,3.13,0,0,0-3.27-1.76l-16.36,1.86c-1.23.14-2.55-2.5-2.55-2.5l-4.83.41a2.39,2.39,0,0,0-2,3c0.54,3.12.82,4.67,1.37,7.78s0.83,4.67,1.37,7.78a2.39,2.39,0,0,0,2.89,2.11l4.68-1.26S779.74,257.53,780.94,257.25Z" transform="translate(-309.72 -171.31)"/><path class="cls-14" d="M774.76,233l13.72-9.1a3.12,3.12,0,0,0,1.38-3.46,23.52,23.52,0,0,0-3.83-6.63,3.11,3.11,0,0,0-3.68-.54l-14.75,7.34c-1.1.55-3.25-1.47-3.25-1.47l-4.4,2a2.39,2.39,0,0,0-.85,3.48c1.58,2.73,2.37,4.1,3.94,6.84l3.94,6.84a2.41,2.41,0,0,0,3.45,1l4-2.78S773.73,233.69,774.76,233Z" transform="translate(-309.72 -171.31)"/><path class="cls-14" d="M760.67,212.34l9.78-13.24a3.13,3.13,0,0,0,.11-3.72,23.47,23.47,0,0,0-5.87-4.92,3.12,3.12,0,0,0-3.65.75l-11.34,11.94c-0.85.9-3.57-.27-3.57-0.27l-3.43,3.42a2.39,2.39,0,0,0,.39,3.56l6,5.08,6,5.08a2.39,2.39,0,0,0,3.57-.24l2.78-4S759.93,213.34,760.67,212.34Z" transform="translate(-309.72 -171.31)"/><path class="cls-14" d="M740.36,197.74L745,182a3.11,3.11,0,0,0-1.18-3.53,23.15,23.15,0,0,0-7.19-2.62,3.11,3.11,0,0,0-3.17,2l-6.58,15.1c-0.49,1.13-3.43,1-3.43,1l-2.06,4.39a2.39,2.39,0,0,0,1.58,3.22l7.42,2.7,7.42,2.71a2.4,2.4,0,0,0,3.28-1.45l1.25-4.68S740,198.93,740.36,197.74Z" transform="translate(-309.72 -171.31)"/><path class="cls-15" d="M700.94,391.35a57.4,57.4,0,1,1-51.65-62.62A57.4,57.4,0,0,1,700.94,391.35Zm-53.16-46.92a41.63,41.63,0,1,0,37.46,45.41A41.63,41.63,0,0,0,647.78,344.43Z" transform="translate(-309.72 -171.31)"/><path class="cls-15" d="M655.23,328.1c0-1,.46-13.45.46-13.45A2.54,2.54,0,0,0,654,312.1a18.92,18.92,0,0,0-6.24-.6,2.53,2.53,0,0,0-2.1,2.19L643.58,327c-0.16,1-2.52,1.47-2.52,1.47-0.29,1.56-.44,2.34-0.72,3.89a2,2,0,0,0,1.91,2.23l6.42,0.62,6.43,0.62a2,2,0,0,0,2.3-1.82c0-1.59,0-2.38,0-4C657.42,330,655.19,329.11,655.23,328.1Z" transform="translate(-309.72 -171.31)"/><path class="cls-15" d="M634.78,327.68c-0.31-1-4.17-12.8-4.17-12.8a2.55,2.55,0,0,0-2.43-1.84,19,19,0,0,0-6.06,1.57,2.54,2.54,0,0,0-1.23,2.78s2.37,12.22,2.57,13.21-1.87,2.24-1.87,2.24c0.26,1.56.39,2.34,0.65,3.91a2,2,0,0,0,2.55,1.43l6.25-1.62,6.25-1.62a2,2,0,0,0,1.54-2.49c-0.53-1.49-.8-2.24-1.33-3.73C637.5,328.73,635.09,328.63,634.78,327.68Z" transform="translate(-309.72 -171.31)"/><path class="cls-15" d="M615.43,334.27l-8.29-10.6a2.56,2.56,0,0,0-2.91-.89,19.3,19.3,0,0,0-5.16,3.55,2.54,2.54,0,0,0-.2,3l6.92,11.54c0.52,0.87-1,2.75-1,2.75,0.78,1.38,1.17,2.07,2,3.45a2,2,0,0,0,2.88.48l5.32-3.66,5.33-3.66a2,2,0,0,0,.59-2.87l-2.53-3.05S616,335.07,615.43,334.27Z" transform="translate(-309.72 -171.31)"/><path class="cls-15" d="M599.49,347.08L588.07,340a2.53,2.53,0,0,0-3,.15,19.19,19.19,0,0,0-3.64,5.1,2.56,2.56,0,0,0,.85,2.92l10.46,8.47c0.79,0.64,0,2.92,0,2.92l3,2.58a2,2,0,0,0,2.87-.55l3.75-5.25,3.75-5.25a2,2,0,0,0-.43-2.9l-3.41-2S600.35,347.62,599.49,347.08Z" transform="translate(-309.72 -171.31)"/><path class="cls-15" d="M588.9,364.58l-13.17-2.79a2.55,2.55,0,0,0-2.8,1.18,19.06,19.06,0,0,0-1.67,6,2.54,2.54,0,0,0,1.79,2.45l12.73,4.39c1,0.33,1,2.74,1,2.74l3.71,1.4a2,2,0,0,0,2.52-1.5c0.69-2.49,1-3.73,1.73-6.22s1-3.73,1.72-6.22a2,2,0,0,0-1.4-2.57l-3.89-.72S589.89,364.79,588.9,364.58Z" transform="translate(-309.72 -171.31)"/><path class="cls-15" d="M584.94,384.64l-13.33,1.88a2.54,2.54,0,0,0-2.23,2.07,19,19,0,0,0,.49,6.25,2.55,2.55,0,0,0,2.52,1.69l13.46-.23c1,0,1.89,2.23,1.89,2.23l4,0a2,2,0,0,0,1.85-2.27c-0.2-2.58-.3-3.86-0.5-6.44s-0.31-3.86-.51-6.44a2,2,0,0,0-2.19-1.95l-3.9.66S585.94,384.5,584.94,384.64Z" transform="translate(-309.72 -171.31)"/><path class="cls-15" d="M588.07,404.85l-11.88,6.33a2.56,2.56,0,0,0-1.39,2.71,19.12,19.12,0,0,0,2.6,5.7,2.55,2.55,0,0,0,3,.73l12.57-4.81c0.94-.36,2.53,1.45,2.53,1.45l3.73-1.32a2,2,0,0,0,1-2.76c-1.08-2.35-1.61-3.53-2.68-5.88l-2.68-5.87a2,2,0,0,0-2.72-1.08l-3.44,2S589,404.38,588.07,404.85Z" transform="translate(-309.72 -171.31)"/><path class="cls-15" d="M597.92,422.76l-9,10a2.56,2.56,0,0,0-.38,3,19,19,0,0,0,4.39,4.46,2.56,2.56,0,0,0,3-.32l10.16-8.83c0.76-.66,2.88.49,2.88,0.49l3.06-2.52a2,2,0,0,0,0-2.93l-4.52-4.6-4.53-4.6a2,2,0,0,0-2.92-.08l-2.57,3S598.6,422,597.92,422.76Z" transform="translate(-309.72 -171.31)"/><path class="cls-15" d="M613.31,436.23l-5,12.48a2.56,2.56,0,0,0,.68,3,18.92,18.92,0,0,0,5.65,2.69,2.53,2.53,0,0,0,2.73-1.34s6-10.88,6.53-11.77,2.87-.52,2.87-0.52l2-3.41a2,2,0,0,0-1-2.73l-5.83-2.78L616.06,429a2,2,0,0,0-2.78.92c-0.55,1.49-.83,2.22-1.38,3.71C611.9,433.67,613.69,435.29,613.31,436.23Z" transform="translate(-309.72 -171.31)"/><path class="cls-15" d="M632.38,443.62c0,1-.46,13.46-0.46,13.46a2.54,2.54,0,0,0,1.65,2.55,19,19,0,0,0,6.23.6,2.53,2.53,0,0,0,2.11-2.19s2-12.3,2.11-13.3,2.52-1.46,2.52-1.46l0.72-3.89a2,2,0,0,0-1.91-2.23l-6.43-.62-6.43-.62a2,2,0,0,0-2.3,1.82c0,1.58,0,2.37,0,4C630.18,441.7,632.41,442.61,632.38,443.62Z" transform="translate(-309.72 -171.31)"/><path class="cls-15" d="M652.82,444l4.17,12.8a2.53,2.53,0,0,0,2.43,1.83,19,19,0,0,0,6.06-1.57,2.56,2.56,0,0,0,1.23-2.78s-2.37-12.22-2.57-13.21,1.87-2.24,1.87-2.24c-0.26-1.56-.39-2.34-0.65-3.91a2,2,0,0,0-2.55-1.43l-6.25,1.61-6.25,1.62a2,2,0,0,0-1.54,2.49c0.53,1.49.8,2.24,1.32,3.74C650.09,443,652.51,443.08,652.82,444Z" transform="translate(-309.72 -171.31)"/><path class="cls-15" d="M672.17,437.45l8.3,10.6a2.55,2.55,0,0,0,2.91.89,19.22,19.22,0,0,0,5.16-3.54,2.57,2.57,0,0,0,.2-3l-6.93-11.54c-0.52-.87,1-2.75,1-2.75l-1.95-3.45a1.94,1.94,0,0,0-2.88-.48l-5.32,3.65-5.32,3.66a2,2,0,0,0-.59,2.87l2.53,3.05S671.55,436.66,672.17,437.45Z" transform="translate(-309.72 -171.31)"/><path class="cls-15" d="M688.11,424.64l11.42,7.12a2.55,2.55,0,0,0,3-.15,19.1,19.1,0,0,0,3.64-5.1,2.54,2.54,0,0,0-.85-2.92l-10.45-8.47c-0.79-.64,0-2.92,0-2.92-1.21-1-1.8-1.55-3-2.58a2,2,0,0,0-2.88.54l-3.75,5.26-3.75,5.26a2,2,0,0,0,.42,2.9l3.41,2S687.25,424.1,688.11,424.64Z" transform="translate(-309.72 -171.31)"/><path class="cls-15" d="M698.7,407.14l13.17,2.79a2.55,2.55,0,0,0,2.8-1.18,19,19,0,0,0,1.67-6,2.54,2.54,0,0,0-1.8-2.45l-12.72-4.39c-1-.32-1-2.74-1-2.74l-3.71-1.39a2,2,0,0,0-2.52,1.5l-1.73,6.22-1.72,6.22a2,2,0,0,0,1.38,2.58l3.9,0.72S697.71,406.93,698.7,407.14Z" transform="translate(-309.72 -171.31)"/><path class="cls-15" d="M702.67,387.08L716,385.2a2.56,2.56,0,0,0,2.23-2.07,19.12,19.12,0,0,0-.5-6.25,2.55,2.55,0,0,0-2.52-1.69l-13.46.23c-1,0-1.88-2.23-1.88-2.23l-4,0a2,2,0,0,0-1.86,2.26c0.2,2.58.3,3.86,0.5,6.44s0.31,3.86.51,6.44a2,2,0,0,0,2.19,1.94l3.91-.66S701.66,387.22,702.67,387.08Z" transform="translate(-309.72 -171.31)"/><path class="cls-15" d="M699.54,366.87l11.87-6.33a2.56,2.56,0,0,0,1.39-2.71,19.25,19.25,0,0,0-2.6-5.7,2.53,2.53,0,0,0-2.95-.73l-12.57,4.82c-0.94.36-2.53-1.45-2.53-1.45l-3.74,1.32a2,2,0,0,0-1,2.77l2.68,5.87,2.67,5.88a2,2,0,0,0,2.73,1.08l3.45-2S698.64,367.35,699.54,366.87Z" transform="translate(-309.72 -171.31)"/><path class="cls-15" d="M689.68,349l9-10a2.56,2.56,0,0,0,.38-3,19.19,19.19,0,0,0-4.39-4.46,2.56,2.56,0,0,0-3,.32l-10.16,8.82c-0.75.66-2.88-.49-2.88-0.49l-3.05,2.52a2,2,0,0,0,0,2.93l4.52,4.6,4.52,4.61a2,2,0,0,0,2.92.08l2.57-3S689,349.71,689.68,349Z" transform="translate(-309.72 -171.31)"/><path class="cls-15" d="M674.29,335.49l5-12.48a2.54,2.54,0,0,0-.68-3,19,19,0,0,0-5.65-2.7,2.54,2.54,0,0,0-2.73,1.34l-6.53,11.77c-0.49.88-2.87,0.52-2.87,0.52l-2,3.41a2,2,0,0,0,1,2.74l5.83,2.78,5.83,2.78a2,2,0,0,0,2.78-.92L675.7,338S673.91,336.43,674.29,335.49Z" transform="translate(-309.72 -171.31)"/><path class="cls-14" d="M575.18,369.25a49.74,49.74,0,1,1-49.74-49.74A49.74,49.74,0,0,1,575.18,369.25Zm-49.74-36.07a36.07,36.07,0,1,0,36.08,36.07A36.07,36.07,0,0,0,525.44,333.18Z" transform="translate(-309.72 -171.31)"/><path class="cls-14" d="M530.5,318.49c-0.05-.87-0.72-11.64-0.72-11.64a2.2,2.2,0,0,0-1.64-2.06,16.39,16.39,0,0,0-5.43,0,2.2,2.2,0,0,0-1.64,2.06l-0.72,11.64c-0.05.87-2.05,1.48-2.05,1.48-0.12,1.37-.18,2-0.3,3.42a1.7,1.7,0,0,0,1.83,1.76H531a1.69,1.69,0,0,0,1.83-1.76c-0.12-1.37-.18-2.05-0.3-3.42C532.56,320,530.56,319.36,530.5,318.49Z" transform="translate(-309.72 -171.31)"/><path class="cls-14" d="M512.83,319.82l-4.66-10.69a2.21,2.21,0,0,0-2.25-1.39,16.53,16.53,0,0,0-5.1,1.86,2.2,2.2,0,0,0-.83,2.5l3.31,11.18c0.25,0.84-1.43,2.09-1.43,2.09,0.35,1.33.53,2,.88,3.32a1.69,1.69,0,0,0,2.32,1l5.26-1.91,5.26-1.91a1.7,1.7,0,0,0,1.12-2.28l-1.46-3.11S513.18,320.61,512.83,319.82Z" transform="translate(-309.72 -171.31)"/><path class="cls-14" d="M496.69,327.1l-8-8.46a2.22,2.22,0,0,0-2.59-.53,16.73,16.73,0,0,0-4.15,3.49,2.2,2.2,0,0,0,.08,2.63l6.93,9.38c0.52,0.71-.62,2.46-0.62,2.46l2,2.81a1.69,1.69,0,0,0,2.53.17l4.29-3.6,4.29-3.6a1.7,1.7,0,0,0,.27-2.53l-2.43-2.42S497.29,327.74,496.69,327.1Z" transform="translate(-309.72 -171.31)"/><path class="cls-14" d="M484,339.48l-10.44-5.19a2.19,2.19,0,0,0-2.61.38,16.62,16.62,0,0,0-2.72,4.7,2.22,2.22,0,0,0,1,2.45l9.72,6.44c0.73,0.48.25,2.52,0.25,2.52l2.81,2a1.69,1.69,0,0,0,2.43-.71l2.8-4.84,2.8-4.84a1.7,1.7,0,0,0-.61-2.47l-3.11-1.45S484.79,339.87,484,339.48Z" transform="translate(-309.72 -171.31)"/><path class="cls-14" d="M476.32,355.45l-11.59-1.31a2.21,2.21,0,0,0-2.32,1.25,16.49,16.49,0,0,0-.94,5.35,2.19,2.19,0,0,0,1.75,2l11.34,2.73c0.85,0.2,1.1,2.28,1.1,2.28L479,368.6a1.7,1.7,0,0,0,2-1.5l1-5.51c0.39-2.2.58-3.31,1-5.51a1.7,1.7,0,0,0-1.42-2.11l-3.42-.3S477.19,355.54,476.32,355.45Z" transform="translate(-309.72 -171.31)"/><path class="cls-14" d="M474.56,373.08l-11.34,2.73a2.21,2.21,0,0,0-1.75,2,16.55,16.55,0,0,0,.94,5.35,2.21,2.21,0,0,0,2.32,1.25l11.59-1.31c0.87-.1,1.81,1.77,1.81,1.77l3.42-.29a1.69,1.69,0,0,0,1.41-2.11c-0.38-2.21-.58-3.31-1-5.51l-1-5.51a1.7,1.7,0,0,0-2.05-1.5l-3.31.89S475.41,372.87,474.56,373.08Z" transform="translate(-309.72 -171.31)"/><path class="cls-14" d="M478.93,390.25l-9.72,6.44a2.22,2.22,0,0,0-1,2.45,16.56,16.56,0,0,0,2.72,4.7,2.2,2.2,0,0,0,2.61.38L484,399c0.78-.39,2.3,1,2.3,1l3.11-1.45a1.7,1.7,0,0,0,.61-2.46l-2.8-4.85-2.79-4.84a1.7,1.7,0,0,0-2.44-.71l-2.81,2S479.66,389.77,478.93,390.25Z" transform="translate(-309.72 -171.31)"/><path class="cls-14" d="M488.92,404.89L482,414.27a2.22,2.22,0,0,0-.08,2.64,16.52,16.52,0,0,0,4.16,3.49,2.22,2.22,0,0,0,2.59-.53l8-8.46c0.6-.63,2.52.19,2.52,0.19l2.43-2.42a1.7,1.7,0,0,0-.28-2.53l-4.28-3.6-4.29-3.59a1.69,1.69,0,0,0-2.53.17l-2,2.81S489.44,404.18,488.92,404.89Z" transform="translate(-309.72 -171.31)"/><path class="cls-14" d="M503.31,415.22L500,426.41a2.22,2.22,0,0,0,.83,2.5,16.39,16.39,0,0,0,5.1,1.85,2.19,2.19,0,0,0,2.25-1.38l4.66-10.69c0.35-.8,2.43-0.69,2.43-0.69l1.46-3.11a1.69,1.69,0,0,0-1.12-2.27l-5.26-1.92-5.26-1.91a1.69,1.69,0,0,0-2.32,1c-0.36,1.33-.53,2-0.88,3.32C501.88,413.13,503.56,414.39,503.31,415.22Z" transform="translate(-309.72 -171.31)"/><path class="cls-14" d="M520.37,420c0.05,0.88.72,11.65,0.72,11.65a2.21,2.21,0,0,0,1.64,2.06,16.48,16.48,0,0,0,5.43,0,2.2,2.2,0,0,0,1.63-2.06s0.66-10.77.72-11.65,2.05-1.47,2.05-1.47l0.3-3.42a1.7,1.7,0,0,0-1.83-1.76H519.84a1.7,1.7,0,0,0-1.83,1.76c0.12,1.37.18,2,.3,3.42C518.31,418.54,520.31,419.14,520.37,420Z" transform="translate(-309.72 -171.31)"/><path class="cls-14" d="M538,418.69l4.66,10.69a2.19,2.19,0,0,0,2.24,1.38,16.41,16.41,0,0,0,5.1-1.85,2.22,2.22,0,0,0,.83-2.5s-3.06-10.35-3.31-11.19,1.43-2.09,1.43-2.09c-0.35-1.33-.53-2-0.88-3.32a1.69,1.69,0,0,0-2.32-1l-5.26,1.91-5.26,1.91a1.69,1.69,0,0,0-1.12,2.28c0.58,1.24.88,1.87,1.45,3.11C535.6,418,537.69,417.89,538,418.69Z" transform="translate(-309.72 -171.31)"/><path class="cls-14" d="M554.19,411.41l8,8.46a2.21,2.21,0,0,0,2.58.53A16.6,16.6,0,0,0,569,416.9a2.22,2.22,0,0,0-.08-2.64l-6.93-9.38c-0.52-.71.62-2.45,0.62-2.45l-2-2.81a1.68,1.68,0,0,0-2.53-.17L553.79,403l-4.29,3.6a1.7,1.7,0,0,0-.27,2.53l2.43,2.42S553.58,410.77,554.19,411.41Z" transform="translate(-309.72 -171.31)"/><path class="cls-14" d="M566.87,399l10.45,5.2a2.2,2.2,0,0,0,2.6-.38,16.57,16.57,0,0,0,2.71-4.7,2.2,2.2,0,0,0-1-2.45l-9.72-6.44c-0.73-.49-0.25-2.52-0.25-2.52-1.13-.79-1.68-1.19-2.81-2a1.69,1.69,0,0,0-2.44.71l-2.8,4.84-2.8,4.85a1.7,1.7,0,0,0,.61,2.46l3.11,1.45S566.09,398.64,566.87,399Z" transform="translate(-309.72 -171.31)"/><path class="cls-14" d="M574.55,383.06l11.59,1.31a2.2,2.2,0,0,0,2.31-1.25,16.43,16.43,0,0,0,.94-5.35,2.2,2.2,0,0,0-1.75-2l-11.34-2.73c-0.85-.2-1.1-2.28-1.1-2.28l-3.31-.89a1.69,1.69,0,0,0-2,1.5c-0.39,2.2-.58,3.31-1,5.51l-1,5.51a1.7,1.7,0,0,0,1.41,2.11l3.42,0.3S573.68,383,574.55,383.06Z" transform="translate(-309.72 -171.31)"/><path class="cls-14" d="M576.31,365.43l11.34-2.73a2.22,2.22,0,0,0,1.75-2,16.5,16.5,0,0,0-.94-5.35,2.21,2.21,0,0,0-2.31-1.25l-11.59,1.31c-0.87.1-1.81-1.77-1.81-1.77l-3.42.29a1.69,1.69,0,0,0-1.41,2.1c0.38,2.21.58,3.31,1,5.51s0.59,3.31,1,5.51a1.69,1.69,0,0,0,2,1.5l3.32-.89S575.46,365.63,576.31,365.43Z" transform="translate(-309.72 -171.31)"/><path class="cls-14" d="M571.94,348.26l9.72-6.45a2.21,2.21,0,0,0,1-2.45,16.62,16.62,0,0,0-2.71-4.7,2.2,2.2,0,0,0-2.6-.38l-10.45,5.2c-0.78.39-2.31-1-2.31-1l-3.12,1.45a1.7,1.7,0,0,0-.6,2.47l2.79,4.84,2.79,4.85a1.71,1.71,0,0,0,2.44.71l2.81-2S571.21,348.74,571.94,348.26Z" transform="translate(-309.72 -171.31)"/><path class="cls-14" d="M562,333.62l6.93-9.37a2.22,2.22,0,0,0,.08-2.64,16.63,16.63,0,0,0-4.15-3.49,2.22,2.22,0,0,0-2.58.53l-8,8.46c-0.6.64-2.52-.19-2.52-0.19l-2.43,2.42a1.69,1.69,0,0,0,.28,2.52l4.28,3.6,4.28,3.6a1.7,1.7,0,0,0,2.53-.17l2-2.81S561.43,334.33,562,333.62Z" transform="translate(-309.72 -171.31)"/><path class="cls-14" d="M547.56,323.28l3.31-11.18a2.21,2.21,0,0,0-.83-2.5,16.54,16.54,0,0,0-5.09-1.86,2.21,2.21,0,0,0-2.25,1.39L538,319.82c-0.35.8-2.43,0.69-2.43,0.69l-1.46,3.11a1.7,1.7,0,0,0,1.12,2.28l5.26,1.91,5.26,1.92a1.69,1.69,0,0,0,2.32-1l0.89-3.32S547.31,324.12,547.56,323.28Z" transform="translate(-309.72 -171.31)"/><path class="cls-15" d="M515.63,484.65a49.74,49.74,0,1,1-49.74-49.74A49.74,49.74,0,0,1,515.63,484.65Zm-49.74-36.07A36.07,36.07,0,1,0,502,484.65,36.07,36.07,0,0,0,465.89,448.58Z" transform="translate(-309.72 -171.31)"/><path class="cls-15" d="M471,433.88l-0.72-11.64a2.2,2.2,0,0,0-1.64-2.06,16.34,16.34,0,0,0-5.43,0,2.2,2.2,0,0,0-1.64,2.06s-0.67,10.77-.72,11.64-2.05,1.48-2.05,1.48c-0.12,1.37-.18,2-0.3,3.42a1.7,1.7,0,0,0,1.83,1.76h11.19a1.69,1.69,0,0,0,1.83-1.76c-0.12-1.37-.18-2.05-0.3-3.42C473,435.36,471,434.75,471,433.88Z" transform="translate(-309.72 -171.31)"/><path class="cls-15" d="M453.29,435.21l-4.66-10.69a2.21,2.21,0,0,0-2.25-1.39,16.54,16.54,0,0,0-5.1,1.86,2.2,2.2,0,0,0-.83,2.5l3.31,11.18c0.25,0.84-1.43,2.09-1.43,2.09,0.35,1.33.53,2,.88,3.32a1.69,1.69,0,0,0,2.32,1l5.26-1.91,5.26-1.91a1.7,1.7,0,0,0,1.12-2.28l-1.46-3.11S453.64,436,453.29,435.21Z" transform="translate(-309.72 -171.31)"/><path class="cls-15" d="M437.14,442.5l-8-8.46a2.22,2.22,0,0,0-2.59-.53,16.76,16.76,0,0,0-4.15,3.49,2.2,2.2,0,0,0,.08,2.63l6.93,9.38c0.52,0.71-.62,2.46-0.62,2.46l2,2.81a1.69,1.69,0,0,0,2.53.17l4.29-3.6,4.29-3.6a1.7,1.7,0,0,0,.27-2.53l-2.43-2.42S437.74,443.14,437.14,442.5Z" transform="translate(-309.72 -171.31)"/><path class="cls-15" d="M424.46,454.87L414,449.68a2.19,2.19,0,0,0-2.61.38,16.62,16.62,0,0,0-2.72,4.7,2.22,2.22,0,0,0,1,2.45l9.72,6.44c0.73,0.48.25,2.52,0.25,2.52l2.81,2a1.69,1.69,0,0,0,2.43-.71l2.8-4.84,2.8-4.84a1.7,1.7,0,0,0-.61-2.47l-3.11-1.45S425.24,455.27,424.46,454.87Z" transform="translate(-309.72 -171.31)"/><path class="cls-15" d="M416.77,470.84l-11.59-1.31a2.21,2.21,0,0,0-2.32,1.25,16.5,16.5,0,0,0-.94,5.35,2.19,2.19,0,0,0,1.75,2L415,480.83c0.85,0.2,1.1,2.28,1.1,2.28l3.32,0.89a1.7,1.7,0,0,0,2-1.5l1-5.51c0.39-2.2.58-3.31,1-5.51a1.7,1.7,0,0,0-1.42-2.1l-3.42-.29S417.64,470.94,416.77,470.84Z" transform="translate(-309.72 -171.31)"/><path class="cls-15" d="M415,488.47l-11.34,2.73a2.21,2.21,0,0,0-1.75,2,16.52,16.52,0,0,0,.94,5.35,2.21,2.21,0,0,0,2.32,1.25l11.59-1.31c0.87-.1,1.81,1.77,1.81,1.77l3.42-.3a1.69,1.69,0,0,0,1.41-2.11c-0.38-2.21-.58-3.31-1-5.51l-1-5.51a1.7,1.7,0,0,0-2.05-1.5l-3.31.89S415.86,488.27,415,488.47Z" transform="translate(-309.72 -171.31)"/><path class="cls-15" d="M419.39,505.65l-9.72,6.44a2.22,2.22,0,0,0-1,2.45,16.57,16.57,0,0,0,2.72,4.7,2.2,2.2,0,0,0,2.61.38l10.44-5.19c0.78-.39,2.31,1,2.31,1l3.11-1.45a1.7,1.7,0,0,0,.61-2.46l-2.8-4.85-2.79-4.84a1.7,1.7,0,0,0-2.44-.71l-2.81,2S420.12,505.16,419.39,505.65Z" transform="translate(-309.72 -171.31)"/><path class="cls-15" d="M429.37,520.28l-6.93,9.38a2.22,2.22,0,0,0-.08,2.64,16.53,16.53,0,0,0,4.16,3.49,2.22,2.22,0,0,0,2.59-.53l8-8.46c0.6-.63,2.52.19,2.52,0.19l2.43-2.42a1.7,1.7,0,0,0-.28-2.53l-4.28-3.6-4.29-3.59a1.69,1.69,0,0,0-2.53.17l-2,2.81S429.89,519.58,429.37,520.28Z" transform="translate(-309.72 -171.31)"/><path class="cls-15" d="M443.76,530.62c-0.25.84-3.31,11.19-3.31,11.19a2.21,2.21,0,0,0,.83,2.5,16.39,16.39,0,0,0,5.1,1.86,2.2,2.2,0,0,0,2.25-1.38l4.66-10.69c0.35-.8,2.43-0.69,2.43-0.69l1.46-3.11a1.69,1.69,0,0,0-1.12-2.28l-5.26-1.92-5.26-1.91a1.69,1.69,0,0,0-2.32,1c-0.36,1.33-.53,2-0.88,3.32C442.34,528.53,444,529.78,443.76,530.62Z" transform="translate(-309.72 -171.31)"/><path class="cls-15" d="M460.82,535.42c0.05,0.88.72,11.65,0.72,11.65a2.21,2.21,0,0,0,1.64,2.06,16.53,16.53,0,0,0,5.43,0,2.2,2.2,0,0,0,1.64-2.06s0.66-10.77.72-11.65,2.05-1.47,2.05-1.47l0.3-3.42a1.7,1.7,0,0,0-1.83-1.76H460.29a1.7,1.7,0,0,0-1.83,1.76c0.12,1.37.18,2,.3,3.42C458.77,533.94,460.77,534.54,460.82,535.42Z" transform="translate(-309.72 -171.31)"/><path class="cls-15" d="M478.49,534.09l4.66,10.69a2.19,2.19,0,0,0,2.24,1.38,16.38,16.38,0,0,0,5.1-1.85,2.22,2.22,0,0,0,.83-2.5L488,530.62c-0.25-.83,1.43-2.09,1.43-2.09-0.35-1.33-.53-2-0.88-3.32a1.69,1.69,0,0,0-2.32-1L481,526.1,475.72,528a1.69,1.69,0,0,0-1.12,2.28c0.58,1.24.88,1.87,1.45,3.11C476.05,533.4,478.14,533.28,478.49,534.09Z" transform="translate(-309.72 -171.31)"/><path class="cls-15" d="M494.64,526.8l8,8.46a2.21,2.21,0,0,0,2.58.53,16.59,16.59,0,0,0,4.15-3.49,2.22,2.22,0,0,0-.08-2.64l-6.93-9.38c-0.52-.71.62-2.45,0.62-2.45l-2-2.81a1.68,1.68,0,0,0-2.53-.17l-4.29,3.59L490,522a1.7,1.7,0,0,0-.27,2.53l2.43,2.42S494,526.17,494.64,526.8Z" transform="translate(-309.72 -171.31)"/><path class="cls-15" d="M507.32,514.43l10.45,5.19a2.2,2.2,0,0,0,2.6-.38,16.63,16.63,0,0,0,2.72-4.7,2.21,2.21,0,0,0-1-2.45l-9.72-6.44c-0.73-.49-0.25-2.52-0.25-2.52-1.13-.79-1.68-1.19-2.81-2a1.69,1.69,0,0,0-2.44.71l-2.79,4.84-2.8,4.85a1.7,1.7,0,0,0,.61,2.46l3.11,1.45S506.54,514,507.32,514.43Z" transform="translate(-309.72 -171.31)"/><path class="cls-15" d="M515,498.46l11.59,1.31a2.2,2.2,0,0,0,2.31-1.25,16.45,16.45,0,0,0,.94-5.35,2.2,2.2,0,0,0-1.75-2l-11.34-2.73c-0.85-.2-1.1-2.28-1.1-2.28l-3.31-.89a1.69,1.69,0,0,0-2,1.5c-0.39,2.21-.58,3.31-1,5.51l-1,5.5a1.7,1.7,0,0,0,1.41,2.11l3.42,0.3S514.13,498.36,515,498.46Z" transform="translate(-309.72 -171.31)"/><path class="cls-15" d="M516.77,480.83l11.34-2.73a2.22,2.22,0,0,0,1.75-2,16.52,16.52,0,0,0-.94-5.35,2.21,2.21,0,0,0-2.31-1.25L515,470.84c-0.87.1-1.81-1.76-1.81-1.76l-3.42.29a1.69,1.69,0,0,0-1.41,2.1c0.39,2.21.58,3.31,1,5.51s0.59,3.31,1,5.51a1.7,1.7,0,0,0,2,1.5l3.32-.89S515.91,481,516.77,480.83Z" transform="translate(-309.72 -171.31)"/><path class="cls-15" d="M512.39,463.66l9.72-6.45a2.21,2.21,0,0,0,1-2.45,16.62,16.62,0,0,0-2.72-4.7,2.2,2.2,0,0,0-2.6-.38l-10.45,5.2c-0.78.39-2.31-1-2.31-1l-3.12,1.45a1.7,1.7,0,0,0-.6,2.47l2.8,4.84,2.79,4.85a1.71,1.71,0,0,0,2.44.71l2.81-2S511.66,464.14,512.39,463.66Z" transform="translate(-309.72 -171.31)"/><path class="cls-15" d="M502.41,449l6.93-9.37a2.22,2.22,0,0,0,.08-2.64,16.65,16.65,0,0,0-4.16-3.49,2.22,2.22,0,0,0-2.58.53l-8,8.46c-0.6.64-2.52-.19-2.52-0.19l-2.43,2.42a1.69,1.69,0,0,0,.27,2.52l4.28,3.6,4.28,3.6a1.7,1.7,0,0,0,2.53-.17l2-2.81S501.88,449.72,502.41,449Z" transform="translate(-309.72 -171.31)"/><path class="cls-15" d="M488,438.67l3.31-11.18a2.21,2.21,0,0,0-.83-2.5,16.54,16.54,0,0,0-5.09-1.86,2.21,2.21,0,0,0-2.25,1.39l-4.66,10.69c-0.35.8-2.43,0.69-2.43,0.69L474.6,439a1.7,1.7,0,0,0,1.12,2.28l5.26,1.91,5.26,1.92a1.7,1.7,0,0,0,2.32-1l0.89-3.32S487.77,439.52,488,438.67Z" transform="translate(-309.72 -171.31)"/><path class="cls-14" d="M638.28,510.67A58.28,58.28,0,1,1,580,452.39,58.29,58.29,0,0,1,638.28,510.67ZM580,468.41a42.27,42.27,0,1,0,42.27,42.26A42.27,42.27,0,0,0,580,468.41Z" transform="translate(-309.72 -171.31)"/><path class="cls-14" d="M585.93,451.19c-0.06-1-.84-13.64-0.84-13.64a2.57,2.57,0,0,0-1.92-2.42,19.11,19.11,0,0,0-6.36,0,2.57,2.57,0,0,0-1.92,2.42s-0.78,12.62-.84,13.64-2.41,1.73-2.41,1.73c-0.14,1.6-.21,2.4-0.35,4a2,2,0,0,0,2.14,2.06h13.11a2,2,0,0,0,2.14-2.06c-0.14-1.6-.22-2.4-0.35-4C588.34,452.92,586,452.21,585.93,451.19Z" transform="translate(-309.72 -171.31)"/><path class="cls-14" d="M565.23,452.74l-5.46-12.53a2.59,2.59,0,0,0-2.63-1.62,19.38,19.38,0,0,0-6,2.18,2.58,2.58,0,0,0-1,2.93s3.58,12.12,3.88,13.11-1.67,2.45-1.67,2.45c0.41,1.56.62,2.33,1,3.89a2,2,0,0,0,2.71,1.2l6.16-2.24,6.16-2.24a2,2,0,0,0,1.31-2.67l-1.71-3.64S565.63,453.68,565.23,452.74Z" transform="translate(-309.72 -171.31)"/><path class="cls-14" d="M546.31,461.29l-9.41-9.91a2.6,2.6,0,0,0-3-.62,19.58,19.58,0,0,0-4.87,4.08,2.58,2.58,0,0,0,.09,3.09l8.12,11c0.61,0.83-.73,2.88-0.73,2.88l2.3,3.29a2,2,0,0,0,3,.21l5-4.22,5-4.21a2,2,0,0,0,.32-3l-2.85-2.84S547,462,546.31,461.29Z" transform="translate(-309.72 -171.31)"/><path class="cls-14" d="M531.44,475.78l-12.24-6.09a2.57,2.57,0,0,0-3.05.45,19.47,19.47,0,0,0-3.19,5.51,2.6,2.6,0,0,0,1.14,2.87l11.39,7.55c0.86,0.57.3,3,.3,3l3.29,2.31a2,2,0,0,0,2.85-.83l3.28-5.67,3.28-5.68a2,2,0,0,0-.71-2.89l-3.64-1.69S532.37,476.24,531.44,475.78Z" transform="translate(-309.72 -171.31)"/><path class="cls-14" d="M522.44,494.5L508.86,493a2.59,2.59,0,0,0-2.71,1.46,19.31,19.31,0,0,0-1.1,6.26,2.57,2.57,0,0,0,2,2.3l13.29,3.2c1,0.24,1.29,2.67,1.29,2.67l3.88,1a2,2,0,0,0,2.4-1.76l1.14-6.46c0.45-2.58.68-3.87,1.14-6.46a2,2,0,0,0-1.66-2.47l-4-.35S523.46,494.61,522.44,494.5Z" transform="translate(-309.72 -171.31)"/><path class="cls-14" d="M520.38,515.15l-13.29,3.2a2.59,2.59,0,0,0-2.05,2.31,19.39,19.39,0,0,0,1.1,6.26,2.59,2.59,0,0,0,2.71,1.46l13.58-1.53c1-.12,2.12,2.07,2.12,2.07l4-.35a2,2,0,0,0,1.65-2.47c-0.45-2.59-.68-3.87-1.13-6.46s-0.68-3.87-1.14-6.46a2,2,0,0,0-2.4-1.76l-3.88,1S521.38,514.91,520.38,515.15Z" transform="translate(-309.72 -171.31)"/><path class="cls-14" d="M525.5,535.28l-11.39,7.55A2.6,2.6,0,0,0,513,545.7a19.36,19.36,0,0,0,3.18,5.51,2.58,2.58,0,0,0,3.06.45l12.24-6.08c0.92-.46,2.7,1.21,2.7,1.21l3.65-1.7a2,2,0,0,0,.72-2.89c-1.32-2.27-2-3.41-3.28-5.68L532,530.84a2,2,0,0,0-2.86-.83l-3.29,2.31S526.36,534.71,525.5,535.28Z" transform="translate(-309.72 -171.31)"/><path class="cls-14" d="M537.2,552.43l-8.12,11a2.6,2.6,0,0,0-.09,3.09,19.46,19.46,0,0,0,4.87,4.09,2.6,2.6,0,0,0,3-.62l9.41-9.91c0.7-.74,3,0.22,3,0.22l2.85-2.84a2,2,0,0,0-.32-3l-5-4.22-5-4.21a2,2,0,0,0-3,.2l-2.3,3.29S537.81,551.6,537.2,552.43Z" transform="translate(-309.72 -171.31)"/><path class="cls-14" d="M554.06,564.54c-0.29,1-3.87,13.11-3.87,13.11a2.59,2.59,0,0,0,1,2.93,19.16,19.16,0,0,0,6,2.17,2.57,2.57,0,0,0,2.63-1.62s5.05-11.59,5.46-12.53,2.85-.8,2.85-0.8l1.71-3.64a2,2,0,0,0-1.31-2.67l-6.16-2.25L556.15,557a2,2,0,0,0-2.72,1.2c-0.42,1.56-.63,2.33-1,3.89C552.4,562.09,554.36,563.56,554.06,564.54Z" transform="translate(-309.72 -171.31)"/><path class="cls-14" d="M574.05,570.16c0.06,1,.84,13.65.84,13.65a2.58,2.58,0,0,0,1.92,2.42,19.3,19.3,0,0,0,6.36,0,2.57,2.57,0,0,0,1.92-2.42s0.78-12.62.84-13.65,2.41-1.73,2.41-1.73c0.14-1.6.21-2.4,0.35-4a2,2,0,0,0-2.14-2.07H573.43a2,2,0,0,0-2.14,2.07c0.14,1.6.21,2.4,0.35,4C571.65,568.43,574,569.13,574.05,570.16Z" transform="translate(-309.72 -171.31)"/><path class="cls-14" d="M594.76,568.61l5.46,12.53a2.57,2.57,0,0,0,2.63,1.62,19.19,19.19,0,0,0,6-2.17,2.6,2.6,0,0,0,1-2.93s-3.58-12.12-3.88-13.11,1.67-2.45,1.67-2.45c-0.41-1.56-.62-2.33-1-3.89a2,2,0,0,0-2.72-1.2l-6.16,2.23-6.16,2.24a2,2,0,0,0-1.31,2.67c0.68,1.46,1,2.18,1.7,3.65C591.9,567.8,594.35,567.66,594.76,568.61Z" transform="translate(-309.72 -171.31)"/><path class="cls-14" d="M613.68,560.07L623.1,570a2.59,2.59,0,0,0,3,.62,19.55,19.55,0,0,0,4.87-4.09,2.6,2.6,0,0,0-.09-3.09l-8.12-11c-0.61-.83.73-2.87,0.73-2.87l-2.31-3.29a2,2,0,0,0-3-.2l-5,4.21-5,4.22a2,2,0,0,0-.32,3l2.85,2.84S613,559.32,613.68,560.07Z" transform="translate(-309.72 -171.31)"/><path class="cls-14" d="M628.54,545.56l12.24,6.09a2.58,2.58,0,0,0,3.05-.45A19.56,19.56,0,0,0,647,545.7a2.58,2.58,0,0,0-1.15-2.87l-11.39-7.55c-0.85-.57-0.29-3-0.29-3-1.32-.92-2-1.39-3.29-2.31a2,2,0,0,0-2.86.83l-3.27,5.68-3.28,5.68a2,2,0,0,0,.71,2.89l3.64,1.7S627.63,545.11,628.54,545.56Z" transform="translate(-309.72 -171.31)"/><path class="cls-14" d="M637.55,526.85l13.58,1.53a2.58,2.58,0,0,0,2.71-1.46,19.28,19.28,0,0,0,1.1-6.26,2.58,2.58,0,0,0-2.05-2.3l-13.28-3.21c-1-.23-1.29-2.67-1.29-2.67l-3.89-1a2,2,0,0,0-2.4,1.76l-1.15,6.46-1.14,6.45a2,2,0,0,0,1.65,2.47l4,0.35S636.53,526.73,637.55,526.85Z" transform="translate(-309.72 -171.31)"/><path class="cls-14" d="M639.61,506.19L652.9,503a2.6,2.6,0,0,0,2-2.31,19.35,19.35,0,0,0-1.11-6.27,2.59,2.59,0,0,0-2.71-1.46l-13.58,1.54c-1,.12-2.12-2.07-2.12-2.07l-4,.34a2,2,0,0,0-1.66,2.47c0.45,2.59.68,3.88,1.13,6.46s0.69,3.88,1.14,6.46a2,2,0,0,0,2.4,1.75l3.89-1S638.61,506.43,639.61,506.19Z" transform="translate(-309.72 -171.31)"/><path class="cls-14" d="M634.48,486.07l11.39-7.55a2.59,2.59,0,0,0,1.15-2.87,19.54,19.54,0,0,0-3.18-5.51,2.58,2.58,0,0,0-3.05-.45l-12.24,6.09c-0.91.46-2.7-1.22-2.7-1.22l-3.65,1.7a2,2,0,0,0-.71,2.89l3.27,5.67L628,490.5a2,2,0,0,0,2.86.83l3.29-2.31S633.63,486.64,634.48,486.07Z" transform="translate(-309.72 -171.31)"/><path class="cls-14" d="M622.78,468.92l8.12-11a2.6,2.6,0,0,0,.09-3.09,19.47,19.47,0,0,0-4.87-4.08,2.59,2.59,0,0,0-3,.62l-9.42,9.91c-0.7.74-3-.22-3-0.22l-2.85,2.84a2,2,0,0,0,.32,3l5,4.21,5,4.22a2,2,0,0,0,3-.2l2.31-3.29S622.17,469.75,622.78,468.92Z" transform="translate(-309.72 -171.31)"/><path class="cls-14" d="M605.92,456.8l3.87-13.11a2.59,2.59,0,0,0-1-2.93,19.39,19.39,0,0,0-6-2.18,2.58,2.58,0,0,0-2.63,1.62l-5.46,12.53c-0.41.93-2.85,0.8-2.85,0.8l-1.71,3.64a2,2,0,0,0,1.31,2.67l6.16,2.24,6.16,2.24a2,2,0,0,0,2.72-1.2l1-3.89S605.63,457.79,605.92,456.8Z" transform="translate(-309.72 -171.31)"/><path class="cls-15" d="M750.1,499.71A49.71,49.71,0,1,1,700.39,450,49.71,49.71,0,0,1,750.1,499.71Zm-49.71-36a36,36,0,1,0,36.06,36A36.05,36.05,0,0,0,700.39,463.67Z" transform="translate(-309.72 -171.31)"/><path class="cls-15" d="M705.45,449l-0.72-11.64a2.2,2.2,0,0,0-1.63-2.06,16.37,16.37,0,0,0-5.42,0,2.2,2.2,0,0,0-1.64,2.06L695.32,449c-0.05.87-2.05,1.47-2.05,1.47-0.12,1.37-.18,2-0.3,3.41a1.7,1.7,0,0,0,1.83,1.76H706a1.7,1.7,0,0,0,1.83-1.76c-0.12-1.37-.19-2-0.3-3.41C707.51,450.45,705.5,449.84,705.45,449Z" transform="translate(-309.72 -171.31)"/><path class="cls-15" d="M687.8,450.3l-4.65-10.69a2.21,2.21,0,0,0-2.25-1.38,16.46,16.46,0,0,0-5.09,1.86,2.2,2.2,0,0,0-.83,2.5s3.06,10.34,3.31,11.18-1.42,2.09-1.42,2.09c0.35,1.33.53,2,.89,3.32a1.68,1.68,0,0,0,2.31,1l5.26-1.91,5.25-1.91a1.69,1.69,0,0,0,1.12-2.27L690.23,451S688.14,451.1,687.8,450.3Z" transform="translate(-309.72 -171.31)"/><path class="cls-15" d="M671.66,457.59l-8-8.45a2.22,2.22,0,0,0-2.58-.52,16.64,16.64,0,0,0-4.15,3.48,2.19,2.19,0,0,0,.08,2.63l6.92,9.38c0.52,0.71-.62,2.46-0.62,2.46l2,2.81a1.69,1.69,0,0,0,2.53.17l4.29-3.59,4.29-3.6a1.7,1.7,0,0,0,.27-2.52l-2.43-2.42S672.26,458.22,671.66,457.59Z" transform="translate(-309.72 -171.31)"/><path class="cls-15" d="M659,470l-10.44-5.19a2.19,2.19,0,0,0-2.6.38,16.66,16.66,0,0,0-2.72,4.7,2.21,2.21,0,0,0,1,2.45l9.72,6.44c0.73,0.49.25,2.52,0.25,2.52l2.81,2a1.69,1.69,0,0,0,2.43-.71l2.8-4.84,2.8-4.84a1.7,1.7,0,0,0-.61-2.46l-3.11-1.44S659.76,470.35,659,470Z" transform="translate(-309.72 -171.31)"/><path class="cls-15" d="M651.3,485.92l-11.59-1.31a2.2,2.2,0,0,0-2.31,1.25,16.48,16.48,0,0,0-.94,5.34,2.19,2.19,0,0,0,1.75,2l11.34,2.73c0.85,0.2,1.1,2.28,1.1,2.28l3.31,0.89a1.7,1.7,0,0,0,2-1.5l1-5.51c0.39-2.2.58-3.3,1-5.51a1.7,1.7,0,0,0-1.42-2.1l-3.41-.29S652.17,486,651.3,485.92Z" transform="translate(-309.72 -171.31)"/><path class="cls-15" d="M649.54,503.53l-11.34,2.73a2.2,2.2,0,0,0-1.75,2,16.62,16.62,0,0,0,.94,5.34,2.21,2.21,0,0,0,2.32,1.25l11.58-1.31c0.87-.1,1.81,1.77,1.81,1.77l3.41-.29a1.69,1.69,0,0,0,1.41-2.11c-0.39-2.21-.58-3.31-1-5.51l-1-5.51a1.69,1.69,0,0,0-2-1.5l-3.31.89S650.39,503.33,649.54,503.53Z" transform="translate(-309.72 -171.31)"/><path class="cls-15" d="M653.91,520.7l-9.72,6.44a2.22,2.22,0,0,0-1,2.45,16.6,16.6,0,0,0,2.72,4.7,2.2,2.2,0,0,0,2.61.38L659,529.47c0.78-.39,2.31,1,2.31,1l3.11-1.45a1.69,1.69,0,0,0,.61-2.46l-2.8-4.84-2.79-4.84a1.7,1.7,0,0,0-2.44-.71l-2.8,2S654.64,520.21,653.91,520.7Z" transform="translate(-309.72 -171.31)"/><path class="cls-15" d="M663.89,535.32L657,544.7a2.21,2.21,0,0,0-.08,2.63,16.49,16.49,0,0,0,4.15,3.49,2.22,2.22,0,0,0,2.59-.53l8-8.44c0.6-.63,2.52.18,2.52,0.18l2.43-2.42a1.7,1.7,0,0,0-.28-2.53l-4.28-3.6-4.29-3.59a1.69,1.69,0,0,0-2.53.17l-2,2.81S664.41,534.62,663.89,535.32Z" transform="translate(-309.72 -171.31)"/><path class="cls-15" d="M678.27,545.65c-0.25.84-3.3,11.18-3.3,11.18a2.21,2.21,0,0,0,.83,2.5,16.4,16.4,0,0,0,5.09,1.85,2.2,2.2,0,0,0,2.25-1.38s4.31-9.88,4.65-10.69,2.43-.69,2.43-0.69l1.46-3.11a1.69,1.69,0,0,0-1.12-2.27l-5.25-1.92-5.26-1.91a1.69,1.69,0,0,0-2.32,1l-0.88,3.32S678.52,544.82,678.27,545.65Z" transform="translate(-309.72 -171.31)"/><path class="cls-15" d="M695.32,550.45c0.05,0.88.71,11.64,0.71,11.64a2.21,2.21,0,0,0,1.64,2.06,16.39,16.39,0,0,0,5.42,0,2.2,2.2,0,0,0,1.64-2.06s0.66-10.77.72-11.64,2.05-1.47,2.05-1.47c0.12-1.37.18-2.05,0.3-3.42a1.7,1.7,0,0,0-1.83-1.76H694.79a1.7,1.7,0,0,0-1.83,1.76c0.12,1.36.18,2,.3,3.42C693.27,549,695.27,549.57,695.32,550.45Z" transform="translate(-309.72 -171.31)"/><path class="cls-15" d="M713,549.13l4.65,10.69a2.19,2.19,0,0,0,2.24,1.38,16.4,16.4,0,0,0,5.1-1.85,2.22,2.22,0,0,0,.83-2.5s-3.06-10.34-3.31-11.18,1.43-2.08,1.43-2.08L723,540.25a1.69,1.69,0,0,0-2.32-1l-5.25,1.9L710.21,543a1.69,1.69,0,0,0-1.12,2.28c0.58,1.24.88,1.86,1.45,3.11C710.54,548.44,712.63,548.32,713,549.13Z" transform="translate(-309.72 -171.31)"/><path class="cls-15" d="M729.12,541.84l8,8.44a2.2,2.2,0,0,0,2.58.53,16.63,16.63,0,0,0,4.15-3.49,2.21,2.21,0,0,0-.08-2.63l-6.93-9.38c-0.52-.71.63-2.45,0.63-2.45l-2-2.81a1.69,1.69,0,0,0-2.53-.17l-4.28,3.59-4.29,3.6a1.7,1.7,0,0,0-.27,2.53L726.6,542S728.52,541.21,729.12,541.84Z" transform="translate(-309.72 -171.31)"/><path class="cls-15" d="M741.79,529.47l10.44,5.19a2.2,2.2,0,0,0,2.6-.38,16.65,16.65,0,0,0,2.71-4.7,2.2,2.2,0,0,0-1-2.45l-9.72-6.44c-0.73-.49-0.25-2.52-0.25-2.52-1.12-.79-1.68-1.19-2.81-2a1.69,1.69,0,0,0-2.44.7l-2.8,4.84-2.8,4.85a1.7,1.7,0,0,0,.61,2.46l3.11,1.45S741,529.08,741.79,529.47Z" transform="translate(-309.72 -171.31)"/><path class="cls-15" d="M749.47,513.51l11.58,1.31a2.19,2.19,0,0,0,2.31-1.25,16.41,16.41,0,0,0,.95-5.34,2.2,2.2,0,0,0-1.75-2l-11.33-2.73c-0.85-.2-1.1-2.28-1.1-2.28l-3.31-.89a1.69,1.69,0,0,0-2,1.5c-0.39,2.2-.58,3.3-1,5.51s-0.58,3.3-1,5.5a1.7,1.7,0,0,0,1.41,2.11l3.42,0.3S748.6,513.41,749.47,513.51Z" transform="translate(-309.72 -171.31)"/><path class="cls-15" d="M751.24,495.89l11.33-2.73a2.21,2.21,0,0,0,1.75-2,16.44,16.44,0,0,0-.95-5.34,2.2,2.2,0,0,0-2.31-1.25l-11.58,1.31c-0.87.1-1.81-1.76-1.81-1.76l-3.42.29a1.7,1.7,0,0,0-1.41,2.11c0.39,2.21.58,3.31,1,5.51s0.59,3.31,1,5.51a1.7,1.7,0,0,0,2,1.5l3.32-.89S750.38,496.09,751.24,495.89Z" transform="translate(-309.72 -171.31)"/><path class="cls-15" d="M746.86,478.73l9.72-6.44a2.22,2.22,0,0,0,1-2.45,16.59,16.59,0,0,0-2.71-4.7,2.2,2.2,0,0,0-2.6-.38L741.79,470c-0.78.39-2.31-1-2.31-1l-3.11,1.45a1.69,1.69,0,0,0-.6,2.46l2.79,4.84,2.79,4.84a1.71,1.71,0,0,0,2.44.71l2.81-2S746.13,479.21,746.86,478.73Z" transform="translate(-309.72 -171.31)"/><path class="cls-15" d="M736.88,464.1l6.93-9.37a2.21,2.21,0,0,0,.08-2.63,16.56,16.56,0,0,0-4.15-3.48,2.21,2.21,0,0,0-2.58.52l-8,8.45c-0.6.63-2.52-.19-2.52-0.19l-2.43,2.42a1.69,1.69,0,0,0,.28,2.52l4.28,3.59,4.28,3.59a1.7,1.7,0,0,0,2.53-.17l2-2.81S736.36,464.81,736.88,464.1Z" transform="translate(-309.72 -171.31)"/><path class="cls-15" d="M722.5,453.77l3.3-11.18a2.21,2.21,0,0,0-.83-2.5,16.52,16.52,0,0,0-5.09-1.86,2.2,2.2,0,0,0-2.24,1.38L713,450.3c-0.35.79-2.43,0.69-2.43,0.69l-1.46,3.1a1.69,1.69,0,0,0,1.12,2.27l5.25,1.91,5.25,1.91a1.7,1.7,0,0,0,2.32-1c0.35-1.33.53-2,.88-3.32C723.93,455.85,722.25,454.61,722.5,453.77Z" transform="translate(-309.72 -171.31)"/><path class="cls-14" d="M885.41,534a61.5,61.5,0,1,1-61.5-61.49A61.5,61.5,0,0,1,885.41,534Zm-61.5-44.59A44.59,44.59,0,1,0,868.51,534,44.6,44.6,0,0,0,823.91,489.39Z" transform="translate(-309.72 -171.31)"/><path class="cls-14" d="M830.18,471.22l-0.89-14.4a2.72,2.72,0,0,0-2-2.55,20.24,20.24,0,0,0-6.71,0,2.72,2.72,0,0,0-2,2.55l-0.89,14.4c-0.07,1.07-2.54,1.82-2.54,1.82-0.15,1.69-.22,2.53-0.37,4.22a2.1,2.1,0,0,0,2.26,2.18h13.84a2.1,2.1,0,0,0,2.27-2.18c-0.15-1.69-.23-2.54-0.37-4.22C832.72,473,830.24,472.3,830.18,471.22Z" transform="translate(-309.72 -171.31)"/><path class="cls-14" d="M808.33,472.87c-0.43-1-5.76-13.22-5.76-13.22a2.73,2.73,0,0,0-2.78-1.71,20.38,20.38,0,0,0-6.3,2.3,2.72,2.72,0,0,0-1,3.09s3.78,12.79,4.09,13.83-1.76,2.59-1.76,2.59c0.43,1.64.65,2.46,1.09,4.1a2.09,2.09,0,0,0,2.86,1.27l6.51-2.36,6.5-2.37a2.1,2.1,0,0,0,1.38-2.82l-1.8-3.84S808.76,473.85,808.33,472.87Z" transform="translate(-309.72 -171.31)"/><path class="cls-14" d="M788.37,481.88l-9.93-10.46a2.74,2.74,0,0,0-3.2-.65,20.51,20.51,0,0,0-5.14,4.31,2.71,2.71,0,0,0,.1,3.25l8.57,11.6c0.64,0.88-.77,3-0.77,3l2.43,3.47a2.09,2.09,0,0,0,3.12.22l5.3-4.45,5.3-4.45a2.1,2.1,0,0,0,.33-3.12l-3-3S789.11,482.66,788.37,481.88Z" transform="translate(-309.72 -171.31)"/><path class="cls-14" d="M772.68,497.17l-12.91-6.42a2.71,2.71,0,0,0-3.22.47,20.6,20.6,0,0,0-3.36,5.81,2.74,2.74,0,0,0,1.21,3l12,8c0.9,0.6.31,3.12,0.31,3.12l3.47,2.44a2.09,2.09,0,0,0,3-.88l3.46-6,3.46-6a2.1,2.1,0,0,0-.75-3l-3.84-1.79S773.66,497.66,772.68,497.17Z" transform="translate(-309.72 -171.31)"/><path class="cls-14" d="M763.18,516.92l-14.33-1.62a2.73,2.73,0,0,0-2.86,1.55,20.3,20.3,0,0,0-1.16,6.61,2.71,2.71,0,0,0,2.16,2.43l14,3.38c1.05,0.25,1.36,2.82,1.36,2.82l4.1,1.11a2.1,2.1,0,0,0,2.53-1.85l1.2-6.81c0.48-2.73.72-4.09,1.2-6.81a2.1,2.1,0,0,0-1.75-2.6l-4.22-.36S764.26,517,763.18,516.92Z" transform="translate(-309.72 -171.31)"/><path class="cls-14" d="M761,538.71l-14,3.38a2.73,2.73,0,0,0-2.16,2.43,20.46,20.46,0,0,0,1.16,6.61,2.72,2.72,0,0,0,2.86,1.54l14.33-1.62c1.08-.13,2.24,2.18,2.24,2.18l4.23-.36a2.09,2.09,0,0,0,1.75-2.61c-0.47-2.73-.72-4.09-1.19-6.81l-1.2-6.82a2.1,2.1,0,0,0-2.54-1.85l-4.09,1.1S762.06,538.46,761,538.71Z" transform="translate(-309.72 -171.31)"/><path class="cls-14" d="M766.42,559.95l-12,8a2.74,2.74,0,0,0-1.21,3,20.56,20.56,0,0,0,3.36,5.81,2.73,2.73,0,0,0,3.23.48l12.91-6.42c1-.49,2.85,1.28,2.85,1.28l3.85-1.79a2.1,2.1,0,0,0,.75-3l-3.46-6-3.46-6a2.1,2.1,0,0,0-3-.87l-3.47,2.43S767.32,559.35,766.42,559.95Z" transform="translate(-309.72 -171.31)"/><path class="cls-14" d="M778.76,578l-8.57,11.6a2.74,2.74,0,0,0-.09,3.25,20.42,20.42,0,0,0,5.14,4.32,2.75,2.75,0,0,0,3.2-.66l9.93-10.45c0.74-.79,3.12.23,3.12,0.23l3-3a2.1,2.1,0,0,0-.34-3.13l-5.29-4.45-5.3-4.44a2.09,2.09,0,0,0-3.13.21L778,575S779.4,577.17,778.76,578Z" transform="translate(-309.72 -171.31)"/><path class="cls-14" d="M796.55,590.82c-0.31,1-4.09,13.83-4.09,13.83a2.73,2.73,0,0,0,1,3.09,20.22,20.22,0,0,0,6.3,2.29,2.72,2.72,0,0,0,2.78-1.7s5.33-12.22,5.75-13.22,3-.85,3-0.85l1.8-3.84a2.09,2.09,0,0,0-1.38-2.81l-6.5-2.37-6.5-2.37a2.09,2.09,0,0,0-2.87,1.27c-0.44,1.65-.66,2.46-1.09,4.1C794.79,588.23,796.86,589.78,796.55,590.82Z" transform="translate(-309.72 -171.31)"/><path class="cls-14" d="M817.64,596.75c0.06,1.09.89,14.4,0.89,14.4a2.72,2.72,0,0,0,2,2.55,20.38,20.38,0,0,0,6.7,0,2.71,2.71,0,0,0,2-2.55s0.82-13.32.89-14.4,2.54-1.82,2.54-1.82c0.15-1.69.22-2.54,0.37-4.23a2.1,2.1,0,0,0-2.26-2.18H817a2.1,2.1,0,0,0-2.26,2.18c0.15,1.69.22,2.53,0.37,4.23C815.1,594.93,817.58,595.67,817.64,596.75Z" transform="translate(-309.72 -171.31)"/><path class="cls-14" d="M839.49,595.11l5.76,13.22A2.71,2.71,0,0,0,848,610a20.25,20.25,0,0,0,6.3-2.29,2.74,2.74,0,0,0,1-3.09s-3.78-12.79-4.09-13.83,1.76-2.58,1.76-2.58c-0.43-1.64-.66-2.46-1.09-4.1a2.09,2.09,0,0,0-2.87-1.26l-6.5,2.36-6.5,2.37a2.09,2.09,0,0,0-1.38,2.82c0.72,1.54,1.08,2.3,1.79,3.85C836.47,594.26,839.05,594.11,839.49,595.11Z" transform="translate(-309.72 -171.31)"/><path class="cls-14" d="M859.45,586.1l9.93,10.45a2.73,2.73,0,0,0,3.19.66,20.63,20.63,0,0,0,5.14-4.32,2.74,2.74,0,0,0-.1-3.25L869.05,578c-0.64-.87.77-3,0.77-3l-2.43-3.48a2.08,2.08,0,0,0-3.12-.21l-5.3,4.44-5.3,4.45a2.11,2.11,0,0,0-.34,3.13l3,3S858.71,585.32,859.45,586.1Z" transform="translate(-309.72 -171.31)"/><path class="cls-14" d="M875.13,570.8L888,577.22a2.72,2.72,0,0,0,3.22-.48,20.53,20.53,0,0,0,3.36-5.81,2.72,2.72,0,0,0-1.21-3l-12-8c-0.9-.61-0.31-3.12-0.31-3.12-1.39-1-2.08-1.47-3.47-2.43a2.09,2.09,0,0,0-3,.87l-3.46,6-3.46,6a2.1,2.1,0,0,0,.75,3l3.84,1.79S874.17,570.32,875.13,570.8Z" transform="translate(-309.72 -171.31)"/><path class="cls-14" d="M884.63,551.06L899,552.68a2.72,2.72,0,0,0,2.86-1.54,20.4,20.4,0,0,0,1.16-6.61,2.72,2.72,0,0,0-2.17-2.43l-14-3.38c-1.05-.25-1.36-2.81-1.36-2.81l-4.1-1.1a2.09,2.09,0,0,0-2.53,1.85c-0.49,2.72-.72,4.09-1.21,6.82s-0.72,4.08-1.2,6.81a2.1,2.1,0,0,0,1.74,2.61l4.23,0.37S883.55,550.93,884.63,551.06Z" transform="translate(-309.72 -171.31)"/><path class="cls-14" d="M886.81,529.26l14-3.37a2.73,2.73,0,0,0,2.16-2.43,20.56,20.56,0,0,0-1.17-6.61,2.74,2.74,0,0,0-2.86-1.54l-14.33,1.62c-1.08.12-2.23-2.18-2.23-2.18l-4.23.36a2.09,2.09,0,0,0-1.75,2.6l1.2,6.81c0.49,2.72.72,4.09,1.2,6.81a2.1,2.1,0,0,0,2.53,1.85l4.1-1.1S885.76,529.5,886.81,529.26Z" transform="translate(-309.72 -171.31)"/><path class="cls-14" d="M881.4,508l12-8a2.74,2.74,0,0,0,1.21-3,20.45,20.45,0,0,0-3.36-5.81,2.71,2.71,0,0,0-3.22-.48l-12.91,6.42c-1,.48-2.85-1.29-2.85-1.29l-3.85,1.8a2.09,2.09,0,0,0-.74,3l3.46,6,3.46,6a2.11,2.11,0,0,0,3,.88l3.47-2.44S880.5,508.63,881.4,508Z" transform="translate(-309.72 -171.31)"/><path class="cls-14" d="M869.06,489.93l8.57-11.59a2.73,2.73,0,0,0,.09-3.26,20.43,20.43,0,0,0-5.14-4.31,2.73,2.73,0,0,0-3.19.65l-9.93,10.46c-0.74.78-3.12-.24-3.12-0.24l-3,3a2.09,2.09,0,0,0,.34,3.12L859,492.2l5.29,4.45a2.1,2.1,0,0,0,3.13-.21l2.43-3.48S868.41,490.8,869.06,489.93Z" transform="translate(-309.72 -171.31)"/><path class="cls-14" d="M851.27,477.15l4.09-13.83a2.73,2.73,0,0,0-1-3.09,20.43,20.43,0,0,0-6.3-2.3,2.73,2.73,0,0,0-2.78,1.71l-5.76,13.22c-0.43,1-3,.85-3,0.85l-1.8,3.84a2.09,2.09,0,0,0,1.38,2.82l6.5,2.37,6.5,2.37a2.1,2.1,0,0,0,2.87-1.27c0.43-1.65.66-2.46,1.09-4.1C853,479.73,851,478.19,851.27,477.15Z" transform="translate(-309.72 -171.31)"/><path class="cls-15" d="M891.8,301.15a49.55,49.55,0,1,1-57.65-39.84A49.56,49.56,0,0,1,891.8,301.15Zm-55.2-26.44a35.93,35.93,0,1,0,41.81,28.88A35.94,35.94,0,0,0,836.6,274.71Z" transform="translate(-309.72 -171.31)"/><path class="cls-15" d="M838.94,259.4l-2.79-11.28a2.19,2.19,0,0,0-2-1.73,16.36,16.36,0,0,0-5.32,1,2.19,2.19,0,0,0-1.24,2.32L829,261.21c0.11,0.86-1.74,1.81-1.74,1.81,0.12,1.36.19,2,.31,3.4a1.69,1.69,0,0,0,2.11,1.4l5.48-1,5.49-1a1.69,1.69,0,0,0,1.48-2.06c-0.36-1.32-.55-2-0.91-3.29C841.22,260.47,839.14,260.24,838.94,259.4Z" transform="translate(-309.72 -171.31)"/><path class="cls-15" d="M821.86,263.86l-6.48-9.65a2.2,2.2,0,0,0-2.45-1,16.39,16.39,0,0,0-4.66,2.73,2.19,2.19,0,0,0-.37,2.6L813.15,269c0.39,0.78-1,2.31-1,2.31l1.46,3.09a1.68,1.68,0,0,0,2.45.59l4.82-2.82,4.81-2.82a1.69,1.69,0,0,0,.69-2.43l-2-2.78S822.34,264.58,821.86,263.86Z" transform="translate(-309.72 -171.31)"/><path class="cls-15" d="M807.34,273.89L798,267a2.21,2.21,0,0,0-2.63-.05,16.52,16.52,0,0,0-3.45,4.16,2.18,2.18,0,0,0,.55,2.56l8.47,8c0.63,0.6-.17,2.52-0.17,2.52l2.43,2.4a1.69,1.69,0,0,0,2.51-.28l3.56-4.29,3.56-4.29a1.69,1.69,0,0,0-.19-2.52l-2.82-1.94S808,274.41,807.34,273.89Z" transform="translate(-309.72 -171.31)"/><path class="cls-15" d="M797.12,288.29L786,285.07a2.18,2.18,0,0,0-2.49.84,16.58,16.58,0,0,0-1.83,5.09,2.21,2.21,0,0,0,1.4,2.23l10.68,4.57c0.8,0.35.7,2.43,0.7,2.43l3.11,1.43a1.69,1.69,0,0,0,2.26-1.13l1.88-5.25,1.88-5.25a1.69,1.69,0,0,0-1-2.31l-3.31-.86S798,288.53,797.12,288.29Z" transform="translate(-309.72 -171.31)"/><path class="cls-15" d="M792.45,305.32l-11.6.79a2.2,2.2,0,0,0-2,1.64,16.33,16.33,0,0,0,0,5.4,2.18,2.18,0,0,0,2.06,1.61l11.61,0.65c0.87,0,1.49,2,1.49,2l3.41,0.28a1.69,1.69,0,0,0,1.74-1.83c0-2.23,0-3.34,0-5.57s0-3.35,0-5.58a1.69,1.69,0,0,0-1.77-1.81l-3.4.32S793.32,305.26,792.45,305.32Z" transform="translate(-309.72 -171.31)"/><path class="cls-15" d="M793.88,322.91l-10.63,4.71a2.2,2.2,0,0,0-1.36,2.24,16.49,16.49,0,0,0,1.88,5.07,2.19,2.19,0,0,0,2.49.81l11.13-3.36c0.84-.26,2.09,1.41,2.09,1.41l3.3-.9a1.69,1.69,0,0,0,1-2.32l-1.93-5.23-1.94-5.23a1.69,1.69,0,0,0-2.28-1.1l-3.09,1.47S794.68,322.55,793.88,322.91Z" transform="translate(-309.72 -171.31)"/><path class="cls-15" d="M801.24,339L792.87,347a2.21,2.21,0,0,0-.52,2.58,16.56,16.56,0,0,0,3.51,4.12,2.19,2.19,0,0,0,2.62-.09l9.3-7c0.7-.52,2.45.6,2.45,0.6l2.79-2a1.69,1.69,0,0,0,.16-2.52l-3.61-4.25L806,334.26a1.69,1.69,0,0,0-2.52-.26l-2.4,2.43S801.87,338.35,801.24,339Z" transform="translate(-309.72 -171.31)"/><path class="cls-15" d="M813.64,351.51c-0.38.79-5.11,10.44-5.11,10.44a2.2,2.2,0,0,0,.4,2.59,16.43,16.43,0,0,0,4.7,2.68,2.21,2.21,0,0,0,2.44-1l6.36-9.72c0.48-.73,2.5-0.27,2.5-0.27l2-2.81a1.69,1.69,0,0,0-.73-2.43l-4.84-2.76-4.85-2.76a1.68,1.68,0,0,0-2.45.62l-1.42,3.11S814,350.73,813.64,351.51Z" transform="translate(-309.72 -171.31)"/><path class="cls-15" d="M829.6,359.06c-0.09.87-1.24,11.56-1.24,11.56a2.2,2.2,0,0,0,1.27,2.3,16.34,16.34,0,0,0,5.32.91,2.18,2.18,0,0,0,2-1.75s2.46-10.46,2.65-11.31,2.26-1.11,2.26-1.11l0.87-3.31a1.68,1.68,0,0,0-1.5-2l-5.5-.94-5.5-.93a1.68,1.68,0,0,0-2.09,1.42c-0.11,1.37-.17,2-0.27,3.41C827.83,357.27,829.69,358.2,829.6,359.06Z" transform="translate(-309.72 -171.31)"/><path class="cls-15" d="M847.17,360.71L850,372a2.19,2.19,0,0,0,2,1.73,16.34,16.34,0,0,0,5.31-1,2.19,2.19,0,0,0,1.24-2.31s-1.28-10.67-1.38-11.54,1.75-1.81,1.75-1.81c-0.13-1.36-.19-2-0.32-3.4a1.69,1.69,0,0,0-2.11-1.4l-5.49,1-5.48,1a1.69,1.69,0,0,0-1.48,2.05l0.91,3.3S847,359.86,847.17,360.71Z" transform="translate(-309.72 -171.31)"/><path class="cls-15" d="M864.26,356.25l6.48,9.64a2.18,2.18,0,0,0,2.44.95,16.29,16.29,0,0,0,4.66-2.73,2.2,2.2,0,0,0,.37-2.6s-4.85-9.59-5.25-10.37,1-2.3,1-2.3c-0.58-1.24-.88-1.85-1.46-3.09a1.68,1.68,0,0,0-2.46-.59L865.26,348l-4.81,2.82a1.68,1.68,0,0,0-.69,2.44c0.79,1.11,1.19,1.67,2,2.79C861.74,356,863.77,355.52,864.26,356.25Z" transform="translate(-309.72 -171.31)"/><path class="cls-15" d="M878.78,346.22l9.39,6.84a2.2,2.2,0,0,0,2.63.06,16.63,16.63,0,0,0,3.45-4.16,2.21,2.21,0,0,0-.55-2.56l-8.47-8c-0.64-.6.17-2.51,0.17-2.51l-2.43-2.4a1.68,1.68,0,0,0-2.5.28l-3.56,4.29-3.56,4.29a1.7,1.7,0,0,0,.18,2.53l2.82,1.94S878.07,345.71,878.78,346.22Z" transform="translate(-309.72 -171.31)"/><path class="cls-15" d="M889,331.82L900.16,335a2.2,2.2,0,0,0,2.48-.84,16.52,16.52,0,0,0,1.82-5.09,2.19,2.19,0,0,0-1.39-2.23l-10.68-4.57c-0.81-.35-0.7-2.43-0.7-2.43-1.24-.57-1.86-0.87-3.11-1.43a1.68,1.68,0,0,0-2.26,1.12l-1.87,5.25-1.88,5.25a1.69,1.69,0,0,0,1,2.31l3.31,0.86S888.16,331.58,889,331.82Z" transform="translate(-309.72 -171.31)"/><path class="cls-15" d="M893.67,314.8l11.6-.79a2.19,2.19,0,0,0,2-1.64,16.42,16.42,0,0,0,0-5.41,2.2,2.2,0,0,0-2.07-1.61l-11.6-.65c-0.87,0-1.48-2-1.48-2l-3.41-.28a1.69,1.69,0,0,0-1.74,1.83c0,2.23,0,3.35,0,5.58s0,3.33,0,5.57a1.69,1.69,0,0,0,1.76,1.81l3.41-.32S892.79,314.85,893.67,314.8Z" transform="translate(-309.72 -171.31)"/><path class="cls-15" d="M892.23,297.2l10.63-4.71a2.2,2.2,0,0,0,1.36-2.24,16.43,16.43,0,0,0-1.88-5.07,2.21,2.21,0,0,0-2.49-.81l-11.13,3.36c-0.84.25-2.09-1.4-2.09-1.4l-3.3.9a1.68,1.68,0,0,0-1,2.32l1.94,5.23c0.78,2.09,1.17,3.14,1.94,5.23a1.7,1.7,0,0,0,2.28,1.1l3.09-1.47S891.43,297.55,892.23,297.2Z" transform="translate(-309.72 -171.31)"/><path class="cls-15" d="M884.87,281.16l8.37-8.05a2.21,2.21,0,0,0,.52-2.58,16.41,16.41,0,0,0-3.5-4.12,2.18,2.18,0,0,0-2.62.09l-9.31,7c-0.69.52-2.45-.61-2.45-0.61l-2.79,2a1.69,1.69,0,0,0-.15,2.52l3.61,4.24,3.61,4.25a1.7,1.7,0,0,0,2.52.26l2.4-2.44S884.24,281.76,884.87,281.16Z" transform="translate(-309.72 -171.31)"/><path class="cls-15" d="M872.47,268.6l5.11-10.43a2.21,2.21,0,0,0-.4-2.59,16.49,16.49,0,0,0-4.7-2.67,2.21,2.21,0,0,0-2.44,1l-6.36,9.73c-0.47.73-2.5,0.26-2.5,0.26l-1.95,2.81a1.69,1.69,0,0,0,.72,2.42l4.84,2.76,4.84,2.76a1.69,1.69,0,0,0,2.45-.62l1.43-3.11S872.08,269.38,872.47,268.6Z" transform="translate(-309.72 -171.31)"/><path class="cls-15" d="M856.51,261l1.24-11.55a2.2,2.2,0,0,0-1.26-2.3,16.39,16.39,0,0,0-5.32-.91,2.2,2.2,0,0,0-2,1.75l-2.65,11.32c-0.2.84-2.26,1.11-2.26,1.11-0.35,1.32-.53,2-0.87,3.3a1.69,1.69,0,0,0,1.51,2l5.49,0.93,5.49,0.94a1.69,1.69,0,0,0,2.09-1.42c0.11-1.37.16-2.05,0.27-3.41C858.28,262.83,856.42,261.91,856.51,261Z" transform="translate(-309.72 -171.31)"/><path class="cls-14" d="M822.8,401.61a54.24,54.24,0,1,1-54.24-54.23A54.24,54.24,0,0,1,822.8,401.61Zm-54.24-39.32a39.33,39.33,0,1,0,39.34,39.32A39.33,39.33,0,0,0,768.57,362.28Z" transform="translate(-309.72 -171.31)"/><path class="cls-14" d="M774.09,346.25c-0.06-1-.78-12.7-0.78-12.7a2.4,2.4,0,0,0-1.78-2.25,17.93,17.93,0,0,0-5.92,0,2.4,2.4,0,0,0-1.79,2.25s-0.73,11.74-.79,12.7-2.24,1.61-2.24,1.61c-0.13,1.49-.2,2.23-0.33,3.73a1.85,1.85,0,0,0,2,1.92h12.2a1.85,1.85,0,0,0,2-1.92c-0.13-1.49-.2-2.24-0.33-3.73C776.33,347.86,774.15,347.2,774.09,346.25Z" transform="translate(-309.72 -171.31)"/><path class="cls-14" d="M754.83,347.71c-0.38-.89-5.08-11.67-5.08-11.67a2.4,2.4,0,0,0-2.45-1.5,18,18,0,0,0-5.56,2,2.41,2.41,0,0,0-.91,2.72l3.61,12.2c0.27,0.92-1.56,2.28-1.56,2.28,0.38,1.45.58,2.17,1,3.62a1.84,1.84,0,0,0,2.52,1.11l5.74-2.09,5.73-2.09a1.85,1.85,0,0,0,1.22-2.48l-1.59-3.39S755.2,348.57,754.83,347.71Z" transform="translate(-309.72 -171.31)"/><path class="cls-14" d="M737.22,355.65l-8.76-9.22a2.42,2.42,0,0,0-2.82-.57,18.15,18.15,0,0,0-4.53,3.8,2.39,2.39,0,0,0,.09,2.87l7.55,10.23c0.56,0.77-.68,2.68-0.68,2.68l2.14,3.06a1.85,1.85,0,0,0,2.76.19l4.67-3.92,4.68-3.92a1.85,1.85,0,0,0,.3-2.75L740,355.45S737.87,356.34,737.22,355.65Z" transform="translate(-309.72 -171.31)"/><path class="cls-14" d="M723.39,369.14L712,363.48a2.39,2.39,0,0,0-2.84.42,18.21,18.21,0,0,0-3,5.12,2.42,2.42,0,0,0,1.06,2.67l10.6,7c0.8,0.53.28,2.75,0.28,2.75l3.06,2.15a1.84,1.84,0,0,0,2.65-.77l3.05-5.28,3.05-5.28a1.85,1.85,0,0,0-.66-2.69L725.9,368S724.25,369.57,723.39,369.14Z" transform="translate(-309.72 -171.31)"/><path class="cls-14" d="M715,386.55l-12.64-1.43a2.4,2.4,0,0,0-2.53,1.37,17.81,17.81,0,0,0-1,5.83,2.38,2.38,0,0,0,1.9,2.14l12.37,3c0.93,0.22,1.2,2.48,1.2,2.48l3.61,1a1.85,1.85,0,0,0,2.23-1.63l1.06-6c0.42-2.41.63-3.61,1.06-6a1.85,1.85,0,0,0-1.55-2.29l-3.72-.32S716,386.66,715,386.55Z" transform="translate(-309.72 -171.31)"/><path class="cls-14" d="M713.09,405.78l-12.37,3a2.4,2.4,0,0,0-1.91,2.15,18.09,18.09,0,0,0,1,5.83,2.41,2.41,0,0,0,2.53,1.36L715,416.67c1-.11,2,1.93,2,1.93l3.73-.32a1.85,1.85,0,0,0,1.54-2.3c-0.42-2.41-.63-3.6-1.05-6l-1.06-6a1.85,1.85,0,0,0-2.24-1.63l-3.61,1S714,405.55,713.09,405.78Z" transform="translate(-309.72 -171.31)"/><path class="cls-14" d="M717.86,424.51l-10.6,7a2.42,2.42,0,0,0-1.06,2.67,18.16,18.16,0,0,0,3,5.13,2.41,2.41,0,0,0,2.85.42l11.38-5.66c0.85-.43,2.52,1.13,2.52,1.13l3.39-1.58a1.85,1.85,0,0,0,.66-2.68l-3.05-5.28-3-5.28a1.85,1.85,0,0,0-2.66-.77l-3.06,2.15S718.66,424,717.86,424.51Z" transform="translate(-309.72 -171.31)"/><path class="cls-14" d="M728.75,440.46l-7.56,10.23a2.4,2.4,0,0,0-.08,2.87,18,18,0,0,0,4.53,3.81,2.42,2.42,0,0,0,2.82-.58l8.76-9.21c0.66-.69,2.75.2,2.75,0.2l2.65-2.64a1.85,1.85,0,0,0-.3-2.76l-4.67-3.92L733,434.53a1.85,1.85,0,0,0-2.76.19c-0.85,1.23-1.28,1.84-2.14,3.06C728.07,437.79,729.32,439.69,728.75,440.46Z" transform="translate(-309.72 -171.31)"/><path class="cls-14" d="M744.44,451.73c-0.27.92-3.6,12.2-3.6,12.2a2.4,2.4,0,0,0,.91,2.73,17.92,17.92,0,0,0,5.56,2,2.39,2.39,0,0,0,2.45-1.5l5.08-11.66c0.38-.87,2.65-0.75,2.65-0.75l1.59-3.39a1.84,1.84,0,0,0-1.22-2.48l-5.73-2.09-5.74-2.09a1.84,1.84,0,0,0-2.53,1.12c-0.39,1.45-.58,2.17-1,3.62C742.89,449.46,744.71,450.82,744.44,451.73Z" transform="translate(-309.72 -171.31)"/><path class="cls-14" d="M763,457c0.06,1,.78,12.7.78,12.7a2.4,2.4,0,0,0,1.79,2.25,17.89,17.89,0,0,0,5.91,0,2.39,2.39,0,0,0,1.78-2.25s0.72-11.74.79-12.7,2.24-1.61,2.24-1.61c0.13-1.49.2-2.24,0.33-3.73a1.85,1.85,0,0,0-2-1.92h-12.2a1.85,1.85,0,0,0-2,1.92c0.13,1.49.2,2.23,0.33,3.73C760.8,455.35,763,456,763,457Z" transform="translate(-309.72 -171.31)"/><path class="cls-14" d="M782.31,455.52l5.08,11.66a2.39,2.39,0,0,0,2.45,1.5,17.92,17.92,0,0,0,5.56-2,2.42,2.42,0,0,0,.91-2.73s-3.34-11.28-3.61-12.2,1.56-2.27,1.56-2.27c-0.38-1.45-.58-2.17-1-3.62a1.84,1.84,0,0,0-2.53-1.11L785,446.81l-5.73,2.09a1.84,1.84,0,0,0-1.22,2.49c0.63,1.35,1,2,1.58,3.39C779.65,454.77,781.92,454.64,782.31,455.52Z" transform="translate(-309.72 -171.31)"/><path class="cls-14" d="M799.92,447.57l8.76,9.21a2.41,2.41,0,0,0,2.82.58,18.23,18.23,0,0,0,4.53-3.81,2.41,2.41,0,0,0-.08-2.87l-7.56-10.23c-0.57-.77.68-2.67,0.68-2.67l-2.15-3.06a1.84,1.84,0,0,0-2.75-.19l-4.68,3.92-4.68,3.92a1.86,1.86,0,0,0-.3,2.76l2.65,2.64S799.26,446.88,799.92,447.57Z" transform="translate(-309.72 -171.31)"/><path class="cls-14" d="M813.74,434.08l11.39,5.67a2.41,2.41,0,0,0,2.84-.42,18.18,18.18,0,0,0,3-5.13,2.4,2.4,0,0,0-1.07-2.67l-10.6-7c-0.8-.53-0.27-2.75-0.27-2.75-1.23-.86-1.83-1.3-3.06-2.15a1.84,1.84,0,0,0-2.66.77l-3.05,5.29-3.05,5.29a1.85,1.85,0,0,0,.66,2.68l3.39,1.58S812.89,433.65,813.74,434.08Z" transform="translate(-309.72 -171.31)"/><path class="cls-14" d="M822.12,416.67l12.64,1.43a2.4,2.4,0,0,0,2.52-1.36,18,18,0,0,0,1-5.83,2.4,2.4,0,0,0-1.91-2.14l-12.36-3c-0.93-.22-1.2-2.48-1.2-2.48l-3.61-1A1.84,1.84,0,0,0,817,404c-0.43,2.4-.64,3.6-1.07,6s-0.63,3.59-1.06,6a1.85,1.85,0,0,0,1.54,2.3l3.73,0.32S821.17,416.55,822.12,416.67Z" transform="translate(-309.72 -171.31)"/><path class="cls-14" d="M824,397.44l12.37-3a2.42,2.42,0,0,0,1.9-2.15,18,18,0,0,0-1-5.84,2.41,2.41,0,0,0-2.52-1.36l-12.64,1.43c-1,.11-2-1.92-2-1.92l-3.73.32a1.84,1.84,0,0,0-1.54,2.29c0.42,2.41.63,3.61,1.06,6s0.64,3.6,1.06,6a1.85,1.85,0,0,0,2.23,1.63l3.62-1S823.11,397.66,824,397.44Z" transform="translate(-309.72 -171.31)"/><path class="cls-14" d="M819.27,378.72l10.6-7a2.42,2.42,0,0,0,1.07-2.67,18.1,18.1,0,0,0-3-5.12,2.4,2.4,0,0,0-2.84-.42l-11.39,5.67c-0.85.43-2.51-1.14-2.51-1.14l-3.4,1.58a1.85,1.85,0,0,0-.66,2.69l3,5.28,3,5.29a1.86,1.86,0,0,0,2.66.77l3.06-2.15S818.47,379.25,819.27,378.72Z" transform="translate(-309.72 -171.31)"/><path class="cls-14" d="M808.38,362.75l7.56-10.23a2.41,2.41,0,0,0,.08-2.87,18,18,0,0,0-4.53-3.8,2.42,2.42,0,0,0-2.82.57l-8.76,9.22c-0.65.69-2.75-.21-2.75-0.21l-2.65,2.64a1.85,1.85,0,0,0,.3,2.75l4.67,3.92,4.67,3.92a1.85,1.85,0,0,0,2.76-.18l2.15-3.07S807.81,363.52,808.38,362.75Z" transform="translate(-309.72 -171.31)"/><path class="cls-14" d="M792.69,351.48l3.61-12.2a2.41,2.41,0,0,0-.91-2.72,17.94,17.94,0,0,0-5.55-2,2.4,2.4,0,0,0-2.45,1.5l-5.08,11.67c-0.38.86-2.65,0.75-2.65,0.75l-1.59,3.38a1.85,1.85,0,0,0,1.22,2.48l5.73,2.09,5.73,2.09a1.85,1.85,0,0,0,2.53-1.11c0.39-1.46.58-2.17,1-3.62C794.25,353.76,792.42,352.4,792.69,351.48Z" transform="translate(-309.72 -171.31)"/><path class="cls-15" d="M932.09,410.37a49.55,49.55,0,1,1-58.5-38.59A49.56,49.56,0,0,1,932.09,410.37Zm-55.76-25.24a35.93,35.93,0,1,0,42.43,28A35.94,35.94,0,0,0,876.33,385.12Z" transform="translate(-309.72 -171.31)"/><path class="cls-15" d="M878.33,369.76l-3-11.22a2.19,2.19,0,0,0-2-1.69,16.35,16.35,0,0,0-5.3,1.09,2.19,2.19,0,0,0-1.19,2.34s1.5,10.64,1.63,11.51-1.71,1.85-1.71,1.85c0.15,1.36.23,2,.39,3.4a1.69,1.69,0,0,0,2.14,1.36l5.45-1.12,5.47-1.12a1.69,1.69,0,0,0,1.43-2.09c-0.39-1.31-.59-2-1-3.27C880.63,370.79,878.56,370.6,878.33,369.76Z" transform="translate(-309.72 -171.31)"/><path class="cls-15" d="M861.36,374.6l-6.69-9.51a2.2,2.2,0,0,0-2.47-.9A16.37,16.37,0,0,0,847.6,367a2.19,2.19,0,0,0-.31,2.6l5.47,10.25c0.41,0.77-1,2.33-1,2.33l1.53,3.06a1.68,1.68,0,0,0,2.46.54l4.75-2.92,4.75-2.92a1.69,1.69,0,0,0,.64-2.45l-2-2.74S861.85,375.3,861.36,374.6Z" transform="translate(-309.72 -171.31)"/><path class="cls-15" d="M847.05,384.94l-9.53-6.65a2.21,2.21,0,0,0-2.63,0,16.54,16.54,0,0,0-3.36,4.23,2.18,2.18,0,0,0,.6,2.55l8.64,7.77c0.65,0.59-.12,2.52-0.12,2.52l2.48,2.35a1.69,1.69,0,0,0,2.5-.33l3.46-4.37,3.47-4.37a1.69,1.69,0,0,0-.24-2.52l-2.86-1.88S847.77,385.44,847.05,384.94Z" transform="translate(-309.72 -171.31)"/><path class="cls-15" d="M837.15,399.55l-11.23-3a2.18,2.18,0,0,0-2.47.9,16.6,16.6,0,0,0-1.71,5.13,2.21,2.21,0,0,0,1.44,2.2L834,409.14c0.81,0.33.75,2.41,0.75,2.41l3.14,1.36a1.69,1.69,0,0,0,2.23-1.18l1.76-5.29,1.76-5.29a1.69,1.69,0,0,0-1.09-2.28l-3.32-.79S838,399.78,837.15,399.55Z" transform="translate(-309.72 -171.31)"/><path class="cls-15" d="M832.85,416.67l-11.58,1a2.2,2.2,0,0,0-2,1.69,16.32,16.32,0,0,0,.15,5.4,2.18,2.18,0,0,0,2.1,1.57l11.62,0.4c0.87,0,1.53,2,1.53,2l3.41,0.21a1.69,1.69,0,0,0,1.7-1.87c-0.06-2.23-.09-3.34-0.15-5.57s-0.09-3.34-.15-5.58a1.69,1.69,0,0,0-1.81-1.77l-3.39.4S833.72,416.6,832.85,416.67Z" transform="translate(-309.72 -171.31)"/><path class="cls-15" d="M834.66,434.23l-10.52,4.94a2.2,2.2,0,0,0-1.31,2.27,16.5,16.5,0,0,0,2,5,2.19,2.19,0,0,0,2.51.75l11.05-3.6c0.83-.28,2.12,1.36,2.12,1.36l3.27-1a1.68,1.68,0,0,0,1-2.34c-0.81-2.08-1.23-3.11-2-5.18l-2.05-5.19a1.69,1.69,0,0,0-2.3-1.05l-3.05,1.53S835.45,433.86,834.66,434.23Z" transform="translate(-309.72 -171.31)"/><path class="cls-15" d="M842.36,450.12l-8.2,8.23a2.21,2.21,0,0,0-.46,2.59,16.6,16.6,0,0,0,3.59,4,2.2,2.2,0,0,0,2.62-.15l9.15-7.16c0.68-.54,2.46.55,2.46,0.55l2.75-2a1.69,1.69,0,0,0,.1-2.52l-3.7-4.17-3.7-4.17a1.69,1.69,0,0,0-2.52-.2l-2.35,2.48S843,449.5,842.36,450.12Z" transform="translate(-309.72 -171.31)"/><path class="cls-15" d="M855,462.4c-0.36.8-4.89,10.54-4.89,10.54a2.2,2.2,0,0,0,.45,2.58,16.42,16.42,0,0,0,4.75,2.57,2.21,2.21,0,0,0,2.42-1l6.15-9.85c0.46-.74,2.5-0.32,2.5-0.32L868.3,464a1.69,1.69,0,0,0-.78-2.41l-4.9-2.65-4.91-2.65a1.68,1.68,0,0,0-2.43.67l-1.35,3.14S855.4,461.61,855,462.4Z" transform="translate(-309.72 -171.31)"/><path class="cls-15" d="M871.14,469.61c-0.07.88-1,11.58-1,11.58a2.19,2.19,0,0,0,1.31,2.27,16.31,16.31,0,0,0,5.34.79,2.18,2.18,0,0,0,1.92-1.8s2.23-10.51,2.4-11.37,2.24-1.16,2.24-1.16l0.8-3.32a1.69,1.69,0,0,0-1.55-2l-5.51-.82-5.52-.82a1.68,1.68,0,0,0-2.06,1.46c-0.08,1.37-.12,2.05-0.2,3.42C869.34,467.86,871.22,468.74,871.14,469.61Z" transform="translate(-309.72 -171.31)"/><path class="cls-15" d="M888.75,470.88l3,11.22a2.19,2.19,0,0,0,2,1.68,16.38,16.38,0,0,0,5.29-1.08,2.19,2.19,0,0,0,1.19-2.34s-1.51-10.64-1.63-11.51,1.71-1.85,1.71-1.85c-0.16-1.36-.23-2-0.39-3.4a1.69,1.69,0,0,0-2.14-1.35l-5.46,1.12-5.46,1.12a1.69,1.69,0,0,0-1.44,2.09l1,3.28S888.53,470,888.75,470.88Z" transform="translate(-309.72 -171.31)"/><path class="cls-15" d="M905.73,466.05l6.68,9.5a2.18,2.18,0,0,0,2.46.9,16.3,16.3,0,0,0,4.61-2.83,2.2,2.2,0,0,0,.31-2.61l-5.47-10.26c-0.41-.76,1-2.32,1-2.32-0.61-1.23-.92-1.83-1.53-3.06a1.68,1.68,0,0,0-2.47-.53l-4.75,2.91-4.75,2.92a1.68,1.68,0,0,0-.64,2.45c0.82,1.1,1.23,1.64,2,2.74C903.21,465.87,905.23,465.33,905.73,466.05Z" transform="translate(-309.72 -171.31)"/><path class="cls-15" d="M920,455.71l9.53,6.64a2.21,2.21,0,0,0,2.63,0,16.63,16.63,0,0,0,3.35-4.24,2.2,2.2,0,0,0-.6-2.55l-8.64-7.77c-0.65-.58.12-2.52,0.12-2.52l-2.48-2.35a1.68,1.68,0,0,0-2.5.34L918,447.63,914.51,452a1.7,1.7,0,0,0,.24,2.52l2.86,1.88S919.32,455.21,920,455.71Z" transform="translate(-309.72 -171.31)"/><path class="cls-15" d="M929.94,441.09l11.23,3a2.2,2.2,0,0,0,2.47-.9,16.58,16.58,0,0,0,1.71-5.13,2.19,2.19,0,0,0-1.44-2.19l-10.77-4.34c-0.81-.33-0.75-2.41-0.75-2.41-1.25-.55-1.88-0.83-3.13-1.36a1.69,1.69,0,0,0-2.24,1.17l-1.76,5.29c-0.71,2.11-1.06,3.17-1.76,5.29a1.69,1.69,0,0,0,1.08,2.28l3.32,0.79S929.1,440.87,929.94,441.09Z" transform="translate(-309.72 -171.31)"/><path class="cls-15" d="M934.24,424l11.58-1a2.19,2.19,0,0,0,2-1.68,16.47,16.47,0,0,0-.15-5.41,2.2,2.2,0,0,0-2.11-1.57l-11.61-.4c-0.87,0-1.53-2-1.53-2l-3.41-.21a1.69,1.69,0,0,0-1.7,1.87c0.06,2.23.09,3.34,0.15,5.58s0.09,3.33.16,5.57a1.69,1.69,0,0,0,1.8,1.78l3.4-.4S933.37,424,934.24,424Z" transform="translate(-309.72 -171.31)"/><path class="cls-15" d="M932.43,406.41L943,401.48a2.21,2.21,0,0,0,1.31-2.27,16.48,16.48,0,0,0-2-5,2.2,2.2,0,0,0-2.51-.76L928.72,397c-0.83.27-2.12-1.36-2.12-1.36l-3.28,1a1.68,1.68,0,0,0-1,2.34c0.81,2.08,1.23,3.11,2,5.18s1.23,3.11,2.05,5.18a1.69,1.69,0,0,0,2.3,1.05l3.06-1.53S931.64,406.78,932.43,406.41Z" transform="translate(-309.72 -171.31)"/><path class="cls-15" d="M924.72,390.53l8.2-8.23a2.21,2.21,0,0,0,.46-2.59,16.48,16.48,0,0,0-3.59-4,2.19,2.19,0,0,0-2.62.15L918,383c-0.68.54-2.46-.56-2.46-0.56l-2.75,2a1.69,1.69,0,0,0-.09,2.53l3.7,4.16,3.7,4.17a1.7,1.7,0,0,0,2.53.2L925,393S924.11,391.15,924.72,390.53Z" transform="translate(-309.72 -171.31)"/><path class="cls-15" d="M912.05,378.24l4.89-10.54a2.2,2.2,0,0,0-.45-2.59,16.48,16.48,0,0,0-4.75-2.57,2.21,2.21,0,0,0-2.42,1l-6.15,9.86c-0.46.74-2.5,0.32-2.5,0.32l-1.89,2.85a1.69,1.69,0,0,0,.77,2.41l4.9,2.65,4.9,2.65a1.69,1.69,0,0,0,2.44-.67l1.36-3.14S911.68,379,912.05,378.24Z" transform="translate(-309.72 -171.31)"/><path class="cls-15" d="M895.94,371l1-11.58a2.2,2.2,0,0,0-1.31-2.27,16.38,16.38,0,0,0-5.34-.79,2.2,2.2,0,0,0-1.92,1.8L886,369.55c-0.18.84-2.24,1.15-2.24,1.15l-0.8,3.32a1.69,1.69,0,0,0,1.55,2l5.51,0.82,5.51,0.82a1.69,1.69,0,0,0,2.06-1.46c0.08-1.37.12-2.05,0.2-3.42C897.75,372.78,895.86,371.9,895.94,371Z" transform="translate(-309.72 -171.31)"/><text class="cls-16" transform="translate(115.52 40.81) rotate(2.38)">TREASU<tspan x="57.73" y="0">R</tspan><tspan x="67.16" y="0">Y</tspan><tspan x="0" y="19.65">BONDS</tspan></text><text class="cls-17" transform="translate(380.08 87.33)">REPO <tspan x="-15" y="17.84">FINANCING</tspan></text><text class="cls-17" transform="translate(294.5 212.95)">CORPOR<tspan class="cls-18" x="54.19" y="0">A</tspan><tspan x="62.07" y="0">TE </tspan><tspan x="18.59" y="17.84">BONDS</tspan></text><text class="cls-19" transform="translate(425.57 235.65)">MO<tspan x="16.43" y="0">R</tspan><tspan x="23.77" y="0">TG</tspan><tspan x="37.73" y="0">A</tspan><tspan x="44.9" y="0">GES</tspan></text><text class="cls-17" transform="translate(235.76 336.15)">EMERGING <tspan x="2.97" y="17.84">MARKETS</tspan></text><text class="cls-17" transform="translate(190.06 193.96)">MONEY <tspan x="-3.83" y="17.84">MARKET</tspan></text><text class="cls-17" transform="translate(520.21 134.36)">FED <tspan x="-9.89" y="17.84">POLICY</tspan></text><text class="cls-17" transform="translate(495.6 356.35)"><tspan class="cls-20"> R&amp;D </tspan><tspan x="-18.3" y="17.84">SUBSIDIES</tspan></text></svg>