<?xml version="1.0" encoding="utf-8"?>
<!-- Generator: Adobe Illustrator 19.2.1, SVG Export Plug-In . SVG Version: 6.00 Build 0)  -->
<svg version="1.1" id="Layer_1" xmlns="http://www.w3.org/2000/svg" xmlns:xlink="http://www.w3.org/1999/xlink" x="0px" y="0px"
	 viewBox="0 0 877.2 296.4" style="enable-background:new 0 0 877.2 296.4;" xml:space="preserve">
<style type="text/css">
	.st0{opacity:0.25;}
	.st1{fill:#F1F1F2;}
	.st2{fill:#8FA0AD;}
	.st3{fill:#E6E7E7;}
	.st4{fill:#D0D2D3;}
	.st5{fill:#BBBDBF;}
	.st6{fill:#EBECEC;}
	.st7{fill:#989898;}
	.st8{fill:#E6E7E7;stroke:#6D6E70;stroke-width:0.62;stroke-miterlimit:10;}
	.st9{fill:#E6E7E7;stroke:#6D6E70;stroke-width:0.58;stroke-miterlimit:10;}
	.st10{fill:#FFFFFF;}
	.st11{fill:#808080;}
</style>
<title>ART3background</title>
<g id="government_buildings" class="st0">
	<rect x="11.9" y="145" class="st1" width="319.4" height="103.8"/>
	<rect x="129.2" y="139.4" class="st2" width="85.8" height="106.6"/>
	<path class="st3" d="M172,0c-44,0-80,26.8-84.3,61.1h168.6C252,26.8,215.9,0,172,0z"/>
	<rect x="84.7" y="51.4" class="st3" width="174.6" height="21.6"/>
	<rect x="71.3" y="72" class="st3" width="201.3" height="33.2"/>
	<rect x="5.3" y="120.9" class="st3" width="332.5" height="10.4"/>
	<rect x="12.2" y="104.1" class="st3" width="319.4" height="19.6"/>
	<rect x="11.9" y="129.6" class="st3" width="319.4" height="18.2"/>
	<polygon class="st4" points="172,69 289.2,121 54.8,121 	"/>
	<rect x="67" y="126.5" class="st4" width="12.9" height="117.4"/>
	<rect x="94.4" y="126.5" class="st4" width="12.9" height="117.4"/>
	<rect x="122.8" y="126.5" class="st4" width="12.9" height="117.4"/>
	<rect x="150.6" y="126.5" class="st4" width="12.9" height="117.4"/>
	<rect x="180.1" y="126.5" class="st4" width="12.9" height="117.4"/>
	<rect x="208.6" y="126.5" class="st4" width="12.9" height="117.4"/>
	<rect x="236.9" y="126.5" class="st4" width="12.9" height="117.4"/>
	<rect x="264" y="126.5" class="st4" width="12.9" height="117.4"/>
	<path class="st4" d="M83.5,146.8v-0.4h-0.9c-0.6-0.1-1.2-0.1-1.8,0H66c-0.6-0.1-1.2-0.1-1.8,0h-0.9v0.3c-1.6,0.9-2.6,2.6-2.5,4.4
		c-0.2,2.5,1.8,4.7,4.3,4.9c0,0,0,0,0,0c2.3-0.1,4.1-1.9,4.3-4.1h8c0.2,2.3,2,4,4.3,4.1c2.5-0.2,4.5-2.3,4.3-4.9
		C86,149.3,85.1,147.7,83.5,146.8z"/>
	<path class="st4" d="M111,146.8v-0.4h-1c-0.6-0.1-1.2-0.1-1.8,0H93.5c-0.6-0.1-1.2-0.1-1.8,0h-0.9v0.3c-1.6,0.9-2.6,2.6-2.5,4.4
		c-0.2,2.5,1.8,4.7,4.3,4.9c0,0,0,0,0,0l0,0c2.3-0.1,4.1-1.9,4.3-4.1h8c0.2,2.3,2,4,4.3,4.1c2.5-0.1,4.5-2.3,4.3-4.8
		C113.5,149.4,112.6,147.7,111,146.8z"/>
	<path class="st4" d="M139.3,146.8v-0.4h-0.9c-0.6-0.1-1.2-0.1-1.8,0h-14.8c-0.6-0.1-1.2-0.1-1.8,0h-0.9v0.3
		c-1.6,0.9-2.6,2.6-2.5,4.4c-0.1,2.5,1.8,4.7,4.3,4.8c2.3-0.1,4.1-1.9,4.3-4.1h8c0.2,2.3,2,4,4.3,4.1c2.5-0.1,4.5-2.3,4.3-4.8
		C141.9,149.3,140.9,147.6,139.3,146.8z"/>
	<path class="st4" d="M167.2,146.8v-0.4h-0.9c-0.6-0.1-1.2-0.1-1.8,0h-14.8c-0.6-0.1-1.2-0.1-1.8,0H147v0.3
		c-1.6,0.9-2.6,2.6-2.5,4.4c-0.1,2.5,1.8,4.7,4.3,4.8c2.3-0.1,4.1-1.9,4.3-4.1h8c0.2,2.3,2,4,4.3,4.1c2.5-0.1,4.5-2.3,4.3-4.8
		C169.7,149.3,168.8,147.6,167.2,146.8z"/>
	<path class="st4" d="M196.6,146.8v-0.4h-0.9c-0.6-0.1-1.2-0.1-1.8,0h-14.8c-0.6-0.1-1.2-0.1-1.8,0h-0.9v0.3
		c-1.6,0.9-2.6,2.6-2.5,4.4c-0.1,2.5,1.8,4.7,4.3,4.8c2.3-0.1,4.1-1.9,4.3-4.1h8c0.2,2.3,2,4,4.3,4.1c2.5-0.1,4.5-2.3,4.3-4.8
		C199.1,149.3,198.2,147.7,196.6,146.8z"/>
	<path class="st4" d="M225.1,146.8v-0.4h-0.9c-0.6-0.1-1.2-0.1-1.8,0h-14.8c-0.6-0.1-1.2-0.1-1.8,0h-0.9v0.3
		c-1.6,0.9-2.6,2.6-2.5,4.4c-0.1,2.5,1.8,4.7,4.3,4.8c2.3-0.1,4.1-1.9,4.3-4.1h8c0.2,2.3,2,4.1,4.3,4.2c2.5-0.1,4.5-2.3,4.3-4.8
		C227.7,149.4,226.7,147.7,225.1,146.8z"/>
	<path class="st4" d="M253.5,146.8v-0.4h-0.9c-0.6-0.1-1.2-0.1-1.8,0H236c-0.6-0.1-1.2-0.1-1.8,0h-0.9v0.3c-1.6,0.9-2.6,2.6-2.5,4.4
		c-0.2,2.5,1.8,4.7,4.3,4.9c2.3-0.1,4.1-1.9,4.3-4.1h8c0.2,2.3,2,4,4.3,4.1c2.5-0.1,4.5-2.3,4.3-4.8
		C256,149.4,255.1,147.7,253.5,146.8z"/>
	<path class="st4" d="M280.6,146.8v-0.4h-0.9c-0.6-0.1-1.2-0.1-1.8,0h-14.8c-0.6-0.1-1.2-0.1-1.8,0h-0.9v0.3
		c-1.6,0.9-2.6,2.6-2.5,4.4c-0.1,2.5,1.8,4.7,4.3,4.8c2.3-0.1,4.1-1.9,4.3-4.1h8c0.2,2.3,2,4,4.3,4.1c2.5-0.1,4.5-2.3,4.3-4.8
		C283.1,149.3,282.2,147.7,280.6,146.8z"/>
	<rect x="62" y="120.6" class="st4" width="219.9" height="27.2"/>
	<rect x="41.9" y="126.5" class="st3" width="12.9" height="117.4"/>
	<rect x="22.2" y="126.5" class="st3" width="12.9" height="117.4"/>
	<rect x="11.9" y="126.5" class="st3" width="6.4" height="117.4"/>
	<rect x="288.4" y="126.5" class="st3" width="12.9" height="117.4"/>
	<rect x="308" y="126.5" class="st3" width="12.9" height="117.4"/>
	<rect x="324.8" y="126.5" class="st3" width="6.5" height="117.4"/>
	<rect x="11.9" y="242.9" class="st4" width="319.4" height="24"/>
	<rect y="265.8" class="st4" width="343.8" height="30.6"/>
	<rect x="62" y="134.5" class="st5" width="219.9" height="2.9"/>
	<rect x="47.5" y="90.9" transform="matrix(0.9162 -0.4007 0.4007 0.9162 -27.9484 53.0713)" class="st5" width="131" height="5"/>
	<rect x="228.4" y="28" transform="matrix(0.4007 -0.9162 0.9162 0.4007 52.7926 267.5709)" class="st5" width="5" height="131"/>
	<rect x="51.9" y="117.4" class="st5" width="240" height="4.6"/>
	<rect x="523" y="94.9" class="st6" width="197.1" height="30.3"/>
	<rect x="755.8" y="96.1" class="st6" width="14.6" height="25"/>
	<rect x="752.7" y="91.9" class="st6" width="20.9" height="6"/>
	<rect x="472.5" y="95.5" class="st6" width="14.6" height="25"/>
	<rect x="469.4" y="91.3" class="st6" width="20.9" height="6"/>
	<rect x="370" y="111.1" class="st6" width="503.1" height="185.3"/>
	<rect x="529" y="171.5" class="st4" width="11.4" height="119.2"/>
	<rect x="584.7" y="171.5" class="st4" width="11.4" height="119.2"/>
	<rect x="647.4" y="171.5" class="st4" width="11.4" height="119.2"/>
	<rect x="702.8" y="171.5" class="st4" width="11.4" height="119.2"/>
	<path class="st4" d="M543.6,172.7v-0.3h-0.8c-0.5-0.1-1-0.1-1.6,0h-13.1c-0.5-0.1-1-0.1-1.6,0h-0.8v0.3c-1.5,1-2.3,2.6-2.2,4.4
		c0,2.7,1.7,4.8,3.8,4.8c1.9,0,3.5-1.8,3.8-4.1h7.1c0.3,2.3,1.8,4.1,3.8,4.1c2.1,0,3.8-2.2,3.8-4.8
		C545.9,175.4,545.1,173.7,543.6,172.7z"/>
	<path class="st4" d="M599.3,172.7v-0.3h-0.8c-0.5-0.1-1-0.1-1.5,0h-13.1c-0.5-0.1-1-0.1-1.5,0h-0.8v0.3c-1.5,1-2.3,2.6-2.2,4.4
		c0,2.7,1.7,4.8,3.8,4.8c1.9,0,3.5-1.8,3.8-4.1h7.1c0.3,2.3,1.9,4.1,3.8,4.1c2.1,0,3.8-2.2,3.8-4.8
		C601.6,175.4,600.8,173.7,599.3,172.7z"/>
	<path class="st4" d="M662,172.7v-0.3h-0.8c-0.5-0.1-1-0.1-1.6,0h-13.1c-0.5-0.1-1-0.1-1.6,0h-0.8v0.3c-1.5,1-2.3,2.6-2.2,4.4
		c0,2.7,1.7,4.8,3.8,4.8c1.9,0,3.5-1.8,3.8-4.1h7.1c0.3,2.3,1.8,4.1,3.8,4.1c2.1,0,3.8-2.2,3.8-4.8
		C664.3,175.4,663.5,173.7,662,172.7z"/>
	<path class="st4" d="M717.4,172.7v-0.3h-0.8c-0.5-0.1-1-0.1-1.5,0h-13.1c-0.5-0.1-1-0.1-1.5,0h-0.8v0.3c-1.5,1-2.3,2.6-2.2,4.4
		c0,2.7,1.7,4.8,3.8,4.8c1.9,0,3.5-1.8,3.8-4.1h7.1c0.3,2.3,1.8,4.1,3.8,4.1c2.1,0,3.8-2.2,3.8-4.8
		C719.7,175.4,718.9,173.7,717.4,172.7z"/>
	<rect x="527" y="274.9" class="st4" width="15.3" height="21.5"/>
	<rect x="582.7" y="274.9" class="st4" width="15.3" height="21.5"/>
	<rect x="645.4" y="274.9" class="st4" width="15.3" height="21.5"/>
	<rect x="701.1" y="274.9" class="st4" width="15.3" height="21.5"/>
	<rect x="375.1" y="115.8" class="st7" width="2.8" height="12.6"/>
	<rect x="379.2" y="115.8" class="st7" width="2.8" height="12.6"/>
	<rect x="383.8" y="115.8" class="st7" width="2.8" height="12.6"/>
	<rect x="388.1" y="115.8" class="st7" width="2.8" height="12.6"/>
	<rect x="392.5" y="115.8" class="st7" width="2.8" height="12.6"/>
	<rect x="396.9" y="115.8" class="st7" width="2.8" height="12.6"/>
	<rect x="401.4" y="115.8" class="st7" width="2.8" height="12.6"/>
	<rect x="420" y="115.8" class="st7" width="2.8" height="12.6"/>
	<rect x="424.2" y="115.8" class="st7" width="2.8" height="12.6"/>
	<rect x="428.8" y="115.8" class="st7" width="2.8" height="12.6"/>
	<rect x="433" y="115.8" class="st7" width="2.8" height="12.6"/>
	<rect x="437.4" y="115.8" class="st7" width="2.8" height="12.6"/>
	<rect x="441.8" y="115.8" class="st7" width="2.8" height="12.6"/>
	<rect x="446.3" y="115.8" class="st7" width="2.8" height="12.6"/>
	<rect x="465.4" y="115.8" class="st7" width="2.8" height="12.6"/>
	<rect x="469.6" y="115.8" class="st7" width="2.8" height="12.6"/>
	<rect x="474.2" y="115.8" class="st7" width="2.8" height="12.6"/>
	<rect x="478.5" y="115.8" class="st7" width="2.8" height="12.6"/>
	<rect x="482.9" y="115.8" class="st7" width="2.8" height="12.6"/>
	<rect x="487.3" y="115.8" class="st7" width="2.8" height="12.6"/>
	<rect x="491.8" y="115.8" class="st7" width="2.8" height="12.6"/>
	<rect x="508.5" y="115.8" class="st7" width="2.8" height="12.6"/>
	<rect x="512.7" y="115.8" class="st7" width="2.8" height="12.6"/>
	<rect x="517.3" y="115.8" class="st7" width="2.8" height="12.6"/>
	<rect x="521.5" y="115.8" class="st7" width="2.8" height="12.6"/>
	<rect x="525.9" y="115.8" class="st7" width="2.8" height="12.6"/>
	<rect x="530.3" y="115.8" class="st7" width="2.8" height="12.6"/>
	<rect x="534.8" y="115.8" class="st7" width="2.8" height="12.6"/>
	<rect x="706" y="116.6" class="st7" width="2.8" height="12.6"/>
	<rect x="710.2" y="116.6" class="st7" width="2.8" height="12.6"/>
	<rect x="714.8" y="116.6" class="st7" width="2.8" height="12.6"/>
	<rect x="719.1" y="116.6" class="st7" width="2.8" height="12.6"/>
	<rect x="723.5" y="116.6" class="st7" width="2.8" height="12.6"/>
	<rect x="727.9" y="116.6" class="st7" width="2.8" height="12.6"/>
	<rect x="732.3" y="116.6" class="st7" width="2.8" height="12.6"/>
	<rect x="751" y="116.6" class="st7" width="2.8" height="12.6"/>
	<rect x="755.2" y="116.6" class="st7" width="2.8" height="12.6"/>
	<rect x="759.8" y="116.6" class="st7" width="2.8" height="12.6"/>
	<rect x="764" y="116.6" class="st7" width="2.8" height="12.6"/>
	<rect x="768.4" y="116.6" class="st7" width="2.8" height="12.6"/>
	<rect x="772.8" y="116.6" class="st7" width="2.8" height="12.6"/>
	<rect x="777.3" y="116.6" class="st7" width="2.8" height="12.6"/>
	<rect x="796.4" y="116.6" class="st7" width="2.8" height="12.6"/>
	<rect x="800.6" y="116.6" class="st7" width="2.8" height="12.6"/>
	<rect x="805.2" y="116.6" class="st7" width="2.8" height="12.6"/>
	<rect x="809.4" y="116.6" class="st7" width="2.8" height="12.6"/>
	<rect x="813.8" y="116.6" class="st7" width="2.8" height="12.6"/>
	<rect x="818.2" y="116.6" class="st7" width="2.8" height="12.6"/>
	<rect x="822.7" y="116.6" class="st7" width="2.8" height="12.6"/>
	<rect x="839.5" y="116.6" class="st7" width="2.8" height="12.6"/>
	<rect x="843.7" y="116.6" class="st7" width="2.8" height="12.6"/>
	<rect x="848.3" y="116.6" class="st7" width="2.8" height="12.6"/>
	<rect x="852.5" y="116.6" class="st7" width="2.8" height="12.6"/>
	<rect x="856.9" y="116.6" class="st7" width="2.8" height="12.6"/>
	<rect x="861.3" y="116.6" class="st7" width="2.8" height="12.6"/>
	<rect x="865.8" y="116.6" class="st7" width="2.8" height="12.6"/>
	<rect x="609.5" y="248.7" class="st2" width="26.4" height="47.7"/>
	<path class="st4" d="M622.7,226.8c-8.9,0-16,8.7-16,14.8h32.1C638.8,235.5,631.5,226.8,622.7,226.8z"/>
	<rect x="686.4" y="174.9" class="st2" width="5.1" height="8.5"/>
	<rect x="680.2" y="174.9" class="st2" width="5.1" height="8.5"/>
	<rect x="674" y="174.9" class="st2" width="5.1" height="8.5"/>
	<rect x="686.5" y="184.4" class="st2" width="5.1" height="8.5"/>
	<rect x="680.3" y="184.4" class="st2" width="5.1" height="8.5"/>
	<rect x="674" y="184.4" class="st2" width="5.1" height="8.5"/>
	<rect x="686.5" y="193.8" class="st2" width="5.1" height="8.5"/>
	<rect x="680.3" y="193.8" class="st2" width="5.1" height="8.5"/>
	<rect x="674" y="193.8" class="st2" width="5.1" height="8.5"/>
	<rect x="686.4" y="203.2" class="st2" width="5.1" height="8.5"/>
	<rect x="680.2" y="203.2" class="st2" width="5.1" height="8.5"/>
	<rect x="674" y="203.2" class="st2" width="5.1" height="8.5"/>
	<rect x="626.3" y="175.1" class="st2" width="5.1" height="8.5"/>
	<rect x="620.1" y="175.1" class="st2" width="5.1" height="8.5"/>
	<rect x="614" y="175.1" class="st2" width="5.1" height="8.5"/>
	<rect x="626.4" y="184.6" class="st2" width="5.1" height="8.5"/>
	<rect x="620.2" y="184.6" class="st2" width="5.1" height="8.5"/>
	<rect x="614" y="184.6" class="st2" width="5.1" height="8.5"/>
	<rect x="626.4" y="194" class="st2" width="5.1" height="8.5"/>
	<rect x="620.2" y="194" class="st2" width="5.1" height="8.5"/>
	<rect x="614" y="194" class="st2" width="5.1" height="8.5"/>
	<rect x="626.3" y="203.4" class="st2" width="5.1" height="8.5"/>
	<rect x="620.1" y="203.4" class="st2" width="5.1" height="8.5"/>
	<rect x="614" y="203.4" class="st2" width="5.1" height="8.5"/>
	<rect x="566.4" y="175.4" class="st2" width="5.1" height="8.5"/>
	<rect x="560.2" y="175.4" class="st2" width="5.1" height="8.5"/>
	<rect x="554.1" y="175.4" class="st2" width="5.1" height="8.5"/>
	<rect x="566.5" y="184.8" class="st2" width="5.1" height="8.5"/>
	<rect x="560.3" y="184.8" class="st2" width="5.1" height="8.5"/>
	<rect x="554.1" y="184.8" class="st2" width="5.1" height="8.5"/>
	<rect x="566.5" y="194.3" class="st2" width="5.1" height="8.5"/>
	<rect x="560.3" y="194.3" class="st2" width="5.1" height="8.5"/>
	<rect x="554.1" y="194.3" class="st2" width="5.1" height="8.5"/>
	<rect x="566.4" y="203.7" class="st2" width="5.1" height="8.5"/>
	<rect x="560.2" y="203.7" class="st2" width="5.1" height="8.5"/>
	<rect x="554.1" y="203.7" class="st2" width="5.1" height="8.5"/>
	<rect x="566.4" y="240.6" class="st2" width="5.1" height="8.5"/>
	<rect x="560.2" y="240.6" class="st2" width="5.1" height="8.5"/>
	<rect x="554" y="240.6" class="st2" width="5.1" height="8.5"/>
	<rect x="566.4" y="250" class="st2" width="5.1" height="8.5"/>
	<rect x="560.2" y="250" class="st2" width="5.1" height="8.5"/>
	<rect x="554" y="250" class="st2" width="5.1" height="8.5"/>
	<rect x="566.4" y="259.4" class="st2" width="5.1" height="8.5"/>
	<rect x="560.2" y="259.4" class="st2" width="5.1" height="8.5"/>
	<rect x="554" y="259.4" class="st2" width="5.1" height="8.5"/>
	<rect x="566.4" y="268.9" class="st2" width="5.1" height="8.5"/>
	<rect x="560.2" y="268.9" class="st2" width="5.1" height="8.5"/>
	<rect x="554" y="268.9" class="st2" width="5.1" height="8.5"/>
	<rect x="686.3" y="242" class="st2" width="5.1" height="8.5"/>
	<rect x="680.1" y="242" class="st2" width="5.1" height="8.5"/>
	<rect x="674" y="242" class="st2" width="5.1" height="8.5"/>
	<rect x="686.4" y="251.5" class="st2" width="5.1" height="8.5"/>
	<rect x="680.2" y="251.5" class="st2" width="5.1" height="8.5"/>
	<rect x="674" y="251.5" class="st2" width="5.1" height="8.5"/>
	<rect x="686.4" y="260.9" class="st2" width="5.1" height="8.5"/>
	<rect x="680.2" y="260.9" class="st2" width="5.1" height="8.5"/>
	<rect x="674" y="260.9" class="st2" width="5.1" height="8.5"/>
	<rect x="686.3" y="270.3" class="st2" width="5.1" height="8.5"/>
	<rect x="680.1" y="270.3" class="st2" width="5.1" height="8.5"/>
	<rect x="674" y="270.3" class="st2" width="5.1" height="8.5"/>
	<rect x="616.5" y="222.4" class="st8" width="12.5" height="17.1"/>
	<rect x="618.8" y="222.4" class="st9" width="7.9" height="17.1"/>
	<polygon class="st9" points="628.7,222.4 616.8,222.4 622.8,213.5 	"/>
	<ellipse class="st2" cx="622.7" cy="213.1" rx="2.1" ry="1.8"/>
	<rect x="622.4" y="171.5" class="st2" width="0.6" height="39.8"/>
	<path class="st10" d="M652.2,60.1c-10.1-4.3-20.2,4.3-30.3,0V43.6c10.1,4.3,20.2-4.3,30.3,0V60.1L652.2,60.1L652.2,60.1z"/>
	<path class="st11" d="M652.2,44.9c-10.1-4.3-20.2,4.3-30.3,0v-1.3c10.1,4.3,20.2-4.3,30.3,0C652.2,43.6,652.2,44.9,652.2,44.9z"/>
	<path class="st11" d="M652.2,47.4c-10.1-4.3-20.2,4.3-30.3,0v-1.3c10.1,4.3,20.2-4.3,30.3,0V47.4z"/>
	<path class="st11" d="M652.2,49.9c-10.1-4.3-20.2,4.3-30.3,0v-1.3c10.1,4.3,20.2-4.3,30.3,0V49.9z"/>
	<path class="st11" d="M652.2,52.5c-10.1-4.3-20.2,4.3-30.3,0v-1.3c10.1,4.3,20.2-4.3,30.3,0V52.5z"/>
	<path class="st11" d="M652.2,55c-10.1-4.3-20.2,4.3-30.3,0v-1.3c10.1,4.3,20.2-4.3,30.3,0V55z"/>
	<path class="st11" d="M652.2,57.5c-10.1-4.3-20.2,4.3-30.3,0v-1.3c10.1,4.3,20.2-4.3,30.3,0V57.5z"/>
	<path class="st11" d="M652.2,60.1c-10.1-4.3-20.2,4.3-30.3,0v-1.3c10.1,4.3,20.2-4.3,30.3,0C652.2,58.8,652.2,60.1,652.2,60.1z"/>
	<path class="st11" d="M621.9,43.6c4.1,1.7,8.2,1.4,12.3,0.6V53c-4.1,0.8-8.2,1.2-12.3-0.6V43.6z"/>
	<path class="st10" d="M628.6,50l-0.3,0.2l0.1,0.3l-0.3-0.2l-0.3,0.2l0.1-0.4l-0.3-0.2h0.4l0.1-0.3l0.1,0.3H628.6z"/>
	<path class="st10" d="M627.5,50.8l-0.3,0.2l0.1,0.3l-0.3-0.2l-0.3,0.2c0-0.1,0.1-0.2,0.1-0.3l-0.3-0.3h0.4l0.1-0.3l0.1,0.3
		L627.5,50.8z"/>
	<path class="st10" d="M629.6,50.8l-0.3,0.3l0.1,0.3l-0.3-0.2l-0.3,0.2c0-0.1,0.1-0.2,0.1-0.4l-0.3-0.2h0.4c0-0.1,0.1-0.2,0.1-0.3
		l0.1,0.3L629.6,50.8z"/>
	<path class="st10" d="M629.6,49.1l-0.3,0.3l0.1,0.3l-0.3-0.2l-0.3,0.2c0-0.1,0.1-0.2,0.1-0.4l-0.3-0.2h0.4l0.1-0.3l0.1,0.3
		L629.6,49.1z"/>
	<path class="st10" d="M628.6,48.3l-0.3,0.2l0.1,0.3l-0.3-0.2l-0.3,0.2l0.1-0.4l-0.3-0.2h0.4l0.1-0.3l0.1,0.3
		C628.2,48.3,628.6,48.3,628.6,48.3z"/>
	<path class="st10" d="M631.6,48.9l-0.3,0.3l0.1,0.3l-0.3-0.2l-0.3,0.2c0-0.1,0.1-0.3,0.1-0.4l-0.3-0.2h0.4l0.1-0.3l0.1,0.4
		L631.6,48.9z"/>
	<path class="st10" d="M630.6,48.1l-0.3,0.3l0.1,0.3l-0.3-0.2l-0.3,0.2c0-0.1,0.1-0.2,0.1-0.4l-0.3-0.2h0.4l0.1-0.3l0.1,0.3
		L630.6,48.1z"/>
	<path class="st10" d="M630.6,46.4l-0.3,0.3l0.1,0.4l-0.3-0.2l-0.3,0.2c0-0.1,0.1-0.3,0.1-0.4l-0.3-0.2h0.4l0.1-0.3l0.1,0.3
		L630.6,46.4z"/>
	<path class="st10" d="M629.6,47.3l-0.3,0.3l0.1,0.3l-0.3-0.2l-0.3,0.2c0-0.1,0.1-0.2,0.1-0.4l-0.3-0.2h0.4c0-0.1,0.1-0.2,0.1-0.3
		l0.1,0.3L629.6,47.3z"/>
	<path class="st10" d="M629.6,45.6l-0.3,0.3l0.1,0.3l-0.3-0.2l-0.3,0.2c0-0.1,0.1-0.2,0.1-0.4l-0.3-0.2h0.4l0.1-0.3l0.1,0.3
		L629.6,45.6z"/>
	<path class="st10" d="M628.6,46.5l-0.3,0.2l0.1,0.3l-0.3-0.2l-0.3,0.2l0.1-0.4l-0.3-0.2h0.4l0.1-0.3l0.1,0.3
		C628.2,46.5,628.6,46.5,628.6,46.5z"/>
	<path class="st10" d="M627.5,45.6l-0.3,0.2l0.1,0.3L627,46l-0.3,0.2c0-0.1,0.1-0.2,0.1-0.3l-0.3-0.3h0.4l0.1-0.3l0.1,0.3H627.5z"/>
	<path class="st10" d="M623.4,44.9l-0.3,0.1l0.1,0.4l-0.3-0.3l-0.3,0.1c0-0.1,0.1-0.2,0.1-0.3l-0.3-0.3l0.2,0.1l0.2,0.1l0.1-0.3
		l0.1,0.4L623.4,44.9z"/>
	<path class="st10" d="M625.5,45.4l-0.3,0.2l0.1,0.4l-0.3-0.3l-0.3,0.2c0-0.1,0.1-0.2,0.1-0.3l-0.3-0.3h0.4l0.1-0.3l0.1,0.4
		L625.5,45.4z"/>
	<path class="st10" d="M626.5,46.4l-0.3,0.2l0.1,0.4l-0.3-0.3l-0.3,0.2c0-0.1,0.1-0.2,0.1-0.3l-0.3-0.3h0.4l0.1-0.3l0.1,0.3
		L626.5,46.4z"/>
	<path class="st10" d="M624.5,46.1l-0.3,0.2l0.1,0.4l-0.3-0.3l-0.3,0.1c0-0.1,0.1-0.2,0.1-0.3l-0.3-0.3h0.2h0.2l0.1-0.3l0.1,0.5
		L624.5,46.1z"/>
	<path class="st10" d="M623.4,46.7l-0.3,0.1l0.1,0.4l-0.3-0.3l-0.3,0.1c0-0.1,0.1-0.2,0.1-0.3l-0.3-0.3h0.2l0.2,0.1l0.1-0.3l0.1,0.4
		L623.4,46.7z"/>
	<path class="st10" d="M625.5,47.2l-0.3,0.2l0.1,0.4l-0.3-0.3l-0.3,0.2l0.1-0.3l-0.3-0.3h0.4l0.1-0.3l0.1,0.3L625.5,47.2z"/>
	<path class="st10" d="M624.5,47.8l-0.3,0.2l0.1,0.4l-0.3-0.3l-0.3,0.1c0-0.1,0.1-0.2,0.1-0.3l-0.3-0.3h0.2h0.2l0.1-0.3l0.1,0.4
		L624.5,47.8z"/>
	<path class="st10" d="M623.4,48.4l-0.3,0.1l0.1,0.4l-0.3-0.3l-0.3,0.1c0-0.1,0.1-0.2,0.1-0.3l-0.3-0.3l0.2,0.1l0.2,0.1l0.1-0.3
		l0.1,0.4L623.4,48.4z"/>
	<path class="st10" d="M625.5,48.9l-0.3,0.2l0.1,0.4l-0.3-0.3l-0.3,0.2c0-0.1,0-0.2,0.1-0.3l-0.3-0.3h0.4l0.1-0.3l0.1,0.4
		L625.5,48.9z"/>
	<path class="st10" d="M624.5,49.6l-0.3,0.2l0.1,0.4l-0.3-0.3l-0.3,0.1c0-0.1,0.1-0.2,0.1-0.3l-0.3-0.3h0.2h0.2
		c0-0.1,0.1-0.2,0.1-0.3l0.1,0.4L624.5,49.6z"/>
	<path class="st10" d="M623.4,50.2l-0.3,0.1l0.1,0.4l-0.3-0.3l-0.3,0.1l0.1-0.3l-0.3-0.3l0.2,0.1l0.2,0.1l0.1-0.3l0.1,0.4
		L623.4,50.2z"/>
	<path class="st10" d="M625.5,50.7l-0.3,0.2l0.1,0.4l-0.3-0.3l-0.3,0.2l0.1-0.3l-0.3-0.3h0.4l0.1-0.3l0.1,0.4L625.5,50.7z"/>
	<path class="st10" d="M624.5,51.3l-0.3,0.2l0.1,0.4l-0.3-0.3l-0.3,0.1c0-0.1,0.1-0.2,0.1-0.3l-0.3-0.4h0.2h0.2l0.1-0.3l0.1,0.4
		L624.5,51.3z"/>
	<path class="st10" d="M623.4,51.9l-0.3,0.1l0.1,0.4l-0.3-0.3l-0.3,0.1l0.1-0.3l-0.3-0.3l0.2,0.1l0.2,0.1l0.1-0.3l0.1,0.4
		L623.4,51.9z"/>
	<path class="st10" d="M625.5,52.4l-0.3,0.2l0.1,0.4l-0.3-0.3l-0.3,0.2c0-0.1,0.1-0.2,0.1-0.3l-0.3-0.3h0.4l0.1-0.3l0.1,0.4
		L625.5,52.4z"/>
	<path class="st10" d="M628.5,51.7l-0.3,0.2l0.1,0.3l-0.3-0.2l-0.3,0.2c0-0.1,0.1-0.2,0.1-0.4l-0.3-0.2h0.4l0.1-0.3l0.1,0.3
		L628.5,51.7L628.5,51.7z"/>
	<path class="st10" d="M627.5,52.6l-0.3,0.2l0.1,0.3L627,53l-0.3,0.2l0.1-0.3l-0.3-0.3h0.4l0.1-0.3l0.1,0.3H627.5z"/>
	<path class="st10" d="M629.6,52.6l-0.3,0.3l0.1,0.3l-0.3-0.2l-0.3,0.2c0-0.1,0.1-0.2,0.1-0.4l-0.3-0.2h0.4l0.1-0.3l0.1,0.3
		L629.6,52.6z"/>
	<path class="st10" d="M632.7,51.4l-0.3,0.3l0.1,0.3l-0.3-0.2l-0.3,0.3l0.1-0.4l-0.3-0.2h0.4l0.1-0.3l0.1,0.2L632.7,51.4L632.7,51.4
		z"/>
	<path class="st10" d="M631.6,52.4l-0.3,0.3l0.1,0.3l-0.3-0.2l-0.3,0.2c0-0.1,0-0.3,0.1-0.4l-0.3-0.2h0.4l0.1-0.3l0.1,0.3
		L631.6,52.4z"/>
	<path class="st10" d="M633.7,52l-0.3,0.3l0.1,0.3l-0.3-0.2l-0.3,0.3c0-0.1,0.1-0.3,0.1-0.4l-0.3-0.2h0.4l0.1-0.4l0.1,0.3L633.7,52z
		"/>
	<path class="st10" d="M632.7,49.6l-0.3,0.3l0.1,0.3l-0.3-0.2l-0.3,0.3l0.1-0.4l-0.3-0.2h0.4l0.1-0.3l0.1,0.3L632.7,49.6z"/>
	<path class="st10" d="M631.6,50.6l-0.3,0.3l0.1,0.3l-0.3-0.2l-0.3,0.2c0-0.1,0-0.3,0.1-0.4l-0.3-0.2h0.4l0.1-0.3l0.1,0.3
		L631.6,50.6z"/>
	<path class="st10" d="M633.7,50.3l-0.3,0.3l0.1,0.3l-0.3-0.2l-0.3,0.3c0-0.1,0.1-0.3,0.1-0.4l-0.3-0.2h0.4l0.1-0.3l0.1,0.3
		L633.7,50.3z"/>
	<path class="st10" d="M632.7,46.1l-0.3,0.3l0.1,0.3l-0.3-0.2l-0.3,0.3l0.1-0.4l-0.3-0.2h0.4l0.1-0.3l0.1,0.3L632.7,46.1z"/>
	<path class="st10" d="M631.6,47.1l-0.3,0.3l0.1,0.3l-0.3-0.2l-0.3,0.2c0-0.1,0-0.3,0.1-0.4l-0.3-0.2h0.4l0.1-0.3l0.1,0.3
		L631.6,47.1z"/>
	<path class="st10" d="M633.7,46.8l-0.3,0.3l0.1,0.3l-0.3-0.2l-0.3,0.3c0-0.1,0.1-0.3,0.1-0.4l-0.3-0.2h0.4l0.1-0.3l0.1,0.3
		L633.7,46.8z"/>
	<path class="st10" d="M627.5,49.1l-0.3,0.2l0.1,0.3l-0.3-0.2l-0.3,0.2l0.1-0.3l-0.3-0.3h0.4l0.1-0.3l0.2,0.3L627.5,49.1z"/>
	<path class="st10" d="M626.5,48.2l-0.3,0.2l0.1,0.4l-0.3-0.2l-0.3,0.2c0-0.1,0.1-0.2,0.1-0.3l-0.3-0.3h0.4l0.1-0.3l0.1,0.3
		L626.5,48.2z"/>
	<path class="st10" d="M633.7,48.6l-0.3,0.3l0.1,0.3l-0.3-0.2l-0.3,0.3c0-0.1,0.1-0.3,0.1-0.4l-0.3-0.2h0.4l0.1-0.3l0.1,0.3
		L633.7,48.6z"/>
	<path class="st10" d="M632.7,47.9l-0.3,0.3l0.1,0.3l-0.3-0.2l-0.3,0.3l0.1-0.4l-0.3-0.2h0.4l0.1-0.3l0.1,0.3L632.7,47.9z"/>
	<path class="st10" d="M630.6,49.9l-0.3,0.3l0.1,0.3l-0.3-0.2l-0.3,0.2c0-0.1,0.1-0.2,0.1-0.4l-0.3-0.2h0.4l0.1-0.3l0.1,0.3
		L630.6,49.9z"/>
	<path class="st10" d="M630.6,51.6l-0.3,0.3l0.1,0.3l-0.3-0.2l-0.3,0.2l0.1-0.4l-0.3-0.2h0.4l0.1-0.3l0.1,0.3L630.6,51.6z"/>
	<path class="st10" d="M626.5,49.9l-0.3,0.2l0.1,0.4l-0.3-0.2l-0.3,0.2c0-0.1,0.1-0.2,0.1-0.3l-0.3-0.3h0.4l0.1-0.3l0.1,0.3
		L626.5,49.9z"/>
	<path class="st10" d="M626.5,51.7l-0.3,0.2l0.1,0.4L626,52l-0.3,0.2c0-0.1,0.1-0.2,0.1-0.3l-0.3-0.3h0.4l0.1-0.3l0.1,0.3
		L626.5,51.7z"/>
	<path class="st10" d="M627.5,47.4l-0.3,0.2l0.1,0.4l-0.3-0.3l-0.3,0.2c0-0.1,0.1-0.2,0.1-0.3l-0.3-0.3h0.4L627,47l0.1,0.3
		L627.5,47.4z"/>
	<path class="st10" d="M631.7,45.4l-0.3,0.3l0.1,0.3l-0.3-0.2l-0.3,0.3c0-0.1,0.1-0.3,0.1-0.4l-0.3-0.2h0.4l0.1-0.3l0.1,0.3
		L631.7,45.4z"/>
	<path class="st10" d="M633.7,45l-0.3,0.3l0.1,0.3l-0.3-0.2l-0.3,0.3c0-0.1,0-0.2,0.1-0.3l-0.3-0.2h0.4c0-0.1,0.1-0.2,0.1-0.4
		l0.1,0.3L633.7,45z"/>
	<rect x="620.6" y="41.4" class="st4" width="1.6" height="51.3"/>
	<circle class="st4" cx="621.4" cy="40.9" r="2.3"/>
	<rect x="366.3" y="133.6" class="st4" width="510.9" height="5.1"/>
	<polygon class="st4" points="621.6,94.9 725,146.9 518.3,146.9 	"/>
	<rect x="524.7" y="146.5" class="st4" width="193.9" height="27.2"/>
	<rect x="524.7" y="160.4" class="st5" width="193.9" height="2.9"/>
	<polygon class="st5" points="623.3,95.4 517.5,147.8 515.7,143.3 621.5,90.8 	"/>
	<polygon class="st5" points="619.8,95.4 725.6,147.8 727.3,143.3 621.5,90.8 	"/>
	<rect x="515.7" y="143.3" class="st5" width="211.6" height="4.6"/>
	<rect x="379.2" y="174.2" class="st2" width="5.1" height="8.5"/>
	<rect x="385.4" y="174.2" class="st2" width="5.1" height="8.5"/>
	<rect x="391.6" y="174.2" class="st2" width="5.1" height="8.5"/>
	<rect x="379.1" y="183.7" class="st2" width="5.1" height="8.5"/>
	<rect x="385.4" y="183.7" class="st2" width="5.1" height="8.5"/>
	<rect x="391.6" y="183.7" class="st2" width="5.1" height="8.5"/>
	<rect x="379.1" y="193.1" class="st2" width="5.1" height="8.5"/>
	<rect x="385.4" y="193.1" class="st2" width="5.1" height="8.5"/>
	<rect x="391.6" y="193.1" class="st2" width="5.1" height="8.5"/>
	<rect x="379.2" y="202.6" class="st2" width="5.1" height="8.5"/>
	<rect x="385.4" y="202.6" class="st2" width="5.1" height="8.5"/>
	<rect x="391.6" y="202.6" class="st2" width="5.1" height="8.5"/>
	<rect x="421.5" y="173.8" class="st2" width="5.1" height="8.5"/>
	<rect x="427.8" y="173.8" class="st2" width="5.1" height="8.5"/>
	<rect x="433.9" y="173.8" class="st2" width="5.1" height="8.5"/>
	<rect x="421.5" y="183.2" class="st2" width="5.1" height="8.5"/>
	<rect x="427.7" y="183.2" class="st2" width="5.1" height="8.5"/>
	<rect x="433.9" y="183.2" class="st2" width="5.1" height="8.5"/>
	<rect x="421.5" y="192.7" class="st2" width="5.1" height="8.5"/>
	<rect x="427.7" y="192.7" class="st2" width="5.1" height="8.5"/>
	<rect x="433.9" y="192.7" class="st2" width="5.1" height="8.5"/>
	<rect x="421.5" y="202.1" class="st2" width="5.1" height="8.5"/>
	<rect x="427.8" y="202.1" class="st2" width="5.1" height="8.5"/>
	<rect x="433.9" y="202.1" class="st2" width="5.1" height="8.5"/>
	<rect x="462.5" y="174.2" class="st2" width="5.1" height="8.5"/>
	<rect x="468.7" y="174.2" class="st2" width="5.1" height="8.5"/>
	<rect x="474.9" y="174.2" class="st2" width="5.1" height="8.5"/>
	<rect x="462.4" y="183.7" class="st2" width="5.1" height="8.5"/>
	<rect x="468.6" y="183.7" class="st2" width="5.1" height="8.5"/>
	<rect x="474.9" y="183.7" class="st2" width="5.1" height="8.5"/>
	<rect x="462.4" y="193.1" class="st2" width="5.1" height="8.5"/>
	<rect x="468.6" y="193.1" class="st2" width="5.1" height="8.5"/>
	<rect x="474.9" y="193.1" class="st2" width="5.1" height="8.5"/>
	<rect x="462.5" y="202.6" class="st2" width="5.1" height="8.5"/>
	<rect x="468.7" y="202.6" class="st2" width="5.1" height="8.5"/>
	<rect x="474.9" y="202.6" class="st2" width="5.1" height="8.5"/>
	<rect x="502.6" y="174.8" class="st2" width="5.1" height="8.5"/>
	<rect x="508.8" y="174.8" class="st2" width="5.1" height="8.5"/>
	<rect x="514.9" y="174.8" class="st2" width="5.1" height="8.5"/>
	<rect x="502.5" y="184.2" class="st2" width="5.1" height="8.5"/>
	<rect x="508.7" y="184.2" class="st2" width="5.1" height="8.5"/>
	<rect x="514.9" y="184.2" class="st2" width="5.1" height="8.5"/>
	<rect x="502.5" y="193.7" class="st2" width="5.1" height="8.5"/>
	<rect x="508.7" y="193.7" class="st2" width="5.1" height="8.5"/>
	<rect x="514.9" y="193.7" class="st2" width="5.1" height="8.5"/>
	<rect x="502.6" y="203.1" class="st2" width="5.1" height="8.5"/>
	<rect x="508.8" y="203.1" class="st2" width="5.1" height="8.5"/>
	<rect x="514.9" y="203.1" class="st2" width="5.1" height="8.5"/>
	<rect x="380.5" y="240.1" class="st2" width="5.1" height="8.5"/>
	<rect x="386.7" y="240.1" class="st2" width="5.1" height="8.5"/>
	<rect x="392.8" y="240.1" class="st2" width="5.1" height="8.5"/>
	<rect x="380.4" y="249.6" class="st2" width="5.1" height="8.5"/>
	<rect x="386.6" y="249.6" class="st2" width="5.1" height="8.5"/>
	<rect x="392.8" y="249.6" class="st2" width="5.1" height="8.5"/>
	<rect x="380.4" y="259" class="st2" width="5.1" height="8.5"/>
	<rect x="386.6" y="259" class="st2" width="5.1" height="8.5"/>
	<rect x="392.8" y="259" class="st2" width="5.1" height="8.5"/>
	<rect x="380.5" y="268.4" class="st2" width="5.1" height="8.5"/>
	<rect x="386.7" y="268.4" class="st2" width="5.1" height="8.5"/>
	<rect x="392.8" y="268.4" class="st2" width="5.1" height="8.5"/>
	<rect x="422.8" y="239.7" class="st2" width="5.1" height="8.5"/>
	<rect x="429" y="239.7" class="st2" width="5.1" height="8.5"/>
	<rect x="435.1" y="239.7" class="st2" width="5.1" height="8.5"/>
	<rect x="422.7" y="249.1" class="st2" width="5.1" height="8.5"/>
	<rect x="428.9" y="249.1" class="st2" width="5.1" height="8.5"/>
	<rect x="435.1" y="249.1" class="st2" width="5.1" height="8.5"/>
	<rect x="422.7" y="258.5" class="st2" width="5.1" height="8.5"/>
	<rect x="428.9" y="258.5" class="st2" width="5.1" height="8.5"/>
	<rect x="435.1" y="258.5" class="st2" width="5.1" height="8.5"/>
	<rect x="422.8" y="268" class="st2" width="5.1" height="8.5"/>
	<rect x="429" y="268" class="st2" width="5.1" height="8.5"/>
	<rect x="435.1" y="268" class="st2" width="5.1" height="8.5"/>
	<rect x="463.8" y="240.1" class="st2" width="5.1" height="8.5"/>
	<rect x="470" y="240.1" class="st2" width="5.1" height="8.5"/>
	<rect x="476.1" y="240.1" class="st2" width="5.1" height="8.5"/>
	<rect x="463.7" y="249.6" class="st2" width="5.1" height="8.5"/>
	<rect x="469.9" y="249.6" class="st2" width="5.1" height="8.5"/>
	<rect x="476.1" y="249.6" class="st2" width="5.1" height="8.5"/>
	<rect x="463.7" y="259" class="st2" width="5.1" height="8.5"/>
	<rect x="469.9" y="259" class="st2" width="5.1" height="8.5"/>
	<rect x="476.1" y="259" class="st2" width="5.1" height="8.5"/>
	<rect x="463.8" y="268.4" class="st2" width="5.1" height="8.5"/>
	<rect x="470" y="268.4" class="st2" width="5.1" height="8.5"/>
	<rect x="476.1" y="268.4" class="st2" width="5.1" height="8.5"/>
	<rect x="503.8" y="239.2" class="st2" width="5.1" height="8.5"/>
	<rect x="510" y="239.2" class="st2" width="5.1" height="8.5"/>
	<rect x="516.2" y="239.2" class="st2" width="5.1" height="8.5"/>
	<rect x="503.7" y="248.6" class="st2" width="5.1" height="8.5"/>
	<rect x="510" y="248.6" class="st2" width="5.1" height="8.5"/>
	<rect x="516.2" y="248.6" class="st2" width="5.1" height="8.5"/>
	<rect x="503.7" y="258.1" class="st2" width="5.1" height="8.5"/>
	<rect x="510" y="258.1" class="st2" width="5.1" height="8.5"/>
	<rect x="516.2" y="258.1" class="st2" width="5.1" height="8.5"/>
	<rect x="503.8" y="267.5" class="st2" width="5.1" height="8.5"/>
	<rect x="510" y="267.5" class="st2" width="5.1" height="8.5"/>
	<rect x="516.2" y="267.5" class="st2" width="5.1" height="8.5"/>
	<rect x="860" y="175.6" class="st2" width="5.1" height="8.5"/>
	<rect x="853.8" y="175.6" class="st2" width="5.1" height="8.5"/>
	<rect x="847.7" y="175.6" class="st2" width="5.1" height="8.5"/>
	<rect x="860.1" y="185" class="st2" width="5.1" height="8.5"/>
	<rect x="853.9" y="185" class="st2" width="5.1" height="8.5"/>
	<rect x="847.7" y="185" class="st2" width="5.1" height="8.5"/>
	<rect x="860.1" y="194.4" class="st2" width="5.1" height="8.5"/>
	<rect x="853.9" y="194.4" class="st2" width="5.1" height="8.5"/>
	<rect x="847.7" y="194.4" class="st2" width="5.1" height="8.5"/>
	<rect x="860" y="203.9" class="st2" width="5.1" height="8.5"/>
	<rect x="853.8" y="203.9" class="st2" width="5.1" height="8.5"/>
	<rect x="847.7" y="203.9" class="st2" width="5.1" height="8.5"/>
	<rect x="817.7" y="175.1" class="st2" width="5.1" height="8.5"/>
	<rect x="811.5" y="175.1" class="st2" width="5.1" height="8.5"/>
	<rect x="805.3" y="175.1" class="st2" width="5.1" height="8.5"/>
	<rect x="817.8" y="184.6" class="st2" width="5.1" height="8.5"/>
	<rect x="811.6" y="184.6" class="st2" width="5.1" height="8.5"/>
	<rect x="805.3" y="184.6" class="st2" width="5.1" height="8.5"/>
	<rect x="817.8" y="194" class="st2" width="5.1" height="8.5"/>
	<rect x="811.6" y="194" class="st2" width="5.1" height="8.5"/>
	<rect x="805.3" y="194" class="st2" width="5.1" height="8.5"/>
	<rect x="817.7" y="203.4" class="st2" width="5.1" height="8.5"/>
	<rect x="811.5" y="203.4" class="st2" width="5.1" height="8.5"/>
	<rect x="805.3" y="203.4" class="st2" width="5.1" height="8.5"/>
	<rect x="776.7" y="175.6" class="st2" width="5.1" height="8.5"/>
	<rect x="770.5" y="175.6" class="st2" width="5.1" height="8.5"/>
	<rect x="764.4" y="175.6" class="st2" width="5.1" height="8.5"/>
	<rect x="776.8" y="185" class="st2" width="5.1" height="8.5"/>
	<rect x="770.6" y="185" class="st2" width="5.1" height="8.5"/>
	<rect x="764.4" y="185" class="st2" width="5.1" height="8.5"/>
	<rect x="776.8" y="194.5" class="st2" width="5.1" height="8.5"/>
	<rect x="770.6" y="194.5" class="st2" width="5.1" height="8.5"/>
	<rect x="764.4" y="194.5" class="st2" width="5.1" height="8.5"/>
	<rect x="776.7" y="203.9" class="st2" width="5.1" height="8.5"/>
	<rect x="770.5" y="203.9" class="st2" width="5.1" height="8.5"/>
	<rect x="764.4" y="203.9" class="st2" width="5.1" height="8.5"/>
	<rect x="736.7" y="174.7" class="st2" width="5.1" height="8.5"/>
	<rect x="730.5" y="174.7" class="st2" width="5.1" height="8.5"/>
	<rect x="724.3" y="174.7" class="st2" width="5.1" height="8.5"/>
	<rect x="736.8" y="184.1" class="st2" width="5.1" height="8.5"/>
	<rect x="730.5" y="184.1" class="st2" width="5.1" height="8.5"/>
	<rect x="724.3" y="184.1" class="st2" width="5.1" height="8.5"/>
	<rect x="736.8" y="193.6" class="st2" width="5.1" height="8.5"/>
	<rect x="730.5" y="193.6" class="st2" width="5.1" height="8.5"/>
	<rect x="724.3" y="193.6" class="st2" width="5.1" height="8.5"/>
	<rect x="736.7" y="203" class="st2" width="5.1" height="8.5"/>
	<rect x="730.5" y="203" class="st2" width="5.1" height="8.5"/>
	<rect x="724.3" y="203" class="st2" width="5.1" height="8.5"/>
	<rect x="858.8" y="240" class="st2" width="5.1" height="8.5"/>
	<rect x="852.6" y="240" class="st2" width="5.1" height="8.5"/>
	<rect x="846.4" y="240" class="st2" width="5.1" height="8.5"/>
	<rect x="858.9" y="249.4" class="st2" width="5.1" height="8.5"/>
	<rect x="852.7" y="249.4" class="st2" width="5.1" height="8.5"/>
	<rect x="846.4" y="249.4" class="st2" width="5.1" height="8.5"/>
	<rect x="858.9" y="258.9" class="st2" width="5.1" height="8.5"/>
	<rect x="852.7" y="258.9" class="st2" width="5.1" height="8.5"/>
	<rect x="846.4" y="258.9" class="st2" width="5.1" height="8.5"/>
	<rect x="858.8" y="268.3" class="st2" width="5.1" height="8.5"/>
	<rect x="852.6" y="268.3" class="st2" width="5.1" height="8.5"/>
	<rect x="846.4" y="268.3" class="st2" width="5.1" height="8.5"/>
	<rect x="816.5" y="239.5" class="st2" width="5.1" height="8.5"/>
	<rect x="810.3" y="239.5" class="st2" width="5.1" height="8.5"/>
	<rect x="804.1" y="239.5" class="st2" width="5.1" height="8.5"/>
	<rect x="816.5" y="249" class="st2" width="5.1" height="8.5"/>
	<rect x="810.3" y="249" class="st2" width="5.1" height="8.5"/>
	<rect x="804.1" y="249" class="st2" width="5.1" height="8.5"/>
	<rect x="816.5" y="258.4" class="st2" width="5.1" height="8.5"/>
	<rect x="810.3" y="258.4" class="st2" width="5.1" height="8.5"/>
	<rect x="804.1" y="258.4" class="st2" width="5.1" height="8.5"/>
	<rect x="816.5" y="267.8" class="st2" width="5.1" height="8.5"/>
	<rect x="810.3" y="267.8" class="st2" width="5.1" height="8.5"/>
	<rect x="804.1" y="267.8" class="st2" width="5.1" height="8.5"/>
	<rect x="775.5" y="240" class="st2" width="5.1" height="8.5"/>
	<rect x="769.3" y="240" class="st2" width="5.1" height="8.5"/>
	<rect x="763.1" y="240" class="st2" width="5.1" height="8.5"/>
	<rect x="775.6" y="249.4" class="st2" width="5.1" height="8.5"/>
	<rect x="769.4" y="249.4" class="st2" width="5.1" height="8.5"/>
	<rect x="763.1" y="249.4" class="st2" width="5.1" height="8.5"/>
	<rect x="775.6" y="258.9" class="st2" width="5.1" height="8.5"/>
	<rect x="769.4" y="258.9" class="st2" width="5.1" height="8.5"/>
	<rect x="763.1" y="258.9" class="st2" width="5.1" height="8.5"/>
	<rect x="775.5" y="268.3" class="st2" width="5.1" height="8.5"/>
	<rect x="769.3" y="268.3" class="st2" width="5.1" height="8.5"/>
	<rect x="763.1" y="268.3" class="st2" width="5.1" height="8.5"/>
	<rect x="735.4" y="239.1" class="st2" width="5.1" height="8.5"/>
	<rect x="729.2" y="239.1" class="st2" width="5.1" height="8.5"/>
	<rect x="723.1" y="239.1" class="st2" width="5.1" height="8.5"/>
	<rect x="735.5" y="248.5" class="st2" width="5.1" height="8.5"/>
	<rect x="729.3" y="248.5" class="st2" width="5.1" height="8.5"/>
	<rect x="723.1" y="248.5" class="st2" width="5.1" height="8.5"/>
	<rect x="735.5" y="258" class="st2" width="5.1" height="8.5"/>
	<rect x="729.3" y="258" class="st2" width="5.1" height="8.5"/>
	<rect x="723.1" y="258" class="st2" width="5.1" height="8.5"/>
	<rect x="735.4" y="267.4" class="st2" width="5.1" height="8.5"/>
	<rect x="729.2" y="267.4" class="st2" width="5.1" height="8.5"/>
	<rect x="723.1" y="267.4" class="st2" width="5.1" height="8.5"/>
	<polygon class="st4" points="829,236.7 796.8,236.6 813.4,227.6 	"/>
	<path class="st4" d="M855.2,227.6c-7.5,0-13.4,5.3-13.4,9.1h27C868.8,232.9,862.6,227.6,855.2,227.6z"/>
	<polygon class="st4" points="747.9,236.7 715.6,236.6 732.3,227.6 	"/>
	<path class="st4" d="M771.8,227.6c-7.5,0-13.4,5.3-13.4,9.1h27C785.4,232.9,779.3,227.6,771.8,227.6z"/>
	<polygon class="st4" points="414.8,236.7 447,236.6 430.4,227.6 	"/>
	<path class="st4" d="M388.6,227.6c7.5,0,13.4,5.3,13.4,9.1h-27C375.1,232.9,381.2,227.6,388.6,227.6z"/>
	<polygon class="st4" points="495.9,236.7 528.2,236.6 511.5,227.6 	"/>
	<path class="st4" d="M472,227.6c7.5,0,13.4,5.3,13.4,9.1h-27C458.4,232.9,464.5,227.6,472,227.6z"/>
	<path class="st4" d="M562.7,228.2c-7.5,0-13.4,5.3-13.4,9.1h27C576.3,233.5,570.2,228.2,562.7,228.2z"/>
	<path class="st4" d="M682.7,229.6c-7.5,0-13.4,5.3-13.4,9.1h27C696.2,235,690.1,229.6,682.7,229.6z"/>
</g>
</svg>
