<svg id="Layer_1" data-name="Layer 1" xmlns="http://www.w3.org/2000/svg" viewBox="0 0 706.48 495.42"><defs><style>.cls-1{fill:#fad5b1;}.cls-2{fill:#e4b998;}.cls-3{fill:#96a1a9;}.cls-22,.cls-4{fill:#67747f;}.cls-5{fill:#f8c5b3;}.cls-6{fill:#4d555c;}.cls-7{fill:#917890;}.cls-8{fill:#e8b3a3;}.cls-9{fill:#826b82;}.cls-10{fill:#a9dbed;}.cls-11{fill:#877087;}.cls-12{fill:#6d586d;}.cls-13{fill:#4d4d4d;}.cls-14{fill:#9e8b95;}.cls-15{fill:#9fccd2;}.cls-16{fill:#283a3c;}.cls-17{fill:#d29a74;}.cls-18{fill:#632d00;}.cls-19{fill:#acc7bb;}.cls-20{fill:#9eb7aa;}.cls-21{fill:#6a8d82;}.cls-22{font-size:16.62px;font-family:Lintel;}.cls-23{fill:#5c7a6f;}.cls-24{fill:none;stroke:#5c7a6f;stroke-miterlimit:10;stroke-width:2.04px;}</style></defs><title>art4top</title><path class="cls-1" d="M1137.45,265.14l2.71-2.59-1.18-3.1s-1.95-2.74-3.12-2.65-0.78-.66-0.43-0.92a1.37,1.37,0,0,1,1.22-.2,12.46,12.46,0,0,1,2.22.92l0.88-.32-0.67-3.81v-2.81l1.25-3.12s1.17,0.29,1.08.9a12.43,12.43,0,0,1-.92,2.21l0.45,3.35,1-4,2.31-4.65a0.7,0.7,0,0,1,.85.82c0,1-1.6,3.75-1.6,3.75l-0.34,3.06,1.55-3.26,2.19-1.5s0.93,1,.61,1.49a8.2,8.2,0,0,1-2,1.43l-0.74,2.41,1.65-1.06,2.37-.93a1.27,1.27,0,0,1,.09,1.18,4.57,4.57,0,0,1-1.77,1l-1.23,1,0.25,3.91s0.63,3.92.19,4.78a5.78,5.78,0,0,1-1.48,1.63l-5,5.34Z" transform="translate(-517.02 -154.03)"/><path class="cls-1" d="M1177.66,277.6l2.39-1.32a38.58,38.58,0,0,0,.48-4.43c-0.12-.48-1.2-3.71-1.2-3.71a1.16,1.16,0,0,1,1.44.24,5.22,5.22,0,0,1,1.2,2.28c0.12,1,.12,1.56.84,1.44s4.07-4.07,4.07-4.07,3-3,3.84-3.24,1.32,0,1.08,1-2.88,2.64-2.88,2.64-2,2.52-1.56,2.64,2.88-1.68,2.88-1.68a21.53,21.53,0,0,1,4.43-2.16c1.56-.36,1.68.24,1.32,1s-4.19,2-4.19,2-2.52,2-2.52,2.4a0.45,0.45,0,0,0,.48.36l2.76-1.68,4.07-1.08s0.84,0.6.48,1.08-4.07,1.32-4.07,1.32l-2,1.8s-0.36.84,0.24,0.72a9,9,0,0,0,2-1.2l2.52,0.12a1.17,1.17,0,0,1-.12.84c-0.24.48-2,.48-2,0.48l-2.52,1.32s-4.67,3.48-6,3.83a7.14,7.14,0,0,1-3.24-.24l-4.91,2.88Z" transform="translate(-517.02 -154.03)"/><path class="cls-2" d="M1118.59,304.2l1.48-3,5.59-16.66,8.27,15.46-1.2,10.18s-5.75,6.47-6.47,6.83-4-4.79-4.32-4.91a18.55,18.55,0,0,1-2-2.87l-1.68-3.72Z" transform="translate(-517.02 -154.03)"/><path class="cls-3" d="M932.37,319.17a46.21,46.21,0,1,1-41.58-50.42A46.22,46.22,0,0,1,932.37,319.17Zm-42.8-37.78A33.51,33.51,0,1,0,919.74,318,33.52,33.52,0,0,0,889.57,281.4Z" transform="translate(-517.02 -154.03)"/><path class="cls-3" d="M895.57,268.25c0-.81.37-10.83,0.37-10.83a2,2,0,0,0-1.33-2.05,15.2,15.2,0,0,0-5-.48,2,2,0,0,0-1.69,1.76l-1.7,10.7c-0.12.8-2,1.18-2,1.18l-0.58,3.14a1.58,1.58,0,0,0,1.54,1.79l5.17,0.5,5.18,0.5a1.57,1.57,0,0,0,1.85-1.47c0-1.28,0-1.91,0-3.19C897.33,269.8,895.54,269.06,895.57,268.25Z" transform="translate(-517.02 -154.03)"/><path class="cls-3" d="M879.11,267.91c-0.25-.78-3.36-10.3-3.36-10.3a2.05,2.05,0,0,0-2-1.48,15.32,15.32,0,0,0-4.88,1.27,2,2,0,0,0-1,2.24L870,270.27c0.15,0.8-1.51,1.81-1.51,1.81,0.21,1.26.31,1.89,0.53,3.15a1.57,1.57,0,0,0,2.05,1.15l5-1.3,5-1.3a1.58,1.58,0,0,0,1.24-2l-1.07-3S879.36,268.68,879.11,267.91Z" transform="translate(-517.02 -154.03)"/><path class="cls-3" d="M863.52,273.22l-6.68-8.53a2.05,2.05,0,0,0-2.35-.72,15.55,15.55,0,0,0-4.15,2.86,2,2,0,0,0-.16,2.44l5.57,9.29c0.42,0.7-.79,2.22-0.79,2.22,0.63,1.11.94,1.66,1.57,2.77a1.57,1.57,0,0,0,2.32.39l4.28-2.95,4.29-2.94a1.58,1.58,0,0,0,.47-2.31l-2-2.46S864,273.86,863.52,273.22Z" transform="translate(-517.02 -154.03)"/><path class="cls-3" d="M850.7,283.54l-9.2-5.73a2,2,0,0,0-2.45.12,15.46,15.46,0,0,0-2.93,4.11,2.06,2.06,0,0,0,.68,2.35l8.42,6.82c0.63,0.51,0,2.35,0,2.35l2.42,2.07a1.57,1.57,0,0,0,2.31-.44l3-4.23,3-4.23a1.58,1.58,0,0,0-.34-2.34l-2.75-1.62S851.39,284,850.7,283.54Z" transform="translate(-517.02 -154.03)"/><path class="cls-3" d="M842.17,297.62l-10.6-2.24a2.05,2.05,0,0,0-2.25.95,15.36,15.36,0,0,0-1.34,4.86,2,2,0,0,0,1.44,2l10.25,3.53c0.77,0.26.81,2.2,0.81,2.2l3,1.13a1.58,1.58,0,0,0,2-1.2c0.56-2,.83-3,1.39-5l1.39-5a1.57,1.57,0,0,0-1.12-2.07l-3.13-.58S843,297.79,842.17,297.62Z" transform="translate(-517.02 -154.03)"/><path class="cls-3" d="M839,313.77l-10.73,1.51a2.05,2.05,0,0,0-1.79,1.67,15.33,15.33,0,0,0,.39,5,2,2,0,0,0,2,1.36l10.84-.18c0.82,0,1.52,1.79,1.52,1.79l3.19,0a1.57,1.57,0,0,0,1.49-1.83c-0.16-2.07-.24-3.11-0.4-5.18s-0.25-3.11-.41-5.18a1.58,1.58,0,0,0-1.76-1.57l-3.14.53S839.78,313.66,839,313.77Z" transform="translate(-517.02 -154.03)"/><path class="cls-3" d="M841.5,330l-9.56,5.09a2.06,2.06,0,0,0-1.12,2.18,15.39,15.39,0,0,0,2.09,4.59,2.05,2.05,0,0,0,2.38.59l10.12-3.87c0.76-.3,2,1.16,2,1.16l3-1.06a1.58,1.58,0,0,0,.78-2.22c-0.87-1.89-1.29-2.84-2.16-4.73L846.92,327a1.58,1.58,0,0,0-2.19-.87L842,327.73S842.22,329.66,841.5,330Z" transform="translate(-517.02 -154.03)"/><path class="cls-3" d="M849.43,344.47l-7.24,8.06a2.06,2.06,0,0,0-.31,2.43,15.31,15.31,0,0,0,3.53,3.59,2.06,2.06,0,0,0,2.44-.26l8.18-7.1c0.61-.53,2.32.4,2.32,0.4l2.46-2a1.58,1.58,0,0,0,0-2.36l-3.64-3.71-3.65-3.71a1.57,1.57,0,0,0-2.35-.07l-2.07,2.42S850,343.86,849.43,344.47Z" transform="translate(-517.02 -154.03)"/><path class="cls-3" d="M861.82,355.31l-4.05,10.05a2.06,2.06,0,0,0,.55,2.39,15.25,15.25,0,0,0,4.55,2.17,2,2,0,0,0,2.2-1.08l5.26-9.47c0.39-.71,2.31-0.42,2.31-0.42l1.63-2.75a1.57,1.57,0,0,0-.83-2.2l-4.69-2.24L864,349.52a1.57,1.57,0,0,0-2.24.74l-1.11,3S862.13,354.55,861.82,355.31Z" transform="translate(-517.02 -154.03)"/><path class="cls-3" d="M877.17,361.25c0,0.82-.37,10.84-0.37,10.84a2,2,0,0,0,1.33,2.05,15.2,15.2,0,0,0,5,.48,2,2,0,0,0,1.7-1.76s1.57-9.9,1.7-10.71,2-1.18,2-1.18c0.23-1.26.35-1.89,0.58-3.14a1.57,1.57,0,0,0-1.54-1.79l-5.17-.5-5.18-.5a1.57,1.57,0,0,0-1.85,1.47c0,1.27,0,1.91,0,3.19C875.41,359.71,877.2,360.44,877.17,361.25Z" transform="translate(-517.02 -154.03)"/><path class="cls-3" d="M893.63,361.6L897,371.9a2,2,0,0,0,2,1.47,15.22,15.22,0,0,0,4.88-1.26,2.07,2.07,0,0,0,1-2.24s-1.91-9.84-2.07-10.64,1.5-1.8,1.5-1.8c-0.21-1.26-.32-1.89-0.52-3.15a1.57,1.57,0,0,0-2.05-1.15l-5,1.29-5,1.3a1.57,1.57,0,0,0-1.24,2c0.42,1.2.64,1.8,1.07,3C891.44,360.75,893.38,360.82,893.63,361.6Z" transform="translate(-517.02 -154.03)"/><path class="cls-3" d="M909.21,356.29l6.68,8.53a2.05,2.05,0,0,0,2.34.72,15.44,15.44,0,0,0,4.15-2.85,2.07,2.07,0,0,0,.16-2.45L917,351c-0.42-.7.8-2.22,0.8-2.22L916.2,346a1.56,1.56,0,0,0-2.32-.38l-4.29,2.94-4.29,2.94a1.58,1.58,0,0,0-.48,2.31l2,2.46S908.71,355.65,909.21,356.29Z" transform="translate(-517.02 -154.03)"/><path class="cls-3" d="M922,346l9.2,5.73a2,2,0,0,0,2.44-.12,15.33,15.33,0,0,0,2.93-4.11,2,2,0,0,0-.69-2.35l-8.42-6.82c-0.63-.51,0-2.35,0-2.35l-2.42-2.07a1.58,1.58,0,0,0-2.32.43l-3,4.24-3,4.23a1.58,1.58,0,0,0,.34,2.33l2.75,1.61S921.36,345.54,922,346Z" transform="translate(-517.02 -154.03)"/><path class="cls-3" d="M930.57,331.89l10.61,2.24a2.05,2.05,0,0,0,2.25-1,15.18,15.18,0,0,0,1.35-4.86,2,2,0,0,0-1.45-2l-10.24-3.53c-0.77-.26-0.82-2.2-0.82-2.2l-3-1.12a1.57,1.57,0,0,0-2,1.2l-1.39,5-1.39,5a1.57,1.57,0,0,0,1.12,2.07l3.14,0.58S929.77,331.72,930.57,331.89Z" transform="translate(-517.02 -154.03)"/><path class="cls-3" d="M933.77,315.74l10.73-1.52a2.06,2.06,0,0,0,1.79-1.67,15.41,15.41,0,0,0-.4-5,2,2,0,0,0-2-1.36l-10.83.18c-0.82,0-1.52-1.79-1.52-1.79l-3.19,0a1.57,1.57,0,0,0-1.49,1.82c0.16,2.07.24,3.11,0.41,5.18s0.25,3.11.41,5.19a1.58,1.58,0,0,0,1.76,1.56l3.15-.53S933,315.85,933.77,315.74Z" transform="translate(-517.02 -154.03)"/><path class="cls-3" d="M931.24,299.47l9.56-5.1a2.06,2.06,0,0,0,1.12-2.18,15.52,15.52,0,0,0-2.09-4.59,2,2,0,0,0-2.37-.59l-10.12,3.88c-0.75.29-2-1.17-2-1.17l-3,1.07a1.57,1.57,0,0,0-.78,2.23l2.15,4.73,2.15,4.73a1.58,1.58,0,0,0,2.19.87l2.77-1.57S930.52,299.85,931.24,299.47Z" transform="translate(-517.02 -154.03)"/><path class="cls-3" d="M923.31,285l7.24-8.05a2.06,2.06,0,0,0,.3-2.43,15.56,15.56,0,0,0-3.53-3.59,2.06,2.06,0,0,0-2.44.26l-8.18,7.11c-0.61.53-2.32-.4-2.32-0.4l-2.46,2a1.57,1.57,0,0,0,0,2.36L915.6,286l3.64,3.71a1.57,1.57,0,0,0,2.35.07l2.07-2.43S922.76,285.65,923.31,285Z" transform="translate(-517.02 -154.03)"/><path class="cls-3" d="M910.92,274.2L915,264.15a2,2,0,0,0-.55-2.38,15.36,15.36,0,0,0-4.55-2.17,2,2,0,0,0-2.2,1.08l-5.26,9.47c-0.39.71-2.31,0.42-2.31,0.42l-1.63,2.74a1.58,1.58,0,0,0,.83,2.21l4.7,2.23L908.7,280a1.57,1.57,0,0,0,2.24-.74l1.12-3S910.61,275,910.92,274.2Z" transform="translate(-517.02 -154.03)"/><path class="cls-4" d="M894.69,470.3c2.1,18.86-17.17,38.1-40.3,38.79-20.22.61-30.89-14-26.73-29.83,3.55-13.49,17.37-25.39,32.54-28.54C876.93,447.26,893,454.84,894.69,470.3Zm-35.09-13.54c-11.55,2.18-22,11.29-24.24,21.47-2.54,11.47,5.82,21.23,20.08,20.34,15.64-1,28.91-13.85,28.29-26.81C883.21,460.5,872,454.41,859.61,456.77Z" transform="translate(-517.02 -154.03)"/><path class="cls-4" d="M863.2,449.67c0-.36,0-4.7,0-4.7a0.7,0.7,0,0,0-.86-0.61,14.34,14.34,0,0,0-3,.69,1.54,1.54,0,0,0-1,1s-0.89,4.46-1,4.84a2.89,2.89,0,0,1-1.24.86l-0.36,1.5c-0.1.43,0.33,0.68,1,.55l3.25-.65,3.33-.66a1.28,1.28,0,0,0,1.16-1c0-.57,0-0.86-0.08-1.44C864.37,450.05,863.21,450,863.2,449.67Z" transform="translate(-517.02 -154.03)"/><path class="cls-4" d="M853.05,452.34l-1.86-3.82a0.88,0.88,0,0,0-1.1-.29,15.76,15.76,0,0,0-2.8,1.32,1.16,1.16,0,0,0-.62,1.08s0.84,3.91.92,4.23a2.4,2.4,0,0,1-.93,1c0.09,0.54.13,0.81,0.22,1.34s0.6,0.48,1.2.2l3.07-1.41,3.09-1.42a1,1,0,0,0,.77-1.11l-0.64-1.16S853.19,452.63,853.05,452.34Z" transform="translate(-517.02 -154.03)"/><path class="cls-4" d="M843.73,457.21l-3.44-2.69a1.2,1.2,0,0,0-1.26.06,14.74,14.74,0,0,0-2.43,1.85,0.84,0.84,0,0,0-.23,1.08l2.64,3.33c0.2,0.25-.57,1.15-0.57,1.15l0.77,1.08a1,1,0,0,0,1.35-.18l2.66-2.07,2.65-2c0.52-.4.67-0.92,0.35-1.14l-1.12-.79A2.55,2.55,0,0,1,843.73,457.21Z" transform="translate(-517.02 -154.03)"/><path class="cls-4" d="M835.8,464L831,462.63a1.54,1.54,0,0,0-1.35.42,13.71,13.71,0,0,0-1.94,2.32,0.67,0.67,0,0,0,.18,1l4.22,2.11c0.33,0.17-.17,1.18-0.17,1.18l1.27,0.71a1.26,1.26,0,0,0,1.4-.56l2.06-2.57c0.82-1,1.22-1.53,2-2.54,0.39-.5.35-1-0.08-1.08l-1.51-.35A2.86,2.86,0,0,1,835.8,464Z" transform="translate(-517.02 -154.03)"/><path class="cls-4" d="M829.85,472.17l-5.86.32a1.89,1.89,0,0,0-1.36.78,11.26,11.26,0,0,0-1.27,2.68,0.64,0.64,0,0,0,.61.85l5.61,0.54c0.43,0,.28,1.1.28,1.1,0.68,0.1,1,.13,1.7.23a1.47,1.47,0,0,0,1.34-.95c0.5-1.19.75-1.78,1.24-2.94l1.21-2.86c0.23-.55,0-1-0.52-0.92l-1.8.15A3,3,0,0,1,829.85,472.17Z" transform="translate(-517.02 -154.03)"/><path class="cls-4" d="M826.5,481.39l-6.57,2.24a2.12,2.12,0,0,0-1.25,1.19,9.07,9.07,0,0,0-.39,2.91,0.76,0.76,0,0,0,1,.58l6.68-1.45c0.51-.12.77,0.92,0.77,0.92,0.81-.17,1.21-0.24,2-0.39a1.49,1.49,0,0,0,1.12-1.32c0.08-1.25.12-1.86,0.2-3.07s0.12-1.79.19-3a0.64,0.64,0,0,0-.95-0.66l-2,.73A2.69,2.69,0,0,1,826.5,481.39Z" transform="translate(-517.02 -154.03)"/><path class="cls-4" d="M826.43,491l-6.69,4.44a2.1,2.1,0,0,0-1,1.57,7.61,7.61,0,0,0,.73,2.89A1.07,1.07,0,0,0,821,500l7.16-3.83c0.54-.29,1.26.57,1.26,0.57l2.15-1.09a1.39,1.39,0,0,0,.73-1.62l-1-2.91c-0.4-1.12-.6-1.69-1-2.78a0.82,0.82,0,0,0-1.34-.27L827,489.43A2.39,2.39,0,0,1,826.43,491Z" transform="translate(-517.02 -154.03)"/><path class="cls-4" d="M830.3,499.85l-5.92,6.74a2,2,0,0,0-.51,1.9,7.61,7.61,0,0,0,2.08,2.49,1.56,1.56,0,0,0,1.8-.44l6.67-6.43c0.49-.47,1.68.05,1.68,0.05l2-1.83a1.22,1.22,0,0,0,.14-1.78l-2.38-2.3L833.55,496a1.12,1.12,0,0,0-1.63.24c-0.65.77-1,1.17-1.65,1.94A2,2,0,0,1,830.3,499.85Z" transform="translate(-517.02 -154.03)"/><path class="cls-4" d="M838.41,506.73l-3.92,8.77a1.74,1.74,0,0,0,.21,2,9,9,0,0,0,3.46,1.53A1.91,1.91,0,0,0,840,517.9l4.79-8.75c0.35-.64,1.88-0.6,1.88-0.6l1.41-2.46a1.13,1.13,0,0,0-.6-1.7l-3.59-1.25-3.46-1.2a1.43,1.43,0,0,0-1.73.82l-1,2.45S838.7,506.09,838.41,506.73Z" transform="translate(-517.02 -154.03)"/><path class="cls-4" d="M850.37,510c0,0.71-.58,9.83-0.58,9.83a1.7,1.7,0,0,0,1.12,1.85,12.53,12.53,0,0,0,4.5,0,2.18,2.18,0,0,0,1.54-1.87s1.31-9.36,1.42-10.08,1.76-1.26,1.76-1.26c0.18-1.11.27-1.68,0.44-2.78a1.18,1.18,0,0,0-1.35-1.33l-4.37.19-4.25.19a1.57,1.57,0,0,0-1.54,1.41c0,1.06-.07,1.59-0.11,2.67C848.94,508.91,850.41,509.33,850.37,510Z" transform="translate(-517.02 -154.03)"/><path class="cls-4" d="M864.62,508.54l3.63,9.29a1.88,1.88,0,0,0,2,1.27,14.8,14.8,0,0,0,4.7-1.73,2.05,2.05,0,0,0,.77-2.31l-2.9-9.68c-0.2-.68,1.25-1.77,1.25-1.77L873.32,501a1.37,1.37,0,0,0-1.94-.7L867,502l-4.35,1.71a1.49,1.49,0,0,0-1,1.85c0.4,1,.61,1.48,1,2.49C862.63,508,864.37,507.88,864.62,508.54Z" transform="translate(-517.02 -154.03)"/><path class="cls-4" d="M878.58,502l7.6,6.94a2.27,2.27,0,0,0,2.5.4,15.14,15.14,0,0,0,3.81-3.24,1.79,1.79,0,0,0-.26-2.29l-6.93-7.42c-0.49-.53.45-2,0.45-2l-1.83-2a1.6,1.6,0,0,0-2.18,0c-1.43,1.2-2.16,1.79-3.59,3l-3.62,3a1.31,1.31,0,0,0-.24,2l2.09,1.83S878,501.48,878.58,502Z" transform="translate(-517.02 -154.03)"/><path class="cls-4" d="M889.41,491.51l10.08,3.41a2.37,2.37,0,0,0,2.48-.47,11.9,11.9,0,0,0,2.1-4,1.7,1.7,0,0,0-1.22-1.83l-9.49-4c-0.67-.27-0.39-1.76-0.39-1.76l-2.55-1.13a1.65,1.65,0,0,0-2,.71l-2.16,3.63L884,489.78a1.16,1.16,0,0,0,.61,1.79l2.79,0.9S888.7,491.28,889.41,491.51Z" transform="translate(-517.02 -154.03)"/><path class="cls-4" d="M895.15,479.35l10.52-.2a2.1,2.1,0,0,0,2-1.11,8.64,8.64,0,0,0,.2-3.78,1.88,1.88,0,0,0-1.83-1.13s-9.39-.5-10.13-0.55-1.08-1.31-1.08-1.31l-2.79-.21a1.46,1.46,0,0,0-1.58,1.16c-0.2,1.44-.3,2.15-0.51,3.6l-0.52,3.72a1.17,1.17,0,0,0,1.31,1.31l3-.11S894.39,479.37,895.15,479.35Z" transform="translate(-517.02 -154.03)"/><path class="cls-4" d="M895.37,467.85l9.24-3a1.55,1.55,0,0,0,1.28-1.4,7.33,7.33,0,0,0-1.36-3,2.11,2.11,0,0,0-2-.41l-9.2,2.2a2.09,2.09,0,0,1-1.51-.75l-2.61.57a1.11,1.11,0,0,0-1,1.34l1,3c0.42,1.25.62,1.88,1,3.16a1.3,1.3,0,0,0,1.73.68l2.66-.9S894.68,468.06,895.37,467.85Z" transform="translate(-517.02 -154.03)"/><path class="cls-4" d="M890.88,458.63l7-4.66a1.05,1.05,0,0,0,.57-1.4,8.15,8.15,0,0,0-2.39-2,2.32,2.32,0,0,0-2,.18l-7.35,4a2.59,2.59,0,0,1-1.68-.22l-2.16,1.13a0.8,0.8,0,0,0-.37,1.31l2.13,2.15,2.22,2.24a1.51,1.51,0,0,0,1.86.09l2-1.41S890.36,459,890.88,458.63Z" transform="translate(-517.02 -154.03)"/><path class="cls-4" d="M883.13,452.52c0.34-.42,4.5-5.32,4.5-5.32a0.75,0.75,0,0,0,0-1.21,9.94,9.94,0,0,0-2.92-1,2.28,2.28,0,0,0-1.7.59l-5.17,4.86a3,3,0,0,1-1.65.25c-0.63.56-1,.84-1.58,1.41a0.62,0.62,0,0,0,.17,1.13c1.13,0.47,1.7.71,2.85,1.17l3,1.23a1.61,1.61,0,0,0,1.76-.41l1.31-1.63S882.79,452.92,883.13,452.52Z" transform="translate(-517.02 -154.03)"/><path class="cls-4" d="M873.52,449.62l2.11-5.25a0.64,0.64,0,0,0-.52-0.92,11.49,11.49,0,0,0-3.09-.08,2,2,0,0,0-1.37.85l-3,5.09a3.09,3.09,0,0,1-1.49.6l-1,1.53c-0.27.44,0,.83,0.62,0.87l3.2,0.21,3.3,0.23a1.52,1.52,0,0,0,1.5-.76l0.58-1.62S873.36,450,873.52,449.62Z" transform="translate(-517.02 -154.03)"/><path class="cls-4" d="M1001.77,393.14c18.71,11.9,17.46,47.72-3.91,73.82C979.19,489.79,956.12,490.58,946,474c-8.58-14.1-6-38.36,5.62-57.51C964.47,395.41,986.43,383.37,1001.77,393.14Zm-45.33,28.59c-9,14.42-10.88,32.83-4,43,7.75,11.46,24.34,9.58,37.1-6.87,14-18,15.19-42.42,3.12-51.51C982.17,398.45,966.16,406.22,956.44,421.73Z" transform="translate(-517.02 -154.03)"/><path class="cls-4" d="M953.58,412.4l-4.18-3.52a1,1,0,0,0-1.36.49,25.29,25.29,0,0,0-2.26,3.86,2.05,2.05,0,0,0,0,1.86l3.37,4.71c0.26,0.36-.41,2-0.41,2l1,1.52c0.28,0.44.91,0.15,1.39-.64l2.52-4.09c1-1.67,1.54-2.49,2.57-4.18,0.51-.83.6-1.74,0.21-2l-1.34-1S953.9,412.68,953.58,412.4Z" transform="translate(-517.02 -154.03)"/><path class="cls-4" d="M946.29,425.64l-5.15-.82a1.49,1.49,0,0,0-1.3,1,26,26,0,0,0-1.49,4.09,1.31,1.31,0,0,0,.37,1.5l4.62,2.18c0.36,0.17,0,1.81,0,1.81l1.4,0.77c0.41,0.23,1-.3,1.32-1.17l1.66-4.46,1.67-4.49c0.34-.88.21-1.64-0.25-1.69l-1.64-.16S946.69,425.7,946.29,425.64Z" transform="translate(-517.02 -154.03)"/><path class="cls-4" d="M941.75,439.63l-5.66,1.78a2.13,2.13,0,0,0-1.14,1.45,21.53,21.53,0,0,0-.67,4.08A0.85,0.85,0,0,0,935,448l5.46-.4c0.42,0,.48,1.5.48,1.5l1.69,0a1.79,1.79,0,0,0,1.13-1.63c0.29-1.8.43-2.7,0.7-4.51s0.43-2.69.71-4.48c0.14-.88-0.17-1.44-0.68-1.25l-1.76.65S942.19,439.49,941.75,439.63Z" transform="translate(-517.02 -154.03)"/><path class="cls-4" d="M940.2,453.48l-5.72,4.29a2.63,2.63,0,0,0-.91,1.81,17.35,17.35,0,0,0,.21,3.89,0.7,0.7,0,0,0,1.07.56l5.87-3.07c0.46-.23.89,1.08,0.89,1.08l1.83-.87a2.08,2.08,0,0,0,.84-2c-0.12-1.7-.19-2.55-0.32-4.22s-0.2-2.5-.33-4.16c-0.07-.81-0.53-1.13-1-0.73l-1.75,1.41A4.53,4.53,0,0,1,940.2,453.48Z" transform="translate(-517.02 -154.03)"/><path class="cls-4" d="M941.83,466.26c-0.42.51-5.29,6.72-5.29,6.72a3,3,0,0,0-.6,2.09,12,12,0,0,0,1.17,3.42c0.24,0.48.85,0.46,1.33,0,0,0,5.36-5.35,5.81-5.79s1.24,0.52,1.24.52c0.74-.67,1.09-1,1.82-1.71a2.17,2.17,0,0,0,.43-2.19c-0.58-1.46-.87-2.17-1.42-3.6l-1.39-3.49c-0.27-.67-0.85-0.72-1.31-0.12l-1.57,2.1A4.15,4.15,0,0,1,941.83,466.26Z" transform="translate(-517.02 -154.03)"/><path class="cls-4" d="M946.81,476.92c-0.32.69-4.26,9-4.26,9a2.89,2.89,0,0,0-.13,2.28,8.57,8.57,0,0,0,2.21,2.63c0.4,0.33,1.08,0,1.5-.72l5.06-8.48c0.38-.65,1.55-0.16,1.55-0.16,0.62-1,.94-1.52,1.58-2.53a1.89,1.89,0,0,0-.11-2.24l-2.53-2.54-2.45-2.45c-0.47-.47-1.13-0.22-1.49.55-0.49,1.09-.72,1.63-1.21,2.71A3.18,3.18,0,0,1,946.81,476.92Z" transform="translate(-517.02 -154.03)"/><path class="cls-4" d="M955.23,484.21C955,485,952.8,495,952.8,495a2.42,2.42,0,0,0,.45,2.28,7.53,7.53,0,0,0,3.27,1.37c0.55,0.11,1.24-.61,1.54-1.52,0,0,3.15-10,3.41-10.81s1.71-1,1.71-1c0.43-1.28.65-1.93,1.08-3.21a1.52,1.52,0,0,0-.74-2l-3.56-1-3.41-1a1.35,1.35,0,0,0-1.5,1.28c-0.27,1.25-.39,1.89-0.65,3.15A2.4,2.4,0,0,1,955.23,484.21Z" transform="translate(-517.02 -154.03)"/><path class="cls-4" d="M966.77,486.64c0,0.86.35,11.64,0.35,11.64,0,1,.57,1.94,1.2,2a9.71,9.71,0,0,0,4.18-.42,2.68,2.68,0,0,0,1.32-2.32s0.59-11.32.64-12.22,1.64-1.81,1.64-1.81c0.1-1.43.15-2.15,0.25-3.57a1.24,1.24,0,0,0-1.44-1.5l-4.3.89-4.12.85a1.9,1.9,0,0,0-1.33,2c0.06,1.3.1,2,.16,3.29C965.31,485.45,966.75,485.78,966.77,486.64Z" transform="translate(-517.02 -154.03)"/><path class="cls-4" d="M980.58,482.85l4,10.95a1.73,1.73,0,0,0,2,1.3,14.87,14.87,0,0,0,4.64-2.67,2.94,2.94,0,0,0,.75-2.94l-3.2-11.9c-0.24-.86,1.25-2.53,1.25-2.53-0.34-1.36-.5-2.06-0.84-3.41a1.24,1.24,0,0,0-2.07-.62l-4.51,3L978.3,477a2.26,2.26,0,0,0-.91,2.53c0.47,1.2.71,1.8,1.18,3C978.56,482.49,980.29,482.06,980.58,482.85Z" transform="translate(-517.02 -154.03)"/><path class="cls-4" d="M994.88,472.14l8.16,8.06a2,2,0,0,0,2.71.16,22.77,22.77,0,0,0,4.31-4.94,2.77,2.77,0,0,0-.19-3.11s-7.05-8.52-7.59-9.17,0.54-2.9.54-2.9l-2-2.59c-0.57-.72-1.68-0.5-2.47.49-1.6,2-2.41,3-4,5S992,466,990.46,468a2.13,2.13,0,0,0-.21,2.77l2.26,2.13S994.28,471.55,994.88,472.14Z" transform="translate(-517.02 -154.03)"/><path class="cls-4" d="M1007.09,455.24l11.68,3a2.87,2.87,0,0,0,3-1.24,25.19,25.19,0,0,0,2.93-6.5,2.15,2.15,0,0,0-1.31-2.6l-11.33-4.1c-0.79-.29-0.38-2.71-0.38-2.71l-3-1.18c-0.84-.33-1.94.4-2.46,1.62-1.07,2.48-1.59,3.71-2.65,6.17s-1.57,3.67-2.62,6.1c-0.51,1.2-.21,2.33.67,2.52,1.25,0.3,1.89.44,3.18,0.75C1004.75,457.06,1006.26,455,1007.09,455.24Z" transform="translate(-517.02 -154.03)"/><path class="cls-4" d="M1014.54,434.85l13.37-3.16a4,4,0,0,0,2.74-2.47,21.44,21.44,0,0,0,.74-6.65,1.79,1.79,0,0,0-2.28-1.44l-13.16,2.07c-0.94.14-1.31-2-1.31-2l-3.53.49a2.78,2.78,0,0,0-2,2.44c-0.3,2.49-.46,3.73-0.78,6.22s-0.46,3.77-.78,6.27c-0.14,1.24.54,2,1.56,1.78l3.6-.93S1013.59,435.06,1014.54,434.85Z" transform="translate(-517.02 -154.03)"/><path class="cls-4" d="M1015.54,415l12.6-8.58a4.11,4.11,0,0,0,1.94-3.1,13.2,13.2,0,0,0-1.51-5.31c-0.38-.73-1.65-0.72-2.78,0,0,0-11.67,6.93-12.59,7.46s-1.93-.9-1.93-0.9l-3.43,2a2.73,2.73,0,0,0-1.31,2.78c0.46,2,.69,3.06,1.16,5.13s0.71,3.14,1.19,5.25a1.27,1.27,0,0,0,2.17.68l3.44-2.41S1014.66,415.59,1015.54,415Z" transform="translate(-517.02 -154.03)"/><path class="cls-4" d="M1010.23,399.46l9.82-11.79c0.86-1,1.31-2.43.91-3a8.11,8.11,0,0,0-3.15-3.08c-0.59-.35-1.83.21-2.74,1.17,0,0-9.37,10-10.11,10.79s-2.19.21-2.19,0.21c-1.13,1.18-1.7,1.77-2.83,2.93a2.11,2.11,0,0,0-.48,2.62c1.08,1.3,1.62,2,2.71,3.28l2.81,3.38c0.56,0.68,1.64.48,2.4-.47l2.72-3.36S1009.51,400.32,1010.23,399.46Z" transform="translate(-517.02 -154.03)"/><path class="cls-4" d="M1000.23,390.54l6.12-12.48c0.53-1.08.54-2.23,0-2.48a7.94,7.94,0,0,0-4-.76,3.68,3.68,0,0,0-2.3,1.95L993.3,388.6a3.35,3.35,0,0,1-2.1,1.1l-2,3.31c-0.55.94-.44,1.88,0.25,2.09l3.63,1.18,3.79,1.23a2.11,2.11,0,0,0,2.25-1.41c0.7-1.45,1-2.16,1.72-3.62C1000.86,392.51,999.77,391.46,1000.23,390.54Z" transform="translate(-517.02 -154.03)"/><path class="cls-4" d="M987.81,388.55c0.19-.84,2.53-11.27,2.53-11.27,0.21-1-.07-1.74-0.7-1.68a11.78,11.78,0,0,0-4,1.14,4.17,4.17,0,0,0-1.7,2.29s-3.2,10.3-3.46,11.13a4.66,4.66,0,0,1-1.8,1.69c-0.42,1.3-.63,1.94-1.06,3.24-0.3.91,0.06,1.54,0.81,1.4l3.93-.74,4.09-.77a2.65,2.65,0,0,0,1.85-2c0.28-1.34.41-2,.69-3.32C989,389.67,987.63,389.4,987.81,388.55Z" transform="translate(-517.02 -154.03)"/><path class="cls-4" d="M975,392.51c0-.69-0.44-9-0.44-9,0-.76-0.54-1.17-1.11-0.86a17.14,17.14,0,0,0-3.62,2.5,3.84,3.84,0,0,0-1.09,2.33s-0.56,8.67-.61,9.38a5.33,5.33,0,0,1-1.35,2c-0.1,1.13-.16,1.68-0.25,2.81-0.06.81,0.46,1.11,1.17,0.66,1.49-.9,2.24-1.35,3.74-2.27l3.91-2.35a2.77,2.77,0,0,0,1.3-2.25c-0.09-1.08-.13-1.61-0.2-2.68C976.49,392.8,975.06,393.2,975,392.51Z" transform="translate(-517.02 -154.03)"/><path class="cls-4" d="M963.33,400.95c-0.21-.48-2.65-6.29-2.65-6.29a0.75,0.75,0,0,0-1.31-.12,21,21,0,0,0-3,3.36,3,3,0,0,0-.54,2.15l1.66,7.15c0.13,0.54-.88,2.09-0.88,2.09,0.17,0.88.26,1.34,0.43,2.22,0.13,0.64.74,0.63,1.36,0l3.23-3.38,3.35-3.48a2.39,2.39,0,0,0,.75-2.23l-0.88-1.87S963.53,401.44,963.33,400.95Z" transform="translate(-517.02 -154.03)"/><path class="cls-5" d="M550.69,312.14c-1,.25-9.17-2.8-9.94-4.33s0.25-5.1.51-5.86,1-4.84,1.27-5.61-1.53-1.27-2-.25-1.53,1.78-1.27,2.8-1.27,3.82-2.55,3.06-3.06-3.57-3.06-3.57-5.61-7.14-6.63-7.9-2.29-.76-1.27,1a39.83,39.83,0,0,0,3.06,4.33c0.76,1,1.78,1.53,1.27,2.8s-1.53,1.27-2.8.51-6.37-5.86-6.37-5.86-1.78.26-.76,1.53,1.53,2.8,2.8,4.08,4.33,3.31,3.82,4.08-1,.51-2,0.76-4.33-1.27-5.35-1.53l-1-.25s-2,0-1,1,3.06,1.78,3.82,2.29,3.57,0.25,3.82,1.53a2.14,2.14,0,0,1-.76,2l-4.59.76s-1.27,1,.26,1.53,2.29-.25,3.31-0.25a24.46,24.46,0,0,0,3.82-.76s6.12,2.8,7.9,2.8,0.25,0.25,1.78,0,11,4.59,11,4.59Z" transform="translate(-517.02 -154.03)"/><path class="cls-6" d="M569.52,310s-8.37,11.3-3.35,16.32,17.16,7.12,26,5,30.56-15.07,30.56-15.07a8.78,8.78,0,0,1-8.37-1.67c-3.77-3.35-4.18-6.28-4.18-6.28l-33.49-2.51S568.68,307.52,569.52,310Z" transform="translate(-517.02 -154.03)"/><path class="cls-5" d="M591.28,335.56a61.23,61.23,0,0,0-3.77-6.28s-6.7-2.1-8.37-4.19-9.63-10.46-6.7-15.07,7.53-7.54,10-6.28,7.12,7.54,7.12,7.54,2.09-1.26,3.35-.42,1.25,2.93,2.09,5,0.42,2.51-.42,4.19-1.68,2.93,1.25,5.86a29.6,29.6,0,0,1,4.19,5s1.25,4.19-1.26,6.28-6.28-.42-6.28-0.42Z" transform="translate(-517.02 -154.03)"/><path class="cls-7" d="M588.35,331c0.42,1.26-9.21-2.51-16.74-6.7s-20.51-13.4-20.51-13.4l-4.61,9.63s26.79,13,30.14,15.49,8.79,5,10,6.28,7.53,18,7.12,21.35-1.26,7.12-1.26,7.12,7.53-6.7,11.72-8.37c4.86-1.95,4.87-1.93,13-5,0,0-14.23-9.63-17.58-13s-5.44-5.86-7.12-7.53A41.85,41.85,0,0,1,588.35,331Z" transform="translate(-517.02 -154.03)"/><path class="cls-6" d="M578.2,431.56s1,2.26.2,3.35-9.81,6.38-9.81,6.38l-1.09-.51s6.91-3.37,5.29-3.87-6.71.41-9-.22-8.68-4.12-8.16-4.93a1.19,1.19,0,0,1,1.33-.57,71.64,71.64,0,0,0,8.2.23,36.91,36.91,0,0,0,8-2Z" transform="translate(-517.02 -154.03)"/><path class="cls-5" d="M602.57,391.91a45.29,45.29,0,0,1-4,3.71,49.29,49.29,0,0,0-11.05,11.11c-4.31,6.13-7.6,12.44-9.77,14.7s-3.39,4.77-5.56,7-4.12,2.23-5.93,2.47-4.41.9-4.41,0.9a31.22,31.22,0,0,0,6.09,2.29c2.63,0.55,3.43.13,5.43-.31a14.36,14.36,0,0,1,4.43-.09,6.37,6.37,0,0,1,1.12-4.46c1.56-2.45,15.42-14.42,15.42-14.42s5.75-4.35,8.69-8.24,7.87-9,7.87-9S605.38,391.45,602.57,391.91Z" transform="translate(-517.02 -154.03)"/><path class="cls-8" d="M592.37,416.59c0.34-5.3.43-10.63,0.36-16a47.66,47.66,0,0,1,5.88-5,45.29,45.29,0,0,0,4-3.71c2.81-.46,8.38,5.67,8.38,5.67s-4.93,5.14-7.87,9-8.69,8.24-8.69,8.24Z" transform="translate(-517.02 -154.03)"/><path class="cls-6" d="M663.1,398.68s1.24-2.53,2.36-2.63,7.89-.25,7.89-0.25l0.35,1.06a8,8,0,0,0-3.44.46c-1.26.64-2.52,0.64-1.35,1.42s6.41,2.33,7.58,3.09,4.15,4.82,4.27,7.19l-0.82.3s-1.38-2.36-3.12-2.89a14.41,14.41,0,0,0-4.51-.45c-1.26,0-5.92-1.8-5.92-1.8Z" transform="translate(-517.02 -154.03)"/><path class="cls-5" d="M615.14,395.42s8.88,18,11.72,18a12.21,12.21,0,0,0,5.8-2.11s6.6-1.94,10.15-3.05l19.36-6.11a23.75,23.75,0,0,0,5.47,2.65,23.18,23.18,0,0,0,5.24.61,5.43,5.43,0,0,0-1.69-2.68c-1.39-1.23-6.73-5-6.73-5a10.36,10.36,0,0,1-3,1.77,13.49,13.49,0,0,1-6.18.33c-2.91-.34-12.88-1.86-17.66-0.3s-7.8,2.62-7.8,2.62l-1.25-4.19S615.11,390.7,615.14,395.42Z" transform="translate(-517.02 -154.03)"/><path class="cls-9" d="M614.3,363.61s-7.49,8.84-10,15.49-7.12,17.69-7.12,17.69a12.56,12.56,0,0,0,7.49.92c21-4,27.67,4.41,27.67,4.41s0-7.67,2.51-9.63c7-5.5,26.82-21.4,5.86-34.74l-12.56-1.25-8.37,5-7.22-1.32Z" transform="translate(-517.02 -154.03)"/><path class="cls-10" d="M598.82,328.87s0.84,7.12-2.51,7.54-5.86-5.44-6.28-4.19-2.93,1.67-2.93,1.67,4.18,14.65,7.53,18S605.1,351.47,611,354s2.93,5,2.93,5l-1.67,2.51s-0.42,2.51,7.53,0a33,33,0,0,0,13.4-8.79s-13-3.77-19.25-9.63a47.8,47.8,0,0,1-10.46-14.23C603,327.61,598.82,328.87,598.82,328.87Z" transform="translate(-517.02 -154.03)"/><path class="cls-7" d="M596.73,331.38s4.19,16.32,6.7,18,5,0.42,14.65,2.93,13.81,6.7,13.81,6.7l6.7-8.79s-15.91.84-20.09-9.21-8.37-26.37-9.63-28.88-10-22.6-11.72-26.37a95,95,0,0,0-5.44-9.63s-4.61,1.68-5.86,2.93-6.7,1.25-6.7,1.25A152.29,152.29,0,0,1,593,299.15c5.44,9.21,8.37,13.81,8.37,19.25s-4.6,3.35-4.6,3.35l-5,5.86Z" transform="translate(-517.02 -154.03)"/><path class="cls-11" d="M592.54,350.22s-0.07-.68-0.19-1.75c-0.29-2.63-.89-7.66-1.48-11.22-0.84-5-2.51-6.28-2.51-6.28l-8,1.26s8.37,8,10.46,18" transform="translate(-517.02 -154.03)"/><path class="cls-6" d="M570.36,312.54s15.07,0.42,21.35,2.09,10.88,3.77,15.91.42c8.1-5.4,12.14-15.07,12.14-15.07a23.61,23.61,0,0,1-18.42.84c-10-3.77-29.72-6.28-32.23,11.3" transform="translate(-517.02 -154.03)"/><path class="cls-12" d="M586.24,322.92s4.05,0.57,3.26,1.07a13.68,13.68,0,0,1-2.09,1l-1.83.8s-4.5-1.85-2.41-2.64S586.24,322.92,586.24,322.92Z" transform="translate(-517.02 -154.03)"/><path class="cls-5" d="M584.83,279.52s-3.82-7.9-5.35-8.66-7.39-1.53-8.41-1-3.57,1.53-3.57,1.53-0.76-.76.77-2,2-2.29,3.31-2a2.82,2.82,0,0,0,2.8-2c0-.76-6.63-12.23-6.63-12.23s0.76-1.78,1.53-1,5.1,7.9,5.86,7.39,0-12,0-12,0.51-.76,1.53.51,0.76,9.43,1.78,9.68,4.08-7.14,4.08-7.14,1.78-.25,1.78,1-3.31,6.12-2.55,6.63,7.39-2.8,7.39-2.8c1.78,1.27-5.61,5.1-5.61,5.1s3.31,6.12,2.55,7.65a13.87,13.87,0,0,0-1,2.55l3.57,6.63-2.82,1.83" transform="translate(-517.02 -154.03)"/><path class="cls-13" d="M885.38,386.3a21,21,0,0,0-2.16,1,24.58,24.58,0,0,0-2.34,1.38,29.94,29.94,0,0,0-2.78,2.11,22.93,22.93,0,0,0-2.86,2.91,24.39,24.39,0,0,0-2.45,3.79A21.76,21.76,0,0,0,871.1,402a40,40,0,0,0-.89,5c-0.33,1.72-.41,3.41-0.57,5.08s-0.26,3.33-.34,4.95c-0.17,3.23-.28,6.26-0.26,8.86s0,4.77,0,6.3,0,2.4,0,2.4-0.18-.85-0.42-2.36c-0.11-.75-0.23-1.67-0.38-2.73s-0.28-2.25-.37-3.55-0.21-2.72-.27-4.22-0.17-3.09-.12-4.73,0-3.34.17-5.08,0.22-3.53.53-5.22a41.64,41.64,0,0,1,1-5.2,20.79,20.79,0,0,1,2-4.82,22,22,0,0,1,1.36-2.09c0.51-.63,1-1.24,1.54-1.81a24.1,24.1,0,0,1,3.26-2.84,18.57,18.57,0,0,1,3.11-1.86,24.56,24.56,0,0,1,2.56-1.09A14.11,14.11,0,0,1,885.38,386.3Z" transform="translate(-517.02 -154.03)"/><path class="cls-13" d="M874.51,378.15a12.12,12.12,0,0,0-3.08.37,18.85,18.85,0,0,0-3.35,1.09,24.67,24.67,0,0,0-8,5.8,36.06,36.06,0,0,0-3.64,4.75l-0.86,1.32-0.73,1.4-0.76,1.47-0.6,1.49a26.23,26.23,0,0,0-1.1,3.07c-0.33,1.06-.69,2.11-0.92,3.21-0.59,2.16-1,4.36-1.44,6.53s-0.73,4.33-1,6.44-0.51,4.13-.7,6.06-0.34,3.77-.46,5.46c-0.21,3.39-.43,6.22-0.49,8.21l-0.13,3.12a111.14,111.14,0,0,1-.52-11.37c0-3.42.12-7.42,0.53-11.69,0.2-2.13.47-4.34,0.82-6.57s0.82-4.49,1.41-6.72c0.25-1.12.64-2.22,1-3.32a28,28,0,0,1,1.22-3.26l0.68-1.6,0.8-1.45,0.83-1.47,0.94-1.35a30.43,30.43,0,0,1,4.07-4.78,25.86,25.86,0,0,1,4.44-3.45,19.58,19.58,0,0,1,4.3-2,19.28,19.28,0,0,1,3.56-.78,12,12,0,0,1,2.33-.07A6.15,6.15,0,0,1,874.51,378.15Z" transform="translate(-517.02 -154.03)"/><path class="cls-13" d="M838.49,433.19l0.12,0.62,0-.06,0.43,0a3,3,0,0,0,.39-0.13,2.37,2.37,0,0,0,.33-0.24l0.28-.32,0,0,0,0c1.48-.82,3-1.66,4.5-2.43a22.51,22.51,0,0,1,2.37-1l2.41-.9c1.63-.58,3.24-1,4.87-1.47,0.81-.23,1.67-0.37,2.51-0.56s1.68-.36,2.53-0.51l2.54-.34c0.85-.1,1.69-0.25,2.55-0.28l2.56-.14a20.73,20.73,0,0,1,2.58,0,13.27,13.27,0,0,1,2.56.22,17,17,0,0,1,2.57.59c0.81,0.32,1.63.58,2.4,1s1.5,0.84,2.22,1.27c-0.82-.26-1.62-0.51-2.4-0.79s-1.64-.34-2.44-0.51a21.28,21.28,0,0,0-2.42-.23,16.64,16.64,0,0,0-2.49,0c-0.86,0-1.61.13-2.47,0.23l-2.49.27c-0.83.08-1.65,0.26-2.47,0.36l-2.47.37c-1.62.36-3.24,0.61-4.87,1s-3.32.75-4.89,1.24l-2.4.68c-0.79.25-1.62,0.4-2.4,0.7-1.55.6-3.14,1.15-4.74,1.7l0.08-.06-0.4.32a2.87,2.87,0,0,1-.47.23,1.48,1.48,0,0,1-1-.08l0,0v0Z" transform="translate(-517.02 -154.03)"/><path class="cls-13" d="M842.57,423l0.85-.09,0.75-.25,0.68-.4,0.59-.51h0l0.05,0c1-.59,2-1.17,3-1.73a16.3,16.3,0,0,1,1.52-.8l1.6-.64,1.6-.63,0.81-.3c0.39-.12.58-0.15,0.88-0.23q1.63-.42,3.29-0.77c0.55-.12,1.15-0.15,1.72-0.23l1.74-.16a13.47,13.47,0,0,1,1.74-.1l1.73,0.1a15.88,15.88,0,0,1,3.41.43c1.12,0.28,2.23.57,3.3,0.92-1.16,0-2.28,0-3.39,0a9.45,9.45,0,0,0-1.66,0l-1.66.13-1.64.11a14.77,14.77,0,0,0-1.62.23l-1.61.26c-0.54.09-1.07,0.11-1.61,0.25q-1.64.42-3.29,0.77c-0.25.06-.61,0.13-0.76,0.18l-0.78.27-1.58.49-1.58.49a15,15,0,0,0-1.55.58c-1,.41-2.07.8-3.13,1.18l0.07,0-0.81.44c-0.29.11-.59,0.18-0.88,0.26s-0.62,0-.91,0Z" transform="translate(-517.02 -154.03)"/><path class="cls-13" d="M842.57,414.84s0.32-.07.83-0.25a12.7,12.7,0,0,0,1.87-1l1.24-.8a7.94,7.94,0,0,1,1.62-.83c0.55-.17,1.1-0.38,1.69-0.54a16.3,16.3,0,0,1,1.78-.47,28.54,28.54,0,0,1,3.75-.33,29.14,29.14,0,0,1,3.19.2,23.79,23.79,0,0,1,3.06.64,24.65,24.65,0,0,1-3.06.53c-0.91.13-2,.31-3.07,0.42-0.57,0-1.11.19-1.68,0.26l-1.71.26a15.92,15.92,0,0,0-1.76.39c-0.58.15-1.17,0.25-1.73,0.37a13.5,13.5,0,0,0-1.42.46c-0.48.2-1,.36-1.42,0.5a7,7,0,0,1-2.33.37,3,3,0,0,1-.63-0.11Z" transform="translate(-517.02 -154.03)"/><path class="cls-13" d="M928.88,278.93a2.37,2.37,0,0,0,1.24.41c0.84,0.1,2.15-.28,3.78-0.1,0.81,0,1.72,0,2.7.13l3.18,0.6c1.13,0.26,2.25.78,3.48,1.2a31.68,31.68,0,0,1,3.57,2c1.24,0.86,2.22,1.83,3.41,2.8s2.1,2.34,3.2,3.57c0.94,1.33,1.87,2.73,2.79,4.18s1.65,3,2.33,4.67a82.06,82.06,0,0,1,3.64,10.24c1.06,3.52,1.93,7.2,2.73,10.83s1.33,7.37,2,11c0.45,3.65,1,7.23,1.33,10.71s0.66,6.85.85,10,0.39,6.22.54,9c0.32,5.58.4,10.24,0.55,13.49s0.15,5.12.15,5.12l-0.55-5.09c-0.31-3.24-.76-7.88-1.29-13.43-0.26-2.78-.52-5.79-0.88-9s-0.72-6.52-1.12-10-1-7-1.45-10.62c-0.7-3.58-1.2-7.21-2.1-10.84s-1.56-7.23-2.57-10.74a79.79,79.79,0,0,0-3.44-10.06c-0.63-1.6-1.49-3.05-2.17-4.56s-1.67-2.8-2.52-4.1-1.84-2.42-2.88-3.48-2.18-2.1-3.21-2.85a36.45,36.45,0,0,0-3.32-2c-1.15-.47-2.2-1-3.27-1.36l-3-.77c-1-.14-1.87-0.2-2.68-0.3-1.62-.26-2.86,0-3.76-0.18A2.43,2.43,0,0,1,928.88,278.93Z" transform="translate(-517.02 -154.03)"/><path class="cls-13" d="M931.6,268.05l1.8,0.13,1,0.07,1.17-.1,1.35-.13c0.48-.08,1-0.19,1.52-0.3,1.07-.19,2.25-0.5,3.54-0.8s2.71-.52,4.25-0.68a26.78,26.78,0,0,1,10.33,1.18,38.71,38.71,0,0,1,10.93,5.64c1.78,1.37,3.43,2.75,5.21,4.17s3.3,3.27,5,4.94,3.07,3.68,4.65,5.55,2.84,4,4.29,6,2.58,4.28,3.9,6.43,2.33,4.47,3.5,6.71,2,4.62,3,6.93l2.66,7,2.18,7c0.67,2.33,1.16,4.72,1.73,7s0.89,4.61,1.3,6.85,0.69,4.45.9,6.6c0.56,4.3.77,8.38,1,12.14s0.28,7.22.29,10.28,0,5.73,0,7.92c-0.09,4.39-.14,6.9-0.14,6.9l-0.26-6.89c-0.1-2.19-.22-4.85-0.35-7.9s-0.43-6.48-.67-10.23-0.69-7.79-1.37-12c-0.28-2.13-.61-4.3-1.08-6.51s-0.74-4.5-1.37-6.74-1.07-4.56-1.76-6.87l-2.24-7-2.67-6.87c-1-2.26-2-4.56-3.06-6.8s-2.18-4.47-3.39-6.64-2.42-4.31-3.77-6.35-2.67-4.08-4.15-6-2.92-3.78-4.5-5.46-3.12-3.33-4.77-4.86-3.42-3-5-4.26a37.35,37.35,0,0,0-10.41-5.75A27.73,27.73,0,0,0,946.3,267c-1.5.08-3,.3-4.23,0.48s-2.49.49-3.58,0.64c-0.55.08-1.06,0.17-1.55,0.23l-1.39,0-1.19,0-1-.13Z" transform="translate(-517.02 -154.03)"/><path class="cls-13" d="M965.58,373.39a3.63,3.63,0,0,0,1.14-.39,3.42,3.42,0,0,0,.85-0.8h0l2.61-2.18,2.8-2,3-1.67,3.12-1.42,0,0c5.31-2.43,10.7-4.71,16.1-7q8.32-2.79,16.71-5.37l-0.07,0,4.84-1.34c1.65-.25,3.31-0.47,5-0.7,1.67,0,3.33,0,5,0,1.64,0.25,3.28.47,4.9,0.74l0.09,0v0.09L1031.5,353l-0.13-1.52,0.09,0.1-4.89-.21c-1.62.15-3.23,0.28-4.84,0.39-1.58.33-3.17,0.64-4.73,1l-4.56,1.55-0.07,0q-8.23,2.88-16.5,5.58c-5.37,2.19-10.75,4.36-16.21,6.39l0,0-3.1,1.19-3,1.44-2.92,1.63-2.79,1.88,0,0a3.47,3.47,0,0,1-1,.74A3.66,3.66,0,0,1,965.58,373.39Z" transform="translate(-517.02 -154.03)"/><path class="cls-13" d="M964.9,357.76a3.47,3.47,0,0,0,1.4-.12,3,3,0,0,0,.62-0.28,2.36,2.36,0,0,0,.55-0.39,4.29,4.29,0,0,0,.88-1,9.44,9.44,0,0,0,.66-1.21l0-.07,0.09-.08c1.56-1.34,3.19-2.59,4.78-3.89s3.2-2.58,4.83-3.82c0.44-.33.75-0.6,1.29-1l1.29-.84,2.6-1.65,2.6-1.65c0.91-.49,1.87-0.93,2.8-1.4l2.81-1.38c0.93-.45,1.9-0.93,2.86-1.28l2.86-1.13a30.36,30.36,0,0,1,3-.9c1-.25,2-0.6,3-0.78s2-.38,3.07-0.52a22.9,22.9,0,0,1,3.09-.29c1-.07,2.06-0.1,3.09-0.13-1,.22-2,0.44-3,0.62a22.73,22.73,0,0,0-3,.69c-1,.3-2,0.53-2.94.79s-1.91.67-2.86,1a28.92,28.92,0,0,0-2.82,1.09l-2.81,1.26c-1,.39-1.8.88-2.72,1.34l-2.7,1.37-2.69,1.37L985,345.1l-2.62,1.61-1.32.79c-0.31.19-.81,0.57-1.21,0.84-1.67,1.2-3.37,2.34-5.07,3.5s-3.38,2.33-5.12,3.43l0.12-.14a10.36,10.36,0,0,1-.88,1.22,4.84,4.84,0,0,1-1.12,1,2.75,2.75,0,0,1-.67.36,2.63,2.63,0,0,1-.73.19A3.61,3.61,0,0,1,964.9,357.76Z" transform="translate(-517.02 -154.03)"/><path class="cls-13" d="M964.9,343.49s0.46-.4,1.29-1.07,2-1.62,3.41-2.79l1.09-.9c0.43-.35.82-0.59,1.26-0.9l2.7-1.85c1-.62,1.89-1.31,2.93-1.91l3.23-1.72,3.27-1.66c1.08-.52,2.18-0.94,3.23-1.39,2.1-.88,4.07-1.68,5.79-2.27s3.17-1.06,4.18-1.4,1.61-.48,1.61-0.48-0.52.32-1.45,0.85-2.25,1.28-3.87,2.11-3.48,1.83-5.51,2.83l-3.12,1.54-3.14,1.67-3.18,1.6-3,1.76-2.84,1.62c-0.92.5-1.7,1-2.5,1.48-1.54,1-2.9,1.66-3.84,2.15S964.9,343.49,964.9,343.49Z" transform="translate(-517.02 -154.03)"/><path class="cls-13" d="M966.26,324.46l0.69-.12,0.56-.24c0.17-.12.34-0.22,0.49-0.34s0.27-.29.41-0.42l0.11-.08a39.66,39.66,0,0,1,6.4-3.43c1.11-.49,2.25-0.91,3.4-1.29a22.88,22.88,0,0,1,3.57-.87,24,24,0,0,1-3,2.19c-1,.64-2.08,1.24-3.15,1.77a39.59,39.59,0,0,1-6.7,2.69l0.11-.08c-0.24.12-.47,0.25-0.71,0.36s-0.52.12-.77,0.18a6.3,6.3,0,0,1-.78,0Z" transform="translate(-517.02 -154.03)"/><path class="cls-4" d="M840.54,327.56a44.49,44.49,0,1,1-44.49-44.48A44.49,44.49,0,0,1,840.54,327.56Zm-44.49-32.26a32.26,32.26,0,1,0,32.27,32.26A32.26,32.26,0,0,0,796.05,295.31Z" transform="translate(-517.02 -154.03)"/><path class="cls-4" d="M800.59,282.16c0-.78-0.64-10.41-0.64-10.41a2,2,0,0,0-1.46-1.84,14.62,14.62,0,0,0-4.85,0,2,2,0,0,0-1.46,1.84l-0.64,10.41c0,0.78-1.84,1.32-1.84,1.32-0.11,1.22-.16,1.83-0.27,3.06a1.52,1.52,0,0,0,1.64,1.58h10a1.52,1.52,0,0,0,1.64-1.58c-0.11-1.22-.17-1.83-0.27-3.06C802.42,283.48,800.63,282.94,800.59,282.16Z" transform="translate(-517.02 -154.03)"/><path class="cls-4" d="M784.78,283.35l-4.16-9.56a2,2,0,0,0-2-1.24,14.8,14.8,0,0,0-4.56,1.66,2,2,0,0,0-.74,2.24l3,10c0.22,0.75-1.28,1.87-1.28,1.87,0.31,1.19.47,1.78,0.79,3a1.51,1.51,0,0,0,2.07.92l4.71-1.71,4.7-1.71a1.52,1.52,0,0,0,1-2L787,284S785.09,284.06,784.78,283.35Z" transform="translate(-517.02 -154.03)"/><path class="cls-4" d="M770.34,289.87l-7.18-7.56a2,2,0,0,0-2.31-.47,15,15,0,0,0-3.72,3.12,2,2,0,0,0,.07,2.36l6.2,8.39c0.46,0.63-.56,2.2-0.56,2.2l1.76,2.51a1.52,1.52,0,0,0,2.26.16l3.83-3.22,3.84-3.22a1.52,1.52,0,0,0,.24-2.26l-2.17-2.17S770.88,290.43,770.34,289.87Z" transform="translate(-517.02 -154.03)"/><path class="cls-4" d="M759,300.93l-9.34-4.65a2,2,0,0,0-2.33.34,14.88,14.88,0,0,0-2.43,4.2,2,2,0,0,0,.87,2.19l8.7,5.76c0.65,0.43.23,2.25,0.23,2.25l2.51,1.76a1.51,1.51,0,0,0,2.18-.64l2.5-4.33,2.5-4.33a1.52,1.52,0,0,0-.55-2.21L761.06,300S759.7,301.29,759,300.93Z" transform="translate(-517.02 -154.03)"/><path class="cls-4" d="M752.12,315.22L741.76,314a2,2,0,0,0-2.07,1.12,14.77,14.77,0,0,0-.84,4.78,2,2,0,0,0,1.56,1.76l10.14,2.44c0.76,0.18,1,2,1,2l3,0.8a1.52,1.52,0,0,0,1.83-1.34l0.87-4.93c0.35-2,.52-3,0.87-4.93a1.52,1.52,0,0,0-1.27-1.88l-3.05-.26S752.9,315.3,752.12,315.22Z" transform="translate(-517.02 -154.03)"/><path class="cls-4" d="M750.55,331l-10.14,2.44a2,2,0,0,0-1.56,1.76,14.8,14.8,0,0,0,.84,4.78,2,2,0,0,0,2.07,1.12l10.37-1.17c0.78-.09,1.62,1.58,1.62,1.58l3.06-.26a1.51,1.51,0,0,0,1.26-1.89c-0.34-2-.52-3-0.87-4.93l-0.87-4.93a1.52,1.52,0,0,0-1.83-1.34l-3,.79S751.31,330.8,750.55,331Z" transform="translate(-517.02 -154.03)"/><path class="cls-4" d="M754.46,346.34l-8.7,5.76a2,2,0,0,0-.87,2.19,14.8,14.8,0,0,0,2.43,4.21,2,2,0,0,0,2.33.34L759,354.2c0.7-.35,2.06.93,2.06,0.93l2.78-1.3a1.52,1.52,0,0,0,.55-2.2l-2.5-4.34-2.5-4.33a1.53,1.53,0,0,0-2.18-.63l-2.51,1.76S755.12,345.91,754.46,346.34Z" transform="translate(-517.02 -154.03)"/><path class="cls-4" d="M763.39,359.43l-6.2,8.39a2,2,0,0,0-.07,2.36,14.75,14.75,0,0,0,3.72,3.12,2,2,0,0,0,2.31-.47l7.18-7.56c0.54-.57,2.26.17,2.26,0.17l2.17-2.17a1.52,1.52,0,0,0-.25-2.26l-3.83-3.22-3.83-3.21a1.51,1.51,0,0,0-2.26.15l-1.76,2.51S763.86,358.8,763.39,359.43Z" transform="translate(-517.02 -154.03)"/><path class="cls-4" d="M776.26,368.68l-3,10a2,2,0,0,0,.75,2.24,14.71,14.71,0,0,0,4.56,1.66,2,2,0,0,0,2-1.24s3.86-8.84,4.17-9.56,2.18-.61,2.18-0.61l1.3-2.78a1.51,1.51,0,0,0-1-2l-4.7-1.72-4.7-1.71a1.51,1.51,0,0,0-2.07.92c-0.32,1.19-.48,1.78-0.79,3C775,366.81,776.49,367.93,776.26,368.68Z" transform="translate(-517.02 -154.03)"/><path class="cls-4" d="M791.52,373c0,0.79.64,10.42,0.64,10.42a2,2,0,0,0,1.47,1.85,14.82,14.82,0,0,0,4.85,0,2,2,0,0,0,1.46-1.85s0.59-9.63.64-10.42,1.84-1.32,1.84-1.32c0.11-1.22.16-1.83,0.27-3.06a1.52,1.52,0,0,0-1.64-1.58H791a1.52,1.52,0,0,0-1.64,1.58c0.11,1.22.16,1.83,0.27,3.06C789.68,371.65,791.47,372.18,791.52,373Z" transform="translate(-517.02 -154.03)"/><path class="cls-4" d="M807.32,371.78l4.17,9.56a2,2,0,0,0,2,1.23,14.63,14.63,0,0,0,4.56-1.65,2,2,0,0,0,.75-2.24l-3-10c-0.22-.75,1.27-1.87,1.27-1.87-0.31-1.19-.48-1.78-0.79-3a1.51,1.51,0,0,0-2.07-.91l-4.7,1.7-4.7,1.71a1.52,1.52,0,0,0-1,2c0.52,1.11.78,1.67,1.3,2.78C805.14,371.17,807,371.06,807.32,371.78Z" transform="translate(-517.02 -154.03)"/><path class="cls-4" d="M821.77,365.26l7.19,7.56a2,2,0,0,0,2.31.47,14.79,14.79,0,0,0,3.71-3.12,2,2,0,0,0-.07-2.36l-6.2-8.39c-0.46-.63.56-2.19,0.56-2.19l-1.76-2.51a1.51,1.51,0,0,0-2.26-.15l-3.83,3.21L817.58,361a1.52,1.52,0,0,0-.24,2.26l2.17,2.17S821.23,364.7,821.77,365.26Z" transform="translate(-517.02 -154.03)"/><path class="cls-4" d="M833.11,354.19l9.34,4.65a2,2,0,0,0,2.33-.34,14.86,14.86,0,0,0,2.43-4.21,2,2,0,0,0-.87-2.19l-8.69-5.76c-0.65-.44-0.23-2.26-0.23-2.26l-2.51-1.76a1.52,1.52,0,0,0-2.18.63l-2.5,4.33-2.5,4.34a1.52,1.52,0,0,0,.54,2.2l2.78,1.29S832.41,353.85,833.11,354.19Z" transform="translate(-517.02 -154.03)"/><path class="cls-4" d="M840,339.92l10.37,1.17a2,2,0,0,0,2.07-1.12,14.72,14.72,0,0,0,.84-4.78,2,2,0,0,0-1.57-1.76L841.56,331c-0.76-.18-1-2-1-2l-3-.8a1.51,1.51,0,0,0-1.83,1.34c-0.35,2-.52,3-0.88,4.93L834,339.34a1.52,1.52,0,0,0,1.26,1.89l3.06,0.27S839.2,339.82,840,339.92Z" transform="translate(-517.02 -154.03)"/><path class="cls-4" d="M841.56,324.15l10.14-2.44a2,2,0,0,0,1.56-1.76,14.76,14.76,0,0,0-.85-4.78,2,2,0,0,0-2.07-1.12L840,315.21c-0.78.09-1.62-1.58-1.62-1.58l-3.06.26a1.51,1.51,0,0,0-1.26,1.88c0.34,2,.52,3,0.86,4.93s0.52,3,.87,4.93a1.52,1.52,0,0,0,1.83,1.34l3-.8S840.79,324.32,841.56,324.15Z" transform="translate(-517.02 -154.03)"/><path class="cls-4" d="M837.64,308.79l8.69-5.76a2,2,0,0,0,.87-2.19,14.85,14.85,0,0,0-2.43-4.2,2,2,0,0,0-2.33-.34l-9.34,4.65c-0.7.35-2.06-.94-2.06-0.94l-2.79,1.3a1.52,1.52,0,0,0-.54,2.21l2.5,4.33,2.5,4.33a1.53,1.53,0,0,0,2.18.64l2.51-1.76S837,309.22,837.64,308.79Z" transform="translate(-517.02 -154.03)"/><path class="cls-4" d="M828.71,295.69l6.2-8.38a2,2,0,0,0,.07-2.36,14.85,14.85,0,0,0-3.72-3.12,2,2,0,0,0-2.31.47l-7.19,7.56c-0.54.57-2.26-.17-2.26-0.17l-2.17,2.17a1.51,1.51,0,0,0,.25,2.26l3.83,3.22,3.83,3.22a1.52,1.52,0,0,0,2.26-.15l1.76-2.51S828.25,296.33,828.71,295.69Z" transform="translate(-517.02 -154.03)"/><path class="cls-4" d="M815.84,286.45l3-10a2,2,0,0,0-.75-2.24,14.81,14.81,0,0,0-4.56-1.66,2,2,0,0,0-2,1.24l-4.17,9.56c-0.31.71-2.17,0.61-2.17,0.61l-1.31,2.78a1.52,1.52,0,0,0,1,2l4.7,1.71,4.7,1.71a1.51,1.51,0,0,0,2.08-.92l0.79-3S815.62,287.2,815.84,286.45Z" transform="translate(-517.02 -154.03)"/><path class="cls-13" d="M848.69,260.58l-0.09.5v0l0,0a38.22,38.22,0,0,0-6.66-6,31,31,0,0,0-3.8-2.37c-0.66-.35-1.3-0.74-2-1.06l-2-.91a52.15,52.15,0,0,0-8.43-2.89c-1.45-.3-2.92-0.63-4.35-0.85s-3-.45-4.46-0.47a38,38,0,0,0-4.42-.07c-1.48,0-2.95.16-4.42,0.28a46.48,46.48,0,0,0-8.65,1.84,51.8,51.8,0,0,0-8.2,3.34,64.44,64.44,0,0,0-7.59,4.62,75.34,75.34,0,0,0-7,5.49c-2.25,1.95-4.39,4-6.47,6.18s-4.06,4.39-6,6.68-3.79,4.64-5.63,7c-7.31,9.52-13.78,19.68-20.57,29.64q4.54-7.81,9.26-15.52c3.2-5.11,6.51-10.16,10.05-15.05a137.18,137.18,0,0,1,11.51-14c2.09-2.2,4.24-4.35,6.52-6.36a77.73,77.73,0,0,1,7.14-5.7,66.18,66.18,0,0,1,7.87-4.69,53.74,53.74,0,0,1,8.53-3.38,47.91,47.91,0,0,1,9-1.82,44.75,44.75,0,0,1,9.19,0c1.56,0.07,3,.41,4.5.61s3,0.65,4.48,1a53.13,53.13,0,0,1,8.53,3.22l2,1c0.67,0.36,1.3.79,2,1.18a31.58,31.58,0,0,1,3.73,2.6,34.79,34.79,0,0,1,3.4,3c1.08,1.05,2,2.3,2.95,3.43h0Z" transform="translate(-517.02 -154.03)"/><path class="cls-13" d="M854.12,252.42l-0.27.39a1.17,1.17,0,0,1-1.3.3c-1.19-.44-2.41-1.86-3.74-3.67s-3.15-3.89-5.18-6.29-4.4-5-7.16-7.71a51.36,51.36,0,0,0-9.82-7.41,36.56,36.56,0,0,0-12.89-4.29,40.77,40.77,0,0,0-14.5.9,59.46,59.46,0,0,0-14.13,5.42,120.38,120.38,0,0,0-13,8.1l-3.07,2.17-2.93,2.33c-1.92,1.57-3.9,3-5.7,4.64l-5.39,4.64-5,4.62-9.19,8.51c-2.88,2.6-5.35,5.14-7.63,7.32l-5.85,5.68L722.28,283l4.85-5.21,5.6-5.95c2.18-2.28,4.55-4.95,7.37-7.61l9-8.75L754,250.7l5.36-4.74c1.79-1.64,3.78-3.13,5.7-4.73l2.94-2.38,3.12-2.25a120.89,120.89,0,0,1,13.11-8.34,61.3,61.3,0,0,1,14.65-5.46A42.55,42.55,0,0,1,814,222a36,36,0,0,1,13.37,4.74,52.51,52.51,0,0,1,9.91,7.89,90.29,90.29,0,0,1,6.95,8c1.93,2.51,3.57,4.69,4.91,6.53s2.35,3.32,3.46,3.8a1.1,1.1,0,0,0,1.24-.21Z" transform="translate(-517.02 -154.03)"/><path class="cls-13" d="M735.2,255.14c0.15-.21.3-0.43,0.46-0.63a3.22,3.22,0,0,1,.65-0.5,2,2,0,0,1,.8-0.23,2.15,2.15,0,0,1,.84,0,3.09,3.09,0,0,1,.79.24,3.9,3.9,0,0,1,.73.36,11.5,11.5,0,0,1,1.34.91l-0.17-.11c2,0.68,4,1.37,6,2.11,1.91,0.92,3.79,1.91,5.68,2.87l0,0,0.05,0,3.06,2.58c0.94,0.94,1.89,1.88,2.81,2.85l2.54,3.09,2.22,3.32-0.05-.08,1.14,1.65c0.34,0.58.65,1.18,1,1.76s0.53,1.23.79,1.85,0.38,1.29.57,1.93,0.25,1.31.35,2l0.1,2-0.11,2-0.33,1.92,0-1.94-0.17-1.91-0.37-1.86-0.54-1.8c-0.24-.58-0.47-1.16-0.72-1.73s-0.56-1.11-.87-1.65-0.67-1-1-1.55l-1.14-1.47-0.05-.08-2.28-3.1-2.48-2.93c-0.91-.9-1.8-1.82-2.69-2.74l-2.89-2.53,0.1,0.07c-1.78-1-3.58-2-5.35-3.08-1.88-.84-3.75-1.71-5.63-2.61l-0.13-.06,0,0a10.65,10.65,0,0,0-1.09-1,3.48,3.48,0,0,0-.6-0.42,2.53,2.53,0,0,0-.64-0.31,1.71,1.71,0,0,0-.69-0.14,1.65,1.65,0,0,0-.7.09,3,3,0,0,0-.66.32C735.57,254.78,735.39,255,735.2,255.14Z" transform="translate(-517.02 -154.03)"/><path class="cls-13" d="M746.07,238.15a3.09,3.09,0,0,1,1.15-.63,2.12,2.12,0,0,1,.68-0.08,2.25,2.25,0,0,1,.68.1,4,4,0,0,1,1.25.56,8.82,8.82,0,0,1,1.09.81l-0.16-.11q5.39,1.83,10.71,3.95h0l0,0,1.64,1c0.53,0.36,1.1.67,1.61,1.06,1,0.81,2.09,1.51,3,2.41a36.28,36.28,0,0,1,2.75,2.71l1.28,1.44c0.45,0.5.79,1,1.2,1.48l1.17,1.48a10.6,10.6,0,0,1,1.06,1.61,28.23,28.23,0,0,1,1.86,3.41l0.72,1.78a16.17,16.17,0,0,1,.64,1.8c0.31,1.24.62,2.47,0.87,3.7-0.54-1.16-1-2.31-1.5-3.46a15.63,15.63,0,0,0-.89-1.64l-0.9-1.62c-0.58-1.09-1.39-2-2-3a9.53,9.53,0,0,0-1.13-1.45l-1.24-1.42c-0.41-.46-0.82-1-1.24-1.39l-1.27-1.33a34.12,34.12,0,0,0-2.66-2.54c-0.89-.84-1.9-1.54-2.85-2.32-0.48-.39-1-0.69-1.52-1l-1.52-1,0.08,0q-5.15-2.27-10.22-4.81l-0.12-.06,0,0a8.18,8.18,0,0,0-.86-0.87,3.46,3.46,0,0,0-1-.65,1.84,1.84,0,0,0-.57-0.17,2.27,2.27,0,0,0-.6,0A2.9,2.9,0,0,0,746.07,238.15Z" transform="translate(-517.02 -154.03)"/><path class="cls-13" d="M763.06,234.75l1.32,0.12a16.09,16.09,0,0,1,3.41,1,24.3,24.3,0,0,1,4.39,2.44,25.21,25.21,0,0,1,2.23,1.78c0.78,0.76,1.35,1.36,2,2.13a19.76,19.76,0,0,1,1.67,2.55c0.24,0.43.47,0.87,0.67,1.3l0.5,1.33A16,16,0,0,1,780,250a20.8,20.8,0,0,1,.32,2.36,19.87,19.87,0,0,1,0,2,10.26,10.26,0,0,1-.11,1.53L780,257.18l-0.23-1.31c-0.07-.41-0.13-0.91-0.26-1.48s-0.24-1.2-.41-1.88-0.37-1.41-.63-2.16-0.52-1.54-.91-2.31l-0.54-1.18-0.67-1.15a18.77,18.77,0,0,0-1.49-2.18c-0.55-.69-1.28-1.49-1.83-2.05s-1.31-1.23-2-1.79-1.32-1.08-2-1.54-1.28-.88-1.86-1.28a29.38,29.38,0,0,0-3-1.63Z" transform="translate(-517.02 -154.03)"/><path class="cls-13" d="M789.56,461.06s0,0.41.1,1.19a9,9,0,0,1,0,1.44,12.77,12.77,0,0,1-.13,2,35,35,0,0,1-3.73,11.53c-1.12,2.25-2.47,4.62-4,7.06s-3.12,5-5,7.53-3.64,5.18-5.82,7.69l-3.17,3.86L764.45,507c-1.18,1.19-2.29,2.44-3.52,3.57l-3.69,3.34-1.82,1.65-0.45.41-0.11.1-0.16.13-0.24.18-1,.73L749.71,520c-2.47,1.9-4.91,3.67-7.21,5.37l-3.35,2.47c-1.1.78-2.24,1.42-3.29,2.1-4.24,2.67-7.84,4.78-10.32,6.3l-3.93,2.33,3.72-2.67c2.39-1.66,5.75-4.1,9.85-6.89,1-.71,2.11-1.4,3.17-2.22l3.25-2.61c2.23-1.79,4.57-3.69,7-5.59l3.74-2.92,1-.74,0.24-.19,0.08-.06,0.11-.1,0.44-.41,1.78-1.66,3.59-3.34c1.2-1.12,2.27-2.38,3.42-3.56L766.4,502l3.16-3.73c2.15-2.41,4-5,5.88-7.55s3.55-4.92,5.17-7.29,3-4.63,4.21-6.79a37.11,37.11,0,0,0,4.35-11.05,16.32,16.32,0,0,0,.28-1.9,9.05,9.05,0,0,0,.1-1.43C789.56,461.47,789.56,461.06,789.56,461.06Z" transform="translate(-517.02 -154.03)"/><path class="cls-13" d="M782.09,463.78l-0.62,1.08a25.35,25.35,0,0,1-1.87,3,41.24,41.24,0,0,1-3.43,4.28,55.27,55.27,0,0,1-5.09,5c-2,1.72-4.12,3.49-6.51,5.33s-4.85,3.69-7.52,5.54-5.55,3.64-8.48,5.41-5.95,3.48-9.05,5l-4.69,2.25-2.33,1.12c-0.85.38-1.6,0.65-2.4,1-3.16,1.25-6.25,2.53-9.28,3.68s-6.11,2-9,2.85-5.59,1.53-8.09,2.23-4.8,1.29-6.87,1.72l-5.32,1.19-4.65,1,4.55-1.38,5.23-1.54c2-.57,4.27-1.36,6.75-2.09s5.18-1.5,7.94-2.54,5.7-2.05,8.75-3.07c3-1.19,6.08-2.51,9.22-3.81,0.77-.33,1.61-0.65,2.32-1l2.29-1.14,4.61-2.28c3.09-1.5,6-3.27,9-4.86s5.68-3.53,8.42-5.21l7.68-5.3c2.39-1.69,4.64-3.39,6.64-5a57.5,57.5,0,0,0,8.94-8.61,31.73,31.73,0,0,0,2.1-2.8Z" transform="translate(-517.02 -154.03)"/><path class="cls-13" d="M716.17,493s0.44,0.5,1.18,1.39l1.32,1.62a18.35,18.35,0,0,1,1.63,2.16l1.71,2.75a51,51,0,0,1,3.43,6.64c0.52,1.23,1,2.49,1.42,3.76a39.19,39.19,0,0,1,1.09,3.85,32.1,32.1,0,0,1,.77,3.79,30.92,30.92,0,0,1,.46,3.58c0.1,1.14.21,2.22,0.19,3.22a42.93,42.93,0,0,1-.12,4.82c-0.08,1.16-.16,1.82-0.16,1.82s-0.11-.66-0.24-1.81l-0.23-2.06c-0.13-.79-0.28-1.69-0.41-2.66s-0.35-2-.54-3.12-0.44-2.26-.71-3.45l-0.4-1.81L726,515.66c-0.3-1.24-.69-2.48-1.12-3.71s-0.82-2.45-1.29-3.63-0.94-2.36-1.45-3.48-1-2.16-1.49-3.18l-1.36-2.86c-0.39-.9-0.92-1.66-1.28-2.38l-1-1.83C716.46,493.59,716.17,493,716.17,493Z" transform="translate(-517.02 -154.03)"/><path class="cls-13" d="M724.32,488.92l0.36,0.17a4.6,4.6,0,0,1,1,.54,12.7,12.7,0,0,1,2.83,3c0.48,0.7,1,1.47,1.45,2.3s1,1.64,1.46,2.62,1,1.86,1.44,2.84,1,1.93,1.4,3l1.15,3.15c0.37,1,.75,2.09,1,3.08a16.38,16.38,0,0,1,.67,2.94,17.79,17.79,0,0,1,.24,2.77c0,0.85-.07,1.63-0.11,2.31s-0.23,1.26-.31,1.74c-0.2,1-.34,1.49-0.34,1.49s0-.57-0.06-1.52c0-.48,0-1.06,0-1.72s-0.21-1.4-.29-2.2-0.38-1.61-.55-2.49a22.52,22.52,0,0,0-.91-2.78c-0.32-1-.77-1.9-1.14-2.92l-1.16-3c-0.35-1-.89-2-1.32-3s-0.87-2-1.28-2.91l-1.2-2.7c-0.38-.86-0.74-1.66-1.09-2.39s-0.7-1.39-1.07-1.92a8.9,8.9,0,0,0-1-1.35,6.46,6.46,0,0,0-.81-0.77Z" transform="translate(-517.02 -154.03)"/><path class="cls-13" d="M738.59,486.2l1,0.6a5.8,5.8,0,0,1,1,.78,14.21,14.21,0,0,1,1.26,1.19c0.41,0.46.9,1,1.32,1.52a19.4,19.4,0,0,1,1.35,1.81c0.42,0.64.88,1.28,1.31,2,0.21,0.34.44,0.67,0.64,1l0.52,1.17,1,2.37,0.24,0.58c0.1,0.43.08,0.46,0.13,0.7l0.19,1.15a9.06,9.06,0,0,1,.09,2.32c0,0.38,0,.74,0,1.1l-0.23,1a15.71,15.71,0,0,1-.46,1.67l-0.59,1.19c-0.34.65-.54,1-0.54,1l0.16-1.13,0.21-1.25c0-.48,0-1,0.06-1.62l0-.91-0.11-.94a10.51,10.51,0,0,0-.33-2l-0.29-1.13-0.12-.46-0.23-.52-0.93-2.11-0.43-1.08c-0.17-.36-0.4-0.7-0.6-1-0.42-.69-0.78-1.39-1.16-2.05s-0.69-1.25-1.07-1.88l-1-1.67c-0.31-.53-0.63-0.93-0.89-1.35a8.43,8.43,0,0,0-.77-1Z" transform="translate(-517.02 -154.03)"/><path class="cls-13" d="M751.51,485.52a11.49,11.49,0,0,1,1.5,1.38c0.21,0.22.44,0.46,0.66,0.73L754,488c0.16,0.26.19,0.34,0.29,0.53a10.82,10.82,0,0,1,.92,2.12,14.64,14.64,0,0,1,.48,2.36,15.34,15.34,0,0,1,.09,2,10.76,10.76,0,0,1-.21,2,10.42,10.42,0,0,1-.94-1.79,17.56,17.56,0,0,1-.69-1.86c-0.21-.71-0.45-1.34-0.64-2s-0.51-1.44-.66-2.14c0-.15-0.13-0.41-0.13-0.46l-0.19-.46c-0.13-.3-0.24-0.59-0.33-0.86A9.89,9.89,0,0,1,751.51,485.52Z" transform="translate(-517.02 -154.03)"/><path class="cls-10" d="M1094.33,343.79s-0.47-35.57,11.23-51,34.16-29.48,34.16-29.48l4.21,4.21s-22.46,20.59-26.2,29.95,1.87,18.25,3.74,19.19,10.29-2.81,10.29-2.81,11.23-15.44,24.33-25.27,22.46-13.1,22.46-13.1l-0.47,9.36s-18.72,10.76-27.61,24.33-22,37.44-21.53,40.71a9.69,9.69,0,0,1-1.4,6.08,193.86,193.86,0,0,1-19.19-2.81c-12.63-2.34-15.44-1.4-15.44-1.4Z" transform="translate(-517.02 -154.03)"/><path class="cls-14" d="M1122.88,312l-4.21,4.21,2.34,5.15s-11.23,13.1-17.31,10.3-15-13.1-15-13.1l-8.89,3.74,3.74,9.36s12.17,8,21.53,5.61,17.78-15.44,17.78-15.44l4.1-6.09Z" transform="translate(-517.02 -154.03)"/><path class="cls-14" d="M1092.92,351.75s-4.68,10.3-4.21,13.57,1.4,14.5-10.29,18.72-28.08,4.68-28.08,4.68l-0.47,6.08s30.42,1.87,41.65-8.42,13.1-14,15.91-14.51,32.29-1.87,34.16-.47,15.91,23.4,15.91,23.4l6.08-2.81s-6.55-28.54-10.76-31.82-20.12-3.75-20.12-3.75l-4.21-2.81S1114,347.07,1092.92,351.75Z" transform="translate(-517.02 -154.03)"/><path class="cls-6" d="M1159.38,394.33s0,5.15.47,6.55,1.4,0.94,3.74-.47a9,9,0,0,0,3.28-3.28s3.27,0.94,7-3.74,3.74-6.55,3.74-6.55l-2.81-.47s-4.68,5.61-7,6.08a7.12,7.12,0,0,1-4.21-.47l-6.08,2.81" transform="translate(-517.02 -154.03)"/><path class="cls-6" d="M1050.34,388.72l-7-3.74-2.34,2.81v2.81a15,15,0,0,0-1.4,7.49c0.47,3.74,4.21,10.76,4.21,10.76l3.28-.47s-2.34-7.48-1.41-9.83,4.21-3.75,4.21-3.75Z" transform="translate(-517.02 -154.03)"/><path class="cls-15" d="M1113,309.17c1.4-.47,7-8,7-8l2.81,10.76-5.61,8.89Z" transform="translate(-517.02 -154.03)"/><polygon class="cls-15" points="615.22 154.2 608.05 158.8 610.07 168.24 616.62 162.62 615.22 154.2"/><path class="cls-1" d="M1121,302.83c0.94-1.87,10-25.57,11.82-25.11s13.92,7.32,13.92,9.19-8,22-12.17,22.93S1121,302.83,1121,302.83Z" transform="translate(-517.02 -154.03)"/><path class="cls-6" d="M1126.14,286s1.2,0,.84,1.8a39,39,0,0,1-1.32,4.43l1.68,0.48a9.83,9.83,0,0,1,1.2-4.43c1.2-2,1.44-.6,2.52-3.36a32.38,32.38,0,0,0,1.56-5.51,48.35,48.35,0,0,1,7.91,2.76c2.4,1.32,4.11,5.09,6.25,4.76s3.58-1.16,3.58-2.72-8.63-9.23-12.58-10.54-11.26,2-12.58,6.47-2.64,11.62-2.64,11.62l0.72,1.08Z" transform="translate(-517.02 -154.03)"/><path class="cls-16" d="M1133.45,288.15a8.13,8.13,0,0,0,3.59,0,5.31,5.31,0,0,0,2-1l-0.84-.36A39.43,39.43,0,0,1,1133.45,288.15Z" transform="translate(-517.02 -154.03)"/><path class="cls-16" d="M1141.72,288.27s-0.24,1.8.48,2.52l0.72,0.72a5,5,0,0,1-.24-2l0.12-1.08Z" transform="translate(-517.02 -154.03)"/><ellipse class="cls-16" cx="619.13" cy="136.34" rx="0.42" ry="0.9"/><ellipse class="cls-16" cx="1140.96" cy="292" rx="0.9" ry="0.35" transform="translate(-190.29 988.9) rotate(-60.62)"/><path class="cls-17" d="M1139.8,291.14l-0.09.46-1.34,6.61-2.52-.48s-0.6.84-.24,0.84,3.23,0.36,3.23.36" transform="translate(-517.02 -154.03)"/><path class="cls-18" d="M1136.56,300.73s-3.71-1-5-.48a6.79,6.79,0,0,0-2.52,2.28l4.08,0.6Z" transform="translate(-517.02 -154.03)"/><path class="cls-4" d="M1014.26,171.11c1.33,11.93-10.86,24.1-25.49,24.54-12.79.39-19.54-8.85-16.91-18.87,2.25-8.53,11-16.07,20.59-18.06C1003,156.53,1013.18,161.32,1014.26,171.11Zm-22.2-8.56c-7.31,1.38-13.91,7.14-15.33,13.58-1.61,7.26,3.68,13.43,12.7,12.87,9.9-.62,18.29-8.76,17.9-17C1007,164.9,999.93,161.06,992.07,162.55Z" transform="translate(-517.02 -154.03)"/><path class="cls-4" d="M994.34,158.06c0-.23,0-3,0-3a0.44,0.44,0,0,0-.54-0.39,9.07,9.07,0,0,0-1.91.44,1,1,0,0,0-.63.64l-0.61,3.06a1.83,1.83,0,0,1-.78.55l-0.22.95c-0.07.27,0.21,0.43,0.6,0.35l2.06-.41,2.1-.42a0.81,0.81,0,0,0,.73-0.64c0-.36,0-0.55,0-0.91A1,1,0,0,1,994.34,158.06Z" transform="translate(-517.02 -154.03)"/><path class="cls-4" d="M987.92,159.74l-1.18-2.41a0.56,0.56,0,0,0-.69-0.19,10,10,0,0,0-1.77.84,0.73,0.73,0,0,0-.39.68l0.58,2.68a1.52,1.52,0,0,1-.59.66c0.06,0.34.08,0.51,0.14,0.85s0.38,0.3.76,0.13l1.94-.9,2-.9a0.62,0.62,0,0,0,.49-0.7l-0.41-.73A1.28,1.28,0,0,1,987.92,159.74Z" transform="translate(-517.02 -154.03)"/><path class="cls-4" d="M982,162.83l-2.18-1.7a0.76,0.76,0,0,0-.8,0,9.33,9.33,0,0,0-1.54,1.17,0.53,0.53,0,0,0-.14.69l1.67,2.11a1.21,1.21,0,0,1-.36.73l0.48,0.68a0.65,0.65,0,0,0,.85-0.11l1.69-1.31,1.68-1.29c0.33-.25.43-0.58,0.22-0.72l-0.71-.5A1.62,1.62,0,0,1,982,162.83Z" transform="translate(-517.02 -154.03)"/><path class="cls-4" d="M977,167.09l-3-.84a1,1,0,0,0-.85.26A8.67,8.67,0,0,0,971.9,168a0.42,0.42,0,0,0,.11.64l2.67,1.34a0.9,0.9,0,0,1-.11.75l0.8,0.45a0.8,0.8,0,0,0,.89-0.35l1.3-1.63,1.28-1.61c0.25-.32.22-0.62,0-0.68l-1-.22A1.81,1.81,0,0,1,977,167.09Z" transform="translate(-517.02 -154.03)"/><path class="cls-4" d="M973.24,172.29l-3.71.2a1.2,1.2,0,0,0-.86.5,7.12,7.12,0,0,0-.8,1.7,0.4,0.4,0,0,0,.38.54l3.55,0.34c0.27,0,.18.7,0.18,0.7l1.08,0.15a0.93,0.93,0,0,0,.85-0.6l0.79-1.86,0.76-1.81c0.15-.35,0-0.61-0.33-0.58l-1.14.1A1.88,1.88,0,0,1,973.24,172.29Z" transform="translate(-517.02 -154.03)"/><path class="cls-4" d="M971.12,178.13L967,179.54a1.34,1.34,0,0,0-.79.75,5.74,5.74,0,0,0-.25,1.84,0.48,0.48,0,0,0,.66.36l4.22-.91c0.32-.07.49,0.58,0.49,0.58l1.28-.25a0.94,0.94,0,0,0,.71-0.84c0.05-.79.08-1.18,0.13-1.94l0.12-1.88a0.4,0.4,0,0,0-.6-0.42l-1.24.46A1.7,1.7,0,0,1,971.12,178.13Z" transform="translate(-517.02 -154.03)"/><path class="cls-4" d="M971.08,184.18L966.84,187a1.33,1.33,0,0,0-.63,1,4.81,4.81,0,0,0,.46,1.83,0.68,0.68,0,0,0,.94.1l4.53-2.43a0.87,0.87,0,0,1,.8.36l1.36-.69a0.88,0.88,0,0,0,.46-1l-0.66-1.84-0.63-1.76a0.52,0.52,0,0,0-.85-0.17l-1.22.85A1.51,1.51,0,0,1,971.08,184.18Z" transform="translate(-517.02 -154.03)"/><path class="cls-4" d="M973.52,189.8l-3.75,4.27a1.24,1.24,0,0,0-.32,1.2,4.81,4.81,0,0,0,1.32,1.58,1,1,0,0,0,1.14-.28l4.22-4.07a1.22,1.22,0,0,1,1.06,0l1.25-1.16a0.77,0.77,0,0,0,.09-1.13l-1.5-1.46-1.44-1.4a0.71,0.71,0,0,0-1,.15l-1,1.23A1.25,1.25,0,0,1,973.52,189.8Z" transform="translate(-517.02 -154.03)"/><path class="cls-4" d="M978.66,194.15l-2.48,5.55a1.1,1.1,0,0,0,.14,1.29,5.66,5.66,0,0,0,2.19,1,1.21,1.21,0,0,0,1.18-.73l3-5.54a1.64,1.64,0,0,1,1.19-.38l0.89-1.56a0.71,0.71,0,0,0-.38-1.07l-2.27-.79-2.19-.76a0.9,0.9,0,0,0-1.09.52l-0.66,1.55A1.14,1.14,0,0,1,978.66,194.15Z" transform="translate(-517.02 -154.03)"/><path class="cls-4" d="M986.22,196.25c0,0.45-.37,6.22-0.37,6.22a1.07,1.07,0,0,0,.71,1.17,7.93,7.93,0,0,0,2.85,0,1.38,1.38,0,0,0,1-1.18s0.83-5.92.9-6.38a1.89,1.89,0,0,1,1.11-.8l0.28-1.76a0.75,0.75,0,0,0-.86-0.84l-2.76.12-2.69.12a1,1,0,0,0-1,.89c0,0.67,0,1-.07,1.69A1.25,1.25,0,0,1,986.22,196.25Z" transform="translate(-517.02 -154.03)"/><path class="cls-4" d="M995.24,195.3l2.3,5.88a1.19,1.19,0,0,0,1.26.8,9.37,9.37,0,0,0,3-1.1,1.3,1.3,0,0,0,.49-1.46l-1.83-6.12c-0.13-.43.79-1.12,0.79-1.12l-0.46-1.67a0.87,0.87,0,0,0-1.23-.44l-2.78,1.09L994,192.24a0.94,0.94,0,0,0-.64,1.17c0.26,0.62.39,0.94,0.64,1.58C994,195,995.08,194.88,995.24,195.3Z" transform="translate(-517.02 -154.03)"/><path class="cls-4" d="M1004.07,191.15l4.81,4.39a1.44,1.44,0,0,0,1.58.25,9.58,9.58,0,0,0,2.41-2.05,1.13,1.13,0,0,0-.16-1.45l-4.38-4.69c-0.31-.34.29-1.24,0.29-1.24l-1.16-1.28a1,1,0,0,0-1.38,0L1003.8,187l-2.29,1.9a0.83,0.83,0,0,0-.15,1.27l1.32,1.16S1003.73,190.84,1004.07,191.15Z" transform="translate(-517.02 -154.03)"/><path class="cls-4" d="M1010.92,184.52l6.38,2.16a1.5,1.5,0,0,0,1.57-.3,7.53,7.53,0,0,0,1.33-2.51,1.07,1.07,0,0,0-.77-1.16l-6-2.55c-0.43-.17-0.25-1.11-0.25-1.11l-1.61-.72a1,1,0,0,0-1.29.45l-1.37,2.29-1.4,2.35a0.73,0.73,0,0,0,.39,1.13l1.76,0.57A2,2,0,0,1,1010.92,184.52Z" transform="translate(-517.02 -154.03)"/><path class="cls-4" d="M1014.55,176.84l6.66-.13a1.33,1.33,0,0,0,1.26-.7,5.47,5.47,0,0,0,.13-2.39,1.19,1.19,0,0,0-1.16-.72l-6.41-.35a1.14,1.14,0,0,1-.69-0.83l-1.77-.13a0.92,0.92,0,0,0-1,.73c-0.13.91-.19,1.36-0.32,2.28l-0.33,2.36a0.74,0.74,0,0,0,.83.83l1.87-.07A1.65,1.65,0,0,1,1014.55,176.84Z" transform="translate(-517.02 -154.03)"/><path class="cls-4" d="M1014.69,169.56l5.85-1.9a1,1,0,0,0,.81-0.89,4.64,4.64,0,0,0-.86-1.9,1.33,1.33,0,0,0-1.29-.26l-5.82,1.39a1.32,1.32,0,0,1-1-.48l-1.65.36a0.7,0.7,0,0,0-.62.85l0.63,1.92,0.66,2a0.82,0.82,0,0,0,1.1.43l1.68-.57A1.14,1.14,0,0,1,1014.69,169.56Z" transform="translate(-517.02 -154.03)"/><path class="cls-4" d="M1011.85,163.73l4.43-2.95a0.66,0.66,0,0,0,.36-0.88,5.15,5.15,0,0,0-1.51-1.25,1.47,1.47,0,0,0-1.24.11l-4.65,2.51a1.64,1.64,0,0,1-1.06-.14l-1.37.71a0.51,0.51,0,0,0-.23.83l1.35,1.36,1.41,1.42a1,1,0,0,0,1.18.06l1.29-.89A0.84,0.84,0,0,1,1011.85,163.73Z" transform="translate(-517.02 -154.03)"/><path class="cls-4" d="M1007,159.86l2.85-3.36a0.48,0.48,0,0,0,0-.76,6.29,6.29,0,0,0-1.85-.61,1.44,1.44,0,0,0-1.08.37l-3.27,3.07a1.88,1.88,0,0,1-1,.16l-1,.89a0.39,0.39,0,0,0,.11.72l1.81,0.74,1.87,0.78a1,1,0,0,0,1.11-.26l0.83-1S1006.73,160.11,1007,159.86Z" transform="translate(-517.02 -154.03)"/><path class="cls-4" d="M1000.87,158l1.33-3.32a0.4,0.4,0,0,0-.33-0.58,7.27,7.27,0,0,0-2,0,1.23,1.23,0,0,0-.86.54l-1.89,3.22a2,2,0,0,1-.94.38l-0.61,1c-0.17.28,0,.53,0.39,0.55l2,0.13,2.09,0.15a1,1,0,0,0,.95-0.48l0.37-1S1000.77,158.28,1000.87,158Z" transform="translate(-517.02 -154.03)"/><path class="cls-3" d="M793.43,619.42C789.59,633.84,768,643.78,748,640.65c-17.8-2.79-25.86-14.9-20.14-26.44,5.31-10.7,21.4-18.6,37.64-18.33C783.5,596.17,796.92,606.27,793.43,619.42Zm-30-18.16c-12.09-.4-24.18,5.5-28,13.55-4,8.52,2.36,17.1,15.3,18.83,14.06,1.88,29-5.08,32-15.07C785.62,609.22,776.46,601.68,763.43,601.26Z" transform="translate(-517.02 -154.03)"/><path class="cls-3" d="M768.87,595.53l1.24-4.46a0.68,0.68,0,0,0-.72-0.78,17.11,17.11,0,0,0-3.32,0,1.7,1.7,0,0,0-1.29.76l-2.19,4.38a3.35,3.35,0,0,1-1.48.53l-0.72,1.32c-0.21.37,0.17,0.69,0.84,0.7l3.46,0.08,3.53,0.08a1.41,1.41,0,0,0,1.43-.67c0.13-.54.18-0.8,0.31-1.35C770,596.12,768.77,595.86,768.87,595.53Z" transform="translate(-517.02 -154.03)"/><path class="cls-3" d="M757.84,595.86c-0.08-.31-1-4-1-4a1,1,0,0,0-1.08-.51,17,17,0,0,0-3.19.66,1.11,1.11,0,0,0-.87.89s0.05,3.83.06,4.15a2.42,2.42,0,0,1-1.17.77c0,0.51,0,.75,0,1.26s0.51,0.55,1.17.44l3.41-.65,3.45-.66c0.68-.12,1.15-0.51,1-0.87l-0.39-1.19S757.92,596.16,757.84,595.86Z" transform="translate(-517.02 -154.03)"/><path class="cls-3" d="M747.3,598.4l-3-3.19A1.38,1.38,0,0,0,743,595a15.29,15.29,0,0,0-2.83,1.22,0.72,0.72,0,0,0-.42,1l2.12,3.56c0.16,0.28-.78.91-0.78,0.91l0.59,1.11a1.14,1.14,0,0,0,1.38.12l3.06-1.29,3.07-1.3c0.61-.25.86-0.68,0.58-1l-1-1A2.84,2.84,0,0,1,747.3,598.4Z" transform="translate(-517.02 -154.03)"/><path class="cls-3" d="M738.09,602.83l-4.63-2.14a1.74,1.74,0,0,0-1.43.09,12.64,12.64,0,0,0-2.28,1.67,0.56,0.56,0,0,0,0,.92l3.93,2.68c0.3,0.2-.34,1-0.34,1l1.16,0.86a1.37,1.37,0,0,0,1.47-.21l2.45-1.81,2.44-1.8c0.48-.35.52-0.78,0.1-1l-1.46-.62A3.09,3.09,0,0,1,738.09,602.83Z" transform="translate(-517.02 -154.03)"/><path class="cls-3" d="M730.94,608.74l-5.84-.86a1.85,1.85,0,0,0-1.44.4,8.37,8.37,0,0,0-1.55,2,0.59,0.59,0,0,0,.5.82l5.42,1.51c0.42,0.11.14,1,.14,1l1.63,0.5a1.42,1.42,0,0,0,1.42-.53l1.61-2.18,1.59-2.15a0.51,0.51,0,0,0-.38-0.88l-1.8-.23A2.71,2.71,0,0,1,730.94,608.74Z" transform="translate(-517.02 -154.03)"/><path class="cls-3" d="M726.51,615.71l-6.58.58a1.74,1.74,0,0,0-1.32.71,5.73,5.73,0,0,0-.65,2.21,0.82,0.82,0,0,0,.95.63l6.5,0.08a1,1,0,0,1,.63.85l2,0.07a1.21,1.21,0,0,0,1.22-.82l0.58-2.38,0.57-2.33c0.11-.45-0.26-0.77-0.83-0.7l-2,.21A2.13,2.13,0,0,1,726.51,615.71Z" transform="translate(-517.02 -154.03)"/><path class="cls-3" d="M725.35,623.15l-6.71,2.16a1.44,1.44,0,0,0-1.06,1,5,5,0,0,0,.42,2.24,1.21,1.21,0,0,0,1.35.35l7-1.56a1.44,1.44,0,0,1,1.1.63l2.11-.43a1,1,0,0,0,.87-1.07c-0.25-.93-0.36-1.4-0.6-2.34l-0.59-2.29a0.89,0.89,0,0,0-1.23-.45l-2,.69A1.57,1.57,0,0,1,725.35,623.15Z" transform="translate(-517.02 -154.03)"/><path class="cls-3" d="M727.91,630.36l-6.08,3.78a1.11,1.11,0,0,0-.64,1.23,6.25,6.25,0,0,0,1.61,2,1.69,1.69,0,0,0,1.64,0l6.68-3.34a2.21,2.21,0,0,1,1.5.32l2-1a0.76,0.76,0,0,0,.37-1.23l-1.84-2-1.8-2a1.23,1.23,0,0,0-1.52-.11l-1.74,1.14A1.17,1.17,0,0,1,727.91,630.36Z" transform="translate(-517.02 -154.03)"/><path class="cls-3" d="M734.36,636.51l-4.53,5.24a0.94,0.94,0,0,0,0,1.36,9.32,9.32,0,0,0,2.8,1.52,1.9,1.9,0,0,0,1.75-.46l5.35-5a3,3,0,0,1,1.74-.1l1.61-1.44a0.71,0.71,0,0,0-.26-1.25l-3-1.45-2.92-1.4a1.43,1.43,0,0,0-1.66.29l-1.26,1.52S734.69,636.12,734.36,636.51Z" transform="translate(-517.02 -154.03)"/><path class="cls-3" d="M744.38,640.64c-0.15.46-2,6.26-2,6.26a1,1,0,0,0,.68,1.32,14.6,14.6,0,0,0,3.78.69,1.77,1.77,0,0,0,1.59-.93l2.91-6.23c0.21-.46,1.74-0.56,1.74-0.56L754,639.4c0.25-.5-0.17-1-0.94-1.11l-3.86-.57-3.77-.56a1.39,1.39,0,0,0-1.58.71l-0.51,1.78S744.53,640.17,744.38,640.64Z" transform="translate(-517.02 -154.03)"/><path class="cls-3" d="M757,641.87l1.32,6.49a1.49,1.49,0,0,0,1.42,1.08,16.65,16.65,0,0,0,4.26-.38,1.37,1.37,0,0,0,1.12-1.32s-0.4-6.18-.43-6.67,1.46-1,1.46-1c0-.76,0-1.14-0.06-1.9a1.22,1.22,0,0,0-1.54-.79l-4.21.47-4.14.46c-0.8.1-1.36,0.58-1.24,1.08l0.42,1.81S756.88,641.4,757,641.87Z" transform="translate(-517.02 -154.03)"/><path class="cls-3" d="M770.4,639.71l4.86,5.72a2.2,2.2,0,0,0,2,.64,16.51,16.51,0,0,0,4-1.49,1,1,0,0,0,.37-1.54L777.58,637c-0.29-.44.9-1.28,0.9-1.28L777.39,634a1.65,1.65,0,0,0-1.94-.33l-3.9,1.49-3.87,1.49c-0.76.3-1,.89-0.66,1.33l1.41,1.58S770,639.29,770.4,639.71Z" transform="translate(-517.02 -154.03)"/><path class="cls-3" d="M782.45,634.28l7.84,4a2.68,2.68,0,0,0,2.28.07,11.56,11.56,0,0,0,3-2.38,1,1,0,0,0-.5-1.49l-7.2-4.45c-0.52-.33.16-1.36,0.16-1.36-0.79-.52-1.18-0.78-2-1.28a1.87,1.87,0,0,0-2,.17l-2.94,2.29-3,2.3a0.75,0.75,0,0,0,.08,1.37l2.22,1.09A3.64,3.64,0,0,1,782.45,634.28Z" transform="translate(-517.02 -154.03)"/><path class="cls-3" d="M791,626.45l9.53,1.67a2.53,2.53,0,0,0,2.16-.48,6.86,6.86,0,0,0,1.47-2.8c0.13-.46-0.47-1-1.27-1.18l-9.09-2.24c-0.66-.16-0.58-1.23-0.58-1.23l-2.52-.66a1.67,1.67,0,0,0-1.82.62c-0.62,1.07-.92,1.61-1.55,2.7l-1.56,2.73c-0.31.55,0.05,1.08,0.81,1.21l2.71,0.43A2.9,2.9,0,0,1,791,626.45Z" transform="translate(-517.02 -154.03)"/><path class="cls-3" d="M794.84,617.58l9.64-.69a1.85,1.85,0,0,0,1.7-.89,5,5,0,0,0-.19-2.72,1.94,1.94,0,0,0-1.78-.72l-9.48.07a1.72,1.72,0,0,1-1.19-.93l-2.68,0a1.2,1.2,0,0,0-1.36.93c0,1.06,0,1.6,0,2.67s0,1.64,0,2.74a1.15,1.15,0,0,0,1.4.87l2.76-.24A1.88,1.88,0,0,1,794.84,617.58Z" transform="translate(-517.02 -154.03)"/><path class="cls-3" d="M793.61,609.13L802,606.5c0.72-.23,1.22-0.72,1.05-1.1a5.94,5.94,0,0,0-1.61-2.22,2.46,2.46,0,0,0-2-.24l-8.56,2a2.6,2.6,0,0,1-1.57-.53l-2.48.55c-0.7.16-1,.63-0.77,1.07l1.4,2.27,1.44,2.34a1.57,1.57,0,0,0,1.76.44l2.41-.81A1.14,1.14,0,0,1,793.61,609.13Z" transform="translate(-517.02 -154.03)"/><path class="cls-3" d="M788,602.25l6.25-3.88c0.53-.34.72-0.85,0.37-1.13a9.49,9.49,0,0,0-2.6-1.51,2.69,2.69,0,0,0-1.92.19l-6.76,3.4a3.34,3.34,0,0,1-1.73-.11l-2,1c-0.57.27-.65,0.74-0.16,1.06l2.48,1.62,2.55,1.67a1.82,1.82,0,0,0,1.85,0l1.81-1.18S787.57,602.55,788,602.25Z" transform="translate(-517.02 -154.03)"/><path class="cls-3" d="M779.35,597.64l3.74-4.47a0.58,0.58,0,0,0-.24-1,13.11,13.11,0,0,0-3.15-.74A2.34,2.34,0,0,0,778,592l-4.53,4.16a3.63,3.63,0,0,1-1.67.25l-1.4,1.2c-0.39.35-.22,0.76,0.39,0.93l3.17,0.86,3.25,0.89a1.77,1.77,0,0,0,1.72-.38l1.07-1.35S779.06,598,779.35,597.64Z" transform="translate(-517.02 -154.03)"/><path class="cls-19" d="M1196,420.19l-170.53,58.54s0,10.78,5.39,28.13,9.88,26,9.88,26l179.87-48.55s7.42-5.64-1.6-36.06C1210.33,418.9,1196,420.19,1196,420.19Z" transform="translate(-517.02 -154.03)"/><path class="cls-20" d="M1093.79,491q64.76-11.2,129.44-22.84c1.27,13.17-2.61,16.14-2.61,16.14l-179.87,48.55s-4.48-8.63-9.88-26c-0.51-1.65-1-3.21-1.38-4.74Q1061.63,496.55,1093.79,491Z" transform="translate(-517.02 -154.03)"/><path class="cls-21" d="M966.7,495s16,0.82,28.21,18.15c13.53,19.17,7.54,27.48,7.54,27.48s-5.85,6.53-9.5,6.12-19.41-10-30.58-3.61c-11.39,6.47-44.06,34.49-44.06,34.49l-3.24-4.05s43.24-36.43,45.54-42.33-1.48-19.86-2.2-24.46S957.47,502.34,966.7,495Z" transform="translate(-517.02 -154.03)"/><text class="cls-22" transform="translate(547.75 337.85) rotate(-17.69)">TREASU<tspan x="58.59" y="0">R</tspan><tspan x="68.16" y="0">Y</tspan><tspan x="0" y="19.94">BONDS</tspan></text><ellipse class="cls-21" cx="1034.6" cy="506.46" rx="13.26" ry="28.73" transform="translate(-621.99 184.3) rotate(-17.69)"/><path class="cls-23" d="M1040.86,512.82c-8.79-.78-15.63-4.15-20.66-9.34a60.52,60.52,0,0,0,1.77,7c4.82,15.12,14.39,25.57,21.36,23.35,5.46-1.74,7.69-10.72,6.11-21.78A24.78,24.78,0,0,1,1040.86,512.82Z" transform="translate(-517.02 -154.03)"/><path class="cls-24" d="M961.27,502.91s15.29,7.14,24.47,19.37,11.21,18.35,11.21,18.35" transform="translate(-517.02 -154.03)"/></svg>