<svg id="Layer_1" data-name="Layer 1" xmlns="http://www.w3.org/2000/svg" viewBox="0 0 594.98 507.5"><defs><style>.cls-1{fill:#404e5a;}.cls-2{fill:#67747f;}.cls-3{fill:#96a1a9;}.cls-4{fill:#624b56;}.cls-15,.cls-5{fill:#917890;}.cls-6{fill:#c7e8ed;}.cls-7{fill:#f6bba6;}.cls-8{fill:#a4dbe7;}.cls-9{fill:#e6e7e8;}.cls-10{fill:#f8c5b3;}.cls-11,.cls-12,.cls-14,.cls-21,.cls-22{fill:none;}.cls-11,.cls-12{stroke:#404e5a;}.cls-11,.cls-14{stroke-miterlimit:10;}.cls-11,.cls-12,.cls-21,.cls-22{stroke-width:1.17px;}.cls-12,.cls-21,.cls-22{stroke-linecap:round;stroke-linejoin:round;}.cls-13{fill:#d4d6d8;}.cls-14{stroke:#917890;stroke-width:1.38px;}.cls-15{font-size:24.57px;font-family:Myriad Pro;}.cls-16{fill:#4d555c;}.cls-17{fill:#3a2b54;}.cls-18{fill:#e09e87;}.cls-19{fill:#c68977;}.cls-20{fill:#fff;}.cls-21{stroke:#89b2ad;}.cls-22{stroke:#90788f;}</style></defs><title>art5</title><polygon class="cls-1" points="150.99 418.15 162.08 329.81 177.38 334.01 160.93 414.32 150.99 418.15"/><polygon class="cls-2" points="151.33 320.87 133.73 414.77 151.75 418.53 162.08 325.6 151.33 320.87"/><polygon class="cls-1" points="292.18 491.06 315.66 476.98 241.71 449.98 403.69 387.77 468.25 398.34 516.37 379.56 418.95 352.56 178.33 448.81 292.18 491.06"/><path class="cls-1" d="M537.13,246.86l-83.92.59L473.75,457l61.62,24.65,8.22,84.51,153.76-53.41L678.57,411.19l-95.07-5.87s-1.76-163.74-2.35-162-44.6,5.87-44.6,5.87" transform="translate(-307.75 -130.81)"/><path class="cls-3" d="M453.21,247.45l-11.15,9.39L457.91,457s73.36,22.89,72.77,24.65,7.63,95.07,9.39,96.25,11.15,0,11.15,0-6.46-103.29-8.22-102.7-70.42-37-70.42-37Z" transform="translate(-307.75 -130.81)"/><path class="cls-4" d="M592.43,596.06l11.42,9.39,11-7.82s31.3-14.09,37.56-20.35-6.26-12.52-6.26-12.52-17.22,11-21.91,12.52S611.67,582,611.67,582Z" transform="translate(-307.75 -130.81)"/><path class="cls-5" d="M492.73,406.69s3.5,24.55,15.74,38.58,49,29.81,49,29.81,26.24,98.19,28,105.2,7,15.78,7,15.78l19.24-14L587.18,462.8l-43.73-47.34Z" transform="translate(-307.75 -130.81)"/><polygon class="cls-2" points="488.2 388.95 516.37 379.56 511.68 400.68 490.55 407.73 488.2 388.95"/><path class="cls-2" d="M584.67,503.33c-1.17,3.52,15.26,118.55,15.26,118.55l18.78-11.74L596.41,501Z" transform="translate(-307.75 -130.81)"/><polygon class="cls-2" points="504.63 246.92 488.2 273.92 262.84 342 259.32 310.31 504.63 246.92"/><polygon class="cls-3" points="370.82 217.58 394.3 215.23 501.11 248.1 417.77 275.09 400.17 242.23 372 229.32 370.82 217.58"/><path class="cls-6" d="M643.15,248.25C634.41,237.92,612,229,612,229s-34-9.67-39.9-10.14l-2.57-2.74s-26.52,7-42.73,14.5c5.65,22.48,7.69,46.54,4.95,69.59-0.36,17.61-13.22,44.94-13.93,48.59-1.09,5.64-9.39,25-9.39,25L564.94,381l33.28-3.72s13.17-22.45,16.57-34.71S642.65,283.65,643.15,248.25Z" transform="translate(-307.75 -130.81)"/><path class="cls-7" d="M570.23,210.59a177.94,177.94,0,0,0,3.79-21c1.6-13.54,2.32-29.74,4.63-31.14,4.3-2.61,12.56-3.73,15.08-2.55s15.93,12,16.31,14.53S615,202.7,615,202.7l-2.44,13.48S606,227,593.12,224.83,570.23,210.59,570.23,210.59Z" transform="translate(-307.75 -130.81)"/><path class="cls-8" d="M570.81,202.88s5.38,7.69,12.07,12.55,11.38,5.3,11.38,5.3L582,243.54A62.61,62.61,0,0,1,569.24,229c-5-8.4-4.4-13.29-4.4-13.29Z" transform="translate(-307.75 -130.81)"/><path class="cls-8" d="M614.53,214s0.81,2-6.54,4.84a25.85,25.85,0,0,1-13.59,1.56L603,244.2s7.45-6.78,10.78-13.92S614.53,214,614.53,214Z" transform="translate(-307.75 -130.81)"/><path class="cls-5" d="M594.55,220.11l-8.33,14.57,4.3,8.94s-18.64,71.32-23.9,84.26-8.84,19-8.84,19l8.35,20.05,16-14.69s6.54-51.76,7.42-65.2,6.26-44.78,6.26-44.78l4.46-7.92Z" transform="translate(-307.75 -130.81)"/><path class="cls-9" d="M411,469.29s2.35-27,25.82-50.47,37.56-36.39,49.3-39.91,50.47-8.22,79.81-16.43,48.12-17.61,55.17-20,73.95,3.52,90.38,20,23.48,88,28.17,112.68,25.82,37.56,48.12,44.6,77.47-7,75.12-2.35S709.09,614.84,706.74,618.36s-25.82-14.08-36.39-15.26-63.38-4.7-77.47-58.69-28.17-108-58.69-119.72S477.86,407.08,470.82,413s-9.39,75.12-9.39,75.12l-52.82,23.48S407.43,471.64,411,469.29Z" transform="translate(-307.75 -130.81)"/><path class="cls-2" d="M466.12,404.73s3.7,88.39,2.56,111.34c-1,20-2.56,67.07-2.56,67.07l130.29,55.17,3.52-16.43-110.33-47-2.35-143.2,79.81,31.69-5.87-34Z" transform="translate(-307.75 -130.81)"/><path class="cls-6" d="M526.75,230.61s-24.89,7.55-37.15,35.62c-5.68,13-29.34,70.42,0,95.07s68.08,41.08,68.08,41.08L564.94,381s-46-22-48.35-50.17,4.7-42.25,4.7-42.25l12.91-9.39S534.56,236.07,526.75,230.61Z" transform="translate(-307.75 -130.81)"/><path class="cls-6" d="M628.1,241.58s22.3,7,28.17,18.78,24.65,49.3,23.47,68.08-15.26,52.82-15.26,52.82L641,371.87s16.43-31.69,10.56-44.6-31.69-45.78-31.69-45.78Z" transform="translate(-307.75 -130.81)"/><polygon class="cls-1" points="294.53 241.05 286.9 222.27 289.83 219.93 302.75 261.01 294.53 241.05"/><polygon class="cls-1" points="329.74 226.97 305.68 263.36 325.63 225.79 329.74 226.97"/><path class="cls-10" d="M648.15,363.66s-9-2.36-11.73-1.35-6.92,5-9.87,5.47-3.26,3.06-.25,4.46,5.16-1.25,8.32-1.16,4.56,4,5.37,6.17-6.17,5.36-6.17,5.36S625.94,373,623.18,374s-7.37,2.06-4.56,2.91,7.42,6.66,11,9.72,3.56,1.2,5.62,1.7,2.71,4,4.26,6.57,5.67,3.56,5.67,3.56c5.16-1.25,8.77-5.07,10.43-5.67s4.66-6.07,6.26-8.53,3.36-6.22,2-10.08-7.37-11.68-7.37-11.68l-7.87-2.75Z" transform="translate(-307.75 -130.81)"/><path class="cls-10" d="M561.2,379.5s4.69,1.76,8.22.59,9.39-9.39,9.39-9.39,8.8-3.52,11.74-3.52,8.8,1.76,10.56,2.35,1.17,2.93-1.17,4.11-9.39-1.17-11.74,1.17,0,6.46,0,6.46l8.8-1.17s2.94-9.39,7.63-8.8,2.94,4.69,2.94,4.69-5.87,3.52-5.87,7-0.59,7.63-.59,10-1.76,8.22-2.35,10-2.35,1.76-4.11,2.93-11.15-.59-11.15-0.59l-15.85-3.52-10-4.7,2.93-15.26" transform="translate(-307.75 -130.81)"/><path class="cls-11" d="M594.65,353.09c0.17,0,1.84,3.55,2,3.57-8.05-3.48-11.73.1-17.78,5.88-11.61,11.08-18.62,26.93-21.4,42.55-2.75,15.45-.55,31.1-2.35,46.6-1.73,14.81-8,28.47-16,40.92-6.41,10-14,20-24.35,26.09-10.07,5.94-21.49,9.13-31.57,15.14a104.71,104.71,0,0,0-30.66,27.74c-4,5.51-7.48,11.39-9.14,18.05" transform="translate(-307.75 -130.81)"/><path class="cls-12" d="M444.6,568.67q-0.7,0-1.4,0a3.85,3.85,0,0,1-1.2.2,4.06,4.06,0,0,1-.51-0.05,27,27,0,0,0-18.61,42.84,3.41,3.41,0,0,1,1.24,1.55A27,27,0,1,0,444.6,568.67Z" transform="translate(-307.75 -130.81)"/><path class="cls-12" d="M418.64,603.36c-0.36-10.26,3.43-20.28,9-28.77" transform="translate(-307.75 -130.81)"/><path class="cls-12" d="M423.08,610.8c-2.15-14.63,4.87-28.59,12.58-40.51" transform="translate(-307.75 -130.81)"/><path class="cls-12" d="M430.13,618c-5.92-5.36-4-15-1.89-21.63,3.1-9.64,8.69-18.26,14.25-26.63" transform="translate(-307.75 -130.81)"/><path class="cls-12" d="M435.6,618a7.29,7.29,0,0,1,1.18.75c-4.44,1.2-3.9-10.76-3.85-12.91C433,592,442,580,449.7,569.43" transform="translate(-307.75 -130.81)"/><path class="cls-12" d="M441.08,618.75c-5.34-4.3-1.85-13.18-.14-18.39,2.89-8.8,7.21-18.43,13.44-25.43" transform="translate(-307.75 -130.81)"/><path class="cls-12" d="M447.15,622.94C443,606,449,588,457.51,574.15" transform="translate(-307.75 -130.81)"/><path class="cls-12" d="M417.92,596.14c11.43,6.14,23.17,14.15,27.63,26.95" transform="translate(-307.75 -130.81)"/><path class="cls-12" d="M419.17,589.8C433,595,445,608,449.51,622.25" transform="translate(-307.75 -130.81)"/><path class="cls-12" d="M423.87,582a35.84,35.84,0,0,0,4.53,2.29c6,2.58,11.24,7.3,15.65,12,5.51,5.86,10.72,12.89,11.9,20.93" transform="translate(-307.75 -130.81)"/><path class="cls-12" d="M429.34,577.28c13.62,6.86,27.94,18.84,29,35.21" transform="translate(-307.75 -130.81)"/><path class="cls-12" d="M438,575.71c6.84,2.14,11.74,8.48,15.58,14.19,4.78,7.09,9.1,15.42,8.67,24.15" transform="translate(-307.75 -130.81)"/><path class="cls-12" d="M443.43,577.28c7.39,1.56,11.58,6.22,15.46,12.63,3.37,5.58,6,11.35,4.89,17.89" transform="translate(-307.75 -130.81)"/><path class="cls-12" d="M448.91,575.71c5.75-1.93,9.83,4.19,12.57,8.49,3.37,5.29,5.79,11.06,4.65,17.33" transform="translate(-307.75 -130.81)"/><path class="cls-12" d="M452.82,571.8c10.18,1.2,17.18,11.2,19,20" transform="translate(-307.75 -130.81)"/><path class="cls-12" d="M463,576.5c0.75,4-2.72,9.9-4.31,13.15-3.44,7-7.52,12.58-13.68,17.37" transform="translate(-307.75 -130.81)"/><path class="cls-12" d="M466.9,583.54c1.38,3.7-2.78,9-4.52,11.68a63.82,63.82,0,0,1-14.26,15.7" transform="translate(-307.75 -130.81)"/><path class="cls-12" d="M470.82,589.8c0.25,5.15-4.47,10-7.54,13.57-4.14,4.83-9.81,11.19-16.71,11.47" transform="translate(-307.75 -130.81)"/><path class="cls-12" d="M875.14,472.22a26.87,26.87,0,0,0-15.09,4.61,3.21,3.21,0,0,1-.69.49A27,27,0,0,0,878.78,526a3.78,3.78,0,0,1,1.59-.33l0.24,0A27,27,0,0,0,875.14,472.22Z" transform="translate(-307.75 -130.81)"/><path class="cls-12" d="M849.24,507.7c-0.55-10.44,3.34-20.65,8.88-29.33" transform="translate(-307.75 -130.81)"/><path class="cls-12" d="M852.7,514.59a63.82,63.82,0,0,1,13.39-40.8" transform="translate(-307.75 -130.81)"/><path class="cls-12" d="M860.67,521.52c-6.43-5.82-3.59-17.37-.92-24.39,3.33-8.75,8.51-16.67,13.66-24.44" transform="translate(-307.75 -130.81)"/><path class="cls-12" d="M866.14,521.52a12.55,12.55,0,0,1,1.18.75c-5.05,1.45-3.86-16.65-3.49-18.59,2.22-11.8,9.73-21.8,16.78-31.19" transform="translate(-307.75 -130.81)"/><path class="cls-12" d="M871.62,522.31c-5.34-4.3-1.85-13.18-.13-18.39,2.89-8.81,7.21-18.43,13.44-25.43" transform="translate(-307.75 -130.81)"/><path class="cls-12" d="M877.58,525.85C873,510,879,492,888.05,477.7" transform="translate(-307.75 -130.81)"/><path class="cls-12" d="M848.2,499.7c10.5,7,23.15,13.38,27.69,26" transform="translate(-307.75 -130.81)"/><path class="cls-12" d="M849.71,493.35C863,501,876,510,879.93,525.21" transform="translate(-307.75 -130.81)"/><path class="cls-12" d="M854.41,485.53a35.31,35.31,0,0,0,4.53,2.29c6,2.58,11.24,7.3,15.65,12,5.51,5.86,10.72,12.89,11.9,20.93" transform="translate(-307.75 -130.81)"/><path class="cls-12" d="M859.88,480.83c13.62,6.86,27.94,18.84,29,35.21" transform="translate(-307.75 -130.81)"/><path class="cls-12" d="M868.49,479.27c6.84,2.14,11.74,8.48,15.58,14.19,4.78,7.1,9.09,15.42,8.67,24.15" transform="translate(-307.75 -130.81)"/><path class="cls-12" d="M874,480.83c7.4,1.56,11.59,6.22,15.46,12.63,3.37,5.58,6,11.34,4.89,17.89" transform="translate(-307.75 -130.81)"/><path class="cls-12" d="M879.45,479.27c5.75-1.93,9.83,4.19,12.57,8.49,3.37,5.3,5.79,11.06,4.65,17.33" transform="translate(-307.75 -130.81)"/><path class="cls-12" d="M883.36,475.36c9.82,0.66,16.19,10.52,18.74,19.08" transform="translate(-307.75 -130.81)"/><path class="cls-12" d="M893.53,480.05c0.75,4-2.72,9.9-4.31,13.15-3.44,7-7.52,12.58-13.68,17.37" transform="translate(-307.75 -130.81)"/><path class="cls-12" d="M897.44,487.09c1.38,3.7-2.78,9-4.52,11.68a63.87,63.87,0,0,1-14.26,15.7" transform="translate(-307.75 -130.81)"/><path class="cls-12" d="M901.36,493.35c0.25,5.15-4.47,10-7.54,13.58-4.13,4.83-9.81,11.19-16.71,11.47" transform="translate(-307.75 -130.81)"/><path class="cls-13" d="M466.12,404.73s-18.78,12.92-24.26,19.17-18,14.87-22.69,31.3-6.26,49.3-6.26,49.3l45.38-18.78Z" transform="translate(-307.75 -130.81)"/><path class="cls-13" d="M641.4,557.71A8.18,8.18,0,0,0,646,556.1q10.84-5.62,21.75-11.1,12.05-5.92,24.08-11.9,4.66-.52,3-2.62-2,.31-4,0.83c3-1.89,5.63-4.41,8.55-6.46A129.22,129.22,0,0,1,712,517.06c7-3.8,14.2-7.5,20.87-11.91,2-1.33,3.89-3.34,6.13-4.28a73.2,73.2,0,0,0-11,5.52q-16,8.27-32,16.49c-9,4.54-18.14,9.79-27.91,12.45,1.92-1.2,4.06-2,5.87-3.36-10.83,4.55-21.72,8.9-32.63,13.26a44.27,44.27,0,0,0-5.83,2.88c-5,2.89-11.48,4-15.33,8.66,4.1,0,8.11,1.1,12.22,1.18,8.37,0.15,14.65-2.94,21.56-7.28" transform="translate(-307.75 -130.81)"/><path class="cls-11" d="M633.58,358.18l0.1,1.18c12.63-2.91,24.6-3.71,36.38,2.74,17.2,9.42,27.43,28.17,31.52,46.77,5.28,24,.85,48.25-3.26,72.08-2.57,14.93-7.07,36.15,9.6,44.56,8.58,4.33,19,4.76,28.4,4.71a244.47,244.47,0,0,0,37.86-3.65c19.45-3.17,39.57-7.17,57.91-14.63a40.15,40.15,0,0,0,14.3-9.47c3.16-3.19,7.44-4.85,11.5-6.59l-0.51,0" transform="translate(-307.75 -130.81)"/><line class="cls-14" x1="279.66" y1="307.18" x2="364.96" y2="275.1"/><line class="cls-14" x1="282.01" y1="316.57" x2="367.3" y2="284.49"/><line class="cls-14" x1="285.92" y1="329.09" x2="371.21" y2="297"/><line class="cls-14" x1="291.4" y1="338.48" x2="376.69" y2="306.39"/><line class="cls-14" x1="294.53" y1="347.87" x2="379.82" y2="315.78"/><line class="cls-14" x1="300.01" y1="356.47" x2="385.3" y2="324.39"/><text class="cls-15" transform="matrix(1.08, -0.7, 0.71, 0.7, 410.47, 460.92)">T<tspan x="12.9" y="0">Y</tspan><tspan x="26.91" y="0">VIX</tspan></text><polygon class="cls-2" points="488.2 273.92 498.76 385.43 516.37 379.56 501.11 248.1 488.2 273.92"/><path class="cls-10" d="M641.15,154.19s-21.85,64.63-25.4,69.5-32.43-5.9-36.72-7.88S578.85,192,578.85,192s3.94-44.53,10.19-47.89S605.33,141,607.48,142s16,5.87,16,5.87Z" transform="translate(-307.75 -130.81)"/><path class="cls-16" d="M603.79,142.63c1.63,1.54,27.48,17,35.36,15.33,6.7-1.4,7.9-5.85,7.1-10.26s-3.9-6.49-13.49-8.84c-3.82-.94-32.06-7.24-38.71-8-9.55-1-14,9.15-15.89,16.61s-4.5,35-4.5,35,4.07-1.67,7.3-7.75c1.3-2.46.2-11.11,2.23-13.55,4.29-5.13,4.9,4.61,4.45,7.27a68.76,68.76,0,0,0-.26,9l4.2-.92s4.1-14.92,3.68-18.35C594.57,152.42,603.79,142.63,603.79,142.63Z" transform="translate(-307.75 -130.81)"/><polygon class="cls-17" points="325.98 42.4 316 36.07 315.26 38.46 324.58 44.41 325.98 42.4"/><polygon class="cls-17" points="307.26 35.31 294.11 35.32 294.5 33.37 307.27 32.71 307.26 35.31"/><polygon class="cls-18" points="312.27 41.46 309.73 62.16 302.84 61.83 302.41 65.02 311.55 65.61 314.21 44.31 314.58 39.01 312.27 41.46"/><path class="cls-19" d="M622.08,174.62a13.65,13.65,0,0,1,7.16,2.22c3.68,2.36,3,2.7,3,2.7l-4.93-2.2Z" transform="translate(-307.75 -130.81)"/><path class="cls-17" d="M627.78,182.9a2.43,2.43,0,1,1,0-3.51A2.47,2.47,0,0,1,627.78,182.9Z" transform="translate(-307.75 -130.81)"/><path class="cls-19" d="M600.72,171.5a12.11,12.11,0,0,1,8.08-1.3,25.15,25.15,0,0,1,6.45,2.25l-7.76-.95h-6.77Z" transform="translate(-307.75 -130.81)"/><path class="cls-17" d="M609.32,177.67c-1.42,1.51-2.36,1.25-3.5.17A2.53,2.53,0,1,1,609.32,177.67Z" transform="translate(-307.75 -130.81)"/><path class="cls-20" d="M614.78,203.25s-6.44-1.18-9.88-2.87a40.62,40.62,0,0,1-7.3-5.11s0.18,0.49.48,1.24c1,2.41,3.23,7.58,5.31,8.87,2.75,1.7,9.07,3,9.07,3S615.33,202.67,614.78,203.25Z" transform="translate(-307.75 -130.81)"/><path class="cls-17" d="M597.51,197.27s4.64,9.24,7.87,11a16.29,16.29,0,0,0,6.13,1.93l0.58-2.8s-7.64-3.61-9.68-5.52-4.81-6.61-4.81-6.61Z" transform="translate(-307.75 -130.81)"/><path class="cls-21" d="M335.33,534.43A26.87,26.87,0,0,0,320.24,539a3.21,3.21,0,0,1-.69.49A27,27,0,0,0,339,588.17a3.78,3.78,0,0,1,1.59-.33l0.24,0A27,27,0,0,0,335.33,534.43Z" transform="translate(-307.75 -130.81)"/><path class="cls-21" d="M309.42,569.91c-0.55-10.44,3.34-20.65,8.88-29.33" transform="translate(-307.75 -130.81)"/><path class="cls-21" d="M312.89,576.8A63.82,63.82,0,0,1,326.28,536" transform="translate(-307.75 -130.81)"/><path class="cls-21" d="M320.85,583.73c-6.43-5.82-3.59-17.37-.92-24.39,3.33-8.75,8.51-16.67,13.66-24.44" transform="translate(-307.75 -130.81)"/><path class="cls-21" d="M326.33,583.73a12.55,12.55,0,0,1,1.18.75c-5.05,1.45-3.86-16.65-3.49-18.59,2.22-11.8,9.73-21.8,16.78-31.19" transform="translate(-307.75 -130.81)"/><path class="cls-21" d="M331.81,584.52c-5.34-4.3-1.85-13.18-.13-18.39,2.89-8.81,7.21-18.43,13.44-25.43" transform="translate(-307.75 -130.81)"/><path class="cls-21" d="M337.77,588.06c-4.58-15.85,1.42-33.85,10.47-48.15" transform="translate(-307.75 -130.81)"/><path class="cls-21" d="M308.39,561.91c10.5,7,23.15,13.38,27.69,26" transform="translate(-307.75 -130.81)"/><path class="cls-21" d="M309.9,555.56c13.29,7.65,26.29,16.65,30.22,31.86" transform="translate(-307.75 -130.81)"/><path class="cls-21" d="M314.59,547.74a35.31,35.31,0,0,0,4.53,2.29c6,2.58,11.24,7.3,15.65,12,5.51,5.86,10.72,12.89,11.9,20.93" transform="translate(-307.75 -130.81)"/><path class="cls-21" d="M320.07,543c13.62,6.86,27.94,18.84,29,35.21" transform="translate(-307.75 -130.81)"/><path class="cls-21" d="M328.68,541.48c6.84,2.14,11.74,8.48,15.58,14.19,4.78,7.1,9.09,15.42,8.67,24.15" transform="translate(-307.75 -130.81)"/><path class="cls-21" d="M334.15,543c7.4,1.56,11.59,6.22,15.46,12.63,3.37,5.58,6,11.34,4.89,17.89" transform="translate(-307.75 -130.81)"/><path class="cls-21" d="M339.63,541.48c5.75-1.93,9.83,4.19,12.57,8.49,3.37,5.3,5.79,11.06,4.65,17.33" transform="translate(-307.75 -130.81)"/><path class="cls-21" d="M343.54,537.56c9.82,0.66,16.19,10.52,18.74,19.08" transform="translate(-307.75 -130.81)"/><path class="cls-21" d="M353.72,542.26c0.75,4-2.72,9.9-4.31,13.15-3.44,7-7.52,12.58-13.68,17.37" transform="translate(-307.75 -130.81)"/><path class="cls-21" d="M357.63,549.3c1.38,3.7-2.78,9-4.52,11.68a63.87,63.87,0,0,1-14.26,15.7" transform="translate(-307.75 -130.81)"/><path class="cls-21" d="M361.54,555.56c0.25,5.15-4.47,10-7.54,13.58-4.13,4.83-9.81,11.19-16.71,11.47" transform="translate(-307.75 -130.81)"/><path class="cls-22" d="M390.92,501.25a26.87,26.87,0,0,0-15.09,4.61,3.21,3.21,0,0,1-.69.49A27,27,0,0,0,394.56,555a3.78,3.78,0,0,1,1.59-.33l0.24,0A27,27,0,0,0,390.92,501.25Z" transform="translate(-307.75 -130.81)"/><path class="cls-22" d="M365,536.72c-0.55-10.44,3.34-20.65,8.88-29.33" transform="translate(-307.75 -130.81)"/><path class="cls-22" d="M368.48,543.61a63.82,63.82,0,0,1,13.39-40.8" transform="translate(-307.75 -130.81)"/><path class="cls-22" d="M376.45,550.55c-6.43-5.82-3.59-17.37-.92-24.39,3.33-8.75,8.51-16.67,13.66-24.44" transform="translate(-307.75 -130.81)"/><path class="cls-22" d="M381.92,550.55a12.55,12.55,0,0,1,1.18.75c-5.05,1.45-3.86-16.65-3.49-18.59,2.22-11.8,9.73-21.8,16.78-31.19" transform="translate(-307.75 -130.81)"/><path class="cls-22" d="M387.4,551.33c-5.34-4.3-1.85-13.18-.13-18.39,2.89-8.81,7.21-18.43,13.44-25.43" transform="translate(-307.75 -130.81)"/><path class="cls-22" d="M393.36,554.88c-4.58-15.85,1.42-33.85,10.47-48.15" transform="translate(-307.75 -130.81)"/><path class="cls-22" d="M364,528.73c10.5,7,23.15,13.38,27.69,26" transform="translate(-307.75 -130.81)"/><path class="cls-22" d="M365.49,522.38c13.29,7.65,26.29,16.65,30.22,31.86" transform="translate(-307.75 -130.81)"/><path class="cls-22" d="M370.19,514.55a35.31,35.31,0,0,0,4.53,2.29c6,2.58,11.24,7.3,15.65,12,5.51,5.86,10.72,12.89,11.9,20.93" transform="translate(-307.75 -130.81)"/><path class="cls-22" d="M375.66,509.86c13.62,6.86,27.94,18.84,29,35.21" transform="translate(-307.75 -130.81)"/><path class="cls-22" d="M384.27,508.29c6.84,2.14,11.74,8.48,15.58,14.19,4.78,7.1,9.09,15.42,8.67,24.15" transform="translate(-307.75 -130.81)"/><path class="cls-22" d="M389.75,509.86c7.4,1.56,11.59,6.22,15.46,12.63,3.37,5.58,6,11.34,4.89,17.89" transform="translate(-307.75 -130.81)"/><path class="cls-22" d="M395.23,508.29c5.75-1.93,9.83,4.19,12.57,8.49,3.37,5.3,5.79,11.06,4.65,17.33" transform="translate(-307.75 -130.81)"/><path class="cls-22" d="M399.14,504.38c9.82,0.66,16.19,10.52,18.74,19.08" transform="translate(-307.75 -130.81)"/><path class="cls-22" d="M409.31,509.08c0.75,4-2.72,9.9-4.31,13.15-3.44,7-7.52,12.58-13.68,17.37" transform="translate(-307.75 -130.81)"/><path class="cls-22" d="M413.22,516.12c1.38,3.7-2.78,9-4.52,11.68a63.87,63.87,0,0,1-14.26,15.7" transform="translate(-307.75 -130.81)"/><path class="cls-22" d="M417.14,522.38c0.25,5.15-4.47,10-7.54,13.58-4.13,4.83-9.81,11.19-16.71,11.47" transform="translate(-307.75 -130.81)"/></svg>