<svg id="Layer_1" data-name="Layer 1" xmlns="http://www.w3.org/2000/svg" viewBox="0 0 535.63 402.17"><defs><style>.cls-1,.cls-12,.cls-16,.cls-2,.cls-20,.cls-3{font-size:16px;}.cls-1,.cls-8{fill:#bcaebc;}.cls-1,.cls-12,.cls-16,.cls-2,.cls-20,.cls-21,.cls-23,.cls-3{font-family:Lintel;}.cls-2{fill:#c29dc1;}.cls-13,.cls-3,.cls-7{fill:#a693a5;}.cls-4{font-size:18px;}.cls-10,.cls-11,.cls-12,.cls-4{fill:#90788f;}.cls-11,.cls-13,.cls-14,.cls-15,.cls-4,.cls-5,.cls-6{font-family:Halis R;}.cls-5{font-size:20px;}.cls-5,.cls-6{fill:#fff;}.cls-6{font-size:12px;}.cls-20,.cls-9{fill:#d3c9d2;}.cls-11,.cls-13{font-size:28px;}.cls-14,.cls-15,.cls-21{font-size:21px;}.cls-14{fill:#dbd4db;}.cls-15{fill:#cabec9;}.cls-16,.cls-21,.cls-23{fill:#8fa0ad;}.cls-17,.cls-18{fill:none;stroke-miterlimit:10;}.cls-17{stroke:#bcaebc;}.cls-18{stroke:#d7ced7;}.cls-19{fill:#d7ced7;}.cls-22{letter-spacing:18.87px;}.cls-23{font-size:17px;}.cls-24{letter-spacing:20.58px;}.cls-25{letter-spacing:25.73px;white-space:pre;}</style></defs><title>foreign treasury holdings</title><text class="cls-1" transform="translate(428.59 271.34)">Switzerland</text><text class="cls-1" transform="translate(428.59 298.33)">B<tspan x="9.71" y="0">r</tspan><tspan x="15.18" y="0">azil</tspan></text><text class="cls-1" transform="translate(428.59 325.32)">Ireland</text><text class="cls-2" transform="translate(178.02 257.96)">China, <tspan x="-7.59" y="19.2">Mainland</tspan></text><text class="cls-3" transform="translate(178.02 257.96)">China, <tspan x="-7.59" y="19.2">Mainland</tspan></text><text class="cls-4" transform="translate(24.26 15.3)">F<tspan x="10.49" y="0">O</tspan><tspan x="25.11" y="0">R</tspan><tspan x="36.74" y="0">E</tspan><tspan x="47.77" y="0">I</tspan><tspan x="52.72" y="0">GN T</tspan><tspan x="95.43" y="0">R</tspan><tspan x="107.06" y="0">EASURY HOLDING</tspan></text><text class="cls-5" transform="translate(190.23 195.91)">2</text><text class="cls-5" transform="translate(200.33 189.25) scale(0.58)">%</text><text class="cls-6" transform="translate(178.18 182.91)">1</text><text class="cls-6" transform="translate(182.44 178.91) scale(0.58)">%</text><text class="cls-6" transform="translate(170.68 168.14)">1</text><text class="cls-6" transform="translate(174.94 164.14) scale(0.58)">%</text><path class="cls-7" d="M334,1346.54a54,54,0,1,1-54-54A54,54,0,0,1,334,1346.54Zm-54-39.13a39.13,39.13,0,1,0,39.13,39.12A39.13,39.13,0,0,0,280,1307.41Z" transform="translate(-79.75 -1070.98)"/><path class="cls-7" d="M285.52,1291.47c-0.06-.95-0.78-12.63-0.78-12.63a2.39,2.39,0,0,0-1.77-2.24,17.79,17.79,0,0,0-5.89,0,2.39,2.39,0,0,0-1.77,2.24s-0.72,11.68-.78,12.63-2.23,1.6-2.23,1.6c-0.13,1.48-.2,2.22-0.33,3.71a1.84,1.84,0,0,0,2,1.91h12.14a1.84,1.84,0,0,0,2-1.91c-0.13-1.49-.2-2.23-0.33-3.71C287.75,1293.07,285.58,1292.41,285.52,1291.47Z" transform="translate(-79.75 -1070.98)"/><path class="cls-7" d="M266.35,1292.91l-5.05-11.6a2.4,2.4,0,0,0-2.44-1.5,17.73,17.73,0,0,0-5.53,2,2.38,2.38,0,0,0-.9,2.71s3.32,11.22,3.59,12.13-1.55,2.27-1.55,2.27c0.38,1.44.57,2.16,1,3.6a1.83,1.83,0,0,0,2.51,1.11l5.71-2.08,5.7-2.07a1.84,1.84,0,0,0,1.21-2.47l-1.58-3.37S266.73,1293.78,266.35,1292.91Z" transform="translate(-79.75 -1070.98)"/><path class="cls-7" d="M248.84,1300.82l-8.71-9.17a2.41,2.41,0,0,0-2.81-.58,18.11,18.11,0,0,0-4.51,3.78,2.39,2.39,0,0,0,.09,2.86l7.52,10.18c0.56,0.77-.68,2.66-0.68,2.66l2.13,3a1.84,1.84,0,0,0,2.74.19l4.65-3.9,4.65-3.9a1.84,1.84,0,0,0,.29-2.74l-2.64-2.63S249.49,1301.5,248.84,1300.82Z" transform="translate(-79.75 -1070.98)"/><path class="cls-7" d="M235.08,1314.24l-11.33-5.63a2.38,2.38,0,0,0-2.83.41,18,18,0,0,0-2.95,5.1,2.4,2.4,0,0,0,1.06,2.66l10.55,7c0.79,0.52.27,2.73,0.27,2.73l3,2.14a1.83,1.83,0,0,0,2.64-.77l3-5.25,3-5.26a1.84,1.84,0,0,0-.66-2.68l-3.37-1.57S235.93,1314.66,235.08,1314.24Z" transform="translate(-79.75 -1070.98)"/><path class="cls-7" d="M226.74,1331.56l-12.58-1.42a2.4,2.4,0,0,0-2.51,1.35,17.92,17.92,0,0,0-1,5.8,2.38,2.38,0,0,0,1.9,2.13l12.3,3c0.92,0.22,1.19,2.47,1.19,2.47l3.59,1a1.84,1.84,0,0,0,2.22-1.63c0.42-2.39.63-3.59,1.06-6s0.63-3.58,1.06-6a1.84,1.84,0,0,0-1.54-2.28l-3.71-.32S227.69,1331.66,226.74,1331.56Z" transform="translate(-79.75 -1070.98)"/><path class="cls-7" d="M224.83,1350.68l-12.3,3a2.4,2.4,0,0,0-1.9,2.14,18,18,0,0,0,1,5.8,2.39,2.39,0,0,0,2.51,1.36l12.58-1.42c0.95-.11,2,1.92,2,1.92l3.71-.32a1.83,1.83,0,0,0,1.53-2.29c-0.42-2.39-.63-3.59-1-6l-1.05-6a1.84,1.84,0,0,0-2.22-1.63l-3.59,1S225.75,1350.46,224.83,1350.68Z" transform="translate(-79.75 -1070.98)"/><path class="cls-7" d="M229.58,1369.31l-10.55,7A2.41,2.41,0,0,0,218,1379a17.91,17.91,0,0,0,2.95,5.1,2.39,2.39,0,0,0,2.83.42l11.33-5.64c0.85-.43,2.5,1.13,2.5,1.13l3.37-1.57a1.84,1.84,0,0,0,.66-2.67l-3-5.26-3-5.26a1.85,1.85,0,0,0-2.64-.77l-3,2.14S230.37,1368.79,229.58,1369.31Z" transform="translate(-79.75 -1070.98)"/><path class="cls-7" d="M240.41,1385.19l-7.52,10.17a2.41,2.41,0,0,0-.08,2.86,18,18,0,0,0,4.51,3.78,2.4,2.4,0,0,0,2.81-.57l8.71-9.17c0.65-.69,2.74.2,2.74,0.2l2.64-2.63a1.84,1.84,0,0,0-.3-2.74l-4.65-3.9-4.65-3.9a1.83,1.83,0,0,0-2.74.19l-2.13,3S241,1384.43,240.41,1385.19Z" transform="translate(-79.75 -1070.98)"/><path class="cls-7" d="M256,1396.4c-0.27.92-3.59,12.13-3.59,12.13a2.41,2.41,0,0,0,.9,2.72,17.77,17.77,0,0,0,5.53,2,2.38,2.38,0,0,0,2.43-1.5s4.68-10.73,5.05-11.6,2.64-.74,2.64-0.74l1.58-3.37a1.84,1.84,0,0,0-1.21-2.47l-5.7-2.08-5.7-2.07a1.83,1.83,0,0,0-2.52,1.11c-0.38,1.44-.58,2.16-1,3.6C254.47,1394.13,256.29,1395.49,256,1396.4Z" transform="translate(-79.75 -1070.98)"/><path class="cls-7" d="M274.52,1401.61c0.06,1,.78,12.63.78,12.63a2.4,2.4,0,0,0,1.78,2.24,17.83,17.83,0,0,0,5.89,0,2.38,2.38,0,0,0,1.77-2.24s0.72-11.68.78-12.63,2.23-1.6,2.23-1.6c0.13-1.48.2-2.22,0.33-3.71a1.84,1.84,0,0,0-2-1.91H273.95a1.84,1.84,0,0,0-2,1.91c0.13,1.48.2,2.22,0.33,3.71C272.3,1400,274.46,1400.66,274.52,1401.61Z" transform="translate(-79.75 -1070.98)"/><path class="cls-7" d="M293.69,1400.17l5.05,11.6a2.38,2.38,0,0,0,2.43,1.5,17.8,17.8,0,0,0,5.53-2,2.41,2.41,0,0,0,.9-2.72L304,1396.4c-0.27-.9,1.55-2.26,1.55-2.26l-1-3.6a1.83,1.83,0,0,0-2.52-1.11l-5.7,2.07-5.7,2.08a1.83,1.83,0,0,0-1.21,2.47c0.63,1.35.95,2,1.57,3.38C291,1399.42,293.31,1399.29,293.69,1400.17Z" transform="translate(-79.75 -1070.98)"/><path class="cls-7" d="M311.21,1392.26l8.71,9.17a2.4,2.4,0,0,0,2.8.57,18,18,0,0,0,4.5-3.78,2.4,2.4,0,0,0-.08-2.86l-7.52-10.17c-0.56-.76.68-2.66,0.68-2.66l-2.14-3a1.83,1.83,0,0,0-2.74-.19l-4.65,3.9-4.65,3.9a1.84,1.84,0,0,0-.3,2.74l2.64,2.63S310.56,1391.57,311.21,1392.26Z" transform="translate(-79.75 -1070.98)"/><path class="cls-7" d="M325,1378.84l11.33,5.64a2.39,2.39,0,0,0,2.83-.42,18,18,0,0,0,2.94-5.1,2.39,2.39,0,0,0-1.06-2.66l-10.54-7c-0.79-.53-0.27-2.74-0.27-2.74l-3-2.14a1.84,1.84,0,0,0-2.65.77l-3,5.26-3,5.26a1.84,1.84,0,0,0,.65,2.67l3.38,1.57S324.12,1378.41,325,1378.84Z" transform="translate(-79.75 -1070.98)"/><path class="cls-7" d="M333.3,1361.52l12.57,1.42a2.39,2.39,0,0,0,2.51-1.36,17.88,17.88,0,0,0,1-5.8,2.39,2.39,0,0,0-1.9-2.13l-12.3-3c-0.92-.22-1.19-2.47-1.19-2.47l-3.59-1a1.84,1.84,0,0,0-2.22,1.63c-0.43,2.39-.63,3.59-1.06,6s-0.63,3.58-1.05,6a1.84,1.84,0,0,0,1.53,2.29l3.71,0.32S332.35,1361.41,333.3,1361.52Z" transform="translate(-79.75 -1070.98)"/><path class="cls-7" d="M335.21,1342.39l12.3-3a2.4,2.4,0,0,0,1.9-2.14,18,18,0,0,0-1-5.8,2.4,2.4,0,0,0-2.51-1.35l-12.57,1.43c-0.95.11-2-1.92-2-1.92l-3.71.32a1.83,1.83,0,0,0-1.54,2.28c0.42,2.39.63,3.59,1.05,6s0.63,3.59,1.05,6a1.84,1.84,0,0,0,2.22,1.62l3.6-1S334.29,1342.61,335.21,1342.39Z" transform="translate(-79.75 -1070.98)"/><path class="cls-7" d="M330.46,1323.76l10.54-7a2.4,2.4,0,0,0,1.06-2.66,18.07,18.07,0,0,0-2.94-5.1,2.39,2.39,0,0,0-2.83-.42L325,1314.24c-0.84.42-2.5-1.13-2.5-1.13l-3.38,1.57a1.84,1.84,0,0,0-.65,2.67l3,5.25,3,5.26a1.85,1.85,0,0,0,2.65.77l3-2.14S329.67,1324.29,330.46,1323.76Z" transform="translate(-79.75 -1070.98)"/><path class="cls-7" d="M319.63,1307.88l7.52-10.17a2.4,2.4,0,0,0,.08-2.86,18,18,0,0,0-4.51-3.78,2.4,2.4,0,0,0-2.8.58l-8.71,9.17c-0.65.69-2.74-.2-2.74-0.2l-2.63,2.63a1.84,1.84,0,0,0,.3,2.73l4.64,3.9,4.65,3.91a1.84,1.84,0,0,0,2.74-.18l2.14-3.05S319.07,1308.65,319.63,1307.88Z" transform="translate(-79.75 -1070.98)"/><path class="cls-7" d="M304,1296.67l3.59-12.13a2.39,2.39,0,0,0-.9-2.71,17.79,17.79,0,0,0-5.53-2,2.39,2.39,0,0,0-2.43,1.5l-5.05,11.6c-0.38.87-2.64,0.74-2.64,0.74l-1.58,3.37a1.84,1.84,0,0,0,1.22,2.47l5.7,2.07,5.7,2.08a1.84,1.84,0,0,0,2.52-1.11l1-3.6S303.75,1297.58,304,1296.67Z" transform="translate(-79.75 -1070.98)"/><path class="cls-7" d="M364.76,1223.67A51.62,51.62,0,1,1,313.13,1172,51.63,51.63,0,0,1,364.76,1223.67Zm-51.63-37.43a37.44,37.44,0,1,0,37.44,37.43A37.44,37.44,0,0,0,313.13,1186.24Z" transform="translate(-79.75 -1070.98)"/><path class="cls-7" d="M318.39,1171c-0.06-.91-0.75-12.08-0.75-12.08a2.28,2.28,0,0,0-1.7-2.14,17,17,0,0,0-5.63,0,2.29,2.29,0,0,0-1.7,2.14s-0.69,11.18-.75,12.08-2.13,1.53-2.13,1.53c-0.13,1.42-.19,2.13-0.31,3.55a1.76,1.76,0,0,0,1.9,1.83h11.61a1.76,1.76,0,0,0,1.9-1.83c-0.12-1.42-.19-2.13-0.31-3.55C320.52,1172.52,318.45,1171.89,318.39,1171Z" transform="translate(-79.75 -1070.98)"/><path class="cls-7" d="M300.06,1172.36l-4.83-11.1a2.29,2.29,0,0,0-2.33-1.44,17,17,0,0,0-5.29,1.93,2.28,2.28,0,0,0-.87,2.59s3.18,10.74,3.44,11.61-1.48,2.17-1.48,2.17c0.36,1.38.55,2.06,0.92,3.44a1.75,1.75,0,0,0,2.4,1.06l5.46-2,5.46-2a1.76,1.76,0,0,0,1.16-2.36l-1.51-3.23S300.42,1173.19,300.06,1172.36Z" transform="translate(-79.75 -1070.98)"/><path class="cls-7" d="M283.29,1179.93l-8.34-8.78a2.3,2.3,0,0,0-2.69-.55,17.33,17.33,0,0,0-4.31,3.62A2.29,2.29,0,0,0,268,1177l7.19,9.74c0.54,0.73-.65,2.55-0.65,2.55l2,2.92a1.76,1.76,0,0,0,2.62.18l4.45-3.73,4.45-3.73a1.76,1.76,0,0,0,.28-2.62l-2.52-2.51S283.92,1180.59,283.29,1179.93Z" transform="translate(-79.75 -1070.98)"/><path class="cls-7" d="M270.13,1192.77l-10.84-5.39a2.28,2.28,0,0,0-2.7.4,17.19,17.19,0,0,0-2.82,4.88,2.3,2.3,0,0,0,1,2.54l10.09,6.69c0.76,0.5.26,2.61,0.26,2.61l2.91,2a1.75,1.75,0,0,0,2.53-.74l2.91-5,2.9-5a1.76,1.76,0,0,0-.63-2.56l-3.23-1.5S270.95,1193.18,270.13,1192.77Z" transform="translate(-79.75 -1070.98)"/><path class="cls-7" d="M262.16,1209.35l-12-1.36a2.29,2.29,0,0,0-2.4,1.3,17.15,17.15,0,0,0-1,5.55,2.28,2.28,0,0,0,1.81,2l11.77,2.84c0.88,0.21,1.14,2.36,1.14,2.36l3.44,0.93a1.76,1.76,0,0,0,2.12-1.56c0.4-2.28.6-3.43,1-5.72s0.6-3.43,1-5.72a1.76,1.76,0,0,0-1.47-2.18l-3.55-.31S263.06,1209.44,262.16,1209.35Z" transform="translate(-79.75 -1070.98)"/><path class="cls-7" d="M260.33,1227.64l-11.77,2.83a2.29,2.29,0,0,0-1.82,2,17.17,17.17,0,0,0,1,5.55,2.29,2.29,0,0,0,2.4,1.3l12-1.36c0.91-.1,1.88,1.83,1.88,1.83l3.55-.31a1.75,1.75,0,0,0,1.46-2.19c-0.4-2.29-.6-3.43-1-5.72l-1-5.72a1.76,1.76,0,0,0-2.13-1.56l-3.44.92S261.21,1227.43,260.33,1227.64Z" transform="translate(-79.75 -1070.98)"/><path class="cls-7" d="M264.87,1245.47l-10.09,6.68a2.3,2.3,0,0,0-1,2.54,17.14,17.14,0,0,0,2.82,4.88,2.29,2.29,0,0,0,2.71.4l10.84-5.39c0.81-.41,2.39,1.08,2.39,1.08l3.23-1.5a1.76,1.76,0,0,0,.63-2.56l-2.9-5-2.9-5a1.77,1.77,0,0,0-2.53-.74l-2.92,2S265.63,1245,264.87,1245.47Z" transform="translate(-79.75 -1070.98)"/><path class="cls-7" d="M275.23,1260.66l-7.19,9.73a2.3,2.3,0,0,0-.08,2.74,17.23,17.23,0,0,0,4.31,3.62,2.3,2.3,0,0,0,2.69-.55l8.34-8.78c0.62-.66,2.62.2,2.62,0.2l2.52-2.51a1.76,1.76,0,0,0-.29-2.62l-4.45-3.73-4.45-3.73a1.75,1.75,0,0,0-2.62.18l-2,2.92S275.77,1259.93,275.23,1260.66Z" transform="translate(-79.75 -1070.98)"/><path class="cls-7" d="M290.17,1271.38c-0.25.88-3.43,11.61-3.43,11.61a2.3,2.3,0,0,0,.87,2.6,17,17,0,0,0,5.29,1.92,2.28,2.28,0,0,0,2.33-1.43s4.48-10.26,4.83-11.1,2.53-.71,2.53-0.71l1.51-3.23a1.76,1.76,0,0,0-1.16-2.36l-5.46-2-5.46-2a1.76,1.76,0,0,0-2.41,1.06c-0.37,1.38-.55,2.06-0.92,3.44C288.69,1269.21,290.43,1270.51,290.17,1271.38Z" transform="translate(-79.75 -1070.98)"/><path class="cls-7" d="M307.87,1276.36c0.05,0.91.74,12.09,0.74,12.09a2.29,2.29,0,0,0,1.7,2.14,17.06,17.06,0,0,0,5.63,0,2.28,2.28,0,0,0,1.7-2.14s0.69-11.18.75-12.09,2.13-1.53,2.13-1.53c0.12-1.42.19-2.13,0.31-3.55a1.76,1.76,0,0,0-1.9-1.83H307.32a1.76,1.76,0,0,0-1.9,1.83c0.13,1.42.19,2.13,0.31,3.55C305.74,1274.83,307.82,1275.45,307.87,1276.36Z" transform="translate(-79.75 -1070.98)"/><path class="cls-7" d="M326.21,1275l4.83,11.1a2.28,2.28,0,0,0,2.33,1.43,17,17,0,0,0,5.29-1.92,2.31,2.31,0,0,0,.87-2.6l-3.44-11.61c-0.26-.86,1.48-2.17,1.48-2.17l-0.92-3.44a1.75,1.75,0,0,0-2.41-1.06l-5.46,2-5.45,2a1.75,1.75,0,0,0-1.16,2.36c0.6,1.29.91,1.94,1.5,3.23C323.68,1274.27,325.85,1274.15,326.21,1275Z" transform="translate(-79.75 -1070.98)"/><path class="cls-7" d="M343,1267.42l8.34,8.78a2.29,2.29,0,0,0,2.68.55,17.25,17.25,0,0,0,4.31-3.62,2.3,2.3,0,0,0-.08-2.74l-7.2-9.73c-0.54-.73.65-2.55,0.65-2.55l-2-2.92A1.75,1.75,0,0,0,347,1255l-4.45,3.73-4.45,3.73a1.76,1.76,0,0,0-.28,2.62l2.52,2.51S342.35,1266.76,343,1267.42Z" transform="translate(-79.75 -1070.98)"/><path class="cls-7" d="M356.13,1254.58L367,1260a2.29,2.29,0,0,0,2.71-.4,17.18,17.18,0,0,0,2.82-4.88,2.29,2.29,0,0,0-1-2.54l-10.09-6.68c-0.76-.51-0.26-2.62-0.26-2.62l-2.91-2a1.76,1.76,0,0,0-2.53.73l-2.9,5-2.91,5a1.76,1.76,0,0,0,.63,2.56l3.23,1.5S355.32,1254.17,356.13,1254.58Z" transform="translate(-79.75 -1070.98)"/><path class="cls-7" d="M364.11,1238l12,1.36a2.29,2.29,0,0,0,2.4-1.3,17.11,17.11,0,0,0,1-5.55,2.29,2.29,0,0,0-1.82-2l-11.77-2.84c-0.88-.21-1.14-2.36-1.14-2.36l-3.44-.93a1.76,1.76,0,0,0-2.13,1.56c-0.41,2.29-.61,3.43-1,5.72s-0.6,3.43-1,5.72a1.76,1.76,0,0,0,1.46,2.19l3.55,0.31S363.2,1237.9,364.11,1238Z" transform="translate(-79.75 -1070.98)"/><path class="cls-7" d="M365.94,1219.71l11.77-2.83a2.3,2.3,0,0,0,1.81-2,17.19,17.19,0,0,0-1-5.55,2.3,2.3,0,0,0-2.4-1.3l-12,1.36c-0.91.1-1.88-1.83-1.88-1.83l-3.55.3a1.75,1.75,0,0,0-1.47,2.18c0.4,2.29.6,3.43,1,5.72s0.61,3.43,1,5.72a1.76,1.76,0,0,0,2.13,1.55l3.44-.92S365.05,1219.92,365.94,1219.71Z" transform="translate(-79.75 -1070.98)"/><path class="cls-7" d="M361.39,1201.88l10.09-6.69a2.29,2.29,0,0,0,1-2.54,17.29,17.29,0,0,0-2.82-4.88,2.28,2.28,0,0,0-2.71-.4l-10.84,5.39c-0.81.4-2.39-1.08-2.39-1.08l-3.23,1.5a1.76,1.76,0,0,0-.62,2.56l2.9,5,2.9,5a1.77,1.77,0,0,0,2.54.74l2.91-2S360.64,1202.39,361.39,1201.88Z" transform="translate(-79.75 -1070.98)"/><path class="cls-7" d="M351,1186.69l7.19-9.73a2.3,2.3,0,0,0,.08-2.74,17.26,17.26,0,0,0-4.31-3.62,2.3,2.3,0,0,0-2.68.55l-8.34,8.78c-0.62.66-2.62-.2-2.62-0.2l-2.52,2.51a1.76,1.76,0,0,0,.29,2.62l4.44,3.73,4.45,3.74a1.76,1.76,0,0,0,2.62-.18l2-2.92S350.49,1187.42,351,1186.69Z" transform="translate(-79.75 -1070.98)"/><path class="cls-7" d="M336.1,1176l3.43-11.61a2.29,2.29,0,0,0-.87-2.59,17,17,0,0,0-5.29-1.93,2.29,2.29,0,0,0-2.33,1.44l-4.83,11.1c-0.36.83-2.52,0.71-2.52,0.71l-1.52,3.23a1.76,1.76,0,0,0,1.17,2.36l5.46,2,5.45,2a1.76,1.76,0,0,0,2.41-1.06l0.92-3.44S335.84,1176.83,336.1,1176Z" transform="translate(-79.75 -1070.98)"/><path class="cls-8" d="M456.07,1266.8a26.66,26.66,0,1,1-26.67-26.66A26.67,26.67,0,0,1,456.07,1266.8Zm-26.67-19.34a19.34,19.34,0,1,0,19.34,19.33A19.34,19.34,0,0,0,429.4,1247.46Z" transform="translate(-79.75 -1070.98)"/><path class="cls-8" d="M432.12,1239.58c0-.47-0.39-6.24-0.39-6.24a1.18,1.18,0,0,0-.88-1.11,8.79,8.79,0,0,0-2.91,0,1.18,1.18,0,0,0-.88,1.11l-0.39,6.24c0,0.47-1.1.79-1.1,0.79-0.07.73-.1,1.1-0.16,1.83a0.91,0.91,0,0,0,1,.94h6a0.91,0.91,0,0,0,1-.94c-0.06-.74-0.1-1.1-0.16-1.83C433.22,1240.37,432.15,1240,432.12,1239.58Z" transform="translate(-79.75 -1070.98)"/><path class="cls-8" d="M422.65,1240.29l-2.5-5.73a1.18,1.18,0,0,0-1.2-.74,8.76,8.76,0,0,0-2.73,1,1.18,1.18,0,0,0-.45,1.34l1.78,6c0.13,0.45-.77,1.12-0.77,1.12l0.47,1.78a0.91,0.91,0,0,0,1.24.55l2.82-1,2.82-1a0.91,0.91,0,0,0,.6-1.22l-0.78-1.67S422.83,1240.72,422.65,1240.29Z" transform="translate(-79.75 -1070.98)"/><path class="cls-8" d="M414,1244.2l-4.31-4.53a1.19,1.19,0,0,0-1.39-.28,9,9,0,0,0-2.23,1.87,1.18,1.18,0,0,0,0,1.41l3.71,5c0.28,0.38-.33,1.32-0.33,1.32l1.05,1.51a0.91,0.91,0,0,0,1.36.09l2.3-1.93,2.3-1.93a0.91,0.91,0,0,0,.15-1.35l-1.3-1.3S414.31,1244.54,414,1244.2Z" transform="translate(-79.75 -1070.98)"/><path class="cls-8" d="M407.19,1250.84l-5.6-2.78a1.18,1.18,0,0,0-1.4.2,8.88,8.88,0,0,0-1.46,2.52,1.19,1.19,0,0,0,.52,1.31l5.21,3.45c0.39,0.26.13,1.35,0.13,1.35l1.5,1.06a0.91,0.91,0,0,0,1.31-.38l1.5-2.6,1.5-2.6a0.91,0.91,0,0,0-.33-1.32l-1.67-.78S407.61,1251,407.19,1250.84Z" transform="translate(-79.75 -1070.98)"/><path class="cls-8" d="M403.07,1259.4l-6.22-.7a1.18,1.18,0,0,0-1.24.67,8.86,8.86,0,0,0-.5,2.87,1.18,1.18,0,0,0,.94,1.05l6.08,1.46c0.46,0.11.59,1.22,0.59,1.22l1.78,0.48a0.91,0.91,0,0,0,1.1-.8l0.52-3c0.21-1.18.31-1.77,0.52-3a0.91,0.91,0,0,0-.76-1.13l-1.83-.16S403.54,1259.45,403.07,1259.4Z" transform="translate(-79.75 -1070.98)"/><path class="cls-8" d="M402.13,1268.85l-6.08,1.46a1.19,1.19,0,0,0-.94,1.06,8.87,8.87,0,0,0,.5,2.87,1.18,1.18,0,0,0,1.24.67l6.21-.7c0.47-.05,1,0.95,1,0.95l1.83-.16a0.91,0.91,0,0,0,.76-1.13l-0.52-3-0.52-3a0.91,0.91,0,0,0-1.1-.8l-1.78.48S402.58,1268.74,402.13,1268.85Z" transform="translate(-79.75 -1070.98)"/><path class="cls-8" d="M404.47,1278.05l-5.21,3.45a1.19,1.19,0,0,0-.52,1.31,8.85,8.85,0,0,0,1.46,2.52,1.18,1.18,0,0,0,1.4.21l5.6-2.78c0.42-.21,1.24.56,1.24,0.56l1.67-.78a0.91,0.91,0,0,0,.33-1.32l-1.5-2.6-1.5-2.6a0.91,0.91,0,0,0-1.31-.38l-1.51,1.06S404.87,1277.79,404.47,1278.05Z" transform="translate(-79.75 -1070.98)"/><path class="cls-8" d="M409.82,1285.9l-3.71,5a1.19,1.19,0,0,0,0,1.41,8.9,8.9,0,0,0,2.23,1.87,1.19,1.19,0,0,0,1.39-.28l4.31-4.53c0.32-.34,1.35.1,1.35,0.1l1.3-1.3a0.91,0.91,0,0,0-.15-1.35l-2.3-1.93-2.3-1.93a0.9,0.9,0,0,0-1.35.09l-1.05,1.51S410.11,1285.52,409.82,1285.9Z" transform="translate(-79.75 -1070.98)"/><path class="cls-8" d="M417.54,1291.44l-1.77,6a1.19,1.19,0,0,0,.45,1.34,8.78,8.78,0,0,0,2.73,1,1.18,1.18,0,0,0,1.2-.74l2.5-5.73c0.19-.43,1.3-0.37,1.3-0.37l0.78-1.67a0.91,0.91,0,0,0-.6-1.22l-2.82-1-2.82-1a0.91,0.91,0,0,0-1.24.55l-0.47,1.78S417.67,1291,417.54,1291.44Z" transform="translate(-79.75 -1070.98)"/><path class="cls-8" d="M426.68,1294c0,0.47.38,6.24,0.38,6.24a1.18,1.18,0,0,0,.88,1.11,8.81,8.81,0,0,0,2.91,0,1.18,1.18,0,0,0,.88-1.11s0.36-5.77.39-6.24,1.1-.79,1.1-0.79l0.16-1.83a0.91,0.91,0,0,0-1-.94h-6a0.91,0.91,0,0,0-1,.94c0.07,0.73.1,1.1,0.16,1.83C425.58,1293.22,426.66,1293.54,426.68,1294Z" transform="translate(-79.75 -1070.98)"/><path class="cls-8" d="M436.16,1293.3l2.5,5.73a1.18,1.18,0,0,0,1.2.74,8.8,8.8,0,0,0,2.73-1,1.19,1.19,0,0,0,.45-1.34l-1.77-6c-0.13-.45.76-1.12,0.76-1.12l-0.47-1.78a0.9,0.9,0,0,0-1.24-.55l-2.82,1-2.82,1a0.91,0.91,0,0,0-.6,1.22l0.78,1.67S436,1292.87,436.16,1293.3Z" transform="translate(-79.75 -1070.98)"/><path class="cls-8" d="M444.82,1289.39l4.31,4.53a1.18,1.18,0,0,0,1.39.28,8.91,8.91,0,0,0,2.23-1.87,1.19,1.19,0,0,0,0-1.41l-3.72-5c-0.28-.38.33-1.32,0.33-1.32l-1.06-1.51a0.9,0.9,0,0,0-1.35-.09l-2.3,1.93-2.3,1.93a0.91,0.91,0,0,0-.15,1.35l1.3,1.3S444.49,1289.05,444.82,1289.39Z" transform="translate(-79.75 -1070.98)"/><path class="cls-8" d="M451.61,1282.76l5.6,2.79a1.18,1.18,0,0,0,1.4-.21,8.88,8.88,0,0,0,1.45-2.52,1.18,1.18,0,0,0-.52-1.31l-5.21-3.45c-0.39-.26-0.13-1.35-0.13-1.35l-1.51-1.06a0.91,0.91,0,0,0-1.31.38l-1.5,2.6-1.5,2.6a0.91,0.91,0,0,0,.32,1.32l1.67,0.77S451.19,1282.55,451.61,1282.76Z" transform="translate(-79.75 -1070.98)"/><path class="cls-8" d="M455.73,1274.2l6.21,0.7a1.18,1.18,0,0,0,1.24-.67,8.84,8.84,0,0,0,.51-2.87,1.18,1.18,0,0,0-.94-1.05l-6.08-1.46c-0.46-.11-0.59-1.22-0.59-1.22l-1.78-.48a0.91,0.91,0,0,0-1.1.8l-0.52,3-0.52,3a0.91,0.91,0,0,0,.76,1.13l1.83,0.16S455.26,1274.15,455.73,1274.2Z" transform="translate(-79.75 -1070.98)"/><path class="cls-8" d="M456.68,1264.75l6.08-1.46a1.19,1.19,0,0,0,.94-1.06,8.88,8.88,0,0,0-.51-2.87,1.19,1.19,0,0,0-1.24-.67l-6.21.7c-0.47.05-1-.95-1-0.95l-1.83.16a0.91,0.91,0,0,0-.76,1.13l0.52,3c0.21,1.18.31,1.77,0.52,3a0.91,0.91,0,0,0,1.1.8l1.78-.48S456.22,1264.86,456.68,1264.75Z" transform="translate(-79.75 -1070.98)"/><path class="cls-8" d="M454.33,1255.54l5.21-3.46a1.18,1.18,0,0,0,.52-1.31,8.93,8.93,0,0,0-1.45-2.52,1.18,1.18,0,0,0-1.4-.21l-5.6,2.79c-0.42.21-1.24-.56-1.24-0.56l-1.67.78a0.91,0.91,0,0,0-.32,1.32l1.5,2.6,1.5,2.6a0.92,0.92,0,0,0,1.31.38l1.51-1.06S453.94,1255.8,454.33,1255.54Z" transform="translate(-79.75 -1070.98)"/><path class="cls-8" d="M449,1247.69l3.71-5a1.19,1.19,0,0,0,0-1.41,8.91,8.91,0,0,0-2.23-1.87,1.19,1.19,0,0,0-1.39.28l-4.31,4.53c-0.32.34-1.35-.1-1.35-0.1l-1.3,1.3a0.91,0.91,0,0,0,.15,1.35l2.3,1.93,2.3,1.93a0.91,0.91,0,0,0,1.35-.09l1.06-1.51S448.7,1248.07,449,1247.69Z" transform="translate(-79.75 -1070.98)"/><path class="cls-8" d="M441.26,1242.15l1.77-6a1.18,1.18,0,0,0-.45-1.34,8.79,8.79,0,0,0-2.73-1,1.18,1.18,0,0,0-1.2.74l-2.5,5.73c-0.19.43-1.3,0.37-1.3,0.37l-0.78,1.67a0.91,0.91,0,0,0,.6,1.22l2.82,1,2.82,1a0.91,0.91,0,0,0,1.24-.55l0.48-1.78S441.13,1242.6,441.26,1242.15Z" transform="translate(-79.75 -1070.98)"/><path class="cls-8" d="M400.32,1304.49A26.35,26.35,0,1,1,374,1278.14,26.35,26.35,0,0,1,400.32,1304.49ZM374,1285.39a19.11,19.11,0,1,0,19.11,19.11A19.11,19.11,0,0,0,374,1285.39Z" transform="translate(-79.75 -1070.98)"/><path class="cls-8" d="M376.65,1277.6c0-.46-0.38-6.17-0.38-6.17a1.17,1.17,0,0,0-.87-1.09,8.69,8.69,0,0,0-2.88,0,1.17,1.17,0,0,0-.87,1.09l-0.38,6.17c0,0.46-1.09.78-1.09,0.78-0.06.72-.1,1.08-0.16,1.81a0.9,0.9,0,0,0,1,.93h5.93a0.9,0.9,0,0,0,1-.93c-0.06-.73-0.1-1.09-0.16-1.81C377.74,1278.38,376.68,1278.06,376.65,1277.6Z" transform="translate(-79.75 -1070.98)"/><path class="cls-8" d="M367.29,1278.3l-2.47-5.66a1.17,1.17,0,0,0-1.19-.73,8.66,8.66,0,0,0-2.7,1,1.16,1.16,0,0,0-.44,1.32l1.75,5.93c0.13,0.44-.76,1.11-0.76,1.11L362,1283a0.9,0.9,0,0,0,1.23.54l2.79-1,2.79-1a0.9,0.9,0,0,0,.59-1.21l-0.77-1.65S367.47,1278.73,367.29,1278.3Z" transform="translate(-79.75 -1070.98)"/><path class="cls-8" d="M358.73,1282.17l-4.25-4.48a1.18,1.18,0,0,0-1.37-.28,8.84,8.84,0,0,0-2.2,1.85,1.17,1.17,0,0,0,0,1.39l3.67,5c0.28,0.37-.33,1.3-0.33,1.3l1,1.49a0.9,0.9,0,0,0,1.34.09l2.27-1.91,2.27-1.91a0.9,0.9,0,0,0,.14-1.34l-1.29-1.28S359.05,1282.5,358.73,1282.17Z" transform="translate(-79.75 -1070.98)"/><path class="cls-8" d="M352,1288.72l-5.53-2.75a1.16,1.16,0,0,0-1.38.2,8.78,8.78,0,0,0-1.44,2.49,1.17,1.17,0,0,0,.52,1.3l5.15,3.41c0.39,0.26.13,1.33,0.13,1.33l1.49,1a0.9,0.9,0,0,0,1.29-.38l1.48-2.57,1.48-2.57a0.9,0.9,0,0,0-.32-1.31l-1.65-.77S352.43,1288.93,352,1288.72Z" transform="translate(-79.75 -1070.98)"/><path class="cls-8" d="M347.94,1297.18l-6.14-.7a1.17,1.17,0,0,0-1.23.66,8.75,8.75,0,0,0-.5,2.83,1.16,1.16,0,0,0,.93,1l6,1.45c0.45,0.11.58,1.21,0.58,1.21l1.76,0.47a0.9,0.9,0,0,0,1.08-.79l0.52-2.92c0.2-1.17.31-1.75,0.52-2.92a0.9,0.9,0,0,0-.75-1.11l-1.81-.16S348.41,1297.23,347.94,1297.18Z" transform="translate(-79.75 -1070.98)"/><path class="cls-8" d="M347,1306.52l-6,1.45a1.17,1.17,0,0,0-.93,1,8.77,8.77,0,0,0,.5,2.83,1.17,1.17,0,0,0,1.23.66l6.14-.69c0.46-.05,1,0.94,1,0.94l1.81-.16a0.89,0.89,0,0,0,.75-1.12l-0.51-2.92-0.51-2.92a0.9,0.9,0,0,0-1.09-.79l-1.76.47S347.46,1306.41,347,1306.52Z" transform="translate(-79.75 -1070.98)"/><path class="cls-8" d="M349.33,1315.62l-5.15,3.41a1.18,1.18,0,0,0-.52,1.3,8.75,8.75,0,0,0,1.44,2.49,1.17,1.17,0,0,0,1.38.2l5.53-2.75c0.41-.21,1.22.55,1.22,0.55l1.65-.77a0.9,0.9,0,0,0,.32-1.3l-1.48-2.57-1.48-2.57a0.9,0.9,0,0,0-1.29-.38l-1.49,1S349.72,1315.36,349.33,1315.62Z" transform="translate(-79.75 -1070.98)"/><path class="cls-8" d="M354.62,1323.37l-3.67,5a1.18,1.18,0,0,0,0,1.4,8.79,8.79,0,0,0,2.2,1.85,1.17,1.17,0,0,0,1.37-.28l4.26-4.48c0.32-.34,1.34.1,1.34,0.1l1.29-1.28a0.9,0.9,0,0,0-.15-1.34l-2.27-1.91-2.27-1.9a0.89,0.89,0,0,0-1.34.09l-1,1.49S354.9,1323,354.62,1323.37Z" transform="translate(-79.75 -1070.98)"/><path class="cls-8" d="M362.24,1328.85l-1.75,5.93a1.17,1.17,0,0,0,.44,1.33,8.68,8.68,0,0,0,2.7,1,1.16,1.16,0,0,0,1.19-.73l2.47-5.66c0.19-.42,1.29-0.36,1.29-0.36l0.77-1.65a0.9,0.9,0,0,0-.59-1.2l-2.79-1-2.79-1a0.9,0.9,0,0,0-1.23.54l-0.47,1.76S362.37,1328.4,362.24,1328.85Z" transform="translate(-79.75 -1070.98)"/><path class="cls-8" d="M371.28,1331.39c0,0.47.38,6.17,0.38,6.17a1.17,1.17,0,0,0,.87,1.09,8.71,8.71,0,0,0,2.87,0,1.16,1.16,0,0,0,.87-1.09s0.35-5.71.38-6.17,1.09-.78,1.09-0.78l0.16-1.81a0.9,0.9,0,0,0-1-.93H371a0.9,0.9,0,0,0-1,.93c0.06,0.72.1,1.08,0.16,1.81C370.19,1330.61,371.25,1330.93,371.28,1331.39Z" transform="translate(-79.75 -1070.98)"/><path class="cls-8" d="M380.64,1330.69l2.47,5.66a1.16,1.16,0,0,0,1.19.73,8.69,8.69,0,0,0,2.7-1,1.18,1.18,0,0,0,.44-1.33l-1.75-5.93c-0.13-.44.76-1.11,0.76-1.11L386,1326a0.89,0.89,0,0,0-1.23-.54l-2.79,1-2.78,1a0.9,0.9,0,0,0-.59,1.21l0.77,1.65S380.45,1330.26,380.64,1330.69Z" transform="translate(-79.75 -1070.98)"/><path class="cls-8" d="M389.2,1326.82l4.26,4.48a1.17,1.17,0,0,0,1.37.28,8.81,8.81,0,0,0,2.2-1.85,1.17,1.17,0,0,0,0-1.4l-3.67-5c-0.27-.37.33-1.3,0.33-1.3l-1-1.49a0.89,0.89,0,0,0-1.34-.09l-2.27,1.9-2.27,1.91a0.9,0.9,0,0,0-.14,1.34l1.29,1.28S388.88,1326.49,389.2,1326.82Z" transform="translate(-79.75 -1070.98)"/><path class="cls-8" d="M395.91,1320.27l5.53,2.75a1.17,1.17,0,0,0,1.38-.2,8.77,8.77,0,0,0,1.44-2.49,1.17,1.17,0,0,0-.52-1.3l-5.15-3.41c-0.39-.26-0.13-1.34-0.13-1.34l-1.49-1a0.9,0.9,0,0,0-1.29.37l-1.48,2.57-1.48,2.57a0.9,0.9,0,0,0,.32,1.31l1.65,0.77S395.5,1320.06,395.91,1320.27Z" transform="translate(-79.75 -1070.98)"/><path class="cls-8" d="M400,1311.81l6.14,0.69a1.17,1.17,0,0,0,1.23-.66,8.73,8.73,0,0,0,.5-2.83,1.17,1.17,0,0,0-.93-1l-6-1.45c-0.45-.11-0.58-1.21-0.58-1.21l-1.76-.47a0.9,0.9,0,0,0-1.08.79l-0.52,2.92-0.51,2.92a0.9,0.9,0,0,0,.75,1.12l1.81,0.16S399.52,1311.76,400,1311.81Z" transform="translate(-79.75 -1070.98)"/><path class="cls-8" d="M400.92,1302.47l6-1.45a1.17,1.17,0,0,0,.93-1,8.78,8.78,0,0,0-.5-2.83,1.17,1.17,0,0,0-1.23-.66l-6.14.7c-0.46.05-1-.94-1-0.94l-1.81.16a0.9,0.9,0,0,0-.75,1.11l0.51,2.92c0.21,1.17.31,1.75,0.51,2.92a0.9,0.9,0,0,0,1.09.79l1.76-.47S400.46,1302.58,400.92,1302.47Z" transform="translate(-79.75 -1070.98)"/><path class="cls-8" d="M398.6,1293.37l5.15-3.42a1.17,1.17,0,0,0,.52-1.3,8.83,8.83,0,0,0-1.44-2.49,1.17,1.17,0,0,0-1.38-.2l-5.53,2.75c-0.41.21-1.22-.55-1.22-0.55l-1.65.77a0.9,0.9,0,0,0-.32,1.31l1.48,2.57,1.48,2.57a0.9,0.9,0,0,0,1.3.38l1.49-1S398.21,1293.63,398.6,1293.37Z" transform="translate(-79.75 -1070.98)"/><path class="cls-8" d="M393.31,1285.62l3.67-5a1.17,1.17,0,0,0,0-1.4,8.81,8.81,0,0,0-2.2-1.85,1.17,1.17,0,0,0-1.37.28l-4.26,4.48c-0.32.34-1.34-.1-1.34-0.1l-1.29,1.28a0.9,0.9,0,0,0,.15,1.34l2.27,1.91,2.27,1.91a0.9,0.9,0,0,0,1.34-.09l1-1.49S393,1286,393.31,1285.62Z" transform="translate(-79.75 -1070.98)"/><path class="cls-8" d="M385.69,1280.14l1.75-5.93a1.17,1.17,0,0,0-.44-1.32,8.69,8.69,0,0,0-2.7-1,1.17,1.17,0,0,0-1.19.73l-2.47,5.66c-0.19.42-1.29,0.36-1.29,0.36l-0.77,1.65a0.9,0.9,0,0,0,.59,1.21l2.78,1,2.78,1A0.9,0.9,0,0,0,386,1283l0.47-1.76S385.55,1280.59,385.69,1280.14Z" transform="translate(-79.75 -1070.98)"/><path class="cls-8" d="M459.26,1326.32a22.76,22.76,0,1,1-22.76-22.76A22.76,22.76,0,0,1,459.26,1326.32Zm-22.76-16.51a16.51,16.51,0,1,0,16.51,16.5A16.51,16.51,0,0,0,436.5,1309.81Z" transform="translate(-79.75 -1070.98)"/><path class="cls-8" d="M438.82,1303.08c0-.4-0.33-5.33-0.33-5.33a1,1,0,0,0-.75-0.94,7.5,7.5,0,0,0-2.48,0,1,1,0,0,0-.75.94l-0.33,5.33a1.46,1.46,0,0,1-.94.68l-0.14,1.56a0.78,0.78,0,0,0,.84.8h5.12a0.78,0.78,0,0,0,.84-0.8c-0.05-.63-0.08-0.94-0.14-1.56A1.46,1.46,0,0,1,438.82,1303.08Z" transform="translate(-79.75 -1070.98)"/><path class="cls-8" d="M430.74,1303.69l-2.13-4.89a1,1,0,0,0-1-.63,7.48,7.48,0,0,0-2.33.85,1,1,0,0,0-.38,1.14l1.52,5.12a1.47,1.47,0,0,1-.65,1l0.41,1.52a0.77,0.77,0,0,0,1.06.47l2.41-.88,2.41-.88a0.78,0.78,0,0,0,.51-1l-0.67-1.42A1.46,1.46,0,0,1,430.74,1303.69Z" transform="translate(-79.75 -1070.98)"/><path class="cls-8" d="M423.35,1307l-3.68-3.87a1,1,0,0,0-1.18-.24,7.64,7.64,0,0,0-1.9,1.6,1,1,0,0,0,0,1.2l3.17,4.29a1.47,1.47,0,0,1-.28,1.12l0.9,1.29a0.78,0.78,0,0,0,1.16.08l2-1.65,2-1.65a0.78,0.78,0,0,0,.12-1.16l-1.11-1.11A1.46,1.46,0,0,1,423.35,1307Z" transform="translate(-79.75 -1070.98)"/><path class="cls-8" d="M417.54,1312.69l-4.78-2.38a1,1,0,0,0-1.19.17,7.58,7.58,0,0,0-1.24,2.15,1,1,0,0,0,.45,1.12l4.45,2.95a1.46,1.46,0,0,1,.11,1.15l1.28,0.9a0.77,0.77,0,0,0,1.11-.32l1.28-2.22,1.28-2.22a0.78,0.78,0,0,0-.28-1.13l-1.42-.66A1.45,1.45,0,0,1,417.54,1312.69Z" transform="translate(-79.75 -1070.98)"/><path class="cls-8" d="M414,1320l-5.31-.6a1,1,0,0,0-1.06.57,7.56,7.56,0,0,0-.43,2.45,1,1,0,0,0,.8.9l5.19,1.25a1.46,1.46,0,0,1,.5,1l1.52,0.41a0.78,0.78,0,0,0,.94-0.69l0.45-2.52c0.18-1,.27-1.51.45-2.52a0.78,0.78,0,0,0-.65-1l-1.56-.14A1.47,1.47,0,0,1,414,1320Z" transform="translate(-79.75 -1070.98)"/><path class="cls-8" d="M413.22,1328.07l-5.19,1.25a1,1,0,0,0-.8.9,7.57,7.57,0,0,0,.43,2.45,1,1,0,0,0,1.06.57l5.31-.6a1.46,1.46,0,0,1,.83.81l1.56-.13a0.77,0.77,0,0,0,.65-1l-0.44-2.52-0.44-2.52a0.78,0.78,0,0,0-.94-0.69l-1.52.41A1.46,1.46,0,0,1,413.22,1328.07Z" transform="translate(-79.75 -1070.98)"/><path class="cls-8" d="M415.22,1335.93l-4.45,2.95a1,1,0,0,0-.45,1.12,7.56,7.56,0,0,0,1.24,2.15,1,1,0,0,0,1.19.18l4.78-2.38a1.46,1.46,0,0,1,1.06.48l1.42-.66a0.78,0.78,0,0,0,.28-1.13l-1.28-2.22-1.28-2.22a0.78,0.78,0,0,0-1.12-.32l-1.29.9A1.48,1.48,0,0,1,415.22,1335.93Z" transform="translate(-79.75 -1070.98)"/><path class="cls-8" d="M419.79,1342.62l-3.17,4.29a1,1,0,0,0,0,1.21,7.6,7.6,0,0,0,1.9,1.59,1,1,0,0,0,1.18-.24l3.68-3.87a1.46,1.46,0,0,1,1.15.09l1.11-1.11a0.78,0.78,0,0,0-.13-1.16l-2-1.65-2-1.65a0.77,0.77,0,0,0-1.16.08l-0.9,1.29A1.47,1.47,0,0,1,419.79,1342.62Z" transform="translate(-79.75 -1070.98)"/><path class="cls-8" d="M426.37,1347.35l-1.51,5.12a1,1,0,0,0,.38,1.15,7.5,7.5,0,0,0,2.33.85,1,1,0,0,0,1-.63l2.13-4.89a1.47,1.47,0,0,1,1.11-.31l0.67-1.42a0.78,0.78,0,0,0-.51-1l-2.41-.88-2.41-.88a0.77,0.77,0,0,0-1.06.47l-0.4,1.52A1.45,1.45,0,0,1,426.37,1347.35Z" transform="translate(-79.75 -1070.98)"/><path class="cls-8" d="M434.18,1349.55c0,0.4.33,5.33,0.33,5.33a1,1,0,0,0,.75.94,7.52,7.52,0,0,0,2.48,0,1,1,0,0,0,.75-0.94s0.3-4.93.33-5.33a1.46,1.46,0,0,1,.94-0.67l0.14-1.56a0.78,0.78,0,0,0-.84-0.81h-5.12a0.78,0.78,0,0,0-.84.81l0.14,1.56A1.46,1.46,0,0,1,434.18,1349.55Z" transform="translate(-79.75 -1070.98)"/><path class="cls-8" d="M442.27,1348.94l2.13,4.89a1,1,0,0,0,1,.63,7.51,7.51,0,0,0,2.33-.85,1,1,0,0,0,.38-1.15l-1.52-5.12a1.47,1.47,0,0,1,.65-1l-0.41-1.52a0.77,0.77,0,0,0-1.06-.47l-2.41.87-2.41.88a0.77,0.77,0,0,0-.51,1l0.66,1.42A1.46,1.46,0,0,1,442.27,1348.94Z" transform="translate(-79.75 -1070.98)"/><path class="cls-8" d="M449.66,1345.6l3.68,3.87a1,1,0,0,0,1.18.24,7.61,7.61,0,0,0,1.9-1.59,1,1,0,0,0,0-1.21l-3.17-4.29a1.47,1.47,0,0,1,.29-1.12l-0.9-1.29a0.77,0.77,0,0,0-1.16-.08l-2,1.65-2,1.65a0.78,0.78,0,0,0-.12,1.16l1.11,1.11A1.47,1.47,0,0,1,449.66,1345.6Z" transform="translate(-79.75 -1070.98)"/><path class="cls-8" d="M455.46,1339.94l4.78,2.38a1,1,0,0,0,1.19-.18,7.58,7.58,0,0,0,1.24-2.15,1,1,0,0,0-.45-1.12l-4.45-2.95a1.47,1.47,0,0,1-.11-1.15l-1.29-.9a0.78,0.78,0,0,0-1.12.32l-1.28,2.22-1.28,2.22a0.78,0.78,0,0,0,.28,1.13l1.43,0.66A1.46,1.46,0,0,1,455.46,1339.94Z" transform="translate(-79.75 -1070.98)"/><path class="cls-8" d="M459,1332.64l5.3,0.6a1,1,0,0,0,1.06-.57,7.54,7.54,0,0,0,.43-2.45,1,1,0,0,0-.8-0.9l-5.19-1.25a1.46,1.46,0,0,1-.5-1l-1.52-.41a0.77,0.77,0,0,0-.94.69l-0.45,2.52-0.44,2.52a0.77,0.77,0,0,0,.64,1l1.57,0.14A1.47,1.47,0,0,1,459,1332.64Z" transform="translate(-79.75 -1070.98)"/><path class="cls-8" d="M459.78,1324.57l5.19-1.25a1,1,0,0,0,.8-0.9,7.58,7.58,0,0,0-.43-2.45,1,1,0,0,0-1.06-.57l-5.3.6a1.45,1.45,0,0,1-.83-0.81l-1.56.13a0.77,0.77,0,0,0-.65,1l0.44,2.52c0.18,1,.27,1.51.44,2.52a0.78,0.78,0,0,0,.94.68l1.52-.41A1.44,1.44,0,0,1,459.78,1324.57Z" transform="translate(-79.75 -1070.98)"/><path class="cls-8" d="M457.78,1316.71l4.45-3a1,1,0,0,0,.45-1.12,7.62,7.62,0,0,0-1.24-2.15,1,1,0,0,0-1.19-.18l-4.78,2.38a1.47,1.47,0,0,1-1.05-.48l-1.43.66a0.78,0.78,0,0,0-.28,1.13l1.28,2.22,1.28,2.22a0.78,0.78,0,0,0,1.12.32l1.29-.9A1.46,1.46,0,0,1,457.78,1316.71Z" transform="translate(-79.75 -1070.98)"/><path class="cls-8" d="M453.21,1310l3.17-4.29a1,1,0,0,0,0-1.21,7.61,7.61,0,0,0-1.9-1.6,1,1,0,0,0-1.18.24l-3.68,3.87a1.47,1.47,0,0,1-1.16-.09l-1.11,1.11a0.77,0.77,0,0,0,.13,1.15l2,1.65,2,1.65a0.78,0.78,0,0,0,1.16-.08l0.9-1.29A1.47,1.47,0,0,1,453.21,1310Z" transform="translate(-79.75 -1070.98)"/><path class="cls-8" d="M446.63,1305.28l1.51-5.12a1,1,0,0,0-.38-1.14,7.5,7.5,0,0,0-2.33-.85,1,1,0,0,0-1,.63l-2.13,4.89a1.46,1.46,0,0,1-1.11.31l-0.67,1.42a0.78,0.78,0,0,0,.51,1l2.41,0.87,2.4,0.88a0.78,0.78,0,0,0,1.06-.47l0.41-1.52A1.46,1.46,0,0,1,446.63,1305.28Z" transform="translate(-79.75 -1070.98)"/><path class="cls-8" d="M437.59,1210.28a23.85,23.85,0,1,1-23.85-23.85A23.85,23.85,0,0,1,437.59,1210.28ZM413.74,1193a17.29,17.29,0,1,0,17.3,17.29A17.3,17.3,0,0,0,413.74,1193Z" transform="translate(-79.75 -1070.98)"/><path class="cls-8" d="M416.17,1185.94c0-.42-0.34-5.58-0.34-5.58a1.05,1.05,0,0,0-.78-1,7.86,7.86,0,0,0-2.6,0,1.06,1.06,0,0,0-.78,1l-0.35,5.58a1.53,1.53,0,0,1-1,.71l-0.14,1.64a0.81,0.81,0,0,0,.88.84h5.37a0.81,0.81,0,0,0,.88-0.84c-0.06-.66-0.09-1-0.14-1.64A1.53,1.53,0,0,1,416.17,1185.94Z" transform="translate(-79.75 -1070.98)"/><path class="cls-8" d="M407.7,1186.58l-2.23-5.13a1.06,1.06,0,0,0-1.08-.66,7.84,7.84,0,0,0-2.44.89,1.05,1.05,0,0,0-.4,1.2l1.59,5.36a1.54,1.54,0,0,1-.69,1l0.42,1.59a0.81,0.81,0,0,0,1.11.49l2.52-.92,2.52-.92a0.81,0.81,0,0,0,.54-1.09l-0.7-1.49A1.53,1.53,0,0,1,407.7,1186.58Z" transform="translate(-79.75 -1070.98)"/><path class="cls-8" d="M400,1190.07l-3.85-4.05a1.06,1.06,0,0,0-1.24-.25,8,8,0,0,0-2,1.67,1.06,1.06,0,0,0,0,1.26l3.32,4.5a1.54,1.54,0,0,1-.3,1.18l0.94,1.35a0.81,0.81,0,0,0,1.21.08l2.06-1.73,2.06-1.72a0.81,0.81,0,0,0,.13-1.21l-1.17-1.16A1.53,1.53,0,0,1,400,1190.07Z" transform="translate(-79.75 -1070.98)"/><path class="cls-8" d="M393.88,1196l-5-2.49a1.05,1.05,0,0,0-1.25.18,7.94,7.94,0,0,0-1.3,2.25,1.06,1.06,0,0,0,.47,1.17l4.66,3.09a1.53,1.53,0,0,1,.12,1.21l1.35,0.95a0.81,0.81,0,0,0,1.17-.34l1.34-2.32,1.34-2.32a0.81,0.81,0,0,0-.29-1.18l-1.49-.69A1.52,1.52,0,0,1,393.88,1196Z" transform="translate(-79.75 -1070.98)"/><path class="cls-8" d="M390.19,1203.66l-5.56-.63a1.06,1.06,0,0,0-1.11.6,7.92,7.92,0,0,0-.45,2.56,1.05,1.05,0,0,0,.84.94l5.44,1.31a1.53,1.53,0,0,1,.53,1.09l1.59,0.43a0.81,0.81,0,0,0,1-.72l0.47-2.64c0.18-1.06.28-1.58,0.47-2.64a0.81,0.81,0,0,0-.68-1l-1.64-.14A1.54,1.54,0,0,1,390.19,1203.66Z" transform="translate(-79.75 -1070.98)"/><path class="cls-8" d="M389.35,1212.12l-5.44,1.31a1.06,1.06,0,0,0-.84.95,7.93,7.93,0,0,0,.45,2.56,1.06,1.06,0,0,0,1.11.6l5.56-.63a1.53,1.53,0,0,1,.87.85l1.64-.14a0.81,0.81,0,0,0,.68-1l-0.46-2.64-0.47-2.64a0.81,0.81,0,0,0-1-.72l-1.59.43A1.53,1.53,0,0,1,389.35,1212.12Z" transform="translate(-79.75 -1070.98)"/><path class="cls-8" d="M391.44,1220.35l-4.66,3.09a1.06,1.06,0,0,0-.47,1.17,7.92,7.92,0,0,0,1.3,2.25,1.06,1.06,0,0,0,1.25.19l5-2.49a1.53,1.53,0,0,1,1.11.5l1.49-.69a0.81,0.81,0,0,0,.29-1.18l-1.34-2.32-1.34-2.32a0.82,0.82,0,0,0-1.17-.34l-1.35.95A1.55,1.55,0,0,1,391.44,1220.35Z" transform="translate(-79.75 -1070.98)"/><path class="cls-8" d="M396.23,1227.37l-3.32,4.5a1.06,1.06,0,0,0,0,1.26,8,8,0,0,0,2,1.67,1.06,1.06,0,0,0,1.24-.25l3.85-4.05a1.53,1.53,0,0,1,1.21.09l1.17-1.16a0.81,0.81,0,0,0-.13-1.21l-2.05-1.72-2.06-1.72a0.81,0.81,0,0,0-1.21.08l-0.94,1.35A1.54,1.54,0,0,1,396.23,1227.37Z" transform="translate(-79.75 -1070.98)"/><path class="cls-8" d="M403.13,1232.32l-1.59,5.36a1.06,1.06,0,0,0,.4,1.2,7.85,7.85,0,0,0,2.44.89,1.05,1.05,0,0,0,1.08-.66l2.23-5.13a1.54,1.54,0,0,1,1.17-.33l0.7-1.49a0.81,0.81,0,0,0-.54-1.09l-2.52-.92-2.52-.92a0.81,0.81,0,0,0-1.11.49l-0.42,1.59A1.52,1.52,0,0,1,403.13,1232.32Z" transform="translate(-79.75 -1070.98)"/><path class="cls-8" d="M411.31,1234.62c0,0.42.34,5.58,0.34,5.58a1.06,1.06,0,0,0,.79,1,7.88,7.88,0,0,0,2.6,0,1.05,1.05,0,0,0,.78-1s0.32-5.16.35-5.58a1.53,1.53,0,0,1,1-.71l0.14-1.64a0.81,0.81,0,0,0-.88-0.84h-5.37a0.81,0.81,0,0,0-.88.84l0.14,1.64A1.53,1.53,0,0,1,411.31,1234.62Z" transform="translate(-79.75 -1070.98)"/><path class="cls-8" d="M419.78,1234l2.23,5.13a1.05,1.05,0,0,0,1.07.66,7.87,7.87,0,0,0,2.44-.89,1.07,1.07,0,0,0,.4-1.2l-1.59-5.36a1.54,1.54,0,0,1,.68-1l-0.42-1.59a0.81,0.81,0,0,0-1.11-.49l-2.52.91-2.52.92a0.81,0.81,0,0,0-.54,1.09l0.7,1.49A1.53,1.53,0,0,1,419.78,1234Z" transform="translate(-79.75 -1070.98)"/><path class="cls-8" d="M427.53,1230.49l3.85,4.05a1.06,1.06,0,0,0,1.24.25,8,8,0,0,0,2-1.67,1.06,1.06,0,0,0,0-1.26l-3.32-4.5a1.54,1.54,0,0,1,.3-1.18l-0.94-1.35a0.81,0.81,0,0,0-1.21-.08l-2.06,1.72-2.06,1.72a0.81,0.81,0,0,0-.13,1.21l1.17,1.16A1.54,1.54,0,0,1,427.53,1230.49Z" transform="translate(-79.75 -1070.98)"/><path class="cls-8" d="M433.6,1224.56l5,2.49a1.06,1.06,0,0,0,1.25-.19,7.94,7.94,0,0,0,1.3-2.25,1.06,1.06,0,0,0-.47-1.17l-4.66-3.09a1.54,1.54,0,0,1-.12-1.21l-1.35-.95a0.81,0.81,0,0,0-1.17.34l-1.34,2.32-1.34,2.32a0.81,0.81,0,0,0,.29,1.18l1.49,0.69A1.53,1.53,0,0,1,433.6,1224.56Z" transform="translate(-79.75 -1070.98)"/><path class="cls-8" d="M437.29,1216.9l5.56,0.63a1.06,1.06,0,0,0,1.11-.6,7.9,7.9,0,0,0,.45-2.56,1.06,1.06,0,0,0-.84-0.94l-5.44-1.31a1.53,1.53,0,0,1-.53-1.09l-1.59-.43a0.81,0.81,0,0,0-1,.72l-0.47,2.64-0.46,2.64a0.81,0.81,0,0,0,.68,1l1.64,0.14A1.54,1.54,0,0,1,437.29,1216.9Z" transform="translate(-79.75 -1070.98)"/><path class="cls-8" d="M438.13,1208.45l5.44-1.31a1.06,1.06,0,0,0,.84-0.95,7.94,7.94,0,0,0-.45-2.57,1.06,1.06,0,0,0-1.11-.6l-5.56.63a1.52,1.52,0,0,1-.87-0.85l-1.64.14a0.81,0.81,0,0,0-.68,1l0.46,2.64c0.19,1.06.28,1.59,0.47,2.64a0.81,0.81,0,0,0,1,.72l1.59-.43A1.51,1.51,0,0,1,438.13,1208.45Z" transform="translate(-79.75 -1070.98)"/><path class="cls-8" d="M436,1200.22l4.66-3.09a1.06,1.06,0,0,0,.47-1.17,8,8,0,0,0-1.3-2.25,1.06,1.06,0,0,0-1.25-.18l-5,2.49a1.54,1.54,0,0,1-1.11-.5l-1.49.7a0.81,0.81,0,0,0-.29,1.18l1.34,2.32,1.34,2.32a0.82,0.82,0,0,0,1.17.34l1.35-.95A1.53,1.53,0,0,1,436,1200.22Z" transform="translate(-79.75 -1070.98)"/><path class="cls-8" d="M431.25,1193.2l3.32-4.5a1.06,1.06,0,0,0,0-1.26,8,8,0,0,0-2-1.67,1.06,1.06,0,0,0-1.24.25l-3.85,4.05a1.54,1.54,0,0,1-1.21-.09l-1.16,1.16a0.81,0.81,0,0,0,.13,1.21l2.05,1.72,2.05,1.73a0.81,0.81,0,0,0,1.21-.08l0.94-1.35A1.54,1.54,0,0,1,431.25,1193.2Z" transform="translate(-79.75 -1070.98)"/><path class="cls-8" d="M424.35,1188.24l1.58-5.36a1.06,1.06,0,0,0-.4-1.2,7.86,7.86,0,0,0-2.44-.89,1.06,1.06,0,0,0-1.08.66l-2.23,5.13a1.53,1.53,0,0,1-1.17.33l-0.7,1.49a0.81,0.81,0,0,0,.54,1.09l2.52,0.92,2.52,0.92a0.81,0.81,0,0,0,1.11-.49l0.43-1.59A1.53,1.53,0,0,1,424.35,1188.24Z" transform="translate(-79.75 -1070.98)"/><path class="cls-8" d="M513.92,1269a22.69,22.69,0,1,1-22.69-22.69A22.69,22.69,0,0,1,513.92,1269Zm-22.69-16.45A16.45,16.45,0,1,0,507.68,1269,16.45,16.45,0,0,0,491.23,1252.57Z" transform="translate(-79.75 -1070.98)"/><path class="cls-8" d="M493.54,1245.87c0-.4-0.33-5.31-0.33-5.31a1,1,0,0,0-.75-0.94,7.48,7.48,0,0,0-2.48,0,1,1,0,0,0-.75.94l-0.33,5.31a1.46,1.46,0,0,1-.94.67l-0.14,1.56a0.77,0.77,0,0,0,.84.8h5.1a0.77,0.77,0,0,0,.84-0.8c-0.05-.63-0.08-0.94-0.14-1.56A1.46,1.46,0,0,1,493.54,1245.87Z" transform="translate(-79.75 -1070.98)"/><path class="cls-8" d="M485.48,1246.47l-2.12-4.88a1,1,0,0,0-1-.63,7.45,7.45,0,0,0-2.32.85,1,1,0,0,0-.38,1.14l1.51,5.1a1.47,1.47,0,0,1-.65,1l0.4,1.51a0.77,0.77,0,0,0,1.06.47l2.4-.87,2.4-.87a0.77,0.77,0,0,0,.51-1l-0.66-1.42A1.46,1.46,0,0,1,485.48,1246.47Z" transform="translate(-79.75 -1070.98)"/><path class="cls-8" d="M478.12,1249.8l-3.66-3.86a1,1,0,0,0-1.18-.24,7.61,7.61,0,0,0-1.9,1.59,1,1,0,0,0,0,1.2l3.16,4.28a1.46,1.46,0,0,1-.28,1.12l0.9,1.28a0.77,0.77,0,0,0,1.15.08l2-1.64,2-1.64a0.77,0.77,0,0,0,.12-1.15l-1.11-1.1A1.46,1.46,0,0,1,478.12,1249.8Z" transform="translate(-79.75 -1070.98)"/><path class="cls-8" d="M472.33,1255.44l-4.76-2.37a1,1,0,0,0-1.19.17,7.55,7.55,0,0,0-1.24,2.14,1,1,0,0,0,.44,1.12l4.43,2.94a1.46,1.46,0,0,1,.11,1.15l1.28,0.9a0.77,0.77,0,0,0,1.11-.32l1.28-2.21,1.28-2.21a0.77,0.77,0,0,0-.28-1.13l-1.42-.66A1.45,1.45,0,0,1,472.33,1255.44Z" transform="translate(-79.75 -1070.98)"/><path class="cls-8" d="M468.83,1262.73l-5.29-.6a1,1,0,0,0-1.06.57,7.53,7.53,0,0,0-.43,2.44,1,1,0,0,0,.8.9l5.17,1.25a1.46,1.46,0,0,1,.5,1l1.51,0.41A0.77,0.77,0,0,0,471,1268l0.44-2.51c0.18-1,.26-1.51.44-2.51a0.77,0.77,0,0,0-.65-1l-1.56-.14A1.47,1.47,0,0,1,468.83,1262.73Z" transform="translate(-79.75 -1070.98)"/><path class="cls-8" d="M468,1270.77l-5.17,1.24a1,1,0,0,0-.8.9,7.55,7.55,0,0,0,.43,2.44,1,1,0,0,0,1.06.57l5.29-.6a1.45,1.45,0,0,1,.83.81l1.56-.13a0.77,0.77,0,0,0,.64-1l-0.44-2.51L471,1270a0.77,0.77,0,0,0-.93-0.68l-1.51.41A1.45,1.45,0,0,1,468,1270.77Z" transform="translate(-79.75 -1070.98)"/><path class="cls-8" d="M470,1278.6l-4.43,2.94a1,1,0,0,0-.44,1.12,7.53,7.53,0,0,0,1.24,2.14,1,1,0,0,0,1.19.18l4.76-2.37a1.46,1.46,0,0,1,1.05.47l1.42-.66a0.77,0.77,0,0,0,.28-1.12l-1.28-2.21-1.28-2.21a0.78,0.78,0,0,0-1.11-.32l-1.28.9A1.47,1.47,0,0,1,470,1278.6Z" transform="translate(-79.75 -1070.98)"/><path class="cls-8" d="M474.57,1285.27l-3.16,4.28a1,1,0,0,0,0,1.2,7.57,7.57,0,0,0,1.89,1.59,1,1,0,0,0,1.18-.24l3.66-3.86a1.46,1.46,0,0,1,1.15.09l1.11-1.11a0.77,0.77,0,0,0-.13-1.15l-2-1.64-2-1.64a0.77,0.77,0,0,0-1.15.08l-0.9,1.28A1.46,1.46,0,0,1,474.57,1285.27Z" transform="translate(-79.75 -1070.98)"/><path class="cls-8" d="M481.14,1290l-1.51,5.1a1,1,0,0,0,.38,1.14,7.47,7.47,0,0,0,2.32.85,1,1,0,0,0,1-.63l2.12-4.88a1.46,1.46,0,0,1,1.11-.31l0.67-1.42a0.77,0.77,0,0,0-.51-1l-2.4-.87-2.4-.87a0.77,0.77,0,0,0-1.06.47l-0.4,1.51A1.44,1.44,0,0,1,481.14,1290Z" transform="translate(-79.75 -1070.98)"/><path class="cls-8" d="M488.92,1292.18c0,0.4.33,5.31,0.33,5.31a1,1,0,0,0,.75.94,7.5,7.5,0,0,0,2.47,0,1,1,0,0,0,.75-0.94s0.3-4.91.33-5.31a1.46,1.46,0,0,1,.94-0.67l0.14-1.56a0.77,0.77,0,0,0-.84-0.8h-5.1a0.77,0.77,0,0,0-.83.8l0.14,1.56A1.45,1.45,0,0,1,488.92,1292.18Z" transform="translate(-79.75 -1070.98)"/><path class="cls-8" d="M497,1291.57l2.12,4.88a1,1,0,0,0,1,.63,7.48,7.48,0,0,0,2.33-.84,1,1,0,0,0,.38-1.14l-1.51-5.1a1.46,1.46,0,0,1,.65-1l-0.4-1.51a0.77,0.77,0,0,0-1.06-.47l-2.4.87-2.4.87a0.77,0.77,0,0,0-.51,1l0.66,1.42A1.45,1.45,0,0,1,497,1291.57Z" transform="translate(-79.75 -1070.98)"/><path class="cls-8" d="M504.34,1288.25l3.66,3.86a1,1,0,0,0,1.18.24,7.58,7.58,0,0,0,1.89-1.59,1,1,0,0,0,0-1.2l-3.16-4.28a1.47,1.47,0,0,1,.28-1.12l-0.9-1.28a0.77,0.77,0,0,0-1.15-.08l-2,1.64-2,1.64a0.78,0.78,0,0,0-.12,1.15l1.11,1.11A1.46,1.46,0,0,1,504.34,1288.25Z" transform="translate(-79.75 -1070.98)"/><path class="cls-8" d="M510.13,1282.6l4.76,2.37a1,1,0,0,0,1.19-.18,7.55,7.55,0,0,0,1.24-2.14,1,1,0,0,0-.44-1.12l-4.43-2.94a1.46,1.46,0,0,1-.11-1.15l-1.28-.9a0.77,0.77,0,0,0-1.11.32l-1.27,2.21-1.28,2.21a0.77,0.77,0,0,0,.28,1.12l1.42,0.66A1.46,1.46,0,0,1,510.13,1282.6Z" transform="translate(-79.75 -1070.98)"/><path class="cls-8" d="M513.63,1275.32l5.29,0.6a1,1,0,0,0,1.06-.57,7.52,7.52,0,0,0,.43-2.44,1,1,0,0,0-.8-0.9l-5.17-1.25a1.45,1.45,0,0,1-.5-1l-1.51-.41a0.77,0.77,0,0,0-.93.68l-0.44,2.51L510.6,1275a0.77,0.77,0,0,0,.64,1l1.56,0.14A1.46,1.46,0,0,1,513.63,1275.32Z" transform="translate(-79.75 -1070.98)"/><path class="cls-8" d="M514.43,1267.28l5.17-1.24a1,1,0,0,0,.8-0.9,7.56,7.56,0,0,0-.43-2.44,1,1,0,0,0-1.06-.57l-5.29.6a1.45,1.45,0,0,1-.82-0.81l-1.56.13a0.77,0.77,0,0,0-.65,1l0.44,2.51c0.18,1,.27,1.51.44,2.51a0.77,0.77,0,0,0,.94.68l1.51-.41A1.44,1.44,0,0,1,514.43,1267.28Z" transform="translate(-79.75 -1070.98)"/><path class="cls-8" d="M512.44,1259.45l4.43-2.94a1,1,0,0,0,.44-1.12,7.6,7.6,0,0,0-1.24-2.14,1,1,0,0,0-1.19-.18l-4.76,2.37a1.47,1.47,0,0,1-1.05-.48l-1.42.66a0.77,0.77,0,0,0-.27,1.12l1.27,2.21,1.27,2.21a0.78,0.78,0,0,0,1.11.32l1.28-.9A1.46,1.46,0,0,1,512.44,1259.45Z" transform="translate(-79.75 -1070.98)"/><path class="cls-8" d="M507.88,1252.77l3.16-4.28a1,1,0,0,0,0-1.2,7.58,7.58,0,0,0-1.9-1.59,1,1,0,0,0-1.18.24l-3.66,3.86a1.46,1.46,0,0,1-1.15-.09l-1.11,1.11a0.77,0.77,0,0,0,.13,1.15l2,1.64,2,1.64a0.77,0.77,0,0,0,1.15-.08l0.9-1.28A1.47,1.47,0,0,1,507.88,1252.77Z" transform="translate(-79.75 -1070.98)"/><path class="cls-8" d="M501.32,1248.06l1.51-5.1a1,1,0,0,0-.38-1.14,7.48,7.48,0,0,0-2.32-.85,1,1,0,0,0-1,.63l-2.12,4.88a1.46,1.46,0,0,1-1.11.31l-0.67,1.42a0.77,0.77,0,0,0,.51,1l2.4,0.87,2.4,0.88a0.77,0.77,0,0,0,1.06-.47L502,1249A1.45,1.45,0,0,1,501.32,1248.06Z" transform="translate(-79.75 -1070.98)"/><path class="cls-9" d="M570.38,1266a22.93,22.93,0,1,1-22.93-22.93A22.93,22.93,0,0,1,570.38,1266Zm-22.93-16.63A16.63,16.63,0,1,0,564.08,1266,16.63,16.63,0,0,0,547.45,1249.39Z" transform="translate(-79.75 -1070.98)"/><path class="cls-9" d="M549.78,1242.62c0-.4-0.33-5.37-0.33-5.37a1,1,0,0,0-.75-1,7.56,7.56,0,0,0-2.5,0,1,1,0,0,0-.75,1l-0.33,5.37a1.47,1.47,0,0,1-.95.68l-0.14,1.58a0.78,0.78,0,0,0,.84.81H550a0.78,0.78,0,0,0,.84-0.81c-0.06-.63-0.08-0.95-0.14-1.58A1.47,1.47,0,0,1,549.78,1242.62Z" transform="translate(-79.75 -1070.98)"/><path class="cls-9" d="M541.64,1243.23l-2.15-4.93a1,1,0,0,0-1-.64,7.53,7.53,0,0,0-2.35.86,1,1,0,0,0-.38,1.15l1.53,5.16a1.49,1.49,0,0,1-.66,1l0.41,1.53a0.78,0.78,0,0,0,1.07.47l2.43-.88,2.42-.88a0.78,0.78,0,0,0,.52-1l-0.67-1.43A1.47,1.47,0,0,1,541.64,1243.23Z" transform="translate(-79.75 -1070.98)"/><path class="cls-9" d="M534.19,1246.59l-3.7-3.9a1,1,0,0,0-1.19-.24,7.7,7.7,0,0,0-1.92,1.61,1,1,0,0,0,0,1.21l3.19,4.32a1.48,1.48,0,0,1-.29,1.13l0.91,1.3a0.78,0.78,0,0,0,1.17.08l2-1.66,2-1.66a0.78,0.78,0,0,0,.13-1.16l-1.12-1.12A1.48,1.48,0,0,1,534.19,1246.59Z" transform="translate(-79.75 -1070.98)"/><path class="cls-9" d="M528.34,1252.29l-4.81-2.39a1,1,0,0,0-1.2.18,7.64,7.64,0,0,0-1.25,2.17,1,1,0,0,0,.45,1.13l4.48,3a1.47,1.47,0,0,1,.12,1.16l1.29,0.91a0.78,0.78,0,0,0,1.12-.33l1.29-2.23,1.29-2.23a0.78,0.78,0,0,0-.28-1.14l-1.43-.67A1.46,1.46,0,0,1,528.34,1252.29Z" transform="translate(-79.75 -1070.98)"/><path class="cls-9" d="M524.8,1259.66l-5.35-.61a1,1,0,0,0-1.07.58,7.62,7.62,0,0,0-.43,2.47,1,1,0,0,0,.81.91l5.23,1.26a1.47,1.47,0,0,1,.51,1l1.53,0.41A0.78,0.78,0,0,0,527,1265l0.45-2.54c0.18-1,.27-1.52.45-2.54a0.78,0.78,0,0,0-.65-1l-1.57-.14A1.48,1.48,0,0,1,524.8,1259.66Z" transform="translate(-79.75 -1070.98)"/><path class="cls-9" d="M524,1267.78l-5.23,1.26a1,1,0,0,0-.81.91,7.63,7.63,0,0,0,.43,2.46,1,1,0,0,0,1.07.58l5.34-.6a1.47,1.47,0,0,1,.84.81l1.58-.14a0.78,0.78,0,0,0,.65-1l-0.45-2.54L527,1267a0.78,0.78,0,0,0-.94-0.69l-1.53.41A1.47,1.47,0,0,1,524,1267.78Z" transform="translate(-79.75 -1070.98)"/><path class="cls-9" d="M526,1275.7l-4.48,3a1,1,0,0,0-.45,1.13,7.61,7.61,0,0,0,1.25,2.17,1,1,0,0,0,1.2.18l4.81-2.4a1.47,1.47,0,0,1,1.06.48l1.43-.67a0.78,0.78,0,0,0,.28-1.14l-1.29-2.23-1.29-2.23a0.78,0.78,0,0,0-1.12-.33l-1.3.91A1.49,1.49,0,0,1,526,1275.7Z" transform="translate(-79.75 -1070.98)"/><path class="cls-9" d="M530.61,1282.45l-3.19,4.32a1,1,0,0,0,0,1.22,7.65,7.65,0,0,0,1.92,1.61,1,1,0,0,0,1.19-.24l3.7-3.9a1.47,1.47,0,0,1,1.16.09l1.12-1.12a0.78,0.78,0,0,0-.13-1.16l-2-1.66-2-1.66a0.78,0.78,0,0,0-1.17.08l-0.91,1.3A1.48,1.48,0,0,1,530.61,1282.45Z" transform="translate(-79.75 -1070.98)"/><path class="cls-9" d="M537.24,1287.22l-1.52,5.16a1,1,0,0,0,.38,1.15,7.55,7.55,0,0,0,2.35.85,1,1,0,0,0,1-.64l2.15-4.93a1.48,1.48,0,0,1,1.12-.32l0.67-1.43a0.78,0.78,0,0,0-.52-1l-2.42-.88-2.42-.88a0.78,0.78,0,0,0-1.07.47l-0.41,1.53A1.46,1.46,0,0,1,537.24,1287.22Z" transform="translate(-79.75 -1070.98)"/><path class="cls-9" d="M545.11,1289.43c0,0.41.33,5.37,0.33,5.37a1,1,0,0,0,.76,1,7.58,7.58,0,0,0,2.5,0,1,1,0,0,0,.75-1s0.31-5,.33-5.37a1.48,1.48,0,0,1,.95-0.68l0.14-1.58a0.78,0.78,0,0,0-.84-0.81h-5.16a0.78,0.78,0,0,0-.84.81l0.14,1.58A1.47,1.47,0,0,1,545.11,1289.43Z" transform="translate(-79.75 -1070.98)"/><path class="cls-9" d="M553.25,1288.82l2.15,4.93a1,1,0,0,0,1,.64,7.57,7.57,0,0,0,2.35-.85,1,1,0,0,0,.38-1.15l-1.53-5.16a1.48,1.48,0,0,1,.66-1l-0.41-1.53a0.78,0.78,0,0,0-1.07-.47l-2.42.88L552,1286a0.78,0.78,0,0,0-.52,1l0.67,1.43A1.47,1.47,0,0,1,553.25,1288.82Z" transform="translate(-79.75 -1070.98)"/><path class="cls-9" d="M560.7,1285.45l3.7,3.9a1,1,0,0,0,1.19.24,7.66,7.66,0,0,0,1.91-1.61,1,1,0,0,0,0-1.22l-3.2-4.32a1.48,1.48,0,0,1,.29-1.13l-0.91-1.3a0.78,0.78,0,0,0-1.16-.08l-2,1.66-2,1.66a0.78,0.78,0,0,0-.13,1.16l1.12,1.12A1.48,1.48,0,0,1,560.7,1285.45Z" transform="translate(-79.75 -1070.98)"/><path class="cls-9" d="M566.55,1279.75l4.82,2.4a1,1,0,0,0,1.2-.18,7.63,7.63,0,0,0,1.25-2.17,1,1,0,0,0-.45-1.13l-4.48-3a1.48,1.48,0,0,1-.12-1.16l-1.29-.91a0.78,0.78,0,0,0-1.12.33l-1.29,2.23-1.29,2.23a0.78,0.78,0,0,0,.28,1.14l1.44,0.67A1.47,1.47,0,0,1,566.55,1279.75Z" transform="translate(-79.75 -1070.98)"/><path class="cls-9" d="M570.09,1272.39l5.34,0.6a1,1,0,0,0,1.07-.58,7.6,7.6,0,0,0,.44-2.46,1,1,0,0,0-.81-0.91l-5.23-1.26a1.47,1.47,0,0,1-.51-1.05l-1.53-.41a0.78,0.78,0,0,0-.94.69l-0.45,2.54-0.45,2.54a0.78,0.78,0,0,0,.65,1l1.58,0.14A1.48,1.48,0,0,1,570.09,1272.39Z" transform="translate(-79.75 -1070.98)"/><path class="cls-9" d="M570.9,1264.26l5.23-1.26a1,1,0,0,0,.81-0.91,7.64,7.64,0,0,0-.44-2.47,1,1,0,0,0-1.07-.58l-5.34.61a1.47,1.47,0,0,1-.83-0.82l-1.58.14a0.78,0.78,0,0,0-.65,1l0.45,2.54c0.18,1,.27,1.52.45,2.54a0.78,0.78,0,0,0,.95.69l1.53-.41A1.45,1.45,0,0,1,570.9,1264.26Z" transform="translate(-79.75 -1070.98)"/><path class="cls-9" d="M568.88,1256.34l4.48-3a1,1,0,0,0,.45-1.13,7.68,7.68,0,0,0-1.25-2.17,1,1,0,0,0-1.2-.18l-4.82,2.4a1.48,1.48,0,0,1-1.06-.48l-1.44.67a0.78,0.78,0,0,0-.28,1.14l1.29,2.23,1.29,2.23a0.79,0.79,0,0,0,1.13.33l1.29-.91A1.47,1.47,0,0,1,568.88,1256.34Z" transform="translate(-79.75 -1070.98)"/><path class="cls-9" d="M564.28,1249.59l3.2-4.32a1,1,0,0,0,0-1.22,7.67,7.67,0,0,0-1.92-1.61,1,1,0,0,0-1.19.24l-3.7,3.9a1.48,1.48,0,0,1-1.16-.09l-1.12,1.12a0.78,0.78,0,0,0,.13,1.16l2,1.66,2,1.66a0.78,0.78,0,0,0,1.17-.08l0.91-1.3A1.48,1.48,0,0,1,564.28,1249.59Z" transform="translate(-79.75 -1070.98)"/><path class="cls-9" d="M557.65,1244.83l1.52-5.16a1,1,0,0,0-.38-1.15,7.56,7.56,0,0,0-2.35-.86,1,1,0,0,0-1,.64l-2.15,4.93a1.47,1.47,0,0,1-1.12.32l-0.67,1.43A0.78,0.78,0,0,0,552,1246l2.42,0.88,2.42,0.88a0.78,0.78,0,0,0,1.07-.47l0.41-1.53A1.47,1.47,0,0,1,557.65,1244.83Z" transform="translate(-79.75 -1070.98)"/><path class="cls-9" d="M495.94,1211.63a21.34,21.34,0,1,1-21.34-21.34A21.34,21.34,0,0,1,495.94,1211.63Zm-21.34-15.47a15.47,15.47,0,1,0,15.48,15.47A15.48,15.48,0,0,0,474.6,1196.16Z" transform="translate(-79.75 -1070.98)"/><path class="cls-9" d="M476.77,1189.86l-0.31-5a0.94,0.94,0,0,0-.7-0.88,7,7,0,0,0-2.33,0,0.94,0.94,0,0,0-.7.88l-0.31,5a1.37,1.37,0,0,1-.88.63l-0.13,1.47a0.73,0.73,0,0,0,.79.75H477a0.73,0.73,0,0,0,.79-0.75c-0.05-.59-0.08-0.88-0.13-1.47A1.37,1.37,0,0,1,476.77,1189.86Z" transform="translate(-79.75 -1070.98)"/><path class="cls-9" d="M469.19,1190.43l-2-4.59a1,1,0,0,0-1-.59,7,7,0,0,0-2.19.8,0.94,0.94,0,0,0-.36,1.07l1.42,4.8a1.38,1.38,0,0,1-.61.9l0.38,1.42a0.73,0.73,0,0,0,1,.44l2.26-.82,2.26-.82a0.73,0.73,0,0,0,.48-1l-0.62-1.33A1.37,1.37,0,0,1,469.19,1190.43Z" transform="translate(-79.75 -1070.98)"/><path class="cls-9" d="M462.27,1193.55l-3.45-3.63a1,1,0,0,0-1.11-.23,7.16,7.16,0,0,0-1.78,1.5,1,1,0,0,0,0,1.13l3,4a1.37,1.37,0,0,1-.27,1.05l0.84,1.21a0.73,0.73,0,0,0,1.08.07l1.84-1.54,1.84-1.54a0.73,0.73,0,0,0,.12-1.08l-1-1A1.37,1.37,0,0,1,462.27,1193.55Z" transform="translate(-79.75 -1070.98)"/><path class="cls-9" d="M456.82,1198.86l-4.48-2.23a0.94,0.94,0,0,0-1.12.16,7.11,7.11,0,0,0-1.17,2,1,1,0,0,0,.42,1.05l4.17,2.76a1.37,1.37,0,0,1,.11,1.08l1.2,0.85a0.73,0.73,0,0,0,1-.3l1.2-2.08,1.2-2.08a0.73,0.73,0,0,0-.26-1.06l-1.33-.62A1.36,1.36,0,0,1,456.82,1198.86Z" transform="translate(-79.75 -1070.98)"/><path class="cls-9" d="M453.53,1205.71l-5-.56a1,1,0,0,0-1,.54,7.09,7.09,0,0,0-.4,2.29,0.94,0.94,0,0,0,.75.84l4.87,1.17a1.37,1.37,0,0,1,.47,1l1.42,0.38a0.73,0.73,0,0,0,.88-0.64l0.42-2.36,0.42-2.36a0.73,0.73,0,0,0-.61-0.9l-1.47-.13A1.38,1.38,0,0,1,453.53,1205.71Z" transform="translate(-79.75 -1070.98)"/><path class="cls-9" d="M452.77,1213.27l-4.87,1.17a1,1,0,0,0-.75.85,7.1,7.1,0,0,0,.4,2.29,1,1,0,0,0,1,.54l5-.56a1.37,1.37,0,0,1,.78.76l1.47-.13a0.72,0.72,0,0,0,.61-0.9l-0.41-2.36-0.42-2.36a0.73,0.73,0,0,0-.88-0.64l-1.42.38A1.37,1.37,0,0,1,452.77,1213.27Z" transform="translate(-79.75 -1070.98)"/><path class="cls-9" d="M454.65,1220.64l-4.17,2.76a1,1,0,0,0-.42,1.05,7.08,7.08,0,0,0,1.17,2,0.94,0.94,0,0,0,1.12.17l4.48-2.23a1.37,1.37,0,0,1,1,.45l1.33-.62a0.73,0.73,0,0,0,.26-1.06l-1.2-2.08L457,1219a0.73,0.73,0,0,0-1-.3l-1.21.85A1.38,1.38,0,0,1,454.65,1220.64Z" transform="translate(-79.75 -1070.98)"/><path class="cls-9" d="M458.93,1226.92l-3,4a1,1,0,0,0,0,1.13,7.12,7.12,0,0,0,1.78,1.5,1,1,0,0,0,1.11-.23l3.45-3.63a1.37,1.37,0,0,1,1.08.08l1-1a0.73,0.73,0,0,0-.12-1.08l-1.84-1.54-1.84-1.54a0.72,0.72,0,0,0-1.08.07l-0.84,1.21A1.38,1.38,0,0,1,458.93,1226.92Z" transform="translate(-79.75 -1070.98)"/><path class="cls-9" d="M465.1,1231.36l-1.42,4.8a1,1,0,0,0,.36,1.07,7,7,0,0,0,2.19.8,0.94,0.94,0,0,0,1-.59l2-4.59a1.37,1.37,0,0,1,1-.29l0.63-1.33a0.73,0.73,0,0,0-.48-1l-2.26-.82-2.26-.82a0.73,0.73,0,0,0-1,.44l-0.38,1.42A1.36,1.36,0,0,1,465.1,1231.36Z" transform="translate(-79.75 -1070.98)"/><path class="cls-9" d="M472.42,1233.41c0,0.38.31,5,.31,5a1,1,0,0,0,.7.89,7.05,7.05,0,0,0,2.33,0,0.94,0.94,0,0,0,.7-0.89s0.28-4.62.31-5a1.37,1.37,0,0,1,.88-0.63l0.13-1.47a0.73,0.73,0,0,0-.79-0.76h-4.8a0.73,0.73,0,0,0-.79.76l0.13,1.47A1.37,1.37,0,0,1,472.42,1233.41Z" transform="translate(-79.75 -1070.98)"/><path class="cls-9" d="M480,1232.84l2,4.59a0.94,0.94,0,0,0,1,.59,7,7,0,0,0,2.19-.79,1,1,0,0,0,.36-1.07l-1.42-4.8a1.38,1.38,0,0,1,.61-0.9l-0.38-1.42a0.72,0.72,0,0,0-1-.44l-2.26.82-2.25.82a0.73,0.73,0,0,0-.48,1l0.62,1.34A1.37,1.37,0,0,1,480,1232.84Z" transform="translate(-79.75 -1070.98)"/><path class="cls-9" d="M486.93,1229.72l3.45,3.63a1,1,0,0,0,1.11.23,7.13,7.13,0,0,0,1.78-1.5,1,1,0,0,0,0-1.13l-3-4a1.38,1.38,0,0,1,.27-1.05l-0.84-1.21a0.72,0.72,0,0,0-1.08-.07l-1.84,1.54-1.84,1.54a0.73,0.73,0,0,0-.12,1.08l1,1A1.38,1.38,0,0,1,486.93,1229.72Z" transform="translate(-79.75 -1070.98)"/><path class="cls-9" d="M492.37,1224.41l4.48,2.23a1,1,0,0,0,1.12-.17,7.1,7.1,0,0,0,1.16-2,1,1,0,0,0-.42-1.05l-4.17-2.76a1.38,1.38,0,0,1-.11-1.08l-1.2-.85a0.73,0.73,0,0,0-1,.3l-1.2,2.08-1.2,2.08a0.73,0.73,0,0,0,.26,1.06l1.34,0.62A1.37,1.37,0,0,1,492.37,1224.41Z" transform="translate(-79.75 -1070.98)"/><path class="cls-9" d="M495.67,1217.56l5,0.56a1,1,0,0,0,1-.54,7.07,7.07,0,0,0,.4-2.29,1,1,0,0,0-.75-0.84l-4.86-1.17a1.37,1.37,0,0,1-.47-1l-1.42-.38a0.73,0.73,0,0,0-.88.64l-0.42,2.36-0.42,2.36a0.73,0.73,0,0,0,.6.9l1.47,0.13A1.37,1.37,0,0,1,495.67,1217.56Z" transform="translate(-79.75 -1070.98)"/><path class="cls-9" d="M496.43,1210l4.87-1.17A1,1,0,0,0,502,1208a7.11,7.11,0,0,0-.41-2.3,1,1,0,0,0-1-.54l-5,.56a1.36,1.36,0,0,1-.78-0.76l-1.47.13a0.73,0.73,0,0,0-.61.9l0.42,2.36c0.17,0.95.25,1.42,0.42,2.37a0.73,0.73,0,0,0,.88.64L496,1211A1.35,1.35,0,0,1,496.43,1210Z" transform="translate(-79.75 -1070.98)"/><path class="cls-9" d="M494.55,1202.63l4.17-2.77a1,1,0,0,0,.42-1.05,7.15,7.15,0,0,0-1.16-2,0.94,0.94,0,0,0-1.12-.16l-4.48,2.23a1.38,1.38,0,0,1-1-.45L490,1199a0.73,0.73,0,0,0-.26,1.06l1.2,2.08,1.2,2.08a0.73,0.73,0,0,0,1,.3l1.2-.85A1.37,1.37,0,0,1,494.55,1202.63Z" transform="translate(-79.75 -1070.98)"/><path class="cls-9" d="M490.26,1196.35l3-4a1,1,0,0,0,0-1.13,7.13,7.13,0,0,0-1.78-1.5,1,1,0,0,0-1.11.23l-3.45,3.63a1.38,1.38,0,0,1-1.08-.08l-1,1a0.73,0.73,0,0,0,.12,1.08l1.84,1.54,1.84,1.54a0.73,0.73,0,0,0,1.08-.07l0.84-1.21A1.38,1.38,0,0,1,490.26,1196.35Z" transform="translate(-79.75 -1070.98)"/><path class="cls-9" d="M484.09,1191.91l1.42-4.8a1,1,0,0,0-.36-1.07,7,7,0,0,0-2.19-.8,1,1,0,0,0-1,.59l-2,4.59a1.37,1.37,0,0,1-1,.29l-0.63,1.33a0.73,0.73,0,0,0,.48,1l2.25,0.82,2.25,0.82a0.73,0.73,0,0,0,1-.44l0.38-1.42A1.37,1.37,0,0,1,484.09,1191.91Z" transform="translate(-79.75 -1070.98)"/><path class="cls-9" d="M550.45,1214.16a21.82,21.82,0,1,1-21.82-21.82A21.83,21.83,0,0,1,550.45,1214.16Zm-21.82-15.83a15.83,15.83,0,1,0,15.83,15.82A15.83,15.83,0,0,0,528.62,1198.33Z" transform="translate(-79.75 -1070.98)"/><path class="cls-9" d="M530.84,1191.88l-0.32-5.11a1,1,0,0,0-.72-0.9,7.2,7.2,0,0,0-2.38,0,1,1,0,0,0-.72.9l-0.32,5.11a1.4,1.4,0,0,1-.9.65l-0.13,1.5a0.74,0.74,0,0,0,.8.77h4.91a0.74,0.74,0,0,0,.8-0.77c-0.05-.6-0.08-0.9-0.13-1.5A1.4,1.4,0,0,1,530.84,1191.88Z" transform="translate(-79.75 -1070.98)"/><path class="cls-9" d="M523.09,1192.47l-2-4.69a1,1,0,0,0-1-.61,7.17,7.17,0,0,0-2.24.82,1,1,0,0,0-.37,1.1l1.45,4.91a1.41,1.41,0,0,1-.63.92l0.39,1.46a0.74,0.74,0,0,0,1,.45L522,1196l2.31-.84a0.74,0.74,0,0,0,.49-1l-0.64-1.36A1.4,1.4,0,0,1,523.09,1192.47Z" transform="translate(-79.75 -1070.98)"/><path class="cls-9" d="M516,1195.67l-3.52-3.71a1,1,0,0,0-1.14-.23,7.33,7.33,0,0,0-1.82,1.53,1,1,0,0,0,0,1.16l3,4.12a1.41,1.41,0,0,1-.27,1.08l0.86,1.23a0.74,0.74,0,0,0,1.11.08l1.88-1.58,1.88-1.58a0.75,0.75,0,0,0,.12-1.11l-1.07-1.06A1.4,1.4,0,0,1,516,1195.67Z" transform="translate(-79.75 -1070.98)"/><path class="cls-9" d="M510.44,1201.1l-4.58-2.28a1,1,0,0,0-1.14.17,7.27,7.27,0,0,0-1.19,2.06,1,1,0,0,0,.43,1.07l4.27,2.83a1.4,1.4,0,0,1,.11,1.11l1.23,0.87a0.74,0.74,0,0,0,1.07-.31l1.23-2.12,1.23-2.13a0.75,0.75,0,0,0-.27-1.08l-1.36-.63A1.39,1.39,0,0,1,510.44,1201.1Z" transform="translate(-79.75 -1070.98)"/><path class="cls-9" d="M507.07,1208.1l-5.09-.58a1,1,0,0,0-1,.55,7.25,7.25,0,0,0-.41,2.35,1,1,0,0,0,.77.86l5,1.2a1.4,1.4,0,0,1,.48,1l1.45,0.39a0.74,0.74,0,0,0,.9-0.66l0.43-2.42,0.43-2.42a0.74,0.74,0,0,0-.62-0.92l-1.5-.13A1.41,1.41,0,0,1,507.07,1208.1Z" transform="translate(-79.75 -1070.98)"/><path class="cls-9" d="M506.3,1215.84l-5,1.2a1,1,0,0,0-.77.87,7.26,7.26,0,0,0,.41,2.35,1,1,0,0,0,1,.55l5.09-.58a1.4,1.4,0,0,1,.8.78l1.5-.13a0.74,0.74,0,0,0,.62-0.92l-0.42-2.42-0.43-2.42a0.74,0.74,0,0,0-.9-0.66l-1.45.39A1.4,1.4,0,0,1,506.3,1215.84Z" transform="translate(-79.75 -1070.98)"/><path class="cls-9" d="M508.22,1223.37L504,1226.2a1,1,0,0,0-.43,1.07,7.25,7.25,0,0,0,1.19,2.06,1,1,0,0,0,1.14.17l4.58-2.28a1.4,1.4,0,0,1,1,.46l1.36-.63a0.74,0.74,0,0,0,.27-1.08l-1.23-2.13-1.23-2.13a0.75,0.75,0,0,0-1.07-.31l-1.23.87A1.42,1.42,0,0,1,508.22,1223.37Z" transform="translate(-79.75 -1070.98)"/><path class="cls-9" d="M512.6,1229.79l-3,4.12a1,1,0,0,0,0,1.16,7.28,7.28,0,0,0,1.82,1.53,1,1,0,0,0,1.14-.23l3.52-3.71a1.4,1.4,0,0,1,1.11.08l1.07-1.06a0.74,0.74,0,0,0-.12-1.11l-1.88-1.58-1.88-1.58a0.74,0.74,0,0,0-1.11.08l-0.86,1.23A1.41,1.41,0,0,1,512.6,1229.79Z" transform="translate(-79.75 -1070.98)"/><path class="cls-9" d="M518.91,1234.33l-1.45,4.91a1,1,0,0,0,.37,1.1,7.19,7.19,0,0,0,2.24.81,1,1,0,0,0,1-.61l2-4.69a1.41,1.41,0,0,1,1.07-.3l0.64-1.36a0.74,0.74,0,0,0-.49-1l-2.31-.84-2.31-.84a0.74,0.74,0,0,0-1,.45l-0.39,1.46A1.39,1.39,0,0,1,518.91,1234.33Z" transform="translate(-79.75 -1070.98)"/><path class="cls-9" d="M526.4,1236.43c0,0.39.31,5.11,0.31,5.11a1,1,0,0,0,.72.91,7.21,7.21,0,0,0,2.38,0,1,1,0,0,0,.72-0.91s0.29-4.73.32-5.11a1.4,1.4,0,0,1,.9-0.65l0.13-1.5a0.74,0.74,0,0,0-.8-0.77h-4.91a0.74,0.74,0,0,0-.8.77l0.13,1.5A1.4,1.4,0,0,1,526.4,1236.43Z" transform="translate(-79.75 -1070.98)"/><path class="cls-9" d="M534.15,1235.85l2,4.69a1,1,0,0,0,1,.61,7.2,7.2,0,0,0,2.24-.81,1,1,0,0,0,.37-1.1l-1.45-4.91a1.41,1.41,0,0,1,.63-0.92l-0.39-1.46a0.74,0.74,0,0,0-1-.45l-2.31.84-2.31.84a0.74,0.74,0,0,0-.49,1l0.64,1.37A1.4,1.4,0,0,1,534.15,1235.85Z" transform="translate(-79.75 -1070.98)"/><path class="cls-9" d="M541.24,1232.65l3.52,3.71a1,1,0,0,0,1.13.23,7.29,7.29,0,0,0,1.82-1.53,1,1,0,0,0,0-1.16l-3-4.12a1.41,1.41,0,0,1,.27-1.08l-0.86-1.23a0.74,0.74,0,0,0-1.11-.08l-1.88,1.58-1.88,1.58a0.75,0.75,0,0,0-.12,1.11l1.07,1.06A1.41,1.41,0,0,1,541.24,1232.65Z" transform="translate(-79.75 -1070.98)"/><path class="cls-9" d="M546.8,1227.22l4.58,2.28a1,1,0,0,0,1.14-.17,7.26,7.26,0,0,0,1.19-2.06,1,1,0,0,0-.43-1.07l-4.26-2.83a1.41,1.41,0,0,1-.11-1.11l-1.23-.87a0.74,0.74,0,0,0-1.07.31l-1.23,2.13-1.23,2.13a0.75,0.75,0,0,0,.26,1.08l1.37,0.63A1.4,1.4,0,0,1,546.8,1227.22Z" transform="translate(-79.75 -1070.98)"/><path class="cls-9" d="M550.17,1220.22l5.09,0.58a1,1,0,0,0,1-.55,7.23,7.23,0,0,0,.41-2.35,1,1,0,0,0-.77-0.86l-5-1.2a1.4,1.4,0,0,1-.48-1l-1.45-.39a0.74,0.74,0,0,0-.9.66l-0.43,2.42-0.43,2.42a0.74,0.74,0,0,0,.62.92l1.5,0.13A1.4,1.4,0,0,1,550.17,1220.22Z" transform="translate(-79.75 -1070.98)"/><path class="cls-9" d="M550.94,1212.48l5-1.2a1,1,0,0,0,.77-0.87,7.27,7.27,0,0,0-.41-2.35,1,1,0,0,0-1-.55l-5.09.58a1.39,1.39,0,0,1-.79-0.78l-1.5.13a0.74,0.74,0,0,0-.62.92l0.42,2.42c0.17,1,.26,1.45.43,2.42a0.74,0.74,0,0,0,.9.66l1.45-.39A1.38,1.38,0,0,1,550.94,1212.48Z" transform="translate(-79.75 -1070.98)"/><path class="cls-9" d="M549,1204.95l4.26-2.83a1,1,0,0,0,.43-1.07,7.31,7.31,0,0,0-1.19-2.06,1,1,0,0,0-1.14-.17l-4.58,2.28a1.41,1.41,0,0,1-1-.46l-1.37.64a0.74,0.74,0,0,0-.26,1.08l1.23,2.12,1.23,2.13a0.75,0.75,0,0,0,1.07.31l1.23-.87A1.4,1.4,0,0,1,549,1204.95Z" transform="translate(-79.75 -1070.98)"/><path class="cls-9" d="M544.64,1198.52l3-4.11a1,1,0,0,0,0-1.16,7.3,7.3,0,0,0-1.82-1.53,1,1,0,0,0-1.13.23l-3.52,3.71a1.41,1.41,0,0,1-1.11-.08l-1.07,1.06a0.74,0.74,0,0,0,.12,1.11l1.88,1.58,1.88,1.58a0.74,0.74,0,0,0,1.11-.07l0.86-1.23A1.41,1.41,0,0,1,544.64,1198.52Z" transform="translate(-79.75 -1070.98)"/><path class="cls-9" d="M538.33,1194l1.45-4.91a1,1,0,0,0-.37-1.1,7.19,7.19,0,0,0-2.24-.82,1,1,0,0,0-1,.61l-2,4.69a1.4,1.4,0,0,1-1.07.3l-0.64,1.36a0.74,0.74,0,0,0,.49,1l2.31,0.84,2.31,0.84a0.74,0.74,0,0,0,1-.45l0.39-1.46A1.4,1.4,0,0,1,538.33,1194Z" transform="translate(-79.75 -1070.98)"/><path class="cls-10" d="M228.31,1266.48a65,65,0,1,1-65-65A65,65,0,0,1,228.31,1266.48Zm-65-47.12a47.12,47.12,0,1,0,47.13,47.12A47.13,47.13,0,0,0,163.33,1219.36Z" transform="translate(-79.75 -1070.98)"/><path class="cls-10" d="M170,1200.16c-0.07-1.14-.94-15.21-0.94-15.21a2.87,2.87,0,0,0-2.14-2.69,21.42,21.42,0,0,0-7.09,0,2.88,2.88,0,0,0-2.14,2.69s-0.87,14.07-.94,15.21-2.68,1.93-2.68,1.93c-0.16,1.78-.24,2.68-0.39,4.47a2.22,2.22,0,0,0,2.39,2.3h14.62a2.21,2.21,0,0,0,2.39-2.3c-0.16-1.79-.24-2.68-0.39-4.47C172.63,1202.09,170,1201.3,170,1200.16Z" transform="translate(-79.75 -1070.98)"/><path class="cls-10" d="M146.87,1201.89l-6.08-14a2.89,2.89,0,0,0-2.94-1.81,21.35,21.35,0,0,0-6.66,2.43,2.87,2.87,0,0,0-1.09,3.26s4,13.52,4.33,14.61-1.87,2.73-1.87,2.73c0.46,1.73.69,2.6,1.16,4.33a2.21,2.21,0,0,0,3,1.34l6.87-2.5,6.87-2.5a2.22,2.22,0,0,0,1.46-3l-1.9-4.06S147.32,1202.94,146.87,1201.89Z" transform="translate(-79.75 -1070.98)"/><path class="cls-10" d="M125.77,1211.42l-10.49-11a2.9,2.9,0,0,0-3.38-.69,21.81,21.81,0,0,0-5.43,4.56,2.88,2.88,0,0,0,.1,3.44l9.05,12.26c0.68,0.92-.81,3.21-0.81,3.21l2.57,3.67a2.21,2.21,0,0,0,3.3.23l5.6-4.7,5.6-4.7a2.22,2.22,0,0,0,.36-3.3l-3.18-3.16S126.55,1212.25,125.77,1211.42Z" transform="translate(-79.75 -1070.98)"/><path class="cls-10" d="M109.2,1227.58l-13.64-6.78a2.86,2.86,0,0,0-3.4.5,21.64,21.64,0,0,0-3.55,6.14,2.89,2.89,0,0,0,1.27,3.2l12.7,8.42c1,0.63.33,3.29,0.33,3.29l3.67,2.58a2.21,2.21,0,0,0,3.18-.93l3.66-6.33,3.66-6.33a2.22,2.22,0,0,0-.8-3.22l-4.06-1.89S110.22,1228.09,109.2,1227.58Z" transform="translate(-79.75 -1070.98)"/><path class="cls-10" d="M99.16,1248.45L84,1246.73a2.89,2.89,0,0,0-3,1.63,21.58,21.58,0,0,0-1.23,7,2.87,2.87,0,0,0,2.28,2.57l14.82,3.57c1.11,0.27,1.44,3,1.44,3l4.33,1.17a2.22,2.22,0,0,0,2.67-2c0.51-2.88.76-4.32,1.27-7.2s0.76-4.32,1.27-7.2a2.21,2.21,0,0,0-1.85-2.75l-4.46-.39S100.29,1248.57,99.16,1248.45Z" transform="translate(-79.75 -1070.98)"/><path class="cls-10" d="M96.86,1271.48L82,1275a2.89,2.89,0,0,0-2.29,2.58,21.62,21.62,0,0,0,1.23,7,2.88,2.88,0,0,0,3,1.63l15.15-1.71c1.14-.13,2.37,2.31,2.37,2.31l4.46-.38a2.21,2.21,0,0,0,1.84-2.75c-0.5-2.88-.76-4.32-1.26-7.2s-0.76-4.32-1.27-7.2a2.22,2.22,0,0,0-2.68-2l-4.33,1.16S98,1271.21,96.86,1271.48Z" transform="translate(-79.75 -1070.98)"/><path class="cls-10" d="M102.57,1293.92l-12.7,8.41a2.9,2.9,0,0,0-1.27,3.2,21.58,21.58,0,0,0,3.55,6.14,2.88,2.88,0,0,0,3.41.5l13.64-6.79c1-.51,3,1.36,3,1.36l4.06-1.89a2.21,2.21,0,0,0,.8-3.22l-3.66-6.33-3.65-6.33a2.22,2.22,0,0,0-3.18-.93l-3.67,2.58S103.53,1293.28,102.57,1293.92Z" transform="translate(-79.75 -1070.98)"/><path class="cls-10" d="M115.62,1313l-9.05,12.25a2.9,2.9,0,0,0-.1,3.44,21.69,21.69,0,0,0,5.43,4.55,2.9,2.9,0,0,0,3.38-.69l10.5-11c0.78-.83,3.3.25,3.3,0.25l3.18-3.17a2.22,2.22,0,0,0-.36-3.3l-5.6-4.7-5.61-4.7a2.2,2.2,0,0,0-3.3.22l-2.57,3.67S116.3,1312.12,115.62,1313Z" transform="translate(-79.75 -1070.98)"/><path class="cls-10" d="M134.42,1326.54c-0.32,1.1-4.32,14.61-4.32,14.61a2.9,2.9,0,0,0,1.09,3.27,21.4,21.4,0,0,0,6.66,2.42,2.87,2.87,0,0,0,2.93-1.8s5.63-12.92,6.09-14,3.18-.9,3.18-0.9c0.76-1.62,1.15-2.44,1.91-4.06a2.21,2.21,0,0,0-1.46-3l-6.87-2.51-6.87-2.5a2.21,2.21,0,0,0-3,1.34c-0.46,1.74-.7,2.6-1.15,4.33C132.56,1323.81,134.74,1325.44,134.42,1326.54Z" transform="translate(-79.75 -1070.98)"/><path class="cls-10" d="M156.7,1332.81c0.07,1.15.94,15.21,0.94,15.21a2.89,2.89,0,0,0,2.14,2.7,21.47,21.47,0,0,0,7.09,0A2.87,2.87,0,0,0,169,1348s0.87-14.07.94-15.21,2.68-1.93,2.68-1.93c0.16-1.79.24-2.68,0.39-4.47a2.22,2.22,0,0,0-2.39-2.3H156a2.22,2.22,0,0,0-2.39,2.3c0.16,1.79.24,2.68,0.39,4.47C154,1330.88,156.63,1331.66,156.7,1332.81Z" transform="translate(-79.75 -1070.98)"/><path class="cls-10" d="M179.79,1331.07l6.09,14a2.87,2.87,0,0,0,2.93,1.8,21.44,21.44,0,0,0,6.66-2.42,2.9,2.9,0,0,0,1.09-3.27l-4.33-14.61c-0.32-1.09,1.86-2.73,1.86-2.73-0.46-1.73-.69-2.6-1.16-4.33a2.21,2.21,0,0,0-3-1.34l-6.87,2.49-6.87,2.5a2.21,2.21,0,0,0-1.46,3c0.76,1.62,1.14,2.44,1.89,4.07C176.6,1330.18,179.33,1330,179.79,1331.07Z" transform="translate(-79.75 -1070.98)"/><path class="cls-10" d="M200.89,1321.55l10.49,11a2.89,2.89,0,0,0,3.38.69,21.72,21.72,0,0,0,5.43-4.55,2.9,2.9,0,0,0-.1-3.44L211,1313c-0.68-.92.81-3.21,0.81-3.21l-2.57-3.67a2.2,2.2,0,0,0-3.3-.22l-5.6,4.7-5.6,4.7a2.22,2.22,0,0,0-.36,3.3l3.17,3.17S200.1,1320.72,200.89,1321.55Z" transform="translate(-79.75 -1070.98)"/><path class="cls-10" d="M217.46,1305.38l13.65,6.79a2.88,2.88,0,0,0,3.41-.5,21.63,21.63,0,0,0,3.54-6.14,2.88,2.88,0,0,0-1.27-3.2l-12.7-8.41c-1-.64-0.33-3.3-0.33-3.3l-3.67-2.58a2.21,2.21,0,0,0-3.19.92l-3.65,6.33-3.66,6.33a2.22,2.22,0,0,0,.79,3.22l4.07,1.89S216.44,1304.87,217.46,1305.38Z" transform="translate(-79.75 -1070.98)"/><path class="cls-10" d="M227.5,1284.52l15.14,1.71a2.88,2.88,0,0,0,3-1.63,21.53,21.53,0,0,0,1.23-7,2.88,2.88,0,0,0-2.29-2.57l-14.81-3.57c-1.11-.26-1.44-3-1.44-3l-4.33-1.16a2.21,2.21,0,0,0-2.68,2c-0.51,2.88-.76,4.32-1.27,7.2s-0.76,4.31-1.27,7.2a2.21,2.21,0,0,0,1.84,2.75l4.47,0.39S226.35,1284.39,227.5,1284.52Z" transform="translate(-79.75 -1070.98)"/><path class="cls-10" d="M229.8,1261.49l14.82-3.57a2.9,2.9,0,0,0,2.28-2.58,21.64,21.64,0,0,0-1.24-7,2.89,2.89,0,0,0-3-1.63l-15.14,1.72c-1.14.13-2.36-2.31-2.36-2.31l-4.47.38a2.21,2.21,0,0,0-1.85,2.75c0.5,2.88.76,4.32,1.27,7.2s0.76,4.32,1.27,7.2a2.22,2.22,0,0,0,2.68,2l4.33-1.16S228.68,1261.75,229.8,1261.49Z" transform="translate(-79.75 -1070.98)"/><path class="cls-10" d="M224.08,1239.05l12.7-8.42a2.89,2.89,0,0,0,1.27-3.2,21.76,21.76,0,0,0-3.54-6.14,2.88,2.88,0,0,0-3.41-.5l-13.65,6.79c-1,.51-3-1.36-3-1.36l-4.07,1.89a2.22,2.22,0,0,0-.79,3.22l3.65,6.33,3.65,6.33a2.23,2.23,0,0,0,3.19.93l3.67-2.58S223.12,1239.69,224.08,1239.05Z" transform="translate(-79.75 -1070.98)"/><path class="cls-10" d="M211,1219.93l9.05-12.25a2.9,2.9,0,0,0,.1-3.44,21.72,21.72,0,0,0-5.43-4.56,2.89,2.89,0,0,0-3.38.69l-10.49,11c-0.78.83-3.3-.25-3.3-0.25l-3.17,3.17a2.21,2.21,0,0,0,.36,3.29l5.59,4.7,5.6,4.7a2.21,2.21,0,0,0,3.3-.22l2.57-3.67S210.35,1220.85,211,1219.93Z" transform="translate(-79.75 -1070.98)"/><path class="cls-10" d="M192.24,1206.42l4.32-14.61a2.88,2.88,0,0,0-1.09-3.26,21.42,21.42,0,0,0-6.66-2.43,2.88,2.88,0,0,0-2.93,1.81l-6.09,14c-0.46,1-3.18.9-3.18,0.9l-1.91,4.06a2.21,2.21,0,0,0,1.47,3l6.87,2.49,6.87,2.51a2.22,2.22,0,0,0,3-1.34l1.16-4.33S191.91,1207.52,192.24,1206.42Z" transform="translate(-79.75 -1070.98)"/><path class="cls-10" d="M110.26,1106a0.22,0.22,0,0,1-.21-0.22v-0.86a0.22,0.22,0,0,1,.21-0.22h3.16a0.22,0.22,0,0,1,.22.22v3.17a0.46,0.46,0,0,1-.16.36,4.85,4.85,0,0,1-3.44,1.26c-3.83,0-5-3-5-5.17s1.13-5.15,5-5.15a4.19,4.19,0,0,1,3.34,1.26,0.24,0.24,0,0,1,0,.32l-0.63.63a0.22,0.22,0,0,1-.3,0,3.75,3.75,0,0,0-2.41-.92c-3,0-3.47,2.89-3.47,3.85s0.44,3.83,3.47,3.83a3.58,3.58,0,0,0,2.12-.65V1106h-1.89Z" transform="translate(-79.75 -1070.98)"/><path class="cls-10" d="M117.38,1109.33a0.22,0.22,0,0,1-.21.22h-1a0.22,0.22,0,0,1-.22-0.22v-9.62a0.22,0.22,0,0,1,.22-0.22h3.5a3.13,3.13,0,0,1,3.49,3.14,3.2,3.2,0,0,1-2.24,3l1.75,3.7a0.14,0.14,0,0,1-.13.2h-1.15a0.31,0.31,0,0,1-.3-0.2l-1.66-3.53h-2v3.52Zm4.28-6.69a1.79,1.79,0,0,0-1.94-1.87h-2.34v3.73h2.4A1.82,1.82,0,0,0,121.66,1102.64Z" transform="translate(-79.75 -1070.98)"/><path class="cls-10" d="M130.8,1106.89h-3.7l-1,2.44a0.32,0.32,0,0,1-.3.2h-1.18a0.14,0.14,0,0,1-.13-0.2l4.15-9.75a0.31,0.31,0,0,1,.29-0.19,0.3,0.3,0,0,1,.27.19l4.16,9.75a0.14,0.14,0,0,1-.13.2h-1.18a0.32,0.32,0,0,1-.3-0.2Zm-3.19-1.28h2.67l-1.34-3.32Z" transform="translate(-79.75 -1070.98)"/><path class="cls-10" d="M142,1099.71a0.22,0.22,0,0,1,.22-0.22h1a0.22,0.22,0,0,1,.21.22v9.77a0.13,0.13,0,0,1-.13.13,0.26,0.26,0,0,1-.22-0.1l-6.3-6.76v6.57a0.22,0.22,0,0,1-.22.22h-1a0.22,0.22,0,0,1-.22-0.22v-9.79a0.13,0.13,0,0,1,.13-0.14,0.34,0.34,0,0,1,.23.1l6.3,6.72v-6.5Z" transform="translate(-79.75 -1070.98)"/><path class="cls-10" d="M146.55,1109.55a0.22,0.22,0,0,1-.22-0.22v-9.62a0.22,0.22,0,0,1,.22-0.22h3.26c3.83,0,5,2.91,5,5s-1.13,5-5,5h-3.26Zm3.26-1.29c3,0,3.46-2.78,3.46-3.75s-0.43-3.73-3.46-3.73h-2v7.48h2Z" transform="translate(-79.75 -1070.98)"/><path class="cls-10" d="M163.5,1100.79h-2.7a0.22,0.22,0,0,1-.22-0.22v-0.86a0.22,0.22,0,0,1,.22-0.22h6.9a0.22,0.22,0,0,1,.22.22v0.86a0.22,0.22,0,0,1-.22.22H165v8.54a0.22,0.22,0,0,1-.22.22h-1a0.22,0.22,0,0,1-.22-0.22v-8.54Z" transform="translate(-79.75 -1070.98)"/><path class="cls-10" d="M178.64,1104.51c0,2.15-1.13,5.17-5,5.17s-5-3-5-5.17,1.13-5.15,5-5.15S178.64,1102.41,178.64,1104.51Zm-1.51,0c0-1-.43-3.85-3.46-3.85s-3.47,2.89-3.47,3.85,0.44,3.86,3.47,3.86S177.14,1105.47,177.14,1104.51Z" transform="translate(-79.75 -1070.98)"/><path class="cls-10" d="M182.34,1100.79h-2.7a0.22,0.22,0,0,1-.22-0.22v-0.86a0.22,0.22,0,0,1,.22-0.22h6.9a0.22,0.22,0,0,1,.22.22v0.86a0.22,0.22,0,0,1-.22.22h-2.73v8.54a0.22,0.22,0,0,1-.22.22h-1a0.22,0.22,0,0,1-.22-0.22v-8.54Z" transform="translate(-79.75 -1070.98)"/><path class="cls-10" d="M192.78,1106.89h-3.7l-1,2.44a0.32,0.32,0,0,1-.3.2h-1.18a0.14,0.14,0,0,1-.13-0.2l4.15-9.75a0.31,0.31,0,0,1,.29-0.19,0.3,0.3,0,0,1,.27.19l4.16,9.75a0.14,0.14,0,0,1-.13.2h-1.18a0.32,0.32,0,0,1-.3-0.2Zm-3.19-1.28h2.67l-1.34-3.32Z" transform="translate(-79.75 -1070.98)"/><path class="cls-10" d="M198.79,1108.26h3.62a0.22,0.22,0,0,1,.22.22v0.86a0.22,0.22,0,0,1-.22.22h-4.88a0.22,0.22,0,0,1-.22-0.22v-9.62a0.22,0.22,0,0,1,.22-0.22h1a0.22,0.22,0,0,1,.22.22v8.54Z" transform="translate(-79.75 -1070.98)"/><path class="cls-10" d="M117.4,1118.3a0.53,0.53,0,0,1-.19.75,19.63,19.63,0,0,0-4.38,3.88,5.82,5.82,0,0,1,1.13-.09c5.5,0.31,6.72,4.38,6.72,7.16a6.87,6.87,0,0,1-7.29,7c-6,0-7.32-5.07-7.32-7.25,0-7.19,4.63-11.85,8.79-14.26a0.63,0.63,0,0,1,.81.19ZM116,1129.87a2.54,2.54,0,0,0-2.63-2.69A2.71,2.71,0,1,0,116,1129.87Z" transform="translate(-79.75 -1070.98)"/><path class="cls-10" d="M133.19,1136.25a0.56,0.56,0,0,1-.56.56H129a0.56,0.56,0,0,1-.56-0.56v-13.76l-2.38,1.16a0.63,0.63,0,0,1-.78-0.22l-1.28-2.16a0.63,0.63,0,0,1,.16-0.81l6.1-4.5a1.61,1.61,0,0,1,1-.34h1.38a0.56,0.56,0,0,1,.56.56v20.08Z" transform="translate(-79.75 -1070.98)"/><path class="cls-10" d="M154.29,1126.08c0,4.41-1.94,10.91-8.22,10.91s-8.19-6.5-8.19-10.91,1.91-10.63,8.19-10.63S154.29,1121.8,154.29,1126.08Zm-4.82,0c0-1.53-.41-6.25-3.41-6.25s-3.44,4.72-3.44,6.25,0.44,6.57,3.44,6.57S149.48,1127.62,149.48,1126.08Z" transform="translate(-79.75 -1070.98)"/><path class="cls-10" d="M169.36,1118.3a0.53,0.53,0,0,1-.19.75,19.64,19.64,0,0,0-4.38,3.88,5.82,5.82,0,0,1,1.13-.09c5.5,0.31,6.72,4.38,6.72,7.16a6.87,6.87,0,0,1-7.29,7c-6,0-7.32-5.07-7.32-7.25,0-7.19,4.63-11.85,8.79-14.26a0.63,0.63,0,0,1,.81.19ZM168,1129.87a2.54,2.54,0,0,0-2.63-2.69A2.71,2.71,0,1,0,168,1129.87Z" transform="translate(-79.75 -1070.98)"/><path class="cls-10" d="M179.77,1131.53a2.74,2.74,0,0,1,0,5.47A2.74,2.74,0,1,1,179.77,1131.53Z" transform="translate(-79.75 -1070.98)"/><path class="cls-10" d="M198.09,1126.21c1.59,0.75,2.31,2.94,2.31,4.5,0,2.31-1.28,6.41-7.1,6.41a9.87,9.87,0,0,1-6.66-2.72,0.58,0.58,0,0,1,0-.81l2-2.41a0.55,0.55,0,0,1,.78-0.06,7.27,7.27,0,0,0,3.91,1.78,2.25,2.25,0,0,0,2.5-2.19,2.36,2.36,0,0,0-2.5-2.38H191a0.56,0.56,0,0,1-.56-0.56v-3.1a0.56,0.56,0,0,1,.56-0.56h2.31a2.39,2.39,0,0,0,2.5-2.41,2.25,2.25,0,0,0-2.5-2.19,7.27,7.27,0,0,0-3.85,1.69,0.59,0.59,0,0,1-.81-0.06l-2-2.38a0.59,0.59,0,0,1,0-.81,9.75,9.75,0,0,1,6.63-2.66c5.82,0,7.1,4.1,7.1,6.41A5.29,5.29,0,0,1,198.09,1126.21Z" transform="translate(-79.75 -1070.98)"/><path class="cls-10" d="M231.08,1130.15c0,3-1.85,6.66-7.91,6.66h-7.82a0.56,0.56,0,0,1-.56-0.56v-20.76a0.56,0.56,0,0,1,.56-0.56h7.82c6.07,0,7.91,3.72,7.91,6.69a5,5,0,0,1-2.81,4.22A4.61,4.61,0,0,1,231.08,1130.15Zm-5.07-8.54c0-.5-0.34-2.06-2.53-2.06h-3.72v4.35h3.78A2.28,2.28,0,0,0,226,1121.61Zm0,8.54c0-.66-0.31-2-2.47-2.09h-3.78v4.1h3.72C225.67,1132.15,226,1130.65,226,1130.15Z" transform="translate(-79.75 -1070.98)"/><text class="cls-11" transform="translate(64.86 216.55)">29</text><text class="cls-11" transform="translate(95.21 207.23) scale(0.58)">%</text><text class="cls-12" transform="translate(50.53 184.02)">All others</text><text class="cls-13" transform="translate(184.49 305.03)">21</text><text class="cls-13" transform="translate(208.57 295.7) scale(0.58)">%</text><text class="cls-13" transform="translate(217.43 177.51)">19</text><text class="cls-13" transform="translate(243.58 168.18) scale(0.58)">%</text><text class="cls-13" transform="translate(281.84 243.57)">5</text><text class="cls-13" transform="translate(296.82 234.24) scale(0.58)">%</text><text class="cls-13" transform="translate(338.09 207.31)">5</text><text class="cls-13" transform="translate(353.07 197.99) scale(0.58)">%</text><text class="cls-14" transform="translate(384.83 147.62)">3</text><text class="cls-14" transform="translate(395.31 140.63) scale(0.58)">%</text><text class="cls-15" transform="translate(400.83 205.38)">4</text><text class="cls-15" transform="translate(412.17 198.38) scale(0.58)">%</text><text class="cls-15" transform="translate(324.57 146.3)">4</text><text class="cls-15" transform="translate(335.91 139.31) scale(0.58)">%</text><text class="cls-15" transform="translate(346.23 262.77)">4</text><text class="cls-15" transform="translate(357.57 255.77) scale(0.58)">%</text><text class="cls-14" transform="translate(440.65 148.38)">3</text><text class="cls-14" transform="translate(451.13 141.39) scale(0.58)">%</text><text class="cls-14" transform="translate(459.83 200.91)">3</text><text class="cls-14" transform="translate(470.31 193.92) scale(0.58)">%</text><text class="cls-16" transform="translate(213.34 147.62)">Japan</text><text class="cls-3" transform="translate(213.34 147.62)">Japan</text><polyline class="cls-17" points="294.43 262.77 294.43 379.81 405.19 379.81"/><circle class="cls-8" cx="405.01" cy="379.81" r="3.76"/><text class="cls-1" transform="translate(298.75 364.84)">Oil Expor<tspan x="59.01" y="0">t</tspan><tspan x="64.25" y="0">ers</tspan></text><text class="cls-1" transform="translate(298.75 319.8)">Caribbean <tspan x="0" y="19.2">Banking Cen</tspan><tspan x="83.77" y="19.2">t</tspan><tspan x="89.02" y="19.2">ers</tspan></text><polyline class="cls-17" points="421.29 223.42 421.29 340.46 532.05 340.46"/><circle class="cls-8" cx="531.87" cy="340.46" r="3.76"/><polyline class="cls-18" points="385.11 115.78 385.11 16.75 495.87 16.75"/><circle class="cls-19" cx="495.68" cy="16.75" r="3.76"/><text class="cls-1" transform="translate(392.12 42.95)">Hong <tspan x="39.71" y="0">K</tspan><tspan x="49.1" y="0">ong</tspan></text><text class="cls-1" transform="translate(392.12 42.95)">Hong <tspan x="39.71" y="0">K</tspan><tspan x="49.1" y="0">ong</tspan></text><text class="cls-1" transform="translate(392.12 72.45)">Lu<tspan x="15.95" y="0">x</tspan><tspan x="22.5" y="0">embourg</tspan></text><text class="cls-20" transform="translate(392.12 72.45)">Lu<tspan x="15.95" y="0">x</tspan><tspan x="22.5" y="0">embourg</tspan></text><text class="cls-1" transform="translate(392.12 101.45)">Uni<tspan x="21.79" y="0">t</tspan><tspan x="27.04" y="0">ed Kingdom</tspan></text><text class="cls-20" transform="translate(392.12 101.45)">Uni<tspan x="21.79" y="0">t</tspan><tspan x="27.04" y="0">ed Kingdom</tspan></text><text class="cls-21" transform="translate(8.68 367.33) scale(0.58)">Source: US department of the <tspan x="266" y="0">T</tspan><tspan x="276.9" y="0">reasury</tspan><tspan class="cls-22" x="343.66" y="0">	</tspan></text><text class="cls-23" transform="translate(8.68 379.97) scale(0.58)">The foll<tspan x="51.49" y="0">o</tspan><tspan x="59.8" y="0">wing </tspan><tspan x="97.99" y="0">t</tspan><tspan x="103.44" y="0">able is the holding situation at the end of Sep, 20</tspan><tspan x="452.68" y="0">1</tspan><tspan x="458.24" y="0">5</tspan><tspan class="cls-24" x="467.06" y="0">	</tspan><tspan class="cls-25" x="493.99" y="0">		</tspan></text></svg>