<svg id="Layer_1" data-name="Layer 1" xmlns="http://www.w3.org/2000/svg" viewBox="0 0 596.7 371.71"><defs><style>.cls-1,.cls-16{font-size:21px;}.cls-1,.cls-15,.cls-16,.cls-19,.cls-20,.cls-4,.cls-5,.cls-9{fill:#8fa0ad;}.cls-1,.cls-17,.cls-19,.cls-2,.cls-20,.cls-3,.cls-4{font-family:Lintel;}.cls-17,.cls-2,.cls-3,.cls-4{font-size:26px;}.cls-12,.cls-2{fill:#bcc6ce;}.cls-11,.cls-3{fill:#a5b3bd;}.cls-5{font-size:18px;}.cls-14,.cls-15,.cls-16,.cls-5,.cls-6,.cls-7,.cls-8{font-family:Halis R;}.cls-6{font-size:56px;}.cls-6,.cls-7,.cls-8{fill:#fff;}.cls-7{font-size:20px;}.cls-8{font-size:12px;}.cls-10,.cls-14,.cls-17{fill:#90788f;}.cls-13{fill:#d2d9de;}.cls-14,.cls-15{font-size:28px;}.cls-18{white-space:pre;}.cls-19{font-size:24px;}.cls-20{font-size:17px;}</style></defs><title>treasury holdings</title><text class="cls-1" transform="translate(2.43 332.26) scale(0.58)">Source: Bureau of the Fiscal Service</text><text class="cls-2" transform="translate(403.98 314.87) scale(0.58)">Mutual funds</text><text class="cls-3" transform="translate(414.53 90.29) scale(0.58)">Other <tspan x="0" y="26.07">i</tspan><tspan x="5.56" y="26.07">n</tspan><tspan x="18.51" y="26.07">v</tspan><tspan x="30.11" y="26.07">es</tspan><tspan x="54.37" y="26.07">t</tspan><tspan x="63.08" y="26.07">ors</tspan></text><text class="cls-4" transform="translate(309.59 78.28) scale(0.58)">Fede<tspan x="52.55" y="0">r</tspan><tspan x="61.44" y="0">al</tspan><tspan x="-2.92" y="23.39">R</tspan><tspan x="12.91" y="23.39">eser</tspan><tspan x="58.72" y="23.39">v</tspan><tspan x="70.32" y="23.39">e</tspan></text><text class="cls-5" transform="translate(14.88 15.3)">T<tspan x="10.73" y="0">R</tspan><tspan x="22.36" y="0">EASURY HOLDING</tspan></text><text class="cls-6" transform="translate(352.56 72.29) scale(0.58)">%</text><text class="cls-7" transform="translate(164.41 364.77)">2</text><text class="cls-7" transform="translate(174.51 358.1) scale(0.58)">%</text><text class="cls-8" transform="translate(152.36 351.77)">1</text><text class="cls-8" transform="translate(156.62 347.77) scale(0.58)">%</text><path class="cls-9" d="M1105.55,1113.23h-2.23a0.18,0.18,0,0,1-.18-0.18v-0.71a0.18,0.18,0,0,1,.18-0.18H1109a0.18,0.18,0,0,1,.18.18v0.71a0.18,0.18,0,0,1-.18.18h-2.26v7.06a0.18,0.18,0,0,1-.18.18h-0.87a0.18,0.18,0,0,1-.18-0.18v-7.06Z" transform="translate(-1088.26 -1080.05)"/><path class="cls-9" d="M1118.07,1116.31c0,1.78-.94,4.27-4.11,4.27s-4.11-2.49-4.11-4.27A4.11,4.11,0,1,1,1118.07,1116.31Zm-1.25,0c0-.8-0.36-3.18-2.86-3.18s-2.87,2.39-2.87,3.18,0.37,3.19,2.87,3.19S1116.82,1117.1,1116.82,1116.31Z" transform="translate(-1088.26 -1080.05)"/><path class="cls-9" d="M1121.13,1113.23h-2.23a0.18,0.18,0,0,1-.18-0.18v-0.71a0.18,0.18,0,0,1,.18-0.18h5.71a0.18,0.18,0,0,1,.18.18v0.71a0.18,0.18,0,0,1-.18.18h-2.26v7.06a0.18,0.18,0,0,1-.18.18h-0.87a0.18,0.18,0,0,1-.18-0.18v-7.06Z" transform="translate(-1088.26 -1080.05)"/><path class="cls-9" d="M1129.76,1118.28h-3.06l-0.81,2a0.27,0.27,0,0,1-.25.17h-1a0.12,0.12,0,0,1-.11-0.17l3.43-8.06a0.26,0.26,0,0,1,.24-0.15,0.24,0.24,0,0,1,.23.15l3.44,8.06a0.12,0.12,0,0,1-.11.17h-1a0.27,0.27,0,0,1-.25-0.17Zm-2.64-1.06h2.21l-1.1-2.74Z" transform="translate(-1088.26 -1080.05)"/><path class="cls-9" d="M1134.73,1119.41h3a0.18,0.18,0,0,1,.18.18v0.71a0.18,0.18,0,0,1-.18.18h-4a0.18,0.18,0,0,1-.18-0.18v-8a0.18,0.18,0,0,1,.18-0.18h0.87a0.18,0.18,0,0,1,.18.18v7.06Z" transform="translate(-1088.26 -1080.05)"/><path class="cls-9" d="M1144.58,1120.3a0.18,0.18,0,0,1-.18.18h-0.87a0.18,0.18,0,0,1-.18-0.18v-8a0.18,0.18,0,0,1,.18-0.18h2.92a2.59,2.59,0,0,1,2.89,2.6,2.7,2.7,0,0,1-2.72,2.62h-2v2.91Zm3.54-5.53a1.48,1.48,0,0,0-1.6-1.54h-1.93v3.09h2A1.5,1.5,0,0,0,1148.12,1114.77Z" transform="translate(-1088.26 -1080.05)"/><path class="cls-9" d="M1156.36,1117.32v-5a0.18,0.18,0,0,1,.18-0.18h0.88a0.18,0.18,0,0,1,.18.18v5a3.23,3.23,0,1,1-6.47,0v-5a0.18,0.18,0,0,1,.18-0.18h0.85a0.18,0.18,0,0,1,.18.18v5A2,2,0,1,0,1156.36,1117.32Z" transform="translate(-1088.26 -1080.05)"/><path class="cls-9" d="M1165.81,1118.12c0,1-.67,2.35-2.89,2.35H1160a0.18,0.18,0,0,1-.18-0.18v-8a0.18,0.18,0,0,1,.18-0.18h2.9c2.22,0,2.89,1.38,2.89,2.36a2.12,2.12,0,0,1-1,1.79A2.15,2.15,0,0,1,1165.81,1118.12Zm-1.25-3.6a1.35,1.35,0,0,0-1.52-1.31h-2v2.61h2A1.3,1.3,0,0,0,1164.56,1114.53Zm0,3.6c0-.47-0.2-1.19-1.47-1.21h-2v2.49h2A1.33,1.33,0,0,0,1164.56,1118.12Z" transform="translate(-1088.26 -1080.05)"/><path class="cls-9" d="M1168.93,1119.41h3a0.18,0.18,0,0,1,.18.18v0.71a0.18,0.18,0,0,1-.18.18h-4a0.18,0.18,0,0,1-.18-0.18v-8a0.18,0.18,0,0,1,.18-0.18h0.87a0.18,0.18,0,0,1,.18.18v7.06Z" transform="translate(-1088.26 -1080.05)"/><path class="cls-9" d="M1175.22,1120.3a0.18,0.18,0,0,1-.18.18h-0.87a0.18,0.18,0,0,1-.18-0.18v-8a0.18,0.18,0,0,1,.18-0.18H1175a0.18,0.18,0,0,1,.18.18v8Z" transform="translate(-1088.26 -1080.05)"/><path class="cls-9" d="M1183.64,1114a0.18,0.18,0,0,1-.25,0,3.28,3.28,0,0,0-2.16-.9c-2.51,0-2.87,2.39-2.87,3.18s0.37,3.17,2.87,3.17a3.6,3.6,0,0,0,2.22-.88,0.16,0.16,0,0,1,.24,0l0.49,0.6a0.22,0.22,0,0,1,0,.27,4.11,4.11,0,0,1-2.92,1.08c-3.17,0-4.11-2.49-4.11-4.27a4,4,0,0,1,4.11-4.26,3.83,3.83,0,0,1,3,1.21,0.17,0.17,0,0,1,0,.25Z" transform="translate(-1088.26 -1080.05)"/><path class="cls-9" d="M1189.94,1120.48a0.18,0.18,0,0,1-.18-0.18v-8a0.18,0.18,0,0,1,.18-0.18h2.69a4.16,4.16,0,0,1,0,8.31h-2.69Zm2.69-1.07a3.1,3.1,0,0,0,0-6.18H1191v6.18h1.66Z" transform="translate(-1088.26 -1080.05)"/><path class="cls-9" d="M1199.73,1116.91v2.49h4.07a0.18,0.18,0,0,1,.18.18v0.71a0.18,0.18,0,0,1-.18.18h-5.1a0.18,0.18,0,0,1-.18-0.18v-8a0.18,0.18,0,0,1,.18-0.18h5.1a0.18,0.18,0,0,1,.18.18v0.71a0.18,0.18,0,0,1-.18.18h-4.07v2.61h3.15a0.18,0.18,0,0,1,.18.18v0.71a0.18,0.18,0,0,1-.18.18h-3.15Z" transform="translate(-1088.26 -1080.05)"/><path class="cls-9" d="M1211.84,1118.12c0,1-.67,2.35-2.89,2.35h-2.9a0.18,0.18,0,0,1-.18-0.18v-8a0.18,0.18,0,0,1,.18-0.18h2.9c2.22,0,2.89,1.38,2.89,2.36a2.12,2.12,0,0,1-1,1.79A2.15,2.15,0,0,1,1211.84,1118.12Zm-1.25-3.6a1.35,1.35,0,0,0-1.52-1.31h-2v2.61h2A1.3,1.3,0,0,0,1210.59,1114.53Zm0,3.6c0-.47-0.2-1.19-1.47-1.21h-2v2.49h2A1.33,1.33,0,0,0,1210.59,1118.12Z" transform="translate(-1088.26 -1080.05)"/><path class="cls-9" d="M1215.49,1113.23h-2.23a0.18,0.18,0,0,1-.18-0.18v-0.71a0.18,0.18,0,0,1,.18-0.18H1219a0.18,0.18,0,0,1,.18.18v0.71a0.18,0.18,0,0,1-.18.18h-2.26v7.06a0.18,0.18,0,0,1-.18.18h-0.87a0.18,0.18,0,0,1-.18-0.18v-7.06Z" transform="translate(-1088.26 -1080.05)"/><path class="cls-9" d="M1111.39,1142.56a0.46,0.46,0,0,1-.47.47h-3a0.46,0.46,0,0,1-.47-0.47v-11.38l-2,1a0.52,0.52,0,0,1-.65-0.18l-1.06-1.78a0.52,0.52,0,0,1,.13-0.67l5-3.72a1.34,1.34,0,0,1,.83-0.28h1.14a0.46,0.46,0,0,1,.47.47v16.6Z" transform="translate(-1088.26 -1080.05)"/><path class="cls-9" d="M1125,1134.26a4.1,4.1,0,0,1,2,3.6c0,1.89-1.06,5.33-5.85,5.33s-5.84-3.41-5.84-5.3a4.61,4.61,0,0,1,1.91-3.65,3.87,3.87,0,0,1-2-3.6c0-1.91,1.11-5.25,5.9-5.25s5.92,3.39,5.85,5.25A4.55,4.55,0,0,1,1125,1134.26Zm-1.81-3.62a1.81,1.81,0,0,0-2-1.76,1.83,1.83,0,0,0-2,1.76,1.88,1.88,0,0,0,2,1.84A1.85,1.85,0,0,0,1123.19,1130.64Zm0,7.24a1.85,1.85,0,0,0-2-1.84,1.88,1.88,0,0,0-2,1.84,1.86,1.86,0,0,0,2,1.81A1.88,1.88,0,0,0,1123.19,1137.88Z" transform="translate(-1088.26 -1080.05)"/><path class="cls-9" d="M1137.38,1142.56a0.46,0.46,0,0,1-.47.47h-3a0.46,0.46,0,0,1-.47-0.47v-11.38l-2,1a0.52,0.52,0,0,1-.65-0.18l-1.06-1.78a0.52,0.52,0,0,1,.13-0.67l5-3.72a1.34,1.34,0,0,1,.83-0.28h1.14a0.46,0.46,0,0,1,.47.47v16.6Z" transform="translate(-1088.26 -1080.05)"/><path class="cls-9" d="M1143.59,1138.06a0.44,0.44,0,0,1,.65.05,4,4,0,0,0,2.79,1.45,2.19,2.19,0,0,0,2.25-2.25,2.15,2.15,0,0,0-2.28-2.2h-4.06a0.46,0.46,0,0,1-.47-0.47v-8.72a0.46,0.46,0,0,1,.47-0.47h8.69a0.46,0.46,0,0,1,.47.47v2.69a0.46,0.46,0,0,1-.47.47h-5.07v2.53H1147c5,0,6.15,3.47,6.15,5.79a5.73,5.73,0,0,1-6.15,5.77,7.09,7.09,0,0,1-5.46-2.69,0.51,0.51,0,0,1,.05-0.67Z" transform="translate(-1088.26 -1080.05)"/><path class="cls-9" d="M1163,1142.56a0.46,0.46,0,0,1-.47.47h-3a0.46,0.46,0,0,1-.47-0.47v-11.38l-2,1a0.52,0.52,0,0,1-.65-0.18l-1.06-1.78a0.52,0.52,0,0,1,.13-0.67l5-3.72a1.34,1.34,0,0,1,.83-0.28h1.14a0.46,0.46,0,0,1,.47.47v16.6Z" transform="translate(-1088.26 -1080.05)"/><path class="cls-9" d="M1189.13,1137.52c0,2.46-1.53,5.51-6.54,5.51h-6.47a0.46,0.46,0,0,1-.47-0.47v-17.17a0.46,0.46,0,0,1,.47-0.47h6.47c5,0,6.54,3.08,6.54,5.53a4.16,4.16,0,0,1-2.33,3.49A3.81,3.81,0,0,1,1189.13,1137.52Zm-4.19-7.06a1.82,1.82,0,0,0-2.1-1.71h-3.08v3.6h3.13A1.88,1.88,0,0,0,1184.94,1130.46Zm0,7.06c0-.54-0.26-1.68-2-1.73h-3.13v3.39h3.08C1184.65,1139.17,1184.94,1137.93,1184.94,1137.52Z" transform="translate(-1088.26 -1080.05)"/><path class="cls-10" d="M1279.75,1275.3a83.76,83.76,0,1,1-83.76-83.76A83.77,83.77,0,0,1,1279.75,1275.3ZM1196,1214.57a60.74,60.74,0,1,0,60.75,60.74A60.75,60.75,0,0,0,1196,1214.57Z" transform="translate(-1088.26 -1080.05)"/><path class="cls-10" d="M1204.52,1189.81c-0.09-1.47-1.21-19.61-1.21-19.61a3.71,3.71,0,0,0-2.75-3.47,27.62,27.62,0,0,0-9.14,0,3.71,3.71,0,0,0-2.75,3.47s-1.12,18.14-1.21,19.61-3.46,2.49-3.46,2.49c-0.21,2.3-.31,3.45-0.51,5.76a2.86,2.86,0,0,0,3.08,3h18.84a2.85,2.85,0,0,0,3.08-3c-0.2-2.31-.31-3.46-0.51-5.76C1208,1192.3,1204.61,1191.28,1204.52,1189.81Z" transform="translate(-1088.26 -1080.05)"/><path class="cls-10" d="M1174.77,1192.05l-7.84-18a3.72,3.72,0,0,0-3.78-2.33,27.52,27.52,0,0,0-8.58,3.13,3.7,3.7,0,0,0-1.4,4.21s5.15,17.42,5.58,18.84-2.41,3.52-2.41,3.52c0.59,2.24.89,3.35,1.49,5.59a2.85,2.85,0,0,0,3.9,1.73l8.86-3.23,8.85-3.22a2.86,2.86,0,0,0,1.89-3.83l-2.45-5.24S1175.35,1193.4,1174.77,1192.05Z" transform="translate(-1088.26 -1080.05)"/><path class="cls-10" d="M1147.57,1204.33L1134,1190.09a3.74,3.74,0,0,0-4.36-.89,28.11,28.11,0,0,0-7,5.87,3.71,3.71,0,0,0,.13,4.43l11.67,15.8c0.88,1.19-1,4.14-1,4.14,1.32,1.9,2,2.84,3.31,4.73a2.85,2.85,0,0,0,4.26.29l7.22-6.06,7.22-6.06a2.86,2.86,0,0,0,.46-4.25l-4.09-4.08S1148.58,1205.4,1147.57,1204.33Z" transform="translate(-1088.26 -1080.05)"/><path class="cls-10" d="M1126.21,1225.16l-17.59-8.74a3.69,3.69,0,0,0-4.39.64,27.89,27.89,0,0,0-4.58,7.92,3.73,3.73,0,0,0,1.64,4.12l16.37,10.85c1.23,0.81.42,4.24,0.42,4.24l4.73,3.32a2.85,2.85,0,0,0,4.1-1.19l4.71-8.15,4.71-8.16a2.86,2.86,0,0,0-1-4.16l-5.23-2.44S1127.54,1225.83,1126.21,1225.16Z" transform="translate(-1088.26 -1080.05)"/><path class="cls-10" d="M1113.27,1252.06l-19.52-2.21a3.72,3.72,0,0,0-3.9,2.1,27.82,27.82,0,0,0-1.58,9,3.7,3.7,0,0,0,2.94,3.31l19.1,4.6c1.44,0.34,1.85,3.83,1.85,3.83l5.58,1.51a2.86,2.86,0,0,0,3.45-2.52c0.66-3.71,1-5.57,1.64-9.28s1-5.56,1.64-9.28a2.85,2.85,0,0,0-2.39-3.54l-5.75-.5S1114.74,1252.22,1113.27,1252.06Z" transform="translate(-1088.26 -1080.05)"/><path class="cls-10" d="M1110.31,1281.74l-19.1,4.59a3.72,3.72,0,0,0-2.95,3.32,27.87,27.87,0,0,0,1.58,9,3.72,3.72,0,0,0,3.9,2.11l19.52-2.21c1.47-.17,3.05,3,3.05,3l5.75-.5a2.84,2.84,0,0,0,2.38-3.55c-0.65-3.71-1-5.57-1.63-9.28s-1-5.57-1.64-9.28a2.86,2.86,0,0,0-3.45-2.52l-5.58,1.5S1111.74,1281.4,1110.31,1281.74Z" transform="translate(-1088.26 -1080.05)"/><path class="cls-10" d="M1117.68,1310.67c-1.23.8-16.37,10.84-16.37,10.84a3.74,3.74,0,0,0-1.64,4.12,27.81,27.81,0,0,0,4.58,7.91,3.71,3.71,0,0,0,4.39.65l17.59-8.75c1.32-.66,3.88,1.75,3.88,1.75l5.24-2.44a2.85,2.85,0,0,0,1-4.15l-4.71-8.16-4.71-8.16a2.86,2.86,0,0,0-4.1-1.19l-4.73,3.32S1118.91,1309.85,1117.68,1310.67Z" transform="translate(-1088.26 -1080.05)"/><path class="cls-10" d="M1134.49,1335.31l-11.67,15.79a3.74,3.74,0,0,0-.13,4.44,28,28,0,0,0,7,5.87,3.73,3.73,0,0,0,4.36-.89l13.53-14.24c1-1.07,4.25.32,4.25,0.32l4.09-4.08a2.86,2.86,0,0,0-.47-4.25l-7.21-6.06-7.22-6.05a2.84,2.84,0,0,0-4.26.29l-3.31,4.73S1135.37,1334.12,1134.49,1335.31Z" transform="translate(-1088.26 -1080.05)"/><path class="cls-10" d="M1158.72,1352.72c-0.41,1.42-5.57,18.84-5.57,18.84a3.73,3.73,0,0,0,1.4,4.22,27.59,27.59,0,0,0,8.58,3.12,3.69,3.69,0,0,0,3.78-2.33s7.26-16.65,7.84-18,4.1-1.15,4.1-1.15c1-2.09,1.48-3.15,2.46-5.24a2.85,2.85,0,0,0-1.89-3.83l-8.86-3.23-8.86-3.22a2.85,2.85,0,0,0-3.91,1.73c-0.6,2.24-.9,3.35-1.49,5.59C1156.32,1349.2,1159.14,1351.3,1158.72,1352.72Z" transform="translate(-1088.26 -1080.05)"/><path class="cls-10" d="M1187.45,1360.79c0.09,1.48,1.21,19.61,1.21,19.61a3.72,3.72,0,0,0,2.76,3.47,27.68,27.68,0,0,0,9.14,0,3.7,3.7,0,0,0,2.76-3.47s1.12-18.14,1.22-19.61,3.46-2.48,3.46-2.48c0.2-2.3.31-3.45,0.51-5.76a2.86,2.86,0,0,0-3.08-3h-18.84a2.86,2.86,0,0,0-3.08,3c0.21,2.3.31,3.45,0.51,5.76C1184,1358.31,1187.36,1359.32,1187.45,1360.79Z" transform="translate(-1088.26 -1080.05)"/><path class="cls-10" d="M1217.2,1358.56l7.84,18a3.69,3.69,0,0,0,3.78,2.32,27.64,27.64,0,0,0,8.59-3.12,3.74,3.74,0,0,0,1.4-4.22s-5.15-17.42-5.58-18.84,2.4-3.51,2.4-3.51c-0.59-2.24-.89-3.35-1.49-5.59a2.84,2.84,0,0,0-3.91-1.72l-8.86,3.21-8.85,3.22a2.85,2.85,0,0,0-1.88,3.83c1,2.09,1.47,3.14,2.44,5.24C1213.09,1357.41,1216.61,1357.2,1217.2,1358.56Z" transform="translate(-1088.26 -1080.05)"/><path class="cls-10" d="M1244.4,1346.28l13.53,14.24a3.72,3.72,0,0,0,4.35.89,28,28,0,0,0,7-5.87,3.73,3.73,0,0,0-.13-4.44l-11.67-15.79c-0.87-1.19,1-4.13,1-4.13l-3.32-4.73a2.84,2.84,0,0,0-4.25-.29l-7.22,6.05-7.22,6.06a2.86,2.86,0,0,0-.46,4.25l4.09,4.08S1243.38,1345.22,1244.4,1346.28Z" transform="translate(-1088.26 -1080.05)"/><path class="cls-10" d="M1265.75,1325.45l17.59,8.75a3.71,3.71,0,0,0,4.39-.65,27.88,27.88,0,0,0,4.57-7.91,3.71,3.71,0,0,0-1.64-4.12l-16.37-10.84c-1.23-.82-0.42-4.25-0.42-4.25-1.9-1.33-2.83-2-4.73-3.32a2.85,2.85,0,0,0-4.11,1.19c-1.88,3.26-2.83,4.89-4.71,8.16l-4.71,8.16a2.86,2.86,0,0,0,1,4.15l5.25,2.43S1264.44,1324.79,1265.75,1325.45Z" transform="translate(-1088.26 -1080.05)"/><path class="cls-10" d="M1278.69,1298.56l19.52,2.21a3.71,3.71,0,0,0,3.9-2.11,27.76,27.76,0,0,0,1.59-9,3.71,3.71,0,0,0-2.95-3.31l-19.09-4.6c-1.44-.34-1.85-3.84-1.85-3.84l-5.58-1.5a2.85,2.85,0,0,0-3.45,2.52c-0.66,3.71-1,5.57-1.64,9.28s-1,5.56-1.63,9.27a2.85,2.85,0,0,0,2.37,3.55l5.76,0.5S1277.22,1298.39,1278.69,1298.56Z" transform="translate(-1088.26 -1080.05)"/><path class="cls-10" d="M1281.66,1268.87l19.1-4.6a3.73,3.73,0,0,0,2.94-3.32,27.9,27.9,0,0,0-1.59-9,3.73,3.73,0,0,0-3.9-2.1l-19.52,2.21c-1.47.16-3-3-3-3l-5.76.49a2.85,2.85,0,0,0-2.38,3.54c0.65,3.72,1,5.57,1.63,9.28s1,5.57,1.64,9.29a2.86,2.86,0,0,0,3.45,2.52l5.58-1.5S1280.22,1269.21,1281.66,1268.87Z" transform="translate(-1088.26 -1080.05)"/><path class="cls-10" d="M1274.29,1240l16.37-10.86a3.72,3.72,0,0,0,1.64-4.12,28.05,28.05,0,0,0-4.57-7.91,3.71,3.71,0,0,0-4.39-.65l-17.59,8.75c-1.31.65-3.88-1.76-3.88-1.76l-5.25,2.44a2.86,2.86,0,0,0-1,4.15c1.88,3.25,2.82,4.89,4.71,8.15s2.83,4.9,4.7,8.16a2.87,2.87,0,0,0,4.12,1.19l4.73-3.32S1273.06,1240.77,1274.29,1240Z" transform="translate(-1088.26 -1080.05)"/><path class="cls-10" d="M1257.48,1215.3l11.67-15.79a3.73,3.73,0,0,0,.13-4.44,28,28,0,0,0-7-5.87,3.73,3.73,0,0,0-4.35.89l-13.53,14.24c-1,1.07-4.25-.32-4.25-0.32l-4.09,4.08a2.85,2.85,0,0,0,.47,4.24l7.21,6.06,7.21,6.06a2.85,2.85,0,0,0,4.26-.29l3.32-4.73S1256.6,1216.49,1257.48,1215.3Z" transform="translate(-1088.26 -1080.05)"/><path class="cls-10" d="M1233.25,1197.89c0.41-1.41,5.57-18.84,5.57-18.84a3.71,3.71,0,0,0-1.4-4.21,27.61,27.61,0,0,0-8.58-3.13A3.71,3.71,0,0,0,1225,1174l-7.84,18c-0.59,1.35-4.09,1.15-4.09,1.15l-2.46,5.23a2.85,2.85,0,0,0,1.89,3.84l8.85,3.22,8.85,3.23a2.86,2.86,0,0,0,3.91-1.73l1.49-5.59S1232.82,1199.3,1233.25,1197.89Z" transform="translate(-1088.26 -1080.05)"/><path class="cls-9" d="M1461.49,1328.68a77.28,77.28,0,1,1-77.28-77.28A77.29,77.29,0,0,1,1461.49,1328.68Zm-77.28-56a56,56,0,1,0,56,56A56,56,0,0,0,1384.21,1272.64Z" transform="translate(-1088.26 -1080.05)"/><path class="cls-9" d="M1392.09,1249.81c-0.09-1.36-1.12-18.09-1.12-18.09a3.42,3.42,0,0,0-2.54-3.2,25.48,25.48,0,0,0-8.43,0,3.42,3.42,0,0,0-2.54,3.2s-1,16.73-1.12,18.09-3.19,2.3-3.19,2.3c-0.19,2.12-.28,3.18-0.47,5.31a2.64,2.64,0,0,0,2.84,2.73h17.39a2.63,2.63,0,0,0,2.84-2.73c-0.19-2.13-.29-3.19-0.47-5.31C1395.28,1252.1,1392.17,1251.16,1392.09,1249.81Z" transform="translate(-1088.26 -1080.05)"/><path class="cls-9" d="M1364.64,1251.87l-7.24-16.61a3.43,3.43,0,0,0-3.49-2.15A25.39,25.39,0,0,0,1346,1236a3.41,3.41,0,0,0-1.3,3.88s4.76,16.07,5.15,17.38-2.22,3.25-2.22,3.25c0.54,2.06.82,3.09,1.38,5.15a2.63,2.63,0,0,0,3.6,1.59l8.17-3,8.17-3a2.64,2.64,0,0,0,1.74-3.54l-2.26-4.83S1365.17,1253.12,1364.64,1251.87Z" transform="translate(-1088.26 -1080.05)"/><path class="cls-9" d="M1339.55,1263.2l-12.48-13.14a3.45,3.45,0,0,0-4-.82,25.94,25.94,0,0,0-6.46,5.42,3.42,3.42,0,0,0,.12,4.09l10.77,14.57c0.81,1.1-1,3.82-1,3.82,1.22,1.75,1.83,2.62,3.05,4.37a2.63,2.63,0,0,0,3.93.27l6.66-5.59,6.66-5.59a2.64,2.64,0,0,0,.42-3.92l-3.78-3.76S1340.48,1264.18,1339.55,1263.2Z" transform="translate(-1088.26 -1080.05)"/><path class="cls-9" d="M1319.84,1282.42l-16.22-8.07a3.41,3.41,0,0,0-4,.59,25.74,25.74,0,0,0-4.22,7.3,3.44,3.44,0,0,0,1.52,3.8l15.11,10c1.14,0.75.39,3.91,0.39,3.91l4.36,3.06a2.63,2.63,0,0,0,3.78-1.1l4.35-7.52,4.35-7.53a2.64,2.64,0,0,0-.95-3.83l-4.83-2.25S1321.06,1283,1319.84,1282.42Z" transform="translate(-1088.26 -1080.05)"/><path class="cls-9" d="M1307.9,1307.23l-18-2a3.43,3.43,0,0,0-3.6,1.94,25.67,25.67,0,0,0-1.46,8.31,3.41,3.41,0,0,0,2.72,3.05l17.62,4.24c1.32,0.32,1.71,3.54,1.71,3.54l5.15,1.39a2.64,2.64,0,0,0,3.18-2.33c0.61-3.42.9-5.14,1.51-8.56s0.9-5.13,1.51-8.56a2.63,2.63,0,0,0-2.2-3.27l-5.31-.46S1309.25,1307.38,1307.9,1307.23Z" transform="translate(-1088.26 -1080.05)"/><path class="cls-9" d="M1305.16,1334.62l-17.62,4.24a3.44,3.44,0,0,0-2.72,3.06,25.71,25.71,0,0,0,1.46,8.31,3.43,3.43,0,0,0,3.6,1.94l18-2c1.36-.15,2.82,2.74,2.82,2.74l5.31-.46a2.62,2.62,0,0,0,2.19-3.27c-0.6-3.43-.9-5.14-1.5-8.56s-0.91-5.14-1.51-8.56a2.63,2.63,0,0,0-3.18-2.33l-5.15,1.38S1306.49,1334.3,1305.16,1334.62Z" transform="translate(-1088.26 -1080.05)"/><path class="cls-9" d="M1312,1361.31l-15.11,10a3.45,3.45,0,0,0-1.52,3.8,25.66,25.66,0,0,0,4.22,7.3,3.42,3.42,0,0,0,4.05.6l16.22-8.07c1.21-.61,3.58,1.61,3.58,1.61l4.83-2.25a2.63,2.63,0,0,0,1-3.83l-4.35-7.53-4.34-7.53a2.64,2.64,0,0,0-3.79-1.1l-4.36,3.06S1313.1,1360.56,1312,1361.31Z" transform="translate(-1088.26 -1080.05)"/><path class="cls-9" d="M1327.47,1384l-10.77,14.57a3.45,3.45,0,0,0-.12,4.09,25.79,25.79,0,0,0,6.46,5.41,3.44,3.44,0,0,0,4-.82l12.48-13.14c0.93-1,3.92.29,3.92,0.29l3.78-3.76a2.64,2.64,0,0,0-.43-3.92l-6.66-5.59-6.67-5.59a2.62,2.62,0,0,0-3.93.27l-3.05,4.37S1328.29,1383,1327.47,1384Z" transform="translate(-1088.26 -1080.05)"/><path class="cls-9" d="M1349.83,1400.11c-0.38,1.31-5.14,17.38-5.14,17.38a3.45,3.45,0,0,0,1.3,3.89,25.45,25.45,0,0,0,7.92,2.88,3.41,3.41,0,0,0,3.49-2.15s6.7-15.36,7.24-16.61,3.78-1.07,3.78-1.07c0.9-1.93,1.36-2.9,2.27-4.83a2.63,2.63,0,0,0-1.74-3.53l-8.17-3-8.17-3a2.63,2.63,0,0,0-3.6,1.59c-0.55,2.06-.83,3.09-1.37,5.15C1347.62,1396.86,1350.22,1398.8,1349.83,1400.11Z" transform="translate(-1088.26 -1080.05)"/><path class="cls-9" d="M1376.34,1407.56c0.08,1.37,1.11,18.09,1.11,18.09a3.43,3.43,0,0,0,2.55,3.21,25.53,25.53,0,0,0,8.43,0,3.41,3.41,0,0,0,2.54-3.21s1-16.73,1.12-18.09,3.19-2.29,3.19-2.29c0.19-2.12.28-3.19,0.47-5.31a2.64,2.64,0,0,0-2.84-2.74h-17.39a2.63,2.63,0,0,0-2.84,2.74c0.19,2.13.28,3.18,0.47,5.31C1373.15,1405.27,1376.25,1406.2,1376.34,1407.56Z" transform="translate(-1088.26 -1080.05)"/><path class="cls-9" d="M1403.79,1405.5l7.24,16.61a3.41,3.41,0,0,0,3.48,2.14,25.5,25.5,0,0,0,7.92-2.88,3.45,3.45,0,0,0,1.3-3.89s-4.75-16.07-5.14-17.38,2.22-3.24,2.22-3.24c-0.55-2.06-.83-3.09-1.38-5.15a2.62,2.62,0,0,0-3.6-1.59l-8.17,3-8.17,3a2.63,2.63,0,0,0-1.74,3.54c0.9,1.93,1.36,2.9,2.25,4.84C1400,1404.43,1403.25,1404.24,1403.79,1405.5Z" transform="translate(-1088.26 -1080.05)"/><path class="cls-9" d="M1428.88,1394.17l12.48,13.14a3.43,3.43,0,0,0,4,.82,25.83,25.83,0,0,0,6.45-5.41,3.44,3.44,0,0,0-.12-4.09L1440.94,1384c-0.81-1.1,1-3.81,1-3.81l-3.06-4.37a2.62,2.62,0,0,0-3.92-.27l-6.66,5.59-6.66,5.59a2.64,2.64,0,0,0-.42,3.92l3.78,3.76S1427.94,1393.19,1428.88,1394.17Z" transform="translate(-1088.26 -1080.05)"/><path class="cls-9" d="M1448.58,1374.95l16.23,8.07a3.43,3.43,0,0,0,4-.6,25.73,25.73,0,0,0,4.21-7.3,3.42,3.42,0,0,0-1.51-3.8l-15.1-10c-1.13-.76-0.39-3.92-0.39-3.92-1.75-1.22-2.61-1.84-4.36-3.06a2.63,2.63,0,0,0-3.79,1.1c-1.74,3-2.61,4.51-4.34,7.53l-4.35,7.53a2.64,2.64,0,0,0,.94,3.83l4.84,2.25S1447.37,1374.34,1448.58,1374.95Z" transform="translate(-1088.26 -1080.05)"/><path class="cls-9" d="M1460.52,1350.14l18,2a3.42,3.42,0,0,0,3.6-1.94,25.61,25.61,0,0,0,1.47-8.31,3.42,3.42,0,0,0-2.72-3.06l-17.62-4.25c-1.32-.31-1.71-3.54-1.71-3.54l-5.15-1.38a2.63,2.63,0,0,0-3.18,2.33c-0.61,3.42-.91,5.14-1.51,8.56s-0.9,5.13-1.51,8.56a2.63,2.63,0,0,0,2.19,3.27l5.32,0.46S1459.17,1350,1460.52,1350.14Z" transform="translate(-1088.26 -1080.05)"/><path class="cls-9" d="M1463.26,1322.75l17.62-4.24a3.44,3.44,0,0,0,2.71-3.06,25.74,25.74,0,0,0-1.47-8.31,3.44,3.44,0,0,0-3.6-1.94l-18,2c-1.36.15-2.81-2.75-2.81-2.75l-5.31.46a2.63,2.63,0,0,0-2.2,3.27c0.6,3.43.9,5.14,1.5,8.56s0.91,5.14,1.51,8.57a2.64,2.64,0,0,0,3.19,2.32l5.15-1.38S1461.93,1323.06,1463.26,1322.75Z" transform="translate(-1088.26 -1080.05)"/><path class="cls-9" d="M1456.46,1296.07l15.1-10a3.43,3.43,0,0,0,1.51-3.8,25.88,25.88,0,0,0-4.21-7.3,3.42,3.42,0,0,0-4-.6l-16.23,8.07c-1.21.6-3.58-1.62-3.58-1.62l-4.84,2.25a2.64,2.64,0,0,0-.93,3.83c1.74,3,2.6,4.51,4.34,7.52l4.34,7.53a2.65,2.65,0,0,0,3.8,1.1l4.36-3.06S1455.32,1296.82,1456.46,1296.07Z" transform="translate(-1088.26 -1080.05)"/><path class="cls-9" d="M1440.95,1273.32l10.77-14.57a3.44,3.44,0,0,0,.12-4.09,25.83,25.83,0,0,0-6.46-5.42,3.44,3.44,0,0,0-4,.82l-12.48,13.14c-0.93,1-3.92-.29-3.92-0.29l-3.77,3.76a2.63,2.63,0,0,0,.43,3.92l6.65,5.59,6.66,5.59a2.63,2.63,0,0,0,3.93-.26l3.06-4.37S1440.14,1274.42,1440.95,1273.32Z" transform="translate(-1088.26 -1080.05)"/><path class="cls-9" d="M1418.59,1257.26c0.38-1.3,5.14-17.38,5.14-17.38a3.42,3.42,0,0,0-1.3-3.88,25.48,25.48,0,0,0-7.92-2.89,3.42,3.42,0,0,0-3.49,2.15l-7.24,16.61c-0.54,1.24-3.78,1.07-3.78,1.07l-2.27,4.83a2.63,2.63,0,0,0,1.74,3.54l8.17,3,8.16,3a2.64,2.64,0,0,0,3.61-1.59l1.38-5.15S1418.2,1258.56,1418.59,1257.26Z" transform="translate(-1088.26 -1080.05)"/><path class="cls-11" d="M1475.94,1174.92a54.83,54.83,0,1,1-54.83-54.83A54.83,54.83,0,0,1,1475.94,1174.92Zm-54.83-39.76a39.76,39.76,0,1,0,39.76,39.76A39.77,39.77,0,0,0,1421.11,1135.16Z" transform="translate(-1088.26 -1080.05)"/><path class="cls-11" d="M1426.7,1119c-0.06-1-.79-12.83-0.79-12.83a2.43,2.43,0,0,0-1.8-2.27,18.08,18.08,0,0,0-6,0,2.43,2.43,0,0,0-1.8,2.27s-0.74,11.87-.79,12.83-2.26,1.63-2.26,1.63c-0.14,1.5-.2,2.26-0.33,3.77a1.87,1.87,0,0,0,2,1.94h12.34a1.87,1.87,0,0,0,2-1.94c-0.13-1.51-.2-2.26-0.33-3.77C1429,1120.59,1426.76,1119.92,1426.7,1119Z" transform="translate(-1088.26 -1080.05)"/><path class="cls-11" d="M1407.22,1120.43l-5.13-11.79a2.44,2.44,0,0,0-2.48-1.53,18,18,0,0,0-5.62,2,2.42,2.42,0,0,0-.92,2.75s3.37,11.4,3.65,12.33-1.58,2.31-1.58,2.31c0.39,1.46.58,2.19,1,3.66a1.86,1.86,0,0,0,2.55,1.13l5.8-2.11,5.8-2.11a1.87,1.87,0,0,0,1.23-2.51l-1.61-3.43S1407.6,1121.31,1407.22,1120.43Z" transform="translate(-1088.26 -1080.05)"/><path class="cls-11" d="M1389.42,1128.46l-8.85-9.32a2.45,2.45,0,0,0-2.85-.58,18.4,18.4,0,0,0-4.58,3.84,2.43,2.43,0,0,0,.09,2.9l7.64,10.34c0.57,0.78-.69,2.71-0.69,2.71l2.17,3.1a1.87,1.87,0,0,0,2.79.19l4.73-4,4.73-4a1.87,1.87,0,0,0,.3-2.78l-2.68-2.67S1390.08,1129.16,1389.42,1128.46Z" transform="translate(-1088.26 -1080.05)"/><path class="cls-11" d="M1375.44,1142.1l-11.51-5.72a2.42,2.42,0,0,0-2.87.42,18.26,18.26,0,0,0-3,5.18,2.44,2.44,0,0,0,1.08,2.7l10.72,7.1c0.81,0.53.28,2.78,0.28,2.78l3.09,2.17a1.86,1.86,0,0,0,2.68-.78l3.09-5.34,3.09-5.34a1.87,1.87,0,0,0-.67-2.72L1378,1141S1376.31,1142.53,1375.44,1142.1Z" transform="translate(-1088.26 -1080.05)"/><path class="cls-11" d="M1367,1159.71l-12.78-1.45a2.44,2.44,0,0,0-2.55,1.38,18.21,18.21,0,0,0-1,5.9,2.42,2.42,0,0,0,1.93,2.17l12.5,3c0.94,0.23,1.21,2.51,1.21,2.51l3.65,1a1.87,1.87,0,0,0,2.26-1.65c0.43-2.43.64-3.64,1.07-6.08s0.64-3.64,1.07-6.07a1.87,1.87,0,0,0-1.56-2.32l-3.77-.33S1367.93,1159.81,1367,1159.71Z" transform="translate(-1088.26 -1080.05)"/><path class="cls-11" d="M1365,1179.14l-12.5,3a2.44,2.44,0,0,0-1.93,2.17,18.24,18.24,0,0,0,1,5.89,2.43,2.43,0,0,0,2.55,1.38l12.78-1.44c1-.11,2,1.95,2,1.95l3.77-.32a1.86,1.86,0,0,0,1.55-2.32c-0.42-2.43-.64-3.64-1.06-6.07l-1.07-6.07a1.87,1.87,0,0,0-2.26-1.65l-3.65,1S1366,1178.91,1365,1179.14Z" transform="translate(-1088.26 -1080.05)"/><path class="cls-11" d="M1369.85,1198.07l-10.72,7.1a2.45,2.45,0,0,0-1.08,2.7,18.2,18.2,0,0,0,3,5.18,2.43,2.43,0,0,0,2.87.43l11.51-5.73c0.86-.43,2.54,1.14,2.54,1.14l3.43-1.59a1.87,1.87,0,0,0,.67-2.71l-3.08-5.34-3.08-5.34a1.88,1.88,0,0,0-2.69-.78l-3.1,2.17S1370.66,1197.54,1369.85,1198.07Z" transform="translate(-1088.26 -1080.05)"/><path class="cls-11" d="M1380.85,1214.2l-7.64,10.34a2.45,2.45,0,0,0-.09,2.91,18.3,18.3,0,0,0,4.58,3.84,2.44,2.44,0,0,0,2.85-.58l8.86-9.32c0.66-.7,2.78.21,2.78,0.21l2.68-2.67a1.87,1.87,0,0,0-.31-2.78l-4.72-4-4.73-4a1.86,1.86,0,0,0-2.79.19l-2.16,3.1S1381.43,1213.43,1380.85,1214.2Z" transform="translate(-1088.26 -1080.05)"/><path class="cls-11" d="M1396.72,1225.6c-0.27.93-3.64,12.33-3.64,12.33a2.44,2.44,0,0,0,.92,2.76,18.06,18.06,0,0,0,5.62,2,2.42,2.42,0,0,0,2.47-1.52s4.75-10.9,5.13-11.79,2.68-.76,2.68-0.76l1.61-3.43a1.87,1.87,0,0,0-1.23-2.51l-5.8-2.11-5.8-2.11a1.86,1.86,0,0,0-2.56,1.13c-0.39,1.46-.59,2.19-1,3.66C1395.15,1223.29,1397,1224.67,1396.72,1225.6Z" transform="translate(-1088.26 -1080.05)"/><path class="cls-11" d="M1415.52,1230.88c0.06,1,.79,12.84.79,12.84a2.44,2.44,0,0,0,1.81,2.27,18.12,18.12,0,0,0,6,0,2.42,2.42,0,0,0,1.8-2.27s0.73-11.87.8-12.84,2.26-1.63,2.26-1.63c0.13-1.51.2-2.26,0.33-3.77a1.87,1.87,0,0,0-2-1.94h-12.34a1.87,1.87,0,0,0-2,1.94c0.13,1.51.2,2.26,0.33,3.77C1413.26,1229.26,1415.46,1229.92,1415.52,1230.88Z" transform="translate(-1088.26 -1080.05)"/><path class="cls-11" d="M1435,1229.42l5.13,11.79a2.42,2.42,0,0,0,2.47,1.52,18.09,18.09,0,0,0,5.62-2,2.45,2.45,0,0,0,.92-2.76l-3.65-12.33c-0.27-.92,1.57-2.3,1.57-2.3l-1-3.66a1.86,1.86,0,0,0-2.56-1.13l-5.8,2.1-5.79,2.11a1.86,1.86,0,0,0-1.23,2.51c0.64,1.37,1,2.06,1.6,3.43C1432.31,1228.67,1434.62,1228.53,1435,1229.42Z" transform="translate(-1088.26 -1080.05)"/><path class="cls-11" d="M1452.8,1221.39l8.85,9.32a2.44,2.44,0,0,0,2.85.58,18.32,18.32,0,0,0,4.58-3.84,2.44,2.44,0,0,0-.08-2.91l-7.64-10.34c-0.57-.78.69-2.71,0.69-2.71l-2.17-3.1a1.86,1.86,0,0,0-2.78-.19l-4.73,4-4.73,4a1.87,1.87,0,0,0-.3,2.78l2.68,2.67S1452.14,1220.69,1452.8,1221.39Z" transform="translate(-1088.26 -1080.05)"/><path class="cls-11" d="M1466.78,1207.75l11.51,5.73a2.43,2.43,0,0,0,2.87-.43,18.25,18.25,0,0,0,3-5.18,2.43,2.43,0,0,0-1.07-2.7l-10.71-7.1c-0.81-.54-0.28-2.78-0.28-2.78l-3.1-2.17a1.87,1.87,0,0,0-2.69.78l-3.08,5.34-3.09,5.34a1.87,1.87,0,0,0,.66,2.72l3.43,1.59S1465.92,1207.31,1466.78,1207.75Z" transform="translate(-1088.26 -1080.05)"/><path class="cls-11" d="M1475.25,1190.14l12.78,1.44a2.43,2.43,0,0,0,2.55-1.38,18.17,18.17,0,0,0,1-5.89,2.43,2.43,0,0,0-1.93-2.17l-12.5-3c-0.94-.22-1.21-2.51-1.21-2.51l-3.65-1a1.87,1.87,0,0,0-2.26,1.65c-0.43,2.43-.64,3.64-1.07,6.07s-0.64,3.64-1.07,6.07a1.87,1.87,0,0,0,1.55,2.32l3.77,0.33S1474.29,1190,1475.25,1190.14Z" transform="translate(-1088.26 -1080.05)"/><path class="cls-11" d="M1477.19,1170.71l12.5-3a2.44,2.44,0,0,0,1.93-2.17,18.26,18.26,0,0,0-1-5.9,2.44,2.44,0,0,0-2.55-1.38l-12.78,1.45c-1,.11-2-1.95-2-1.95l-3.77.32a1.86,1.86,0,0,0-1.56,2.32c0.43,2.43.64,3.65,1.07,6.07s0.64,3.65,1.07,6.08a1.87,1.87,0,0,0,2.26,1.65l3.65-1S1476.25,1170.93,1477.19,1170.71Z" transform="translate(-1088.26 -1080.05)"/><path class="cls-11" d="M1472.37,1151.78l10.71-7.11a2.44,2.44,0,0,0,1.07-2.7,18.36,18.36,0,0,0-3-5.18,2.43,2.43,0,0,0-2.87-.42l-11.51,5.73c-0.86.43-2.54-1.15-2.54-1.15l-3.44,1.6a1.87,1.87,0,0,0-.66,2.72l3.08,5.34,3.08,5.34a1.88,1.88,0,0,0,2.69.78l3.1-2.17S1471.56,1152.31,1472.37,1151.78Z" transform="translate(-1088.26 -1080.05)"/><path class="cls-11" d="M1461.36,1135.64l7.64-10.34a2.44,2.44,0,0,0,.09-2.91,18.33,18.33,0,0,0-4.58-3.84,2.44,2.44,0,0,0-2.85.58l-8.85,9.32c-0.66.7-2.78-.21-2.78-0.21l-2.68,2.67a1.86,1.86,0,0,0,.31,2.78l4.72,4,4.72,4a1.87,1.87,0,0,0,2.79-.19l2.17-3.1S1460.79,1136.42,1461.36,1135.64Z" transform="translate(-1088.26 -1080.05)"/><path class="cls-11" d="M1445.5,1124.25l3.64-12.33a2.43,2.43,0,0,0-.92-2.75,18.08,18.08,0,0,0-5.62-2,2.43,2.43,0,0,0-2.47,1.53l-5.13,11.79c-0.39.88-2.68,0.76-2.68,0.76l-1.61,3.43a1.87,1.87,0,0,0,1.24,2.51l5.79,2.1,5.79,2.12a1.87,1.87,0,0,0,2.56-1.13l1-3.66S1445.23,1125.17,1445.5,1124.25Z" transform="translate(-1088.26 -1080.05)"/><path class="cls-12" d="M1572.32,1333a37.46,37.46,0,1,1-37.46-37.46A37.47,37.47,0,0,1,1572.32,1333Zm-37.46-27.17A27.17,27.17,0,1,0,1562,1333,27.17,27.17,0,0,0,1534.86,1305.79Z" transform="translate(-1088.26 -1080.05)"/><path class="cls-12" d="M1538.67,1294.72c0-.66-0.54-8.77-0.54-8.77a1.66,1.66,0,0,0-1.23-1.55,12.35,12.35,0,0,0-4.09,0,1.66,1.66,0,0,0-1.23,1.55l-0.54,8.77c0,0.66-1.55,1.11-1.55,1.11-0.09,1-.14,1.54-0.23,2.58a1.28,1.28,0,0,0,1.38,1.32h8.43a1.28,1.28,0,0,0,1.38-1.32c-0.09-1-.14-1.55-0.23-2.58C1540.22,1295.83,1538.71,1295.38,1538.67,1294.72Z" transform="translate(-1088.26 -1080.05)"/><path class="cls-12" d="M1525.37,1295.72l-3.51-8.05a1.66,1.66,0,0,0-1.69-1,12.31,12.31,0,0,0-3.84,1.4,1.66,1.66,0,0,0-.63,1.88l2.5,8.43c0.18,0.63-1.08,1.58-1.08,1.58,0.26,1,.4,1.5.67,2.5a1.27,1.27,0,0,0,1.74.77l4-1.44,4-1.44a1.28,1.28,0,0,0,.84-1.71l-1.1-2.34S1525.63,1296.32,1525.37,1295.72Z" transform="translate(-1088.26 -1080.05)"/><path class="cls-12" d="M1513.2,1301.21l-6-6.37a1.67,1.67,0,0,0-1.95-.4,12.57,12.57,0,0,0-3.13,2.63,1.66,1.66,0,0,0,.06,2l5.22,7.07c0.39,0.53-.47,1.85-0.47,1.85l1.48,2.12a1.28,1.28,0,0,0,1.9.13l3.23-2.71,3.23-2.71a1.28,1.28,0,0,0,.2-1.9l-1.83-1.82S1513.66,1301.69,1513.2,1301.21Z" transform="translate(-1088.26 -1080.05)"/><path class="cls-12" d="M1503.65,1310.53l-7.87-3.91a1.65,1.65,0,0,0-2,.29,12.48,12.48,0,0,0-2,3.54,1.67,1.67,0,0,0,.73,1.84l7.32,4.85c0.55,0.36.19,1.9,0.19,1.9l2.11,1.49a1.27,1.27,0,0,0,1.83-.53l2.11-3.65,2.11-3.65a1.28,1.28,0,0,0-.46-1.86l-2.34-1.09S1504.24,1310.83,1503.65,1310.53Z" transform="translate(-1088.26 -1080.05)"/><path class="cls-12" d="M1497.86,1322.56l-8.73-1a1.66,1.66,0,0,0-1.74.94,12.44,12.44,0,0,0-.71,4A1.65,1.65,0,0,0,1488,1328l8.54,2.06c0.64,0.15.83,1.71,0.83,1.71l2.5,0.67a1.28,1.28,0,0,0,1.54-1.13l0.73-4.15c0.29-1.66.44-2.49,0.73-4.15a1.28,1.28,0,0,0-1.07-1.58l-2.57-.22S1498.52,1322.63,1497.86,1322.56Z" transform="translate(-1088.26 -1080.05)"/><path class="cls-12" d="M1496.54,1335.83l-8.54,2.05a1.67,1.67,0,0,0-1.32,1.49,12.46,12.46,0,0,0,.71,4,1.66,1.66,0,0,0,1.74.94l8.73-1c0.66-.07,1.36,1.33,1.36,1.33l2.57-.22a1.27,1.27,0,0,0,1.06-1.59c-0.29-1.66-.44-2.49-0.73-4.15l-0.73-4.15a1.28,1.28,0,0,0-1.54-1.13l-2.5.67S1497.18,1335.68,1496.54,1335.83Z" transform="translate(-1088.26 -1080.05)"/><path class="cls-12" d="M1499.83,1348.77l-7.32,4.85a1.67,1.67,0,0,0-.73,1.84,12.44,12.44,0,0,0,2,3.54,1.66,1.66,0,0,0,2,.29l7.87-3.91c0.59-.3,1.74.78,1.74,0.78l2.34-1.09a1.28,1.28,0,0,0,.46-1.85l-2.11-3.65-2.11-3.65a1.28,1.28,0,0,0-1.84-.53l-2.12,1.49S1500.38,1348.41,1499.83,1348.77Z" transform="translate(-1088.26 -1080.05)"/><path class="cls-12" d="M1507.35,1359.79l-5.22,7.06a1.67,1.67,0,0,0-.06,2,12.5,12.5,0,0,0,3.13,2.62,1.67,1.67,0,0,0,1.95-.4l6.05-6.37c0.45-.48,1.9.14,1.9,0.14l1.83-1.83a1.28,1.28,0,0,0-.21-1.9l-3.23-2.71-3.23-2.71a1.27,1.27,0,0,0-1.9.13l-1.48,2.12S1507.74,1359.26,1507.35,1359.79Z" transform="translate(-1088.26 -1080.05)"/><path class="cls-12" d="M1518.19,1367.58c-0.18.64-2.49,8.43-2.49,8.43a1.67,1.67,0,0,0,.63,1.89,12.34,12.34,0,0,0,3.84,1.4,1.65,1.65,0,0,0,1.69-1l3.51-8.05c0.26-.6,1.83-0.52,1.83-0.52l1.1-2.34a1.28,1.28,0,0,0-.84-1.71l-4-1.44-4-1.44a1.27,1.27,0,0,0-1.75.77c-0.27,1-.4,1.5-0.67,2.5C1517.12,1366,1518.38,1366.95,1518.19,1367.58Z" transform="translate(-1088.26 -1080.05)"/><path class="cls-12" d="M1531,1371.19c0,0.66.54,8.77,0.54,8.77a1.66,1.66,0,0,0,1.23,1.55,12.38,12.38,0,0,0,4.09,0,1.66,1.66,0,0,0,1.23-1.55s0.5-8.11.54-8.77,1.55-1.11,1.55-1.11c0.09-1,.14-1.54.23-2.58a1.28,1.28,0,0,0-1.38-1.33h-8.43a1.28,1.28,0,0,0-1.38,1.33c0.09,1,.14,1.54.23,2.58C1529.49,1370.08,1531,1370.53,1531,1371.19Z" transform="translate(-1088.26 -1080.05)"/><path class="cls-12" d="M1544.35,1370.19l3.51,8.05a1.65,1.65,0,0,0,1.69,1,12.36,12.36,0,0,0,3.84-1.4,1.67,1.67,0,0,0,.63-1.89l-2.49-8.43c-0.19-.63,1.07-1.57,1.07-1.57l-0.67-2.5a1.27,1.27,0,0,0-1.75-.77l-4,1.44-4,1.44a1.27,1.27,0,0,0-.84,1.71l1.09,2.34S1544.08,1369.58,1544.35,1370.19Z" transform="translate(-1088.26 -1080.05)"/><path class="cls-12" d="M1556.51,1364.7l6,6.37a1.66,1.66,0,0,0,1.95.4,12.52,12.52,0,0,0,3.13-2.62,1.67,1.67,0,0,0-.06-2l-5.22-7.06c-0.39-.53.47-1.85,0.47-1.85l-1.48-2.12a1.27,1.27,0,0,0-1.9-.13l-3.23,2.71-3.23,2.71a1.28,1.28,0,0,0-.21,1.9l1.83,1.83S1556.06,1364.22,1556.51,1364.7Z" transform="translate(-1088.26 -1080.05)"/><path class="cls-12" d="M1566.06,1355.38l7.87,3.91a1.66,1.66,0,0,0,2-.29,12.47,12.47,0,0,0,2-3.54,1.66,1.66,0,0,0-.73-1.84l-7.32-4.85c-0.55-.37-0.19-1.9-0.19-1.9l-2.12-1.49a1.28,1.28,0,0,0-1.84.53l-2.11,3.65-2.11,3.65a1.28,1.28,0,0,0,.45,1.86l2.35,1.09S1565.47,1355.09,1566.06,1355.38Z" transform="translate(-1088.26 -1080.05)"/><path class="cls-12" d="M1571.85,1343.36l8.73,1a1.66,1.66,0,0,0,1.74-.94,12.41,12.41,0,0,0,.71-4,1.66,1.66,0,0,0-1.32-1.48l-8.54-2.06c-0.64-.15-0.83-1.72-0.83-1.72l-2.5-.67a1.27,1.27,0,0,0-1.54,1.13c-0.3,1.66-.44,2.49-0.73,4.15l-0.73,4.15a1.28,1.28,0,0,0,1.06,1.59l2.58,0.22S1571.19,1343.28,1571.85,1343.36Z" transform="translate(-1088.26 -1080.05)"/><path class="cls-12" d="M1573.18,1330.08l8.54-2.06a1.67,1.67,0,0,0,1.32-1.49,12.48,12.48,0,0,0-.71-4,1.67,1.67,0,0,0-1.74-.94l-8.73,1c-0.66.07-1.36-1.33-1.36-1.33l-2.58.22a1.27,1.27,0,0,0-1.07,1.58l0.73,4.15c0.3,1.66.44,2.49,0.73,4.15a1.28,1.28,0,0,0,1.54,1.13l2.5-.67S1572.53,1330.23,1573.18,1330.08Z" transform="translate(-1088.26 -1080.05)"/><path class="cls-12" d="M1569.88,1317.14l7.32-4.86a1.66,1.66,0,0,0,.73-1.84,12.55,12.55,0,0,0-2-3.54,1.66,1.66,0,0,0-2-.29l-7.87,3.91c-0.59.29-1.74-.79-1.74-0.79l-2.35,1.09a1.28,1.28,0,0,0-.45,1.86l2.1,3.65,2.1,3.65a1.29,1.29,0,0,0,1.84.53l2.12-1.49S1569.33,1317.51,1569.88,1317.14Z" transform="translate(-1088.26 -1080.05)"/><path class="cls-12" d="M1562.36,1306.12l5.22-7.06a1.67,1.67,0,0,0,.06-2,12.52,12.52,0,0,0-3.13-2.63,1.67,1.67,0,0,0-1.95.4l-6,6.37c-0.45.48-1.9-.14-1.9-0.14l-1.83,1.83a1.27,1.27,0,0,0,.21,1.9l3.23,2.71,3.23,2.71a1.28,1.28,0,0,0,1.9-.13l1.48-2.12S1562,1306.65,1562.36,1306.12Z" transform="translate(-1088.26 -1080.05)"/><path class="cls-12" d="M1551.52,1298.33l2.49-8.43a1.66,1.66,0,0,0-.63-1.88,12.35,12.35,0,0,0-3.84-1.4,1.66,1.66,0,0,0-1.69,1l-3.51,8.05c-0.26.6-1.83,0.52-1.83,0.52l-1.1,2.34a1.28,1.28,0,0,0,.85,1.72l4,1.44,4,1.45a1.28,1.28,0,0,0,1.75-.77l0.67-2.5S1551.33,1299,1551.52,1298.33Z" transform="translate(-1088.26 -1080.05)"/><path class="cls-12" d="M1548.53,1241.41a35.85,35.85,0,1,1-35.85-35.85A35.86,35.86,0,0,1,1548.53,1241.41Zm-35.85-26a26,26,0,1,0,26,26A26,26,0,0,0,1512.68,1215.41Z" transform="translate(-1088.26 -1080.05)"/><path class="cls-12" d="M1516.33,1204.82c0-.63-0.52-8.39-0.52-8.39a1.59,1.59,0,0,0-1.18-1.49,11.82,11.82,0,0,0-3.91,0,1.59,1.59,0,0,0-1.18,1.49l-0.52,8.39c0,0.63-1.48,1.07-1.48,1.07-0.09,1-.13,1.48-0.22,2.46a1.22,1.22,0,0,0,1.32,1.27h8.07a1.22,1.22,0,0,0,1.32-1.27c-0.09-1-.13-1.48-0.22-2.46C1517.81,1205.88,1516.37,1205.45,1516.33,1204.82Z" transform="translate(-1088.26 -1080.05)"/><path class="cls-12" d="M1503.6,1205.78l-3.36-7.71a1.59,1.59,0,0,0-1.62-1,11.78,11.78,0,0,0-3.67,1.34,1.58,1.58,0,0,0-.6,1.8l2.39,8.06c0.18,0.6-1,1.51-1,1.51l0.64,2.39a1.22,1.22,0,0,0,1.67.74l3.79-1.38,3.79-1.38a1.22,1.22,0,0,0,.81-1.64l-1-2.24S1503.85,1206.35,1503.6,1205.78Z" transform="translate(-1088.26 -1080.05)"/><path class="cls-12" d="M1492,1211l-5.79-6.09a1.6,1.6,0,0,0-1.87-.38,12,12,0,0,0-3,2.51,1.59,1.59,0,0,0,.06,1.9l5,6.76c0.37,0.51-.45,1.77-0.45,1.77l1.42,2a1.22,1.22,0,0,0,1.82.13l3.09-2.59,3.09-2.59a1.22,1.22,0,0,0,.2-1.82l-1.75-1.75S1492.39,1211.49,1492,1211Z" transform="translate(-1088.26 -1080.05)"/><path class="cls-12" d="M1482.81,1220l-7.53-3.74a1.58,1.58,0,0,0-1.88.28,11.94,11.94,0,0,0-2,3.39,1.6,1.6,0,0,0,.7,1.76l7,4.64c0.53,0.35.18,1.82,0.18,1.82l2,1.42a1.22,1.22,0,0,0,1.76-.51l2-3.49,2-3.49a1.22,1.22,0,0,0-.44-1.78l-2.24-1S1483.38,1220.23,1482.81,1220Z" transform="translate(-1088.26 -1080.05)"/><path class="cls-12" d="M1477.28,1231.46l-8.36-.95a1.59,1.59,0,0,0-1.67.9,11.91,11.91,0,0,0-.68,3.86,1.58,1.58,0,0,0,1.26,1.42l8.17,2c0.61,0.15.79,1.64,0.79,1.64l2.39,0.64a1.22,1.22,0,0,0,1.47-1.08l0.7-4c0.28-1.59.42-2.38,0.7-4a1.22,1.22,0,0,0-1-1.52l-2.46-.21S1477.9,1231.53,1477.28,1231.46Z" transform="translate(-1088.26 -1080.05)"/><path class="cls-12" d="M1476,1244.17l-8.17,2a1.59,1.59,0,0,0-1.26,1.42,11.93,11.93,0,0,0,.68,3.85,1.59,1.59,0,0,0,1.67.9l8.36-.94c0.63-.07,1.31,1.27,1.31,1.27l2.46-.21a1.22,1.22,0,0,0,1-1.52c-0.28-1.59-.42-2.38-0.7-4l-0.7-4a1.22,1.22,0,0,0-1.48-1.08l-2.39.64S1476.62,1244,1476,1244.17Z" transform="translate(-1088.26 -1080.05)"/><path class="cls-12" d="M1479.16,1256.55l-7,4.64a1.6,1.6,0,0,0-.7,1.77,11.9,11.9,0,0,0,2,3.39,1.59,1.59,0,0,0,1.88.28l7.53-3.74c0.56-.28,1.66.75,1.66,0.75l2.24-1a1.22,1.22,0,0,0,.44-1.78l-2-3.49-2-3.49a1.23,1.23,0,0,0-1.76-.51l-2,1.42S1479.69,1256.2,1479.16,1256.55Z" transform="translate(-1088.26 -1080.05)"/><path class="cls-12" d="M1486.36,1267.1l-5,6.76a1.6,1.6,0,0,0-.06,1.9,12,12,0,0,0,3,2.51,1.6,1.6,0,0,0,1.87-.38l5.79-6.1c0.43-.46,1.82.14,1.82,0.14l1.75-1.75a1.22,1.22,0,0,0-.2-1.82l-3.09-2.59-3.09-2.59a1.22,1.22,0,0,0-1.82.12l-1.42,2S1486.73,1266.59,1486.36,1267.1Z" transform="translate(-1088.26 -1080.05)"/><path class="cls-12" d="M1496.73,1274.55l-2.38,8.06a1.6,1.6,0,0,0,.6,1.8,11.81,11.81,0,0,0,3.67,1.34,1.58,1.58,0,0,0,1.62-1l3.36-7.71c0.25-.58,1.75-0.49,1.75-0.49l1.05-2.24a1.22,1.22,0,0,0-.81-1.64l-3.79-1.38-3.79-1.38a1.22,1.22,0,0,0-1.67.74l-0.64,2.39S1496.91,1273.94,1496.73,1274.55Z" transform="translate(-1088.26 -1080.05)"/><path class="cls-12" d="M1509,1278c0,0.63.52,8.39,0.52,8.39a1.59,1.59,0,0,0,1.18,1.49,11.85,11.85,0,0,0,3.91,0,1.58,1.58,0,0,0,1.18-1.49s0.48-7.76.52-8.39,1.48-1.06,1.48-1.06c0.09-1,.13-1.48.22-2.46a1.22,1.22,0,0,0-1.32-1.27h-8.07a1.22,1.22,0,0,0-1.32,1.27c0.09,1,.13,1.48.22,2.46C1507.55,1276.94,1509,1277.38,1509,1278Z" transform="translate(-1088.26 -1080.05)"/><path class="cls-12" d="M1521.76,1277l3.36,7.71a1.58,1.58,0,0,0,1.62,1,11.83,11.83,0,0,0,3.68-1.34,1.6,1.6,0,0,0,.6-1.8l-2.39-8.06c-0.18-.6,1-1.5,1-1.5l-0.64-2.39a1.22,1.22,0,0,0-1.67-.74l-3.79,1.37-3.79,1.38a1.22,1.22,0,0,0-.81,1.64l1,2.24S1521.51,1276.47,1521.76,1277Z" transform="translate(-1088.26 -1080.05)"/><path class="cls-12" d="M1533.4,1271.79l5.79,6.1a1.59,1.59,0,0,0,1.86.38,12,12,0,0,0,3-2.51,1.6,1.6,0,0,0-.05-1.9l-5-6.76c-0.37-.51.45-1.77,0.45-1.77l-1.42-2a1.21,1.21,0,0,0-1.82-.12l-3.09,2.59-3.09,2.59a1.23,1.23,0,0,0-.2,1.82l1.75,1.75S1533,1271.34,1533.4,1271.79Z" transform="translate(-1088.26 -1080.05)"/><path class="cls-12" d="M1542.54,1262.88l7.53,3.75a1.59,1.59,0,0,0,1.88-.28,11.93,11.93,0,0,0,2-3.39,1.59,1.59,0,0,0-.7-1.77l-7-4.64c-0.53-.35-0.18-1.82-0.18-1.82l-2-1.42a1.22,1.22,0,0,0-1.76.51l-2,3.49-2,3.49a1.22,1.22,0,0,0,.43,1.78l2.25,1S1542,1262.59,1542.54,1262.88Z" transform="translate(-1088.26 -1080.05)"/><path class="cls-12" d="M1548.08,1251.37l8.35,0.94a1.59,1.59,0,0,0,1.67-.9,11.88,11.88,0,0,0,.68-3.85,1.59,1.59,0,0,0-1.26-1.42l-8.17-2c-0.61-.14-0.79-1.64-0.79-1.64l-2.39-.64a1.22,1.22,0,0,0-1.48,1.08c-0.28,1.59-.42,2.38-0.7,4l-0.7,4a1.22,1.22,0,0,0,1,1.52l2.47,0.21S1547.45,1251.29,1548.08,1251.37Z" transform="translate(-1088.26 -1080.05)"/><path class="cls-12" d="M1549.35,1238.66l8.18-2a1.6,1.6,0,0,0,1.26-1.42,11.94,11.94,0,0,0-.68-3.86,1.6,1.6,0,0,0-1.67-.9l-8.35.95c-0.63.07-1.3-1.27-1.3-1.27l-2.46.21a1.22,1.22,0,0,0-1,1.52l0.7,4c0.28,1.59.42,2.38,0.7,4a1.22,1.22,0,0,0,1.48,1.08l2.39-.64S1548.74,1238.8,1549.35,1238.66Z" transform="translate(-1088.26 -1080.05)"/><path class="cls-12" d="M1546.2,1226.28l7-4.65a1.59,1.59,0,0,0,.7-1.77,12,12,0,0,0-2-3.39,1.59,1.59,0,0,0-1.88-.28l-7.53,3.75c-0.56.28-1.66-.75-1.66-0.75l-2.25,1a1.22,1.22,0,0,0-.43,1.78l2,3.49,2,3.49a1.23,1.23,0,0,0,1.76.51l2-1.42S1545.67,1226.63,1546.2,1226.28Z" transform="translate(-1088.26 -1080.05)"/><path class="cls-12" d="M1539,1215.73l5-6.76a1.6,1.6,0,0,0,.06-1.9,12,12,0,0,0-3-2.51,1.6,1.6,0,0,0-1.86.38l-5.79,6.09c-0.43.46-1.82-.14-1.82-0.14l-1.75,1.75a1.22,1.22,0,0,0,.2,1.82l3.09,2.59,3.09,2.59a1.22,1.22,0,0,0,1.82-.12l1.42-2S1538.63,1216.24,1539,1215.73Z" transform="translate(-1088.26 -1080.05)"/><path class="cls-12" d="M1528.63,1208.28l2.38-8.06a1.59,1.59,0,0,0-.6-1.8,11.82,11.82,0,0,0-3.67-1.34,1.59,1.59,0,0,0-1.62,1l-3.36,7.71c-0.25.58-1.75,0.49-1.75,0.49l-1.05,2.24a1.22,1.22,0,0,0,.81,1.64l3.79,1.38,3.79,1.38a1.22,1.22,0,0,0,1.67-.74l0.64-2.39S1528.45,1208.88,1528.63,1208.28Z" transform="translate(-1088.26 -1080.05)"/><path class="cls-13" d="M1638.5,1314.54a26.46,26.46,0,1,1-26.46-26.46A26.46,26.46,0,0,1,1638.5,1314.54ZM1612,1295.35a19.19,19.19,0,1,0,19.19,19.19A19.19,19.19,0,0,0,1612,1295.35Z" transform="translate(-1088.26 -1080.05)"/><path class="cls-13" d="M1614.74,1287.53c0-.46-0.38-6.19-0.38-6.19a1.17,1.17,0,0,0-.87-1.1,8.72,8.72,0,0,0-2.89,0,1.17,1.17,0,0,0-.87,1.1l-0.38,6.19c0,0.46-1.09.79-1.09,0.79-0.07.73-.1,1.09-0.16,1.82a0.9,0.9,0,0,0,1,.94h6a0.9,0.9,0,0,0,1-.94c-0.06-.73-0.1-1.09-0.16-1.82C1615.83,1288.32,1614.76,1288,1614.74,1287.53Z" transform="translate(-1088.26 -1080.05)"/><path class="cls-13" d="M1605.34,1288.24l-2.48-5.69a1.18,1.18,0,0,0-1.2-.74,8.69,8.69,0,0,0-2.71,1,1.17,1.17,0,0,0-.44,1.33l1.76,6c0.13,0.45-.76,1.11-0.76,1.11L1600,1293a0.9,0.9,0,0,0,1.23.55l2.8-1,2.8-1a0.9,0.9,0,0,0,.6-1.21l-0.77-1.65S1605.52,1288.67,1605.34,1288.24Z" transform="translate(-1088.26 -1080.05)"/><path class="cls-13" d="M1596.75,1292.12l-4.27-4.5a1.18,1.18,0,0,0-1.38-.28,8.88,8.88,0,0,0-2.21,1.85,1.17,1.17,0,0,0,0,1.4l3.69,5c0.28,0.38-.33,1.31-0.33,1.31l1,1.49a0.9,0.9,0,0,0,1.35.09l2.28-1.91,2.28-1.91a0.9,0.9,0,0,0,.14-1.34l-1.29-1.29S1597.07,1292.46,1596.75,1292.12Z" transform="translate(-1088.26 -1080.05)"/><path class="cls-13" d="M1590,1298.7l-5.56-2.76a1.17,1.17,0,0,0-1.39.2,8.81,8.81,0,0,0-1.45,2.5,1.18,1.18,0,0,0,.52,1.3l5.17,3.43c0.39,0.26.13,1.34,0.13,1.34l1.49,1a0.9,0.9,0,0,0,1.3-.38l1.49-2.58,1.49-2.58a0.9,0.9,0,0,0-.32-1.31l-1.65-.77S1590.42,1298.91,1590,1298.7Z" transform="translate(-1088.26 -1080.05)"/><path class="cls-13" d="M1585.91,1307.2l-6.17-.7a1.18,1.18,0,0,0-1.23.66,8.79,8.79,0,0,0-.5,2.85,1.17,1.17,0,0,0,.93,1l6,1.45c0.45,0.11.59,1.21,0.59,1.21l1.76,0.48a0.9,0.9,0,0,0,1.09-.8l0.52-2.93c0.2-1.17.31-1.76,0.52-2.93a0.9,0.9,0,0,0-.75-1.12l-1.82-.16S1586.37,1307.25,1585.91,1307.2Z" transform="translate(-1088.26 -1080.05)"/><path class="cls-13" d="M1585,1316.57l-6,1.45a1.18,1.18,0,0,0-.93,1,8.8,8.8,0,0,0,.5,2.84,1.17,1.17,0,0,0,1.23.67l6.17-.7c0.46-.05,1,0.94,1,0.94l1.82-.16a0.9,0.9,0,0,0,.75-1.12l-0.51-2.93-0.52-2.93a0.9,0.9,0,0,0-1.09-.8l-1.76.47S1585.43,1316.46,1585,1316.57Z" transform="translate(-1088.26 -1080.05)"/><path class="cls-13" d="M1587.3,1325.71l-5.17,3.43a1.18,1.18,0,0,0-.52,1.3,8.78,8.78,0,0,0,1.45,2.5,1.17,1.17,0,0,0,1.39.21l5.56-2.76c0.42-.21,1.23.55,1.23,0.55l1.65-.77a0.9,0.9,0,0,0,.33-1.31l-1.49-2.58-1.49-2.58a0.9,0.9,0,0,0-1.3-.38l-1.49,1S1587.69,1325.45,1587.3,1325.71Z" transform="translate(-1088.26 -1080.05)"/><path class="cls-13" d="M1592.61,1333.49l-3.69,5a1.18,1.18,0,0,0,0,1.4,8.83,8.83,0,0,0,2.21,1.85,1.18,1.18,0,0,0,1.38-.28l4.27-4.5c0.32-.34,1.34.1,1.34,0.1l1.29-1.29a0.9,0.9,0,0,0-.15-1.34l-2.28-1.91-2.28-1.91a0.9,0.9,0,0,0-1.34.09l-1,1.5S1592.89,1333.12,1592.61,1333.49Z" transform="translate(-1088.26 -1080.05)"/><path class="cls-13" d="M1600.27,1339l-1.76,6a1.18,1.18,0,0,0,.44,1.33,8.71,8.71,0,0,0,2.71,1,1.17,1.17,0,0,0,1.19-.73l2.48-5.69c0.19-.43,1.29-0.36,1.29-0.36l0.78-1.65a0.9,0.9,0,0,0-.6-1.21l-2.8-1-2.8-1a0.9,0.9,0,0,0-1.23.55l-0.47,1.76S1600.4,1338.55,1600.27,1339Z" transform="translate(-1088.26 -1080.05)"/><path class="cls-13" d="M1609.34,1341.54c0,0.47.38,6.19,0.38,6.19a1.18,1.18,0,0,0,.87,1.1,8.74,8.74,0,0,0,2.89,0,1.17,1.17,0,0,0,.87-1.1s0.35-5.73.38-6.19,1.09-.78,1.09-0.78l0.16-1.82a0.9,0.9,0,0,0-1-.94h-6a0.9,0.9,0,0,0-1,.94c0.07,0.73.1,1.09,0.16,1.82C1608.25,1340.76,1609.31,1341.08,1609.34,1341.54Z" transform="translate(-1088.26 -1080.05)"/><path class="cls-13" d="M1618.74,1340.84l2.48,5.69a1.17,1.17,0,0,0,1.19.73,8.73,8.73,0,0,0,2.71-1,1.18,1.18,0,0,0,.44-1.33l-1.76-6c-0.13-.44.76-1.11,0.76-1.11l-0.47-1.76a0.9,0.9,0,0,0-1.23-.54l-2.8,1-2.8,1a0.9,0.9,0,0,0-.6,1.21l0.77,1.66S1618.56,1340.41,1618.74,1340.84Z" transform="translate(-1088.26 -1080.05)"/><path class="cls-13" d="M1627.33,1337l4.27,4.5a1.18,1.18,0,0,0,1.37.28,8.84,8.84,0,0,0,2.21-1.85,1.18,1.18,0,0,0,0-1.4l-3.69-5c-0.28-.37.33-1.31,0.33-1.31l-1-1.5a0.9,0.9,0,0,0-1.34-.09l-2.28,1.91-2.28,1.91a0.9,0.9,0,0,0-.14,1.34l1.29,1.29S1627,1336.62,1627.33,1337Z" transform="translate(-1088.26 -1080.05)"/><path class="cls-13" d="M1634.08,1330.38l5.56,2.76a1.17,1.17,0,0,0,1.39-.21,8.81,8.81,0,0,0,1.44-2.5,1.17,1.17,0,0,0-.52-1.3l-5.17-3.43c-0.39-.26-0.13-1.34-0.13-1.34l-1.49-1a0.9,0.9,0,0,0-1.3.38l-1.49,2.58-1.49,2.58a0.9,0.9,0,0,0,.32,1.31l1.66,0.77S1633.66,1330.17,1634.08,1330.38Z" transform="translate(-1088.26 -1080.05)"/><path class="cls-13" d="M1638.17,1321.88l6.17,0.7a1.17,1.17,0,0,0,1.23-.67,8.77,8.77,0,0,0,.5-2.84,1.17,1.17,0,0,0-.93-1l-6-1.45c-0.45-.11-0.58-1.21-0.58-1.21l-1.76-.47a0.9,0.9,0,0,0-1.09.8l-0.52,2.93-0.52,2.93a0.9,0.9,0,0,0,.75,1.12l1.82,0.16S1637.7,1321.83,1638.17,1321.88Z" transform="translate(-1088.26 -1080.05)"/><path class="cls-13" d="M1639.1,1312.51l6-1.45a1.18,1.18,0,0,0,.93-1,8.81,8.81,0,0,0-.5-2.85,1.18,1.18,0,0,0-1.23-.66l-6.17.7c-0.46.05-1-.94-1-0.94l-1.82.16a0.9,0.9,0,0,0-.75,1.12l0.52,2.93c0.21,1.17.31,1.76,0.52,2.93a0.9,0.9,0,0,0,1.09.8l1.76-.47S1638.65,1312.61,1639.1,1312.51Z" transform="translate(-1088.26 -1080.05)"/><path class="cls-13" d="M1636.77,1303.37l5.17-3.43a1.18,1.18,0,0,0,.52-1.3,8.86,8.86,0,0,0-1.44-2.5,1.17,1.17,0,0,0-1.39-.2l-5.56,2.76c-0.41.21-1.23-.55-1.23-0.55l-1.66.77a0.9,0.9,0,0,0-.32,1.31l1.49,2.58,1.49,2.58a0.91,0.91,0,0,0,1.3.38l1.49-1S1636.39,1303.63,1636.77,1303.37Z" transform="translate(-1088.26 -1080.05)"/><path class="cls-13" d="M1631.46,1295.58l3.69-5a1.18,1.18,0,0,0,0-1.4,8.85,8.85,0,0,0-2.21-1.85,1.18,1.18,0,0,0-1.37.28l-4.27,4.5c-0.32.34-1.34-.1-1.34-0.1l-1.29,1.29a0.9,0.9,0,0,0,.15,1.34l2.28,1.91,2.28,1.91a0.9,0.9,0,0,0,1.34-.09l1-1.5S1631.19,1296,1631.46,1295.58Z" transform="translate(-1088.26 -1080.05)"/><path class="cls-13" d="M1623.81,1290.08l1.76-6a1.17,1.17,0,0,0-.44-1.33,8.72,8.72,0,0,0-2.71-1,1.17,1.17,0,0,0-1.19.74l-2.48,5.69c-0.19.43-1.29,0.36-1.29,0.36l-0.78,1.65a0.9,0.9,0,0,0,.6,1.21l2.8,1,2.8,1a0.9,0.9,0,0,0,1.23-.55l0.47-1.76S1623.68,1290.53,1623.81,1290.08Z" transform="translate(-1088.26 -1080.05)"/><path class="cls-13" d="M1679.21,1347.52a20.12,20.12,0,1,1-20.12-20.12A20.12,20.12,0,0,1,1679.21,1347.52Zm-20.12-14.59a14.59,14.59,0,1,0,14.59,14.59A14.59,14.59,0,0,0,1659.09,1332.93Z" transform="translate(-1088.26 -1080.05)"/><path class="cls-13" d="M1661.14,1327l-0.29-4.71a0.89,0.89,0,0,0-.66-0.83,6.63,6.63,0,0,0-2.2,0,0.89,0.89,0,0,0-.66.83L1657,1327a1.29,1.29,0,0,1-.83.6l-0.12,1.38a0.69,0.69,0,0,0,.74.71h4.53a0.69,0.69,0,0,0,.74-0.71c0-.55-0.07-0.83-0.12-1.38A1.29,1.29,0,0,1,1661.14,1327Z" transform="translate(-1088.26 -1080.05)"/><path class="cls-13" d="M1654,1327.53l-1.88-4.32a0.89,0.89,0,0,0-.91-0.56,6.61,6.61,0,0,0-2.06.75,0.89,0.89,0,0,0-.34,1l1.34,4.52a1.3,1.3,0,0,1-.58.85l0.36,1.34a0.68,0.68,0,0,0,.94.41l2.13-.77,2.13-.77a0.69,0.69,0,0,0,.45-0.92l-0.59-1.26A1.29,1.29,0,0,1,1654,1327.53Z" transform="translate(-1088.26 -1080.05)"/><path class="cls-13" d="M1647.46,1330.48l-3.25-3.42a0.9,0.9,0,0,0-1-.21,6.75,6.75,0,0,0-1.68,1.41,0.89,0.89,0,0,0,0,1.06l2.8,3.79a1.3,1.3,0,0,1-.25,1l0.79,1.14a0.69,0.69,0,0,0,1,.07l1.73-1.46,1.73-1.45a0.69,0.69,0,0,0,.11-1l-1-1A1.29,1.29,0,0,1,1647.46,1330.48Z" transform="translate(-1088.26 -1080.05)"/><path class="cls-13" d="M1642.33,1335.48l-4.22-2.1a0.89,0.89,0,0,0-1.05.15,6.7,6.7,0,0,0-1.1,1.9,0.89,0.89,0,0,0,.39,1l3.93,2.61a1.29,1.29,0,0,1,.1,1l1.14,0.8a0.68,0.68,0,0,0,1-.29l1.13-2,1.13-2a0.69,0.69,0,0,0-.25-1l-1.26-.59A1.28,1.28,0,0,1,1642.33,1335.48Z" transform="translate(-1088.26 -1080.05)"/><path class="cls-13" d="M1639.23,1341.94l-4.69-.53a0.89,0.89,0,0,0-.94.5,6.68,6.68,0,0,0-.38,2.16,0.89,0.89,0,0,0,.71.79l4.59,1.1a1.29,1.29,0,0,1,.45.92l1.34,0.36a0.69,0.69,0,0,0,.83-0.61l0.39-2.23,0.39-2.23a0.69,0.69,0,0,0-.57-0.85l-1.38-.12A1.3,1.3,0,0,1,1639.23,1341.94Z" transform="translate(-1088.26 -1080.05)"/><path class="cls-13" d="M1638.51,1349.07l-4.59,1.1a0.89,0.89,0,0,0-.71.8,6.69,6.69,0,0,0,.38,2.16,0.89,0.89,0,0,0,.94.51l4.69-.53a1.29,1.29,0,0,1,.73.71l1.38-.12a0.68,0.68,0,0,0,.57-0.85l-0.39-2.23-0.39-2.23a0.69,0.69,0,0,0-.83-0.61l-1.34.36A1.29,1.29,0,0,1,1638.51,1349.07Z" transform="translate(-1088.26 -1080.05)"/><path class="cls-13" d="M1640.28,1356l-3.93,2.6a0.9,0.9,0,0,0-.39,1,6.68,6.68,0,0,0,1.1,1.9,0.89,0.89,0,0,0,1.05.16l4.22-2.1a1.29,1.29,0,0,1,.93.42l1.26-.59a0.69,0.69,0,0,0,.25-1l-1.13-2-1.13-2a0.69,0.69,0,0,0-1-.29l-1.14.8A1.31,1.31,0,0,1,1640.28,1356Z" transform="translate(-1088.26 -1080.05)"/><path class="cls-13" d="M1644.32,1361.93l-2.8,3.79a0.9,0.9,0,0,0,0,1.07,6.71,6.71,0,0,0,1.68,1.41,0.9,0.9,0,0,0,1-.21l3.25-3.42a1.29,1.29,0,0,1,1,.08l1-1a0.69,0.69,0,0,0-.11-1l-1.73-1.45-1.74-1.45a0.68,0.68,0,0,0-1,.07l-0.79,1.14A1.3,1.3,0,0,1,1644.32,1361.93Z" transform="translate(-1088.26 -1080.05)"/><path class="cls-13" d="M1650.14,1366.11l-1.34,4.52a0.9,0.9,0,0,0,.34,1,6.62,6.62,0,0,0,2.06.75,0.89,0.89,0,0,0,.91-0.56l1.88-4.32a1.3,1.3,0,0,1,1-.28l0.59-1.26a0.69,0.69,0,0,0-.45-0.92l-2.13-.78-2.13-.77a0.68,0.68,0,0,0-.94.41l-0.36,1.34A1.28,1.28,0,0,1,1650.14,1366.11Z" transform="translate(-1088.26 -1080.05)"/><path class="cls-13" d="M1657,1368.05c0,0.36.29,4.71,0.29,4.71a0.89,0.89,0,0,0,.66.83,6.65,6.65,0,0,0,2.19,0,0.89,0.89,0,0,0,.66-0.83s0.27-4.36.29-4.71a1.29,1.29,0,0,1,.83-0.6l0.12-1.38a0.69,0.69,0,0,0-.74-0.71h-4.53a0.69,0.69,0,0,0-.74.71l0.12,1.38A1.29,1.29,0,0,1,1657,1368.05Z" transform="translate(-1088.26 -1080.05)"/><path class="cls-13" d="M1664.19,1367.51l1.88,4.32a0.89,0.89,0,0,0,.91.56,6.64,6.64,0,0,0,2.06-.75,0.9,0.9,0,0,0,.34-1l-1.34-4.52a1.3,1.3,0,0,1,.58-0.84l-0.36-1.34a0.68,0.68,0,0,0-.94-0.41l-2.13.77-2.13.77a0.68,0.68,0,0,0-.45.92l0.59,1.26A1.29,1.29,0,0,1,1664.19,1367.51Z" transform="translate(-1088.26 -1080.05)"/><path class="cls-13" d="M1670.72,1364.57L1674,1368a0.89,0.89,0,0,0,1,.21,6.72,6.72,0,0,0,1.68-1.41,0.9,0.9,0,0,0,0-1.07l-2.8-3.79a1.3,1.3,0,0,1,.25-1l-0.8-1.14a0.68,0.68,0,0,0-1-.07l-1.73,1.45-1.73,1.45a0.69,0.69,0,0,0-.11,1l1,1A1.3,1.3,0,0,1,1670.72,1364.57Z" transform="translate(-1088.26 -1080.05)"/><path class="cls-13" d="M1675.84,1359.56l4.22,2.1a0.89,0.89,0,0,0,1.05-.16,6.7,6.7,0,0,0,1.1-1.9,0.89,0.89,0,0,0-.39-1l-3.93-2.6a1.3,1.3,0,0,1-.1-1l-1.14-.8a0.69,0.69,0,0,0-1,.29l-1.13,2-1.13,2a0.69,0.69,0,0,0,.24,1l1.26,0.58A1.29,1.29,0,0,1,1675.84,1359.56Z" transform="translate(-1088.26 -1080.05)"/><path class="cls-13" d="M1679,1353.1l4.69,0.53a0.89,0.89,0,0,0,.94-0.51,6.67,6.67,0,0,0,.38-2.16,0.89,0.89,0,0,0-.71-0.8l-4.59-1.11a1.29,1.29,0,0,1-.44-0.92l-1.34-.36a0.68,0.68,0,0,0-.83.61l-0.39,2.23-0.39,2.23a0.68,0.68,0,0,0,.57.85l1.38,0.12A1.29,1.29,0,0,1,1679,1353.1Z" transform="translate(-1088.26 -1080.05)"/><path class="cls-13" d="M1679.67,1346l4.59-1.1a0.9,0.9,0,0,0,.71-0.8,6.7,6.7,0,0,0-.38-2.16,0.9,0.9,0,0,0-.94-0.5l-4.69.53a1.29,1.29,0,0,1-.73-0.71l-1.38.12a0.68,0.68,0,0,0-.57.85l0.39,2.23c0.16,0.89.24,1.34,0.39,2.23a0.69,0.69,0,0,0,.83.6l1.34-.36A1.27,1.27,0,0,1,1679.67,1346Z" transform="translate(-1088.26 -1080.05)"/><path class="cls-13" d="M1677.89,1339l3.93-2.61a0.89,0.89,0,0,0,.39-1,6.74,6.74,0,0,0-1.1-1.9,0.89,0.89,0,0,0-1.05-.16l-4.22,2.1a1.3,1.3,0,0,1-.93-0.42l-1.26.59a0.69,0.69,0,0,0-.24,1l1.13,2,1.13,2a0.69,0.69,0,0,0,1,.29l1.14-.8A1.29,1.29,0,0,1,1677.89,1339Z" transform="translate(-1088.26 -1080.05)"/><path class="cls-13" d="M1673.86,1333.11l2.8-3.79a0.9,0.9,0,0,0,0-1.07,6.72,6.72,0,0,0-1.68-1.41,0.89,0.89,0,0,0-1,.21l-3.25,3.42a1.3,1.3,0,0,1-1-.08l-1,1a0.68,0.68,0,0,0,.11,1l1.73,1.45,1.73,1.46a0.68,0.68,0,0,0,1-.07l0.8-1.14A1.3,1.3,0,0,1,1673.86,1333.11Z" transform="translate(-1088.26 -1080.05)"/><path class="cls-13" d="M1668,1328.93l1.34-4.52a0.89,0.89,0,0,0-.34-1,6.63,6.63,0,0,0-2.06-.75,0.89,0.89,0,0,0-.91.56l-1.88,4.32a1.29,1.29,0,0,1-1,.28l-0.59,1.26a0.69,0.69,0,0,0,.45.92l2.13,0.77,2.13,0.78a0.69,0.69,0,0,0,.94-0.41l0.36-1.34A1.29,1.29,0,0,1,1668,1328.93Z" transform="translate(-1088.26 -1080.05)"/><text class="cls-14" transform="translate(87.32 233.53)">34</text><text class="cls-14" transform="translate(116.42 224.21) scale(0.58)">%</text><text class="cls-15" transform="translate(274.82 275.53)">28</text><text class="cls-15" transform="translate(304.89 266.21) scale(0.58)">%</text><text class="cls-15" transform="translate(319.95 120.98)">13</text><text class="cls-15" transform="translate(343.86 111.65) scale(0.58)">%</text><text class="cls-15" transform="translate(413.51 172.59)">7</text><text class="cls-15" transform="translate(426.39 163.27) scale(0.58)">%</text><text class="cls-15" transform="translate(436.71 262.43)">6</text><text class="cls-15" transform="translate(452.92 253.11) scale(0.58)">%</text><text class="cls-15" transform="translate(511.36 245.47)">3</text><text class="cls-15" transform="translate(525.33 236.15) scale(0.58)">%</text><text class="cls-16" transform="translate(562.55 275.8)">2</text><text class="cls-16" transform="translate(573.16 268.81) scale(0.58)">%</text><text class="cls-17" transform="translate(76.91 178.1) scale(0.58)">F<tspan x="14.14" y="0">oreign &amp;</tspan><tspan class="cls-18" x="-22.88" y="32.93"> In</tspan><tspan x="4.81" y="32.93">t</tspan><tspan x="13.34" y="32.93">ernational </tspan></text><text class="cls-19" transform="translate(242.07 248.37) scale(0.58)">Int<tspan x="26.57" y="0">r</tspan><tspan x="34.78" y="0">ag</tspan><tspan x="59.11" y="0">o</tspan><tspan x="70.77" y="0">v</tspan><tspan x="81.48" y="0">ernmen</tspan><tspan x="156.45" y="0">t</tspan><tspan x="164.16" y="0">al </tspan></text><text class="cls-20" transform="translate(1.23 347.74) scale(0.58)">The most upda<tspan x="106.18" y="0">t</tspan><tspan x="111.76" y="0">ed da</tspan><tspan x="150.85" y="0">t</tspan><tspan x="156.31" y="0">a is as of Sep 20</tspan><tspan x="276.14" y="0">1</tspan><tspan x="281.7" y="0">5 (end of month)</tspan></text></svg>