<?xml version="1.0" encoding="UTF-8" standalone="no"?>
<!-- Created with Inkscape (http://www.inkscape.org/) -->

<svg
   xmlns:dc="http://purl.org/dc/elements/1.1/"
   xmlns:cc="http://creativecommons.org/ns#"
   xmlns:rdf="http://www.w3.org/1999/02/22-rdf-syntax-ns#"
   xmlns:svg="http://www.w3.org/2000/svg"
   xmlns="http://www.w3.org/2000/svg"
   xmlns:sodipodi="http://sodipodi.sourceforge.net/DTD/sodipodi-0.dtd"
   xmlns:inkscape="http://www.inkscape.org/namespaces/inkscape"
   id="svg3355"
   version="1.1"
   inkscape:version="0.91 r13725"
   xml:space="preserve"
   width="569.17548"
   height="109.69512"
   viewBox="0 0 569.17548 109.69512"
   sodipodi:docname="MaturityChoice2.svg"><metadata
     id="metadata3361"><rdf:RDF><cc:Work
         rdf:about=""><dc:format>image/svg+xml</dc:format><dc:type
           rdf:resource="http://purl.org/dc/dcmitype/StillImage" /><dc:title></dc:title></cc:Work></rdf:RDF></metadata><defs
     id="defs3359">
     <clipPath
       clipPathUnits="userSpaceOnUse"
       id="clipPath3371"><path
         d="m 54,635.16 0,84.8401 453.12,0 0,-84.8401 -453.12,0 z"
         id="path3373"
         inkscape:connector-curvature="0" /></clipPath><clipPath
       clipPathUnits="userSpaceOnUse"
       id="clipPath3377"><path
         d="M 0,0 612,0 612,792 0,792 0,0 Z"
         id="path3379"
         inkscape:connector-curvature="0" /></clipPath><clipPath
       clipPathUnits="userSpaceOnUse"
       id="clipPath3389"><path
         d="m 54,635.16 0,84.8401 453.12,0 0,-84.8401 -453.12,0 z"
         id="path3391"
         inkscape:connector-curvature="0" /></clipPath><clipPath
       clipPathUnits="userSpaceOnUse"
       id="clipPath3395"><path
         d="m 54,635.1601 453.12,0 0,84.84003 -453.12,0 0,-84.84003 z"
         id="path3397"
         inkscape:connector-curvature="0" /></clipPath><clipPath
       clipPathUnits="userSpaceOnUse"
       id="clipPath3409"><path
         d="m 54,635.16 0,84.8401 453.12,0 0,-84.8401 -453.12,0 z"
         id="path3411"
         inkscape:connector-curvature="0" /></clipPath><clipPath
       clipPathUnits="userSpaceOnUse"
       id="clipPath3415"><path
         d="m 54,635.1601 453.12,0 0,84.84003 -453.12,0 0,-84.84003 z"
         id="path3417"
         inkscape:connector-curvature="0" /></clipPath><clipPath
       clipPathUnits="userSpaceOnUse"
       id="clipPath3429"><path
         d="m 54,635.16 0,84.8401 453.12,0 0,-84.8401 -453.12,0 z"
         id="path3431"
         inkscape:connector-curvature="0" /></clipPath><clipPath
       clipPathUnits="userSpaceOnUse"
       id="clipPath3435"><path
         d="m 54,635.1601 453.12,0 0,84.84003 -453.12,0 0,-84.84003 z"
         id="path3437"
         inkscape:connector-curvature="0" /></clipPath><clipPath
       clipPathUnits="userSpaceOnUse"
       id="clipPath3449"><path
         d="m 54,635.16 0,84.8401 453.12,0 0,-84.8401 -453.12,0 z"
         id="path3451"
         inkscape:connector-curvature="0" /></clipPath><clipPath
       clipPathUnits="userSpaceOnUse"
       id="clipPath3455"><path
         d="m 54,635.1601 453.12,0 0,84.84003 -453.12,0 0,-84.84003 z"
         id="path3457"
         inkscape:connector-curvature="0" /></clipPath><clipPath
       clipPathUnits="userSpaceOnUse"
       id="clipPath3469"><path
         d="m 54,635.16 0,84.8401 453.12,0 0,-84.8401 -453.12,0 z"
         id="path3471"
         inkscape:connector-curvature="0" /></clipPath><clipPath
       clipPathUnits="userSpaceOnUse"
       id="clipPath3475"><path
         d="m 54,635.1601 453.12,0 0,84.84003 -453.12,0 0,-84.84003 z"
         id="path3477"
         inkscape:connector-curvature="0" /></clipPath><clipPath
       clipPathUnits="userSpaceOnUse"
       id="clipPath3489"><path
         d="m 54,635.16 0,84.8401 453.12,0 0,-84.8401 -453.12,0 z"
         id="path3491"
         inkscape:connector-curvature="0" /></clipPath><clipPath
       clipPathUnits="userSpaceOnUse"
       id="clipPath3495"><path
         d="m 54,635.1601 453.12,0 0,84.84003 -453.12,0 0,-84.84003 z"
         id="path3497"
         inkscape:connector-curvature="0" /></clipPath><clipPath
       clipPathUnits="userSpaceOnUse"
       id="clipPath3509"><path
         d="m 54,635.16 0,84.8401 453.12,0 0,-84.8401 -453.12,0 z"
         id="path3511"
         inkscape:connector-curvature="0" /></clipPath><clipPath
       clipPathUnits="userSpaceOnUse"
       id="clipPath3515"><path
         d="m 54,635.1601 453.12,0 0,84.84003 -453.12,0 0,-84.84003 z"
         id="path3517"
         inkscape:connector-curvature="0" /></clipPath><clipPath
       clipPathUnits="userSpaceOnUse"
       id="clipPath3529"><path
         d="m 54,635.16 0,84.8401 453.12,0 0,-84.8401 -453.12,0 z"
         id="path3531"
         inkscape:connector-curvature="0" /></clipPath><clipPath
       clipPathUnits="userSpaceOnUse"
       id="clipPath3535"><path
         d="m 54,635.1601 453.12,0 0,84.84003 -453.12,0 0,-84.84003 z"
         id="path3537"
         inkscape:connector-curvature="0" /></clipPath><clipPath
       clipPathUnits="userSpaceOnUse"
       id="clipPath3549"><path
         d="m 54,635.16 0,84.8401 453.12,0 0,-84.8401 -453.12,0 z"
         id="path3551"
         inkscape:connector-curvature="0" /></clipPath><clipPath
       clipPathUnits="userSpaceOnUse"
       id="clipPath3555"><path
         d="m 54,635.1601 453.12,0 0,84.84003 -453.12,0 0,-84.84003 z"
         id="path3557"
         inkscape:connector-curvature="0" /></clipPath><clipPath
       clipPathUnits="userSpaceOnUse"
       id="clipPath3569"><path
         d="m 54,635.16 0,84.8401 453.12,0 0,-84.8401 -453.12,0 z"
         id="path3571"
         inkscape:connector-curvature="0" /></clipPath><clipPath
       clipPathUnits="userSpaceOnUse"
       id="clipPath3575"><path
         d="m 54,635.1601 453.12,0 0,84.84003 -453.12,0 0,-84.84003 z"
         id="path3577"
         inkscape:connector-curvature="0" /></clipPath><clipPath
       clipPathUnits="userSpaceOnUse"
       id="clipPath3589"><path
         d="m 54,635.16 0,84.8401 453.12,0 0,-84.8401 -453.12,0 z"
         id="path3591"
         inkscape:connector-curvature="0" /></clipPath><clipPath
       clipPathUnits="userSpaceOnUse"
       id="clipPath3595"><path
         d="m 54,635.1601 453.12,0 0,84.84003 -453.12,0 0,-84.84003 z"
         id="path3597"
         inkscape:connector-curvature="0" /></clipPath><clipPath
       clipPathUnits="userSpaceOnUse"
       id="clipPath3609"><path
         d="m 53.04,633.1201 456.12,0 0,87.84003 -456.12,0 0,-87.84003 z"
         id="path3611"
         inkscape:connector-curvature="0" /></clipPath></defs><sodipodi:namedview
     pagecolor="#ffffff"
     bordercolor="#666666"
     borderopacity="1"
     objecttolerance="10"
     gridtolerance="10"
     guidetolerance="10"
     inkscape:pageopacity="0"
     inkscape:pageshadow="2"
     inkscape:window-width="1243"
     inkscape:window-height="594"
     id="namedview3357"
     showgrid="false"
     inkscape:zoom="2.2242701"
     inkscape:cx="256.22585"
     inkscape:cy="54.847561"
     inkscape:window-x="2009"
     inkscape:window-y="388"
     inkscape:window-maximized="0"
     inkscape:current-layer="g3363" /><g
     id="g3363"
     inkscape:groupmode="layer"
     inkscape:label="MaturityChoice"
     transform="matrix(1.25,0,0,-1.25,-66.466262,902.50238)"><g
       id="g3365" /><g
       id="g3367"><g
         id="g3369"
         clip-path="url(#clipPath3371)"><g
           id="g3375"
           clip-path="url(#clipPath3377)"><path
             d="m 167.52,691.4401 339.24,0 0,28.08 -339.24,0 0,-28.08 z"
             style="fill:#b8c1c9;fill-opacity:1;fill-rule:nonzero;stroke:none"
             id="path3381"
             inkscape:connector-curvature="0" /><path
             d="m 54.48,635.5201 113.16,0 0,56.04 -113.16,0 0,-56.04 z"
             style="fill:#b8c1c9;fill-opacity:1;fill-rule:nonzero;stroke:none"
             id="path3383"
             inkscape:connector-curvature="0" /></g></g></g><g
       id="g3385"><g
         id="g3387"
         clip-path="url(#clipPath3389)"><g
           id="g3393"
           clip-path="url(#clipPath3395)"><g
             id="g3399"
             transform="matrix(0.24,0,0,0.24,18,40.08008)"><text
               transform="matrix(1,0,0,-1,658.5,2754.25)"
               style="font-variant:normal;font-weight:normal;font-size:58px;font-family:Lintel-Regular;-inkscape-font-specification:Lintel-Regular;writing-mode:lr-tb;fill:#000000;fill-opacity:1;fill-rule:nonzero;stroke:none"
               id="text3401"><tspan
                 x="0 19.139999 45.588001 65.424004 82.823997 127.832 156.54201 186.75999 206.59599 237.104 254.504 283.21399 313.026 332.862 345.27399 373.98401"
                 y="0"
                 sodipodi:role="line"
                 id="tspan3403">1st month option</tspan></text>
</g></g></g></g><g
       id="g3405"><g
         id="g3407"
         clip-path="url(#clipPath3409)"><g
           id="g3413"
           clip-path="url(#clipPath3415)"><g
             id="g3419"
             transform="matrix(0.24,0,0,0.24,18,40.08008)"><text
               transform="matrix(1,0,0,-1,1118.5,2754.25)"
               style="font-variant:normal;font-weight:normal;font-size:58px;font-family:Lintel;-inkscape-font-specification:Lintel-Regular;writing-mode:lr-tb;fill:#000000;fill-opacity:1;fill-rule:nonzero;stroke:none"
               id="text3421"><tspan
                 x="0 27.492001 57.709999 87.232002 104.632 149.64 178.35001 208.56799 228.40401 258.91199 276.31201 305.022 334.83401 354.67001 367.082 395.79199"
                 y="0"
                 sodipodi:role="line"
                 id="tspan3423">2nd month option</tspan></text>
</g></g></g></g><g
       id="g3425"><g
         id="g3427"
         clip-path="url(#clipPath3429)"><g
           id="g3433"
           clip-path="url(#clipPath3435)"><g
             id="g3439"
             transform="matrix(0.24,0,0,0.24,18,40.08008)"><text
               transform="matrix(1,0,0,-1,1593.5,2754.25)"
               style="font-variant:normal;font-weight:normal;font-size:58px;font-family:Lintel;-inkscape-font-specification:Lintel-Regular;writing-mode:lr-tb;fill:#000000;fill-opacity:1;fill-rule:nonzero;stroke:none"
               id="text3441"><tspan
                 x="0 29.870001 50.285999 79.807999 97.208 142.216 170.92599 201.144 220.98 251.48801 268.888 297.59799 327.41 347.246 359.65799 388.36801"
                 y="0"
                 sodipodi:role="line"
                 id="tspan3443">3rd month option</tspan></text>
</g></g></g></g><g
       id="g3445"><g
         id="g3447"
         clip-path="url(#clipPath3449)"><g
           id="g3453"
           clip-path="url(#clipPath3455)"><g
             id="g3459"
             transform="matrix(0.24,0,0,0.24,18,40.08008)"><text
               transform="matrix(1,0,0,-1,269.5,2637.75)"
               style="font-variant:normal;font-weight:normal;font-size:58px;font-family:Lintel;-inkscape-font-specification:Lintel-Regular;writing-mode:lr-tb;fill:#000000;fill-opacity:1;fill-rule:nonzero;stroke:none"
               id="text3461"><tspan
                 x="0 33.118 57.362 87.174004 99.585999 119.422 148.71201 168.548 180.96001 209.67"
                 y="0"
                 sodipodi:role="line"
                 id="tspan3463">Expiration</tspan></text>
</g></g></g></g><g
       id="g3465"><g
         id="g3467"
         clip-path="url(#clipPath3469)"><g
           id="g3473"
           clip-path="url(#clipPath3475)"><g
             id="g3479"
             transform="matrix(0.24,0,0,0.24,18,40.08008)"><text
               transform="matrix(1,0,0,-1,735.5,2639.75)"
               style="font-variant:normal;font-weight:normal;font-size:50px;font-family:Lintel;-inkscape-font-specification:Lintel-Regular;writing-mode:lr-tb;fill:#000000;fill-opacity:1;fill-rule:nonzero;stroke:none"
               id="text3481"><tspan
                 x="0 31.450001 55.75 78.699997 93.699997 117.4 133.89999 141.14999 156.14999 179.85001 208.60001 225.10001"
                 y="0"
                 sodipodi:role="line"
                 id="tspan3483">Nov 21, 2014</tspan></text>
</g></g></g></g><g
       id="g3485"><g
         id="g3487"
         clip-path="url(#clipPath3489)"><g
           id="g3493"
           clip-path="url(#clipPath3495)"><g
             id="g3499"
             transform="matrix(0.24,0,0,0.24,18,40.08008)"><text
               transform="matrix(1,0,0,-1,1200.5,2639.75)"
               style="font-variant:normal;font-weight:normal;font-size:50px;font-family:Lintel;-inkscape-font-specification:Lintel-Regular;writing-mode:lr-tb;fill:#000000;fill-opacity:1;fill-rule:nonzero;stroke:none"
               id="text3501"><tspan
                 x="0 31.85 55.700001 78 93 116.7 145.45 152.7 167.7 191.39999 220.14999 236.64999"
                 y="0"
                 sodipodi:role="line"
                 id="tspan3503">Dec 26, 2014</tspan></text>
</g></g></g></g><g
       id="g3505"><g
         id="g3507"
         clip-path="url(#clipPath3509)"><g
           id="g3513"
           clip-path="url(#clipPath3515)"><g
             id="g3519"
             transform="matrix(0.24,0,0,0.24,18,40.08008)"><text
               transform="matrix(1,0,0,-1,1678,2639.75)"
               style="font-variant:normal;font-weight:normal;font-size:50px;font-family:Lintel;-inkscape-font-specification:Lintel-Regular;writing-mode:lr-tb;fill:#000000;fill-opacity:1;fill-rule:nonzero;stroke:none"
               id="text3521"><tspan
                 x="0 16.75 42 68.050003 83.050003 106.75 132.5 139.75 154.75 178.45 207.2 223.55"
                 y="0"
                 sodipodi:role="line"
                 id="tspan3523">Jan 23, 2015</tspan></text>
</g></g></g></g><g
       id="g3525"><g
         id="g3527"
         clip-path="url(#clipPath3529)"><g
           id="g3533"
           clip-path="url(#clipPath3535)"><g
             id="g3539"
             transform="matrix(0.24,0,0,0.24,18,40.08008)"><text
               transform="matrix(1,0,0,-1,183,2521.25)"
               style="font-variant:normal;font-weight:normal;font-size:58px;font-family:Lintel;-inkscape-font-specification:Lintel-Regular;writing-mode:lr-tb;fill:#000000;fill-opacity:1;fill-rule:nonzero;stroke:none"
               id="text3541"><tspan
                 x="0 36.945999 66.236 96.454002 122.902 140.302 159.73199 188.442 205.842 250.85001 280.14001 299.97601 329.90399 350.32001 362.73199 382.56799"
                 y="0"
                 sodipodi:role="line"
                 id="tspan3543">Days to maturity</tspan></text>
</g></g></g></g><g
       id="g3545"><g
         id="g3547"
         clip-path="url(#clipPath3549)"><g
           id="g3553"
           clip-path="url(#clipPath3555)"><g
             id="g3559"
             transform="matrix(0.24,0,0,0.24,18,40.08008)"><text
               transform="matrix(1,0,0,-1,844,2523.25)"
               style="font-variant:normal;font-weight:normal;font-size:50px;font-family:Lintel;-inkscape-font-specification:Lintel-Regular;writing-mode:lr-tb;fill:#000000;fill-opacity:1;fill-rule:nonzero;stroke:none"
               id="text3561"><tspan
                 x="0 16.5"
                 y="0"
                 sodipodi:role="line"
                 id="tspan3563">11</tspan></text>
</g></g></g></g><g
       id="g3565"><g
         id="g3567"
         clip-path="url(#clipPath3569)"><g
           id="g3573"
           clip-path="url(#clipPath3575)"><g
             id="g3579"
             transform="matrix(0.24,0,0,0.24,18,40.08008)"><text
               transform="matrix(1,0,0,-1,1305,2523.25)"
               style="font-variant:normal;font-weight:normal;font-size:50px;font-family:Lintel;-inkscape-font-specification:Lintel-Regular;writing-mode:lr-tb;fill:#000000;fill-opacity:1;fill-rule:nonzero;stroke:none"
               id="text3581"><tspan
                 x="0 25.450001"
                 y="0"
                 sodipodi:role="line"
                 id="tspan3583">46</tspan></text>
</g></g></g></g><g
       id="g3585"><g
         id="g3587"
         clip-path="url(#clipPath3589)"><g
           id="g3593"
           clip-path="url(#clipPath3595)"><g
             id="g3599"
             transform="matrix(0.24,0,0,0.24,18,40.08008)"><text
               transform="matrix(1,0,0,-1,1778,2523.25)"
               style="font-variant:normal;font-weight:normal;font-size:50px;font-family:Lintel;-inkscape-font-specification:Lintel-Regular;writing-mode:lr-tb;fill:#000000;fill-opacity:1;fill-rule:nonzero;stroke:none"
               id="text3601"><tspan
                 x="0 24.1"
                 y="0"
                 sodipodi:role="line"
                 id="tspan3603">74</tspan></text>
</g></g></g></g><g
       id="g3605"><g
         id="g3607"
         clip-path="url(#clipPath3609)"><g
           id="g3613"
           transform="matrix(0.12,0,0,0.12,18,40.08008)"><path
             d="m 304,5666 0,-707"
             style="fill:none;stroke:#000000;stroke-width:8;stroke-linecap:butt;stroke-linejoin:miter;stroke-miterlimit:10;stroke-dasharray:none;stroke-opacity:1"
             id="path3615"
             inkscape:connector-curvature="0" /></g><g
           id="g3617"
           transform="matrix(0.12,0,0,0.12,18,40.08008)"><path
             d="m 1246,5658 0,-699"
             style="fill:none;stroke:#000000;stroke-width:8;stroke-linecap:butt;stroke-linejoin:miter;stroke-miterlimit:10;stroke-dasharray:none;stroke-opacity:1"
             id="path3619"
             inkscape:connector-curvature="0" /></g><g
           id="g3621"
           transform="matrix(0.12,0,0,0.12,18,40.08008)"><path
             d="m 2188,5658 0,-699"
             style="fill:none;stroke:#000000;stroke-width:8;stroke-linecap:butt;stroke-linejoin:miter;stroke-miterlimit:10;stroke-dasharray:none;stroke-opacity:1"
             id="path3623"
             inkscape:connector-curvature="0" /></g><g
           id="g3625"
           transform="matrix(0.12,0,0,0.12,18,40.08008)"><path
             d="m 3130,5658 0,-699"
             style="fill:none;stroke:#000000;stroke-width:8;stroke-linecap:butt;stroke-linejoin:miter;stroke-miterlimit:10;stroke-dasharray:none;stroke-opacity:1"
             id="path3627"
             inkscape:connector-curvature="0" /></g><g
           id="g3629"
           transform="matrix(0.12,0,0,0.12,18,40.08008)"><path
             d="m 4072,5658 0,-699"
             style="fill:none;stroke:#000000;stroke-width:8;stroke-linecap:butt;stroke-linejoin:miter;stroke-miterlimit:10;stroke-dasharray:none;stroke-opacity:1"
             id="path3631"
             inkscape:connector-curvature="0" /></g><g
           id="g3633"
           transform="matrix(0.12,0,0,0.12,18,40.08008)"><path
             d="m 308,5662 3768,0"
             style="fill:none;stroke:#000000;stroke-width:8;stroke-linecap:butt;stroke-linejoin:miter;stroke-miterlimit:10;stroke-dasharray:none;stroke-opacity:1"
             id="path3635"
             inkscape:connector-curvature="0" /></g><g
           id="g3637"
           transform="matrix(0.12,0,0,0.12,18,40.08008)"><path
             d="m 308,5429 3768,0"
             style="fill:none;stroke:#000000;stroke-width:8;stroke-linecap:butt;stroke-linejoin:miter;stroke-miterlimit:10;stroke-dasharray:none;stroke-opacity:1"
             id="path3639"
             inkscape:connector-curvature="0" /></g><g
           id="g3641"
           transform="matrix(0.12,0,0,0.12,18,40.08008)"><path
             d="m 308,5196 3768,0"
             style="fill:none;stroke:#000000;stroke-width:8;stroke-linecap:butt;stroke-linejoin:miter;stroke-miterlimit:10;stroke-dasharray:none;stroke-opacity:1"
             id="path3643"
             inkscape:connector-curvature="0" /></g><g
           id="g3645"
           transform="matrix(0.12,0,0,0.12,18,40.08008)"><path
             d="m 308,4963 3768,0"
             style="fill:none;stroke:#000000;stroke-width:8;stroke-linecap:butt;stroke-linejoin:miter;stroke-miterlimit:10;stroke-dasharray:none;stroke-opacity:1"
             id="path3647"
             inkscape:connector-curvature="0" /></g></g></g></g></svg>