<?xml version="1.0" encoding="UTF-8" standalone="no"?>
<svg
   xmlns:dc="http://purl.org/dc/elements/1.1/"
   xmlns:cc="http://creativecommons.org/ns#"
   xmlns:rdf="http://www.w3.org/1999/02/22-rdf-syntax-ns#"
   xmlns:svg="http://www.w3.org/2000/svg"
   xmlns="http://www.w3.org/2000/svg"
   viewBox="0 0 607.19501 153.36172"
   height="153.36172"
   width="607.19501"
   xml:space="preserve"
   id="svg2"
   version="1.1"><metadata
     id="metadata8"><rdf:RDF><cc:Work
         rdf:about=""><dc:format>image/svg+xml</dc:format><dc:type
           rdf:resource="http://purl.org/dc/dcmitype/StillImage" /></cc:Work></rdf:RDF></metadata><defs
     id="defs6"><clipPath
       id="clipPath14"
       clipPathUnits="userSpaceOnUse"><path
         id="path12"
         d="M 0,0 H 612 V 792 H 0 Z" /></clipPath><clipPath
       id="clipPath24"
       clipPathUnits="userSpaceOnUse"><path
         id="path22"
         d="m 54,607.2001 v 112.8 h 453.12 v -112.8 z" /></clipPath><clipPath
       id="clipPath30"
       clipPathUnits="userSpaceOnUse"><path
         id="path28"
         d="M 0,0 H 612 V 792 H 0 Z" /></clipPath><clipPath
       id="clipPath44"
       clipPathUnits="userSpaceOnUse"><path
         id="path42"
         d="m 54,607.2001 v 112.8 h 453.12 v -112.8 z" /></clipPath><clipPath
       id="clipPath50"
       clipPathUnits="userSpaceOnUse"><path
         id="path48"
         d="m 54,607.2001 h 453.12 v 112.8 H 54 Z" /></clipPath><clipPath
       id="clipPath64"
       clipPathUnits="userSpaceOnUse"><path
         id="path62"
         d="m 54,607.2001 v 112.8 h 453.12 v -112.8 z" /></clipPath><clipPath
       id="clipPath70"
       clipPathUnits="userSpaceOnUse"><path
         id="path68"
         d="m 54,607.2001 h 453.12 v 112.8 H 54 Z" /></clipPath><clipPath
       id="clipPath84"
       clipPathUnits="userSpaceOnUse"><path
         id="path82"
         d="m 54,607.2001 v 112.8 h 453.12 v -112.8 z" /></clipPath><clipPath
       id="clipPath90"
       clipPathUnits="userSpaceOnUse"><path
         id="path88"
         d="m 54,607.2001 h 453.12 v 112.8 H 54 Z" /></clipPath><clipPath
       id="clipPath104"
       clipPathUnits="userSpaceOnUse"><path
         id="path102"
         d="m 54,607.2001 v 112.8 h 453.12 v -112.8 z" /></clipPath><clipPath
       id="clipPath110"
       clipPathUnits="userSpaceOnUse"><path
         id="path108"
         d="m 54,607.2001 h 453.12 v 112.8 H 54 Z" /></clipPath><clipPath
       id="clipPath124"
       clipPathUnits="userSpaceOnUse"><path
         id="path122"
         d="m 54,607.2001 v 112.8 h 453.12 v -112.8 z" /></clipPath><clipPath
       id="clipPath130"
       clipPathUnits="userSpaceOnUse"><path
         id="path128"
         d="m 54,607.2001 h 453.12 v 112.8 H 54 Z" /></clipPath><clipPath
       id="clipPath144"
       clipPathUnits="userSpaceOnUse"><path
         id="path142"
         d="m 54,607.2001 v 112.8 h 453.12 v -112.8 z" /></clipPath><clipPath
       id="clipPath150"
       clipPathUnits="userSpaceOnUse"><path
         id="path148"
         d="m 54,607.2001 h 453.12 v 112.8 H 54 Z" /></clipPath><clipPath
       id="clipPath164"
       clipPathUnits="userSpaceOnUse"><path
         id="path162"
         d="m 54,607.2001 v 112.8 h 453.12 v -112.8 z" /></clipPath><clipPath
       id="clipPath170"
       clipPathUnits="userSpaceOnUse"><path
         id="path168"
         d="m 54,607.2001 h 453.12 v 112.8 H 54 Z" /></clipPath><clipPath
       id="clipPath184"
       clipPathUnits="userSpaceOnUse"><path
         id="path182"
         d="m 54,607.2001 v 112.8 h 453.12 v -112.8 z" /></clipPath><clipPath
       id="clipPath190"
       clipPathUnits="userSpaceOnUse"><path
         id="path188"
         d="m 54,607.2001 h 453.12 v 112.8 H 54 Z" /></clipPath><clipPath
       id="clipPath204"
       clipPathUnits="userSpaceOnUse"><path
         id="path202"
         d="m 54,607.2001 v 112.8 h 453.12 v -112.8 z" /></clipPath><clipPath
       id="clipPath210"
       clipPathUnits="userSpaceOnUse"><path
         id="path208"
         d="m 54,607.2001 h 453.12 v 112.8 H 54 Z" /></clipPath><clipPath
       id="clipPath224"
       clipPathUnits="userSpaceOnUse"><path
         id="path222"
         d="m 54,607.2001 v 112.8 h 453.12 v -112.8 z" /></clipPath><clipPath
       id="clipPath230"
       clipPathUnits="userSpaceOnUse"><path
         id="path228"
         d="m 54,607.2001 h 453.12 v 112.8 H 54 Z" /></clipPath><clipPath
       id="clipPath244"
       clipPathUnits="userSpaceOnUse"><path
         id="path242"
         d="m 54,607.2001 v 112.8 h 453.12 v -112.8 z" /></clipPath><clipPath
       id="clipPath250"
       clipPathUnits="userSpaceOnUse"><path
         id="path248"
         d="m 54,607.2001 h 453.12 v 112.8 H 54 Z" /></clipPath><clipPath
       id="clipPath264"
       clipPathUnits="userSpaceOnUse"><path
         id="path262"
         d="m 54.48,691.5601 h 452.16 v 27.96002 H 54.48 Z" /></clipPath><clipPath
       id="clipPath278"
       clipPathUnits="userSpaceOnUse"><path
         id="path276"
         d="m 53.04,605.1601 h 456.12 v 115.8 H 53.04 Z" /></clipPath></defs><g
     clip-path="url(#clipPath14)"
     transform="matrix(1.3333333,0,0,-1.3333333,-71.17152,961.80947)"
     id="g10"><g
       id="g16" /><g
       id="g18"><g
         clip-path="url(#clipPath24)"
         id="g20"><g
           clip-path="url(#clipPath30)"
           id="g26"><path
             id="path32"
             style="fill:#90a1ae;fill-opacity:1;fill-rule:nonzero;stroke:none"
             d="m 54.48,691.4401 h 452.28 v 28.08 H 54.48 Z" /><path
             id="path34"
             style="fill:#b8c1c9;fill-opacity:1;fill-rule:nonzero;stroke:none"
             d="m 167.52,663.48 h 339.24 v 28.08 H 167.52 Z" /><path
             id="path36"
             style="fill:#b8c1c9;fill-opacity:1;fill-rule:nonzero;stroke:none"
             d="m 54.48,607.5601 h 113.16 v 56.04 H 54.48 Z" /></g></g></g><g
       id="g38"><g
         clip-path="url(#clipPath44)"
         id="g40"><g
           clip-path="url(#clipPath50)"
           id="g46"><g
             transform="matrix(0.24,0,0,0.24,18,40.08008)"
             id="g52"><text
               id="text56"
               style="font-variant:normal;font-weight:normal;font-size:58px;font-family:Lintel;-inkscape-font-specification:Lintel-Regular;writing-mode:lr-tb;fill:#000000;fill-opacity:1;fill-rule:nonzero;stroke:none"
               transform="matrix(1,0,0,-1,658.5,2637.75)"><tspan
                 id="tspan54"
                 y="0"
                 x="0 19.139999 45.588001 65.424004 82.823997 127.832 156.54201 186.75999 206.59599 237.104 254.504 283.21399 313.026 332.862 345.27399 373.98401">1st month option</tspan></text>
</g></g></g></g><g
       id="g58"><g
         clip-path="url(#clipPath64)"
         id="g60"><g
           clip-path="url(#clipPath70)"
           id="g66"><g
             transform="matrix(0.24,0,0,0.24,18,40.08008)"
             id="g72"><text
               id="text76"
               style="font-variant:normal;font-weight:normal;font-size:58px;font-family:Lintel;-inkscape-font-specification:Lintel-Regular;writing-mode:lr-tb;fill:#000000;fill-opacity:1;fill-rule:nonzero;stroke:none"
               transform="matrix(1,0,0,-1,1118.5,2637.75)"><tspan
                 id="tspan74"
                 y="0"
                 x="0 27.492001 57.709999 87.232002 104.632 149.64 178.35001 208.56799 228.40401 258.91199 276.31201 305.022 334.83401 354.67001 367.082 395.79199">2nd month option</tspan></text>
</g></g></g></g><g
       id="g78"><g
         clip-path="url(#clipPath84)"
         id="g80"><g
           clip-path="url(#clipPath90)"
           id="g86"><g
             transform="matrix(0.24,0,0,0.24,18,40.08008)"
             id="g92"><text
               id="text96"
               style="font-variant:normal;font-weight:normal;font-size:58px;font-family:Lintel;-inkscape-font-specification:Lintel-Regular;writing-mode:lr-tb;fill:#000000;fill-opacity:1;fill-rule:nonzero;stroke:none"
               transform="matrix(1,0,0,-1,1593.5,2637.75)"><tspan
                 id="tspan94"
                 y="0"
                 x="0 29.870001 50.285999 79.807999 97.208 142.216 170.92599 201.144 220.98 251.48801 268.888 297.59799 327.41 347.246 359.65799 388.36801">3rd month option</tspan></text>
</g></g></g></g><g
       id="g98"><g
         clip-path="url(#clipPath104)"
         id="g100"><g
           clip-path="url(#clipPath110)"
           id="g106"><g
             transform="matrix(0.24,0,0,0.24,18,40.08008)"
             id="g112"><text
               id="text116"
               style="font-variant:normal;font-weight:normal;font-size:58px;font-family:Lintel;-inkscape-font-specification:Lintel-Regular;writing-mode:lr-tb;fill:#000000;fill-opacity:1;fill-rule:nonzero;stroke:none"
               transform="matrix(1,0,0,-1,269.5,2521.25)"><tspan
                 id="tspan114"
                 y="0"
                 x="0 33.118 57.362 87.174004 99.585999 119.422 148.71201 168.548 180.96001 209.67">Expiration</tspan></text>
</g></g></g></g><g
       id="g118"><g
         clip-path="url(#clipPath124)"
         id="g120"><g
           clip-path="url(#clipPath130)"
           id="g126"><g
             transform="matrix(0.24,0,0,0.24,18,40.08008)"
             id="g132"><text
               id="text136"
               style="font-variant:normal;font-weight:normal;font-size:50px;font-family:Lintel;-inkscape-font-specification:Lintel-Regular;writing-mode:lr-tb;fill:#000000;fill-opacity:1;fill-rule:nonzero;stroke:none"
               transform="matrix(1,0,0,-1,736.5,2523.25)"><tspan
                 id="tspan134"
                 y="0"
                 x="0 16.75 42 68.050003 83.050003 106.75 132.2 139.45 154.45 178.14999 206.89999 223.39999">Jan 24, 2014</tspan></text>
</g></g></g></g><g
       id="g138"><g
         clip-path="url(#clipPath144)"
         id="g140"><g
           clip-path="url(#clipPath150)"
           id="g146"><g
             transform="matrix(0.24,0,0,0.24,18,40.08008)"
             id="g152"><text
               id="text156"
               style="font-variant:normal;font-weight:normal;font-size:50px;font-family:Lintel;-inkscape-font-specification:Lintel-Regular;writing-mode:lr-tb;fill:#000000;fill-opacity:1;fill-rule:nonzero;stroke:none"
               transform="matrix(1,0,0,-1,1207,2523.25)"><tspan
                 id="tspan154"
                 y="0"
                 x="0 27.9 51.75 77.199997 92.199997 115.9 132.39999 139.64999 154.64999 178.35001 207.10001 223.60001">Feb 21, 2014</tspan></text>
</g></g></g></g><g
       id="g158"><g
         clip-path="url(#clipPath164)"
         id="g160"><g
           clip-path="url(#clipPath170)"
           id="g166"><g
             transform="matrix(0.24,0,0,0.24,18,40.08008)"
             id="g172"><text
               id="text176"
               style="font-variant:normal;font-weight:normal;font-size:50px;font-family:Lintel;-inkscape-font-specification:Lintel-Regular;writing-mode:lr-tb;fill:#000000;fill-opacity:1;fill-rule:nonzero;stroke:none"
               transform="matrix(1,0,0,-1,1676.5,2523.25)"><tspan
                 id="tspan174"
                 y="0"
                 x="0 37.299999 62.549999 80.150002 95.150002 118.85 135.35001 142.60001 157.60001 181.3 210.05 226.55">Mar 21, 2014</tspan></text>
</g></g></g></g><g
       id="g178"><g
         clip-path="url(#clipPath184)"
         id="g180"><g
           clip-path="url(#clipPath190)"
           id="g186"><g
             transform="matrix(0.24,0,0,0.24,18,40.08008)"
             id="g192"><text
               id="text196"
               style="font-variant:normal;font-weight:normal;font-size:58px;font-family:Lintel;-inkscape-font-specification:Lintel-Regular;writing-mode:lr-tb;fill:#000000;fill-opacity:1;fill-rule:nonzero;stroke:none"
               transform="matrix(1,0,0,-1,183,2404.75)"><tspan
                 id="tspan194"
                 y="0"
                 x="0 36.945999 66.236 96.454002 122.902 140.302 159.73199 188.442 205.842 250.85001 280.14001 299.97601 329.90399 350.32001 362.73199 382.56799">Days to maturity</tspan></text>
</g></g></g></g><g
       id="g198"><g
         clip-path="url(#clipPath204)"
         id="g200"><g
           clip-path="url(#clipPath210)"
           id="g206"><g
             transform="matrix(0.24,0,0,0.24,18,40.08008)"
             id="g212"><text
               id="text216"
               style="font-variant:normal;font-weight:normal;font-size:50px;font-family:Lintel;-inkscape-font-specification:Lintel-Regular;writing-mode:lr-tb;fill:#000000;fill-opacity:1;fill-rule:nonzero;stroke:none"
               transform="matrix(1,0,0,-1,846.5,2406.75)"><tspan
                 id="tspan214"
                 y="0"
                 x="0">9</tspan></text>
</g></g></g></g><g
       id="g218"><g
         clip-path="url(#clipPath224)"
         id="g220"><g
           clip-path="url(#clipPath230)"
           id="g226"><g
             transform="matrix(0.24,0,0,0.24,18,40.08008)"
             id="g232"><text
               id="text236"
               style="font-variant:normal;font-weight:normal;font-size:50px;font-family:Lintel;-inkscape-font-specification:Lintel-Regular;writing-mode:lr-tb;fill:#000000;fill-opacity:1;fill-rule:nonzero;stroke:none"
               transform="matrix(1,0,0,-1,1306.5,2406.75)"><tspan
                 id="tspan234"
                 y="0"
                 x="0 25.75">37</tspan></text>
</g></g></g></g><g
       id="g238"><g
         clip-path="url(#clipPath244)"
         id="g240"><g
           clip-path="url(#clipPath250)"
           id="g246"><g
             transform="matrix(0.24,0,0,0.24,18,40.08008)"
             id="g252"><text
               id="text256"
               style="font-variant:normal;font-weight:normal;font-size:50px;font-family:Lintel;-inkscape-font-specification:Lintel-Regular;writing-mode:lr-tb;fill:#000000;fill-opacity:1;fill-rule:nonzero;stroke:none"
               transform="matrix(1,0,0,-1,1776,2406.75)"><tspan
                 id="tspan254"
                 y="0"
                 x="0 28.200001">65</tspan></text>
</g></g></g></g><g
       id="g258"><g
         clip-path="url(#clipPath264)"
         id="g260"><g
           transform="matrix(0.24,0,0,0.24,18,40.08008)"
           id="g266"><text
             id="text270"
             style="font-variant:normal;font-weight:normal;font-size:58px;font-family:Lintel;-inkscape-font-specification:Lintel-Regular;writing-mode:lr-tb;fill:#000000;fill-opacity:1;fill-rule:nonzero;stroke:none"
             transform="matrix(1,0,0,-1,905.5,2754.25)"><tspan
               id="tspan268"
               y="0"
               x="0 36.133999 65.945999 85.781998 98.194 126.904 157.12199 174.522 219.53 248.82001 268.65601 298.58401 319 331.41199 351.24799">Option maturity</tspan></text>
</g></g></g><g
       id="g272"><g
         clip-path="url(#clipPath278)"
         id="g274"><g
           transform="matrix(0.12,0,0,0.12,18,40.08008)"
           id="g280"><path
             id="path282"
             style="fill:none;stroke:#000000;stroke-width:8;stroke-linecap:butt;stroke-linejoin:miter;stroke-miterlimit:10;stroke-dasharray:none;stroke-opacity:1"
             d="M 304,5666 V 4726" /></g><g
           transform="matrix(0.12,0,0,0.12,18,40.08008)"
           id="g284"><path
             id="path286"
             style="fill:none;stroke:#000000;stroke-width:8;stroke-linecap:butt;stroke-linejoin:miter;stroke-miterlimit:10;stroke-dasharray:none;stroke-opacity:1"
             d="M 4072,5658 V 4726" /></g><g
           transform="matrix(0.12,0,0,0.12,18,40.08008)"
           id="g288"><path
             id="path290"
             style="fill:none;stroke:#000000;stroke-width:8;stroke-linecap:butt;stroke-linejoin:miter;stroke-miterlimit:10;stroke-dasharray:none;stroke-opacity:1"
             d="M 1246,5425 V 4726" /></g><g
           transform="matrix(0.12,0,0,0.12,18,40.08008)"
           id="g292"><path
             id="path294"
             style="fill:none;stroke:#000000;stroke-width:8;stroke-linecap:butt;stroke-linejoin:miter;stroke-miterlimit:10;stroke-dasharray:none;stroke-opacity:1"
             d="M 2188,5425 V 4726" /></g><g
           transform="matrix(0.12,0,0,0.12,18,40.08008)"
           id="g296"><path
             id="path298"
             style="fill:none;stroke:#000000;stroke-width:8;stroke-linecap:butt;stroke-linejoin:miter;stroke-miterlimit:10;stroke-dasharray:none;stroke-opacity:1"
             d="M 3130,5425 V 4726" /></g><g
           transform="matrix(0.12,0,0,0.12,18,40.08008)"
           id="g300"><path
             id="path302"
             style="fill:none;stroke:#000000;stroke-width:8;stroke-linecap:butt;stroke-linejoin:miter;stroke-miterlimit:10;stroke-dasharray:none;stroke-opacity:1"
             d="M 308,5662 H 4076" /></g><g
           transform="matrix(0.12,0,0,0.12,18,40.08008)"
           id="g304"><path
             id="path306"
             style="fill:none;stroke:#000000;stroke-width:8;stroke-linecap:butt;stroke-linejoin:miter;stroke-miterlimit:10;stroke-dasharray:none;stroke-opacity:1"
             d="M 308,5429 H 4076" /></g><g
           transform="matrix(0.12,0,0,0.12,18,40.08008)"
           id="g308"><path
             id="path310"
             style="fill:none;stroke:#000000;stroke-width:8;stroke-linecap:butt;stroke-linejoin:miter;stroke-miterlimit:10;stroke-dasharray:none;stroke-opacity:1"
             d="M 308,5196 H 4076" /></g><g
           transform="matrix(0.12,0,0,0.12,18,40.08008)"
           id="g312"><path
             id="path314"
             style="fill:none;stroke:#000000;stroke-width:8;stroke-linecap:butt;stroke-linejoin:miter;stroke-miterlimit:10;stroke-dasharray:none;stroke-opacity:1"
             d="M 308,4963 H 4076" /></g><g
           transform="matrix(0.12,0,0,0.12,18,40.08008)"
           id="g316"><path
             id="path318"
             style="fill:none;stroke:#000000;stroke-width:8;stroke-linecap:butt;stroke-linejoin:miter;stroke-miterlimit:10;stroke-dasharray:none;stroke-opacity:1"
             d="M 308,4730 H 4076" /></g></g></g></g></svg>