<?xml version="1.0" encoding="UTF-8" standalone="no"?>
<!-- Created with Inkscape (http://www.inkscape.org/) -->

<svg
   xmlns:dc="http://purl.org/dc/elements/1.1/"
   xmlns:cc="http://creativecommons.org/ns#"
   xmlns:rdf="http://www.w3.org/1999/02/22-rdf-syntax-ns#"
   xmlns:svg="http://www.w3.org/2000/svg"
   xmlns="http://www.w3.org/2000/svg"
   xmlns:sodipodi="http://sodipodi.sourceforge.net/DTD/sodipodi-0.dtd"
   xmlns:inkscape="http://www.inkscape.org/namespaces/inkscape"
   id="svg4003"
   version="1.1"
   inkscape:version="0.91 r13725"
   xml:space="preserve"
   width="569.56274"
   height="79.815247"
   viewBox="0 0 569.56274 79.815247"
   sodipodi:docname="MaturityChoice.svg"><metadata
     id="metadata4009"><rdf:RDF><cc:Work
         rdf:about=""><dc:format>image/svg+xml</dc:format><dc:type
           rdf:resource="http://purl.org/dc/dcmitype/StillImage" /><dc:title></dc:title></cc:Work></rdf:RDF></metadata><defs
     id="defs4007"><clipPath
       clipPathUnits="userSpaceOnUse"
       id="clipPath4019"><path
         d="m 54,659.2801 0,60.72 453.12,0 0,-60.72 -453.12,0 z"
         id="path4021"
         inkscape:connector-curvature="0" /></clipPath><clipPath
       clipPathUnits="userSpaceOnUse"
       id="clipPath4025"><path
         d="M 0,0 612,0 612,792 0,792 0,0 Z"
         id="path4027"
         inkscape:connector-curvature="0" /></clipPath><clipPath
       clipPathUnits="userSpaceOnUse"
       id="clipPath4037"><path
         d="m 54,659.2801 0,60.72 453.12,0 0,-60.72 -453.12,0 z"
         id="path4039"
         inkscape:connector-curvature="0" /></clipPath><clipPath
       clipPathUnits="userSpaceOnUse"
       id="clipPath4043"><path
         d="m 54,659.2801 453.12,0 0,60.71997 -453.12,0 0,-60.71997 z"
         id="path4045"
         inkscape:connector-curvature="0" /></clipPath><clipPath
       clipPathUnits="userSpaceOnUse"
       id="clipPath4057"><path
         d="m 54,659.2801 0,60.72 453.12,0 0,-60.72 -453.12,0 z"
         id="path4059"
         inkscape:connector-curvature="0" /></clipPath><clipPath
       clipPathUnits="userSpaceOnUse"
       id="clipPath4063"><path
         d="m 54,659.2801 453.12,0 0,60.71997 -453.12,0 0,-60.71997 z"
         id="path4065"
         inkscape:connector-curvature="0" /></clipPath><clipPath
       clipPathUnits="userSpaceOnUse"
       id="clipPath4077"><path
         d="m 54,659.2801 0,60.72 453.12,0 0,-60.72 -453.12,0 z"
         id="path4079"
         inkscape:connector-curvature="0" /></clipPath><clipPath
       clipPathUnits="userSpaceOnUse"
       id="clipPath4083"><path
         d="m 54,659.2801 453.12,0 0,60.71997 -453.12,0 0,-60.71997 z"
         id="path4085"
         inkscape:connector-curvature="0" /></clipPath><clipPath
       clipPathUnits="userSpaceOnUse"
       id="clipPath4097"><path
         d="m 54,659.2801 0,60.72 453.12,0 0,-60.72 -453.12,0 z"
         id="path4099"
         inkscape:connector-curvature="0" /></clipPath><clipPath
       clipPathUnits="userSpaceOnUse"
       id="clipPath4103"><path
         d="m 54,659.2801 453.12,0 0,60.71997 -453.12,0 0,-60.71997 z"
         id="path4105"
         inkscape:connector-curvature="0" /></clipPath><clipPath
       clipPathUnits="userSpaceOnUse"
       id="clipPath4117"><path
         d="m 54,659.2801 0,60.72 453.12,0 0,-60.72 -453.12,0 z"
         id="path4119"
         inkscape:connector-curvature="0" /></clipPath><clipPath
       clipPathUnits="userSpaceOnUse"
       id="clipPath4123"><path
         d="m 54,659.2801 453.12,0 0,60.71997 -453.12,0 0,-60.71997 z"
         id="path4125"
         inkscape:connector-curvature="0" /></clipPath><clipPath
       clipPathUnits="userSpaceOnUse"
       id="clipPath4137"><path
         d="m 54,659.2801 0,60.72 453.12,0 0,-60.72 -453.12,0 z"
         id="path4139"
         inkscape:connector-curvature="0" /></clipPath><clipPath
       clipPathUnits="userSpaceOnUse"
       id="clipPath4143"><path
         d="m 54,659.2801 453.12,0 0,60.71997 -453.12,0 0,-60.71997 z"
         id="path4145"
         inkscape:connector-curvature="0" /></clipPath><clipPath
       clipPathUnits="userSpaceOnUse"
       id="clipPath4157"><path
         d="m 54,659.2801 0,60.72 453.12,0 0,-60.72 -453.12,0 z"
         id="path4159"
         inkscape:connector-curvature="0" /></clipPath><clipPath
       clipPathUnits="userSpaceOnUse"
       id="clipPath4163"><path
         d="m 54,659.2801 453.12,0 0,60.71997 -453.12,0 0,-60.71997 z"
         id="path4165"
         inkscape:connector-curvature="0" /></clipPath><clipPath
       clipPathUnits="userSpaceOnUse"
       id="clipPath4177"><path
         d="m 54,659.2801 0,60.72 453.12,0 0,-60.72 -453.12,0 z"
         id="path4179"
         inkscape:connector-curvature="0" /></clipPath><clipPath
       clipPathUnits="userSpaceOnUse"
       id="clipPath4183"><path
         d="m 54,659.2801 453.12,0 0,60.71997 -453.12,0 0,-60.71997 z"
         id="path4185"
         inkscape:connector-curvature="0" /></clipPath><clipPath
       clipPathUnits="userSpaceOnUse"
       id="clipPath4197"><path
         d="m 54,659.2801 0,60.72 453.12,0 0,-60.72 -453.12,0 z"
         id="path4199"
         inkscape:connector-curvature="0" /></clipPath><clipPath
       clipPathUnits="userSpaceOnUse"
       id="clipPath4203"><path
         d="m 54,659.2801 453.12,0 0,60.71997 -453.12,0 0,-60.71997 z"
         id="path4205"
         inkscape:connector-curvature="0" /></clipPath><clipPath
       clipPathUnits="userSpaceOnUse"
       id="clipPath4217"><path
         d="m 54,659.2801 0,60.72 453.12,0 0,-60.72 -453.12,0 z"
         id="path4219"
         inkscape:connector-curvature="0" /></clipPath><clipPath
       clipPathUnits="userSpaceOnUse"
       id="clipPath4223"><path
         d="m 54,659.2801 453.12,0 0,60.71997 -453.12,0 0,-60.71997 z"
         id="path4225"
         inkscape:connector-curvature="0" /></clipPath><clipPath
       clipPathUnits="userSpaceOnUse"
       id="clipPath4237"><path
         d="m 54,659.2801 0,60.72 453.12,0 0,-60.72 -453.12,0 z"
         id="path4239"
         inkscape:connector-curvature="0" /></clipPath><clipPath
       clipPathUnits="userSpaceOnUse"
       id="clipPath4243"><path
         d="m 54,659.2801 453.12,0 0,60.71997 -453.12,0 0,-60.71997 z"
         id="path4245"
         inkscape:connector-curvature="0" /></clipPath><clipPath
       clipPathUnits="userSpaceOnUse"
       id="clipPath4257"><path
         d="m 53.04,657.2401 456.12,0 0,63.71997 -456.12,0 0,-63.71997 z"
         id="path4259"
         inkscape:connector-curvature="0" /></clipPath></defs><sodipodi:namedview
     pagecolor="#ffffff"
     bordercolor="#666666"
     borderopacity="1"
     objecttolerance="10"
     gridtolerance="10"
     guidetolerance="10"
     inkscape:pageopacity="0"
     inkscape:pageshadow="2"
     inkscape:window-width="1336"
     inkscape:window-height="563"
     id="namedview4005"
     showgrid="false"
     inkscape:zoom="0.55832304"
     inkscape:cx="284.78137"
     inkscape:cy="39.907623"
     inkscape:window-x="0"
     inkscape:window-y="0"
     inkscape:window-maximized="0"
     inkscape:current-layer="g4011" /><g
     id="g4011"
     inkscape:groupmode="layer"
     inkscape:label="MaturityChoice"
     transform="matrix(1.25,0,0,-1.25,-66.237775,902.31837)"><g
       id="g4013" /><g
       id="g4015"><g
         id="g4017"
         clip-path="url(#clipPath4019)"><g
           id="g4023"
           clip-path="url(#clipPath4025)"><path
             d="m 167.52,699.48 339.24,0 0,20.04 -339.24,0 0,-20.04 z"
             style="fill:#b8c1c9;fill-opacity:1;fill-rule:nonzero;stroke:none"
             id="path4029"
             inkscape:connector-curvature="0" /><path
             d="m 54.48,659.6401 113.16,0 0,39.96 -113.16,0 0,-39.96 z"
             style="fill:#b8c1c9;fill-opacity:1;fill-rule:nonzero;stroke:none"
             id="path4031"
             inkscape:connector-curvature="0" /></g></g></g><g
       id="g4033"><g
         id="g4035"
         clip-path="url(#clipPath4037)"><g
           id="g4041"
           clip-path="url(#clipPath4043)"><g
             id="g4047"
             transform="matrix(0.24,0,0,0.24,18,40.08008)"><text
               transform="matrix(1,0,0,-1,658.5,2771.25)"
               style="font-variant:normal;font-weight:normal;font-size:58px;font-family:Lintel-Regular;-inkscape-font-specification:Lintel-Regular;writing-mode:lr-tb;fill:#000000;fill-opacity:1;fill-rule:nonzero;stroke:none"
               id="text4049"><tspan
                 x="0 19.139999 45.588001 65.424004 82.823997 127.832 156.54201 186.75999 206.59599 237.104 254.504 283.21399 313.026 332.862 345.27399 373.98401"
                 y="0"
                 sodipodi:role="line"
                 id="tspan4051">1st month option</tspan></text>
</g></g></g></g><g
       id="g4053"><g
         id="g4055"
         clip-path="url(#clipPath4057)"><g
           id="g4061"
           clip-path="url(#clipPath4063)"><g
             id="g4067"
             transform="matrix(0.24,0,0,0.24,18,40.08008)"><text
               transform="matrix(1,0,0,-1,1118.5,2771.25)"
               style="font-variant:normal;font-weight:normal;font-size:58px;font-family:Lintel-Regular;-inkscape-font-specification:Lintel-Regular;writing-mode:lr-tb;fill:#000000;fill-opacity:1;fill-rule:nonzero;stroke:none"
               id="text4069"><tspan
                 x="0 27.492001 57.709999 87.232002 104.632 149.64 178.35001 208.56799 228.40401 258.91199 276.31201 305.022 334.83401 354.67001 367.082 395.79199"
                 y="0"
                 sodipodi:role="line"
                 id="tspan4071">2nd month option</tspan></text>
</g></g></g></g><g
       id="g4073"><g
         id="g4075"
         clip-path="url(#clipPath4077)"><g
           id="g4081"
           clip-path="url(#clipPath4083)"><g
             id="g4087"
             transform="matrix(0.24,0,0,0.24,18,40.08008)"><text
               transform="matrix(1,0,0,-1,1593.5,2771.25)"
               style="font-variant:normal;font-weight:normal;font-size:58px;font-family:Lintel-Regular;-inkscape-font-specification:Lintel-Regular;writing-mode:lr-tb;fill:#000000;fill-opacity:1;fill-rule:nonzero;stroke:none"
               id="text4089"><tspan
                 x="0 29.870001 50.285999 79.807999 97.208 142.216 170.92599 201.144 220.98 251.48801 268.888 297.59799 327.41 347.246 359.65799 388.36801"
                 y="0"
                 sodipodi:role="line"
                 id="tspan4091">3rd month option</tspan></text>
</g></g></g></g><g
       id="g4093"><g
         id="g4095"
         clip-path="url(#clipPath4097)"><g
           id="g4101"
           clip-path="url(#clipPath4103)"><g
             id="g4107"
             transform="matrix(0.24,0,0,0.24,18,40.08008)"><text
               transform="matrix(1,0,0,-1,269.5,2688.25)"
               style="font-variant:normal;font-weight:normal;font-size:58px;font-family:Lintel-Regular;-inkscape-font-specification:Lintel-Regular;writing-mode:lr-tb;fill:#000000;fill-opacity:1;fill-rule:nonzero;stroke:none"
               id="text4109"><tspan
                 x="0 33.118 57.362 87.174004 99.585999 119.422 148.71201 168.548 180.96001 209.67"
                 y="0"
                 sodipodi:role="line"
                 id="tspan4111">Expiration</tspan></text>
</g></g></g></g><g
       id="g4113"><g
         id="g4115"
         clip-path="url(#clipPath4117)"><g
           id="g4121"
           clip-path="url(#clipPath4123)"><g
             id="g4127"
             transform="matrix(0.24,0,0,0.24,18,40.08008)"><text
               transform="matrix(1,0,0,-1,735.5,2690.25)"
               style="font-variant:normal;font-weight:normal;font-size:50px;font-family:Lintel-Regular;-inkscape-font-specification:Lintel-Regular;writing-mode:lr-tb;fill:#000000;fill-opacity:1;fill-rule:nonzero;stroke:none"
               id="text4129"><tspan
                 x="0 31.450001 55.75 78.699997 93.699997 117.4 133.89999 141.14999 156.14999 179.85001 208.60001 225.10001"
                 y="0"
                 sodipodi:role="line"
                 id="tspan4131">Nov 21, 2014</tspan></text>
</g></g></g></g><g
       id="g4133"><g
         id="g4135"
         clip-path="url(#clipPath4137)"><g
           id="g4141"
           clip-path="url(#clipPath4143)"><g
             id="g4147"
             transform="matrix(0.24,0,0,0.24,18,40.08008)"><text
               transform="matrix(1,0,0,-1,1200.5,2690.25)"
               style="font-variant:normal;font-weight:normal;font-size:50px;font-family:Lintel-Regular;-inkscape-font-specification:Lintel-Regular;writing-mode:lr-tb;fill:#000000;fill-opacity:1;fill-rule:nonzero;stroke:none"
               id="text4149"><tspan
                 x="0 31.85 55.700001 78 93 116.7 145.45 152.7 167.7 191.39999 220.14999 236.64999"
                 y="0"
                 sodipodi:role="line"
                 id="tspan4151">Dec 26, 2014</tspan></text>
</g></g></g></g><g
       id="g4153"><g
         id="g4155"
         clip-path="url(#clipPath4157)"><g
           id="g4161"
           clip-path="url(#clipPath4163)"><g
             id="g4167"
             transform="matrix(0.24,0,0,0.24,18,40.08008)"><text
               transform="matrix(1,0,0,-1,1678,2690.25)"
               style="font-variant:normal;font-weight:normal;font-size:50px;font-family:Lintel-Regular;-inkscape-font-specification:Lintel-Regular;writing-mode:lr-tb;fill:#000000;fill-opacity:1;fill-rule:nonzero;stroke:none"
               id="text4169"><tspan
                 x="0 16.75 42 68.050003 83.050003 106.75 132.5 139.75 154.75 178.45 207.2 223.55"
                 y="0"
                 sodipodi:role="line"
                 id="tspan4171">Jan 23, 2015</tspan></text>
</g></g></g></g><g
       id="g4173"><g
         id="g4175"
         clip-path="url(#clipPath4177)"><g
           id="g4181"
           clip-path="url(#clipPath4183)"><g
             id="g4187"
             transform="matrix(0.24,0,0,0.24,18,40.08008)"><text
               transform="matrix(1,0,0,-1,183,2605.25)"
               style="font-variant:normal;font-weight:normal;font-size:58px;font-family:Lintel-Regular;-inkscape-font-specification:Lintel-Regular;writing-mode:lr-tb;fill:#000000;fill-opacity:1;fill-rule:nonzero;stroke:none"
               id="text4189"><tspan
                 x="0 36.945999 66.236 96.454002 122.902 140.302 159.73199 188.442 205.842 250.85001 280.14001 299.97601 329.90399 350.32001 362.73199 382.56799"
                 y="0"
                 sodipodi:role="line"
                 id="tspan4191">Days to maturity</tspan></text>
</g></g></g></g><g
       id="g4193"><g
         id="g4195"
         clip-path="url(#clipPath4197)"><g
           id="g4201"
           clip-path="url(#clipPath4203)"><g
             id="g4207"
             transform="matrix(0.24,0,0,0.24,18,40.08008)"><text
               transform="matrix(1,0,0,-1,844,2607.25)"
               style="font-variant:normal;font-weight:normal;font-size:50px;font-family:Lintel-Regular;-inkscape-font-specification:Lintel-Regular;writing-mode:lr-tb;fill:#000000;fill-opacity:1;fill-rule:nonzero;stroke:none"
               id="text4209"><tspan
                 x="0 16.5"
                 y="0"
                 sodipodi:role="line"
                 id="tspan4211">11</tspan></text>
</g></g></g></g><g
       id="g4213"><g
         id="g4215"
         clip-path="url(#clipPath4217)"><g
           id="g4221"
           clip-path="url(#clipPath4223)"><g
             id="g4227"
             transform="matrix(0.24,0,0,0.24,18,40.08008)"><text
               transform="matrix(1,0,0,-1,1305,2607.25)"
               style="font-variant:normal;font-weight:normal;font-size:50px;font-family:Lintel-Regular;-inkscape-font-specification:Lintel-Regular;writing-mode:lr-tb;fill:#000000;fill-opacity:1;fill-rule:nonzero;stroke:none"
               id="text4229"><tspan
                 x="0 25.450001"
                 y="0"
                 sodipodi:role="line"
                 id="tspan4231">46</tspan></text>
</g></g></g></g><g
       id="g4233"><g
         id="g4235"
         clip-path="url(#clipPath4237)"><g
           id="g4241"
           clip-path="url(#clipPath4243)"><g
             id="g4247"
             transform="matrix(0.24,0,0,0.24,18,40.08008)"><text
               transform="matrix(1,0,0,-1,1778,2607.25)"
               style="font-variant:normal;font-weight:normal;font-size:50px;font-family:Lintel-Regular;-inkscape-font-specification:Lintel-Regular;writing-mode:lr-tb;fill:#000000;fill-opacity:1;fill-rule:nonzero;stroke:none"
               id="text4249"><tspan
                 x="0 24.1"
                 y="0"
                 sodipodi:role="line"
                 id="tspan4251">74</tspan></text>
</g></g></g></g><g
       id="g4253"><g
         id="g4255"
         clip-path="url(#clipPath4257)"><g
           id="g4261"
           transform="matrix(0.12,0,0,0.12,18,40.08008)"><path
             d="m 304,5666 0,-506"
             style="fill:none;stroke:#000000;stroke-width:8;stroke-linecap:butt;stroke-linejoin:miter;stroke-miterlimit:10;stroke-dasharray:none;stroke-opacity:1"
             id="path4263"
             inkscape:connector-curvature="0" /></g><g
           id="g4265"
           transform="matrix(0.12,0,0,0.12,18,40.08008)"><path
             d="m 1246,5658 0,-498"
             style="fill:none;stroke:#000000;stroke-width:8;stroke-linecap:butt;stroke-linejoin:miter;stroke-miterlimit:10;stroke-dasharray:none;stroke-opacity:1"
             id="path4267"
             inkscape:connector-curvature="0" /></g><g
           id="g4269"
           transform="matrix(0.12,0,0,0.12,18,40.08008)"><path
             d="m 2188,5658 0,-498"
             style="fill:none;stroke:#000000;stroke-width:8;stroke-linecap:butt;stroke-linejoin:miter;stroke-miterlimit:10;stroke-dasharray:none;stroke-opacity:1"
             id="path4271"
             inkscape:connector-curvature="0" /></g><g
           id="g4273"
           transform="matrix(0.12,0,0,0.12,18,40.08008)"><path
             d="m 3130,5658 0,-498"
             style="fill:none;stroke:#000000;stroke-width:8;stroke-linecap:butt;stroke-linejoin:miter;stroke-miterlimit:10;stroke-dasharray:none;stroke-opacity:1"
             id="path4275"
             inkscape:connector-curvature="0" /></g><g
           id="g4277"
           transform="matrix(0.12,0,0,0.12,18,40.08008)"><path
             d="m 4072,5658 0,-498"
             style="fill:none;stroke:#000000;stroke-width:8;stroke-linecap:butt;stroke-linejoin:miter;stroke-miterlimit:10;stroke-dasharray:none;stroke-opacity:1"
             id="path4279"
             inkscape:connector-curvature="0" /></g><g
           id="g4281"
           transform="matrix(0.12,0,0,0.12,18,40.08008)"><path
             d="m 308,5662 3768,0"
             style="fill:none;stroke:#000000;stroke-width:8;stroke-linecap:butt;stroke-linejoin:miter;stroke-miterlimit:10;stroke-dasharray:none;stroke-opacity:1"
             id="path4283"
             inkscape:connector-curvature="0" /></g><g
           id="g4285"
           transform="matrix(0.12,0,0,0.12,18,40.08008)"><path
             d="m 308,5496 3768,0"
             style="fill:none;stroke:#000000;stroke-width:8;stroke-linecap:butt;stroke-linejoin:miter;stroke-miterlimit:10;stroke-dasharray:none;stroke-opacity:1"
             id="path4287"
             inkscape:connector-curvature="0" /></g><g
           id="g4289"
           transform="matrix(0.12,0,0,0.12,18,40.08008)"><path
             d="m 308,5330 3768,0"
             style="fill:none;stroke:#000000;stroke-width:8;stroke-linecap:butt;stroke-linejoin:miter;stroke-miterlimit:10;stroke-dasharray:none;stroke-opacity:1"
             id="path4291"
             inkscape:connector-curvature="0" /></g><g
           id="g4293"
           transform="matrix(0.12,0,0,0.12,18,40.08008)"><path
             d="m 308,5164 3768,0"
             style="fill:none;stroke:#000000;stroke-width:8;stroke-linecap:butt;stroke-linejoin:miter;stroke-miterlimit:10;stroke-dasharray:none;stroke-opacity:1"
             id="path4295"
             inkscape:connector-curvature="0" /></g></g></g></g></svg>