<?xml version="1.0" encoding="UTF-8" standalone="no"?>
<svg
   xmlns:dc="http://purl.org/dc/elements/1.1/"
   xmlns:cc="http://creativecommons.org/ns#"
   xmlns:rdf="http://www.w3.org/1999/02/22-rdf-syntax-ns#"
   xmlns:svg="http://www.w3.org/2000/svg"
   xmlns="http://www.w3.org/2000/svg"
   viewBox="0 0 607.12054 117.00813"
   height="117.00813"
   width="607.12054"
   xml:space="preserve"
   id="svg2"
   version="1.1"><metadata
     id="metadata8"><rdf:RDF><cc:Work
         rdf:about=""><dc:format>image/svg+xml</dc:format><dc:type
           rdf:resource="http://purl.org/dc/dcmitype/StillImage" /></cc:Work></rdf:RDF></metadata><defs
     id="defs6"><clipPath
       id="clipPath14"
       clipPathUnits="userSpaceOnUse"><path
         id="path12"
         d="M 0,0 H 612 V 792 H 0 Z" /></clipPath><clipPath
       id="clipPath24"
       clipPathUnits="userSpaceOnUse"><path
         id="path22"
         d="m 54,635.16 v 84.8401 H 507.12 V 635.16 Z" /></clipPath><clipPath
       id="clipPath30"
       clipPathUnits="userSpaceOnUse"><path
         id="path28"
         d="M 0,0 H 612 V 792 H 0 Z" /></clipPath><clipPath
       id="clipPath42"
       clipPathUnits="userSpaceOnUse"><path
         id="path40"
         d="m 54,635.16 v 84.8401 H 507.12 V 635.16 Z" /></clipPath><clipPath
       id="clipPath48"
       clipPathUnits="userSpaceOnUse"><path
         id="path46"
         d="m 54,635.1601 h 453.12 v 84.84003 H 54 Z" /></clipPath><clipPath
       id="clipPath62"
       clipPathUnits="userSpaceOnUse"><path
         id="path60"
         d="m 54,635.16 v 84.8401 H 507.12 V 635.16 Z" /></clipPath><clipPath
       id="clipPath68"
       clipPathUnits="userSpaceOnUse"><path
         id="path66"
         d="m 54,635.1601 h 453.12 v 84.84003 H 54 Z" /></clipPath><clipPath
       id="clipPath82"
       clipPathUnits="userSpaceOnUse"><path
         id="path80"
         d="m 54,635.16 v 84.8401 H 507.12 V 635.16 Z" /></clipPath><clipPath
       id="clipPath88"
       clipPathUnits="userSpaceOnUse"><path
         id="path86"
         d="m 54,635.1601 h 453.12 v 84.84003 H 54 Z" /></clipPath><clipPath
       id="clipPath102"
       clipPathUnits="userSpaceOnUse"><path
         id="path100"
         d="m 54,635.16 v 84.8401 H 507.12 V 635.16 Z" /></clipPath><clipPath
       id="clipPath108"
       clipPathUnits="userSpaceOnUse"><path
         id="path106"
         d="m 54,635.1601 h 453.12 v 84.84003 H 54 Z" /></clipPath><clipPath
       id="clipPath122"
       clipPathUnits="userSpaceOnUse"><path
         id="path120"
         d="m 54,635.16 v 84.8401 H 507.12 V 635.16 Z" /></clipPath><clipPath
       id="clipPath128"
       clipPathUnits="userSpaceOnUse"><path
         id="path126"
         d="m 54,635.1601 h 453.12 v 84.84003 H 54 Z" /></clipPath><clipPath
       id="clipPath142"
       clipPathUnits="userSpaceOnUse"><path
         id="path140"
         d="m 54,635.16 v 84.8401 H 507.12 V 635.16 Z" /></clipPath><clipPath
       id="clipPath148"
       clipPathUnits="userSpaceOnUse"><path
         id="path146"
         d="m 54,635.1601 h 453.12 v 84.84003 H 54 Z" /></clipPath><clipPath
       id="clipPath162"
       clipPathUnits="userSpaceOnUse"><path
         id="path160"
         d="m 54,635.16 v 84.8401 H 507.12 V 635.16 Z" /></clipPath><clipPath
       id="clipPath168"
       clipPathUnits="userSpaceOnUse"><path
         id="path166"
         d="m 54,635.1601 h 453.12 v 84.84003 H 54 Z" /></clipPath><clipPath
       id="clipPath182"
       clipPathUnits="userSpaceOnUse"><path
         id="path180"
         d="m 54,635.16 v 84.8401 H 507.12 V 635.16 Z" /></clipPath><clipPath
       id="clipPath188"
       clipPathUnits="userSpaceOnUse"><path
         id="path186"
         d="m 54,635.1601 h 453.12 v 84.84003 H 54 Z" /></clipPath><clipPath
       id="clipPath202"
       clipPathUnits="userSpaceOnUse"><path
         id="path200"
         d="m 54,635.16 v 84.8401 H 507.12 V 635.16 Z" /></clipPath><clipPath
       id="clipPath208"
       clipPathUnits="userSpaceOnUse"><path
         id="path206"
         d="m 54,635.1601 h 453.12 v 84.84003 H 54 Z" /></clipPath><clipPath
       id="clipPath222"
       clipPathUnits="userSpaceOnUse"><path
         id="path220"
         d="m 54,635.16 v 84.8401 H 507.12 V 635.16 Z" /></clipPath><clipPath
       id="clipPath228"
       clipPathUnits="userSpaceOnUse"><path
         id="path226"
         d="m 54,635.1601 h 453.12 v 84.84003 H 54 Z" /></clipPath><clipPath
       id="clipPath242"
       clipPathUnits="userSpaceOnUse"><path
         id="path240"
         d="m 54,635.16 v 84.8401 H 507.12 V 635.16 Z" /></clipPath><clipPath
       id="clipPath248"
       clipPathUnits="userSpaceOnUse"><path
         id="path246"
         d="m 54,635.1601 h 453.12 v 84.84003 H 54 Z" /></clipPath><clipPath
       id="clipPath262"
       clipPathUnits="userSpaceOnUse"><path
         id="path260"
         d="m 53.04,633.1201 h 456.12 v 87.84003 H 53.04 Z" /></clipPath></defs><g
     clip-path="url(#clipPath14)"
     transform="matrix(1.3333333,0,0,-1.3333333,-70.897347,962.6692)"
     id="g10"><g
       id="g16" /><g
       id="g18"><g
         clip-path="url(#clipPath24)"
         id="g20"><g
           clip-path="url(#clipPath30)"
           id="g26"><path
             id="path32"
             style="fill:#b8c1c9;fill-opacity:1;fill-rule:nonzero;stroke:none"
             d="m 167.52,691.4401 h 339.24 v 28.08 H 167.52 Z" /><path
             id="path34"
             style="fill:#b8c1c9;fill-opacity:1;fill-rule:nonzero;stroke:none"
             d="m 54.48,635.5201 h 113.16 v 56.04 H 54.48 Z" /></g></g></g><g
       id="g36"><g
         clip-path="url(#clipPath42)"
         id="g38"><g
           clip-path="url(#clipPath48)"
           id="g44"><g
             transform="matrix(0.24,0,0,0.24,18,40.08008)"
             id="g50"><text
               id="text54"
               style="font-variant:normal;font-weight:normal;font-size:58px;font-family:Lintel;-inkscape-font-specification:Lintel-Regular;writing-mode:lr-tb;fill:#000000;fill-opacity:1;fill-rule:nonzero;stroke:none"
               transform="matrix(1,0,0,-1,658.5,2754.25)"><tspan
                 id="tspan52"
                 y="0"
                 x="0 19.139999 45.588001 65.424004 82.823997 127.832 156.54201 186.75999 206.59599 237.104 254.504 283.21399 313.026 332.862 345.27399 373.98401">1st month option</tspan></text>
</g></g></g></g><g
       id="g56"><g
         clip-path="url(#clipPath62)"
         id="g58"><g
           clip-path="url(#clipPath68)"
           id="g64"><g
             transform="matrix(0.24,0,0,0.24,18,40.08008)"
             id="g70"><text
               id="text74"
               style="font-variant:normal;font-weight:normal;font-size:58px;font-family:Lintel;-inkscape-font-specification:Lintel-Regular;writing-mode:lr-tb;fill:#000000;fill-opacity:1;fill-rule:nonzero;stroke:none"
               transform="matrix(1,0,0,-1,1118.5,2754.25)"><tspan
                 id="tspan72"
                 y="0"
                 x="0 27.492001 57.709999 87.232002 104.632 149.64 178.35001 208.56799 228.40401 258.91199 276.31201 305.022 334.83401 354.67001 367.082 395.79199">2nd month option</tspan></text>
</g></g></g></g><g
       id="g76"><g
         clip-path="url(#clipPath82)"
         id="g78"><g
           clip-path="url(#clipPath88)"
           id="g84"><g
             transform="matrix(0.24,0,0,0.24,18,40.08008)"
             id="g90"><text
               id="text94"
               style="font-variant:normal;font-weight:normal;font-size:58px;font-family:Lintel;-inkscape-font-specification:Lintel-Regular;writing-mode:lr-tb;fill:#000000;fill-opacity:1;fill-rule:nonzero;stroke:none"
               transform="matrix(1,0,0,-1,1593.5,2754.25)"><tspan
                 id="tspan92"
                 y="0"
                 x="0 29.870001 50.285999 79.807999 97.208 142.216 170.92599 201.144 220.98 251.48801 268.888 297.59799 327.41 347.246 359.65799 388.36801">3rd month option</tspan></text>
</g></g></g></g><g
       id="g96"><g
         clip-path="url(#clipPath102)"
         id="g98"><g
           clip-path="url(#clipPath108)"
           id="g104"><g
             transform="matrix(0.24,0,0,0.24,18,40.08008)"
             id="g110"><text
               id="text114"
               style="font-variant:normal;font-weight:normal;font-size:58px;font-family:Lintel;-inkscape-font-specification:Lintel-Regular;writing-mode:lr-tb;fill:#000000;fill-opacity:1;fill-rule:nonzero;stroke:none"
               transform="matrix(1,0,0,-1,269.5,2637.75)"><tspan
                 id="tspan112"
                 y="0"
                 x="0 33.118 57.362 87.174004 99.585999 119.422 148.71201 168.548 180.96001 209.67">Expiration</tspan></text>
</g></g></g></g><g
       id="g116"><g
         clip-path="url(#clipPath122)"
         id="g118"><g
           clip-path="url(#clipPath128)"
           id="g124"><g
             transform="matrix(0.24,0,0,0.24,18,40.08008)"
             id="g130"><text
               id="text134"
               style="font-variant:normal;font-weight:normal;font-size:50px;font-family:Lintel;-inkscape-font-specification:Lintel-Regular;writing-mode:lr-tb;fill:#000000;fill-opacity:1;fill-rule:nonzero;stroke:none"
               transform="matrix(1,0,0,-1,735.5,2639.75)"><tspan
                 id="tspan132"
                 y="0"
                 x="0 31.450001 55.75 78.699997 93.699997 117.4 133.89999 141.14999 156.14999 179.85001 208.60001 225.10001">Nov 21, 2014</tspan></text>
</g></g></g></g><g
       id="g136"><g
         clip-path="url(#clipPath142)"
         id="g138"><g
           clip-path="url(#clipPath148)"
           id="g144"><g
             transform="matrix(0.24,0,0,0.24,18,40.08008)"
             id="g150"><text
               id="text154"
               style="font-variant:normal;font-weight:normal;font-size:50px;font-family:Lintel;-inkscape-font-specification:Lintel-Regular;writing-mode:lr-tb;fill:#000000;fill-opacity:1;fill-rule:nonzero;stroke:none"
               transform="matrix(1,0,0,-1,1200.5,2639.75)"><tspan
                 id="tspan152"
                 y="0"
                 x="0 31.85 55.700001 78 93 116.7 145.45 152.7 167.7 191.39999 220.14999 236.64999">Dec 26, 2014</tspan></text>
</g></g></g></g><g
       id="g156"><g
         clip-path="url(#clipPath162)"
         id="g158"><g
           clip-path="url(#clipPath168)"
           id="g164"><g
             transform="matrix(0.24,0,0,0.24,18,40.08008)"
             id="g170"><text
               id="text174"
               style="font-variant:normal;font-weight:normal;font-size:50px;font-family:Lintel;-inkscape-font-specification:Lintel-Regular;writing-mode:lr-tb;fill:#000000;fill-opacity:1;fill-rule:nonzero;stroke:none"
               transform="matrix(1,0,0,-1,1678,2639.75)"><tspan
                 id="tspan172"
                 y="0"
                 x="0 16.75 42 68.050003 83.050003 106.75 132.5 139.75 154.75 178.45 207.2 223.55">Jan 23, 2015</tspan></text>
</g></g></g></g><g
       id="g176"><g
         clip-path="url(#clipPath182)"
         id="g178"><g
           clip-path="url(#clipPath188)"
           id="g184"><g
             transform="matrix(0.24,0,0,0.24,18,40.08008)"
             id="g190"><text
               id="text194"
               style="font-variant:normal;font-weight:normal;font-size:58px;font-family:Lintel;-inkscape-font-specification:Lintel-Regular;writing-mode:lr-tb;fill:#000000;fill-opacity:1;fill-rule:nonzero;stroke:none"
               transform="matrix(1,0,0,-1,183,2521.25)"><tspan
                 id="tspan192"
                 y="0"
                 x="0 36.945999 66.236 96.454002 122.902 140.302 159.73199 188.442 205.842 250.85001 280.14001 299.97601 329.90399 350.32001 362.73199 382.56799">Days to maturity</tspan></text>
</g></g></g></g><g
       id="g196"><g
         clip-path="url(#clipPath202)"
         id="g198"><g
           clip-path="url(#clipPath208)"
           id="g204"><g
             transform="matrix(0.24,0,0,0.24,18,40.08008)"
             id="g210"><text
               id="text214"
               style="font-variant:normal;font-weight:normal;font-size:50px;font-family:Lintel;-inkscape-font-specification:Lintel-Regular;writing-mode:lr-tb;fill:#000000;fill-opacity:1;fill-rule:nonzero;stroke:none"
               transform="matrix(1,0,0,-1,844,2523.25)"><tspan
                 id="tspan212"
                 y="0"
                 x="0 16.5">11</tspan></text>
</g></g></g></g><g
       id="g216"><g
         clip-path="url(#clipPath222)"
         id="g218"><g
           clip-path="url(#clipPath228)"
           id="g224"><g
             transform="matrix(0.24,0,0,0.24,18,40.08008)"
             id="g230"><text
               id="text234"
               style="font-variant:normal;font-weight:normal;font-size:50px;font-family:Lintel;-inkscape-font-specification:Lintel-Regular;writing-mode:lr-tb;fill:#000000;fill-opacity:1;fill-rule:nonzero;stroke:none"
               transform="matrix(1,0,0,-1,1305,2523.25)"><tspan
                 id="tspan232"
                 y="0"
                 x="0 25.450001">46</tspan></text>
</g></g></g></g><g
       id="g236"><g
         clip-path="url(#clipPath242)"
         id="g238"><g
           clip-path="url(#clipPath248)"
           id="g244"><g
             transform="matrix(0.24,0,0,0.24,18,40.08008)"
             id="g250"><text
               id="text254"
               style="font-variant:normal;font-weight:normal;font-size:50px;font-family:Lintel;-inkscape-font-specification:Lintel-Regular;writing-mode:lr-tb;fill:#000000;fill-opacity:1;fill-rule:nonzero;stroke:none"
               transform="matrix(1,0,0,-1,1778,2523.25)"><tspan
                 id="tspan252"
                 y="0"
                 x="0 24.1">74</tspan></text>
</g></g></g></g><g
       id="g256"><g
         clip-path="url(#clipPath262)"
         id="g258"><g
           transform="matrix(0.12,0,0,0.12,18,40.08008)"
           id="g264"><path
             id="path266"
             style="fill:none;stroke:#000000;stroke-width:8;stroke-linecap:butt;stroke-linejoin:miter;stroke-miterlimit:10;stroke-dasharray:none;stroke-opacity:1"
             d="M 304,5666 V 4959" /></g><g
           transform="matrix(0.12,0,0,0.12,18,40.08008)"
           id="g268"><path
             id="path270"
             style="fill:none;stroke:#000000;stroke-width:8;stroke-linecap:butt;stroke-linejoin:miter;stroke-miterlimit:10;stroke-dasharray:none;stroke-opacity:1"
             d="M 1246,5658 V 4959" /></g><g
           transform="matrix(0.12,0,0,0.12,18,40.08008)"
           id="g272"><path
             id="path274"
             style="fill:none;stroke:#000000;stroke-width:8;stroke-linecap:butt;stroke-linejoin:miter;stroke-miterlimit:10;stroke-dasharray:none;stroke-opacity:1"
             d="M 2188,5658 V 4959" /></g><g
           transform="matrix(0.12,0,0,0.12,18,40.08008)"
           id="g276"><path
             id="path278"
             style="fill:none;stroke:#000000;stroke-width:8;stroke-linecap:butt;stroke-linejoin:miter;stroke-miterlimit:10;stroke-dasharray:none;stroke-opacity:1"
             d="M 3130,5658 V 4959" /></g><g
           transform="matrix(0.12,0,0,0.12,18,40.08008)"
           id="g280"><path
             id="path282"
             style="fill:none;stroke:#000000;stroke-width:8;stroke-linecap:butt;stroke-linejoin:miter;stroke-miterlimit:10;stroke-dasharray:none;stroke-opacity:1"
             d="M 4072,5658 V 4959" /></g><g
           transform="matrix(0.12,0,0,0.12,18,40.08008)"
           id="g284"><path
             id="path286"
             style="fill:none;stroke:#000000;stroke-width:8;stroke-linecap:butt;stroke-linejoin:miter;stroke-miterlimit:10;stroke-dasharray:none;stroke-opacity:1"
             d="M 308,5662 H 4076" /></g><g
           transform="matrix(0.12,0,0,0.12,18,40.08008)"
           id="g288"><path
             id="path290"
             style="fill:none;stroke:#000000;stroke-width:8;stroke-linecap:butt;stroke-linejoin:miter;stroke-miterlimit:10;stroke-dasharray:none;stroke-opacity:1"
             d="M 308,5429 H 4076" /></g><g
           transform="matrix(0.12,0,0,0.12,18,40.08008)"
           id="g292"><path
             id="path294"
             style="fill:none;stroke:#000000;stroke-width:8;stroke-linecap:butt;stroke-linejoin:miter;stroke-miterlimit:10;stroke-dasharray:none;stroke-opacity:1"
             d="M 308,5196 H 4076" /></g><g
           transform="matrix(0.12,0,0,0.12,18,40.08008)"
           id="g296"><path
             id="path298"
             style="fill:none;stroke:#000000;stroke-width:8;stroke-linecap:butt;stroke-linejoin:miter;stroke-miterlimit:10;stroke-dasharray:none;stroke-opacity:1"
             d="M 308,4963 H 4076" /></g></g></g></g></svg>