<?xml version="1.0" encoding="UTF-8" standalone="no"?>
<svg
   xmlns:dc="http://purl.org/dc/elements/1.1/"
   xmlns:cc="http://creativecommons.org/ns#"
   xmlns:rdf="http://www.w3.org/1999/02/22-rdf-syntax-ns#"
   xmlns:svg="http://www.w3.org/2000/svg"
   xmlns="http://www.w3.org/2000/svg"
   viewBox="0 0 357.76904 131.54507"
   height="131.54507"
   width="357.76904"
   xml:space="preserve"
   id="svg2"
   version="1.1"><metadata
     id="metadata8"><rdf:RDF><cc:Work
         rdf:about=""><dc:format>image/svg+xml</dc:format><dc:type
           rdf:resource="http://purl.org/dc/dcmitype/StillImage" /></cc:Work></rdf:RDF></metadata><defs
     id="defs6"><clipPath
       id="clipPath14"
       clipPathUnits="userSpaceOnUse"><path
         id="path12"
         d="M 0,0 H 612 V 792 H 0 Z" /></clipPath><clipPath
       id="clipPath24"
       clipPathUnits="userSpaceOnUse"><path
         id="path22"
         d="m 54.0372,622.9836 v 96.9961 H 321.378 v -96.9961 z" /></clipPath><clipPath
       id="clipPath30"
       clipPathUnits="userSpaceOnUse"><path
         id="path28"
         d="M 0,0 H 612 V 792 H 0 Z" /></clipPath><clipPath
       id="clipPath44"
       clipPathUnits="userSpaceOnUse"><path
         id="path42"
         d="m 54.0372,622.9836 v 96.9961 H 321.378 v -96.9961 z" /></clipPath><clipPath
       id="clipPath50"
       clipPathUnits="userSpaceOnUse"><path
         id="path48"
         d="M 54.0372,622.9836 H 321.378 v 96.99597 H 54.0372 Z" /></clipPath><clipPath
       id="clipPath64"
       clipPathUnits="userSpaceOnUse"><path
         id="path62"
         d="m 54.0372,622.9836 v 96.9961 H 321.378 v -96.9961 z" /></clipPath><clipPath
       id="clipPath70"
       clipPathUnits="userSpaceOnUse"><path
         id="path68"
         d="M 54.0372,622.9836 H 321.378 v 96.99597 H 54.0372 Z" /></clipPath><clipPath
       id="clipPath84"
       clipPathUnits="userSpaceOnUse"><path
         id="path82"
         d="m 54.0372,622.9836 v 96.9961 H 321.378 v -96.9961 z" /></clipPath><clipPath
       id="clipPath90"
       clipPathUnits="userSpaceOnUse"><path
         id="path88"
         d="M 54.0372,622.9836 H 321.378 v 96.99597 H 54.0372 Z" /></clipPath><clipPath
       id="clipPath104"
       clipPathUnits="userSpaceOnUse"><path
         id="path102"
         d="m 54.0372,622.9836 v 96.9961 H 321.378 v -96.9961 z" /></clipPath><clipPath
       id="clipPath110"
       clipPathUnits="userSpaceOnUse"><path
         id="path108"
         d="M 54.0372,622.9836 H 321.378 v 96.99597 H 54.0372 Z" /></clipPath><clipPath
       id="clipPath124"
       clipPathUnits="userSpaceOnUse"><path
         id="path122"
         d="m 54.0372,622.9836 v 96.9961 H 321.378 v -96.9961 z" /></clipPath><clipPath
       id="clipPath130"
       clipPathUnits="userSpaceOnUse"><path
         id="path128"
         d="M 54.0372,622.9836 H 321.378 v 96.99597 H 54.0372 Z" /></clipPath><clipPath
       id="clipPath144"
       clipPathUnits="userSpaceOnUse"><path
         id="path142"
         d="m 54.0372,622.9836 v 96.9961 H 321.378 v -96.9961 z" /></clipPath><clipPath
       id="clipPath150"
       clipPathUnits="userSpaceOnUse"><path
         id="path148"
         d="M 54.0372,622.9836 H 321.378 v 96.99597 H 54.0372 Z" /></clipPath><clipPath
       id="clipPath164"
       clipPathUnits="userSpaceOnUse"><path
         id="path162"
         d="m 54.0372,622.9836 v 96.9961 H 321.378 v -96.9961 z" /></clipPath><clipPath
       id="clipPath170"
       clipPathUnits="userSpaceOnUse"><path
         id="path168"
         d="M 54.0372,622.9836 H 321.378 v 96.99597 H 54.0372 Z" /></clipPath><clipPath
       id="clipPath184"
       clipPathUnits="userSpaceOnUse"><path
         id="path182"
         d="m 54.0372,622.9836 v 96.9961 H 321.378 v -96.9961 z" /></clipPath><clipPath
       id="clipPath190"
       clipPathUnits="userSpaceOnUse"><path
         id="path188"
         d="M 54.0372,622.9836 H 321.378 v 96.99597 H 54.0372 Z" /></clipPath><clipPath
       id="clipPath204"
       clipPathUnits="userSpaceOnUse"><path
         id="path202"
         d="m 54.0372,622.9836 v 96.9961 H 321.378 v -96.9961 z" /></clipPath><clipPath
       id="clipPath210"
       clipPathUnits="userSpaceOnUse"><path
         id="path208"
         d="M 54.0372,622.9836 H 321.378 v 96.99597 H 54.0372 Z" /></clipPath><clipPath
       id="clipPath224"
       clipPathUnits="userSpaceOnUse"><path
         id="path222"
         d="m 54.0372,622.9836 v 96.9961 H 321.378 v -96.9961 z" /></clipPath><clipPath
       id="clipPath230"
       clipPathUnits="userSpaceOnUse"><path
         id="path228"
         d="M 54.0372,622.9836 H 321.378 v 96.99597 H 54.0372 Z" /></clipPath><clipPath
       id="clipPath244"
       clipPathUnits="userSpaceOnUse"><path
         id="path242"
         d="m 54.0372,622.9836 v 96.9961 H 321.378 v -96.9961 z" /></clipPath><clipPath
       id="clipPath250"
       clipPathUnits="userSpaceOnUse"><path
         id="path248"
         d="M 54.0372,622.9836 H 321.378 v 96.99597 H 54.0372 Z" /></clipPath><clipPath
       id="clipPath264"
       clipPathUnits="userSpaceOnUse"><path
         id="path262"
         d="m 54.0372,622.9836 v 96.9961 H 321.378 v -96.9961 z" /></clipPath><clipPath
       id="clipPath270"
       clipPathUnits="userSpaceOnUse"><path
         id="path268"
         d="M 54.0372,622.9836 H 321.378 v 96.99597 H 54.0372 Z" /></clipPath><clipPath
       id="clipPath284"
       clipPathUnits="userSpaceOnUse"><path
         id="path282"
         d="m 54.0372,622.9836 v 96.9961 H 321.378 v -96.9961 z" /></clipPath><clipPath
       id="clipPath290"
       clipPathUnits="userSpaceOnUse"><path
         id="path288"
         d="M 54.0372,622.9836 H 321.378 v 96.99597 H 54.0372 Z" /></clipPath><clipPath
       id="clipPath304"
       clipPathUnits="userSpaceOnUse"><path
         id="path302"
         d="m 54.0372,622.9836 v 96.9961 H 321.378 v -96.9961 z" /></clipPath><clipPath
       id="clipPath310"
       clipPathUnits="userSpaceOnUse"><path
         id="path308"
         d="M 54.0372,622.9836 H 321.378 v 96.99597 H 54.0372 Z" /></clipPath><clipPath
       id="clipPath324"
       clipPathUnits="userSpaceOnUse"><path
         id="path322"
         d="m 54.0372,622.9836 v 96.9961 H 321.378 v -96.9961 z" /></clipPath><clipPath
       id="clipPath330"
       clipPathUnits="userSpaceOnUse"><path
         id="path328"
         d="M 54.0372,622.9836 H 321.378 v 96.99597 H 54.0372 Z" /></clipPath><clipPath
       id="clipPath344"
       clipPathUnits="userSpaceOnUse"><path
         id="path342"
         d="m 54.0372,622.9836 v 96.9961 H 321.378 v -96.9961 z" /></clipPath><clipPath
       id="clipPath350"
       clipPathUnits="userSpaceOnUse"><path
         id="path348"
         d="M 54.0372,622.9836 H 321.378 v 96.99597 H 54.0372 Z" /></clipPath><clipPath
       id="clipPath364"
       clipPathUnits="userSpaceOnUse"><path
         id="path362"
         d="m 54.0372,622.9836 v 96.9961 H 321.378 v -96.9961 z" /></clipPath><clipPath
       id="clipPath370"
       clipPathUnits="userSpaceOnUse"><path
         id="path368"
         d="M 54.0372,622.9836 H 321.378 v 96.99597 H 54.0372 Z" /></clipPath><clipPath
       id="clipPath384"
       clipPathUnits="userSpaceOnUse"><path
         id="path382"
         d="m 54.0372,622.9836 v 96.9961 H 321.378 v -96.9961 z" /></clipPath><clipPath
       id="clipPath390"
       clipPathUnits="userSpaceOnUse"><path
         id="path388"
         d="M 54.0372,622.9836 H 321.378 v 96.99597 H 54.0372 Z" /></clipPath><clipPath
       id="clipPath404"
       clipPathUnits="userSpaceOnUse"><path
         id="path402"
         d="m 54.0372,622.9836 v 96.9961 H 321.378 v -96.9961 z" /></clipPath><clipPath
       id="clipPath410"
       clipPathUnits="userSpaceOnUse"><path
         id="path408"
         d="M 54.0372,622.9836 H 321.378 v 96.99597 H 54.0372 Z" /></clipPath><clipPath
       id="clipPath424"
       clipPathUnits="userSpaceOnUse"><path
         id="path422"
         d="m 54.0372,622.9836 v 96.9961 H 321.378 v -96.9961 z" /></clipPath><clipPath
       id="clipPath430"
       clipPathUnits="userSpaceOnUse"><path
         id="path428"
         d="M 54.0372,622.9836 H 321.378 v 96.99597 H 54.0372 Z" /></clipPath><clipPath
       id="clipPath444"
       clipPathUnits="userSpaceOnUse"><path
         id="path442"
         d="m 54.0372,622.9836 v 96.9961 H 321.378 v -96.9961 z" /></clipPath><clipPath
       id="clipPath450"
       clipPathUnits="userSpaceOnUse"><path
         id="path448"
         d="M 54.0372,622.9836 H 321.378 v 96.99597 H 54.0372 Z" /></clipPath><clipPath
       id="clipPath464"
       clipPathUnits="userSpaceOnUse"><path
         id="path462"
         d="m 54.0372,622.9836 v 96.9961 H 321.378 v -96.9961 z" /></clipPath><clipPath
       id="clipPath470"
       clipPathUnits="userSpaceOnUse"><path
         id="path468"
         d="M 54.0372,622.9836 H 321.378 v 96.99597 H 54.0372 Z" /></clipPath><clipPath
       id="clipPath484"
       clipPathUnits="userSpaceOnUse"><path
         id="path482"
         d="m 54.0372,622.9836 v 96.9961 H 321.378 v -96.9961 z" /></clipPath><clipPath
       id="clipPath490"
       clipPathUnits="userSpaceOnUse"><path
         id="path488"
         d="M 54.0372,622.9836 H 321.378 v 96.99597 H 54.0372 Z" /></clipPath><clipPath
       id="clipPath504"
       clipPathUnits="userSpaceOnUse"><path
         id="path502"
         d="m 54.0372,622.9836 v 96.9961 H 321.378 v -96.9961 z" /></clipPath><clipPath
       id="clipPath510"
       clipPathUnits="userSpaceOnUse"><path
         id="path508"
         d="M 54.0372,622.9836 H 321.378 v 96.99597 H 54.0372 Z" /></clipPath><clipPath
       id="clipPath524"
       clipPathUnits="userSpaceOnUse"><path
         id="path522"
         d="m 54.0372,622.9836 v 96.9961 H 321.378 v -96.9961 z" /></clipPath><clipPath
       id="clipPath530"
       clipPathUnits="userSpaceOnUse"><path
         id="path528"
         d="M 54.0372,622.9836 H 321.378 v 96.99597 H 54.0372 Z" /></clipPath><clipPath
       id="clipPath544"
       clipPathUnits="userSpaceOnUse"><path
         id="path542"
         d="m 54.0372,622.9836 v 96.9961 H 321.378 v -96.9961 z" /></clipPath><clipPath
       id="clipPath550"
       clipPathUnits="userSpaceOnUse"><path
         id="path548"
         d="M 54.0372,622.9836 H 321.378 v 96.99597 H 54.0372 Z" /></clipPath><clipPath
       id="clipPath564"
       clipPathUnits="userSpaceOnUse"><path
         id="path562"
         d="m 54.0372,622.9836 v 96.9961 H 321.378 v -96.9961 z" /></clipPath><clipPath
       id="clipPath570"
       clipPathUnits="userSpaceOnUse"><path
         id="path568"
         d="M 54.0372,622.9836 H 321.378 v 96.99597 H 54.0372 Z" /></clipPath><clipPath
       id="clipPath584"
       clipPathUnits="userSpaceOnUse"><path
         id="path582"
         d="m 54.0372,622.9836 v 96.9961 H 321.378 v -96.9961 z" /></clipPath><clipPath
       id="clipPath590"
       clipPathUnits="userSpaceOnUse"><path
         id="path588"
         d="M 54.0372,622.9836 H 321.378 v 96.99597 H 54.0372 Z" /></clipPath><clipPath
       id="clipPath604"
       clipPathUnits="userSpaceOnUse"><path
         id="path602"
         d="m 54.3204,709.7137 h 266.7744 v 9.98279 H 54.3204 Z" /></clipPath><clipPath
       id="clipPath618"
       clipPathUnits="userSpaceOnUse"><path
         id="path616"
         d="m 53.4708,621.7801 h 269.1108 v 98.76599 H 53.4708 Z" /></clipPath></defs><g
     clip-path="url(#clipPath14)"
     transform="matrix(1.3333333,0,0,-1.3333333,-71.577347,960.98667)"
     id="g10"><g
       id="g16" /><g
       id="g18"><g
         clip-path="url(#clipPath24)"
         id="g20"><g
           clip-path="url(#clipPath30)"
           id="g26"><path
             id="path32"
             style="fill:#90a1ae;fill-opacity:1;fill-rule:nonzero;stroke:none"
             d="m 54.3204,709.6429 h 266.8452 v 10.0536 H 54.3204 Z" /><path
             id="path34"
             style="fill:#b8c1c9;fill-opacity:1;fill-rule:nonzero;stroke:none"
             d="m 54.3204,683.0928 h 266.8452 v 26.6208 H 54.3204 Z" /><path
             id="path36"
             style="fill:#b8c1c9;fill-opacity:1;fill-rule:nonzero;stroke:none"
             d="m 54.3204,643.1617 h 266.8452 v 10.0536 H 54.3204 Z" /></g></g></g><g
       id="g38"><g
         clip-path="url(#clipPath44)"
         id="g40"><g
           clip-path="url(#clipPath50)"
           id="g46"><g
             transform="matrix(0.1416,0,0,0.1416,18,40.01647)"
             id="g52"><text
               id="text56"
               style="font-variant:normal;font-weight:normal;font-size:58px;font-family:Lintel;-inkscape-font-specification:Lintel-Regular;writing-mode:lr-tb;fill:#000000;fill-opacity:1;fill-rule:nonzero;stroke:none"
               transform="matrix(1,0,0,-1,424,4617.25)"><tspan
                 id="tspan54"
                 y="0"
                 x="0 33.582001 53.417999 73.834 86.246002 113.39">Strike</tspan></text>
</g></g></g></g><g
       id="g58"><g
         clip-path="url(#clipPath64)"
         id="g60"><g
           clip-path="url(#clipPath70)"
           id="g66"><g
             transform="matrix(0.1416,0,0,0.1416,18,40.01647)"
             id="g72"><text
               id="text76"
               style="font-variant:normal;font-weight:normal;font-size:58px;font-family:Lintel;-inkscape-font-specification:Lintel-Regular;writing-mode:lr-tb;fill:#000000;fill-opacity:1;fill-rule:nonzero;stroke:none"
               transform="matrix(1,0,0,-1,839,4617.25)"><tspan
                 id="tspan74"
                 y="0"
                 x="0 32.596001 61.886002 73.543999 85.202003 102.602 131.312 161.12399 180.96001 193.37199 222.082">Call option</tspan></text>
</g></g></g></g><g
       id="g78"><g
         clip-path="url(#clipPath84)"
         id="g80"><g
           clip-path="url(#clipPath90)"
           id="g86"><g
             transform="matrix(0.1416,0,0,0.1416,18,40.01647)"
             id="g92"><text
               id="text96"
               style="font-variant:normal;font-weight:normal;font-size:58px;font-family:Lintel;-inkscape-font-specification:Lintel-Regular;writing-mode:lr-tb;fill:#000000;fill-opacity:1;fill-rule:nonzero;stroke:none"
               transform="matrix(1,0,0,-1,1310,4617.25)"><tspan
                 id="tspan94"
                 y="0"
                 x="0 35.147999 65.075996 84.912003 102.312 131.022 160.834 180.67 193.082 221.79201">Put option</tspan></text>
</g></g></g></g><g
       id="g98"><g
         clip-path="url(#clipPath104)"
         id="g100"><g
           clip-path="url(#clipPath110)"
           id="g106"><g
             transform="matrix(0.1416,0,0,0.1416,18,40.01647)"
             id="g112"><text
               id="text116"
               style="font-variant:normal;font-weight:normal;font-size:58px;font-family:Lintel;-inkscape-font-specification:Lintel-Regular;writing-mode:lr-tb;fill:#000000;fill-opacity:1;fill-rule:nonzero;stroke:none"
               transform="matrix(1,0,0,-1,1777,4617.25)"><tspan
                 id="tspan114"
                 y="0"
                 x="0 36.945999 49.358002 66.699997 83.636002 111.302 131.718 159.384 189.60201 215.47 243.136">Difference </tspan></text>
</g></g></g></g><g
       id="g118"><g
         clip-path="url(#clipPath124)"
         id="g120"><g
           clip-path="url(#clipPath130)"
           id="g126"><g
             transform="matrix(0.1416,0,0,0.1416,18,40.01647)"
             id="g132"><text
               id="text136"
               style="font-variant:normal;font-weight:normal;font-size:50px;font-family:Lintel;-inkscape-font-specification:Lintel-Regular;writing-mode:lr-tb;fill:#000000;fill-opacity:1;fill-rule:nonzero;stroke:none"
               transform="matrix(1,0,0,-1,446,4490.25)"><tspan
                 id="tspan134"
                 y="0"
                 x="0 16.5 40.200001 63.900002 71.050003">122.5</tspan></text>
</g></g></g></g><g
       id="g138"><g
         clip-path="url(#clipPath144)"
         id="g140"><g
           clip-path="url(#clipPath150)"
           id="g146"><g
             transform="matrix(0.1416,0,0,0.1416,18,40.01647)"
             id="g152"><text
               id="text156"
               style="font-variant:normal;font-weight:normal;font-size:50px;font-family:Lintel;-inkscape-font-specification:Lintel-Regular;writing-mode:lr-tb;fill:#000000;fill-opacity:1;fill-rule:nonzero;stroke:none"
               transform="matrix(1,0,0,-1,901,4490.25)"><tspan
                 id="tspan154"
                 y="0"
                 x="0 16.5 23.65 49.099998 77.449997 102.9">1.4844</tspan></text>
</g></g></g></g><g
       id="g158"><g
         clip-path="url(#clipPath164)"
         id="g160"><g
           clip-path="url(#clipPath170)"
           id="g166"><g
             transform="matrix(0.1416,0,0,0.1416,18,40.01647)"
             id="g172"><text
               id="text176"
               style="font-variant:normal;font-weight:normal;font-size:50px;font-family:Lintel;-inkscape-font-specification:Lintel-Regular;writing-mode:lr-tb;fill:#000000;fill-opacity:1;fill-rule:nonzero;stroke:none"
               transform="matrix(1,0,0,-1,1366.5,4490.25)"><tspan
                 id="tspan174"
                 y="0"
                 x="0 28.75 35.900002 64.650002 88.349998 114.1">0.0234</tspan></text>
</g></g></g></g><g
       id="g178"><g
         clip-path="url(#clipPath184)"
         id="g180"><g
           clip-path="url(#clipPath190)"
           id="g186"><g
             transform="matrix(0.1416,0,0,0.1416,18,40.01647)"
             id="g192"><text
               id="text196"
               style="font-variant:normal;font-weight:normal;font-size:50px;font-family:Lintel;-inkscape-font-specification:Lintel-Regular;writing-mode:lr-tb;fill:#000000;fill-opacity:1;fill-rule:nonzero;stroke:none"
               transform="matrix(1,0,0,-1,1839.5,4490.25)"><tspan
                 id="tspan194"
                 y="0"
                 x="0 16.5 23.65 49.099998 77.849998 106.6">1.4609</tspan></text>
</g></g></g></g><g
       id="g198"><g
         clip-path="url(#clipPath204)"
         id="g200"><g
           clip-path="url(#clipPath210)"
           id="g206"><g
             transform="matrix(0.1416,0,0,0.1416,18,40.01647)"
             id="g212"><text
               id="text216"
               style="font-variant:normal;font-weight:normal;font-size:50px;font-family:Lintel;-inkscape-font-specification:Lintel-Regular;writing-mode:lr-tb;fill:#000000;fill-opacity:1;fill-rule:nonzero;stroke:none"
               transform="matrix(1,0,0,-1,461.5,4419.75)"><tspan
                 id="tspan214"
                 y="0"
                 x="0 16.5 40.200001">123</tspan></text>
</g></g></g></g><g
       id="g218"><g
         clip-path="url(#clipPath224)"
         id="g220"><g
           clip-path="url(#clipPath230)"
           id="g226"><g
             transform="matrix(0.1416,0,0,0.1416,18,40.01647)"
             id="g232"><text
               id="text236"
               style="font-variant:normal;font-weight:normal;font-size:50px;font-family:Lintel;-inkscape-font-specification:Lintel-Regular;writing-mode:lr-tb;fill:#000000;fill-opacity:1;fill-rule:nonzero;stroke:none"
               transform="matrix(1,0,0,-1,903.5,4419.75)"><tspan
                 id="tspan234"
                 y="0"
                 x="0 16.5 23.65 52.400002 68.75 94.699997">1.0156</tspan></text>
</g></g></g></g><g
       id="g238"><g
         clip-path="url(#clipPath244)"
         id="g240"><g
           clip-path="url(#clipPath250)"
           id="g246"><g
             transform="matrix(0.1416,0,0,0.1416,18,40.01647)"
             id="g252"><text
               id="text256"
               style="font-variant:normal;font-weight:normal;font-size:50px;font-family:Lintel;-inkscape-font-specification:Lintel-Regular;writing-mode:lr-tb;fill:#000000;fill-opacity:1;fill-rule:nonzero;stroke:none"
               transform="matrix(1,0,0,-1,1366,4419.75)"><tspan
                 id="tspan254"
                 y="0"
                 x="0 28.75 35.900002 64.5 90.449997 115.9">0.0547</tspan></text>
</g></g></g></g><g
       id="g258"><g
         clip-path="url(#clipPath264)"
         id="g260"><g
           clip-path="url(#clipPath270)"
           id="g266"><g
             transform="matrix(0.1416,0,0,0.1416,18,40.01647)"
             id="g272"><text
               id="text276"
               style="font-variant:normal;font-weight:normal;font-size:50px;font-family:Lintel;-inkscape-font-specification:Lintel-Regular;writing-mode:lr-tb;fill:#000000;fill-opacity:1;fill-rule:nonzero;stroke:none"
               transform="matrix(1,0,0,-1,1832,4419.75)"><tspan
                 id="tspan274"
                 y="0"
                 x="0 28.75 35.900002 64.650002 93.400002 122.15">0.9609</tspan></text>
</g></g></g></g><g
       id="g278"><g
         clip-path="url(#clipPath284)"
         id="g280"><g
           clip-path="url(#clipPath290)"
           id="g286"><g
             transform="matrix(0.1416,0,0,0.1416,18,40.01647)"
             id="g292"><text
               id="text296"
               style="font-variant:normal;font-weight:normal;font-size:50px;font-family:Lintel;-inkscape-font-specification:Lintel-Regular;writing-mode:lr-tb;fill:#000000;fill-opacity:1;fill-rule:nonzero;stroke:none"
               transform="matrix(1,0,0,-1,445,4349.25)"><tspan
                 id="tspan294"
                 y="0"
                 x="0 16.5 40.200001 65.949997 73.099998">123.5</tspan></text>
</g></g></g></g><g
       id="g298"><g
         clip-path="url(#clipPath304)"
         id="g300"><g
           clip-path="url(#clipPath310)"
           id="g306"><g
             transform="matrix(0.1416,0,0,0.1416,18,40.01647)"
             id="g312"><text
               id="text316"
               style="font-variant:normal;font-weight:normal;font-size:50px;font-family:Lintel;-inkscape-font-specification:Lintel-Regular;writing-mode:lr-tb;fill:#000000;fill-opacity:1;fill-rule:nonzero;stroke:none"
               transform="matrix(1,0,0,-1,891.5,4349.25)"><tspan
                 id="tspan314"
                 y="0"
                 x="0 28.75 35.900002 64.650002 93.400002 122.15">0.6094</tspan></text>
</g></g></g></g><g
       id="g318"><g
         clip-path="url(#clipPath324)"
         id="g320"><g
           clip-path="url(#clipPath330)"
           id="g326"><g
             transform="matrix(0.1416,0,0,0.1416,18,40.01647)"
             id="g332"><text
               id="text336"
               style="font-variant:normal;font-weight:normal;font-size:50px;font-family:Lintel;-inkscape-font-specification:Lintel-Regular;writing-mode:lr-tb;fill:#000000;fill-opacity:1;fill-rule:nonzero;stroke:none"
               transform="matrix(1,0,0,-1,1370.5,4349.25)"><tspan
                 id="tspan334"
                 y="0"
                 x="0 28.75 35.900002 52.400002 77.849998 106.2">0.1484</tspan></text>
</g></g></g></g><g
       id="g338"><g
         clip-path="url(#clipPath344)"
         id="g340"><g
           clip-path="url(#clipPath350)"
           id="g346"><g
             transform="matrix(0.1416,0,0,0.1416,18,40.01647)"
             id="g352"><text
               id="text356"
               style="font-variant:normal;font-weight:normal;font-size:50px;font-family:Lintel;-inkscape-font-specification:Lintel-Regular;writing-mode:lr-tb;fill:#000000;fill-opacity:1;fill-rule:nonzero;stroke:none"
               transform="matrix(1,0,0,-1,1833.5,4349.25)"><tspan
                 id="tspan354"
                 y="0"
                 x="0 28.75 35.900002 61.349998 90.099998 118.85">0.4609</tspan></text>
</g></g></g></g><g
       id="g358"><g
         clip-path="url(#clipPath364)"
         id="g360"><g
           clip-path="url(#clipPath370)"
           id="g366"><g
             transform="matrix(0.1416,0,0,0.1416,18,40.01647)"
             id="g372"><text
               id="text376"
               style="font-variant:normal;font-weight:normal;font-size:50px;font-family:Lintel;-inkscape-font-specification:Lintel-Regular;writing-mode:lr-tb;fill:#000000;fill-opacity:1;fill-rule:nonzero;stroke:none"
               transform="matrix(1,0,0,-1,461.5,4278.75)"><tspan
                 id="tspan374"
                 y="0"
                 x="0 16.5 40.200001">124</tspan></text>
</g></g></g></g><g
       id="g378"><g
         clip-path="url(#clipPath384)"
         id="g380"><g
           clip-path="url(#clipPath390)"
           id="g386"><g
             transform="matrix(0.1416,0,0,0.1416,18,40.01647)"
             id="g392"><text
               id="text396"
               style="font-variant:normal;font-weight:normal;font-size:50px;font-family:Lintel;-inkscape-font-specification:Lintel-Regular;writing-mode:lr-tb;fill:#000000;fill-opacity:1;fill-rule:nonzero;stroke:none"
               transform="matrix(1,0,0,-1,892.5,4278.75)"><tspan
                 id="tspan394"
                 y="0"
                 x="0 28.75 35.900002 59.599998 88.349998 116.55">0.2969</tspan></text>
</g></g></g></g><g
       id="g398"><g
         clip-path="url(#clipPath404)"
         id="g400"><g
           clip-path="url(#clipPath410)"
           id="g406"><g
             transform="matrix(0.1416,0,0,0.1416,18,40.01647)"
             id="g412"><text
               id="text416"
               style="font-variant:normal;font-weight:normal;font-size:50px;font-family:Lintel;-inkscape-font-specification:Lintel-Regular;writing-mode:lr-tb;fill:#000000;fill-opacity:1;fill-rule:nonzero;stroke:none"
               transform="matrix(1,0,0,-1,1365.5,4278.75)"><tspan
                 id="tspan414"
                 y="0"
                 x="0 28.75 35.900002 61.650002 87.099998 113.05">0.3359</tspan></text>
</g></g></g></g><g
       id="g418"><g
         clip-path="url(#clipPath424)"
         id="g420"><g
           clip-path="url(#clipPath430)"
           id="g426"><g
             transform="matrix(0.1416,0,0,0.1416,18,40.01647)"
             id="g432"><text
               id="text436"
               style="font-variant:normal;font-weight:normal;font-size:50px;font-family:Lintel;-inkscape-font-specification:Lintel-Regular;writing-mode:lr-tb;fill:#000000;fill-opacity:1;fill-rule:nonzero;stroke:none"
               transform="matrix(1,0,0,-1,1839.5,4278.75)"><tspan
                 id="tspan434"
                 y="0"
                 x="0 28.75 35.900002 64.5 90.25 119">0.0391</tspan></text>
</g></g></g></g><g
       id="g438"><g
         clip-path="url(#clipPath444)"
         id="g440"><g
           clip-path="url(#clipPath450)"
           id="g446"><g
             transform="matrix(0.1416,0,0,0.1416,18,40.01647)"
             id="g452"><text
               id="text456"
               style="font-variant:normal;font-weight:normal;font-size:50px;font-family:Lintel;-inkscape-font-specification:Lintel-Regular;writing-mode:lr-tb;fill:#000000;fill-opacity:1;fill-rule:nonzero;stroke:none"
               transform="matrix(1,0,0,-1,445,4208.25)"><tspan
                 id="tspan454"
                 y="0"
                 x="0 16.5 40.200001 65.650002 72.800003">124.5</tspan></text>
</g></g></g></g><g
       id="g458"><g
         clip-path="url(#clipPath464)"
         id="g460"><g
           clip-path="url(#clipPath470)"
           id="g466"><g
             transform="matrix(0.1416,0,0,0.1416,18,40.01647)"
             id="g472"><text
               id="text476"
               style="font-variant:normal;font-weight:normal;font-size:50px;font-family:Lintel;-inkscape-font-specification:Lintel-Regular;writing-mode:lr-tb;fill:#000000;fill-opacity:1;fill-rule:nonzero;stroke:none"
               transform="matrix(1,0,0,-1,897.5,4208.25)"><tspan
                 id="tspan474"
                 y="0"
                 x="0 28.75 35.900002 52.400002 81.150002 109.9">0.1094</tspan></text>
</g></g></g></g><g
       id="g478"><g
         clip-path="url(#clipPath484)"
         id="g480"><g
           clip-path="url(#clipPath490)"
           id="g486"><g
             transform="matrix(0.1416,0,0,0.1416,18,40.01647)"
             id="g492"><text
               id="text496"
               style="font-variant:normal;font-weight:normal;font-size:50px;font-family:Lintel;-inkscape-font-specification:Lintel-Regular;writing-mode:lr-tb;fill:#000000;fill-opacity:1;fill-rule:nonzero;stroke:none"
               transform="matrix(1,0,0,-1,1364,4208.25)"><tspan
                 id="tspan494"
                 y="0"
                 x="0 28.75 35.900002 64.099998 90.050003 118.8">0.6563</tspan></text>
</g></g></g></g><g
       id="g498"><g
         clip-path="url(#clipPath504)"
         id="g500"><g
           clip-path="url(#clipPath510)"
           id="g506"><g
             transform="matrix(0.1416,0,0,0.1416,18,40.01647)"
             id="g512"><text
               id="text516"
               style="font-variant:normal;font-weight:normal;font-size:50px;font-family:Lintel;-inkscape-font-specification:Lintel-Regular;writing-mode:lr-tb;fill:#000000;fill-opacity:1;fill-rule:nonzero;stroke:none"
               transform="matrix(1,0,0,-1,1835,4208.25)"><tspan
                 id="tspan514"
                 y="0"
                 x="0 28.75 35.900002 61.849998 87.300003 115.5">0.5469</tspan></text>
</g></g></g></g><g
       id="g518"><g
         clip-path="url(#clipPath524)"
         id="g520"><g
           clip-path="url(#clipPath530)"
           id="g526"><g
             transform="matrix(0.1416,0,0,0.1416,18,40.01647)"
             id="g532"><text
               id="text536"
               style="font-variant:normal;font-weight:normal;font-size:50px;font-family:Lintel;-inkscape-font-specification:Lintel-Regular;writing-mode:lr-tb;fill:#000000;fill-opacity:1;fill-rule:nonzero;stroke:none"
               transform="matrix(1,0,0,-1,461.5,4137.75)"><tspan
                 id="tspan534"
                 y="0"
                 x="0 16.5 40.200001">125</tspan></text>
</g></g></g></g><g
       id="g538"><g
         clip-path="url(#clipPath544)"
         id="g540"><g
           clip-path="url(#clipPath550)"
           id="g546"><g
             transform="matrix(0.1416,0,0,0.1416,18,40.01647)"
             id="g552"><text
               id="text556"
               style="font-variant:normal;font-weight:normal;font-size:50px;font-family:Lintel;-inkscape-font-specification:Lintel-Regular;writing-mode:lr-tb;fill:#000000;fill-opacity:1;fill-rule:nonzero;stroke:none"
               transform="matrix(1,0,0,-1,897.5,4137.75)"><tspan
                 id="tspan554"
                 y="0"
                 x="0 28.75 35.900002 64.5 90.25 119">0.0391</tspan></text>
</g></g></g></g><g
       id="g558"><g
         clip-path="url(#clipPath564)"
         id="g560"><g
           clip-path="url(#clipPath570)"
           id="g566"><g
             transform="matrix(0.1416,0,0,0.1416,18,40.01647)"
             id="g572"><text
               id="text576"
               style="font-variant:normal;font-weight:normal;font-size:50px;font-family:Lintel;-inkscape-font-specification:Lintel-Regular;writing-mode:lr-tb;fill:#000000;fill-opacity:1;fill-rule:nonzero;stroke:none"
               transform="matrix(1,0,0,-1,1375.5,4137.75)"><tspan
                 id="tspan574"
                 y="0"
                 x="0 16.5 23.65 52.400002 76.349998 104.7">1.0781</tspan></text>
</g></g></g></g><g
       id="g578"><g
         clip-path="url(#clipPath584)"
         id="g580"><g
           clip-path="url(#clipPath590)"
           id="g586"><g
             transform="matrix(0.1416,0,0,0.1416,18,40.01647)"
             id="g592"><text
               id="text596"
               style="font-variant:normal;font-weight:normal;font-size:50px;font-family:Lintel;-inkscape-font-specification:Lintel-Regular;writing-mode:lr-tb;fill:#000000;fill-opacity:1;fill-rule:nonzero;stroke:none"
               transform="matrix(1,0,0,-1,1845.5,4137.75)"><tspan
                 id="tspan594"
                 y="0"
                 x="0 16.5 23.65 52.25 78 106.75">1.0391</tspan></text>
</g></g></g></g><g
       id="g598"><g
         clip-path="url(#clipPath604)"
         id="g600"><g
           transform="matrix(0.1416,0,0,0.1416,18,40.01647)"
           id="g606"><text
             id="text610"
             style="font-variant:normal;font-weight:normal;font-size:58px;font-family:Lintel;-inkscape-font-specification:Lintel-Regular;writing-mode:lr-tb;fill:#000000;fill-opacity:1;fill-rule:nonzero;stroke:none"
             transform="matrix(1,0,0,-1,867.5,4746.25)"><tspan
               id="tspan608"
               y="0"
               x="0 36.481998 64.148003 93.438004 113.854 131.254 150.278 177.944 198.36 243.368 260.76801 289.478 319.29001 339.12601 351.53799 380.24799 410.466 427.866 440.22 459.64999 488.94 519.15802 527.56799 544.96802 572.46002 605.81 624.95001 654.47198">Near term option (Jan, 2014)</tspan></text>
</g></g></g><g
       id="g612"><g
         clip-path="url(#clipPath618)"
         id="g614"><g
           transform="matrix(0.0708,0,0,0.0708,18,40.01647)"
           id="g620"><path
             id="path622"
             style="fill:none;stroke:#000000;stroke-width:8;stroke-linecap:butt;stroke-linejoin:miter;stroke-miterlimit:10;stroke-dasharray:none;stroke-opacity:1"
             d="M 513,9604 V 8234" /></g><g
           transform="matrix(0.0708,0,0,0.0708,18,40.01647)"
           id="g624"><path
             id="path626"
             style="fill:none;stroke:#000000;stroke-width:8;stroke-linecap:butt;stroke-linejoin:miter;stroke-miterlimit:10;stroke-dasharray:none;stroke-opacity:1"
             d="M 4281,9596 V 8234" /></g><g
           transform="matrix(0.0708,0,0,0.0708,18,40.01647)"
           id="g628"><path
             id="path630"
             style="fill:none;stroke:#000000;stroke-width:8;stroke-linecap:butt;stroke-linejoin:miter;stroke-miterlimit:10;stroke-dasharray:none;stroke-opacity:1"
             d="M 1455,9455 V 8234" /></g><g
           transform="matrix(0.0708,0,0,0.0708,18,40.01647)"
           id="g632"><path
             id="path634"
             style="fill:none;stroke:#000000;stroke-width:8;stroke-linecap:butt;stroke-linejoin:miter;stroke-miterlimit:10;stroke-dasharray:none;stroke-opacity:1"
             d="M 2397,9455 V 8234" /></g><g
           transform="matrix(0.0708,0,0,0.0708,18,40.01647)"
           id="g636"><path
             id="path638"
             style="fill:none;stroke:#000000;stroke-width:8;stroke-linecap:butt;stroke-linejoin:miter;stroke-miterlimit:10;stroke-dasharray:none;stroke-opacity:1"
             d="M 3339,9455 V 8234" /></g><g
           transform="matrix(0.0708,0,0,0.0708,18,40.01647)"
           id="g640"><path
             id="path642"
             style="fill:none;stroke:#000000;stroke-width:8;stroke-linecap:butt;stroke-linejoin:miter;stroke-miterlimit:10;stroke-dasharray:none;stroke-opacity:1"
             d="M 517,9600 H 4285" /></g><g
           transform="matrix(0.0708,0,0,0.0708,18,40.01647)"
           id="g644"><path
             id="path646"
             style="fill:none;stroke:#000000;stroke-width:8;stroke-linecap:butt;stroke-linejoin:miter;stroke-miterlimit:10;stroke-dasharray:none;stroke-opacity:1"
             d="M 517,9459.001 H 4285" /></g><g
           transform="matrix(0.0708,0,0,0.0708,18,40.01647)"
           id="g648"><path
             id="path650"
             style="fill:none;stroke:#000000;stroke-width:8;stroke-linecap:butt;stroke-linejoin:miter;stroke-miterlimit:10;stroke-dasharray:none;stroke-opacity:1"
             d="M 517,9084 H 4285" /></g><g
           transform="matrix(0.0708,0,0,0.0708,18,40.01647)"
           id="g652"><path
             id="path654"
             style="fill:none;stroke:#000000;stroke-width:8;stroke-linecap:butt;stroke-linejoin:miter;stroke-miterlimit:10;stroke-dasharray:none;stroke-opacity:1"
             d="M 517,8943 H 4285" /></g><g
           transform="matrix(0.0708,0,0,0.0708,18,40.01647)"
           id="g656"><path
             id="path658"
             style="fill:none;stroke:#000000;stroke-width:8;stroke-linecap:butt;stroke-linejoin:miter;stroke-miterlimit:10;stroke-dasharray:none;stroke-opacity:1"
             d="M 517,8802 H 4285" /></g><g
           transform="matrix(0.0708,0,0,0.0708,18,40.01647)"
           id="g660"><path
             id="path662"
             style="fill:none;stroke:#000000;stroke-width:8;stroke-linecap:butt;stroke-linejoin:miter;stroke-miterlimit:10;stroke-dasharray:none;stroke-opacity:1"
             d="M 517,8661 H 4285" /></g><g
           transform="matrix(0.0708,0,0,0.0708,18,40.01647)"
           id="g664"><path
             id="path666"
             style="fill:none;stroke:#000000;stroke-width:8;stroke-linecap:butt;stroke-linejoin:miter;stroke-miterlimit:10;stroke-dasharray:none;stroke-opacity:1"
             d="M 517,8520 H 4285" /></g><g
           transform="matrix(0.0708,0,0,0.0708,18,40.01647)"
           id="g668"><path
             id="path670"
             style="fill:none;stroke:#000000;stroke-width:8;stroke-linecap:butt;stroke-linejoin:miter;stroke-miterlimit:10;stroke-dasharray:none;stroke-opacity:1"
             d="M 517,8379 H 4285" /></g><g
           transform="matrix(0.0708,0,0,0.0708,18,40.01647)"
           id="g672"><path
             id="path674"
             style="fill:none;stroke:#000000;stroke-width:8;stroke-linecap:butt;stroke-linejoin:miter;stroke-miterlimit:10;stroke-dasharray:none;stroke-opacity:1"
             d="M 517,8238 H 4285" /></g></g></g></g></svg>