<?xml version="1.0" encoding="UTF-8" standalone="no"?>
<!-- Created with Inkscape (http://www.inkscape.org/) -->

<svg
   xmlns:dc="http://purl.org/dc/elements/1.1/"
   xmlns:cc="http://creativecommons.org/ns#"
   xmlns:rdf="http://www.w3.org/1999/02/22-rdf-syntax-ns#"
   xmlns:svg="http://www.w3.org/2000/svg"
   xmlns="http://www.w3.org/2000/svg"
   xmlns:sodipodi="http://sodipodi.sourceforge.net/DTD/sodipodi-0.dtd"
   xmlns:inkscape="http://www.inkscape.org/namespaces/inkscape"
   id="svg3355"
   version="1.1"
   inkscape:version="0.91 r13725"
   xml:space="preserve"
   width="626.35553"
   height="72.681625"
   viewBox="0 0 626.35553 72.681625"
   sodipodi:docname="rateData.svg"><metadata
     id="metadata3361"><rdf:RDF><cc:Work
         rdf:about=""><dc:format>image/svg+xml</dc:format><dc:type
           rdf:resource="http://purl.org/dc/dcmitype/StillImage" /><dc:title></dc:title></cc:Work></rdf:RDF></metadata><defs
     id="defs3359"><clipPath
       clipPathUnits="userSpaceOnUse"
       id="clipPath3371"><path
         d="m 54.1152,666.4992 0,53.4336 498.2208,0 0,-53.4336 -498.2208,0 z"
         id="path3373"
         inkscape:connector-curvature="0" /></clipPath><clipPath
       clipPathUnits="userSpaceOnUse"
       id="clipPath3377"><path
         d="M 0,0 612,0 612,792 0,792 0,0 Z"
         id="path3379"
         inkscape:connector-curvature="0" /></clipPath><clipPath
       clipPathUnits="userSpaceOnUse"
       id="clipPath3389"><path
         d="m 54.1152,666.4992 0,53.4336 498.2208,0 0,-53.4336 -498.2208,0 z"
         id="path3391"
         inkscape:connector-curvature="0" /></clipPath><clipPath
       clipPathUnits="userSpaceOnUse"
       id="clipPath3395"><path
         d="m 54.1152,666.4992 498.2208,0 0,53.43359 -498.2208,0 0,-53.43359 z"
         id="path3397"
         inkscape:connector-curvature="0" /></clipPath><clipPath
       clipPathUnits="userSpaceOnUse"
       id="clipPath3409"><path
         d="m 54.1152,666.4992 0,53.4336 498.2208,0 0,-53.4336 -498.2208,0 z"
         id="path3411"
         inkscape:connector-curvature="0" /></clipPath><clipPath
       clipPathUnits="userSpaceOnUse"
       id="clipPath3415"><path
         d="m 54.1152,666.4992 498.2208,0 0,53.43359 -498.2208,0 0,-53.43359 z"
         id="path3417"
         inkscape:connector-curvature="0" /></clipPath><clipPath
       clipPathUnits="userSpaceOnUse"
       id="clipPath3429"><path
         d="m 54.1152,666.4992 0,53.4336 498.2208,0 0,-53.4336 -498.2208,0 z"
         id="path3431"
         inkscape:connector-curvature="0" /></clipPath><clipPath
       clipPathUnits="userSpaceOnUse"
       id="clipPath3435"><path
         d="m 54.1152,666.4992 498.2208,0 0,53.43359 -498.2208,0 0,-53.43359 z"
         id="path3437"
         inkscape:connector-curvature="0" /></clipPath><clipPath
       clipPathUnits="userSpaceOnUse"
       id="clipPath3449"><path
         d="m 54.1152,666.4992 0,53.4336 498.2208,0 0,-53.4336 -498.2208,0 z"
         id="path3451"
         inkscape:connector-curvature="0" /></clipPath><clipPath
       clipPathUnits="userSpaceOnUse"
       id="clipPath3455"><path
         d="m 54.1152,666.4992 498.2208,0 0,53.43359 -498.2208,0 0,-53.43359 z"
         id="path3457"
         inkscape:connector-curvature="0" /></clipPath><clipPath
       clipPathUnits="userSpaceOnUse"
       id="clipPath3469"><path
         d="m 54.1152,666.4992 0,53.4336 498.2208,0 0,-53.4336 -498.2208,0 z"
         id="path3471"
         inkscape:connector-curvature="0" /></clipPath><clipPath
       clipPathUnits="userSpaceOnUse"
       id="clipPath3475"><path
         d="m 54.1152,666.4992 498.2208,0 0,53.43359 -498.2208,0 0,-53.43359 z"
         id="path3477"
         inkscape:connector-curvature="0" /></clipPath><clipPath
       clipPathUnits="userSpaceOnUse"
       id="clipPath3489"><path
         d="m 54.1152,666.4992 0,53.4336 498.2208,0 0,-53.4336 -498.2208,0 z"
         id="path3491"
         inkscape:connector-curvature="0" /></clipPath><clipPath
       clipPathUnits="userSpaceOnUse"
       id="clipPath3495"><path
         d="m 54.1152,666.4992 498.2208,0 0,53.43359 -498.2208,0 0,-53.43359 z"
         id="path3497"
         inkscape:connector-curvature="0" /></clipPath><clipPath
       clipPathUnits="userSpaceOnUse"
       id="clipPath3509"><path
         d="m 54.1152,666.4992 0,53.4336 498.2208,0 0,-53.4336 -498.2208,0 z"
         id="path3511"
         inkscape:connector-curvature="0" /></clipPath><clipPath
       clipPathUnits="userSpaceOnUse"
       id="clipPath3515"><path
         d="m 54.1152,666.4992 498.2208,0 0,53.43359 -498.2208,0 0,-53.43359 z"
         id="path3517"
         inkscape:connector-curvature="0" /></clipPath><clipPath
       clipPathUnits="userSpaceOnUse"
       id="clipPath3529"><path
         d="m 54.1152,666.4992 0,53.4336 498.2208,0 0,-53.4336 -498.2208,0 z"
         id="path3531"
         inkscape:connector-curvature="0" /></clipPath><clipPath
       clipPathUnits="userSpaceOnUse"
       id="clipPath3535"><path
         d="m 54.1152,666.4992 498.2208,0 0,53.43359 -498.2208,0 0,-53.43359 z"
         id="path3537"
         inkscape:connector-curvature="0" /></clipPath><clipPath
       clipPathUnits="userSpaceOnUse"
       id="clipPath3549"><path
         d="m 54.1152,666.4992 0,53.4336 498.2208,0 0,-53.4336 -498.2208,0 z"
         id="path3551"
         inkscape:connector-curvature="0" /></clipPath><clipPath
       clipPathUnits="userSpaceOnUse"
       id="clipPath3555"><path
         d="m 54.1152,666.4992 498.2208,0 0,53.43359 -498.2208,0 0,-53.43359 z"
         id="path3557"
         inkscape:connector-curvature="0" /></clipPath><clipPath
       clipPathUnits="userSpaceOnUse"
       id="clipPath3569"><path
         d="m 54.1152,666.4992 0,53.4336 498.2208,0 0,-53.4336 -498.2208,0 z"
         id="path3571"
         inkscape:connector-curvature="0" /></clipPath><clipPath
       clipPathUnits="userSpaceOnUse"
       id="clipPath3575"><path
         d="m 54.1152,666.4992 498.2208,0 0,53.43359 -498.2208,0 0,-53.43359 z"
         id="path3577"
         inkscape:connector-curvature="0" /></clipPath><clipPath
       clipPathUnits="userSpaceOnUse"
       id="clipPath3589"><path
         d="m 54.5376,701.9808 497.376,0 0,17.5296 -497.376,0 0,-17.5296 z"
         id="path3591"
         inkscape:connector-curvature="0" /></clipPath><clipPath
       clipPathUnits="userSpaceOnUse"
       id="clipPath3603"><path
         d="m 53.2704,664.704 500.8608,0 0,56.07361 -500.8608,0 0,-56.07361 z"
         id="path3605"
         inkscape:connector-curvature="0" /></clipPath></defs><sodipodi:namedview
     pagecolor="#ffffff"
     bordercolor="#666666"
     borderopacity="1"
     objecttolerance="10"
     gridtolerance="10"
     guidetolerance="10"
     inkscape:pageopacity="0"
     inkscape:pageshadow="2"
     inkscape:window-width="1714"
     inkscape:window-height="645"
     id="namedview3357"
     showgrid="false"
     inkscape:zoom="2.0212163"
     inkscape:cx="313.17776"
     inkscape:cy="36.340813"
     inkscape:window-x="0"
     inkscape:window-y="0"
     inkscape:window-maximized="0"
     inkscape:current-layer="g3363" /><g
     id="g3363"
     inkscape:groupmode="layer"
     inkscape:label="rateData"
     transform="matrix(1.25,0,0,-1.25,-65.691963,902.50875)"><g
       id="g3365" /><g
       id="g3367"><g
         id="g3369"
         clip-path="url(#clipPath3371)"><g
           id="g3375"
           clip-path="url(#clipPath3377)"><path
             d="m 54.5376,701.8752 497.4816,0 0,17.6352 -497.4816,0 0,-17.6352 z"
             style="fill:#b8c1c9;fill-opacity:1;fill-rule:nonzero;stroke:none"
             id="path3381"
             inkscape:connector-curvature="0" /><path
             d="m 54.5376,666.816 99.5808,0 0,35.1648 -99.5808,0 0,-35.1648 z"
             style="fill:#b8c1c9;fill-opacity:1;fill-rule:nonzero;stroke:none"
             id="path3383"
             inkscape:connector-curvature="0" /></g></g></g><g
       id="g3385"><g
         id="g3387"
         clip-path="url(#clipPath3389)"><g
           id="g3393"
           clip-path="url(#clipPath3395)"><g
             id="g3399"
             transform="matrix(0.2112,0,0,0.2112,18,40.08001)"><text
               transform="matrix(1,0,0,-1,308,3074.25)"
               style="font-variant:normal;font-weight:normal;font-size:58px;font-family:Lintel-Regular;-inkscape-font-specification:Lintel-Regular;writing-mode:lr-tb;fill:#000000;fill-opacity:1;fill-rule:nonzero;stroke:none"
               id="text3401"><tspan
                 x="0 43.268002 72.557999 92.393997 122.322 142.73801 155.14999 174.98599"
                 y="0"
                 sodipodi:role="line"
                 id="tspan3403">Maturity</tspan></text>
</g></g></g></g><g
       id="g3405"><g
         id="g3407"
         clip-path="url(#clipPath3409)"><g
           id="g3413"
           clip-path="url(#clipPath3415)"><g
             id="g3419"
             transform="matrix(0.2112,0,0,0.2112,18,40.08001)"><text
               transform="matrix(1,0,0,-1,796.5,3076.25)"
               style="font-variant:normal;font-weight:normal;font-size:50px;font-family:Lintel-Regular;-inkscape-font-specification:Lintel-Regular;writing-mode:lr-tb;fill:#000000;fill-opacity:1;fill-rule:nonzero;stroke:none"
               id="text3421"><tspan
                 x="0 25.450001 40.450001 75.25 99.099998 122.95 147.89999"
                 y="0"
                 sodipodi:role="line"
                 id="tspan3423">4 weeks</tspan></text>
</g></g></g></g><g
       id="g3425"><g
         id="g3427"
         clip-path="url(#clipPath3429)"><g
           id="g3433"
           clip-path="url(#clipPath3435)"><g
             id="g3439"
             transform="matrix(0.2112,0,0,0.2112,18,40.08001)"><text
               transform="matrix(1,0,0,-1,1259,3076.25)"
               style="font-variant:normal;font-weight:normal;font-size:50px;font-family:Lintel-Regular;-inkscape-font-specification:Lintel-Regular;writing-mode:lr-tb;fill:#000000;fill-opacity:1;fill-rule:nonzero;stroke:none"
               id="text3441"><tspan
                 x="0 16.5 42.25 57.25 92.050003 115.9 139.75 164.7"
                 y="0"
                 sodipodi:role="line"
                 id="tspan3443">13 weeks</tspan></text>
</g></g></g></g><g
       id="g3445"><g
         id="g3447"
         clip-path="url(#clipPath3449)"><g
           id="g3453"
           clip-path="url(#clipPath3455)"><g
             id="g3459"
             transform="matrix(0.2112,0,0,0.2112,18,40.08001)"><text
               transform="matrix(1,0,0,-1,1725,3076.25)"
               style="font-variant:normal;font-weight:normal;font-size:50px;font-family:Lintel-Regular;-inkscape-font-specification:Lintel-Regular;writing-mode:lr-tb;fill:#000000;fill-opacity:1;fill-rule:nonzero;stroke:none"
               id="text3461"><tspan
                 x="0 23.700001 52.450001 67.449997 102.25 126.1 149.95 174.89999"
                 y="0"
                 sodipodi:role="line"
                 id="tspan3463">26 weeks</tspan></text>
</g></g></g></g><g
       id="g3465"><g
         id="g3467"
         clip-path="url(#clipPath3469)"><g
           id="g3473"
           clip-path="url(#clipPath3475)"><g
             id="g3479"
             transform="matrix(0.2112,0,0,0.2112,18,40.08001)"><text
               transform="matrix(1,0,0,-1,2197.5,3076.25)"
               style="font-variant:normal;font-weight:normal;font-size:50px;font-family:Lintel-Regular;-inkscape-font-specification:Lintel-Regular;writing-mode:lr-tb;fill:#000000;fill-opacity:1;fill-rule:nonzero;stroke:none"
               id="text3481"><tspan
                 x="0 25.799999 49.5 64.5 99.300003 123.15 147 171.95"
                 y="0"
                 sodipodi:role="line"
                 id="tspan3483">52 weeks</tspan></text>
</g></g></g></g><g
       id="g3485"><g
         id="g3487"
         clip-path="url(#clipPath3489)"><g
           id="g3493"
           clip-path="url(#clipPath3495)"><g
             id="g3499"
             transform="matrix(0.2112,0,0,0.2112,18,40.08001)"><text
               transform="matrix(1,0,0,-1,192.5,2991.25)"
               style="font-variant:normal;font-weight:normal;font-size:58px;font-family:Lintel-Regular;-inkscape-font-specification:Lintel-Regular;writing-mode:lr-tb;fill:#000000;fill-opacity:1;fill-rule:nonzero;stroke:none"
               id="text3501"><tspan
                 x="0 30.101999 50.518002 78.183998 107.474 133.922 163.85001 184.26601 214.48399 231.884 261.40601 273.81799 285.47601 297.134 314.534 334.37 363.66 382.68399 410.35001"
                 y="0"
                 sodipodi:role="line"
                 id="tspan3503">Treasury bill rates</tspan></text>
</g></g></g></g><g
       id="g3505"><g
         id="g3507"
         clip-path="url(#clipPath3509)"><g
           id="g3513"
           clip-path="url(#clipPath3515)"><g
             id="g3519"
             transform="matrix(0.2112,0,0,0.2112,18,40.08001)"><text
               transform="matrix(1,0,0,-1,818.5,2993.25)"
               style="font-variant:normal;font-weight:normal;font-size:50px;font-family:Lintel-Regular;-inkscape-font-specification:Lintel-Regular;writing-mode:lr-tb;fill:#000000;fill-opacity:1;fill-rule:nonzero;stroke:none"
               id="text3521"><tspan
                 x="0 28.75 35.900002 64.650002 90.099998"
                 y="0"
                 sodipodi:role="line"
                 id="tspan3523">0.04%</tspan></text>
</g></g></g></g><g
       id="g3525"><g
         id="g3527"
         clip-path="url(#clipPath3529)"><g
           id="g3533"
           clip-path="url(#clipPath3535)"><g
             id="g3539"
             transform="matrix(0.2112,0,0,0.2112,18,40.08001)"><text
               transform="matrix(1,0,0,-1,1290.5,2993.25)"
               style="font-variant:normal;font-weight:normal;font-size:50px;font-family:Lintel-Regular;-inkscape-font-specification:Lintel-Regular;writing-mode:lr-tb;fill:#000000;fill-opacity:1;fill-rule:nonzero;stroke:none"
               id="text3541"><tspan
                 x="0 28.75 35.900002 64.650002 88.349998"
                 y="0"
                 sodipodi:role="line"
                 id="tspan3543">0.02%</tspan></text>
</g></g></g></g><g
       id="g3545"><g
         id="g3547"
         clip-path="url(#clipPath3549)"><g
           id="g3553"
           clip-path="url(#clipPath3555)"><g
             id="g3559"
             transform="matrix(0.2112,0,0,0.2112,18,40.08001)"><text
               transform="matrix(1,0,0,-1,1761,2993.25)"
               style="font-variant:normal;font-weight:normal;font-size:50px;font-family:Lintel-Regular;-inkscape-font-specification:Lintel-Regular;writing-mode:lr-tb;fill:#000000;fill-opacity:1;fill-rule:nonzero;stroke:none"
               id="text3561"><tspan
                 x="0 28.75 35.900002 64.650002 88.75"
                 y="0"
                 sodipodi:role="line"
                 id="tspan3563">0.07%</tspan></text>
</g></g></g></g><g
       id="g3565"><g
         id="g3567"
         clip-path="url(#clipPath3569)"><g
           id="g3573"
           clip-path="url(#clipPath3575)"><g
             id="g3579"
             transform="matrix(0.2112,0,0,0.2112,18,40.08001)"><text
               transform="matrix(1,0,0,-1,2236,2993.25)"
               style="font-variant:normal;font-weight:normal;font-size:50px;font-family:Lintel-Regular;-inkscape-font-specification:Lintel-Regular;writing-mode:lr-tb;fill:#000000;fill-opacity:1;fill-rule:nonzero;stroke:none"
               id="text3581"><tspan
                 x="0 28.75 35.900002 52.400002 81.150002"
                 y="0"
                 sodipodi:role="line"
                 id="tspan3583">0.10%</tspan></text>
</g></g></g></g><g
       id="g3585"><g
         id="g3587"
         clip-path="url(#clipPath3589)"><g
           id="g3593"
           transform="matrix(0.2112,0,0,0.2112,18,40.08001)"><text
             transform="matrix(1,0,0,-1,952.5,3157.25)"
             style="font-variant:normal;font-weight:normal;font-size:58px;font-family:Lintel-Regular;-inkscape-font-specification:Lintel-Regular;writing-mode:lr-tb;fill:#000000;fill-opacity:1;fill-rule:nonzero;stroke:none"
             id="text3595"><tspan
               x="0 14.152 44.369999 63.394001 91.059998 111.476 139.142 165.59 185.42599 202.826 222.662 251.952 270.97601 298.642 316.04199 345.564 374.854 393.47198 422.76199 440.16199 468.87201 486.21399 503.61401 540.09601 568.284 594.90601 612.30603 631.44598 664.79602 673.20599 690.60602 718.09802 751.448 770.58801"
               y="0"
               sodipodi:role="line"
               id="tspan3597">Interest rate data of Nov 10, 2014</tspan></text>
</g></g></g><g
       id="g3599"><g
         id="g3601"
         clip-path="url(#clipPath3603)"><g
           id="g3607"
           transform="matrix(0.1056,0,0,0.1056,18,40.08001)"><path
             d="m 346,6438 0,-506"
             style="fill:none;stroke:#000000;stroke-width:8;stroke-linecap:butt;stroke-linejoin:miter;stroke-miterlimit:10;stroke-dasharray:none;stroke-opacity:1"
             id="path3609"
             inkscape:connector-curvature="0" /></g><g
           id="g3611"
           transform="matrix(0.1056,0,0,0.1056,18,40.08001)"><path
             d="m 5056,6430 0,-498"
             style="fill:none;stroke:#000000;stroke-width:8;stroke-linecap:butt;stroke-linejoin:miter;stroke-miterlimit:10;stroke-dasharray:none;stroke-opacity:1"
             id="path3613"
             inkscape:connector-curvature="0" /></g><g
           id="g3615"
           transform="matrix(0.1056,0,0,0.1056,18,40.08001)"><path
             d="m 1288,6264 0,-332"
             style="fill:none;stroke:#000000;stroke-width:8;stroke-linecap:butt;stroke-linejoin:miter;stroke-miterlimit:10;stroke-dasharray:none;stroke-opacity:1"
             id="path3617"
             inkscape:connector-curvature="0" /></g><g
           id="g3619"
           transform="matrix(0.1056,0,0,0.1056,18,40.08001)"><path
             d="m 2230,6264 0,-332"
             style="fill:none;stroke:#000000;stroke-width:8;stroke-linecap:butt;stroke-linejoin:miter;stroke-miterlimit:10;stroke-dasharray:none;stroke-opacity:1"
             id="path3621"
             inkscape:connector-curvature="0" /></g><g
           id="g3623"
           transform="matrix(0.1056,0,0,0.1056,18,40.08001)"><path
             d="m 3172,6264 0,-332"
             style="fill:none;stroke:#000000;stroke-width:8;stroke-linecap:butt;stroke-linejoin:miter;stroke-miterlimit:10;stroke-dasharray:none;stroke-opacity:1"
             id="path3625"
             inkscape:connector-curvature="0" /></g><g
           id="g3627"
           transform="matrix(0.1056,0,0,0.1056,18,40.08001)"><path
             d="m 4114,6264 0,-332"
             style="fill:none;stroke:#000000;stroke-width:8;stroke-linecap:butt;stroke-linejoin:miter;stroke-miterlimit:10;stroke-dasharray:none;stroke-opacity:1"
             id="path3629"
             inkscape:connector-curvature="0" /></g><g
           id="g3631"
           transform="matrix(0.1056,0,0,0.1056,18,40.08001)"><path
             d="m 350,6434 4710,0"
             style="fill:none;stroke:#000000;stroke-width:8;stroke-linecap:butt;stroke-linejoin:miter;stroke-miterlimit:10;stroke-dasharray:none;stroke-opacity:1"
             id="path3633"
             inkscape:connector-curvature="0" /></g><g
           id="g3635"
           transform="matrix(0.1056,0,0,0.1056,18,40.08001)"><path
             d="m 350,6268 4710,0"
             style="fill:none;stroke:#000000;stroke-width:8;stroke-linecap:butt;stroke-linejoin:miter;stroke-miterlimit:10;stroke-dasharray:none;stroke-opacity:1"
             id="path3637"
             inkscape:connector-curvature="0" /></g><g
           id="g3639"
           transform="matrix(0.1056,0,0,0.1056,18,40.08001)"><path
             d="m 350,6102 4710,0"
             style="fill:none;stroke:#000000;stroke-width:8;stroke-linecap:butt;stroke-linejoin:miter;stroke-miterlimit:10;stroke-dasharray:none;stroke-opacity:1"
             id="path3641"
             inkscape:connector-curvature="0" /></g><g
           id="g3643"
           transform="matrix(0.1056,0,0,0.1056,18,40.08001)"><path
             d="m 350,5936 4710,0"
             style="fill:none;stroke:#000000;stroke-width:8;stroke-linecap:butt;stroke-linejoin:miter;stroke-miterlimit:10;stroke-dasharray:none;stroke-opacity:1"
             id="path3645"
             inkscape:connector-curvature="0" /></g></g></g></g></svg>