<?xml version="1.0" encoding="UTF-8" standalone="no"?>
<svg
   xmlns:dc="http://purl.org/dc/elements/1.1/"
   xmlns:cc="http://creativecommons.org/ns#"
   xmlns:rdf="http://www.w3.org/1999/02/22-rdf-syntax-ns#"
   xmlns:svg="http://www.w3.org/2000/svg"
   xmlns="http://www.w3.org/2000/svg"
   viewBox="0 0 667.39502 102.05387"
   height="102.05387"
   width="667.39502"
   xml:space="preserve"
   id="svg2"
   version="1.1"><metadata
     id="metadata8"><rdf:RDF><cc:Work
         rdf:about=""><dc:format>image/svg+xml</dc:format><dc:type
           rdf:resource="http://purl.org/dc/dcmitype/StillImage" /></cc:Work></rdf:RDF></metadata><defs
     id="defs6"><clipPath
       id="clipPath14"
       clipPathUnits="userSpaceOnUse"><path
         id="path12"
         d="M 0,0 H 612 V 792 H 0 Z" /></clipPath><clipPath
       id="clipPath24"
       clipPathUnits="userSpaceOnUse"><path
         id="path22"
         d="m 54.1152,645.2736 v 74.6592 H 552.336 v -74.6592 z" /></clipPath><clipPath
       id="clipPath30"
       clipPathUnits="userSpaceOnUse"><path
         id="path28"
         d="M 0,0 H 612 V 792 H 0 Z" /></clipPath><clipPath
       id="clipPath42"
       clipPathUnits="userSpaceOnUse"><path
         id="path40"
         d="m 54.1152,645.2736 v 74.6592 H 552.336 v -74.6592 z" /></clipPath><clipPath
       id="clipPath48"
       clipPathUnits="userSpaceOnUse"><path
         id="path46"
         d="M 54.1152,645.2736 H 552.336 v 74.65918 H 54.1152 Z" /></clipPath><clipPath
       id="clipPath62"
       clipPathUnits="userSpaceOnUse"><path
         id="path60"
         d="m 54.1152,645.2736 v 74.6592 H 552.336 v -74.6592 z" /></clipPath><clipPath
       id="clipPath68"
       clipPathUnits="userSpaceOnUse"><path
         id="path66"
         d="M 54.1152,645.2736 H 552.336 v 74.65918 H 54.1152 Z" /></clipPath><clipPath
       id="clipPath82"
       clipPathUnits="userSpaceOnUse"><path
         id="path80"
         d="m 54.1152,645.2736 v 74.6592 H 552.336 v -74.6592 z" /></clipPath><clipPath
       id="clipPath88"
       clipPathUnits="userSpaceOnUse"><path
         id="path86"
         d="M 54.1152,645.2736 H 552.336 v 74.65918 H 54.1152 Z" /></clipPath><clipPath
       id="clipPath102"
       clipPathUnits="userSpaceOnUse"><path
         id="path100"
         d="m 54.1152,645.2736 v 74.6592 H 552.336 v -74.6592 z" /></clipPath><clipPath
       id="clipPath108"
       clipPathUnits="userSpaceOnUse"><path
         id="path106"
         d="M 54.1152,645.2736 H 552.336 v 74.65918 H 54.1152 Z" /></clipPath><clipPath
       id="clipPath122"
       clipPathUnits="userSpaceOnUse"><path
         id="path120"
         d="m 54.1152,645.2736 v 74.6592 H 552.336 v -74.6592 z" /></clipPath><clipPath
       id="clipPath128"
       clipPathUnits="userSpaceOnUse"><path
         id="path126"
         d="M 54.1152,645.2736 H 552.336 v 74.65918 H 54.1152 Z" /></clipPath><clipPath
       id="clipPath142"
       clipPathUnits="userSpaceOnUse"><path
         id="path140"
         d="m 54.1152,645.2736 v 74.6592 H 552.336 v -74.6592 z" /></clipPath><clipPath
       id="clipPath148"
       clipPathUnits="userSpaceOnUse"><path
         id="path146"
         d="M 54.1152,645.2736 H 552.336 v 74.65918 H 54.1152 Z" /></clipPath><clipPath
       id="clipPath162"
       clipPathUnits="userSpaceOnUse"><path
         id="path160"
         d="m 54.1152,645.2736 v 74.6592 H 552.336 v -74.6592 z" /></clipPath><clipPath
       id="clipPath168"
       clipPathUnits="userSpaceOnUse"><path
         id="path166"
         d="M 54.1152,645.2736 H 552.336 v 74.65918 H 54.1152 Z" /></clipPath><clipPath
       id="clipPath182"
       clipPathUnits="userSpaceOnUse"><path
         id="path180"
         d="m 54.1152,645.2736 v 74.6592 H 552.336 v -74.6592 z" /></clipPath><clipPath
       id="clipPath188"
       clipPathUnits="userSpaceOnUse"><path
         id="path186"
         d="M 54.1152,645.2736 H 552.336 v 74.65918 H 54.1152 Z" /></clipPath><clipPath
       id="clipPath202"
       clipPathUnits="userSpaceOnUse"><path
         id="path200"
         d="m 54.1152,645.2736 v 74.6592 H 552.336 v -74.6592 z" /></clipPath><clipPath
       id="clipPath208"
       clipPathUnits="userSpaceOnUse"><path
         id="path206"
         d="M 54.1152,645.2736 H 552.336 v 74.65918 H 54.1152 Z" /></clipPath><clipPath
       id="clipPath222"
       clipPathUnits="userSpaceOnUse"><path
         id="path220"
         d="m 54.1152,645.2736 v 74.6592 H 552.336 v -74.6592 z" /></clipPath><clipPath
       id="clipPath228"
       clipPathUnits="userSpaceOnUse"><path
         id="path226"
         d="M 54.1152,645.2736 H 552.336 v 74.65918 H 54.1152 Z" /></clipPath><clipPath
       id="clipPath242"
       clipPathUnits="userSpaceOnUse"><path
         id="path240"
         d="m 54.5376,694.9056 h 497.376 v 24.6048 H 54.5376 Z" /></clipPath><clipPath
       id="clipPath256"
       clipPathUnits="userSpaceOnUse"><path
         id="path254"
         d="m 53.2704,643.4784 h 500.8608 v 77.29919 H 53.2704 Z" /></clipPath></defs><g
     clip-path="url(#clipPath14)"
     transform="matrix(1.3333333,0,0,-1.3333333,-70.91088,961.17987)"
     id="g10"><g
       id="g16" /><g
       id="g18"><g
         clip-path="url(#clipPath24)"
         id="g20"><g
           clip-path="url(#clipPath30)"
           id="g26"><path
             id="path32"
             style="fill:#b8c1c9;fill-opacity:1;fill-rule:nonzero;stroke:none"
             d="m 54.5376,694.8 h 497.4816 v 24.7104 H 54.5376 Z" /><path
             id="path34"
             style="fill:#b8c1c9;fill-opacity:1;fill-rule:nonzero;stroke:none"
             d="m 54.5376,645.5904 h 99.5808 v 49.3152 H 54.5376 Z" /></g></g></g><g
       id="g36"><g
         clip-path="url(#clipPath42)"
         id="g38"><g
           clip-path="url(#clipPath48)"
           id="g44"><g
             transform="matrix(0.2112,0,0,0.2112,18,40.08001)"
             id="g50"><text
               id="text54"
               style="font-variant:normal;font-weight:normal;font-size:58px;font-family:Lintel;-inkscape-font-specification:Lintel-Regular;writing-mode:lr-tb;fill:#000000;fill-opacity:1;fill-rule:nonzero;stroke:none"
               transform="matrix(1,0,0,-1,308,3023.75)"><tspan
                 id="tspan52"
                 y="0"
                 x="0 43.268002 72.557999 92.393997 122.322 142.73801 155.14999 174.98599">Maturity</tspan></text>
</g></g></g></g><g
       id="g56"><g
         clip-path="url(#clipPath62)"
         id="g58"><g
           clip-path="url(#clipPath68)"
           id="g64"><g
             transform="matrix(0.2112,0,0,0.2112,18,40.08001)"
             id="g70"><text
               id="text74"
               style="font-variant:normal;font-weight:normal;font-size:50px;font-family:Lintel;-inkscape-font-specification:Lintel-Regular;writing-mode:lr-tb;fill:#000000;fill-opacity:1;fill-rule:nonzero;stroke:none"
               transform="matrix(1,0,0,-1,796.5,3025.75)"><tspan
                 id="tspan72"
                 y="0"
                 x="0 25.450001 40.450001 75.25 99.099998 122.95 147.89999">4 weeks</tspan></text>
</g></g></g></g><g
       id="g76"><g
         clip-path="url(#clipPath82)"
         id="g78"><g
           clip-path="url(#clipPath88)"
           id="g84"><g
             transform="matrix(0.2112,0,0,0.2112,18,40.08001)"
             id="g90"><text
               id="text94"
               style="font-variant:normal;font-weight:normal;font-size:50px;font-family:Lintel;-inkscape-font-specification:Lintel-Regular;writing-mode:lr-tb;fill:#000000;fill-opacity:1;fill-rule:nonzero;stroke:none"
               transform="matrix(1,0,0,-1,1259,3025.75)"><tspan
                 id="tspan92"
                 y="0"
                 x="0 16.5 42.25 57.25 92.050003 115.9 139.75 164.7">13 weeks</tspan></text>
</g></g></g></g><g
       id="g96"><g
         clip-path="url(#clipPath102)"
         id="g98"><g
           clip-path="url(#clipPath108)"
           id="g104"><g
             transform="matrix(0.2112,0,0,0.2112,18,40.08001)"
             id="g110"><text
               id="text114"
               style="font-variant:normal;font-weight:normal;font-size:50px;font-family:Lintel;-inkscape-font-specification:Lintel-Regular;writing-mode:lr-tb;fill:#000000;fill-opacity:1;fill-rule:nonzero;stroke:none"
               transform="matrix(1,0,0,-1,1725,3025.75)"><tspan
                 id="tspan112"
                 y="0"
                 x="0 23.700001 52.450001 67.449997 102.25 126.1 149.95 174.89999">26 weeks</tspan></text>
</g></g></g></g><g
       id="g116"><g
         clip-path="url(#clipPath122)"
         id="g118"><g
           clip-path="url(#clipPath128)"
           id="g124"><g
             transform="matrix(0.2112,0,0,0.2112,18,40.08001)"
             id="g130"><text
               id="text134"
               style="font-variant:normal;font-weight:normal;font-size:50px;font-family:Lintel;-inkscape-font-specification:Lintel-Regular;writing-mode:lr-tb;fill:#000000;fill-opacity:1;fill-rule:nonzero;stroke:none"
               transform="matrix(1,0,0,-1,2197.5,3025.75)"><tspan
                 id="tspan132"
                 y="0"
                 x="0 25.799999 49.5 64.5 99.300003 123.15 147 171.95">52 weeks</tspan></text>
</g></g></g></g><g
       id="g136"><g
         clip-path="url(#clipPath142)"
         id="g138"><g
           clip-path="url(#clipPath148)"
           id="g144"><g
             transform="matrix(0.2112,0,0,0.2112,18,40.08001)"
             id="g150"><text
               id="text154"
               style="font-variant:normal;font-weight:normal;font-size:58px;font-family:Lintel;-inkscape-font-specification:Lintel-Regular;writing-mode:lr-tb;fill:#000000;fill-opacity:1;fill-rule:nonzero;stroke:none"
               transform="matrix(1,0,0,-1,192.5,2907.25)"><tspan
                 id="tspan152"
                 y="0"
                 x="0 30.101999 50.518002 78.183998 107.474 133.922 163.85001 184.26601 214.48399 231.884 261.40601 273.81799 285.47601 297.134 314.534 334.37 363.66 382.68399 410.35001">Treasury bill rates</tspan></text>
</g></g></g></g><g
       id="g156"><g
         clip-path="url(#clipPath162)"
         id="g158"><g
           clip-path="url(#clipPath168)"
           id="g164"><g
             transform="matrix(0.2112,0,0,0.2112,18,40.08001)"
             id="g170"><text
               id="text174"
               style="font-variant:normal;font-weight:normal;font-size:50px;font-family:Lintel;-inkscape-font-specification:Lintel-Regular;writing-mode:lr-tb;fill:#000000;fill-opacity:1;fill-rule:nonzero;stroke:none"
               transform="matrix(1,0,0,-1,818.5,2909.25)"><tspan
                 id="tspan172"
                 y="0"
                 x="0 28.75 35.900002 64.650002 90.099998">0.04%</tspan></text>
</g></g></g></g><g
       id="g176"><g
         clip-path="url(#clipPath182)"
         id="g178"><g
           clip-path="url(#clipPath188)"
           id="g184"><g
             transform="matrix(0.2112,0,0,0.2112,18,40.08001)"
             id="g190"><text
               id="text194"
               style="font-variant:normal;font-weight:normal;font-size:50px;font-family:Lintel;-inkscape-font-specification:Lintel-Regular;writing-mode:lr-tb;fill:#000000;fill-opacity:1;fill-rule:nonzero;stroke:none"
               transform="matrix(1,0,0,-1,1290.5,2909.25)"><tspan
                 id="tspan192"
                 y="0"
                 x="0 28.75 35.900002 64.650002 88.349998">0.02%</tspan></text>
</g></g></g></g><g
       id="g196"><g
         clip-path="url(#clipPath202)"
         id="g198"><g
           clip-path="url(#clipPath208)"
           id="g204"><g
             transform="matrix(0.2112,0,0,0.2112,18,40.08001)"
             id="g210"><text
               id="text214"
               style="font-variant:normal;font-weight:normal;font-size:50px;font-family:Lintel;-inkscape-font-specification:Lintel-Regular;writing-mode:lr-tb;fill:#000000;fill-opacity:1;fill-rule:nonzero;stroke:none"
               transform="matrix(1,0,0,-1,1761,2909.25)"><tspan
                 id="tspan212"
                 y="0"
                 x="0 28.75 35.900002 64.650002 88.75">0.07%</tspan></text>
</g></g></g></g><g
       id="g216"><g
         clip-path="url(#clipPath222)"
         id="g218"><g
           clip-path="url(#clipPath228)"
           id="g224"><g
             transform="matrix(0.2112,0,0,0.2112,18,40.08001)"
             id="g230"><text
               id="text234"
               style="font-variant:normal;font-weight:normal;font-size:50px;font-family:Lintel;-inkscape-font-specification:Lintel-Regular;writing-mode:lr-tb;fill:#000000;fill-opacity:1;fill-rule:nonzero;stroke:none"
               transform="matrix(1,0,0,-1,2236,2909.25)"><tspan
                 id="tspan232"
                 y="0"
                 x="0 28.75 35.900002 52.400002 81.150002">0.10%</tspan></text>
</g></g></g></g><g
       id="g236"><g
         clip-path="url(#clipPath242)"
         id="g238"><g
           transform="matrix(0.2112,0,0,0.2112,18,40.08001)"
           id="g244"><text
             id="text248"
             style="font-variant:normal;font-weight:normal;font-size:58px;font-family:Lintel;-inkscape-font-specification:Lintel-Regular;writing-mode:lr-tb;fill:#000000;fill-opacity:1;fill-rule:nonzero;stroke:none"
             transform="matrix(1,0,0,-1,952.5,3140.25)"><tspan
               id="tspan246"
               y="0"
               x="0 14.152 44.369999 63.394001 91.059998 111.476 139.142 165.59 185.42599 202.826 222.662 251.952 270.97601 298.642 316.04199 345.564 374.854 393.47198 422.76199 440.16199 468.87201 486.21399 503.61401 540.09601 568.284 594.90601 612.30603 631.44598 664.79602 673.20599 690.60602 718.09802 751.448 770.58801">Interest rate data of Nov 10, 2014</tspan></text>
</g></g></g><g
       id="g250"><g
         clip-path="url(#clipPath256)"
         id="g252"><g
           transform="matrix(0.1056,0,0,0.1056,18,40.08001)"
           id="g258"><path
             id="path260"
             style="fill:none;stroke:#000000;stroke-width:8;stroke-linecap:butt;stroke-linejoin:miter;stroke-miterlimit:10;stroke-dasharray:none;stroke-opacity:1"
             d="M 346,6438 V 5731" /></g><g
           transform="matrix(0.1056,0,0,0.1056,18,40.08001)"
           id="g262"><path
             id="path264"
             style="fill:none;stroke:#000000;stroke-width:8;stroke-linecap:butt;stroke-linejoin:miter;stroke-miterlimit:10;stroke-dasharray:none;stroke-opacity:1"
             d="M 5056,6430 V 5731" /></g><g
           transform="matrix(0.1056,0,0,0.1056,18,40.08001)"
           id="g266"><path
             id="path268"
             style="fill:none;stroke:#000000;stroke-width:8;stroke-linecap:butt;stroke-linejoin:miter;stroke-miterlimit:10;stroke-dasharray:none;stroke-opacity:1"
             d="M 1288,6197 V 5731" /></g><g
           transform="matrix(0.1056,0,0,0.1056,18,40.08001)"
           id="g270"><path
             id="path272"
             style="fill:none;stroke:#000000;stroke-width:8;stroke-linecap:butt;stroke-linejoin:miter;stroke-miterlimit:10;stroke-dasharray:none;stroke-opacity:1"
             d="M 2230,6197 V 5731" /></g><g
           transform="matrix(0.1056,0,0,0.1056,18,40.08001)"
           id="g274"><path
             id="path276"
             style="fill:none;stroke:#000000;stroke-width:8;stroke-linecap:butt;stroke-linejoin:miter;stroke-miterlimit:10;stroke-dasharray:none;stroke-opacity:1"
             d="M 3172,6197 V 5731" /></g><g
           transform="matrix(0.1056,0,0,0.1056,18,40.08001)"
           id="g278"><path
             id="path280"
             style="fill:none;stroke:#000000;stroke-width:8;stroke-linecap:butt;stroke-linejoin:miter;stroke-miterlimit:10;stroke-dasharray:none;stroke-opacity:1"
             d="M 4114,6197 V 5731" /></g><g
           transform="matrix(0.1056,0,0,0.1056,18,40.08001)"
           id="g282"><path
             id="path284"
             style="fill:none;stroke:#000000;stroke-width:8;stroke-linecap:butt;stroke-linejoin:miter;stroke-miterlimit:10;stroke-dasharray:none;stroke-opacity:1"
             d="M 350,6434 H 5060" /></g><g
           transform="matrix(0.1056,0,0,0.1056,18,40.08001)"
           id="g286"><path
             id="path288"
             style="fill:none;stroke:#000000;stroke-width:8;stroke-linecap:butt;stroke-linejoin:miter;stroke-miterlimit:10;stroke-dasharray:none;stroke-opacity:1"
             d="M 350,6201 H 5060" /></g><g
           transform="matrix(0.1056,0,0,0.1056,18,40.08001)"
           id="g290"><path
             id="path292"
             style="fill:none;stroke:#000000;stroke-width:8;stroke-linecap:butt;stroke-linejoin:miter;stroke-miterlimit:10;stroke-dasharray:none;stroke-opacity:1"
             d="M 350,5968 H 5060" /></g><g
           transform="matrix(0.1056,0,0,0.1056,18,40.08001)"
           id="g294"><path
             id="path296"
             style="fill:none;stroke:#000000;stroke-width:8;stroke-linecap:butt;stroke-linejoin:miter;stroke-miterlimit:10;stroke-dasharray:none;stroke-opacity:1"
             d="M 350,5735 H 5060" /></g></g></g></g></svg>