<?xml version="1.0" encoding="UTF-8" standalone="no"?>
<!-- Created with Inkscape (http://www.inkscape.org/) -->

<svg
   xmlns:dc="http://purl.org/dc/elements/1.1/"
   xmlns:cc="http://creativecommons.org/ns#"
   xmlns:rdf="http://www.w3.org/1999/02/22-rdf-syntax-ns#"
   xmlns:svg="http://www.w3.org/2000/svg"
   xmlns="http://www.w3.org/2000/svg"
   xmlns:sodipodi="http://sodipodi.sourceforge.net/DTD/sodipodi-0.dtd"
   xmlns:inkscape="http://www.inkscape.org/namespaces/inkscape"
   id="svg2"
   version="1.1"
   inkscape:version="0.91 r13725"
   xml:space="preserve"
   width="626.31744"
   height="159.56387"
   viewBox="0 0 626.31744 159.56387"
   sodipodi:docname="StabilisPerformance.svg"><metadata
     id="metadata8"><rdf:RDF><cc:Work
         rdf:about=""><dc:format>image/svg+xml</dc:format><dc:type
           rdf:resource="http://purl.org/dc/dcmitype/StillImage" /><dc:title></dc:title></cc:Work></rdf:RDF></metadata><defs
     id="defs6"><clipPath
       clipPathUnits="userSpaceOnUse"
       id="clipPath18"><path
         d="m 53.9856,595.4328 0,124.5888 499.1112,0 0,-124.5888 -499.1112,0 z"
         id="path20"
         inkscape:connector-curvature="0" /></clipPath><clipPath
       clipPathUnits="userSpaceOnUse"
       id="clipPath24"><path
         d="M 0,0 612,0 612,792 0,792 0,0 Z"
         id="path26"
         inkscape:connector-curvature="0" /></clipPath><clipPath
       clipPathUnits="userSpaceOnUse"
       id="clipPath36"><path
         d="m 54.5904,684.1116 498.5064,0 0,35.30518 -498.5064,0 0,-35.30518 z"
         id="path38"
         inkscape:connector-curvature="0" /></clipPath><clipPath
       clipPathUnits="userSpaceOnUse"
       id="clipPath62"><path
         d="m 339.4512,684.1116 70.61038,0 0,35.30518 -70.61038,0 0,-35.30518 z"
         id="path64"
         inkscape:connector-curvature="0" /></clipPath><clipPath
       clipPathUnits="userSpaceOnUse"
       id="clipPath82"><path
         d="m 410.6664,684.1116 70.61041,0 0,35.30518 -70.61041,0 0,-35.30518 z"
         id="path84"
         inkscape:connector-curvature="0" /></clipPath><clipPath
       clipPathUnits="userSpaceOnUse"
       id="clipPath102"><path
         d="m 54.5904,684.1116 498.5064,0 0,35.30518 -498.5064,0 0,-35.30518 z"
         id="path104"
         inkscape:connector-curvature="0" /></clipPath><clipPath
       clipPathUnits="userSpaceOnUse"
       id="clipPath116"><path
         d="m 53.9856,595.4328 499.1112,0 0,124.5888 -499.1112,0 0,-124.5888 z"
         id="path118"
         inkscape:connector-curvature="0" /></clipPath><clipPath
       clipPathUnits="userSpaceOnUse"
       id="clipPath334"><path
         d="m 53.3808,594.1476 501.0012,0 0,126.4788 -501.0012,0 0,-126.4788 z"
         id="path336"
         inkscape:connector-curvature="0" /></clipPath></defs><sodipodi:namedview
     pagecolor="#ffffff"
     bordercolor="#666666"
     borderopacity="1"
     objecttolerance="10"
     gridtolerance="10"
     guidetolerance="10"
     inkscape:pageopacity="0"
     inkscape:pageshadow="2"
     inkscape:window-width="1216"
     inkscape:window-height="721"
     id="namedview4"
     showgrid="false"
     inkscape:zoom="1.2432572"
     inkscape:cx="313.15872"
     inkscape:cy="79.781937"
     inkscape:window-x="445"
     inkscape:window-y="25"
     inkscape:window-maximized="0"
     inkscape:current-layer="g10" /><g
     id="g10"
     inkscape:groupmode="layer"
     inkscape:label="StabilisPerformance"
     transform="matrix(1.25,0,0,-1.25,-65.885538,902.84825)"><g
       id="g12" /><g
       id="g14"><g
         id="g16"
         clip-path="url(#clipPath18)"><g
           id="g22"
           clip-path="url(#clipPath24)"><path
             d="m 125.5032,683.7336 427.3668,0 0,35.9856 -427.3668,0 0,-35.9856 z"
             style="fill:#b8c1c9;fill-opacity:1;fill-rule:nonzero;stroke:none"
             id="path28"
             inkscape:connector-curvature="0" /><path
             d="m 54.288,595.6596 71.2908,0 0,88.1496 -71.2908,0 0,-88.1496 z"
             style="fill:#b8c1c9;fill-opacity:1;fill-rule:nonzero;stroke:none"
             id="path30"
             inkscape:connector-curvature="0" /></g></g></g><g
       id="g32"><g
         id="g34"
         clip-path="url(#clipPath36)"><g
           id="g40"
           transform="matrix(0.1512,0,0,0.1512,18,40.07522)"><text
             transform="matrix(1,0,0,-1,733,4357.75)"
             style="font-variant:normal;font-weight:normal;font-size:58px;font-family:Lintel-Regular;-inkscape-font-specification:Lintel-Regular;writing-mode:lr-tb;fill:#000000;fill-opacity:1;fill-rule:nonzero;stroke:none"
             id="text42"><tspan
               x="0 32.596001 62.523998 107.532 137.46001 149.118 178.408 198.244 210.65601 236.524 264.19 281.59 302.00601 329.672 349.508 379.436 399.85199"
               y="0"
               sodipodi:role="line"
               id="tspan44">Cumulative return</tspan></text>
</g><g
           id="g46"
           transform="matrix(0.1512,0,0,0.1512,18,40.07522)"><text
             transform="matrix(1,0,0,-1,1205.5,4357.75)"
             style="font-variant:normal;font-weight:normal;font-size:58px;font-family:Lintel-Regular;-inkscape-font-specification:Lintel-Regular;writing-mode:lr-tb;fill:#000000;fill-opacity:1;fill-rule:nonzero;stroke:none"
             id="text48"><tspan
               x="0 35.032001 65.25 95.468002 125.396 154.686 166.34399 178.756 204.218 231.884 261.40601 278.806 299.22198 326.888 346.724 376.65201 397.06799"
               y="0"
               sodipodi:role="line"
               id="tspan50">Annualized return</tspan></text>
</g><g
           id="g52"
           transform="matrix(0.1512,0,0,0.1512,18,40.07522)"><text
             transform="matrix(1,0,0,-1,1786.5,4357.75)"
             style="font-variant:normal;font-weight:normal;font-size:58px;font-family:Lintel-Regular;-inkscape-font-specification:Lintel-Regular;writing-mode:lr-tb;fill:#000000;fill-opacity:1;fill-rule:nonzero;stroke:none"
             id="text54"><tspan
               x="0 31.030001 59.740002 71.398003 100.688 120.524 132.936 144.59399 157.006 176.842"
               y="0"
               sodipodi:role="line"
               id="tspan56">Volatility</tspan></text>
</g></g></g><g
       id="g58"><g
         id="g60"
         clip-path="url(#clipPath62)"><g
           id="g66"
           transform="matrix(0.1512,0,0,0.1512,18,40.07522)"><text
             transform="matrix(1,0,0,-1,2198.5,4395.25)"
             style="font-variant:normal;font-weight:normal;font-size:58px;font-family:Lintel-Regular;-inkscape-font-specification:Lintel-Regular;writing-mode:lr-tb;fill:#000000;fill-opacity:1;fill-rule:nonzero;stroke:none"
             id="text68"><tspan
               x="0 35.669998 48.082001 74.529999 103.472 120.872 150.162 179.68401 191.922 221.85001 248.298 267.32199 294.98801"
               y="0"
               sodipodi:role="line"
               id="tspan70">Risk adjusted</tspan></text>
</g><g
           id="g72"
           transform="matrix(0.1512,0,0,0.1512,18,40.07522)"><text
             transform="matrix(1,0,0,-1,2286.91,4320.75)"
             style="font-variant:normal;font-weight:normal;font-size:58px;font-family:Lintel-Regular;-inkscape-font-specification:Lintel-Regular;writing-mode:lr-tb;fill:#000000;fill-opacity:1;fill-rule:nonzero;stroke:none"
             id="text74"><tspan
               x="0 20.416 48.082001 67.917999 97.846001 118.262"
               y="0"
               sodipodi:role="line"
               id="tspan76">return</tspan></text>
</g></g></g><g
       id="g78"><g
         id="g80"
         clip-path="url(#clipPath82)"><g
           id="g86"
           transform="matrix(0.1512,0,0,0.1512,18,40.07522)"><text
             transform="matrix(1,0,0,-1,2717.5,4395.25)"
             style="font-variant:normal;font-weight:normal;font-size:58px;font-family:Lintel-Regular;-inkscape-font-specification:Lintel-Regular;writing-mode:lr-tb;fill:#000000;fill-opacity:1;fill-rule:nonzero;stroke:none"
             id="text88"><tspan
               x="0 43.268002 72.557999 96.802002 109.214 154.222 184.14999"
               y="0"
               sodipodi:role="line"
               id="tspan90">Maximum</tspan></text>
</g><g
           id="g92"
           transform="matrix(0.1512,0,0,0.1512,18,40.07522)"><text
             transform="matrix(1,0,0,-1,2708.558,4320.75)"
             style="font-variant:normal;font-weight:normal;font-size:58px;font-family:Lintel-Regular;-inkscape-font-specification:Lintel-Regular;writing-mode:lr-tb;fill:#000000;fill-opacity:1;fill-rule:nonzero;stroke:none"
             id="text94"><tspan
               x="0 29.521999 49.358002 77.487999 118.03 147.552 175.914 216.63"
               y="0"
               sodipodi:role="line"
               id="tspan96">drawdown</tspan></text>
</g></g></g><g
       id="g98"><g
         id="g100"
         clip-path="url(#clipPath102)"><g
           id="g106"
           transform="matrix(0.1512,0,0,0.1512,18,40.07522)"><text
             transform="matrix(1,0,0,-1,3076.5,4357.75)"
             style="font-variant:normal;font-weight:normal;font-size:58px;font-family:Lintel-Regular;-inkscape-font-specification:Lintel-Regular;writing-mode:lr-tb;fill:#000000;fill-opacity:1;fill-rule:nonzero;stroke:none"
             id="text108"><tspan
               x="0 43.268002 72.557999 96.802002 109.214 154.222 184.14999 229.158 246.558 266.974 294.64001 320.508 348.69601 374.564 402.23001 422.646"
               y="0"
               sodipodi:role="line"
               id="tspan110">Maximum recovery</tspan></text>
</g></g></g><g
       id="g112"><g
         id="g114"
         clip-path="url(#clipPath116)"><g
           id="g120"
           transform="matrix(0.1512,0,0,0.1512,18,40.07522)"><text
             transform="matrix(1,0,0,-1,391,4180.75)"
             style="font-variant:normal;font-weight:normal;font-size:58px;font-family:Lintel-Regular;-inkscape-font-specification:Lintel-Regular;writing-mode:lr-tb;fill:#000000;fill-opacity:1;fill-rule:nonzero;stroke:none"
             id="text122"><tspan
               x="0 33.582001 52.200001 81.489998 111.012 123.424 135.082 147.494"
               y="0"
               sodipodi:role="line"
               id="tspan124">Stabilis</tspan></text>
</g><g
           id="g126"
           transform="matrix(0.1512,0,0,0.1512,18,40.07522)"><text
             transform="matrix(1,0,0,-1,863,4180.75)"
             style="font-variant:normal;font-weight:normal;font-size:58px;font-family:Lintel-Regular;-inkscape-font-specification:Lintel-Regular;writing-mode:lr-tb;fill:#000000;fill-opacity:1;fill-rule:nonzero;stroke:none"
             id="text128"><tspan
               x="0 27.955999 58.057999 66.351997 99.237999 128.75999"
               y="0"
               sodipodi:role="line"
               id="tspan130">75.84%</tspan></text>
</g><g
           id="g132"
           transform="matrix(0.1512,0,0,0.1512,18,40.07522)"><text
             transform="matrix(1,0,0,-1,1347.5,4180.75)"
             style="font-variant:normal;font-weight:normal;font-size:58px;font-family:Lintel-Regular;-inkscape-font-specification:Lintel-Regular;writing-mode:lr-tb;fill:#000000;fill-opacity:1;fill-rule:nonzero;stroke:none"
             id="text134"><tspan
               x="0 33.349998 41.644001 69.136002 102.486"
               y="0"
               sodipodi:role="line"
               id="tspan136">6.29%</tspan></text>
</g><g
           id="g138"
           transform="matrix(0.1512,0,0,0.1512,18,40.07522)"><text
             transform="matrix(1,0,0,-1,1826.5,4180.75)"
             style="font-variant:normal;font-weight:normal;font-size:58px;font-family:Lintel-Regular;-inkscape-font-specification:Lintel-Regular;writing-mode:lr-tb;fill:#000000;fill-opacity:1;fill-rule:nonzero;stroke:none"
             id="text140"><tspan
               x="0 29.521999 37.816002 67.337997 86.477997"
               y="0"
               sodipodi:role="line"
               id="tspan142">4.41%</tspan></text>
</g><g
           id="g144"
           transform="matrix(0.1512,0,0,0.1512,18,40.07522)"><text
             transform="matrix(1,0,0,-1,2318.5,4180.75)"
             style="font-variant:normal;font-weight:normal;font-size:58px;font-family:Lintel-Regular;-inkscape-font-specification:Lintel-Regular;writing-mode:lr-tb;fill:#000000;fill-opacity:1;fill-rule:nonzero;stroke:none"
             id="text146"><tspan
               x="0 19.139999 27.434 56.956001"
               y="0"
               sodipodi:role="line"
               id="tspan148">1.43</tspan></text>
</g><g
           id="g150"
           transform="matrix(0.1512,0,0,0.1512,18,40.07522)"><text
             transform="matrix(1,0,0,-1,2735,4180.75)"
             style="font-variant:normal;font-weight:normal;font-size:58px;font-family:Lintel-Regular;-inkscape-font-specification:Lintel-Regular;writing-mode:lr-tb;fill:#000000;fill-opacity:1;fill-rule:nonzero;stroke:none"
             id="text152"><tspan
               x="0 25.52 44.66 78.010002 86.304001 119.654 152.53999"
               y="0"
               sodipodi:role="line"
               id="tspan154">-10.98%</tspan></text>
</g><g
           id="g156"
           transform="matrix(0.1512,0,0,0.1512,18,40.07522)"><text
             transform="matrix(1,0,0,-1,3202,4180.75)"
             style="font-variant:normal;font-weight:normal;font-size:58px;font-family:Lintel-Regular;-inkscape-font-specification:Lintel-Regular;writing-mode:lr-tb;fill:#000000;fill-opacity:1;fill-rule:nonzero;stroke:none"
             id="text158"><tspan
               x="0 29.521999 62.872002 80.272003 117.218 146.508 176.726"
               y="0"
               sodipodi:role="line"
               id="tspan160">46 Days</tspan></text>
</g><g
           id="g162"
           transform="matrix(0.1512,0,0,0.1512,18,40.07522)"><text
             transform="matrix(1,0,0,-1,384.5,4064.25)"
             style="font-variant:normal;font-weight:normal;font-size:58px;font-family:Lintel-Regular;-inkscape-font-specification:Lintel-Regular;writing-mode:lr-tb;fill:#000000;fill-opacity:1;fill-rule:nonzero;stroke:none"
             id="text164"><tspan
               x="0 33.349998 66.699997 84.099998 106.082 123.482 153.004"
               y="0"
               sodipodi:role="line"
               id="tspan166">60 / 40</tspan></text>
</g><g
           id="g168"
           transform="matrix(0.1512,0,0,0.1512,18,40.07522)"><text
             transform="matrix(1,0,0,-1,862,4064.25)"
             style="font-variant:normal;font-weight:normal;font-size:58px;font-family:Lintel-Regular;-inkscape-font-specification:Lintel-Regular;writing-mode:lr-tb;fill:#000000;fill-opacity:1;fill-rule:nonzero;stroke:none"
             id="text170"><tspan
               x="0 32.886002 62.987999 71.281998 100.804 130.674"
               y="0"
               sodipodi:role="line"
               id="tspan172">85.43%</tspan></text>
</g><g
           id="g174"
           transform="matrix(0.1512,0,0,0.1512,18,40.07522)"><text
             transform="matrix(1,0,0,-1,1347.5,4064.25)"
             style="font-variant:normal;font-weight:normal;font-size:58px;font-family:Lintel-Regular;-inkscape-font-specification:Lintel-Regular;writing-mode:lr-tb;fill:#000000;fill-opacity:1;fill-rule:nonzero;stroke:none"
             id="text176"><tspan
               x="0 27.955999 36.25 69.599998 102.486"
               y="0"
               sodipodi:role="line"
               id="tspan178">7.08%</tspan></text>
</g><g
           id="g180"
           transform="matrix(0.1512,0,0,0.1512,18,40.07522)"><text
             transform="matrix(1,0,0,-1,1820,4064.25)"
             style="font-variant:normal;font-weight:normal;font-size:58px;font-family:Lintel-Regular;-inkscape-font-specification:Lintel-Regular;writing-mode:lr-tb;fill:#000000;fill-opacity:1;fill-rule:nonzero;stroke:none"
             id="text182"><tspan
               x="0 19.139999 38.279999 46.574001 79.575996 98.716003"
               y="0"
               sodipodi:role="line"
               id="tspan184">11.61%</tspan></text>
</g><g
           id="g186"
           transform="matrix(0.1512,0,0,0.1512,18,40.07522)"><text
             transform="matrix(1,0,0,-1,2314.5,4064.25)"
             style="font-variant:normal;font-weight:normal;font-size:58px;font-family:Lintel-Regular;-inkscape-font-specification:Lintel-Regular;writing-mode:lr-tb;fill:#000000;fill-opacity:1;fill-rule:nonzero;stroke:none"
             id="text188"><tspan
               x="0 33.349998 41.644001 74.646004"
               y="0"
               sodipodi:role="line"
               id="tspan190">0.61</tspan></text>
</g><g
           id="g192"
           transform="matrix(0.1512,0,0,0.1512,18,40.07522)"><text
             transform="matrix(1,0,0,-1,2734,4064.25)"
             style="font-variant:normal;font-weight:normal;font-size:58px;font-family:Lintel-Regular;-inkscape-font-specification:Lintel-Regular;writing-mode:lr-tb;fill:#000000;fill-opacity:1;fill-rule:nonzero;stroke:none"
             id="text194"><tspan
               x="0 25.52 55.389999 84.912003 93.206001 121.162 154.51199"
               y="0"
               sodipodi:role="line"
               id="tspan196">-34.70%</tspan></text>
</g><g
           id="g198"
           transform="matrix(0.1512,0,0,0.1512,18,40.07522)"><text
             transform="matrix(1,0,0,-1,3193,4064.25)"
             style="font-variant:normal;font-weight:normal;font-size:58px;font-family:Lintel-Regular;-inkscape-font-specification:Lintel-Regular;writing-mode:lr-tb;fill:#000000;fill-opacity:1;fill-rule:nonzero;stroke:none"
             id="text200"><tspan
               x="0 29.521999 48.661999 81.547997 98.947998 135.894 165.18401 195.40199"
               y="0"
               sodipodi:role="line"
               id="tspan202">418 Days</tspan></text>
</g><g
           id="g204"
           transform="matrix(0.1512,0,0,0.1512,18,40.07522)"><text
             transform="matrix(1,0,0,-1,427,3947.75)"
             style="font-variant:normal;font-weight:normal;font-size:58px;font-family:Lintel-Regular;-inkscape-font-specification:Lintel-Regular;writing-mode:lr-tb;fill:#000000;fill-opacity:1;fill-rule:nonzero;stroke:none"
             id="text206"><tspan
               x="0 33.582001 67.917999"
               y="0"
               sodipodi:role="line"
               id="tspan208">SPY</tspan></text>
</g><g
           id="g210"
           transform="matrix(0.1512,0,0,0.1512,18,40.07522)"><text
             transform="matrix(1,0,0,-1,851.5,3947.75)"
             style="font-variant:normal;font-weight:normal;font-size:58px;font-family:Lintel-Regular;-inkscape-font-specification:Lintel-Regular;writing-mode:lr-tb;fill:#000000;fill-opacity:1;fill-rule:nonzero;stroke:none"
             id="text212"><tspan
               x="0 19.139999 52.490002 80.445999 88.739998 122.09 151.612"
               y="0"
               sodipodi:role="line"
               id="tspan214">107.04%</tspan></text>
</g><g
           id="g216"
           transform="matrix(0.1512,0,0,0.1512,18,40.07522)"><text
             transform="matrix(1,0,0,-1,1347.5,3947.75)"
             style="font-variant:normal;font-weight:normal;font-size:58px;font-family:Lintel-Regular;-inkscape-font-specification:Lintel-Regular;writing-mode:lr-tb;fill:#000000;fill-opacity:1;fill-rule:nonzero;stroke:none"
             id="text218"><tspan
               x="0 32.886002 41.18 74.066002 102.022"
               y="0"
               sodipodi:role="line"
               id="tspan220">8.87%</tspan></text>
</g><g
           id="g222"
           transform="matrix(0.1512,0,0,0.1512,18,40.07522)"><text
             transform="matrix(1,0,0,-1,1809.5,3947.75)"
             style="font-variant:normal;font-weight:normal;font-size:58px;font-family:Lintel-Regular;-inkscape-font-specification:Lintel-Regular;writing-mode:lr-tb;fill:#000000;fill-opacity:1;fill-rule:nonzero;stroke:none"
             id="text224"><tspan
               x="0 19.139999 52.490002 60.784 90.306 120.176"
               y="0"
               sodipodi:role="line"
               id="tspan226">19.43%</tspan></text>
</g><g
           id="g228"
           transform="matrix(0.1512,0,0,0.1512,18,40.07522)"><text
             transform="matrix(1,0,0,-1,2309.5,3947.75)"
             style="font-variant:normal;font-weight:normal;font-size:58px;font-family:Lintel-Regular;-inkscape-font-specification:Lintel-Regular;writing-mode:lr-tb;fill:#000000;fill-opacity:1;fill-rule:nonzero;stroke:none"
             id="text230"><tspan
               x="0 33.349998 41.644001 71.166"
               y="0"
               sodipodi:role="line"
               id="tspan232">0.46</tspan></text>
</g><g
           id="g234"
           transform="matrix(0.1512,0,0,0.1512,18,40.07522)"><text
             transform="matrix(1,0,0,-1,2738,3947.75)"
             style="font-variant:normal;font-weight:normal;font-size:58px;font-family:Lintel-Regular;-inkscape-font-specification:Lintel-Regular;writing-mode:lr-tb;fill:#000000;fill-opacity:1;fill-rule:nonzero;stroke:none"
             id="text236"><tspan
               x="0 25.52 55.622002 85.723999 94.017998 113.158 146.508"
               y="0"
               sodipodi:role="line"
               id="tspan238">-55.19%</tspan></text>
</g><g
           id="g240"
           transform="matrix(0.1512,0,0,0.1512,18,40.07522)"><text
             transform="matrix(1,0,0,-1,3184,3947.75)"
             style="font-variant:normal;font-weight:normal;font-size:58px;font-family:Lintel-Regular;-inkscape-font-specification:Lintel-Regular;writing-mode:lr-tb;fill:#000000;fill-opacity:1;fill-rule:nonzero;stroke:none"
             id="text242"><tspan
               x="0 32.886002 65.598 98.947998 116.348 153.29401 182.584 212.802"
               y="0"
               sodipodi:role="line"
               id="tspan244">869 Days</tspan></text>
</g><g
           id="g246"
           transform="matrix(0.1512,0,0,0.1512,18,40.07522)"><text
             transform="matrix(1,0,0,-1,424,3831.25)"
             style="font-variant:normal;font-weight:normal;font-size:58px;font-family:Lintel-Regular;-inkscape-font-specification:Lintel-Regular;writing-mode:lr-tb;fill:#000000;fill-opacity:1;fill-rule:nonzero;stroke:none"
             id="text248"><tspan
               x="0 34.683998 71.398003"
               y="0"
               sodipodi:role="line"
               id="tspan250">AGG</tspan></text>
</g><g
           id="g252"
           transform="matrix(0.1512,0,0,0.1512,18,40.07522)"><text
             transform="matrix(1,0,0,-1,862,3831.25)"
             style="font-variant:normal;font-weight:normal;font-size:58px;font-family:Lintel-Regular;-inkscape-font-specification:Lintel-Regular;writing-mode:lr-tb;fill:#000000;fill-opacity:1;fill-rule:nonzero;stroke:none"
             id="text254"><tspan
               x="0 30.101999 59.972 68.265999 101.442 131.312"
               y="0"
               sodipodi:role="line"
               id="tspan256">53.03%</tspan></text>
</g><g
           id="g258"
           transform="matrix(0.1512,0,0,0.1512,18,40.07522)"><text
             transform="matrix(1,0,0,-1,1348,3831.25)"
             style="font-variant:normal;font-weight:normal;font-size:58px;font-family:Lintel-Regular;-inkscape-font-specification:Lintel-Regular;writing-mode:lr-tb;fill:#000000;fill-opacity:1;fill-rule:nonzero;stroke:none"
             id="text260"><tspan
               x="0 29.521999 37.816002 67.337997 100.688"
               y="0"
               sodipodi:role="line"
               id="tspan262">4.40%</tspan></text>
</g><g
           id="g264"
           transform="matrix(0.1512,0,0,0.1512,18,40.07522)"><text
             transform="matrix(1,0,0,-1,1824,3831.25)"
             style="font-variant:normal;font-weight:normal;font-size:58px;font-family:Lintel-Regular;-inkscape-font-specification:Lintel-Regular;writing-mode:lr-tb;fill:#000000;fill-opacity:1;fill-rule:nonzero;stroke:none"
             id="text266"><tspan
               x="0 30.101999 38.396 71.746002 90.886002"
               y="0"
               sodipodi:role="line"
               id="tspan268">5.01%</tspan></text>
</g><g
           id="g270"
           transform="matrix(0.1512,0,0,0.1512,18,40.07522)"><text
             transform="matrix(1,0,0,-1,2308,3831.25)"
             style="font-variant:normal;font-weight:normal;font-size:58px;font-family:Lintel-Regular;-inkscape-font-specification:Lintel-Regular;writing-mode:lr-tb;fill:#000000;fill-opacity:1;fill-rule:nonzero;stroke:none"
             id="text272"><tspan
               x="0 33.349998 41.644001 74.529999"
               y="0"
               sodipodi:role="line"
               id="tspan274">0.88</tspan></text>
</g><g
           id="g276"
           transform="matrix(0.1512,0,0,0.1512,18,40.07522)"><text
             transform="matrix(1,0,0,-1,2740,3831.25)"
             style="font-variant:normal;font-weight:normal;font-size:58px;font-family:Lintel-Regular;-inkscape-font-specification:Lintel-Regular;writing-mode:lr-tb;fill:#000000;fill-opacity:1;fill-rule:nonzero;stroke:none"
             id="text278"><tspan
               x="0 25.52 44.66 72.152 80.445999 113.332 142.854"
               y="0"
               sodipodi:role="line"
               id="tspan280">-12.84%</tspan></text>
</g><g
           id="g282"
           transform="matrix(0.1512,0,0,0.1512,18,40.07522)"><text
             transform="matrix(1,0,0,-1,3204,3831.25)"
             style="font-variant:normal;font-weight:normal;font-size:58px;font-family:Lintel-Regular;-inkscape-font-specification:Lintel-Regular;writing-mode:lr-tb;fill:#000000;fill-opacity:1;fill-rule:nonzero;stroke:none"
             id="text284"><tspan
               x="0 29.348 59.450001 76.849998 113.796 143.086 173.304"
               y="0"
               sodipodi:role="line"
               id="tspan286">45 Days</tspan></text>
</g><g
           id="g288"
           transform="matrix(0.1512,0,0,0.1512,18,40.07522)"><text
             transform="matrix(1,0,0,-1,438,3714.75)"
             style="font-variant:normal;font-weight:normal;font-size:58px;font-family:Lintel-Regular;-inkscape-font-specification:Lintel-Regular;writing-mode:lr-tb;fill:#000000;fill-opacity:1;fill-rule:nonzero;stroke:none"
             id="text290"><tspan
               x="0 14.152 47.27"
               y="0"
               sodipodi:role="line"
               id="tspan292">IEF</tspan></text>
</g><g
           id="g294"
           transform="matrix(0.1512,0,0,0.1512,18,40.07522)"><text
             transform="matrix(1,0,0,-1,863,3714.75)"
             style="font-variant:normal;font-weight:normal;font-size:58px;font-family:Lintel-Regular;-inkscape-font-specification:Lintel-Regular;writing-mode:lr-tb;fill:#000000;fill-opacity:1;fill-rule:nonzero;stroke:none"
             id="text296"><tspan
               x="0 33.001999 60.958 69.251999 99.353996 129.45599"
               y="0"
               sodipodi:role="line"
               id="tspan298">67.55%</tspan></text>
</g><g
           id="g300"
           transform="matrix(0.1512,0,0,0.1512,18,40.07522)"><text
             transform="matrix(1,0,0,-1,1346,3714.75)"
             style="font-variant:normal;font-weight:normal;font-size:58px;font-family:Lintel-Regular;-inkscape-font-specification:Lintel-Regular;writing-mode:lr-tb;fill:#000000;fill-opacity:1;fill-rule:nonzero;stroke:none"
             id="text302"><tspan
               x="0 30.101999 38.396 71.746002 105.096"
               y="0"
               sodipodi:role="line"
               id="tspan304">5.60%</tspan></text>
</g><g
           id="g306"
           transform="matrix(0.1512,0,0,0.1512,18,40.07522)"><text
             transform="matrix(1,0,0,-1,1817.5,3714.75)"
             style="font-variant:normal;font-weight:normal;font-size:58px;font-family:Lintel-Regular;-inkscape-font-specification:Lintel-Regular;writing-mode:lr-tb;fill:#000000;fill-opacity:1;fill-rule:nonzero;stroke:none"
             id="text308"><tspan
               x="0 33.349998 41.644001 74.529999 104.052"
               y="0"
               sodipodi:role="line"
               id="tspan310">6.84%</tspan></text>
</g><g
           id="g312"
           transform="matrix(0.1512,0,0,0.1512,18,40.07522)"><text
             transform="matrix(1,0,0,-1,2310.5,3714.75)"
             style="font-variant:normal;font-weight:normal;font-size:58px;font-family:Lintel-Regular;-inkscape-font-specification:Lintel-Regular;writing-mode:lr-tb;fill:#000000;fill-opacity:1;fill-rule:nonzero;stroke:none"
             id="text314"><tspan
               x="0 33.349998 41.644001 74.529999"
               y="0"
               sodipodi:role="line"
               id="tspan316">0.82</tspan></text>
</g><g
           id="g318"
           transform="matrix(0.1512,0,0,0.1512,18,40.07522)"><text
             transform="matrix(1,0,0,-1,2737,3714.75)"
             style="font-variant:normal;font-weight:normal;font-size:58px;font-family:Lintel-Regular;-inkscape-font-specification:Lintel-Regular;writing-mode:lr-tb;fill:#000000;fill-opacity:1;fill-rule:nonzero;stroke:none"
             id="text320"><tspan
               x="0 25.52 44.66 78.010002 86.304001 115.826 149.17599"
               y="0"
               sodipodi:role="line"
               id="tspan322">-10.40%</tspan></text>
</g><g
           id="g324"
           transform="matrix(0.1512,0,0,0.1512,18,40.07522)"><text
             transform="matrix(1,0,0,-1,3188.5,3714.75)"
             style="font-variant:normal;font-weight:normal;font-size:58px;font-family:Lintel-Regular;-inkscape-font-specification:Lintel-Regular;writing-mode:lr-tb;fill:#000000;fill-opacity:1;fill-rule:nonzero;stroke:none"
             id="text326"><tspan
               x="0 27.492001 60.841999 90.363998 107.764 144.71001 174 204.218"
               y="0"
               sodipodi:role="line"
               id="tspan328">264 Days</tspan></text>
</g></g></g><g
       id="g330"><g
         id="g332"
         clip-path="url(#clipPath334)"><g
           id="g338"
           transform="matrix(0.0756,0,0,0.0756,18,40.07522)"><path
             d="m 480,8994 0,-1648"
             style="fill:none;stroke:#000000;stroke-width:8;stroke-linecap:butt;stroke-linejoin:miter;stroke-miterlimit:10;stroke-dasharray:none;stroke-opacity:1"
             id="path340"
             inkscape:connector-curvature="0" /></g><g
           id="g342"
           transform="matrix(0.0756,0,0,0.0756,18,40.07522)"><path
             d="m 1422,8986 0,-1640"
             style="fill:none;stroke:#000000;stroke-width:8;stroke-linecap:butt;stroke-linejoin:miter;stroke-miterlimit:10;stroke-dasharray:none;stroke-opacity:1"
             id="path344"
             inkscape:connector-curvature="0" /></g><g
           id="g346"
           transform="matrix(0.0756,0,0,0.0756,18,40.07522)"><path
             d="m 2364,8986 0,-1640"
             style="fill:none;stroke:#000000;stroke-width:8;stroke-linecap:butt;stroke-linejoin:miter;stroke-miterlimit:10;stroke-dasharray:none;stroke-opacity:1"
             id="path348"
             inkscape:connector-curvature="0" /></g><g
           id="g350"
           transform="matrix(0.0756,0,0,0.0756,18,40.07522)"><path
             d="m 3306,8986 0,-1640"
             style="fill:none;stroke:#000000;stroke-width:8;stroke-linecap:butt;stroke-linejoin:miter;stroke-miterlimit:10;stroke-dasharray:none;stroke-opacity:1"
             id="path352"
             inkscape:connector-curvature="0" /></g><g
           id="g354"
           transform="matrix(0.0756,0,0,0.0756,18,40.07522)"><path
             d="m 4248,8986 0,-1640"
             style="fill:none;stroke:#000000;stroke-width:8;stroke-linecap:butt;stroke-linejoin:miter;stroke-miterlimit:10;stroke-dasharray:none;stroke-opacity:1"
             id="path356"
             inkscape:connector-curvature="0" /></g><g
           id="g358"
           transform="matrix(0.0756,0,0,0.0756,18,40.07522)"><path
             d="m 5190,8986 0,-1640"
             style="fill:none;stroke:#000000;stroke-width:8;stroke-linecap:butt;stroke-linejoin:miter;stroke-miterlimit:10;stroke-dasharray:none;stroke-opacity:1"
             id="path360"
             inkscape:connector-curvature="0" /></g><g
           id="g362"
           transform="matrix(0.0756,0,0,0.0756,18,40.07522)"><path
             d="m 6132,8986 0,-1640"
             style="fill:none;stroke:#000000;stroke-width:8;stroke-linecap:butt;stroke-linejoin:miter;stroke-miterlimit:10;stroke-dasharray:none;stroke-opacity:1"
             id="path364"
             inkscape:connector-curvature="0" /></g><g
           id="g366"
           transform="matrix(0.0756,0,0,0.0756,18,40.07522)"><path
             d="m 7074,8986 0,-1640"
             style="fill:none;stroke:#000000;stroke-width:8;stroke-linecap:butt;stroke-linejoin:miter;stroke-miterlimit:10;stroke-dasharray:none;stroke-opacity:1"
             id="path368"
             inkscape:connector-curvature="0" /></g><g
           id="g370"
           transform="matrix(0.0756,0,0,0.0756,18,40.07522)"><path
             d="m 484,8989.999 6594,0"
             style="fill:none;stroke:#000000;stroke-width:8;stroke-linecap:butt;stroke-linejoin:miter;stroke-miterlimit:10;stroke-dasharray:none;stroke-opacity:1"
             id="path372"
             inkscape:connector-curvature="0" /></g><g
           id="g374"
           transform="matrix(0.0756,0,0,0.0756,18,40.07522)"><path
             d="m 484,8515 6594,0"
             style="fill:none;stroke:#000000;stroke-width:8;stroke-linecap:butt;stroke-linejoin:miter;stroke-miterlimit:10;stroke-dasharray:none;stroke-opacity:1"
             id="path376"
             inkscape:connector-curvature="0" /></g><g
           id="g378"
           transform="matrix(0.0756,0,0,0.0756,18,40.07522)"><path
             d="m 484,8282 6594,0"
             style="fill:none;stroke:#000000;stroke-width:8;stroke-linecap:butt;stroke-linejoin:miter;stroke-miterlimit:10;stroke-dasharray:none;stroke-opacity:1"
             id="path380"
             inkscape:connector-curvature="0" /></g><g
           id="g382"
           transform="matrix(0.0756,0,0,0.0756,18,40.07522)"><path
             d="m 484,8049 6594,0"
             style="fill:none;stroke:#000000;stroke-width:8;stroke-linecap:butt;stroke-linejoin:miter;stroke-miterlimit:10;stroke-dasharray:none;stroke-opacity:1"
             id="path384"
             inkscape:connector-curvature="0" /></g><g
           id="g386"
           transform="matrix(0.0756,0,0,0.0756,18,40.07522)"><path
             d="m 484,7816 6594,0"
             style="fill:none;stroke:#000000;stroke-width:8;stroke-linecap:butt;stroke-linejoin:miter;stroke-miterlimit:10;stroke-dasharray:none;stroke-opacity:1"
             id="path388"
             inkscape:connector-curvature="0" /></g><g
           id="g390"
           transform="matrix(0.0756,0,0,0.0756,18,40.07522)"><path
             d="m 484,7583 6594,0"
             style="fill:none;stroke:#000000;stroke-width:8;stroke-linecap:butt;stroke-linejoin:miter;stroke-miterlimit:10;stroke-dasharray:none;stroke-opacity:1"
             id="path392"
             inkscape:connector-curvature="0" /></g><g
           id="g394"
           transform="matrix(0.0756,0,0,0.0756,18,40.07522)"><path
             d="m 484,7350 6594,0"
             style="fill:none;stroke:#000000;stroke-width:8;stroke-linecap:butt;stroke-linejoin:miter;stroke-miterlimit:10;stroke-dasharray:none;stroke-opacity:1"
             id="path396"
             inkscape:connector-curvature="0" /></g></g></g></g></svg>