<?xml version="1.0" encoding="UTF-8" standalone="no"?>
<!-- Created with Inkscape (http://www.inkscape.org/) -->

<svg
   xmlns:dc="http://purl.org/dc/elements/1.1/"
   xmlns:cc="http://creativecommons.org/ns#"
   xmlns:rdf="http://www.w3.org/1999/02/22-rdf-syntax-ns#"
   xmlns:svg="http://www.w3.org/2000/svg"
   xmlns="http://www.w3.org/2000/svg"
   xmlns:sodipodi="http://sodipodi.sourceforge.net/DTD/sodipodi-0.dtd"
   xmlns:inkscape="http://www.inkscape.org/namespaces/inkscape"
   id="svg2"
   version="1.1"
   inkscape:version="0.91 r13725"
   xml:space="preserve"
   width="429.28302"
   height="219.10786"
   viewBox="0 0 429.28302 219.10786"
   sodipodi:docname="StabilisSignal.svg"><metadata
     id="metadata8"><rdf:RDF><cc:Work
         rdf:about=""><dc:format>image/svg+xml</dc:format><dc:type
           rdf:resource="http://purl.org/dc/dcmitype/StillImage" /><dc:title></dc:title></cc:Work></rdf:RDF></metadata><defs
     id="defs6"><clipPath
       clipPathUnits="userSpaceOnUse"
       id="clipPath18"><path
         d="m 54,548.04 0,171.9601 340.08,0 0,-171.9601 -340.08,0 z"
         id="path20"
         inkscape:connector-curvature="0" /></clipPath><clipPath
       clipPathUnits="userSpaceOnUse"
       id="clipPath24"><path
         d="M 0,0 612,0 612,792 0,792 0,0 Z"
         id="path26"
         inkscape:connector-curvature="0" /></clipPath><clipPath
       clipPathUnits="userSpaceOnUse"
       id="clipPath36"><path
         d="m 54,548.04 0,171.9601 340.08,0 0,-171.9601 -340.08,0 z"
         id="path38"
         inkscape:connector-curvature="0" /></clipPath><clipPath
       clipPathUnits="userSpaceOnUse"
       id="clipPath42"><path
         d="m 54,548.04 340.08,0 0,171.96 L 54,720 54,548.04 Z"
         id="path44"
         inkscape:connector-curvature="0" /></clipPath><clipPath
       clipPathUnits="userSpaceOnUse"
       id="clipPath56"><path
         d="m 54,548.04 0,171.9601 340.08,0 0,-171.9601 -340.08,0 z"
         id="path58"
         inkscape:connector-curvature="0" /></clipPath><clipPath
       clipPathUnits="userSpaceOnUse"
       id="clipPath62"><path
         d="m 54,548.04 340.08,0 0,171.96 L 54,720 54,548.04 Z"
         id="path64"
         inkscape:connector-curvature="0" /></clipPath><clipPath
       clipPathUnits="userSpaceOnUse"
       id="clipPath76"><path
         d="m 54,548.04 0,171.9601 340.08,0 0,-171.9601 -340.08,0 z"
         id="path78"
         inkscape:connector-curvature="0" /></clipPath><clipPath
       clipPathUnits="userSpaceOnUse"
       id="clipPath82"><path
         d="m 54,548.04 340.08,0 0,171.96 L 54,720 54,548.04 Z"
         id="path84"
         inkscape:connector-curvature="0" /></clipPath><clipPath
       clipPathUnits="userSpaceOnUse"
       id="clipPath96"><path
         d="m 168,606.0001 112.08,0 0,56.03998 -112.08,0 0,-56.03998 z"
         id="path98"
         inkscape:connector-curvature="0" /></clipPath><clipPath
       clipPathUnits="userSpaceOnUse"
       id="clipPath116"><path
         d="m 281.04,606.0001 112.08,0 0,56.03998 -112.08,0 0,-56.03998 z"
         id="path118"
         inkscape:connector-curvature="0" /></clipPath><clipPath
       clipPathUnits="userSpaceOnUse"
       id="clipPath136"><path
         d="m 54,548.04 340.08,0 0,171.96 L 54,720 54,548.04 Z"
         id="path138"
         inkscape:connector-curvature="0" /></clipPath><clipPath
       clipPathUnits="userSpaceOnUse"
       id="clipPath150"><path
         d="m 168,549.0001 112.08,0 0,56.03998 -112.08,0 0,-56.03998 z"
         id="path152"
         inkscape:connector-curvature="0" /></clipPath><clipPath
       clipPathUnits="userSpaceOnUse"
       id="clipPath170"><path
         d="m 281.04,549.0001 112.08,0 0,56.03998 -112.08,0 0,-56.03998 z"
         id="path172"
         inkscape:connector-curvature="0" /></clipPath><clipPath
       clipPathUnits="userSpaceOnUse"
       id="clipPath190"><path
         d="m 53.04,546.0001 343.08,0 0,174.96 -343.08,0 0,-174.96 z"
         id="path192"
         inkscape:connector-curvature="0" /></clipPath></defs><sodipodi:namedview
     pagecolor="#ffffff"
     bordercolor="#666666"
     borderopacity="1"
     objecttolerance="10"
     gridtolerance="10"
     guidetolerance="10"
     inkscape:pageopacity="0"
     inkscape:pageshadow="2"
     inkscape:window-width="1269"
     inkscape:window-height="638"
     id="namedview4"
     showgrid="false"
     inkscape:zoom="1.4254587"
     inkscape:cx="214.64151"
     inkscape:cy="109.55393"
     inkscape:window-x="0"
     inkscape:window-y="0"
     inkscape:window-maximized="0"
     inkscape:current-layer="g10" /><g
     id="g10"
     inkscape:groupmode="layer"
     inkscape:label="StabilisSignal"
     transform="matrix(1.25,0,0,-1.25,-65.644362,902.6515)"><g
       id="g12" /><g
       id="g14"><g
         id="g16"
         clip-path="url(#clipPath18)"><g
           id="g22"
           clip-path="url(#clipPath24)"><path
             d="m 167.52,662.4001 226.2,0 0,57.12 -226.2,0 0,-57.12 z"
             style="fill:#b8c1c9;fill-opacity:1;fill-rule:nonzero;stroke:none"
             id="path28"
             inkscape:connector-curvature="0" /><path
             d="m 54.48,548.4001 113.16,0 0,114.12 -113.16,0 0,-114.12 z"
             style="fill:#b8c1c9;fill-opacity:1;fill-rule:nonzero;stroke:none"
             id="path30"
             inkscape:connector-curvature="0" /></g></g></g><g
       id="g32"><g
         id="g34"
         clip-path="url(#clipPath36)"><g
           id="g40"
           clip-path="url(#clipPath42)"><g
             id="g46"
             transform="matrix(0.24,0,0,0.24,18,40.08008)"><text
               transform="matrix(1,0,0,-1,715,2691.75)"
               style="font-variant:normal;font-weight:normal;font-size:63px;font-family:Lintel-Regular;-inkscape-font-specification:Lintel-Regular;writing-mode:lr-tb;fill:#000000;fill-opacity:1;fill-rule:nonzero;stroke:none"
               id="text48"><tspan
                 x="0 33.389999 69.93 106.344 121.716 160.461 179.36099 212.49899 225.981 258.048"
                 y="0"
                 sodipodi:role="line"
                 id="tspan50">TYVIX high</tspan></text>
</g></g></g></g><g
       id="g52"><g
         id="g54"
         clip-path="url(#clipPath56)"><g
           id="g60"
           clip-path="url(#clipPath62)"><g
             id="g66"
             transform="matrix(0.24,0,0,0.24,18,40.08008)"><text
               transform="matrix(1,0,0,-1,1198,2691.75)"
               style="font-variant:normal;font-weight:normal;font-size:63px;font-family:Lintel-Regular;-inkscape-font-specification:Lintel-Regular;writing-mode:lr-tb;fill:#000000;fill-opacity:1;fill-rule:nonzero;stroke:none"
               id="text68"><tspan
                 x="0 33.389999 69.93 106.344 121.716 160.461 179.36099 192.024 222.83099"
                 y="0"
                 sodipodi:role="line"
                 id="tspan70">TYVIX low</tspan></text>
</g></g></g></g><g
       id="g72"><g
         id="g74"
         clip-path="url(#clipPath76)"><g
           id="g80"
           clip-path="url(#clipPath82)"><g
             id="g86"
             transform="matrix(0.24,0,0,0.24,18,40.08008)"><text
               transform="matrix(1,0,0,-1,279,2454.25)"
               style="font-variant:normal;font-weight:normal;font-size:63px;font-family:Lintel-Regular;-inkscape-font-specification:Lintel-Regular;writing-mode:lr-tb;fill:#000000;fill-opacity:1;fill-rule:nonzero;stroke:none"
               id="text88"><tspan
                 x="0 36.414001 51.785999 90.530998 109.431 142.569 156.05099 188.118"
                 y="0"
                 sodipodi:role="line"
                 id="tspan90">VIX high</tspan></text>
</g></g></g></g><g
       id="g92"><g
         id="g94"
         clip-path="url(#clipPath96)"><g
           id="g100"
           transform="matrix(0.24,0,0,0.24,18,40.08008)"><text
             transform="matrix(1,0,0,-1,681,2493.75)"
             style="font-variant:normal;font-weight:normal;font-size:63px;font-family:Lintel-Regular;-inkscape-font-specification:Lintel-Regular;writing-mode:lr-tb;fill:#000000;fill-opacity:1;fill-rule:nonzero;stroke:none"
             id="text102"><tspan
               x="0 38.241001 60.417 91.601997 123.417 155.48399 174.384 223.272 255.08701 276.82199 306.306 336.35699"
               y="0"
               sodipodi:role="line"
               id="tspan104">Broad market</tspan></text>
</g><g
           id="g106"
           transform="matrix(0.24,0,0,0.24,18,40.08008)"><text
             transform="matrix(1,0,0,-1,788.303,2414.75)"
             style="font-variant:normal;font-weight:normal;font-size:63px;font-family:Lintel-Regular;-inkscape-font-specification:Lintel-Regular;writing-mode:lr-tb;fill:#000000;fill-opacity:1;fill-rule:nonzero;stroke:none"
             id="text108"><tspan
               x="0 36.917999 68.733002 101.556 115.038"
               y="0"
               sodipodi:role="line"
               id="tspan110">Panic</tspan></text>
</g></g></g><g
       id="g112"><g
         id="g114"
         clip-path="url(#clipPath116)"><g
           id="g120"
           transform="matrix(0.24,0,0,0.24,18,40.08008)"><text
             transform="matrix(1,0,0,-1,1145.5,2493.75)"
             style="font-variant:normal;font-weight:normal;font-size:63px;font-family:Lintel-Regular;-inkscape-font-specification:Lintel-Regular;writing-mode:lr-tb;fill:#000000;fill-opacity:1;fill-rule:nonzero;stroke:none"
             id="text122"><tspan
               x="0 35.973 68.040001 100.548 114.03 135.576 168.399 187.299 236.187 268.00201 289.737 319.22101 349.272"
               y="0"
               sodipodi:role="line"
               id="tspan124">Equity market</tspan></text>
</g><g
           id="g126"
           transform="matrix(0.24,0,0,0.24,18,40.08008)"><text
             transform="matrix(1,0,0,-1,1283.218,2414.75)"
             style="font-variant:normal;font-weight:normal;font-size:63px;font-family:Lintel-Regular;-inkscape-font-specification:Lintel-Regular;writing-mode:lr-tb;fill:#000000;fill-opacity:1;fill-rule:nonzero;stroke:none"
             id="text128"><tspan
               x="0 22.176001 35.658001 64.386002"
               y="0"
               sodipodi:role="line"
               id="tspan130">risk</tspan></text>
</g></g></g><g
       id="g132"><g
         id="g134"
         clip-path="url(#clipPath136)"><g
           id="g140"
           transform="matrix(0.24,0,0,0.24,18,40.08008)"><text
             transform="matrix(1,0,0,-1,291,2216.75)"
             style="font-variant:normal;font-weight:normal;font-size:63px;font-family:Lintel-Regular;-inkscape-font-specification:Lintel-Regular;writing-mode:lr-tb;fill:#000000;fill-opacity:1;fill-rule:nonzero;stroke:none"
             id="text142"><tspan
               x="0 36.414001 51.785999 90.530998 109.431 122.094 152.901"
               y="0"
               sodipodi:role="line"
               id="tspan144">VIX low</tspan></text>
</g></g></g><g
       id="g146"><g
         id="g148"
         clip-path="url(#clipPath150)"><g
           id="g154"
           transform="matrix(0.24,0,0,0.24,18,40.08008)"><text
             transform="matrix(1,0,0,-1,690,2256.25)"
             style="font-variant:normal;font-weight:normal;font-size:63px;font-family:Lintel-Regular;-inkscape-font-specification:Lintel-Regular;writing-mode:lr-tb;fill:#000000;fill-opacity:1;fill-rule:nonzero;stroke:none"
             id="text156"><tspan
               x="0 35.153999 48.636002 74.403 104.454 136.521 155.42101 168.903 201.726 229.82401 261.009 309.897"
               y="0"
               sodipodi:role="line"
               id="tspan158">Fixed income</tspan></text>
</g><g
           id="g160"
           transform="matrix(0.24,0,0,0.24,18,40.08008)"><text
             transform="matrix(1,0,0,-1,710.848,2177.25)"
             style="font-variant:normal;font-weight:normal;font-size:63px;font-family:Lintel-Regular;-inkscape-font-specification:Lintel-Regular;writing-mode:lr-tb;fill:#000000;fill-opacity:1;fill-rule:nonzero;stroke:none"
             id="text162"><tspan
               x="0 48.888 80.703003 102.438 131.922 161.97301 183.519 202.41901 224.595 238.077 266.80499"
               y="0"
               sodipodi:role="line"
               id="tspan164">market risk</tspan></text>
</g></g></g><g
       id="g166"><g
         id="g168"
         clip-path="url(#clipPath170)"><g
           id="g174"
           transform="matrix(0.24,0,0,0.24,18,40.08008)"><text
             transform="matrix(1,0,0,-1,1152,2256.25)"
             style="font-variant:normal;font-weight:normal;font-size:63px;font-family:Lintel-Regular;-inkscape-font-specification:Lintel-Regular;writing-mode:lr-tb;fill:#000000;fill-opacity:1;fill-rule:nonzero;stroke:none"
             id="text176"><tspan
               x="0 38.241001 60.417 91.601997 123.417 155.48399 174.384 223.272 255.08701 276.82199 306.306 336.35699"
               y="0"
               sodipodi:role="line"
               id="tspan178">Broad market</tspan></text>
</g><g
           id="g180"
           transform="matrix(0.24,0,0,0.24,18,40.08008)"><text
             transform="matrix(1,0,0,-1,1270.803,2177.25)"
             style="font-variant:normal;font-weight:normal;font-size:63px;font-family:Lintel-Regular;-inkscape-font-specification:Lintel-Regular;writing-mode:lr-tb;fill:#000000;fill-opacity:1;fill-rule:nonzero;stroke:none"
             id="text182"><tspan
               x="0 28.098 59.912998 72.575996"
               y="0"
               sodipodi:role="line"
               id="tspan184">calm</tspan></text>
</g></g></g><g
       id="g186"><g
         id="g188"
         clip-path="url(#clipPath190)"><g
           id="g194"
           transform="matrix(0.12,0,0,0.12,18,40.08008)"><path
             d="m 304,5666 0,-1433"
             style="fill:none;stroke:#000000;stroke-width:8;stroke-linecap:butt;stroke-linejoin:miter;stroke-miterlimit:10;stroke-dasharray:none;stroke-opacity:1"
             id="path196"
             inkscape:connector-curvature="0" /></g><g
           id="g198"
           transform="matrix(0.12,0,0,0.12,18,40.08008)"><path
             d="m 1246,5658 0,-1425"
             style="fill:none;stroke:#000000;stroke-width:8;stroke-linecap:butt;stroke-linejoin:miter;stroke-miterlimit:10;stroke-dasharray:none;stroke-opacity:1"
             id="path200"
             inkscape:connector-curvature="0" /></g><g
           id="g202"
           transform="matrix(0.12,0,0,0.12,18,40.08008)"><path
             d="m 2188,5658 0,-1425"
             style="fill:none;stroke:#000000;stroke-width:8;stroke-linecap:butt;stroke-linejoin:miter;stroke-miterlimit:10;stroke-dasharray:none;stroke-opacity:1"
             id="path204"
             inkscape:connector-curvature="0" /></g><g
           id="g206"
           transform="matrix(0.12,0,0,0.12,18,40.08008)"><path
             d="m 3130,5658 0,-1425"
             style="fill:none;stroke:#000000;stroke-width:8;stroke-linecap:butt;stroke-linejoin:miter;stroke-miterlimit:10;stroke-dasharray:none;stroke-opacity:1"
             id="path208"
             inkscape:connector-curvature="0" /></g><g
           id="g210"
           transform="matrix(0.12,0,0,0.12,18,40.08008)"><path
             d="m 308,5662 2826,0"
             style="fill:none;stroke:#000000;stroke-width:8;stroke-linecap:butt;stroke-linejoin:miter;stroke-miterlimit:10;stroke-dasharray:none;stroke-opacity:1"
             id="path212"
             inkscape:connector-curvature="0" /></g><g
           id="g214"
           transform="matrix(0.12,0,0,0.12,18,40.08008)"><path
             d="m 308,5187 2826,0"
             style="fill:none;stroke:#000000;stroke-width:8;stroke-linecap:butt;stroke-linejoin:miter;stroke-miterlimit:10;stroke-dasharray:none;stroke-opacity:1"
             id="path216"
             inkscape:connector-curvature="0" /></g><g
           id="g218"
           transform="matrix(0.12,0,0,0.12,18,40.08008)"><path
             d="m 308,4712 2826,0"
             style="fill:none;stroke:#000000;stroke-width:8;stroke-linecap:butt;stroke-linejoin:miter;stroke-miterlimit:10;stroke-dasharray:none;stroke-opacity:1"
             id="path220"
             inkscape:connector-curvature="0" /></g><g
           id="g222"
           transform="matrix(0.12,0,0,0.12,18,40.08008)"><path
             d="m 308,4237 2826,0"
             style="fill:none;stroke:#000000;stroke-width:8;stroke-linecap:butt;stroke-linejoin:miter;stroke-miterlimit:10;stroke-dasharray:none;stroke-opacity:1"
             id="path224"
             inkscape:connector-curvature="0" /></g></g></g></g></svg>